<svg xmlns="http://www.w3.org/2000/svg" xmlns:xlink="http://www.w3.org/1999/xlink" viewBox="0 0 840 633"><defs><style>.cls-1{fill:none;}.cls-2{fill:#3d3d3d;}.cls-3{fill:#00b917;}.cls-4{fill:#fff;}.cls-4,.cls-6{fill-rule:evenodd;}.cls-5{clip-path:url(#clip-path);}.cls-6{fill:#1ba715;}</style><clipPath id="clip-path"><rect class="cls-1" x="379.82" y="440.8" width="80.36" height="80.36"/></clipPath></defs><g id="レイヤー_1" data-name="レイヤー 1"><path class="cls-2" d="M663.43,408l-4.72-1.51A250.3,250.3,0,0,0,629.84,193.7L634,191a255.13,255.13,0,0,1,29.44,217Z"/><path class="cls-2" d="M420.16,585.89a257,257,0,0,1-41.08-3.32A254.09,254.09,0,0,1,230.82,501.9l3.67-3.33a250.27,250.27,0,0,0,220.8,79.87l.7,4.9A252.69,252.69,0,0,1,420.16,585.89Z"/><path class="cls-2" d="M181.21,254.49l-4.73-1.5A256.22,256.22,0,0,1,352.05,84.1l1.32,4.77A251.24,251.24,0,0,0,181.21,254.49Z"/><path class="cls-2" d="M616.13,174.65a250.2,250.2,0,0,0-239.88-91l-.88-4.87A255.13,255.13,0,0,1,620,171.57Z"/><path class="cls-2" d="M215.59,483.43a254.63,254.63,0,0,1-47.78-194c.72-4.47,1.57-8.95,2.52-13.31l4.84,1.05c-.93,4.28-1.76,8.67-2.47,13.05a249.66,249.66,0,0,0,46.86,190.23Z"/><path class="cls-2" d="M479.48,578.84,478.32,574c77-18.52,141.34-72.93,172.21-145.55l4.56,1.94C623.61,504.46,558,560,479.48,578.84Z"/><path class="cls-2" d="M622.18,329.78a202.3,202.3,0,0,0-73.46-155.3l3.15-3.82a206.71,206.71,0,0,1,72.91,128.62,209,209,0,0,1,2.36,30.48Z"/><path class="cls-2" d="M419.41,537.56A204.73,204.73,0,0,1,318.06,510.7l2.44-4.31a202.5,202.5,0,0,0,186.76,6.39l.35-.17.39-.05.35,2.49,1,2.2a207.09,207.09,0,0,1-58.31,17.9A210.69,210.69,0,0,1,419.41,537.56Z"/><path class="cls-2" d="M212.87,331.19a207.35,207.35,0,0,1,92.32-173.27l2.75,4.13a202.37,202.37,0,0,0-90.12,169.12Z"/><path class="cls-2" d="M532,162a202.32,202.32,0,0,0-206-10.65l-.39.2-.43.06-.35-2.49L323.61,147A207.31,207.31,0,0,1,534.7,157.9Z"/><path class="cls-2" d="M300,499.18a205.39,205.39,0,0,1-84.77-137.73c-.47-3.12-.84-6-1.13-8.89L219,352v0c.29,2.86.65,5.69,1.11,8.73a200.5,200.5,0,0,0,82.74,134.43Z"/><path class="cls-2" d="M528.19,507l-2.59-4.22a203.18,203.18,0,0,0,95.59-152.15l4.93.49A208.15,208.15,0,0,1,528.19,507Z"/><path class="cls-2" d="M748.75,409.51a2.47,2.47,0,0,1-1.92-.91L718.54,374a2.47,2.47,0,1,1,3.83-3.13l28.3,34.64a2.49,2.49,0,0,1-.35,3.49A2.52,2.52,0,0,1,748.75,409.51Z"/><path class="cls-2" d="M764.4,428.67a2.48,2.48,0,0,1-1.92-.92l-7.39-9.05a2.47,2.47,0,1,1,3.83-3.13l7.4,9.05a2.49,2.49,0,0,1-1.92,4.05Z"/><path class="cls-2" d="M753.75,370.73a2.46,2.46,0,0,1-1.19-.31l-20.49-11.27a2.48,2.48,0,1,1,2.39-4.34l20.48,11.27a2.48,2.48,0,0,1-1.19,4.65Z"/><path class="cls-2" d="M786.49,388.73a2.4,2.4,0,0,1-1.19-.31l-20.9-11.49a2.48,2.48,0,0,1,2.39-4.34l20.89,11.49a2.48,2.48,0,0,1-1.19,4.65Z"/><path class="cls-2" d="M714,289.36a2.37,2.37,0,0,1-1.25-.35,2.48,2.48,0,0,1-.88-3.39l11.87-20.14A2.48,2.48,0,1,1,728,268l-11.87,20.15A2.49,2.49,0,0,1,714,289.36Z"/><path class="cls-2" d="M732.77,257.57a2.4,2.4,0,0,1-1.26-.35,2.48,2.48,0,0,1-.88-3.39l12.11-20.54a2.48,2.48,0,1,1,4.27,2.52L734.9,256.35A2.48,2.48,0,0,1,732.77,257.57Z"/><path class="cls-2" d="M729,302.27a2.48,2.48,0,0,1-1.51-4.45l33-25.35a2.48,2.48,0,1,1,3,3.93l-33,25.35A2.44,2.44,0,0,1,729,302.27Z"/><path class="cls-2" d="M775.07,266.85a2.44,2.44,0,0,1-2-1,2.47,2.47,0,0,1,.45-3.47l13.89-10.66a2.48,2.48,0,1,1,3,3.93l-13.88,10.66A2.44,2.44,0,0,1,775.07,266.85Z"/><path class="cls-2" d="M768.87,343.94l-.3,0-29.46-3.53a2.48,2.48,0,0,1,.59-4.92L769.16,339a2.48,2.48,0,0,1-.29,4.94Z"/><path class="cls-2" d="M827.53,351a1.51,1.51,0,0,1-.3,0l-42.69-5.11a2.48,2.48,0,0,1,.59-4.92L827.82,346a2.48,2.48,0,0,1-.29,4.94Z"/><path class="cls-2" d="M737.94,320.46a2.48,2.48,0,0,1-.65-4.87l12.89-3.49a2.48,2.48,0,1,1,1.3,4.78l-12.89,3.5A3,3,0,0,1,737.94,320.46Z"/><path class="cls-2" d="M767.21,312.61l-1.28-4.79,28.86-7.7a2.48,2.48,0,0,1,1.29,4.78Z"/><path class="cls-2" d="M119.55,290.83a2.45,2.45,0,0,1-1.92-.91l-28.3-34.65a2.48,2.48,0,0,1,3.84-3.13l28.29,34.64a2.48,2.48,0,0,1-1.91,4.05Z"/><path class="cls-2" d="M83,246.08a2.45,2.45,0,0,1-1.91-.91l-7.4-9A2.48,2.48,0,0,1,77.52,233L84.91,242A2.48,2.48,0,0,1,83,246.08Z"/><path class="cls-2" d="M106.73,306.23a2.56,2.56,0,0,1-1.19-.3L85.05,294.66a2.48,2.48,0,0,1,2.39-4.34l20.49,11.26a2.48,2.48,0,0,1-1.2,4.65Z"/><path class="cls-2" d="M74.4,288.45a2.56,2.56,0,0,1-1.19-.3L52.32,276.66a2.47,2.47,0,1,1,2.38-4.34L75.6,283.8a2.48,2.48,0,0,1-1.2,4.65Z"/><path class="cls-2" d="M114.09,396.48a2.39,2.39,0,0,1-1.25-.35,2.48,2.48,0,0,1-.88-3.39l11.87-20.14a2.48,2.48,0,1,1,4.27,2.52l-11.87,20.14A2.49,2.49,0,0,1,114.09,396.48Z"/><path class="cls-2" d="M95.12,428.67A2.49,2.49,0,0,1,93,424.93l12.11-20.54a2.48,2.48,0,0,1,4.27,2.51L97.26,427.45A2.49,2.49,0,0,1,95.12,428.67Z"/><path class="cls-2" d="M78,388.78a2.48,2.48,0,0,1-1.51-4.44l33-25.36a2.48,2.48,0,0,1,3,3.93l-33,25.36A2.5,2.5,0,0,1,78,388.78Z"/><path class="cls-2" d="M51.05,409.5a2.48,2.48,0,0,1-1.51-4.45L63.42,394.4a2.48,2.48,0,0,1,3,3.93L52.55,409A2.44,2.44,0,0,1,51.05,409.5Z"/><path class="cls-2" d="M100.59,325.29l-.29,0-29.46-3.53a2.48,2.48,0,1,1,.58-4.92l29.47,3.53a2.48,2.48,0,0,1-.3,4.94Z"/><path class="cls-2" d="M55.17,319.84h-.3l-42.69-5.12a2.48,2.48,0,0,1,.59-4.92l42.69,5.12a2.47,2.47,0,0,1-.29,4.93Z"/><path class="cls-2" d="M89.16,348.73a2.48,2.48,0,0,1-.64-4.87l12.89-3.5a2.48,2.48,0,0,1,1.3,4.78l-12.89,3.5A2.5,2.5,0,0,1,89.16,348.73Z"/><path class="cls-2" d="M44.57,360.71a2.48,2.48,0,0,1-.66-4.87l28.88-7.71,1.27,4.79-28.85,7.7A2.35,2.35,0,0,1,44.57,360.71Z"/><path class="cls-2" d="M315.14,262.63H294.8v-5l10.5-15.12a12.81,12.81,0,0,0,2.51-7.62c0-3.22-1.45-4.67-3.28-4.67-2,0-3.34,1.5-3.34,4.67h-6.67c0-6.62,4.67-11.12,10.73-11.12,5.78,0,10.34,4.78,10.34,11.12,0,5.06-3,9-4.95,12l-5.84,9.23h10.34Z"/><path class="cls-2" d="M320.54,251.18V235.72c0-8.72,5.39-11.95,11.51-11.95s11.5,3.23,11.5,11.95v15.46c0,8.73-5.39,11.95-11.5,11.95S320.54,259.91,320.54,251.18Zm15.23-.28V236c0-3.67-.78-5.67-3.72-5.67s-3.73,2-3.73,5.67v14.9c0,3.67.78,5.67,3.73,5.67S335.77,254.57,335.77,250.9Z"/><path class="cls-2" d="M368.29,262.63H348v-5l10.5-15.12a12.81,12.81,0,0,0,2.51-7.62c0-3.22-1.45-4.67-3.28-4.67-2,0-3.34,1.5-3.34,4.67h-6.67c0-6.62,4.67-11.12,10.73-11.12,5.78,0,10.34,4.78,10.34,11.12,0,5.06-3,9-4.95,12L358,256.07h10.34Z"/><path class="cls-2" d="M390.14,262.63h-7.78V232.89l-4.56,3.61v-8l5.45-4.23h6.89Z"/><path class="cls-2" d="M410,262.63h-8.67V254H410Z"/><path class="cls-2" d="M431.06,262.63h-7.78V232.89l-4.56,3.61v-8l5.45-4.23h6.89Z"/><path class="cls-2" d="M457.64,262.63h-7.79V232.89l-4.55,3.61v-8l5.44-4.23h6.9Z"/><path class="cls-2" d="M477.49,262.63h-8.68V254h8.68Z"/><path class="cls-2" d="M503.28,262.63H482.94v-5l10.5-15.12a12.79,12.79,0,0,0,2.5-7.62c0-3.22-1.44-4.67-3.28-4.67-2,0-3.33,1.5-3.33,4.67h-6.67c0-6.62,4.67-11.12,10.73-11.12,5.78,0,10.34,4.78,10.34,11.12,0,5.06-3,9-5,12l-5.84,9.23h10.34Z"/><path class="cls-2" d="M508.68,251.18V235.72c0-8.72,5.39-11.95,11.51-11.95s11.5,3.23,11.5,11.95v15.46c0,8.73-5.39,11.95-11.5,11.95S508.68,259.91,508.68,251.18Zm15.23-.28V236c0-3.67-.78-5.67-3.72-5.67s-3.73,2-3.73,5.67v14.9c0,3.67.78,5.67,3.73,5.67S523.91,254.57,523.91,250.9Z"/><path class="cls-2" d="M545,262.63h-8.67V254H545Z"/><path class="cls-2" d="M257.25,301c-.78-3.86-3-6.24-7.08-6.24-4.81,0-7.37,3.27-7.37,11.12v5.82c0,7.61,2.56,11.12,7.37,11.12,4.16,0,6.18-2.08,7.08-6.24h7.9c-1.36,9.21-6.54,13.26-15,13.26-9.21,0-15.69-5.59-15.69-18.14v-5.82c0-12.67,6.48-18.14,15.69-18.14,8.15,0,13.67,4.28,15,13.26Z"/><path class="cls-2" d="M294.64,316.19c0,8.15-3.86,13.68-12.84,13.68-8.62,0-12.84-5.36-12.84-13.68v-3.57c0-8.91,4.7-13.55,12.84-13.55s12.84,4.64,12.84,13.55Zm-7.55-.24v-3.09c0-4.75-1.54-7.37-5.29-7.37s-5.29,2.62-5.29,7.37V316c0,4.28,1.07,7.49,5.29,7.49S287.09,320.23,287.09,316Z"/><path class="cls-2" d="M324.07,329.33h-7.55V311.91c0-4.76-1.84-6.3-4.52-6.3s-4.69,2-4.69,6.24v17.48H299.7V299.6h7.43v2.5a7.89,7.89,0,0,1,6.6-3,9.73,9.73,0,0,1,8.32,4,10.83,10.83,0,0,1,8.56-4c6.48,0,10.29,3.92,10.29,11.65v18.61h-7.61V311.91c0-4.46-1.55-6.3-4.58-6.3-2.74,0-4.64,2-4.64,6.24Z"/><path class="cls-2" d="M371.34,329.33h-7.55V311.91c0-4.76-1.85-6.3-4.52-6.3s-4.7,2-4.7,6.24v17.48H347V299.6h7.43v2.5a7.89,7.89,0,0,1,6.6-3,9.75,9.75,0,0,1,8.33,4,10.81,10.81,0,0,1,8.56-4c6.48,0,10.28,3.92,10.28,11.65v18.61h-7.61V311.91c0-4.46-1.54-6.3-4.58-6.3-2.73,0-4.63,2-4.63,6.24Z"/><path class="cls-2" d="M394.82,288.31H403v7.37h-8.21Zm.3,11.29h7.61v29.73h-7.61Z"/><path class="cls-2" d="M409.68,299.6h7.44v2.5a8.53,8.53,0,0,1,6.83-3c6,0,10.88,2.85,10.88,11.65v18.61h-7.55V311.91c0-4.64-1.66-6.3-4.75-6.3-3.51,0-5.24,2.32-5.24,6.24v17.48h-7.61Z"/><path class="cls-2" d="M458,299.6h7.55v29.14c0,9.92-5.59,12.24-13.08,12.24-5.53,0-9-1.3-11.65-5.35L446,332c1.31,1.78,3,2.67,5.83,2.67,4.52,0,6.24-1.31,6.24-5.88v-1a9.42,9.42,0,0,1-6.36,2.09c-7.79,0-11.77-5.53-11.77-13.44v-4c0-8.68,4.69-13.32,11.77-13.32a9.42,9.42,0,0,1,6.36,2.08Zm0,17v-3.75c0-4.75-1.55-7.37-5.29-7.37s-5.29,2.62-5.29,7.37V316c0,4.28,1.19,7.49,5.29,7.49S458,320.53,458,316.61Z"/><path class="cls-2" d="M508.91,299c-1.78-2.79-3.92-4.16-8.08-4.16-3.75,0-5.77,1.72-5.77,4.52,0,3.21,2.62,4.63,8.08,6,8.57,2.14,12.43,5.35,12.43,12.61,0,6.71-4.52,11.95-14.15,11.95-7.19,0-12.19-2-15.81-6.72l6.36-4.4c2.2,2.73,4.69,4.1,8.92,4.1,4.75,0,6.36-2.08,6.36-4.58,0-2.85-1.73-4.46-8.39-6.18-8.08-2.14-12.12-6-12.12-12.78,0-6.48,4.28-11.54,14-11.54,6.54,0,11.47,2.2,14.38,6.72Z"/><path class="cls-2" d="M545.36,316.19c0,8.15-3.87,13.68-12.84,13.68-8.63,0-12.85-5.36-12.85-13.68v-3.57c0-8.91,4.7-13.55,12.85-13.55s12.84,4.64,12.84,13.55Zm-7.55-.24v-3.09c0-4.75-1.55-7.37-5.29-7.37s-5.3,2.62-5.3,7.37V316c0,4.28,1.07,7.49,5.3,7.49S537.81,320.23,537.81,316Z"/><path class="cls-2" d="M575,316.19c0,8.15-3.86,13.68-12.84,13.68-8.62,0-12.84-5.36-12.84-13.68v-3.57c0-8.91,4.7-13.55,12.84-13.55S575,303.71,575,312.62Zm-7.55-.24v-3.09c0-4.75-1.54-7.37-5.29-7.37s-5.29,2.62-5.29,7.37V316c0,4.28,1.07,7.49,5.29,7.49S567.47,320.23,567.47,316Z"/><path class="cls-2" d="M580.08,299.6h7.43v2.5a8.55,8.55,0,0,1,6.84-3c6,0,10.88,2.85,10.88,11.65v18.61h-7.55V311.91c0-4.64-1.67-6.3-4.76-6.3-3.51,0-5.23,2.32-5.23,6.24v17.48h-7.61Z"/><g id="グループ_35" data-name="グループ 35"><g id="グループ_34" data-name="グループ 34"><rect id="長方形_1530" data-name="長方形 1530" class="cls-3" x="352.51" y="360.96" width="134.98" height="258.85" rx="20.03"/><path id="長方形_1530_-_アウトライン" data-name="長方形 1530 - アウトライン" class="cls-2" d="M376.09,357.76h87.82a26.78,26.78,0,0,1,26.78,26.78V596.22A26.78,26.78,0,0,1,463.91,623H376.09a26.78,26.78,0,0,1-26.78-26.78h0V384.54A26.78,26.78,0,0,1,376.09,357.76Zm87.82,258.85a20.41,20.41,0,0,0,20.39-20.39V384.54a20.4,20.4,0,0,0-20.39-20.39H376.09a20.4,20.4,0,0,0-20.39,20.39V596.22a20.4,20.4,0,0,0,20.39,20.39Z"/><g id="グループ_33" data-name="グループ 33"><path id="パス_368" data-name="パス 368" class="cls-4" d="M478,593.9a11.17,11.17,0,0,1-11.26,11h-93.5a11.17,11.17,0,0,1-11.26-11V381.36a11.17,11.17,0,0,1,11.26-11H394.2l3.95,7.75h44.24l3.11-7.75h21.24a11.17,11.17,0,0,1,11.26,11Z"/><path id="パス_369" data-name="パス 369" class="cls-2" d="M466.75,608.52h-93.5a14.47,14.47,0,0,1-14.45-14.46V381.62a14.47,14.47,0,0,1,14.45-14.46H394.2a3.19,3.19,0,0,1,3,2.09l2.42,6.56h40.47l2.42-6.56a3.19,3.19,0,0,1,3-2.09h21.24a14.47,14.47,0,0,1,14.45,14.46V594.06A14.47,14.47,0,0,1,466.75,608.52Zm-93.5-235a8.09,8.09,0,0,0-8.06,8.07V594.06a8.09,8.09,0,0,0,8.06,8.07h93.49a8.1,8.1,0,0,0,8.07-8.07V381.62a8.1,8.1,0,0,0-8.07-8.07h-19l-2.42,6.56a3.19,3.19,0,0,1-3,2.09H397.4a3.19,3.19,0,0,1-3-2.09L392,373.55Z"/></g><path id="線_15" data-name="線 15" class="cls-2" d="M424.51,373.34h-9a3.2,3.2,0,0,1,0-6.39h9a3.2,3.2,0,1,1,0,6.39Z"/><path id="パス_374" data-name="パス 374" class="cls-2" d="M434.39,370.15a2.17,2.17,0,1,1-2.17-2.17h0A2.17,2.17,0,0,1,434.39,370.15Z"/></g></g><g class="cls-5"><g id="グループ_37" data-name="グループ 37"><g id="Camera"><rect id="長方形_252" data-name="長方形 252" class="cls-1" x="379.82" y="440.8" width="80.36" height="80.36"/><path id="パス_110" data-name="パス 110" class="cls-6" d="M420,496.05A10,10,0,1,0,410,486,10,10,0,0,0,420,496.05Zm0-30.14A20.09,20.09,0,1,1,399.91,486,20.1,20.1,0,0,1,420,465.91Zm30.13,55.25H389.86a10.29,10.29,0,0,1-10-10v-45.2a10.07,10.07,0,0,1,10-10.05h8l7.53-7.53a8.3,8.3,0,0,1,6-2.51H429a8,8,0,0,1,5.53,2.51l7.53,7.53h8a10.07,10.07,0,0,1,10,10.05v45.2a10.08,10.08,0,0,1-10.05,10Z"/></g></g></g><path class="cls-2" d="M170.59,143.28l3.9-4.85,1.63,1.31a7.19,7.19,0,0,1,1.62-6.05c3.15-3.92,7.58-5.6,13.32-1l12.14,9.78-4,4.93-11.36-9.16c-3-2.43-5-2.22-6.62-.2-1.84,2.29-1.23,4.63,1.33,6.69L194,153.94l-4,5Z"/><path class="cls-2" d="M200.86,123.11l3.41-3.57-1-1c-2-1.92-3.25-1.93-5.73.66-1.69,1.76-2.26,2.87-1.8,4.76L190.34,125c-.93-3.43.21-6.2,3.76-9.91,4.44-4.65,8.32-6,13.47-1l11.8,11.29-4.3,4.5-1.58-1.51c.53,1.89.18,3.62-1.81,5.71-3.58,3.74-8,4.44-11.72.93S197.25,126.89,200.86,123.11Zm6.79-.33-2.89,3c-1.79,1.87-2,3.29-.56,4.63s3,.88,4.53-.7c2-2.09,2.06-4-.39-6.3Z"/><path class="cls-2" d="M216.72,94.18,221.46,90l16.17,18.29c5.51,6.23,3.28,10.79-1.42,15-3.47,3.07-6.4,4.19-10.28,3.11l1.16-5.16a5.43,5.43,0,0,0,5.14-1.55c2.84-2.51,3.2-4.29.66-7.16l-.53-.6a7.89,7.89,0,0,1-2.84,4.84c-4.89,4.32-10.46,3.06-14.85-1.9l-2.24-2.54c-4.82-5.45-4.44-11,0-14.9a7.89,7.89,0,0,1,5.15-2.22Zm9.44,10.67-2.08-2.35c-2.64-3-5.06-3.77-7.42-1.69s-1.87,4.58.77,7.57l1.72,1.94c2.37,2.68,4.9,4,7.48,1.76S228.33,107.32,226.16,104.85Z"/><path class="cls-2" d="M238.91,89.13l4-2.94L242,85c-1.66-2.24-2.88-2.46-5.75-.32-2,1.46-2.71,2.45-2.57,4.4l-5.47.15c-.34-3.54,1.25-6.08,5.36-9.14,5.16-3.84,9.21-4.49,13.46,1.23l9.75,13.11-5,3.72-1.3-1.76c.21,2-.43,3.6-2.75,5.33-4.15,3.09-8.67,3-11.7-1C232.88,96.47,234.71,92.25,238.91,89.13Zm6.75.81-3.36,2.5c-2.08,1.55-2.49,2.91-1.33,4.47s2.82,1.38,4.58.07c2.32-1.73,2.7-3.56.67-6.28Z"/><path class="cls-2" d="M262.3,69.58a3.65,3.65,0,0,0-3.67.08c-2,1.27-2.43,3.6-.57,6.55l7.83,12.37L260.5,92l-13.31-21,5.26-3.33,1.12,1.77a6.18,6.18,0,0,1,3.23-5,7.3,7.3,0,0,1,7.76-.31Z"/><path class="cls-2" d="M292.55,69.1c-.12,3.51-2.11,5.92-6.07,8-6.6,3.5-12,.92-15.05-4.76l-1.59-3c-3.52-6.65-1.88-11.63,3.84-14.67,6.2-3.29,11-1.2,14.52,5.48l1.34,2.51L277,69.35c1.65,3,3.79,4.7,6.91,3,2.33-1.24,2.71-2.34,2.91-4Zm-17.68-3.75,6.91-3.67c-1.65-2.79-3.43-3.37-5.54-2.25S273.76,62.72,274.87,65.35Z"/><path class="cls-2" d="M292.34,46l11.38,12.46L302,41.86l5.9-2.54,2.29,27.37c.58,7-.79,9.39-7.19,12.15l-2.25-5.22c3.16-1.35,4.18-2.39,4-5.46L286.21,48.65Z"/><path class="cls-2" d="M322.3,44.91,327,43.34,326.52,42c-.89-2.64-2-3.22-5.38-2.08-2.31.78-3.34,1.49-3.8,3.38l-5.25-1.55c.77-3.46,3.07-5.39,7.93-7,6.09-2,10.15-1.41,12.42,5.34l5.2,15.49-5.9,2-.7-2.08c-.4,1.92-1.52,3.3-4.26,4.22-4.91,1.65-9.18.19-10.8-4.62C314.3,50,317.34,46.58,322.3,44.91Zm6.17,2.87-4,1.33c-2.45.83-3.27,2-2.65,3.84s2.26,2.18,4.34,1.48c2.74-.92,3.66-2.54,2.58-5.75Z"/><path class="cls-2" d="M361.52,49.64,355.34,51l-3.12-14.26c-.85-3.89-2.63-4.83-4.82-4.35s-3.48,2.5-2.73,5.95l3.13,14.31L341.57,54l-5.32-24.33,6.08-1.33.45,2a6.62,6.62,0,0,1,4.86-3.66,8.12,8.12,0,0,1,7.52,1.77,9.06,9.06,0,0,1,6.3-4.79c5.3-1.16,9.12,1.37,10.5,7.69l3.33,15.23L369.06,48l-3.12-14.26c-.79-3.65-2.39-4.88-4.87-4.34-2.24.49-3.43,2.49-2.68,5.94Z"/><path class="cls-2" d="M385.84,30.65l4.91-.53-.16-1.44c-.29-2.77-1.23-3.57-4.8-3.19-2.43.26-3.58.74-4.44,2.48l-4.79-2.64c1.5-3.22,4.16-4.6,9.26-5.15,6.39-.69,10.21.8,11,7.89l1.75,16.24-6.2.67-.23-2.18c-.81,1.79-2.19,2.89-5.07,3.2-5.15.55-9-1.79-9.55-6.84C376.93,33.91,380.64,31.21,385.84,30.65Zm5.41,4.13-4.16.44c-2.58.28-3.63,1.24-3.42,3.18s1.74,2.62,3.91,2.38c2.88-.31,4.13-1.69,3.77-5.06Z"/><path class="cls-2" d="M436.78,33.13c-.12,6.47-3.49,11.19-9.92,11.08-2.59-.05-4.32-.58-5.45-1.55l-.19,10.46L414.85,53l.62-34.37,6.38.12,0,1.64a7,7,0,0,1,5.56-2c5.78.1,9.59,4.21,9.46,11.33Zm-6.37-.52,0-2.59c.07-4-1.13-6.2-4.27-6.25s-4.47,1.91-4.54,5.54l0,3.14c-.07,3.59.73,6.29,4.31,6.36S430.35,36.2,430.41,32.61Z"/><path class="cls-2" d="M443.67,10l6.34.67L448.81,22a6.62,6.62,0,0,1,5.8-1.79c5,.53,8.81,3.33,8,10.66L461,46.4l-6.29-.67,1.54-14.51c.41-3.87-.83-5.4-3.41-5.67-2.92-.31-4.56,1.47-4.91,4.74l-1.54,14.56-6.34-.67Z"/><path class="cls-2" d="M487.73,40.21c-1.3,6.7-5.36,10.63-12.75,9.2-7.09-1.38-9.7-6.46-8.37-13.31l.57-2.93c1.42-7.33,6-10.4,12.73-9.09s9.82,5.86,8.39,13.2Zm-6.17-1.4.49-2.54c.76-3.92-.09-6.31-3.17-6.91s-4.77,1.3-5.53,5.21l-.49,2.55c-.69,3.52-.32,6.33,3.15,7S480.87,42.33,481.56,38.81Z"/><path class="cls-2" d="M493.83,27.49l3.08.83L498.33,23l6.11,1.64L503,30l4.72,1.27-1.4,5.19-4.71-1.26-2.71,10.05c-.65,2.4-.44,3.54,1.82,4.15l2,.53-1.45,5.39-2.6-.7c-5.82-1.57-7.78-3.85-6.12-10l3-11-3.08-.83Z"/><path class="cls-2" d="M527.59,52.51c-2.24,6.44-6.81,9.76-13.92,7.3-6.82-2.36-8.7-7.76-6.42-14.35l1-2.82c2.45-7.06,7.44-9.44,13.88-7.21s8.9,7.19,6.45,14.25Zm-5.92-2.26.85-2.45c1.31-3.77.8-6.26-2.17-7.29s-4.9.62-6.21,4.39l-.84,2.45c-1.18,3.38-1.21,6.22,2.13,7.38S520.5,53.64,521.67,50.25Z"/><path class="cls-2" d="M557.38,74.15c-2.86,1.87-6,1.78-10-.19-6.39-3.14-8-8.92-5-15l1.49-3c3.2-6.53,8.54-8.24,15.2-5,3.44,1.69,5.65,4.33,6,7.56l-5.77.89a4.68,4.68,0,0,0-2.74-3.68c-3.22-1.58-5.44-.23-7.2,3.35l-1.14,2.33c-1.58,3.22-1.91,6,1.71,7.83a4.39,4.39,0,0,0,4.66-.11Z"/><path class="cls-2" d="M581.05,79.73c-3.49,5.87-8.64,8.2-15.1,4.36-6.21-3.69-7-9.35-3.4-15.35l1.53-2.57c3.81-6.42,9.18-7.75,15-4.26s7.26,8.83,3.44,15.26Zm-5.34-3.4L577,74.1c2-3.42,2.05-6-.65-7.57s-4.93-.38-7,3l-1.32,2.22c-1.83,3.09-2.44,5.86.6,7.66S573.88,79.41,575.71,76.33Z"/><path class="cls-2" d="M592.9,70.9,598,74.53l-1.22,1.7a7.17,7.17,0,0,1,6.14,1.28c4.09,2.93,6,7.25,1.71,13.25l-9.09,12.66-5.14-3.68,8.51-11.86c2.27-3.16,2-5.11-.16-6.62-2.39-1.71-4.69-1-6.61,1.7l-8.54,11.9-5.18-3.72Z"/><path class="cls-2" d="M613.51,86l2.45,2,3.51-4.21,4.86,4-3.51,4.21,3.75,3.12-3.44,4.13-3.75-3.12-6.67,8c-1.59,1.91-1.88,3-.08,4.53l1.57,1.31-3.57,4.29-2.07-1.73c-4.63-3.86-5.46-6.75-1.35-11.69l7.31-8.76-2.45-2Z"/><path class="cls-2" d="M627.76,127.14c-3.36,1-6.28-.14-9.52-3.24-5.4-5.17-4.65-11.14-.21-15.78l2.34-2.45c5.2-5.44,10.45-5.45,15.13-1,5.08,4.85,4.59,10-.64,15.52l-2,2-10.26-9.82c-2.34,2.52-3.27,5.08-.72,7.53,1.91,1.82,3.07,1.83,4.69,1.51Zm-2-18,5.65,5.4c2.13-2.44,2.13-4.31.4-6S627.91,107.3,625.77,109.18Z"/><path class="cls-2" d="M650.53,131.27c.23-1.68,0-3-1.76-5-1.1-1.23-2.46-2-3.54-1s-.63,2.36.83,4.6c3.37,5.2,3.67,9.06,0,12.35s-8,2.64-12.26-2.16c-3.38-3.79-4.51-6.93-3.77-10.45l5.85,1.33c-.34,1.64-.11,3.1,1.94,5.4,1.46,1.64,2.92,2.15,3.88,1.28,1.16-1,.8-2.17-.92-4.85-2.81-4.43-3.69-8.72.06-12.06,3.54-3.15,8-2.58,12.13,2.07,2.72,3,4.26,6.21,3.17,9.78Z"/><path class="cls-2" d="M661.42,133.22l2,2.52,4.33-3.36,3.88,5-4.32,3.36,3,3.86-4.25,3.3L663,144l-8.21,6.39c-2,1.53-2.49,2.56-1,4.41l1.25,1.61-4.4,3.43L649,157.76c-3.7-4.76-3.9-7.77,1.17-11.71l9-7-2-2.51Z"/></g></svg>