<svg xmlns="http://www.w3.org/2000/svg" xmlns:xlink="http://www.w3.org/1999/xlink" width="262" height="222" viewBox="0 0 262 222"><defs><style>.a{fill:none;}.b,.e,.k{fill:#fff;}.b{stroke:#707070;}.c{fill:#e6d231;}.d{clip-path:url(#a);}.e,.i{fill-rule:evenodd;}.f{fill:#3d3d3d;}.g{fill:#00b917;}.h{clip-path:url(#b);}.i{fill:#1ba715;}.j{clip-path:url(#c);}</style><clipPath id="a"><rect class="a" width="164" height="204.272" transform="translate(107.5 151.364)"/></clipPath><clipPath id="b"><rect class="a" width="37.189" height="37.189" transform="translate(178.979 223.811)"/></clipPath><clipPath id="c"><rect class="b" width="147" height="118" transform="translate(181 4874)"/></clipPath></defs><g transform="translate(-64 -4722)"><rect class="a" width="262" height="222" transform="translate(64 4722)"/><g transform="translate(-2 -10)"><g transform="translate(1817.293 5639.636)"><path class="c" d="M265.9,312.132a.439.439,0,0,1-.051,0,.626.626,0,0,1-.585-.6.9.9,0,0,0-.014-.108,2,2,0,0,1-.032-.333,1.326,1.326,0,0,0-.012-.139,2.478,2.478,0,0,1-.019-.335l0-.17c0-.1,0-.2.009-.308a2.341,2.341,0,0,1,.046-.316c.009-.05.021-.1.025-.152a1.293,1.293,0,0,1,.121-.422l.01-.021,0-.007a1.035,1.035,0,0,1,.129-.96l0,0,0-.01a1.284,1.284,0,0,1-.009-.46,1.334,1.334,0,0,1,.162-.406c.012-.022.026-.044.036-.067a1.734,1.734,0,0,1,.1-.3,1.046,1.046,0,0,0,.046-.126.791.791,0,0,0,.017-.127,2.083,2.083,0,0,1,.061-.344.715.715,0,0,0,.007-.087,1.568,1.568,0,0,1,.064-.388c.034-.1.076-.2.119-.3.022-.05.044-.1.062-.148a.908.908,0,0,1,.062-.133v-.009l-.014-.04a1.192,1.192,0,0,1-.1-.452.851.851,0,0,0-.017-.139,2.539,2.539,0,0,1-.029-.286c0-.081,0-.161,0-.24,0-.063.005-.125,0-.187a1.06,1.06,0,0,1,.134-.545l-.006-.071c-.005-.053-.008-.105-.014-.156a1.136,1.136,0,0,1-.247-.458,1.5,1.5,0,0,0-.062-.189c-.022-.061-.045-.124-.065-.187a.6.6,0,0,0-.285-.693c-.034-.059-.064-.121-.094-.182a1.2,1.2,0,0,0-.07-.132c.018.026,0,.014-.023,0a1.47,1.47,0,0,1-.29-.211.928.928,0,0,1-.251-.491,1.908,1.908,0,0,1-.257-.125c-.056-.035-.113-.073-.17-.111a1.645,1.645,0,0,0-.181-.113,1.4,1.4,0,0,0-.18-.069c-.074-.026-.149-.052-.221-.081a2.42,2.42,0,0,1-.258-.132c-.029-.017-.057-.035-.088-.05l-.032,0a1.257,1.257,0,0,1-.462-.034c-.083-.024-.167-.043-.251-.063l-.174-.042c-.09-.022-.182-.041-.274-.06l-.159-.033c-.066-.015-.136-.023-.2-.032s-.155-.021-.233-.036a.951.951,0,0,1-.354-.149,1.514,1.514,0,0,1-.274-.022.933.933,0,0,1-.254,0,1.045,1.045,0,0,1-.1-.02,1.793,1.793,0,0,1-.342.017c-.055,0-.111,0-.167,0-.1,0-.208,0-.312-.008s-.192-.024-.287-.04c-.061-.01-.121-.021-.182-.027a1.079,1.079,0,0,1-.515-.216l-.012-.009-.146-.018c-.062-.008-.124-.017-.186-.023a1.105,1.105,0,0,1-.484.088,1.474,1.474,0,0,1-.229-.035.984.984,0,0,1-.228.013c-.068,0-.136,0-.2,0s-.16,0-.24,0a2.065,2.065,0,0,1-.279-.031.82.82,0,0,0-.09-.013.675.675,0,0,1-.078,0,.631.631,0,0,1,.03-1.259,1.173,1.173,0,0,1,.485-.081c.09.006.182.02.276.035a1.512,1.512,0,0,0,.179.024c.05,0,.1.009.141.017a1.143,1.143,0,0,1,.332-.029c.09.007.178,0,.264.006a.906.906,0,0,1,.2-.007l.471.032a1.51,1.51,0,0,1,.395.1.714.714,0,0,0,.086.028,1.033,1.033,0,0,1,.433.151,1.06,1.06,0,0,1,.5-.079,1.367,1.367,0,0,1,.355.1h.011c.042,0,.085.005.127.009a1.137,1.137,0,0,1,.369-.049.923.923,0,0,1,.339-.1,1.782,1.782,0,0,0,.2-.039c.061-.014.123-.028.187-.039a2.337,2.337,0,0,1,.262-.029,1,1,0,0,0,.13-.013.7.7,0,0,0,.1-.052,2.073,2.073,0,0,1,.246-.12.909.909,0,0,1,.481-.043,1.089,1.089,0,0,1,.255-.235c.013-.011.032-.035.053-.058a1.7,1.7,0,0,1,.237-.227c.105-.081.2-.167.307-.261a2.609,2.609,0,0,1,.21-.163.876.876,0,0,0,.12-.093,1.342,1.342,0,0,1,.335-.235.676.676,0,0,0,.065-.036c-.005,0,.012-.038.032-.074a1.993,1.993,0,0,1,.17-.256c-.015.017-.011,0,0-.026a1.3,1.3,0,0,1,.177-.368,2.047,2.047,0,0,1,.2-.233.745.745,0,0,0,.077-.082.633.633,0,0,0,.053-.118,2.162,2.162,0,0,1,.125-.262,2.622,2.622,0,0,1,.152-.226.755.755,0,0,0,.082-.121,1.188,1.188,0,0,1,.251-.319,1.049,1.049,0,0,1,.06-.455,1.018,1.018,0,0,1,.311-.411v-.008a1.624,1.624,0,0,1,.051-.348,1.058,1.058,0,0,0,.025-.153,2.556,2.556,0,0,1,.043-.264,1.211,1.211,0,0,1,.2-.419l.006-.009,0-.034a1.557,1.557,0,0,1,0-.369,1.964,1.964,0,0,1,.08-.317l.02-.058a1.242,1.242,0,0,1-.082-.486,1.294,1.294,0,0,0-.006-.15,2.581,2.581,0,0,1-.01-.278c0-.085.011-.172.021-.26a1.388,1.388,0,0,0,.014-.172,1.639,1.639,0,0,0-.014-.171c-.01-.086-.02-.173-.023-.259a.633.633,0,0,1,.258-.532,1.157,1.157,0,0,1,.124-.326,1.129,1.129,0,0,1-.088-.435.965.965,0,0,1,.127-.443.976.976,0,0,1-.124-.436,1.326,1.326,0,0,0-.019-.165c-.013-.088-.025-.176-.03-.265a1.094,1.094,0,0,1,.105-.5l-.01-.029a1.744,1.744,0,0,1-.088-.333,1.575,1.575,0,0,1,0-.341.986.986,0,0,1-.278-.459.631.631,0,0,1,1.182-.422,1.043,1.043,0,0,1,.344.557,1.6,1.6,0,0,1,.012.407.6.6,0,0,0-.005.094.721.721,0,0,0,.028.081,1.6,1.6,0,0,1,.1.388,1.1,1.1,0,0,1-.11.538l-.005.014.012.084c.011.076.022.152.028.228a1.1,1.1,0,0,1,.181.565.986.986,0,0,1-.146.492.988.988,0,0,1-.079.946l0,.007.008.056a2.2,2.2,0,0,1,.021.291l.014.042a1.185,1.185,0,0,1,.084.473.984.984,0,0,1-.24.561l-.021.519,0,.066a.877.877,0,0,1,0,.134l0,.035v.02c0,.072,0,.144,0,.216s0,.154,0,.231a.852.852,0,0,0,.017.128,2.2,2.2,0,0,1,.034.31.832.832,0,0,0,.021.088,1.655,1.655,0,0,1,.061.346,2.208,2.208,0,0,1-.013.3.832.832,0,0,0-.007.132.561.561,0,0,0,.027.083,1.751,1.751,0,0,1,.082.336,1.075,1.075,0,0,1-.065.484,1.387,1.387,0,0,1,.142.365c0-.024.009,0,.023.016a1.369,1.369,0,0,1,.171.37c.02.074.035.148.05.221s.024.124.043.186a1.091,1.091,0,0,1,.022.522v.007c.024.055.051.112.077.168l.064.14c.034.072.062.149.09.227.008.02.016.041.023.062a1.01,1.01,0,0,1,.429.372,1.878,1.878,0,0,1,.133.288.6.6,0,0,0,.042.1.621.621,0,0,0,.08.083,2.173,2.173,0,0,1,.2.226,1.46,1.46,0,0,1,.181.338.614.614,0,0,0,.032.074,1.11,1.11,0,0,1,.172.308.981.981,0,0,1,.453.247l.116.118c.061.063.122.127.187.187a2.172,2.172,0,0,1,.207.231.766.766,0,0,0,.082.1.85.85,0,0,0,.118.076,2.271,2.271,0,0,1,.246.168.7.7,0,0,0,.1.058,2.142,2.142,0,0,1,.272.165,1.293,1.293,0,0,1,.291.32c.014.019.026.039.041.057,0-.01.046.013.09.035a2.415,2.415,0,0,1,.259.142c.122.079.245.156.371.232a1.188,1.188,0,0,1,.316.3,1.084,1.084,0,0,1,.465.115.943.943,0,0,1,.319.287.889.889,0,0,1,.49.072.812.812,0,0,1,.3.243c.044.01.09.015.136.022a2.506,2.506,0,0,1,.313.06,1.258,1.258,0,0,1,.338.154.768.768,0,0,1,.133.039.863.863,0,0,1,.2.113l.044.018a1.514,1.514,0,0,0,.146.057c.092.029.182.064.271.1l.008,0a.861.861,0,0,1,.274.087l.027.005c.081.016.162.033.24.056a1.2,1.2,0,0,1,.55.034,1.494,1.494,0,0,1,.351.188.789.789,0,0,0,.072.046.79.79,0,0,1,.122.054c.056.025.105.051.147.073a.614.614,0,0,0,.077.039,2.258,2.258,0,0,1,.263.081c.029.01.057.021.086.03a.948.948,0,0,1,.144.04.631.631,0,0,1-.333,1.214l-.1-.023-.053,0a1.47,1.47,0,0,1-.4-.073,1.263,1.263,0,0,1-.373-.221h-.018a1.3,1.3,0,0,1-.448-.035.521.521,0,0,1-.064,0,1.4,1.4,0,0,1-.416-.053,1.015,1.015,0,0,1-.423-.275,1.049,1.049,0,0,1-.474-.044.975.975,0,0,0-.893-.336.764.764,0,0,0-.1-.022,1.641,1.641,0,0,1-.365-.1.8.8,0,0,1-.247-.172,1.062,1.062,0,0,1-.457.025,2.112,2.112,0,0,1-.292-.082.8.8,0,0,0-.127-.038,1.1,1.1,0,0,1-.489-.227l-.01-.007-.128-.02c-.071-.012-.141-.024-.211-.029a1.474,1.474,0,0,0-.16.008c-.093.008-.191.013-.273.012s-.149-.006-.223-.012a1.786,1.786,0,0,0-.2-.009l-.16,0c-.089,0-.179,0-.265.011a.835.835,0,0,0-.139.036,2.274,2.274,0,0,1-.271.067c-.015.006-.043.022-.072.035a1.741,1.741,0,0,1-.316.121,1.338,1.338,0,0,0-.17.063c-.068.028-.137.056-.208.08a1.671,1.671,0,0,0-.2.088l-.163.076a1.411,1.411,0,0,1-.363.1c-.026,0-.051.007-.075.013.014,0-.011.029-.038.055a2.121,2.121,0,0,1-.2.177,1.1,1.1,0,0,1-.4.178,1.416,1.416,0,0,1-.2.311,1.386,1.386,0,0,1-.285.241.813.813,0,0,0-.067.048l-.125.206-.073.118a.823.823,0,0,0-.046.114,2.2,2.2,0,0,1-.119.277,1.762,1.762,0,0,1-.18.258.892.892,0,0,1-.134.766c0,.018,0,.035,0,.053a1.139,1.139,0,0,1-.154.478.12.12,0,0,1-.017.03c-.01.083-.025.166-.041.249-.01.052-.021.1-.026.158a.889.889,0,0,0,0,.126,1.992,1.992,0,0,1-.007.337c.005-.03.01,0,.015.021a1.266,1.266,0,0,1,.03.45,1.165,1.165,0,0,1-.183.458l-.015.023c0,.033,0,.066,0,.1a2.3,2.3,0,0,1-.025.312,1.171,1.171,0,0,1-.17.42,1.088,1.088,0,0,1,.032.484c0,.027,0,.059,0,.092a1.466,1.466,0,0,1-.021.365,1.569,1.569,0,0,1-.126.364.656.656,0,0,0-.035.077c-.008.044-.013.1-.018.154a2.676,2.676,0,0,1-.041.287c-.012.061-.021.123-.028.185-.013.088-.024.174-.042.257a1.42,1.42,0,0,1-.137.366A.652.652,0,0,1,265.9,312.132Zm1.249-4.026v0Zm.224-1.825h0Zm-1.118-.972v0Zm-.011-1.743a.108.108,0,0,0,0,.018Zm-.041-.4v0Zm.976-.736a1.137,1.137,0,0,1,.27.532c0,.022.007.044.01.067.04-.031.078-.057.112-.08a.737.737,0,0,0,.064-.046c-.017.011,0-.018.011-.042a1.308,1.308,0,0,1,.269-.389,1.093,1.093,0,0,1,.52-.253l.024-.006.045-.043a1.608,1.608,0,0,1,.338-.264,1.3,1.3,0,0,1,.449-.139c.024,0,.05-.007.073-.013l.105-.051a2.987,2.987,0,0,1,.339-.146c.047-.016.091-.034.135-.052a2.469,2.469,0,0,1,.345-.12c.025-.009.053-.024.081-.037a1.472,1.472,0,0,1,.4-.139c.041-.007.083-.021.126-.033a1.929,1.929,0,0,1,.37-.081c.119-.012.243-.015.367-.017l.06,0a1.418,1.418,0,0,1-.235-.274.636.636,0,0,0-.04-.057.414.414,0,0,1-.075-.032,1.923,1.923,0,0,1-.3-.189,1.161,1.161,0,0,0-.117-.076,2.08,2.08,0,0,1-.283-.2,1.88,1.88,0,0,1-.246-.266.891.891,0,0,0-.08-.093c-.082-.076-.159-.156-.236-.236l-.035-.035a1.038,1.038,0,0,1-.544-.29,1.273,1.273,0,0,1-.236-.406c-.009-.022-.017-.046-.028-.067a1.256,1.256,0,0,1-.19-.346.614.614,0,0,0-.032-.074c-.015-.019-.046-.047-.075-.076a1.863,1.863,0,0,1-.237-.275,1.715,1.715,0,0,1-.171-.349l-.005-.013a.981.981,0,0,1-.452-.409,2.637,2.637,0,0,1-.134-.32c-.018-.047-.035-.1-.055-.14l-.058-.124c-.051-.109-.1-.217-.143-.326a1.087,1.087,0,0,1-.038-.573l0-.021c-.023-.082-.04-.166-.057-.25-.01-.049-.019-.1-.032-.146,0,.012-.014-.012-.026-.031a1.351,1.351,0,0,1-.175-.381,1.311,1.311,0,0,1-.243.282l-.048.046a1.437,1.437,0,0,1-.157.245,1.263,1.263,0,0,0-.078.113.894.894,0,0,0-.052.114,1.928,1.928,0,0,1-.161.321,1.64,1.64,0,0,1-.238.282.687.687,0,0,0-.078.084c.009-.009,0,.015-.006.037a1.256,1.256,0,0,1-.207.407.877.877,0,0,0-.062.1,1.848,1.848,0,0,1-.211.306,1.3,1.3,0,0,1-.382.282c-.021.012-.042.022-.061.035a1.854,1.854,0,0,1-.258.209,1.092,1.092,0,0,0-.1.076c-.13.116-.252.223-.382.322a.537.537,0,0,0-.07.073,1.509,1.509,0,0,1-.3.272c.028-.019.016,0,0,.018a1.353,1.353,0,0,1-.241.263c.056.028.111.058.166.089a.862.862,0,0,0,.116.062c.047.02.1.037.145.054a2.585,2.585,0,0,1,.334.133,2.766,2.766,0,0,1,.324.2c.04.027.08.054.12.079a.626.626,0,0,0,.1.044,1.56,1.56,0,0,1,.381.2.923.923,0,0,1,.332.592,1.2,1.2,0,0,1,.347.294,1.948,1.948,0,0,1,.207.351l.014.03a1.011,1.011,0,0,1,.45.467.979.979,0,0,1,.016.645l.013.037C267.121,302.249,267.152,302.337,267.177,302.428Zm.019.076h0Zm5.9-.109h0Zm-6.451-1.3h0Zm.6-15.048h0Zm.865-.841h0Z" transform="translate(-1826.647 -1174.505)"/><path class="c" d="M286.2,286.609c-4.362.506-5.311,4.456-5.785,7.391-.474-2.935-1.3-4.891-1.928-5.431a5.551,5.551,0,0,0-5.121-1.833c5.374-1.321,6.765-3.92,7.4-8.3C280.76,283.574,282.214,285.415,286.2,286.609Z" transform="translate(-1820.499 -1176)"/><path class="c" d="M111.708,309.023a.562.562,0,0,1-.066,0,.807.807,0,0,1-.753-.766,1.171,1.171,0,0,0-.018-.139,2.578,2.578,0,0,1-.041-.429,1.709,1.709,0,0,0-.015-.179,3.2,3.2,0,0,1-.024-.431l.005-.219c0-.131,0-.263.012-.4a3.008,3.008,0,0,1,.059-.407c.012-.064.027-.13.032-.2a1.666,1.666,0,0,1,.156-.544l.013-.027,0-.009a1.333,1.333,0,0,1,.166-1.236l0,0,0-.013a1.655,1.655,0,0,1-.012-.592,1.718,1.718,0,0,1,.209-.523c.015-.028.033-.057.046-.086a2.235,2.235,0,0,1,.126-.383,1.348,1.348,0,0,0,.059-.162,1.018,1.018,0,0,0,.022-.164,2.679,2.679,0,0,1,.079-.443.916.916,0,0,0,.009-.112,2.021,2.021,0,0,1,.082-.5c.044-.131.1-.259.153-.384.028-.064.057-.126.08-.191a1.171,1.171,0,0,1,.08-.171V300.3l-.018-.051a1.535,1.535,0,0,1-.124-.582,1.1,1.1,0,0,0-.022-.179,3.274,3.274,0,0,1-.037-.368c0-.1,0-.207,0-.309,0-.081.006-.161,0-.241a1.365,1.365,0,0,1,.173-.7l-.008-.091c-.006-.068-.01-.135-.018-.2a1.463,1.463,0,0,1-.318-.59,1.929,1.929,0,0,0-.08-.243c-.028-.079-.058-.16-.084-.241a.768.768,0,0,0-.367-.893c-.044-.076-.082-.156-.121-.234a1.553,1.553,0,0,0-.09-.17c.023.034-.005.018-.03,0a1.892,1.892,0,0,1-.373-.272,1.2,1.2,0,0,1-.323-.632,2.463,2.463,0,0,1-.331-.161c-.072-.045-.146-.094-.219-.143a2.13,2.13,0,0,0-.233-.146,1.81,1.81,0,0,0-.232-.089c-.1-.033-.192-.067-.285-.1a3.108,3.108,0,0,1-.332-.17c-.037-.022-.073-.045-.113-.064l-.041,0a1.619,1.619,0,0,1-.6-.044c-.107-.031-.215-.055-.323-.081l-.224-.054c-.116-.028-.234-.053-.353-.077l-.2-.042c-.085-.019-.175-.03-.264-.041s-.2-.027-.3-.046a1.225,1.225,0,0,1-.456-.192,1.951,1.951,0,0,1-.353-.028,1.2,1.2,0,0,1-.327,0,1.349,1.349,0,0,1-.133-.026,2.313,2.313,0,0,1-.44.022c-.071-.005-.143,0-.215,0-.131,0-.268,0-.4-.01s-.247-.031-.37-.052c-.079-.013-.156-.027-.234-.035a1.39,1.39,0,0,1-.663-.278l-.015-.012-.188-.023c-.08-.01-.16-.022-.24-.03a1.423,1.423,0,0,1-.623.113,1.9,1.9,0,0,1-.295-.045,1.265,1.265,0,0,1-.294.017c-.088,0-.175,0-.263,0-.1,0-.206,0-.309,0a2.664,2.664,0,0,1-.359-.04,1.05,1.05,0,0,0-.116-.017.865.865,0,0,1-.1-.005.812.812,0,0,1,.039-1.621,1.51,1.51,0,0,1,.625-.1c.116.008.234.026.355.045a1.942,1.942,0,0,0,.231.031c.064.005.125.012.182.022a1.472,1.472,0,0,1,.428-.037c.116.009.229.005.34.008a1.165,1.165,0,0,1,.255-.009l.607.041a1.943,1.943,0,0,1,.509.124.917.917,0,0,0,.111.036,1.331,1.331,0,0,1,.558.194,1.366,1.366,0,0,1,.647-.1,1.758,1.758,0,0,1,.457.128h.014c.054,0,.109.006.164.012a1.464,1.464,0,0,1,.475-.063,1.189,1.189,0,0,1,.437-.134,2.288,2.288,0,0,0,.263-.05c.079-.018.158-.036.241-.05a3.019,3.019,0,0,1,.337-.037,1.281,1.281,0,0,0,.167-.017.9.9,0,0,0,.131-.067,2.66,2.66,0,0,1,.317-.155,1.171,1.171,0,0,1,.619-.055,1.4,1.4,0,0,1,.328-.3c.017-.014.041-.045.068-.075a2.19,2.19,0,0,1,.305-.292c.135-.1.261-.215.4-.336a3.355,3.355,0,0,1,.27-.21,1.13,1.13,0,0,0,.155-.12,1.729,1.729,0,0,1,.431-.3.873.873,0,0,0,.084-.046c-.006,0,.015-.049.041-.1a2.57,2.57,0,0,1,.219-.33c-.019.022-.014,0,0-.034a1.671,1.671,0,0,1,.228-.474,2.637,2.637,0,0,1,.264-.3.957.957,0,0,0,.1-.106.815.815,0,0,0,.068-.152,2.794,2.794,0,0,1,.161-.337,3.381,3.381,0,0,1,.2-.291.974.974,0,0,0,.106-.156,1.53,1.53,0,0,1,.323-.411,1.35,1.35,0,0,1,.077-.586,1.311,1.311,0,0,1,.4-.529v-.01a2.088,2.088,0,0,1,.066-.448,1.366,1.366,0,0,0,.032-.2,3.29,3.29,0,0,1,.055-.34,1.559,1.559,0,0,1,.258-.54l.008-.012-.005-.044a2,2,0,0,1,0-.475,2.527,2.527,0,0,1,.1-.408l.026-.075a1.6,1.6,0,0,1-.106-.626,1.671,1.671,0,0,0-.008-.193,3.324,3.324,0,0,1-.013-.358c0-.109.014-.221.027-.335a1.793,1.793,0,0,0,.018-.222,2.118,2.118,0,0,0-.018-.22c-.013-.111-.026-.223-.03-.334a.816.816,0,0,1,.332-.685,1.492,1.492,0,0,1,.16-.42,1.454,1.454,0,0,1-.113-.56,1.242,1.242,0,0,1,.164-.57,1.258,1.258,0,0,1-.16-.562,1.7,1.7,0,0,0-.024-.212c-.017-.113-.032-.227-.039-.341a1.409,1.409,0,0,1,.135-.643l-.013-.037a2.242,2.242,0,0,1-.113-.429,2.026,2.026,0,0,1-.005-.439,1.271,1.271,0,0,1-.358-.591.813.813,0,0,1,1.522-.544,1.344,1.344,0,0,1,.443.717,2.061,2.061,0,0,1,.015.524.765.765,0,0,0-.006.121.94.94,0,0,0,.036.1,2.064,2.064,0,0,1,.122.5,1.411,1.411,0,0,1-.142.693l-.006.018.015.108c.014.1.028.2.036.294a1.418,1.418,0,0,1,.233.728,1.269,1.269,0,0,1-.188.634,1.273,1.273,0,0,1-.1,1.218l0,.009.01.072a2.837,2.837,0,0,1,.027.375l.018.054a1.526,1.526,0,0,1,.108.609,1.267,1.267,0,0,1-.309.723l-.027.668,0,.085a1.125,1.125,0,0,1-.005.173l0,.045v.026c0,.093,0,.185,0,.278s.005.2,0,.3a1.1,1.1,0,0,0,.022.165,2.824,2.824,0,0,1,.044.4,1.079,1.079,0,0,0,.027.113,2.132,2.132,0,0,1,.079.446,2.845,2.845,0,0,1-.017.392,1.074,1.074,0,0,0-.009.17.727.727,0,0,0,.035.107,2.256,2.256,0,0,1,.106.433,1.385,1.385,0,0,1-.084.623,1.788,1.788,0,0,1,.183.47c-.005-.031.012-.005.03.021a1.763,1.763,0,0,1,.22.477c.026.1.045.191.064.285s.031.16.055.24a1.4,1.4,0,0,1,.028.672v.009c.031.071.066.144.1.216l.082.18c.044.093.08.192.116.292.01.026.021.053.03.08a1.3,1.3,0,0,1,.553.479,2.425,2.425,0,0,1,.171.371.769.769,0,0,0,.054.13.8.8,0,0,0,.1.107,2.8,2.8,0,0,1,.26.291,1.88,1.88,0,0,1,.233.435.789.789,0,0,0,.041.1,1.429,1.429,0,0,1,.222.4,1.262,1.262,0,0,1,.583.318l.149.152c.079.081.157.164.241.241a2.8,2.8,0,0,1,.267.3.987.987,0,0,0,.106.125,1.1,1.1,0,0,0,.152.1,2.918,2.918,0,0,1,.317.216.9.9,0,0,0,.135.075,2.767,2.767,0,0,1,.35.213,1.665,1.665,0,0,1,.375.412c.018.024.033.05.053.073,0-.013.059.017.116.045a3.111,3.111,0,0,1,.334.183c.157.1.316.2.478.3a1.53,1.53,0,0,1,.407.381,1.4,1.4,0,0,1,.6.148,1.215,1.215,0,0,1,.411.37,1.144,1.144,0,0,1,.631.093,1.046,1.046,0,0,1,.385.313c.057.013.116.019.175.028a3.22,3.22,0,0,1,.4.077,1.618,1.618,0,0,1,.435.2.988.988,0,0,1,.171.05,1.111,1.111,0,0,1,.263.146l.057.023a1.952,1.952,0,0,0,.188.073c.118.037.234.082.349.129l.01,0a1.11,1.11,0,0,1,.353.112l.035.006c.1.021.209.042.309.072a1.54,1.54,0,0,1,.708.044,1.923,1.923,0,0,1,.452.242,1.011,1.011,0,0,0,.093.059,1.017,1.017,0,0,1,.157.07c.072.032.135.066.189.094a.792.792,0,0,0,.1.05,2.913,2.913,0,0,1,.339.1c.037.013.073.027.111.039a1.218,1.218,0,0,1,.185.052.812.812,0,0,1-.429,1.564l-.122-.03c-.017,0-.042,0-.068,0a1.9,1.9,0,0,1-.514-.094,1.626,1.626,0,0,1-.48-.285h-.023a1.675,1.675,0,0,1-.577-.045.687.687,0,0,1-.082,0,1.8,1.8,0,0,1-.536-.068,1.307,1.307,0,0,1-.545-.354,1.352,1.352,0,0,1-.61-.057,1.255,1.255,0,0,0-1.15-.433.984.984,0,0,0-.129-.028,2.116,2.116,0,0,1-.47-.134,1.036,1.036,0,0,1-.318-.221,1.368,1.368,0,0,1-.589.032,2.72,2.72,0,0,1-.376-.106,1.036,1.036,0,0,0-.164-.049,1.413,1.413,0,0,1-.63-.292l-.013-.009-.165-.026c-.091-.015-.182-.031-.272-.037a1.881,1.881,0,0,0-.206.01c-.12.01-.246.017-.352.015s-.192-.008-.287-.015a2.291,2.291,0,0,0-.261-.012l-.206.005c-.115,0-.231,0-.341.014a1.068,1.068,0,0,0-.179.046,2.925,2.925,0,0,1-.349.086c-.019.008-.055.028-.093.045a2.243,2.243,0,0,1-.407.156,1.722,1.722,0,0,0-.219.081c-.088.036-.176.072-.268.1a2.144,2.144,0,0,0-.256.113l-.21.1a1.82,1.82,0,0,1-.468.125c-.033.005-.066.009-.1.017.018,0-.014.037-.049.071a2.739,2.739,0,0,1-.263.228,1.422,1.422,0,0,1-.519.229,1.824,1.824,0,0,1-.256.4,1.784,1.784,0,0,1-.367.31,1.048,1.048,0,0,0-.086.062l-.161.265-.094.152a1.063,1.063,0,0,0-.059.147,2.83,2.83,0,0,1-.153.357,2.267,2.267,0,0,1-.232.332,1.149,1.149,0,0,1-.173.987c0,.023,0,.045,0,.068a1.467,1.467,0,0,1-.2.616.154.154,0,0,1-.022.039c-.013.107-.032.214-.053.321-.013.067-.027.135-.033.2a1.14,1.14,0,0,0,0,.162,2.569,2.569,0,0,1-.009.434c.006-.039.013,0,.019.027a1.63,1.63,0,0,1,.039.58,1.5,1.5,0,0,1-.236.59l-.019.03c0,.042,0,.085,0,.128a2.968,2.968,0,0,1-.032.4,1.508,1.508,0,0,1-.219.541,1.4,1.4,0,0,1,.041.623c0,.035,0,.076,0,.118a1.889,1.889,0,0,1-.027.47,2.021,2.021,0,0,1-.162.469.843.843,0,0,0-.045.1c-.01.057-.017.128-.023.2a3.45,3.45,0,0,1-.053.37c-.015.079-.027.158-.036.238-.017.113-.031.224-.054.331a1.828,1.828,0,0,1-.176.471A.84.84,0,0,1,111.708,309.023Zm1.609-5.185v0Zm.288-2.35h0Zm-1.44-1.252v0Zm-.014-2.245a.14.14,0,0,0,0,.023Zm-.053-.518v0Zm1.257-.948a1.465,1.465,0,0,1,.348.685c.005.028.009.057.013.086.052-.04.1-.073.144-.1a.945.945,0,0,0,.082-.059c-.022.014,0-.023.014-.054a1.684,1.684,0,0,1,.346-.5,1.408,1.408,0,0,1,.67-.326l.031-.008.058-.055a2.07,2.07,0,0,1,.435-.34,1.677,1.677,0,0,1,.578-.179c.031-.005.064-.009.094-.017l.135-.066a3.848,3.848,0,0,1,.437-.188c.061-.021.117-.044.174-.067a3.187,3.187,0,0,1,.444-.155c.032-.012.068-.031.1-.048a1.894,1.894,0,0,1,.516-.179,1.676,1.676,0,0,0,.162-.043,2.482,2.482,0,0,1,.477-.1c.153-.015.313-.019.473-.022l.077,0a1.826,1.826,0,0,1-.3-.353.819.819,0,0,0-.052-.073.533.533,0,0,1-.1-.041,2.471,2.471,0,0,1-.39-.243,1.494,1.494,0,0,0-.151-.1,2.679,2.679,0,0,1-.364-.255,2.425,2.425,0,0,1-.317-.343,1.149,1.149,0,0,0-.1-.12c-.106-.1-.2-.2-.3-.3l-.045-.045a1.337,1.337,0,0,1-.7-.373,1.64,1.64,0,0,1-.3-.523c-.012-.028-.022-.059-.036-.086a1.618,1.618,0,0,1-.245-.446.787.787,0,0,0-.041-.1c-.019-.024-.059-.06-.1-.1a2.4,2.4,0,0,1-.305-.354,2.209,2.209,0,0,1-.22-.45l-.006-.017a1.264,1.264,0,0,1-.582-.527,3.4,3.4,0,0,1-.173-.412c-.023-.061-.045-.122-.071-.18l-.075-.16c-.066-.14-.13-.279-.184-.42a1.4,1.4,0,0,1-.049-.738l0-.027c-.03-.106-.052-.214-.073-.322-.013-.063-.024-.126-.041-.188,0,.015-.018-.015-.033-.04a1.741,1.741,0,0,1-.225-.491,1.689,1.689,0,0,1-.313.363l-.062.059a1.853,1.853,0,0,1-.2.315,1.623,1.623,0,0,0-.1.146,1.144,1.144,0,0,0-.067.147,2.484,2.484,0,0,1-.207.413,2.112,2.112,0,0,1-.307.363.881.881,0,0,0-.1.108c.012-.012,0,.019-.008.048a1.618,1.618,0,0,1-.267.524,1.132,1.132,0,0,0-.08.13,2.379,2.379,0,0,1-.272.394,1.67,1.67,0,0,1-.492.363c-.027.015-.054.028-.079.045a2.383,2.383,0,0,1-.332.269,1.413,1.413,0,0,0-.129.1c-.167.149-.325.287-.492.415a.691.691,0,0,0-.09.094,1.943,1.943,0,0,1-.392.35c.036-.024.021,0,0,.023a1.743,1.743,0,0,1-.31.339c.072.036.143.075.214.115a1.113,1.113,0,0,0,.149.08c.061.026.125.048.187.07a3.328,3.328,0,0,1,.43.171,3.565,3.565,0,0,1,.417.252c.052.035.1.07.155.1a.8.8,0,0,0,.133.057,2.011,2.011,0,0,1,.491.259,1.189,1.189,0,0,1,.428.762,1.549,1.549,0,0,1,.447.379,2.512,2.512,0,0,1,.267.452l.018.039a1.3,1.3,0,0,1,.58.6,1.26,1.26,0,0,1,.021.831l.017.048C113.283,296.295,113.323,296.408,113.355,296.525Zm.024.1h0Zm7.605-.14h0Zm-8.308-1.677h0Zm.773-19.38h0Zm1.114-1.083h0Z" transform="translate(-1823.615 -1057.19)"/><path class="c" d="M132.892,277.962c-5.618.652-6.84,5.739-7.451,9.519-.61-3.78-1.669-6.3-2.483-6.995a7.15,7.15,0,0,0-6.6-2.361c6.921-1.7,8.713-5.049,9.527-10.69C125.89,274.053,127.762,276.424,132.892,277.962Z" transform="translate(-1818.655 -1059)"/><g transform="translate(-1814.96 -1059)"><g class="d"><path class="e" d="M172.589,381.447s12.231-35.363,14.295-36.6c13.383-8.03,28.451-27.478,28.451-27.478l13.382-15.413s-67.99-28.15-67.99-38.827,2-10,2-15.744c0-7.6-5.393-12.4-8.972-13.052-1.763-.323-1.356,4.482-2.662,8.27s-4.058,11.935-4.648,17.041c-.851,7.379-3.408,14.253-4.028,20.14a149.037,149.037,0,0,0,.62,30.984c1.067,8.533-2.346,17.729-3.015,19.737-2.046,6.139-24.46,50.258-24.46,50.258"/><path class="f" d="M172.589,383.1a1.651,1.651,0,0,1-1.559-2.19c.031-.089,3.1-8.96,6.385-17.868,1.932-5.242,3.561-9.475,4.84-12.581,2.411-5.856,3.114-6.627,3.781-7.028,5.335-3.2,11.857-8.884,18.862-16.435,5.333-5.748,9.1-10.591,9.133-10.639.019-.024.038-.048.058-.071l13.382-15.413a1.65,1.65,0,1,1,2.492,2.164l-13.353,15.38c-.368.471-4.1,5.221-9.272,10.8-3.193,3.443-6.309,6.53-9.261,9.176a70.4,70.4,0,0,1-10.184,7.771c-.217.3-.966,1.55-2.923,6.373-1.268,3.124-2.854,7.275-4.714,12.337-3.173,8.634-6.078,17.028-6.107,17.112A1.651,1.651,0,0,1,172.589,383.1Z"/><path class="e" d="M219.027,234.4s16.183-8.16,21.635-7.8c4.765.313,6.448,3.824,2.91,9.131-3.889,5.833-19.619,13.508-19.619,13.508Z"/><path class="f" d="M240.3,224.932c.162,0,.321.005.472.015,2.788.183,4.844,1.339,5.789,3.255a6.049,6.049,0,0,1,.392,3.99,12.959,12.959,0,0,1-2.007,4.448c-1.75,2.624-5.717,5.8-11.793,9.441-4.429,2.654-8.313,4.555-8.476,4.634a1.65,1.65,0,0,1-2.289-.963l-4.926-14.836a1.65,1.65,0,0,1,.823-1.993c.039-.02,3.975-2,8.568-3.952C233.156,226.29,237.68,224.932,240.3,224.932Zm-15.382,21.962c1.545-.8,3.98-2.108,6.562-3.656,7.026-4.213,9.709-6.909,10.722-8.429,1.439-2.159,1.95-4.035,1.4-5.146s-2.142-1.364-3.046-1.423c-.079-.005-.166-.008-.256-.008-4.027,0-14.285,4.589-19.252,7.007Z"/><rect class="g" width="69.714" height="133.678" rx="12.179" transform="translate(162.531 176.011)"/><path class="f" d="M12.179-1.65H57.535A13.829,13.829,0,0,1,71.364,12.179V121.5a13.829,13.829,0,0,1-13.829,13.829H12.179A13.829,13.829,0,0,1-1.65,121.5V12.179A13.829,13.829,0,0,1,12.179-1.65ZM57.535,132.028A10.541,10.541,0,0,0,68.064,121.5V12.179A10.541,10.541,0,0,0,57.535,1.65H12.179A10.541,10.541,0,0,0,1.65,12.179V121.5a10.541,10.541,0,0,0,10.529,10.529Z" transform="translate(162.531 176.011)"/><path class="e" d="M227.347,296.316A5.769,5.769,0,0,1,221.53,302H173.246a5.769,5.769,0,0,1-5.817-5.684V186.548a5.769,5.769,0,0,1,5.817-5.685h10.82l2.042,4h22.844l1.609-4H221.53a5.769,5.769,0,0,1,5.817,5.685Z"/><path class="f" d="M221.53,303.862H173.246a7.476,7.476,0,0,1-7.467-7.468V186.681a7.476,7.476,0,0,1,7.467-7.468h10.82a1.65,1.65,0,0,1,1.548,1.079l1.251,3.391h20.9l1.251-3.391a1.65,1.65,0,0,1,1.548-1.079H221.53A7.476,7.476,0,0,1,229,186.681V296.394A7.476,7.476,0,0,1,221.53,303.862ZM173.246,182.513a4.185,4.185,0,0,0-4.167,4.168V296.394a4.185,4.185,0,0,0,4.167,4.168H221.53a4.185,4.185,0,0,0,4.167-4.168V186.681a4.185,4.185,0,0,0-4.167-4.168h-9.819L210.46,185.9a1.65,1.65,0,0,1-1.548,1.079h-23.2a1.65,1.65,0,0,1-1.548-1.079l-1.251-3.391Z"/><path class="e" d="M167.016,315.394c.892-13.382-5.34-27.891-6.009-35.921-.345-4.136-.28-5.668-.28-16.345s2-10,2-15.744c0-7.6-5.393-12.4-8.972-13.052-1.763-.323-1.356,4.482-2.662,8.27s-4.058,11.935-4.648,17.041c-.851,7.379-3.408,14.253-4.028,20.14a149.037,149.037,0,0,0,.62,30.984c1.067,8.533-2.346,17.729-3.015,19.737-2.046,6.139-24.46,50.258-24.46,50.258"/><path class="f" d="M115.56,382.412a1.651,1.651,0,0,1-1.47-2.4c.224-.44,22.381-44.079,24.366-50.032.043-.129.1-.288.161-.474a60.818,60.818,0,0,0,2.1-7.453,34.224,34.224,0,0,0,.686-11.084,154.5,154.5,0,0,1-1.154-20.007c.029-4.933.293-9.1.53-11.354a72.974,72.974,0,0,1,1.872-9.348,88.223,88.223,0,0,0,2.157-10.809c.639-5.533,3.716-14.457,4.727-17.39a24.862,24.862,0,0,0,.9-4.214c.348-2.266.6-3.9,1.78-4.744a2.4,2.4,0,0,1,1.838-.4,12.222,12.222,0,0,1,6.816,4.508,15.987,15.987,0,0,1,3.509,10.167,18.152,18.152,0,0,1-.831,5.63c-.547,1.959-1.168,4.18-1.168,10.114,0,1.639,0,3.063,0,4.314-.007,6.837-.009,8.462.277,11.894a72.322,72.322,0,0,0,2.27,10.651c1.928,7.45,4.327,16.721,3.741,25.517a1.65,1.65,0,0,1-3.293-.219,51.97,51.97,0,0,0-.886-12.495c-.741-4.184-1.812-8.324-2.757-11.976a74.017,74.017,0,0,1-2.364-11.2c-.3-3.57-.3-5.222-.289-12.172,0-1.25,0-2.672,0-4.31,0-6.387.715-8.946,1.289-11a15,15,0,0,0,.71-4.742,12.719,12.719,0,0,0-2.779-8.1,9.791,9.791,0,0,0-4.2-3.158c-.155.589-.3,1.535-.406,2.223a27.374,27.374,0,0,1-1.043,4.788c-.982,2.849-3.971,11.517-4.569,16.693a90.757,90.757,0,0,1-2.23,11.212,70.725,70.725,0,0,0-1.8,8.911c-.079.751-.475,4.815-.512,11.029a151.188,151.188,0,0,0,1.129,19.578c1.047,8.375-1.95,17.135-2.934,20.014-.06.176-.112.326-.153.449-2.061,6.184-23.637,48.678-24.554,50.484A1.65,1.65,0,0,1,115.56,382.412Z"/><path class="e" d="M237.683,283.085s-3.857-.482-4.331.1c-.553.682.985,2.827.637,4.217-1.067,4.272-5.858,5.878-4.021,10.149,2.5,5.806,9.917,1.187,11.573-1.206C243.106,294.086,241.965,288.877,237.683,283.085Z"/><path class="f" d="M234.942,281.248h0a27.813,27.813,0,0,1,2.946.2,1.65,1.65,0,0,1,1.122.656c4.517,6.11,6.043,12.069,3.888,15.181-1.336,1.931-5.271,4.725-8.889,4.725a5.827,5.827,0,0,1-5.557-3.806,5.74,5.74,0,0,1-.17-4.507,12.051,12.051,0,0,1,2.007-3.13,9.568,9.568,0,0,0,2.1-3.564,5.139,5.139,0,0,0-.365-1.468c-.357-1.044-.8-2.342.047-3.389C232.677,281.4,233.657,281.248,234.942,281.248Zm1.836,3.4c-.447-.042-1.045-.087-1.6-.1a5.812,5.812,0,0,1,.416,3.254,12.454,12.454,0,0,1-2.721,4.823c-1.453,1.819-2.066,2.689-1.385,4.274a2.546,2.546,0,0,0,2.525,1.81,7.62,7.62,0,0,0,3.651-1.2,8.722,8.722,0,0,0,2.524-2.1c.492-.711.5-2.182.028-3.936A22.026,22.026,0,0,0,236.777,284.648Z"/><path class="e" d="M235.774,269.689a65.9,65.9,0,0,1-4.742,5.439c-2.307,2.353-4.919,5.328-4.5,7.684.869,4.867,5.647,5.282,10.258,3.195,4.687-2.122,8.866-6.606,7.476-11.3C242.437,268.53,239.762,269.382,235.774,269.689Z"/><path class="f" d="M238.882,267.819a6.151,6.151,0,0,1,4.149,1.358,10.165,10.165,0,0,1,2.818,5.061,8.188,8.188,0,0,1,.1,4.3,10.516,10.516,0,0,1-1.813,3.759,17.1,17.1,0,0,1-6.664,5.208,13.857,13.857,0,0,1-5.6,1.337,7.279,7.279,0,0,1-4.459-1.371,6.766,6.766,0,0,1-2.5-4.374c-.543-3.038,2.055-6.183,4.944-9.129a64.833,64.833,0,0,0,4.609-5.286,1.651,1.651,0,0,1,1.184-.643c.336-.026.669-.056.991-.086C237.419,267.887,238.157,267.819,238.882,267.819Zm-7.009,17.728a10.57,10.57,0,0,0,4.239-1.044,13.961,13.961,0,0,0,5.37-4.162,5.735,5.735,0,0,0,1.2-5.166c-1.2-4.056-2.525-4.056-3.8-4.056-.575,0-1.239.061-1.943.125l-.311.028c-.769.965-2.43,2.984-4.419,5.011a26.87,26.87,0,0,0-3.077,3.6,4.229,4.229,0,0,0-.974,2.637A3.341,3.341,0,0,0,231.873,285.547Z"/><path class="e" d="M234.341,250.964s.713,4.467-.678,5.51c-2.551,1.914-8.039,5.554-8.359,8.107-.622,4.967,4.471,6.314,9.229,4.584,5.736-2.086,8.392-3.822,8.692-10.257S236.78,251.376,234.341,250.964Z"/><path class="f" d="M234.341,249.314a1.65,1.65,0,0,1,.275.023l.047.008a17.67,17.67,0,0,1,6.017,1.93,8.042,8.042,0,0,1,4.193,7.71c-.166,3.566-1.017,5.977-2.757,7.817-1.636,1.729-3.9,2.779-7.019,3.914a13.154,13.154,0,0,1-4.432.817,7.36,7.36,0,0,1-5.652-2.2,6.051,6.051,0,0,1-1.346-4.954c.338-2.7,3.761-5.393,7.862-8.381.395-.288.769-.56,1.089-.8a4.65,4.65,0,0,0,.253-2.112,16.011,16.011,0,0,0-.159-1.859,1.65,1.65,0,0,1,1.629-1.91Zm-3.676,18.919a9.824,9.824,0,0,0,3.3-.619c2.668-.97,4.561-1.824,5.75-3.081,1.158-1.224,1.731-2.982,1.858-5.7a4.743,4.743,0,0,0-2.562-4.708,11.182,11.182,0,0,0-2.845-1.108q0,.152,0,.306c.008,2.236-.49,3.7-1.521,4.472-.35.263-.754.557-1.181.868a55.055,55.055,0,0,0-4.4,3.442c-1.932,1.75-2.118,2.541-2.136,2.682a2.892,2.892,0,0,0,.545,2.36A4.18,4.18,0,0,0,230.665,268.233Z"/><path class="f" d="M4.663,1.65H0A1.65,1.65,0,0,1-1.65,0,1.65,1.65,0,0,1,0-1.65H4.663A1.65,1.65,0,0,1,6.313,0,1.65,1.65,0,0,1,4.663,1.65Z" transform="translate(195.057 180.758)"/><path class="f" d="M204.82,180.758a1.119,1.119,0,1,1-1.119-1.119A1.119,1.119,0,0,1,204.82,180.758Z"/></g></g><g transform="translate(-1814.96 -1068)"><g class="h"><rect class="a" width="37.189" height="37.189" transform="translate(178.979 223.811)"/><path class="i" d="M197.573,249.378a4.649,4.649,0,1,0-4.648-4.648A4.648,4.648,0,0,0,197.573,249.378Zm0-13.946a9.3,9.3,0,1,1-9.3,9.3A9.3,9.3,0,0,1,197.573,235.432ZM211.519,261H183.627a4.766,4.766,0,0,1-4.648-4.649V235.432a4.661,4.661,0,0,1,4.648-4.648h3.719l3.487-3.487a3.85,3.85,0,0,1,2.789-1.162h8.135a3.735,3.735,0,0,1,2.557,1.162l3.487,3.487h3.718a4.661,4.661,0,0,1,4.649,4.648v20.919A4.662,4.662,0,0,1,211.519,261Z"/></g></g></g><g class="j" transform="translate(-5 -38.428)"><g transform="translate(-295.994 4681.503) rotate(-34)"><g transform="translate(261.718 445.649)"><path class="k" d="M323.6,570.588c3.215-11.254,8.463-29.692,8.715-31.107.364-2.044,6.223-38.362,5.087-42.786a5.4,5.4,0,0,0-5-4.411l-.184,1.584-1.032-1.356c.36-4.923.184-9.4-1.44-10.551-4-2.824-8.343-.084-8.343-.084l.044.148-1.088-.252a12.76,12.76,0,0,0,0-4.307c-1.144-2.532-5.891-4.259-8.059-4.063s-6.579,5.523-7.595,9.711c-.432,1.772,1.544,4.375,1.839,5.887l-4.259,14.26-3.181-2.146h0c2.176-10.8,6.412-38.21,7.136-42.262.976-5.455,1.448-12.87-4.367-13.914s-7.767,9.867-10.059,17.9-10.319,38.478-10.319,38.478l-2.919,19.565-1.148.028c-.848-.328.508-15.638.508-15.638s.96-3.72,2.924-11.106a10.363,10.363,0,0,0-4.088-11.262l-12.55,20.777s-2.66,15.23-2.5,18.677c.364,7.663,1.26,15.6,1.816,20.977.784,7.595,9.059,21.189,12.542,27.124l3.224,8.879-8.187,44.558L316.79,633.6l-.044-5.543.112.024.736-7.387,5.443-47.217Z" transform="translate(-261.718 -444.869)"/></g><g transform="translate(263.522 444.609)"><path class="k" d="M291.863,456.463a5.4,5.4,0,0,1,5,4.411c1.14,4.423-4.719,40.742-5.083,42.79s-11.186,39.73-11.186,39.73l-5.027,54.432" transform="translate(-222.002 -409.052)"/><path class="f" d="M275.563,599.477q-.076,0-.154-.007a1.65,1.65,0,0,1-1.491-1.795l5.027-54.432a1.65,1.65,0,0,1,.057-.3c4.338-15.113,10.888-38.122,11.148-39.567.179-1.006,1.729-10.561,3.1-20.438,2.461-17.791,2.164-21.067,2.014-21.648a4.081,4.081,0,0,0-1.954-2.744,3.622,3.622,0,0,0-1.459-.429h.021l-.01-3.3a6.765,6.765,0,0,1,2.811.719,7.242,7.242,0,0,1,3.788,4.932c.216.84.388,2.6-.218,8.834-.354,3.64-.934,8.38-1.723,14.088-1.372,9.922-2.934,19.548-3.115,20.567-.368,2.046-9.887,35.236-11.182,39.748L277.2,597.978A1.65,1.65,0,0,1,275.563,599.477Z" transform="translate(-222.002 -409.052)"/><path class="k" d="M274.033,470.114s-2.132-4.459-1.116-8.651,5.431-9.515,7.6-9.711,6.915,1.532,8.059,4.063-3.843,28.152-3.843,28.152" transform="translate(-230.756 -423.223)"/><path class="f" d="M284.733,485.618a1.651,1.651,0,0,1-1.621-1.966c.012-.061,1.207-6.214,2.278-12.691,1.953-11.815,1.743-14.122,1.658-14.516a5.825,5.825,0,0,0-2.8-2.179,8.47,8.47,0,0,0-3.58-.871c-.348.057-1.573.819-3.157,2.823a16,16,0,0,0-2.991,5.633c-.86,3.55.984,7.514,1,7.554a1.65,1.65,0,1,1-2.979,1.42c-.1-.2-2.372-5.043-1.231-9.751A19.167,19.167,0,0,1,275,454.081c1.121-1.4,3.31-3.785,5.372-3.972a11.533,11.533,0,0,1,5.24,1.15c1.276.576,3.554,1.847,4.471,3.877.28.622.536,1.674.018,6.33-.275,2.469-.741,5.713-1.387,9.643-1.1,6.668-2.347,13.109-2.359,13.173A1.651,1.651,0,0,1,284.733,485.618Z" transform="translate(-230.756 -423.223)"/><path class="f" d="M273.249,597.936a1.651,1.651,0,0,1-1.632-1.908l7.412-46.883c-1.024-1.69-4.357-7.252-7.738-13.577-5.5-10.284-8.5-17.625-8.937-21.817l-.1-.949c-.551-5.314-1.383-13.344-1.728-20.616-.169-3.547,2.314-16.131,2.6-17.554a1.651,1.651,0,0,1,.2-.516l12-20.357a1.65,1.65,0,0,1,2.4-.487,14.719,14.719,0,0,1,3.288,3.683,12.463,12.463,0,0,1,1.6,10.085,71.855,71.855,0,0,1-2.929,9.317l-1.1,13.64a1.65,1.65,0,0,1-3.289-.266l1.128-13.93a1.53,1.53,0,0,1,.172-.611,62.606,62.606,0,0,0,2.834-9,9.122,9.122,0,0,0-1.2-7.473,11.984,11.984,0,0,0-1.117-1.49l-10.8,18.323c-.783,3.962-2.607,13.88-2.483,16.479.341,7.18,1.168,15.155,1.715,20.432l.1.95c.384,3.712,3.345,10.836,8.565,20.6,4,7.476,7.918,13.863,7.957,13.927a1.65,1.65,0,0,1,.224,1.122l-7.507,47.481A1.65,1.65,0,0,1,273.249,597.936Z" transform="translate(-262.169 -414.646)"/><path class="k" d="M265.745,522.255l4.655-21.2s8.019-30.452,10.315-38.478,4.247-18.937,10.063-17.893,5.343,8.459,4.367,13.91-8.475,42.562-8.475,42.562,2.256,4.863,3.644,3.072.285-.422.285-.422" transform="translate(-251.444 -444.609)"/><path class="f" d="M265.747,523.905a1.651,1.651,0,0,1-1.613-2l4.655-21.2q.007-.033.016-.066c.08-.3,8.05-30.56,10.324-38.512.309-1.079.606-2.194.922-3.375a59.407,59.407,0,0,1,3.54-10.663,11.1,11.1,0,0,1,2.9-3.851,5.548,5.548,0,0,1,4.583-1.175c4.143.741,5.582,4.014,6.06,6.628a26.444,26.444,0,0,1-.36,9.2c-.914,5.108-7.4,37.229-8.37,42.044a11.613,11.613,0,0,0,.969,1.548c.475-1.11,1.452-3.734,3.39-9.927,1.511-4.829,2.864-9.463,2.877-9.509a1.65,1.65,0,0,1,3.168.924c-.014.047-1.4,4.807-2.944,9.724-3.2,10.2-3.9,11.111-4.242,11.55a2.5,2.5,0,0,1-2.279,1.021c-1.091-.123-2.082-.927-3.121-2.529a17.073,17.073,0,0,1-1.045-1.879,1.65,1.65,0,0,1-.12-1.021c.075-.371,7.506-37.155,8.468-42.526a23.376,23.376,0,0,0,.363-8.022,5.926,5.926,0,0,0-1.112-2.707,3.635,3.635,0,0,0-2.285-1.266c-.582-.1-2.124-.381-3.946,3.256a57.333,57.333,0,0,0-3.3,10.036c-.3,1.142-.62,2.323-.937,3.431-2.231,7.8-9.991,37.253-10.3,38.412l-4.648,21.171A1.651,1.651,0,0,1,265.747,523.905Z" transform="translate(-251.444 -444.609)"/><path class="k" d="M276.888,454.756s4.347-2.74,8.343.084-.776,25.888-.776,25.888" transform="translate(-218.021 -417.752)"/><path class="f" d="M284.457,482.379a1.652,1.652,0,0,1-1.618-1.985c.012-.057,1.189-5.78,1.865-11.756,1.258-11.121-.409-12.44-.426-12.452a5.389,5.389,0,0,0-4.379-.833,7.472,7.472,0,0,0-2.131.8,1.65,1.65,0,1,1-1.759-2.792,10.468,10.468,0,0,1,3.215-1.236,8.681,8.681,0,0,1,6.96,1.368c1.388.982,2.106,3.051,2.26,6.512a59.756,59.756,0,0,1-.463,9.026c-.694,6.123-1.861,11.794-1.91,12.032A1.651,1.651,0,0,1,284.457,482.379Z" transform="translate(-218.021 -417.752)"/></g></g></g></g></g></svg>