<svg xmlns="http://www.w3.org/2000/svg" width="365.669" height="48.4" viewBox="0 0 365.669 48.4"><defs><style>.a,.b{fill:#3d3d3d;}.b{fill-rule:evenodd;}</style></defs><g transform="translate(-208.392 -1007.264)"><path class="a" d="M503.05,1007.264v48.4h5.621v-12.2h13.08v12.2h5.623v-48.4Zm22.667,31.675h-21.01V1034.7h21.01Zm0-7.733h-21.01v-4.239h21.01Zm0-7.73h-21.01v-4.244h21.01Zm0-7.733h-21.01V1011.5h21.01Z" transform="translate(-109.117)"/><g transform="translate(509.453 1013.905)"><path class="a" d="M689.724,1076.574h11.522v-11.459h8.523v11.459h11.519V1063.73H689.724Zm22.694-11.56h6.425v4.74h-6.425Zm-13.827,0v4.74H692.17v-4.74Z" transform="translate(-687.698 -1034.815)"/><path class="a" d="M717.881,1031.566h4.241l-15.689-13.756h-4.24l-15.687,13.756h4.24v8.361h27.134Zm-15.7,1.431h-.854v4.943H698.56V1033h-1v4.943H694.8V1033h-.857v-1.431h8.234Zm11.553,0v4.943h-2.762V1033h-1v4.943h-2.764V1033h-.853v-1.431h8.233V1033Z" transform="translate(-686.507 -1017.81)"/><path class="a" d="M720.484,1052.934h-2.075v1.3H691.276v-1.3H689.2l-1.268,6.8h1.127v-1.006h31.564v1.006h1.131Z" transform="translate(-687.035 -1030.817)"/></g><path class="a" d="M414.7,1029.721h-4.292l-15.888,20.129h4.294v14.13H426.29v-14.13h4.3Zm-4.308,22.221h-.868v7.233h-2.8v-7.233h-1.007v7.233h-2.8v-7.233h-.867v-2.092h8.342Zm12.566,0h-.867v7.233h-2.8v-7.233h-1.013v7.233h-2.8v-7.233h-.865v-2.092h8.339Z" transform="translate(-68.925 -8.316)"/><path class="a" d="M627,1042.174v-12.509h-17.54v12.509H594.815v21.785h18.3v-6.737h10.22v6.737h18.3v-21.785Zm-8.77-8.947a2.693,2.693,0,1,1-2.693,2.691A2.689,2.689,0,0,1,618.229,1033.228Zm10.739,12.091v3.144h-2.835v-3.144Zm0,5.728v3.143h-2.835v-3.143Zm-32-5.728H599.8v3.144h-2.834Zm0,5.728H599.8v3.143h-2.834Zm4.59,9.991h-4.59v-3.815h4.59Zm3.507-6.849h-2.834v-3.143h2.834Zm0-5.726h-2.834v-3.144h2.834Zm5.265,12.575h-4.589v-3.815h4.589Zm0-6.849h-2.834v-3.143h2.834Zm0-5.726h-2.834v-3.144h2.834Zm20.4,12.575h-4.59v-3.815h4.59Zm3.508-6.849H631.4v-3.143h2.835Zm0-5.726H631.4v-3.144h2.835Zm5.265,12.575h-4.589v-3.815H639.5Zm0-6.849h-2.835v-3.143H639.5Zm0-5.726h-2.835v-3.144H639.5Z" transform="translate(-143.099 -8.296)"/><path class="a" d="M268.068,1021.754a14.741,14.741,0,0,0-14.578,12.62v26.656h3.144v-7.571H279.5v7.571h3.142v-26.656A14.738,14.738,0,0,0,268.068,1021.754Zm12.541,28.607H255.528v-2.66h25.081Zm0-5.4H255.528V1042.3h25.081Zm0-5.4H255.528v-2.66h25.081Z" transform="translate(-16.701 -5.366)"/><g transform="translate(553.644 1029.751)"><path class="b" d="M759.478,1055.388a5.1,5.1,0,0,1,2.348-6.8c-.016-.171-.023-.345-.023-.518a5.095,5.095,0,1,1,10.19,0,4.879,4.879,0,0,1-.03.518,5.1,5.1,0,0,1,2.861,4.577,5,5,0,0,1-.514,2.221,4.913,4.913,0,0,1,2.794,4.16c.067,2.753-2.477,5.037-5.689,5.1a6.247,6.247,0,0,1-4.52-1.722,6.228,6.228,0,0,1-4.393,1.722c-3.213,0-5.814-2.23-5.814-4.992A4.9,4.9,0,0,1,759.478,1055.388Z" transform="translate(-756.688 -1042.976)"/><path class="b" d="M768.189,1070.841s2.179,2.407,2.314,2.708c0,0-.387,2.646-.544,3.932v.076h3.623c0-.1-.7-5.393-.7-5.5a17.018,17.018,0,0,0,1.242-2.282l-1.619,1.387s-.51-3.5-.849-4.782c-.029.331-.846,5.938-.846,5.938Z" transform="translate(-760.947 -1051.643)"/></g><g transform="translate(274.695 1029.751)"><path class="b" d="M316.478,1055.388a5.1,5.1,0,0,1,2.348-6.8c-.016-.171-.023-.345-.023-.518a5.095,5.095,0,1,1,10.19,0,4.887,4.887,0,0,1-.03.518,5.1,5.1,0,0,1,2.861,4.577,5,5,0,0,1-.514,2.221,4.913,4.913,0,0,1,2.794,4.16c.067,2.753-2.477,5.037-5.689,5.1a6.246,6.246,0,0,1-4.52-1.722,6.228,6.228,0,0,1-4.393,1.722c-3.213,0-5.814-2.23-5.814-4.992A4.9,4.9,0,0,1,316.478,1055.388Z" transform="translate(-313.688 -1042.976)"/><path class="b" d="M325.189,1070.841s2.179,2.407,2.314,2.708c0,0-.387,2.646-.544,3.932v.076h3.623c0-.1-.7-5.393-.7-5.5a17.025,17.025,0,0,0,1.242-2.282l-1.619,1.387s-.51-3.5-.849-4.782c-.029.331-.846,5.938-.846,5.938Z" transform="translate(-317.947 -1051.643)"/></g><g transform="translate(367.702 1022.541)"><g transform="translate(0 0)"><path class="b" d="M473.873,1034.534a2.665,2.665,0,1,0,2.643-3.009A2.845,2.845,0,0,0,473.873,1034.534Z" transform="translate(-466.014 -1031.525)"/><path class="b" d="M478.544,1042.89a2.965,2.965,0,1,0,2.965-3.009A2.985,2.985,0,0,0,478.544,1042.89Z" transform="translate(-467.744 -1034.619)"/><path class="b" d="M479.24,1052.958a2.6,2.6,0,1,0-2.572,3.007A2.815,2.815,0,0,0,479.24,1052.958Z" transform="translate(-466.095 -1038.349)"/><path class="b" d="M475.24,1063.958a2.6,2.6,0,1,0-2.572,3.007A2.815,2.815,0,0,0,475.24,1063.958Z" transform="translate(-464.614 -1042.422)"/><path class="b" d="M484.24,1063.958a2.6,2.6,0,1,0-2.572,3.007A2.815,2.815,0,0,0,484.24,1063.958Z" transform="translate(-467.947 -1042.422)"/><path class="b" d="M470.408,1052.958c0-1.663-.9-3.007-2.014-3.007s-2.014,1.344-2.014,3.007.9,3.007,2.014,3.007S470.408,1054.617,470.408,1052.958Z" transform="translate(-463.239 -1038.349)"/><path class="b" d="M486.985,1053.3a5.523,5.523,0,0,0,.524-3.991,4.369,4.369,0,0,0-4.1,5.861A5.521,5.521,0,0,0,486.985,1053.3Z" transform="translate(-469.487 -1038.111)"/><path class="b" d="M491.984,1062.3a5.523,5.523,0,0,0,.524-3.991,4.369,4.369,0,0,0-4.1,5.861A5.521,5.521,0,0,0,491.984,1062.3Z" transform="translate(-471.339 -1041.444)"/><path class="b" d="M472.475,1041.429c-1.018-1.961-3.657-2.408-3.657-2.408s-.983,2.734.037,4.694,3.66,2.4,3.66,2.4S473.5,1043.394,472.475,1041.429Z" transform="translate(-463.984 -1034.301)"/><path class="b" d="M465.475,1059.429c-1.018-1.961-3.657-2.408-3.657-2.408s-.983,2.734.036,4.694,3.66,2.4,3.66,2.4S466.5,1061.394,465.475,1059.429Z" transform="translate(-461.392 -1040.967)"/></g><path class="b" d="M474.114,1060.672c-.39,2.71-.4,11.076-.4,11.076h4.01l-.687-11.808,2.8-2.546-2.958.845-.526-5.253-1.1-2.28c0-.3-.582,7.827-.582,7.827a40.789,40.789,0,0,1-2.9-3.83Z" transform="translate(-465.237 -1038.625)"/></g><g transform="translate(208.392 1022.541)"><g transform="translate(0 0)"><path class="b" d="M220.873,1034.534a2.665,2.665,0,1,0,2.643-3.009A2.845,2.845,0,0,0,220.873,1034.534Z" transform="translate(-213.014 -1031.525)"/><path class="b" d="M225.544,1042.89a2.965,2.965,0,1,0,2.965-3.009A2.985,2.985,0,0,0,225.544,1042.89Z" transform="translate(-214.744 -1034.619)"/><path class="b" d="M226.24,1052.958a2.6,2.6,0,1,0-2.572,3.007A2.815,2.815,0,0,0,226.24,1052.958Z" transform="translate(-213.095 -1038.349)"/><path class="b" d="M222.24,1063.958a2.6,2.6,0,1,0-2.572,3.007A2.815,2.815,0,0,0,222.24,1063.958Z" transform="translate(-211.614 -1042.422)"/><path class="b" d="M231.24,1063.958a2.6,2.6,0,1,0-2.572,3.007A2.815,2.815,0,0,0,231.24,1063.958Z" transform="translate(-214.947 -1042.422)"/><path class="b" d="M217.408,1052.958c0-1.663-.9-3.007-2.014-3.007s-2.014,1.344-2.014,3.007.9,3.007,2.014,3.007S217.408,1054.617,217.408,1052.958Z" transform="translate(-210.239 -1038.349)"/><path class="b" d="M233.984,1053.3a5.523,5.523,0,0,0,.524-3.991,4.369,4.369,0,0,0-4.1,5.861A5.521,5.521,0,0,0,233.984,1053.3Z" transform="translate(-216.487 -1038.111)"/><path class="b" d="M238.984,1062.3a5.523,5.523,0,0,0,.524-3.991,4.369,4.369,0,0,0-4.1,5.861A5.521,5.521,0,0,0,238.984,1062.3Z" transform="translate(-218.339 -1041.444)"/><path class="b" d="M219.475,1041.429c-1.018-1.961-3.657-2.408-3.657-2.408s-.983,2.734.036,4.694,3.66,2.4,3.66,2.4S220.5,1043.394,219.475,1041.429Z" transform="translate(-210.984 -1034.301)"/><path class="b" d="M212.475,1059.429c-1.018-1.961-3.657-2.408-3.657-2.408s-.983,2.734.037,4.694,3.66,2.4,3.66,2.4S213.5,1061.394,212.475,1059.429Z" transform="translate(-208.392 -1040.967)"/></g><path class="b" d="M221.114,1060.672c-.39,2.71-.4,11.076-.4,11.076h4.01l-.687-11.808,2.8-2.546-2.958.845-.526-5.253-1.1-2.28c0-.3-.582,7.827-.582,7.827a40.79,40.79,0,0,1-2.9-3.83Z" transform="translate(-212.237 -1038.625)"/></g><path class="b" d="M372.353,1045.9a10.744,10.744,0,1,0-12.1,10.647c-.03,3.015-.3,9.4-.3,9.4h2.491c.209.7-.127-6.982-.232-9.339A10.735,10.735,0,0,0,372.353,1045.9Zm-5.019-5.938a1.615,1.615,0,1,1-2.863.137A3.927,3.927,0,0,1,367.334,1039.957Zm-7.345-1.381a3.939,3.939,0,0,1,2.235-1.794,3.108,3.108,0,0,1-2.05,4.656A3.923,3.923,0,0,1,359.989,1038.576Zm-3.636,10.817a3.112,3.112,0,1,1-.687-2.783A3.921,3.921,0,0,1,356.352,1049.393Zm-.9-5.627a3.11,3.11,0,0,1,2.047-4.656,3.11,3.11,0,0,1-2.047,4.656Zm5.07,8.367a3.923,3.923,0,0,1-1.748,2.265,3.106,3.106,0,0,1,.9-5.005A3.929,3.929,0,0,1,360.522,1052.133Zm.847-5.8a1.616,1.616,0,1,1,2.57-1.276A3.954,3.954,0,0,1,361.368,1046.333Zm5.354,6.953a3.113,3.113,0,0,1-2.636-4.352,3.107,3.107,0,0,1,2.636,4.352Zm2.133-5.623a1.614,1.614,0,1,1,1.2-2.6A3.931,3.931,0,0,1,368.855,1047.662Z" transform="translate(-52.761 -10.327)"/><path class="b" d="M572.353,1045.9a10.744,10.744,0,1,0-12.1,10.647c-.03,3.015-.3,9.4-.3,9.4h2.491c.209.7-.127-6.982-.232-9.339A10.735,10.735,0,0,0,572.353,1045.9Zm-5.019-5.938a1.615,1.615,0,1,1-2.863.137A3.927,3.927,0,0,1,567.334,1039.957Zm-7.345-1.381a1.616,1.616,0,1,1,.185,2.862A3.939,3.939,0,0,1,559.989,1038.576Zm-3.636,10.817a3.112,3.112,0,1,1-.687-2.783A3.944,3.944,0,0,1,556.352,1049.393Zm-.9-5.627a3.11,3.11,0,1,1,2.231-1.795A3.928,3.928,0,0,1,555.451,1043.765Zm5.07,8.367a1.615,1.615,0,1,1-.848-2.74A3.923,3.923,0,0,1,560.522,1052.133Zm.847-5.8a1.616,1.616,0,1,1,2.57-1.276A3.954,3.954,0,0,1,561.368,1046.333Zm5.354,6.953a3.107,3.107,0,1,1-.185-2.86A3.932,3.932,0,0,1,566.722,1053.286Zm2.133-5.623a1.614,1.614,0,1,1,1.2-2.6A3.931,3.931,0,0,1,568.855,1047.662Z" transform="translate(-126.824 -10.327)"/></g></svg>