<svg xmlns="http://www.w3.org/2000/svg" width="1885" height="35" viewBox="0 0 1885 35">
  <path id="naminami-shiro-lg" d="M1885,67H0V33.845A32.51,32.51,0,0,0,62.447,46.152,32.289,32.289,0,0,0,65,33.748a32.5,32.5,0,0,0,65,0,32.5,32.5,0,0,0,65,0,32.5,32.5,0,0,0,65,0,32.5,32.5,0,0,0,65,0,32.5,32.5,0,0,0,65,0,32.5,32.5,0,0,0,65,0,32.5,32.5,0,0,0,65,0,32.5,32.5,0,0,0,65,0,32.5,32.5,0,0,0,65,0,32.5,32.5,0,0,0,65,0,32.5,32.5,0,0,0,65,0,32.5,32.5,0,0,0,65,0,32.5,32.5,0,0,0,65,0,32.5,32.5,0,0,0,65,0,32.5,32.5,0,0,0,65,0,32.5,32.5,0,0,0,65,0,32.5,32.5,0,0,0,65,0,32.5,32.5,0,0,0,65,0,32.5,32.5,0,0,0,65,0,32.5,32.5,0,0,0,65,0,32.5,32.5,0,0,0,65,0,32.5,32.5,0,0,0,65,0,32.5,32.5,0,0,0,65,0,32.5,32.5,0,0,0,65,0,32.5,32.5,0,0,0,65,0,32.5,32.5,0,0,0,65,0,32.5,32.5,0,0,0,65,0,32.5,32.5,0,0,0,65,.1ZM1690,33.259h0c0-.423-.015-.846-.033-1.258h.068C1690.015,32.411,1690,32.834,1690,33.259Zm-455,0h0c0-.423-.015-.846-.033-1.258h.068C1235.016,32.411,1235,32.834,1235,33.259Zm-455,0h0c0-.417-.014-.84-.033-1.258h.068C780.018,32.411,780.006,32.834,780,33.259Zm-65,0h0c0-.417-.014-.84-.033-1.258h.068C715.015,32.411,715,32.834,715,33.259Zm780,0h0c0-.423-.015-.846-.033-1.258h.068C1495.015,32.41,1495,32.833,1495,33.258Zm-1170,0h0c0-.423-.014-.846-.033-1.258h.068C325.015,32.411,325,32.834,325,33.258Zm585,0h0c0-.42-.014-.843-.033-1.257h.068C910.016,32.411,910.005,32.833,910,33.258Zm-65,0h0c0-.426-.015-.849-.033-1.257h.068C845.015,32.411,845,32.833,845,33.258Zm-195,0h0c0-.42-.014-.843-.033-1.257h.068C650.015,32.411,650,32.833,650,33.258Zm-65,0h0c0-.423-.015-.845-.033-1.257h.068C585.017,32.407,585.005,32.83,585,33.258Zm-65,0h0c0-.423-.015-.845-.033-1.257h.068C520.016,32.407,520,32.83,520,33.258Zm-65,0h0c0-.423-.015-.845-.033-1.257h.068C455.013,32.407,455,32.83,455,33.258Zm-195,0h0c0-.42-.014-.843-.033-1.257h.068C260.017,32.411,260.005,32.833,260,33.258Zm-65,0h0c0-.42-.014-.843-.033-1.257h.068C195.016,32.411,195,32.833,195,33.258Zm-65,0h0c0-.42-.014-.843-.033-1.257h.068C130.014,32.411,130,32.833,130,33.258Zm-65,0h0c0-.423-.015-.845-.033-1.257h.068C65.016,32.407,65.005,32.83,65,33.258Zm1755,0h0c0-.426-.015-.849-.033-1.257h.068C1820.014,32.411,1820,32.833,1820,33.258Zm-65,0h0c0-.42-.014-.843-.033-1.257h.068C1755.017,32.411,1755.005,32.833,1755,33.258Zm-130,0h0c0-.422-.015-.845-.033-1.257h.068C1625.017,32.408,1625.006,32.83,1625,33.258Zm-65,0h0c0-.422-.015-.845-.033-1.257h.068C1560.016,32.408,1560,32.83,1560,33.258Zm-195,0h0c0-.42-.014-.843-.033-1.257h.068C1365.016,32.411,1365,32.833,1365,33.258Zm-65,0h0c0-.42-.014-.843-.033-1.257h.068C1300.013,32.411,1300,32.833,1300,33.258Zm-130,0h0c0-.42-.014-.843-.033-1.257h.068C1170.015,32.411,1170,32.833,1170,33.258Zm-65,0h0c0-.422-.015-.845-.033-1.257h.068C1105.017,32.408,1105.005,32.83,1105,33.258Zm-65,0h0c0-.423-.014-.846-.033-1.257h.068C1040.016,32.408,1040,32.83,1040,33.258Zm-65,0h0c0-.422-.015-.845-.033-1.257h.068C975.015,32.408,975,32.83,975,33.258Zm-585,0h0c0-.425-.015-.848-.033-1.257h.068C390.016,32.41,390.005,32.833,390,33.258Zm1040,0h0c0-.42-.014-.843-.033-1.257h.068C1430.017,32.408,1430.005,32.83,1430,33.257Zm455-.084h0c0-.391-.015-.786-.033-1.173H1885ZM0,33.159H0V32H.034C.017,32.377.006,32.766,0,33.159Z" transform="translate(0 -32)" fill="#fff"/>
</svg>
