<svg xmlns="http://www.w3.org/2000/svg" width="390" height="35" viewBox="0 0 390 35">
  <path id="naminami-shiro" d="M390,67H0V33.861A32.51,32.51,0,0,0,62.446,46.15,32.289,32.289,0,0,0,65,33.759a32.5,32.5,0,0,0,65,0,32.5,32.5,0,0,0,65,0,32.5,32.5,0,0,0,65,0,32.5,32.5,0,0,0,65,0,32.5,32.5,0,0,0,65,.107L390,67ZM325,33.245h0c0-.414-.014-.832-.033-1.244h.068C325.016,32.409,325,32.827,325,33.245Zm-65,0h0c0-.415-.014-.833-.033-1.244h.068C260.016,32.407,260,32.825,260,33.244Zm-65,0h0c0-.415-.014-.833-.033-1.244h.068C195.016,32.407,195,32.825,195,33.244Zm-65,0h0c0-.415-.014-.833-.033-1.244h.068C130.015,32.407,130,32.825,130,33.244Zm-65,0h0c0-.413-.014-.832-.033-1.244h.068C65.016,32.407,65,32.825,65,33.244Zm325-.085h0c0-.388-.015-.778-.032-1.159H390ZM0,33.142H0V32H.034C.017,32.374.006,32.758,0,33.142Z" transform="translate(0 -32)" fill="#fff"/>
</svg>
