<svg id="naminami-midori" xmlns="http://www.w3.org/2000/svg" width="390.002" height="35" viewBox="0 0 390.002 35">
  <path id="naminami-midori-2" data-name="naminami-midori" d="M390,34.241H0V1.1a32.409,32.409,0,0,0,9.519,22.62,32.391,32.391,0,0,0,10.33,6.965,32.608,32.608,0,0,0,25.3,0,32.391,32.391,0,0,0,10.33-6.965,32.391,32.391,0,0,0,6.965-10.33A32.289,32.289,0,0,0,65,1a32.409,32.409,0,0,0,9.52,22.722,32.391,32.391,0,0,0,10.33,6.965,32.607,32.607,0,0,0,25.3,0,32.391,32.391,0,0,0,10.33-6.965,32.391,32.391,0,0,0,6.965-10.33A32.289,32.289,0,0,0,130,1a32.409,32.409,0,0,0,9.52,22.722,32.393,32.393,0,0,0,10.331,6.965,32.607,32.607,0,0,0,25.3,0,32.391,32.391,0,0,0,10.331-6.965,32.393,32.393,0,0,0,6.965-10.33A32.289,32.289,0,0,0,195,1a32.41,32.41,0,0,0,9.52,22.722,32.391,32.391,0,0,0,10.33,6.965,32.607,32.607,0,0,0,25.3,0,32.391,32.391,0,0,0,10.331-6.965,32.392,32.392,0,0,0,6.965-10.33A32.289,32.289,0,0,0,260,1a32.41,32.41,0,0,0,9.52,22.722,32.391,32.391,0,0,0,10.33,6.965,32.608,32.608,0,0,0,25.3,0,32.391,32.391,0,0,0,10.33-6.965,32.391,32.391,0,0,0,6.965-10.33A32.289,32.289,0,0,0,325,1a32.409,32.409,0,0,0,9.52,22.722,32.391,32.391,0,0,0,10.331,6.965,32.607,32.607,0,0,0,25.3,0,32.391,32.391,0,0,0,10.33-6.965,32.392,32.392,0,0,0,6.965-10.33A32.294,32.294,0,0,0,390,.839v33.4Zm0-33.6h0c0-.467-.013-.939-.034-1.4H390ZM65,.486h0c0-.413-.014-.831-.033-1.244h.068C65.016-.352,65,.066,65,.486Zm260,0h0c0-.415-.014-.833-.033-1.244h.068C325.016-.353,325,.066,325,.485Zm-65,0h0c0-.414-.014-.832-.033-1.244h.068C260.016-.353,260,.066,260,.485Zm-65,0h0c0-.415-.014-.833-.033-1.244h.068C195.016-.353,195,.066,195,.485Zm-65,0h0c0-.413-.014-.832-.033-1.244h.068C130.015-.353,130,.066,130,.485ZM0,.383H0V-.759H.034C.017-.384.006,0,0,.383Z" transform="translate(0 0.759)" fill="#e9f4e9"/>
</svg>
