<svg xmlns="http://www.w3.org/2000/svg" width="298.748" height="61.981" viewBox="0 0 298.748 61.981"><defs><style>.a{fill:#e6d231;}.b{fill:#caf8ff;}.c{fill:#3d3d3d;}</style></defs><g transform="translate(-45.126 -1720.442)"><g transform="translate(-1061.821 1643.774)"><g transform="translate(1112.479 82.203)"><g transform="translate(0 0)"><path class="a" d="M1453.253,145.927h49.39l-14.111-21.167,14.111-21.167h-49.39Z" transform="translate(-1209.426 -89.481)"/><path class="a" d="M1163.637,145.927h-49.39l14.111-21.167-14.111-21.167h49.39Z" transform="translate(-1114.247 -89.481)"/><rect class="a" width="222.659" height="42.334" transform="translate(35.279)"/><path class="b" d="M1163.3,142.833l14.111,14.111V142.833Z" transform="translate(-1128.019 -100.498)"/><path class="b" d="M1467.364,142.833l-14.111,14.111V142.833Z" transform="translate(-1209.426 -100.498)"/></g></g><g transform="translate(1107.948 77.667)"><path d="M1379.653,121H1157a1,1,0,0,1-1-1V77.667a1,1,0,0,1,1-1h29.27a1,1,0,0,1,0,2H1158V119h220.656V78.667H1192.372a1,1,0,0,1,0-2h187.281a1,1,0,0,1,1,1V120A1,1,0,0,1,1379.653,121Z" transform="translate(-1121.719 -77.667)"/><g transform="translate(0 14.112)"><path d="M1121.128,118.065a1,1,0,0,1-.833-.446l-13.18-19.776a1,1,0,0,1,.832-1.555h31.981a1,1,0,0,1,0,2h-30.113l12.144,18.221a1,1,0,0,1-.831,1.555Z" transform="translate(-1107.948 -97.289)"/><path d="M1157.338,149.431h-49.39a1,1,0,0,1-.832-1.554l13.18-19.782a1,1,0,0,1,1.665,1.109l-12.144,18.228h46.522V137.068a1,1,0,0,1,2,0v11.363A1,1,0,0,1,1157.338,149.431Z" transform="translate(-1107.948 -106.093)"/><path d="M12.973,12.034a1,1,0,0,1-.647-.238L-.648.762A1,1,0,0,1-.762-.648,1,1,0,0,1,.648-.762L13.621,10.272a1,1,0,0,1-.648,1.762Z" transform="translate(36.414 31.301)"/></g><g transform="translate(243.823 14.112)"><path d="M1489.954,118.065a1,1,0,0,1-.831-1.555l12.144-18.221h-30.113a1,1,0,0,1,0-2h31.982a1,1,0,0,1,.832,1.555l-13.18,19.776A1,1,0,0,1,1489.954,118.065Z" transform="translate(-1453.744 -97.289)"/><path d="M1496.339,149.431h-49.39a1,1,0,0,1-1-1V137.068a1,1,0,0,1,2,0v10.363h46.523L1482.327,129.2a1,1,0,1,1,1.664-1.109l13.18,19.782a1,1,0,0,1-.832,1.554Z" transform="translate(-1446.948 -106.093)"/><path d="M0,12.034a1,1,0,0,1-.762-.352,1,1,0,0,1,.114-1.41L12.325-.762a1,1,0,0,1,1.41.114,1,1,0,0,1-.114,1.41L.648,11.8A1,1,0,0,1,0,12.034Z" transform="translate(0.003 31.301)"/></g></g></g><path class="c" d="M-54.59-13.051q-1.016,2.438-1.422,3.352-.533-.863-1.143-1.727l-10.08.229.1,1.422-2.361.1L-69.367-13l3.555-.051q-.1-2.463-.076-3.605l2.615-.076-.025-.635q-3.123.025-3.707-.025l-.1-2.285q3.656-.051,10.258.025l-.178,2.082-4.215.051-.051.635,3.072.051a19.171,19.171,0,0,1-.178,3.783Zm-6.145-2.666-3.072.025v.457q.406,0,3,.025Zm0,1.625-.025-.508-2.895.025v.559Q-63.451-14.016-60.734-14.092Zm-.076,1.295-.025-.609-2.666.1v.609Q-62.893-12.721-60.811-12.8Zm5.637,4.773-1.295.787a7.113,7.113,0,0,0-.863-1.523l1.295-.609Zm-4.291-2.488-.66,1.346q-.939-.66-1.5-1.066l.609-.889Zm2.158,3.326a20.861,20.861,0,0,1-3.936.406,8.393,8.393,0,0,1-2.666-.355l.279-3.047,1.523-.051.076,1.625q.686.051,1.219.051a4.135,4.135,0,0,0,1.295-.152l.076-1.041Q-58.957-9.191-57.307-7.186ZM-64.7-9.725a11.826,11.826,0,0,1-.508,2.26l-1.9-.355q.229-.736.609-2.184Zm8.48,7.363L-56.8.66A35.785,35.785,0,0,1-62.105-.863Q-63.426.33-67.006.381A9.979,9.979,0,0,0-64.111-1.7l-1.4-.609L-65-3.453a18.4,18.4,0,0,0,2.336.736l.787-1.092q-2.234-.229-2.971-.381a8.1,8.1,0,0,1-3.885,1.016,13.887,13.887,0,0,0,1.854-1.841,9.613,9.613,0,0,0,1.422-2.044l2.234.787q-.3.508-.584.889,3.986-.076,5.383-.152a8.044,8.044,0,0,1-1.8,3.148,7.129,7.129,0,0,0,2.133.229A6.4,6.4,0,0,0-56.215-2.361Zm-12.035-13.2a35.771,35.771,0,0,1-2.844,2.641l.813,12.086-2.768-.025.3-10.766a11.363,11.363,0,0,1-3.377.482,21.554,21.554,0,0,0,3.174-3.5,11.263,11.263,0,0,0,1.828-3Zm39.2,4.672-1.27,2.615A47,47,0,0,1-37.1-12.01l.152,3.123-3.225.076.178-3q-1.9,2.717-7.719,2.717a18.149,18.149,0,0,0,5.154-3.428l-4.646.229-.076-2.666,7.262-.025-.025-1.244a9.215,9.215,0,0,1-2.488-.178,10.239,10.239,0,0,1-3.148-1.041,53.554,53.554,0,0,0,10.156-2.412l1.447,3.021a19.386,19.386,0,0,1-3.174.559l.152,1.117,6.932-.076-.025,2.514q-1.422.1-2.59.1-1.016,0-1.854-.076A11.971,11.971,0,0,0-29.047-10.893ZM-32.068-5.1A10.131,10.131,0,0,1-33.439.584a28.127,28.127,0,0,0-3.047-2.107h1.625q.127-.609.254-1.447-1.574-.051-3.885-.1a14.147,14.147,0,0,0,.584-2.869H-40.5a7.345,7.345,0,0,1-1.676,3.1,6.809,6.809,0,0,1-5,2.361,11.26,11.26,0,0,0,2.793-3.5,7.532,7.532,0,0,0,.99-4.062l8.3-.178q0,1.879-.127,3.377ZM-2.945-16.225l-.127,2.92q-3.859.152-4.926.127l.025,1.93q2.641-.076,4.012-.178l-.025,2.818q-2.869-.1-4.139-.076L-8-6.729q3.453.025,4.393-.025l-.076,2.793H-8.074L-8.049.025-11.172,0l.178-13.127-1.447-.025a5.628,5.628,0,0,1-4.113,1.625A25.972,25.972,0,0,0-13.33-16.3a16.516,16.516,0,0,0,1.447-3.555l3.25,1.523a9.3,9.3,0,0,1-1.574,2.311Zm-12.949.965a14.1,14.1,0,0,1-2.895,2.615Q-18.1-2.92-18.1-1.371L-21-1.295l.279-10.816a6.745,6.745,0,0,1-2.895.584,9.617,9.617,0,0,1-1.193-.076q4.824-3.605,6.145-6.17ZM17.977-9.877q-6.5-.2-9.6-.127Q8.2-13.051,8.2-15.463q0-1.777.1-3.225,7.059,0,9.648.1Zm-2.869-2.844-.1-2.768a29.042,29.042,0,0,0-3.377-.076L11.477-12.7q.889.051,1.7.051Q14.168-12.645,15.107-12.721ZM22.344-.635q-2.437.1-4.164.1A17.831,17.831,0,0,1,14.7-.762q-.051-5.688.051-7.135l7.16-.025Q22.369-3.148,22.344-.635ZM19.678-3.25q0,.33-.076-2.006L17.52-5.307v2.184q.33.025.66.025A7.626,7.626,0,0,0,19.678-3.25ZM11.2-.635A47.13,47.13,0,0,1,3.91-.863l.1-6.8q1.93-.051,3.428-.051,2.107,0,3.377.1ZM8.785-3.326q0-.33-.051-1.625L6.348-5.078,6.3-3.1A7.087,7.087,0,0,0,8.785-3.326Zm39.229.457L46.033-.457a14.333,14.333,0,0,0-2.539-2.564,2.724,2.724,0,0,1-.914.965,3.259,3.259,0,0,1-1.828.533,3.117,3.117,0,0,1-.559-.051,3.509,3.509,0,0,1-2.26-1.143,2.585,2.585,0,0,1-.686-1.955,2.738,2.738,0,0,1,.965-2.107,3.18,3.18,0,0,1,2.082-.686,4.145,4.145,0,0,1,1.27.2,29.187,29.187,0,0,0-.279-3.555q-3.047-.076-3.859-.178L37.248-14.6q2.031,0,3.783-.076l-.482-2.945,3.479-.076q0,2.031-.1,3.326l3.3-.1L47.48-11.6q-1.574.127-3.225.406a27.161,27.161,0,0,1,0,5.1A12.109,12.109,0,0,1,48.014-2.869ZM41.641-4.291q.051-.279-.33-.571A1.855,1.855,0,0,0,40.5-5.23a1.252,1.252,0,0,0-.7.1.539.539,0,0,0-.343.533.776.776,0,0,0,.343.622,1.1,1.1,0,0,0,.825.216Q41.564-3.834,41.641-4.291ZM35.318-6.5q-2.564,3.352-3.91,4.951a17.021,17.021,0,0,1-1.346-7.592,52.441,52.441,0,0,1,.457-6.475l3.174.355a25.282,25.282,0,0,0-.965,7.211,17.741,17.741,0,0,0,.152,2.438A20.281,20.281,0,0,0,35.318-6.5Zm39.1-2.057a12.249,12.249,0,0,1-1.777.1,7.213,7.213,0,0,1-1.32-.076q-.051-1.9-.025-3.021a20.355,20.355,0,0,1,2.971-.127Zm-7.795-.076a8.253,8.253,0,0,1-1.752.1,11.917,11.917,0,0,1-1.346-.076q-.025-1.9-.025-3a19.577,19.577,0,0,1,2.971-.152Zm-7.719,0a8.253,8.253,0,0,1-1.752.1,11.917,11.917,0,0,1-1.346-.076q-.025-1.9-.025-3a19.577,19.577,0,0,1,2.971-.152Z" transform="translate(195 1755)"/></g></svg>