<svg xmlns="http://www.w3.org/2000/svg" width="614.614" height="95.281" viewBox="0 0 614.614 95.281"><defs><style>.a{fill:#3d3d3d;}</style></defs><path class="a" d="M-205.064-25.078a68.9,68.9,0,0,1-1.172,13.594A35.728,35.728,0,0,1-210.5.8a56.267,56.267,0,0,0-4.078-4.406q-3.047-3-3.187-3.141l4.5.188a36.323,36.323,0,0,0,1.734-12.75l-7.078.328q-1.359,12.75-14.2,16.125,6.844-8.391,7.594-15.516-3.891.188-8.25.328l-.141-7.312,8.766.094q-.234-3.469-.656-7.781l8.063.234-.75,7.828Q-214.627-24.984-205.064-25.078Zm43.961,5.766A22.569,22.569,0,0,1-169.728-9.4a35.982,35.982,0,0,1-14.3,5.555l-.656-27.047,8.531.188-.516,16.875Q-166.353-16.312-161.1-19.312Zm28.118-9.047-3.328,6.141-6.937-4.125,3.375-5.25Q-136.313-30.094-132.985-28.359Zm17.625,4.5a22.664,22.664,0,0,1-7.547,13.5,32.306,32.306,0,0,1-15.938,7.406l-3.047-7.687a48.675,48.675,0,0,0,15.516-4.828A44.638,44.638,0,0,0-115.36-23.859ZM-69.1-34.641l-.328,3.7a16.569,16.569,0,0,0-2.484.8l-.7-3.937Zm-5.156,4.406a14.874,14.874,0,0,0-2.437.8l-1.078-3.937,3.516-.562Zm-1.969,2.3q-.047,11.156-4.781,18Q-86.587-1.781-98.352-.375a38.121,38.121,0,0,0,5.3-4.547A24.874,24.874,0,0,0-89.024-9.8q-3.937-1.734-6.281-2.484l2.016-5.062q.938.234,7.453,2.438a25.458,25.458,0,0,0,1.922-7.172q-5.3.188-10.547.281a12.486,12.486,0,0,1-6.891,4.313,32.33,32.33,0,0,0,3.281-14.906,20.738,20.738,0,0,0-.141-2.625l7.406.8a33.219,33.219,0,0,1-1.547,6.609Zm48.321,6.375-.516,5.766H-58.516l-.141-5.906Q-38.641-21.469-27.907-21.562ZM9.961-10.406,9.492-2.812A31.361,31.361,0,0,1,3.82-2.25q-11.344,0-12.891-9.094a10.534,10.534,0,0,1-.141-1.734,10.8,10.8,0,0,1,3.656-8.156A50.043,50.043,0,0,1-8.6-31.406l6.516-1.547A60.749,60.749,0,0,0-.352-24.937l6.469-4.125,3.75,6.047a14.023,14.023,0,0,0-7.875,2.672A7.347,7.347,0,0,0-1.148-14.25q0,.516.047,1.078A3.914,3.914,0,0,0,.914-10.219,7.525,7.525,0,0,0,4.992-9.187,10.62,10.62,0,0,0,9.961-10.406Zm44.8-3.844a10.752,10.752,0,0,1-2.578,7.781,9.781,9.781,0,0,1-7.641,3.234,15.448,15.448,0,0,1-2.625-.234q-8.3-1.641-8.3-17.109a69.9,69.9,0,0,1,.656-9.094l7.969-.047a88.679,88.679,0,0,0-.844,10.547q0,8.2,3.7,9.047a7.153,7.153,0,0,0,1.828.234A8.9,8.9,0,0,0,54.766-14.25Zm44.758-9.422q-8.3,1.922-8.953,8.813-.469,4.547,3.844,8.672L86.962-2.812a17.3,17.3,0,0,1-3.891-10.5,10.341,10.341,0,0,1,.234-2.2,9.921,9.921,0,0,1,1.969-4.219,11.308,11.308,0,0,1,4.219-3.422q-7.5.563-15.7.891l-.141-6.187q17.109-.375,25.781-.937ZM152.251-5.812,149.11.563a43.984,43.984,0,0,1-7.266-6.141,10.71,10.71,0,0,1-8.766,4.219,26.219,26.219,0,0,0,3.094-3,11.679,11.679,0,0,0,2.438-3.375A29.917,29.917,0,0,1,135.985-12l1.922-2.156a13.967,13.967,0,0,0,2.719,2.719,25.245,25.245,0,0,0,1.078-6.047l-6.516.281q.141,8.766-7.922,13.594a74.811,74.811,0,0,0,3.281-18.516q.141-2.156.141-3.141a67.676,67.676,0,0,0-.656-8.859l20.2-.469-.094,6.938-14.062-.281-.187,5.813q.891-.047,11.813-.656-.656,4.922-1.172,7.313A29.655,29.655,0,0,1,144.423-9,22.752,22.752,0,0,0,152.251-5.812ZM127.032-4.219a5.439,5.439,0,0,1-3.047.891,4.861,4.861,0,0,1-4.969-3.8q.141,3.469-6.8,4.078a11.556,11.556,0,0,0,3.375-5.25,27.168,27.168,0,0,0-3.562.141l-.047-24.234q5.906-.141,13.453-.047l.422,25.031H123Q123.329-4.453,127.032-4.219ZM120.8-24.8l-.047-2.062a40.048,40.048,0,0,0-4.359-.281l-.047,2.2Q118.688-24.8,120.8-24.8Zm-.047,6.141-.234-2.016a32.76,32.76,0,0,0-4.266-.187v2.813A11.493,11.493,0,0,0,120.751-18.656Zm-.328,7.406v-2.625a34.351,34.351,0,0,0-3.891.094l.094,2.531q.984.094,1.922.094T120.423-11.25Zm65.852-22.219-.234,6q-6.562-.234-7.922-.187l-.094,1.875h5.813l-.422,4.453q-4.125-.187-7.453-.187-1.781,0-5.391.141-2.437.094-4.219.047l-.469-3.844,5.859-.187v-2.672l-8.906.7-.047-5.812,9.234.234-.234-4.359,6.328.094-.141,3.844Zm5.344,14.625-2.344,8.859q-.7-1.5-2.3-4.359H164.056l-.328,3.375-5.016-.234q.094-4.5,0-7.406ZM190.54-1.266q-2.578,2.2-8.437,2.2a21.478,21.478,0,0,1-6.234-.891q-.141-7.594-.094-11.953l5.578.141-.469,7.781a12.88,12.88,0,0,0,2.438.234,8.579,8.579,0,0,0,2.156-.234l.094-3.094Zm-18.047-9a9.972,9.972,0,0,1-5.25,9.516,16.2,16.2,0,0,1-5.437,1.922,19.712,19.712,0,0,0,3.609-5.062A13.233,13.233,0,0,0,167.056-9.8q0-.516-.047-1.031Zm50.852-23.344L220.439-12.7q-2.062.188-4.969.375l1.125-21.8Zm-2.484,32.3-6.469.094q.563-3.937.844-6.7l5.25.234ZM-289.823,19.813l-.187,5.438q-5.812-.281-9-.375l.516,8.813-5.391.328v-14.2Zm46.539,27.656-.516,7.688a199.007,199.007,0,0,1-20.25-1.312l-.281-5.484q6.234.234,7.969.141.094-2.906.094-5.859t-.094-5.953q-4.219.469-5.859.516v-6.75q5.109-.234,6.094-.375l-.516-8.484,6.938.234-.516,8.109,5.719-.562.141,7.313-5.953.328q0,3.563.047,10.688Zm-21.7-10.312a4,4,0,0,1-4.172,2.625,5.228,5.228,0,0,1-1.266-.141l.328,14.906-5.25.375.375-12.141q-2.2,2.063-7.594,1.969,5.578-4.922,7.078-9.047V33.5q-2.859.234-5.344.328l-.234-5.859q2.109.047,3.516.047t2.063-.047l.141-6.094h5.391l.234,6.609,4.313-.281-.094,5.156-4.828.141v1.828a6.29,6.29,0,0,0,2.531,1.313A9.3,9.3,0,0,0-264.986,37.156ZM-216.947,52.2q6.8-5.484,6.891-11.766a9.43,9.43,0,0,0-1.031-4.687,5.7,5.7,0,0,0-3.469-2.906q-2.766,9.094-12.7,17.25a10.461,10.461,0,0,1-4.031-5.016,12.959,12.959,0,0,1-1.125-6,12.138,12.138,0,0,1,4.734-9.187,14.441,14.441,0,0,1,9.844-2.859,13.76,13.76,0,0,1,9.609,3.984,12.451,12.451,0,0,1,3.422,8.906,11.545,11.545,0,0,1-3.375,8.672A14.149,14.149,0,0,1-216.947,52.2Zm-2.25-20.062A6.248,6.248,0,0,0-220.509,32a6.689,6.689,0,0,0-4.711,1.852,6.917,6.917,0,0,0-2.273,4.43,6.614,6.614,0,0,0,1.031,4.781,35.538,35.538,0,0,0,4.313-5.3A22.4,22.4,0,0,0-219.2,32.141Zm61.352-8.156a22.789,22.789,0,0,1-4.289,7.922,16.548,16.548,0,0,1-6.07,4.922,18.226,18.226,0,0,0,1.359-7.453q-9.187.938-22.031,1.688L-189.2,23.8Q-179.736,23.984-157.845,23.984Zm-13.312,11.156a16.246,16.246,0,0,1,.281,3,15.581,15.581,0,0,1-3.234,9.75,14.433,14.433,0,0,1-9.469,5.578,21.139,21.139,0,0,0,5.438-13.828,20.65,20.65,0,0,0-.656-5.109Zm55.024,2.25-3.328,7.125q-5.156-2.344-6.75-3.094-4.406-2.109-5.906-3.047l.516,15.609-7.031-.047.328-31.312,6.563-.141.375,10.359q3.516,1.219,7.969,2.484Q-118.149,36.734-116.134,37.391Zm39.227-12.609a50.652,50.652,0,0,1,.609,7.547q0,19.734-18.094,22.594a27.082,27.082,0,0,0,8.672-10.781,27.135,27.135,0,0,0,2.391-11.2,20.181,20.181,0,0,0-1.359-7.828ZM-91.016,40.953l-6.609.328-.094-15.656,6.281-.047Zm61.727,3.141-.609,7.359-28.031.141-.375-6.75q.047,0,11.25-.984l-.094-9.281-7.969-.094-.609-7.547h24.141l-.422,7.219q-3.937.234-8.109.375,0-1.031-.094,8.953ZM17.344,24.313a36.668,36.668,0,0,1-2.109,13.078,21.9,21.9,0,0,0-4.312-4.406q.8.047,1.453.047a9.558,9.558,0,0,0,1.031-.047,47.089,47.089,0,0,0,.422-4.922l-2.719.047a6.16,6.16,0,0,1-1.078,3.656,7.822,7.822,0,0,1-4.453,3.516,23.528,23.528,0,0,0,2.063-7.5l-1.969-.141q-.937,2.25-4.781,4.453a40.638,40.638,0,0,0,1.5-10.172q0-.891-.047-1.5l5.953.141a17.865,17.865,0,0,1-1.453,3.7ZM-3.516,26v3.469l-4.641-.187v1.266l4.313.422-.7,3.234Q-7.5,33.031-8.156,32.844l.422,3.8-4.453.094.234-3.562q-1.078,2.109-7.453,2.2a17.46,17.46,0,0,0,3.492-2.437,11.014,11.014,0,0,0,2.648-3.094l-5.3.234-.047-3.656q3.984.094,6.469.047V24.828a13.309,13.309,0,0,1-7.031-1.406q9.938-2.3,12.469-4.5l2.813,4.406A15.944,15.944,0,0,1-8.344,24.5l-.047,1.641ZM9.422,49.109a17.188,17.188,0,0,1-6.516-1.781q4.734-1.641,5.531-2.766ZM15.609,39.5l-2.484,6.7Q2.531,41-.422,38.281q-2.062,2.672-6.937,4.031a30.3,30.3,0,0,1-8.062,1.031q-.984,0-1.969-.047a39.118,39.118,0,0,0,7.734-3.844q5.672-3.469,5.672-5.672l5.391-.047q1.172,2.531,6.328,4.359A19.99,19.99,0,0,0,15.609,39.5ZM10.828,52.953,8.063,56.7a26.271,26.271,0,0,1-3.844-3.75l1.547-2.2A20.933,20.933,0,0,0,10.828,52.953ZM1.875,43.109,1.5,57.594Q-.984,55.672-6.281,52.2l3.188.047-.141-9.141ZM-5.953,46.2l-1.875,3.281A34.131,34.131,0,0,0-11.3,47.047l1.828-2.859Zm-1.641,4.359a15.648,15.648,0,0,1-3.844,5.3l-2.25-4.406A26.912,26.912,0,0,0-7.594,50.563Zm67.446,6.8-8.062-6.516a33.727,33.727,0,0,0,3.891.047,39.639,39.639,0,0,1-.047-4.219,16.761,16.761,0,0,0,.094-2.156l-9.469.094a15.424,15.424,0,0,1-9.047,10.359,66.424,66.424,0,0,0,4.734-16.078,66.871,66.871,0,0,0,.656-9.375,42.993,42.993,0,0,0-.656-8.3q7.172-.141,11.625-.141,4.5,0,6.234.141ZM54.414,27.547,47.9,27.453l-.047,3.7q3.234.047,6.516-.141ZM54.7,39.031,54.6,35.656l-6.75-.094-.047,3.8Q50.1,39.359,54.7,39.031Zm-16.781-12.8.047,8.906q0,6.422-.187,8.156a52.7,52.7,0,0,1-7.172.516,27.619,27.619,0,0,1-4.312-.281q-.281-10.078-.281-14.578,0-1.969.047-2.859Q35.477,26.328,37.914,26.234ZM33.7,31.109H30.227V33.5a14.744,14.744,0,0,0,3.422.375Zm.047,8.438V37.2a23.031,23.031,0,0,0-3.516.188v2.25a13.241,13.241,0,0,0,1.547.094A10.021,10.021,0,0,0,33.742,39.547ZM85.251,41.7v14.2H71.188l.188-5.484q5.813.328,9,.422l-.516-8.812Zm65.336-19.312-.328,3.7a14.528,14.528,0,0,0-2.484.8l-.7-3.937ZM145.431,26.8a16.569,16.569,0,0,0-2.484.8l-1.031-3.937,3.516-.562ZM142.1,33.781q-8.3,1.922-9,8.766-.469,4.547,3.891,8.672l-7.5,3.375a17.374,17.374,0,0,1-3.844-10.453,13.116,13.116,0,0,1,.188-2.25,9.692,9.692,0,0,1,2.016-4.172,11.145,11.145,0,0,1,4.219-3.469q-7.5.609-15.7.938l-.141-6.234q17.109-.328,25.734-.891Zm46.164-13.594-.141,10.734-17.437.141q-3.516,0-4.969-.047-1.266,8.25-9.328,11.484a38.273,38.273,0,0,0,4.219-17.2,22.339,22.339,0,0,0-.516-5.062q8.906.094,15.563.094Q183.626,20.328,188.267,20.188Zm-6.562,6.8-.094-2.016L169,24.875l.047,2.438Q171.111,27.313,181.7,26.984Zm7.547,22.734a3.753,3.753,0,0,1-2.391.7,3.927,3.927,0,0,1-2.906-1.078l3.422-2.531Zm.609,2.906-3.7,5.391a28.283,28.283,0,0,1-8.25-8.344l2.109-2.156a37.371,37.371,0,0,0,3.047,2.672A12.288,12.288,0,0,0,189.861,52.625Zm-.7-10.453-.047,4.031-18.234.375.188,4.922q1.734-.469,4.781-1.5a10.563,10.563,0,0,1-4.5,5.016,18.846,18.846,0,0,1-6.422,2.391l-.656-4.078,2.578-.562.047-5.672q-2.344-.187-3.891-.234l-.187-4.172,3.891-.234,2.766-.187V40.25l-3.75.234-.094-4.078h4.406l-.234-3.234h5.391l-.281,3.469,4.641-.047-.094-3.844,4.734-.141.281,3.7,3.609-.187-.141,4.359L184.47,40.3l-.187,1.969Zm-9.891.844-.141-2.109-4.5.141v2.016Q177.345,43.016,179.267,43.016Zm49.867-21-.328,7.781q-6.234.094-10.594.094-6.141,0-8.672-.187l-.422-7.781Zm7.172,25.266-4.312,4.969a26.483,26.483,0,0,1-5.437-6.047l3.8-2.859A21.15,21.15,0,0,0,236.306,47.281Zm-3-6.937a113.6,113.6,0,0,1-11.906.563L221.353,56.8q-4.172-3.516-5.344-4.406-1.594-1.172-4.641-2.953l4.266.047-.375-8.625q-7.687-.516-12.234-1.125l-.422-5.391q7.078.094,12.75.094,14.438,0,17.953-.375Zm-22.875,5.484q-2.25,4.641-10.734,5.25a18.253,18.253,0,0,0,3.188-4.266,24.361,24.361,0,0,0,1.547-4.031Zm69.274-16.875L276.424,35a41.83,41.83,0,0,1-7.594-3.891,28.433,28.433,0,0,1-6.844-5.531,15.509,15.509,0,0,1-6,5.2,21.042,21.042,0,0,1-11.2,2.719q11.906-7.266,13.547-12.75l6.375-.047Q268.268,26.563,279.705,28.953ZM267.1,32.938l-.234,4.453q-2.859.094-5.2.094-2.859,0-5.016-.141l-.234-4.453Zm10.5,6.844-.234,4.969-15,.422a17.42,17.42,0,0,1-2.016,5.344,12.588,12.588,0,0,0,3.234.422,11.5,11.5,0,0,0,3.656-.562l-1.687-2.484,3.7-2.016a43.086,43.086,0,0,1,4.5,7.781,34.083,34.083,0,0,1-11.109,1.828,30.776,30.776,0,0,1-9.141-1.266,89.624,89.624,0,0,0,3.656-9.234l-9.609-.234-.094-4.641Zm33.133-17.391L307.823,43.3q-2.062.188-4.969.375l1.125-21.8Zm-2.484,32.3-6.469.094q.563-3.937.844-6.7l5.25.234Z" transform="translate(303.885 37.266)"/></svg>