<svg xmlns="http://www.w3.org/2000/svg" xmlns:xlink="http://www.w3.org/1999/xlink" width="287" height="148" viewBox="0 0 287 148"><defs><style>.a{fill:none;}.b{fill:#efe596;}.c{fill:#3d3d3d;}.d{fill:#00b917;}.e{fill:#fff;}.e,.g{fill-rule:evenodd;}.f{clip-path:url(#a);}.g{fill:#1ba715;}</style><clipPath id="a"><rect class="a" width="21.141" height="21.141"/></clipPath></defs><g transform="translate(-56 -6135)"><path class="b" d="M12,0H262a12,12,0,0,1,12,12V148a0,0,0,0,1,0,0H0a0,0,0,0,1,0,0V12A12,12,0,0,1,12,0Z" transform="translate(63 6135)"/><path class="c" d="M12,4a8.009,8.009,0,0,0-8,8V144H270V12a8.009,8.009,0,0,0-8-8H12m0-4H262a12,12,0,0,1,12,12V148H0V12A12,12,0,0,1,12,0Z" transform="translate(63 6135)"/><path class="c" d="M-106.5-6.258a14.262,14.262,0,0,1-.1,1.708,6.04,6.04,0,0,1-.4,1.554,5,5,0,0,1-.945,1.456,4.645,4.645,0,0,1-1.19.945,8.076,8.076,0,0,1-1.4.623,3.529,3.529,0,0,1-.378.105q-.266.063-.532.119a2.13,2.13,0,0,1-.378.056.4.4,0,0,1-.133-.028.1.1,0,0,1-.077-.1.125.125,0,0,1,.112-.126q.56-.266,1.05-.546a4.711,4.711,0,0,0,.938-.714,5.411,5.411,0,0,0,1.26-1.855,5.715,5.715,0,0,0,.434-2.191V-7.476h1.736Zm4.368-3.052a4.85,4.85,0,0,1-.336,1.764A4.808,4.808,0,0,1-103.4-6.02a3.971,3.971,0,0,1-1.036.833,6.123,6.123,0,0,1-1.246.525l-.252.056a1.159,1.159,0,0,1-.252.028q-.14,0-.14-.126a.133.133,0,0,1,.056-.112.736.736,0,0,1,.112-.07,6.249,6.249,0,0,0,.5-.413,3.3,3.3,0,0,0,.434-.483,4.961,4.961,0,0,0,.721-1.344,4.592,4.592,0,0,0,.3-1.484h-7.672v-.7Zm15.008,2.03a.653.653,0,0,1-.357.665,1.868,1.868,0,0,1-.777.161h-3.416a13.186,13.186,0,0,1-.2,1.743,6.1,6.1,0,0,1-.525,1.6,4.753,4.753,0,0,1-1.071,1.4A5.47,5.47,0,0,1-94.619-.9a9.852,9.852,0,0,1-1.309.574q-.126.042-.406.119t-.56.147a1.91,1.91,0,0,1-.406.07.377.377,0,0,1-.119-.021.1.1,0,0,1-.063-.105.113.113,0,0,1,.063-.1A.5.5,0,0,1-97.3-.266a4.534,4.534,0,0,0,.819-.385q.385-.231.749-.5a5.3,5.3,0,0,0,1.3-1.337A5.205,5.205,0,0,0-93.73-4.2a9.491,9.491,0,0,0,.28-2.254h-4.62v-.672h4.648q0-.742-.014-1.484t-.014-1.47h1.778v2.954h2.66a1.357,1.357,0,0,1,.266-.728.787.787,0,0,1,.672-.322.986.986,0,0,1,.658.252A.81.81,0,0,1-87.122-7.28ZM-73.99-9.45A9.646,9.646,0,0,1-74.4-7.8a16.586,16.586,0,0,1-.679,1.715A10.838,10.838,0,0,1-75.88-4.62a12.031,12.031,0,0,1-2.38,2.681A8.462,8.462,0,0,1-81.438-.294q-.378.1-.763.168T-83.02,0l-.364.035q-.21.021-.35.021a1.421,1.421,0,0,1-.3-.035Q-84.2-.014-84.2-.1a.112.112,0,0,1,.077-.1.643.643,0,0,1,.161-.049q.154-.042.3-.077t.287-.077q.392-.112.777-.245a5.442,5.442,0,0,0,.735-.315,10.65,10.65,0,0,0,1.4-.854A8.033,8.033,0,0,0-79.212-2.9a11.553,11.553,0,0,0,1.26-1.6,1.361,1.361,0,0,0-.287-.126q-.2-.07-.315-.1t-.3-.077q-.2-.049-.42-.1a3.32,3.32,0,0,0-.343-.063q-.14-.028-.434-.056t-.49-.042a.492.492,0,0,1-.217-.063.143.143,0,0,1-.035-.105.467.467,0,0,1,.119-.224q.119-.154.245-.336.168-.224.357-.49t.287-.392a3.966,3.966,0,0,1,.469.231q.231.133.511.329.21.126.525.357a3.547,3.547,0,0,1,.5.427.848.848,0,0,1,.2.238,13.376,13.376,0,0,0,.9-1.792,15.271,15.271,0,0,0,.63-1.876h-3.4a8.243,8.243,0,0,1-.77,1.407,8.078,8.078,0,0,1-1.092,1.3,5.618,5.618,0,0,1-1.358.973,1.092,1.092,0,0,1-.252.1,1,1,0,0,1-.252.042.285.285,0,0,1-.1-.021.077.077,0,0,1-.056-.077.169.169,0,0,1,.035-.112.986.986,0,0,0,.063-.084,12.165,12.165,0,0,0,.777-1.1A14.686,14.686,0,0,0-81.746-7.6q.182-.35.343-.728t.273-.714q.056-.154.133-.427l.154-.546q.077-.273.105-.427l1.848.238A1.53,1.53,0,0,1-79-9.842q-.077.182-.175.392Zm7.966,1.442a1.362,1.362,0,0,1-.189.56,5.918,5.918,0,0,1-.469.749,4.224,4.224,0,0,1-.574.651.826.826,0,0,1-.49.266.087.087,0,0,1-.1-.1,1.253,1.253,0,0,1,.126-.287q.126-.245.3-.567t.3-.6a1.182,1.182,0,0,0,.126-.357.24.24,0,0,0-.014-.1q-.014-.028-.084-.028a1.664,1.664,0,0,0-.518.105q-.308.105-.574.21a1.245,1.245,0,0,1-.364.1.408.408,0,0,1-.1-.021q-.07-.021-.07-.077a1.344,1.344,0,0,1,.084-.35,4.946,4.946,0,0,1,.189-.483.874.874,0,0,1,.175-.287.683.683,0,0,1,.392-.154,4.011,4.011,0,0,1,.434-.028,3.636,3.636,0,0,1,.588.056,1.428,1.428,0,0,1,.581.224A.57.57,0,0,1-66.024-8.008Zm6.342,4.648a4.209,4.209,0,0,1-.448,1.995A3.16,3.16,0,0,1-61.4-.056a4.014,4.014,0,0,1-1.988.462A3.3,3.3,0,0,1-65.6-.308a2.637,2.637,0,0,1-.84-2.128,6.886,6.886,0,0,1,.056-.882q.056-.434.14-.868-.182.014-.364.021t-.378.007h-.889a6.037,6.037,0,0,1-.875-.056,2.411,2.411,0,0,1-.252-.063q-.168-.049-.168-.175a1.267,1.267,0,0,1,.056-.3,3.881,3.881,0,0,1,.147-.427,1.975,1.975,0,0,1,.2-.385q.112-.161.224-.161a.137.137,0,0,1,.1.028.819.819,0,0,0,.084.07.77.77,0,0,0,.224.133q.126.049.238.105a3.919,3.919,0,0,0,.875.217q.525.077.917.105.238-1.26.539-2.513t.581-2.5l.735-.056q.371-.028.721-.028a.418.418,0,0,1,.175.035.144.144,0,0,1,.077.147,2.45,2.45,0,0,1-.112.455q-.112.371-.287.882L-64.036-7.6q-.182.532-.329.952t-.2.574q-.1.266-.175.518t-.147.518a7.766,7.766,0,0,0,1.232-.238q.056-.014.28-.091l.434-.147q.21-.07.224-.07a.025.025,0,0,1,.028.028.579.579,0,0,1-.119.336,2.173,2.173,0,0,1-.231.28,2.213,2.213,0,0,1-.959.49q-.539.126-1.071.2-.1.42-.168.84a5.1,5.1,0,0,0-.07.84,2.066,2.066,0,0,0,.259,1.015,2.075,2.075,0,0,0,.707.756,1.829,1.829,0,0,0,1.008.287,1.827,1.827,0,0,0,1.043-.287,2.226,2.226,0,0,0,.693-.749,3.5,3.5,0,0,0,.385-1.008A4.99,4.99,0,0,0-61.1-3.626a6.073,6.073,0,0,0-.07-.938,3.785,3.785,0,0,0-.252-.882,3.3,3.3,0,0,0-.126-.322q-.07-.154-.154-.308a.663.663,0,0,1-.1-.182.174.174,0,0,1-.056-.126q0-.028.056-.028a.781.781,0,0,1,.336.1q.2.1.308.168a2.587,2.587,0,0,1,.763.735A4.123,4.123,0,0,1-59.871-4.4,3.145,3.145,0,0,1-59.682-3.36ZM-43.33-4.522a.681.681,0,0,1-.28.609,1.148,1.148,0,0,1-.658.189h-4.788v2.73A4.389,4.389,0,0,1-49.2.189a1.51,1.51,0,0,1-.546.826,1.92,1.92,0,0,1-1.169.3,2.129,2.129,0,0,1-.917-.231,5.3,5.3,0,0,1-.917-.56Q-53.186.2-53.508-.1q-.028-.028-.1-.091a.171.171,0,0,1-.07-.119q0-.084.112-.084a.2.2,0,0,1,.084.014,6.517,6.517,0,0,0,.9.266,4.312,4.312,0,0,0,.924.1.672.672,0,0,0,.518-.2,1.066,1.066,0,0,0,.252-.483,2.332,2.332,0,0,0,.07-.553V-3.724h-5.4v-.658h5.376V-6.72h-4.046v-.672h4.046V-9.45q-.588.056-1.169.077t-1.169.021q-.392,0-.77-.014t-.77-.042a2.254,2.254,0,0,1-.266-.035q-.21-.035-.21-.119t.049-.1a.693.693,0,0,1,.1-.035q.322-.07.637-.112t.623-.1a32.057,32.057,0,0,0,3.2-.721q1.575-.441,3.1-1.029.1.056.343.231t.518.378a4.825,4.825,0,0,1,.469.392q.2.189.2.3a.18.18,0,0,1-.049.133.614.614,0,0,1-.119.091,2.876,2.876,0,0,1-.511.147q-.4.091-.9.175t-.924.147q-.427.063-.6.077v2.2h2.492a1.049,1.049,0,0,1,.28-.686.852.852,0,0,1,.658-.294.954.954,0,0,1,.644.259.8.8,0,0,1,.294.623.625.625,0,0,1-.308.6,1.409,1.409,0,0,1-.686.168h-3.374v2.338h3.85v-.14a.785.785,0,0,1,.273-.609.907.907,0,0,1,.623-.245,1.109,1.109,0,0,1,.679.224A.74.74,0,0,1-43.33-4.522Zm3.374.742V-5.208h-.532V-3.78Zm0-1.946V-7.14h-.532v1.414Zm2.114-1.414h-.588v1.26a1.086,1.086,0,0,1,.343.049q.147.049.147.3a.261.261,0,0,1-.161.273.9.9,0,0,1-.329.063v1.4a.557.557,0,0,0,.455-.3,1.165,1.165,0,0,0,.133-.539ZM-29.288.084A.531.531,0,0,1-29.561.6a1.235,1.235,0,0,1-.595.147h-6.608V.1h2.758V-2.058h-1.6v-.6h1.6V-4.326h1.6V-2.66h.658a.724.724,0,0,1,.259-.483.757.757,0,0,1,.511-.2.809.809,0,0,1,.525.2.623.623,0,0,1,.245.5.533.533,0,0,1-.189.427.7.7,0,0,1-.469.161h-1.54V.1h1.526a.643.643,0,0,1,.259-.518.881.881,0,0,1,.567-.21.793.793,0,0,1,.525.21A.643.643,0,0,1-29.288.084Zm.546-4.858a.532.532,0,0,1-.266.476,1.01,1.01,0,0,1-.546.168,4.068,4.068,0,0,1-1.974-.511,8.663,8.663,0,0,1-1.68-1.183,7.242,7.242,0,0,1-1.519.91,9.055,9.055,0,0,1-1.687.56,1.135,1.135,0,0,1-.413.735,1.637,1.637,0,0,1-.742.294,7.565,7.565,0,0,1-.861.077v1.19h.924a.667.667,0,0,1,.224-.5.735.735,0,0,1,.518-.21.808.808,0,0,1,.511.2.579.579,0,0,1,.245.462.586.586,0,0,1-.217.483.789.789,0,0,1-.511.175H-38.43V1.092h-1.526V-1.456h-2.506v-.6h2.506v-1.19H-41.9V-7.686h1.946v-1.19H-42.14v-.63h2.184v-1.876h1.526v1.876h.658a.706.706,0,0,1,.238-.511.748.748,0,0,1,.518-.2.691.691,0,0,1,.483.2.639.639,0,0,1,.217.483.632.632,0,0,1-.2.462.648.648,0,0,1-.476.2H-38.43v1.19h2.058v2.87a8.643,8.643,0,0,0,1.218-.833,9.307,9.307,0,0,0,1.05-1q-.448-.476-.875-.987t-.805-1.043l1.4-1.036q.28.518.56,1.015a11.332,11.332,0,0,0,.616.973q.308-.462.581-.966a5.905,5.905,0,0,0,.441-1.036h-3.766v-.63h5.838a3.361,3.361,0,0,1-.2,1,4.7,4.7,0,0,1-.476.987,9.75,9.75,0,0,1-.686.952,6,6,0,0,1-.812.8,13.218,13.218,0,0,0,.994.973,6.823,6.823,0,0,0,1.12.819.926.926,0,0,1,.252-.455.677.677,0,0,1,.49-.175.66.66,0,0,1,.483.2A.66.66,0,0,1-28.742-4.774Zm6.062,2.408a.115.115,0,0,1-.007.035.155.155,0,0,0-.007.049,3.885,3.885,0,0,1-.413.966,2.732,2.732,0,0,1-.714.812,1.574,1.574,0,0,1-.973.322,1.075,1.075,0,0,1-.749-.259,1.668,1.668,0,0,1-.441-.679,4.19,4.19,0,0,1-.217-.9q-.063-.483-.077-.931t-.014-.756q0-2.716.21-5.376h1.638q-.14,1.442-.231,2.891t-.091,2.9q0,.14.007.469a5.786,5.786,0,0,0,.056.679,2.087,2.087,0,0,0,.168.6.366.366,0,0,0,.329.252.767.767,0,0,0,.462-.182,3.149,3.149,0,0,0,.448-.42q.21-.238.357-.42t.189-.182a.057.057,0,0,1,.056.049A.3.3,0,0,1-22.68-2.366Zm7.266.112a.5.5,0,0,1-.182.322q-.182.182-.28.266a3.4,3.4,0,0,1-1.2.609A4.66,4.66,0,0,1-18.41-.84a3.923,3.923,0,0,1-1.54-.3,2.875,2.875,0,0,1-1.176-.9A2.764,2.764,0,0,1-21.672-3.5l1.4-.406a2.573,2.573,0,0,0,.595,1.491,1.793,1.793,0,0,0,1.449.623,7.565,7.565,0,0,0,1.071-.077A6.315,6.315,0,0,0-16.1-2.114q.056-.028.189-.077l.266-.1a.77.77,0,0,1,.161-.049Q-15.414-2.338-15.414-2.254Zm-1.2-5.866a1.419,1.419,0,0,1-.175.658,2.826,2.826,0,0,1-.434.616,4.3,4.3,0,0,1-.511.476q-.1.07-.266.175a.578.578,0,0,1-.294.1.087.087,0,0,1-.1-.1.959.959,0,0,1,.042-.259l.07-.245q.028-.182.077-.378a1.557,1.557,0,0,0,.049-.378q0-.322-.2-.385a1.515,1.515,0,0,0-.462-.063q-.63,0-1.267.056t-1.267.126v-.77q.462-.028.924-.042l.924-.028q.154-.014.308-.021t.294-.007q.14,0,.5.007t.777.042a3.078,3.078,0,0,1,.707.133Q-16.618-8.3-16.618-8.12Zm5.8-1.33h-1.106v2.87h.126a.631.631,0,0,1,.168-.182.376.376,0,0,1,.224-.07.412.412,0,0,1,.28.112A.345.345,0,0,1-11-6.454q0,.28-.147.364a.663.663,0,0,1-.357.077q-.21-.007-.42-.007v3.472h.252a.658.658,0,0,0,.518-.273,1.277,1.277,0,0,0,.28-.539,1.97,1.97,0,0,0,.049-.371q.007-.189.007-.371Zm3.738.854v4.018h.91q.07-.588.084-1.176t.014-1.176q0-.42-.007-.833t.007-.833ZM-3.43-5.572q0-.756-.007-1.512T-3.444-8.6H-4.48q-.014,1.008-.042,2.016a17.909,17.909,0,0,1-.168,2h1.022a1.392,1.392,0,0,0,.189-.483A2.745,2.745,0,0,0-3.43-5.572ZM-.224.742a.557.557,0,0,1-.224.448.743.743,0,0,1-.476.182,1.407,1.407,0,0,1-.245-.021Q-1.288,1.33-1.4,1.3A4.073,4.073,0,0,1-2.541.749,8.005,8.005,0,0,1-3.626-.14a11.116,11.116,0,0,1-.952-1.05A10.5,10.5,0,0,1-5.32-2.24,5.555,5.555,0,0,1-6.951-.294,7.549,7.549,0,0,1-9.226.868q-.364.112-.763.224a2.916,2.916,0,0,1-.791.112.111.111,0,0,1-.126-.126q0-.1.168-.14l.189-.077q.119-.049.161-.063A10.066,10.066,0,0,0-8.54-.364a6.819,6.819,0,0,0,1.47-1.6,5.116,5.116,0,0,0,.784-2.016H-9.38a1.935,1.935,0,0,1-.6,1.575,2.588,2.588,0,0,1-1.652.469H-13.37v-8.106h3.99v5.46h.84V-9.24h2.45Q-6.1-9.814-6.118-10.4t-.014-1.162h1.68V-10.4q0,.588-.014,1.162h2.66v3.262a3.793,3.793,0,0,1-.077.728,1.624,1.624,0,0,1-.287.672h.49a.623.623,0,0,1,.231-.483.74.74,0,0,1,.5-.2.664.664,0,0,1,.462.2.612.612,0,0,1,.21.462.509.509,0,0,1-.259.49,1.146,1.146,0,0,1-.553.14H-4.76q-.028.168-.063.336a2.334,2.334,0,0,1-.091.322l.8-.364A7.716,7.716,0,0,0-3.682-2.6a12.018,12.018,0,0,0,.644,1.162A11.237,11.237,0,0,0-2.268-.35a9.346,9.346,0,0,0,.784.868A.739.739,0,0,1-1.218.21.655.655,0,0,1-.84.07a.552.552,0,0,1,.448.2A.714.714,0,0,1-.224.742ZM13.23-2.38a.6.6,0,0,1-.042.175q-.042.119-.1.245t-.1.224q-.049.112-.077.168a4.617,4.617,0,0,1-.5.784A4.941,4.941,0,0,1,10.92.427a4.2,4.2,0,0,1-2,.455A4.5,4.5,0,0,1,7.91.763a3.049,3.049,0,0,1-.959-.4,2.1,2.1,0,0,1-.707-.749A2.311,2.311,0,0,1,5.978-1.54a6.45,6.45,0,0,1,.035-.707q.035-.315.063-.539a1.524,1.524,0,0,0-.427.147,4.271,4.271,0,0,0-.525.287,4.568,4.568,0,0,0-.812.672,5.111,5.111,0,0,0-.658.84l-.168.28a2.951,2.951,0,0,1-.168.252.488.488,0,0,1-.1.1.227.227,0,0,1-.14.042A.539.539,0,0,1,2.828-.28a3.867,3.867,0,0,1-.35-.266,2.714,2.714,0,0,1-.308-.3q-.126-.147-.126-.2a.193.193,0,0,1,.07-.126l.063-.063.049-.049q.154-.14.539-.574t.9-1.036q.518-.6,1.064-1.253T5.747-5.4q.469-.595.763-1.008A1.568,1.568,0,0,0,6.8-6.916q0-.028-.035-.035a.3.3,0,0,0-.049-.007.115.115,0,0,0-.035.007.155.155,0,0,1-.049.007,11.466,11.466,0,0,0-1.659.406,12.553,12.553,0,0,1-1.687.42.7.7,0,0,0-.119.021.7.7,0,0,1-.119.021.129.129,0,0,1-.105-.042.505.505,0,0,1-.063-.1,1.544,1.544,0,0,1-.105-.371,2.3,2.3,0,0,1-.049-.385q0-.2.21-.2.238,0,.476.014t.476.014a13.578,13.578,0,0,0,1.365-.07A5.842,5.842,0,0,0,6.594-7.5a2.93,2.93,0,0,0,.462-.21,4.612,4.612,0,0,0,.42-.266q.084-.056.189-.119a.4.4,0,0,1,.2-.063.968.968,0,0,1,.287.077q.2.077.441.189a4.291,4.291,0,0,1,.42.224l.168.1a.3.3,0,0,1,.1.084.273.273,0,0,1,.056.2.336.336,0,0,1-.07.2,1.13,1.13,0,0,1-.1.119,1.13,1.13,0,0,1-.119.105q-.21.182-.413.35t-.413.364q-.434.378-.861.756t-.833.784Q5.838-3.976,5.166-3.3a2.449,2.449,0,0,0-.21.2q-.14.147-.259.294a.848.848,0,0,0-.147.231q.084-.056.364-.2l.651-.343q.371-.2.749-.371T7-3.787a1.448,1.448,0,0,1,.434-.119q.14,0,.14.112a.029.029,0,0,1-.007.021.029.029,0,0,0-.007.021,1.887,1.887,0,0,0-.07.322q-.028.2-.056.42-.042.336-.07.686t-.028.574A1.293,1.293,0,0,0,7.784-.644a1.768,1.768,0,0,0,1.092.336,4.617,4.617,0,0,0,1.806-.371,5.2,5.2,0,0,0,1.5-.931,3.819,3.819,0,0,0,.714-.854.242.242,0,0,1,.2-.112q.1,0,.119.063A.418.418,0,0,1,13.23-2.38ZM8.2-9.156q0,.084-.154.133a1.793,1.793,0,0,1-.322.07,2.221,2.221,0,0,1-.238.021q-.14,0-.476-.035t-.7-.105q-.392-.084-.777-.2A2.464,2.464,0,0,1,4.9-9.541q-.252-.161-.252-.343A.687.687,0,0,1,4.76-10.1q.112-.175.266-.4t.287-.406a1.171,1.171,0,0,1,.175-.21.174.174,0,0,1,.126-.056.113.113,0,0,1,.07.021.139.139,0,0,1,.042.049l.105.1a.979.979,0,0,1,.091.1q.238.238.5.462t.525.42q.238.168.476.308t.5.28a1.6,1.6,0,0,1,.168.105A.209.209,0,0,1,8.2-9.156Zm20.048,5.7a.694.694,0,0,1-.308.623,1.22,1.22,0,0,1-.686.2H24.3q-.07.5-.21,1.1a8.414,8.414,0,0,1-.357,1.148,3.49,3.49,0,0,1-.553.959,1.861,1.861,0,0,1-.735.588,2.552,2.552,0,0,1-.945.154,2.256,2.256,0,0,1-1.015-.273A5.508,5.508,0,0,1,19.474.378a5.931,5.931,0,0,1-.77-.742.458.458,0,0,0-.028-.049.068.068,0,0,1-.014-.035q0-.056.084-.056a.444.444,0,0,1,.126.028,7.231,7.231,0,0,0,.973.343A3.762,3.762,0,0,0,20.86.028a1.224,1.224,0,0,0,.9-.28,2.142,2.142,0,0,0,.455-.84,6.216,6.216,0,0,0,.322-1.54H15.078v-.686h7.546q.056-.392.084-.784l.056-.784H17.892L19.068-9.38h1.75l-.434,1.624H23.03a1.174,1.174,0,0,1,.252-.707.807.807,0,0,1,.672-.3,1.022,1.022,0,0,1,.63.238.718.718,0,0,1,.308.588.765.765,0,0,1-.245.581.836.836,0,0,1-.595.231H20.188l-.406,1.582H24.6a11.058,11.058,0,0,1-.084,1.113q-.07.553-.14,1.113h1.974a1.219,1.219,0,0,1,.28-.721.847.847,0,0,1,.686-.3.977.977,0,0,1,.665.238A.811.811,0,0,1,28.252-3.458Zm-.35-7.028a2.081,2.081,0,0,1-.133.63,5.884,5.884,0,0,1-.364.833,7.094,7.094,0,0,1-.511.833,3.594,3.594,0,0,1-.574.644.894.894,0,0,1-.574.252.229.229,0,0,1-.168-.07.229.229,0,0,1-.07-.168q0-.588.035-1.19t.063-1.19H17.234v2.45H15.54v-3.164H27.762A.124.124,0,0,1,27.9-10.486Zm10.29,2.8h-5.04v.952h3.192a.546.546,0,0,1,.224-.343.632.632,0,0,1,.378-.133.536.536,0,0,1,.413.175.59.59,0,0,1,.161.413.42.42,0,0,1-.2.371.767.767,0,0,1-.427.133H33.152v.9h3.206a.487.487,0,0,1,.217-.343A.663.663,0,0,1,36.96-5.7a.52.52,0,0,1,.4.175.59.59,0,0,1,.161.413.42.42,0,0,1-.2.371.767.767,0,0,1-.427.133H33.152v.938h3.724a1.268,1.268,0,0,0,.98-.364,1.409,1.409,0,0,0,.336-.994ZM34.8-.532a.159.159,0,0,1-.042.1.42.42,0,0,1-.084.077A6.27,6.27,0,0,1,33.67.294a9.207,9.207,0,0,1-1.253.539A11.164,11.164,0,0,1,31.1,1.2a5.726,5.726,0,0,1-1.2.14.249.249,0,0,1-.112-.028.09.09,0,0,1-.056-.084.14.14,0,0,1,.049-.112.515.515,0,0,1,.105-.07,4.815,4.815,0,0,1,.434-.231,3.329,3.329,0,0,0,.434-.245A16.576,16.576,0,0,0,32.165-.42,8.748,8.748,0,0,0,33.418-1.6q.238.154.462.322t.448.322q.112.07.21.14t.2.154A.138.138,0,0,1,34.8-.532Zm7.574-1.876a.613.613,0,0,1-.294.609,1.516,1.516,0,0,1-.686.147H29.274V-2.3h11.34a1.05,1.05,0,0,1,.273-.637.8.8,0,0,1,.623-.273.9.9,0,0,1,.588.238A.716.716,0,0,1,42.378-2.408Zm-.63,3.08a.549.549,0,0,1-.245.441.793.793,0,0,1-.483.189,5.9,5.9,0,0,1-1.54-.224A11.867,11.867,0,0,1,37.863.511,10.419,10.419,0,0,1,36.47-.21a.615.615,0,0,1-.091-.077.147.147,0,0,1-.049-.105.154.154,0,0,1,.056-.1,1.411,1.411,0,0,1,.245-.2q.133-.084.259-.182.462-.378.91-.7.5.546,1.169,1.141a7.574,7.574,0,0,0,1.309.959.763.763,0,0,1,.3-.385A.82.82,0,0,1,41.048,0a.7.7,0,0,1,.49.2A.627.627,0,0,1,41.748.672ZM41.4-10.122a.6.6,0,0,1-.308.567,1.311,1.311,0,0,1-.658.175H36.386v1.092h3.6v2.982a2.436,2.436,0,0,1-.371,1.449A1.9,1.9,0,0,1,38.6-3.15a5.1,5.1,0,0,1-1.484.2H31.542V-8.288h3.192V-9.38H30.1v-.686h4.62v-1.54H36.4v1.54h3.262a.857.857,0,0,1,.259-.616.823.823,0,0,1,.609-.266.874.874,0,0,1,.595.245A.756.756,0,0,1,41.4-10.122Zm9.324,5.656a9.373,9.373,0,0,1-.14,1.547,9.847,9.847,0,0,1-.42,1.631A5.507,5.507,0,0,1,49.462.1a2.545,2.545,0,0,1-.875.8,2.341,2.341,0,0,1-1.1.252,1.4,1.4,0,0,1-.931-.322,2.074,2.074,0,0,1-.588-.812,2.576,2.576,0,0,1-.2-.994v-.147a1.434,1.434,0,0,1,.014-.2q.028-.182.1-.182.028,0,.056.084a1.17,1.17,0,0,0,.056.2l.084.252a2.675,2.675,0,0,0,.5.7,1.011,1.011,0,0,0,.742.308.957.957,0,0,0,.672-.294,2.552,2.552,0,0,0,.532-.77,6.5,6.5,0,0,0,.406-1.246,11.251,11.251,0,0,0,.217-1.288q.063-.6.063-.924a3.323,3.323,0,0,0-.07-.693,1.051,1.051,0,0,0-.28-.539.877.877,0,0,0-.644-.21q-.084,0-.161.007a1.393,1.393,0,0,0-.147.021q-.182.42-.462.952t-.56,1.022q-.336.574-.728,1.141t-.784,1.029a8.34,8.34,0,0,1-.714.756l-1.036-.728a14,14,0,0,0,1.638-1.939A10.729,10.729,0,0,0,46.41-5.712q-.6.084-1.19.161T44.03-5.4l-.07-.77q.658-.042,1.344-.1t1.344-.1a8.214,8.214,0,0,0,.378-1.036q.2-.644.371-1.344a11.183,11.183,0,0,0,.245-1.232q.252.056.511.1a4.747,4.747,0,0,1,.511.112,1.622,1.622,0,0,1,.217.042l.2.056a.5.5,0,0,1,.126.042.113.113,0,0,1,.056.112,1.821,1.821,0,0,1-.1.343q-.1.287-.252.686t-.315.812l-.287.735q-.126.322-.168.434.126,0,.245-.007t.245-.007a2.315,2.315,0,0,1,1.624.448A2.212,2.212,0,0,1,50.722-4.466Zm5.726-.154a.732.732,0,0,1-.168.413,2.19,2.19,0,0,1-.392.413,2.517,2.517,0,0,1-.532.343,3,3,0,0,1-.56.2.827.827,0,0,1-.224.042.074.074,0,0,1-.084-.084l.021-.021.035-.035A4.976,4.976,0,0,0,55-3.892a1.208,1.208,0,0,0,.259-.728.588.588,0,0,0-.322-.455,3.7,3.7,0,0,0-.805-.392,9.293,9.293,0,0,0-.973-.294,7.907,7.907,0,0,0-.812-.161.457.457,0,0,0-.133-.014.827.827,0,0,1-.161-.014q-.182-.014-.182-.14A.631.631,0,0,1,52-6.328q.126-.182.294-.413t.322-.413q.154-.182.21-.238a4.666,4.666,0,0,1,1.554.56,7.127,7.127,0,0,1,1.358.98,3.81,3.81,0,0,1,.448.518A1.306,1.306,0,0,1,56.448-4.62Zm-3.094-5.544a1.836,1.836,0,0,1-.077.413q-.077.287-.2.616t-.238.588a.868.868,0,0,1-.217.329.4.4,0,0,1-.21.07.157.157,0,0,1-.154-.126q-.014-.042-.063-.329t-.105-.644q-.056-.357-.1-.637t-.042-.308q0-.084.1-.084a1.674,1.674,0,0,1,.329-.035l.448-.014q.231-.007.343-.007Q53.354-10.332,53.354-10.164Zm1.974-.308a1.585,1.585,0,0,1-.091.413q-.091.287-.224.623t-.266.6a.973.973,0,0,1-.231.336.336.336,0,0,1-.2.07q-.07,0-.091-.035t-.049-.091-.042-.287q-.042-.273-.084-.637l-.077-.665q-.035-.3-.035-.343,0-.07.084-.084a4.238,4.238,0,0,1,.56-.049q.294-.007.56-.007Q55.328-10.626,55.328-10.472Zm9.646,4.55H63.728v1.036h.378a.509.509,0,0,1,.112-.224.28.28,0,0,1,.224-.1.3.3,0,0,1,.259.133.5.5,0,0,1,.091.287.409.409,0,0,1-.091.266.315.315,0,0,1-.259.112h-.714V-3.6h.378a.561.561,0,0,1,.112-.231.272.272,0,0,1,.224-.1A.3.3,0,0,1,64.7-3.8a.5.5,0,0,1,.091.287.409.409,0,0,1-.091.266.315.315,0,0,1-.259.112h-.714V-1.89q.322-.07.63-.126t.616-.14Zm3.066-4.522H64.274v1.092h2.408a.535.535,0,0,1,.2-.287.553.553,0,0,1,.329-.1.541.541,0,0,1,.35.14.424.424,0,0,1,.168.336.382.382,0,0,1-.189.343.715.715,0,0,1-.385.119H64.274v1.05h3.08a.568.568,0,0,0,.532-.259,1.142,1.142,0,0,0,.154-.6ZM62.412-8.316a.561.561,0,0,1-.259.553,1.26,1.26,0,0,1-.609.126q-.35-.007-.63-.007V-5.39q.112-.042.343-.14t.455-.175a1.169,1.169,0,0,1,.308-.077q.1,0,.1.084a.477.477,0,0,1-.154.252,4.63,4.63,0,0,1-.371.357q-.217.189-.406.343t-.273.21v3.43A6.913,6.913,0,0,1,60.83,0a1.413,1.413,0,0,1-.42.833,1.542,1.542,0,0,1-1.078.315,1.782,1.782,0,0,1-.791-.224A4.957,4.957,0,0,1,57.82.49q-.042-.028-.175-.126T57.512.21q0-.084.112-.084a.687.687,0,0,1,.147.021q.091.021.133.035l.322.035a3.432,3.432,0,0,0,.364.021.685.685,0,0,0,.525-.175.791.791,0,0,0,.2-.448,4.344,4.344,0,0,0,.035-.553V-3.682a3.854,3.854,0,0,1-.658.385q-.35.161-.714.3l-.686-1.358q.518-.14,1.043-.273t1.029-.315q0-.672-.007-1.351t-.007-1.351H57.624v-.6h1.708q0-.756-.007-1.505t-.007-1.505h1.6v3.01H61.1a.848.848,0,0,1,.21-.476.57.57,0,0,1,.448-.21.665.665,0,0,1,.455.182A.564.564,0,0,1,62.412-8.316ZM71.19-.07A.458.458,0,0,1,71,.294a.607.607,0,0,1-.385.154A1.729,1.729,0,0,1,69.769.21a4.318,4.318,0,0,1-.8-.574Q68.6-.7,68.334-.994a6.647,6.647,0,0,1-.868.672,3.533,3.533,0,0,1-.994.462v.952h-1.5v-2.73a3.744,3.744,0,0,1-.672.427q-.42.217-.91.42t-.945.357q-.455.154-.777.238l-.588-1.162q.322-.056.637-.119t.623-.105v-4.34h-.924V-6.51h8.134a.931.931,0,0,1,.266-.525.716.716,0,0,1,.532-.231.809.809,0,0,1,.5.189.572.572,0,0,1,.245.469.548.548,0,0,1-.287.546,1.433,1.433,0,0,1-.637.14h-3.7V-.238a5.046,5.046,0,0,0,.651-.728q.287-.392.553-.8-.294-.406-.56-.826t-.5-.854L67.774-4.3q.126.294.266.581t.28.567q.126-.336.231-.7a4.517,4.517,0,0,0,.147-.714H66.78v-.56h3.584a6.044,6.044,0,0,1-.245,1.113,10.287,10.287,0,0,1-.448,1.183,6.949,6.949,0,0,1-.539.994q.21.392.455.777a4.566,4.566,0,0,0,.553.707,1.219,1.219,0,0,1,.259-.2.6.6,0,0,1,.3-.084.425.425,0,0,1,.357.175A.622.622,0,0,1,71.19-.07ZM69.664-8.82a1.465,1.465,0,0,1-.525,1.33,2.644,2.644,0,0,1-1.435.336H62.776V-11.06h6.888Zm5.292,1.806q0,.1-.175.161a2.148,2.148,0,0,1-.42.1,4.244,4.244,0,0,1-.462.042q-.217.007-.3.007t-.357-.028a3.521,3.521,0,0,1-.518-.091q-.245-.063-.245-.175a1.252,1.252,0,0,1,.063-.28q.063-.21.154-.462t.168-.469q.077-.217.105-.3.434.336.868.665a9.364,9.364,0,0,0,.91.609.755.755,0,0,1,.133.091A.175.175,0,0,1,74.956-7.014Zm10.08,3.556a1.565,1.565,0,0,1-.077.343q-.077.259-.1.357a3.551,3.551,0,0,1-1.092,1.589,2.754,2.754,0,0,1-1.806.609,2.717,2.717,0,0,1-1.1-.217,1.871,1.871,0,0,1-.8-.644,1.814,1.814,0,0,1-.3-1.071,9.43,9.43,0,0,1,.049-.966q.049-.476.105-.952l.112-.924.112-.924q.028-.266.063-.532a4.074,4.074,0,0,0,.035-.532,1.06,1.06,0,0,0-.14-.581.57.57,0,0,0-.518-.217,1.433,1.433,0,0,0-.679.245,6.449,6.449,0,0,0-.847.609q-.434.364-.8.707t-.56.539V.14h-1.5l.056-4.914q-.294.686-.672,1.386a5.5,5.5,0,0,1-.9,1.232q-.056.056-.154.147a.291.291,0,0,1-.2.091.151.151,0,0,1-.112-.042,2.082,2.082,0,0,1-.252-.294q-.182-.238-.364-.5t-.238-.357q.434-.266.973-.651a9.236,9.236,0,0,0,1.015-.84,3.358,3.358,0,0,0,.7-.9,2.191,2.191,0,0,0,.126-.385,1.774,1.774,0,0,0,.056-.413l-.028-3.948h1.484V-6.9q.322-.308.756-.651a10.5,10.5,0,0,1,.924-.651,5.976,5.976,0,0,1,.987-.5,2.609,2.609,0,0,1,.959-.2,2.108,2.108,0,0,1,1.176.287,1.208,1.208,0,0,1,.434,1.085,2.529,2.529,0,0,1-.028.371q-.028.189-.056.385-.1.6-.238,1.309T81.361-4.06a8.812,8.812,0,0,0-.105,1.3,1.5,1.5,0,0,0,.2.854.884.884,0,0,0,.777.294,1.932,1.932,0,0,0,.945-.28,4.652,4.652,0,0,0,.924-.686,3.548,3.548,0,0,0,.637-.77l.077-.154a.148.148,0,0,1,.133-.1.068.068,0,0,1,.063.049A.232.232,0,0,1,85.036-3.458Zm11.872.42a3.084,3.084,0,0,1-.581,1.827A3.861,3.861,0,0,1,94.864.042q-.308.14-.658.259a5.562,5.562,0,0,1-.7.189,4.748,4.748,0,0,1-.6.1q-.294.028-.6.028a3.2,3.2,0,0,1-.77-.105,2.892,2.892,0,0,1-.784-.322,2.032,2.032,0,0,1-.6-.539,1.237,1.237,0,0,1-.238-.756,1.156,1.156,0,0,1,.35-.861,2.276,2.276,0,0,1,.84-.518,2.752,2.752,0,0,1,.924-.175,2.566,2.566,0,0,1,.679.1,1.417,1.417,0,0,1,.609.336.88.88,0,0,1,.252.672.648.648,0,0,1-.21.518,1.115,1.115,0,0,1-.455.245,1.635,1.635,0,0,1-.371.063.729.729,0,0,1-.49-.2.56.56,0,0,1-.224-.42.739.739,0,0,1,.182-.455.583.583,0,0,1,.434-.245.23.23,0,0,0-.217-.161,2.5,2.5,0,0,0-.287-.021.993.993,0,0,0-.5.147,1.326,1.326,0,0,0-.42.385.859.859,0,0,0-.168.5.777.777,0,0,0,.2.553,1.24,1.24,0,0,0,.5.322,1.665,1.665,0,0,0,.56.105,5.755,5.755,0,0,0,.686-.042,3.454,3.454,0,0,0,1.246-.483,2.779,2.779,0,0,0,.9-.931A2.57,2.57,0,0,0,95.27-3.01a1.6,1.6,0,0,0-.588-1.407,2.546,2.546,0,0,0-1.5-.413,4.877,4.877,0,0,0-1.561.266,7.479,7.479,0,0,0-1.449.658,2.35,2.35,0,0,0-.266.175,3.279,3.279,0,0,1-.28.189q-.182.154-.364.329a3.38,3.38,0,0,1-.378.315.32.32,0,0,1-.182.07q-.126,0-.266-.2a1.926,1.926,0,0,1-.231-.434,1.128,1.128,0,0,1-.091-.336q0-.126.175-.21t.273-.126q.322-.126.651-.238a5.091,5.091,0,0,0,.637-.266,1.386,1.386,0,0,0,.385-.28q.161-.168.329-.35A10.116,10.116,0,0,0,91.539-6.6q.441-.721.847-1.421.07-.14.147-.287t.161-.287q.07-.112.126-.217a.889.889,0,0,0,.084-.245,9.491,9.491,0,0,1-1.141.3,5.951,5.951,0,0,1-1.169.119q-.084,0-.315-.014a3.055,3.055,0,0,1-.434-.056q-.2-.042-.2-.14v-.315q0-.245.007-.49a.818.818,0,0,1,.035-.287.11.11,0,0,1,.112-.084.047.047,0,0,1,.042.021q.014.021.028.021a2.431,2.431,0,0,0,.483.217q.273.091.5.147a3.189,3.189,0,0,0,.588.084q.294.014.588.014h.245q.119,0,.259-.014.406-.028.833-.077t.833-.1l.3-.084a1.631,1.631,0,0,1,.3-.056h.112a.982.982,0,0,1,.105.007q.063.007.063.105a.706.706,0,0,1-.077.28q-.077.168-.133.28A18.176,18.176,0,0,1,93.842-7.6a12.216,12.216,0,0,1-1.092,1.3A15.174,15.174,0,0,1,91.364-5.04a10.9,10.9,0,0,1,1.078-.308,4.9,4.9,0,0,1,1.106-.126,6.02,6.02,0,0,1,1.183.119,3.8,3.8,0,0,1,1.092.392,2.122,2.122,0,0,1,.791.742A2.191,2.191,0,0,1,96.908-3.038ZM108.052-.476a1.106,1.106,0,0,1-.336.812,1.106,1.106,0,0,1-.812.336,1.106,1.106,0,0,1-.812-.336,1.106,1.106,0,0,1-.336-.812,1.106,1.106,0,0,1,.336-.812,1.106,1.106,0,0,1,.812-.336,1.106,1.106,0,0,1,.812.336A1.106,1.106,0,0,1,108.052-.476Zm.42-9.394a3.81,3.81,0,0,1-.07.644q-.07.392-.161.8t-.133.7q-.1.672-.224,1.344t-.238,1.344q-.056.322-.084.644t-.084.644q-.042.266-.07.532a3.173,3.173,0,0,1-.1.518.424.424,0,0,1-.448.378.333.333,0,0,1-.329-.189,1.076,1.076,0,0,1-.1-.441q-.007-.252-.021-.406-.056-1.148-.105-2.289t-.161-2.275q-.042-.462-.1-.924a6.831,6.831,0,0,1-.063-.924,1.19,1.19,0,0,1,.343-.952,1.475,1.475,0,0,1,.987-.294,1.135,1.135,0,0,1,.826.329A1.1,1.1,0,0,1,108.472-9.87Z" transform="translate(200 6164)"/><g transform="translate(-2)"><g transform="translate(-265.478 5643.809)"><path class="c" d="M397.221,548.519l-2.6-3.415-4.11,1.236-.092-4.291-4.055-1.413,2.451-3.526-2.451-3.527,4.055-1.412.092-4.291,4.11,1.236,2.6-3.415,2.6,3.415,4.11-1.236.092,4.291,4.055,1.413-2.451,3.527,2.451,3.526-4.055,1.413-.092,4.291-4.11-1.236Zm-1.846-5.729,1.846,2.426,1.846-2.426,2.919.878.065-3.049,2.879-1-1.74-2.5,1.74-2.5-2.879-1-.065-3.049-2.919.878-1.846-2.426-1.846,2.426-2.919-.878-.065,3.05-2.879,1,1.74,2.5-1.74,2.5,2.879,1,.065,3.049Z" transform="translate(0 0)"/></g><g transform="translate(0 -5.163)"><g transform="translate(52.619 -20.009)"><path class="d" d="M7.276,0h27.1a7.276,7.276,0,0,1,7.276,7.276V72.589a7.276,7.276,0,0,1-7.276,7.276H7.276A7.276,7.276,0,0,1,0,72.589V7.276A7.276,7.276,0,0,1,7.276,0Z" transform="translate(36.367 6202.157)"/><path class="c" d="M6.612-1.65h27.1a8.262,8.262,0,0,1,8.262,8.262V71.925a8.262,8.262,0,0,1-8.262,8.262H6.612A8.262,8.262,0,0,1-1.65,71.925V6.612A8.262,8.262,0,0,1,6.612-1.65Zm27.1,79.866A6.3,6.3,0,0,0,40,71.925V6.612A6.3,6.3,0,0,0,33.71.322H6.612a6.3,6.3,0,0,0-6.29,6.29V71.925a6.3,6.3,0,0,0,6.29,6.29Z" transform="translate(37.031 6202.822)"/><g transform="translate(38.307 6204.07)"><path class="e" d="M203.227,249.84a3.447,3.447,0,0,1-3.475,3.4H170.9a3.447,3.447,0,0,1-3.475-3.4v-65.58a3.447,3.447,0,0,1,3.475-3.4h6.464l1.22,2.39h13.648l.961-2.39h6.553a3.447,3.447,0,0,1,3.475,3.4Z" transform="translate(-166.443 -179.877)"/><path class="c" d="M199.087,253.684H170.24a4.466,4.466,0,0,1-4.461-4.462V183.675a4.466,4.466,0,0,1,4.461-4.462H176.7a.986.986,0,0,1,.925.645l.747,2.026h12.485l.747-2.026a.986.986,0,0,1,.925-.645h6.553a4.466,4.466,0,0,1,4.461,4.462v65.548A4.466,4.466,0,0,1,199.087,253.684Zm-28.847-72.5a2.5,2.5,0,0,0-2.49,2.49v65.548a2.5,2.5,0,0,0,2.49,2.49h28.847a2.5,2.5,0,0,0,2.49-2.49V183.675a2.5,2.5,0,0,0-2.49-2.49h-5.866l-.747,2.026a.986.986,0,0,1-.925.645H177.69a.986.986,0,0,1-.925-.645l-.747-2.026Z" transform="translate(-165.779 -179.213)"/></g><path class="c" d="M2.121.322H-.664A.986.986,0,0,1-1.65-.664.986.986,0,0,1-.664-1.65H2.121a.986.986,0,0,1,.986.986A.986.986,0,0,1,2.121.322Z" transform="translate(56.463 6205.658)"/><path class="c" d="M203.919,180.308a.669.669,0,1,1-.668-.669A.669.669,0,0,1,203.919,180.308Z" transform="translate(-142.287 6024.686)"/></g><g transform="translate(-79.738 5985.701)"><g class="f" transform="translate(178.979 223.811)"><rect class="a" width="21.141" height="21.141"/><path class="g" d="M189.549,239.348a2.642,2.642,0,1,0-2.642-2.642A2.642,2.642,0,0,0,189.549,239.348Zm0-7.928a5.285,5.285,0,1,1-5.285,5.285A5.286,5.286,0,0,1,189.549,231.42Zm7.928,14.534H181.621a2.709,2.709,0,0,1-2.642-2.643V231.42a2.65,2.65,0,0,1,2.642-2.642h2.114l1.982-1.982a2.188,2.188,0,0,1,1.585-.661h4.624a2.123,2.123,0,0,1,1.454.661l1.982,1.982h2.114a2.65,2.65,0,0,1,2.643,2.642v11.891A2.65,2.65,0,0,1,197.477,245.954Z" transform="translate(-178.979 -224.814)"/></g></g></g><path class="c" d="M-56.412-6.785-59.541-1.23a58.612,58.612,0,0,1-7.945-7A20.01,20.01,0,0,1-79.439-2.777a42.667,42.667,0,0,0,8.4-8.262,19.647,19.647,0,0,0,3.727-7.312q-3.832.281-10.371.738-.141-3.445-.176-5.7l17.578-.492A24.425,24.425,0,0,1-64.99-11.848a21.334,21.334,0,0,0,4.043,3.234Q-57.994-6.715-56.412-6.785Zm34.27-14.977a18.326,18.326,0,0,1-3.9,7.8,16.673,16.673,0,0,1-6.434,4.605,24.032,24.032,0,0,0,1.916-3.709,18.043,18.043,0,0,0,1.178-3.533q-10.23.563-16.031.7l-.176-5.871Zm-6.68,16.523-3.516,3.691a73.376,73.376,0,0,1-6.574-7.277l3.234-2.777q3.164,3.164,3.27,3.234Q-30.72-6.75-28.821-5.238ZM12.973-8.754,10.336-4.465A22.1,22.1,0,0,1,5.414-8.93L7.84-11.5a18.636,18.636,0,0,0,1.793,1.23A10.433,10.433,0,0,0,12.973-8.754Zm-2.391-11.5-.07,5.168q-5.1.492-7.523.7l-.527.035q0,11.707-.211,14.309A79.022,79.022,0,0,0-5.273-6.047q2.109.035,3.129,0l-.246-8.965q-4.922-.07-8.121-.211l-.281-4.711,8.438-.141L-2.5-26.016l5.906.246-.246,5.625ZM-5.7-8.789Q-8.086-5.766-13.922-5.66q3.8-3.586,4.781-5.906ZM47.348-25.91l-1.723,7.348q-1.863-2.531-2.566-3.656l-17.473.176v2.988l-3.762-.176-.105-6.715q4.781-.07,10.371-.07Q39.052-26.016,47.348-25.91ZM45.907-8.684l-.141,3.656H39.192A9.8,9.8,0,0,1,35.817.949q-1.828-2.566-3.059-4.184l2.355.176L35.677-5.1q-6.187.141-9.668.141-2,0-3.094-.035l-.141-3.586q11.5,0,13.359-.105.141-1.336.141-1.863-3.762.105-6.785.105l-.141-9.984h4.078v2.953a13.275,13.275,0,0,0,5.414-2.812l1.934,3.3q-2.145,1.2-7.8,1.406L33-13.605l7.207-.141a41.19,41.19,0,0,1-.457,5.027ZM78.173-25.1l-.105,3.8H70.615v1.512l5.063.211L75.115-7.523q-8.156,0-14.2.176l-.281-12.27q3.691-.07,5.344-.176l.035-1.371q-3.094.141-7.98.141l-.211-4.113,7.98.035-.035-2.426,5.2.105-.281,2.531Q75.291-25.1,78.173-25.1ZM71.107-15.68l-.07-1.617q-1.266-.035-5.8.141L65.2-15.539Q66.783-15.609,71.107-15.68Zm-.07,3.234L71-13.746q-.316,0-5.555-.105l-.07,1.617Q66.713-12.3,71.037-12.445Zm0,3.094-.07-1.3-5.414.035-.035,1.336Q67.2-9.246,71.037-9.352Zm9.141,6.5q-2.355-.141-4.781-.141a6.693,6.693,0,0,0,3.023,2.5,6.029,6.029,0,0,1-2.777.7,5.173,5.173,0,0,1-4.676-2.777l-6.609.035Q63.478.668,57.783.387a8.511,8.511,0,0,0,2.566-3.2q-3.2,0-4.816.035L55.5-6.117q2.848.035,6.293.035,7.734,0,18.387-.211ZM-56.9,15.7a66.857,66.857,0,0,1-.316,8.4L-69,24.172l-.316-8.473q4.184.07,7.277.07T-56.9,15.7Zm-4.043,2.355-3.691.07-.141,1.2q.457.035,1.371.035.949,0,2.355-.035Zm0,3.129-3.937.07q0,.246-.035,1.3l3.9-.035A7.8,7.8,0,0,0-60.947,21.184Zm8.578,19.688-2.531,3.2a32.22,32.22,0,0,1-3.41-3.621q-1.02,1.336-4.289,1.9a11.722,11.722,0,0,0,3.129-4.184l-1.477-2.145,1.336-1.336,1.406,1.723a11.268,11.268,0,0,0,.984-3.3q-2.742.246-4.148.281l.035-3.129,7.242-.07q-.176,5.66-2.18,8.191A16.793,16.793,0,0,0-52.369,40.871Zm-1.2-15.469-.211,3.34q-7.84.176-9.7.316-.246,6.574-.141,7.559a18.81,18.81,0,0,0,2.039-.492q-.422.7-.809,1.441a6.685,6.685,0,0,1-1.23,1.2l-.07,4.746h-3.3l.141-3.023a52.715,52.715,0,0,1-6.293.984l-.211-2.918,1.934-.281q.211-7.383.105-9.809h-2.074V25.508Zm-12.867,5.484V29.516l-1.617.035q0,.211-.035,1.266Zm-.246,2.883V32.645l-1.441.035.035,1.2Zm.07,2.285-1.477.07-.035,1.3a12.666,12.666,0,0,0,1.441-.176Zm-7.137-5.484a7.1,7.1,0,0,1-3.2,3.9,82.115,82.115,0,0,1-.105,8.227,43.64,43.64,0,0,0-4.43-3.832l2-.07q-.035-2.742-.07-3.375a27.665,27.665,0,0,1-3.41,1.3l-.773-2.953,1.828-.6,2.25-.773.105-4.746q-1.723.176-3.2.387l-.105-3.8q2.039-.105,2.813-.105l-.105-4.148,3.832.07-.141,4.078,2.355-.105-.035,3.656q-1.477.035-2.777.105l-.035,3.9A22.02,22.02,0,0,0-73.744,30.57Zm45.977-9.07a36.721,36.721,0,0,1,.633,6.469q0,12.34-10.828,15.363a21.14,21.14,0,0,0,6.117-14.766,38.539,38.539,0,0,0-.7-6.785Zm-7.559,7.1q-1.793,2.355-4.43,6.574-2.848-3.8-3.234-12.094l4.5-.281a29.517,29.517,0,0,0,.387,7.031Zm47.138-5.977v4.711Q2.953,27.441,0,27.371A21.889,21.889,0,0,1-.281,30.5l8.367.492q.035.844.035,1.723a46.662,46.662,0,0,1-.387,5.766,31.366,31.366,0,0,1-1.371,6.5A67.415,67.415,0,0,0,1.2,40.238l2.566.07a50.308,50.308,0,0,0,.527-5.449l-5.59-.492a9.539,9.539,0,0,1-3.023,5.309A11.167,11.167,0,0,1-9.7,42.594q5.414-7.312,5.414-14.941-5.133.035-7.8.176V22.941l8.508.105-.527-5.309,5.414.07L.844,22.871ZM47.63,26.949l-.035,3.094q-4.746-.176-8.965-.176-5.2,0-8.367.246l-.07-2.742,4.219-.105.105-1.336-2.672-.07v-2.25q2,0,2.777-.07l.07-1.477a33.093,33.093,0,0,0-3.34-.035l-.105-2.883h3.41l-.281-2.18,3.551-.141q.035,1.547,0,2.5h2.5V16.613l3.34.141L43.727,19q2.988,0,3.691-.035l-.105,2.953-3.375.176v.879l2.883.07-.105,2.637q-1.336-.035-2.707,0v1.16Zm-7.594-4.992-2.215-.035v1.23a8.481,8.481,0,0,1,2.18,0Zm.07,4.887v-1.2l-1.863.035v1.125Q38.876,26.809,40.106,26.844ZM26.22,21.957a16.422,16.422,0,0,1-3.9.809l-.527-3.9,4.148-.316ZM49.352,37.215l-.246,3.727a25.221,25.221,0,0,0-3.2-.281,45,45,0,0,1-.141,4.922q-3.691-2.812-4.359-3.2l1.9.035q.035-.879,0-1.547l-8.508.141q-.035,2.145,0,3.059L31.739,44a21.1,21.1,0,0,0,.141-2.988,14.457,14.457,0,0,0-2.5.07q-.035-.949-.035-1.687,0-.773.035-1.3,2,0,2.918-.07l.105-6.223q4.852-.176,5.836-.141l-.105-1.2,2.988.07v1.477q3.9.176,5.063.316,0,4.113-.07,4.957Zm-5.871-2.074V34.086H41.618v1.055Zm-.07,3.2-.105-1.055-1.617.105.035,1.02A5.724,5.724,0,0,0,43.411,38.34Zm-5.1-4.5H36.52v1.3q.7,0,1.723-.035Zm-.422,3.375-1.512.035-.07,1.441a5.158,5.158,0,0,0,1.547-.246ZM28.434,24.172l-.07,3.023L19.4,26.984l-.105-2.566Zm-1.652,4.465-.07,2.5q-4.008-.281-5.484-.211l-.07-2.145Zm.07,3.621-.281,2.777q-3.129-.176-4.465-.176a7.726,7.726,0,0,0-.914.035l-.211-2.637Zm.879,4.395-.352,7.137q-3.445-.176-6.328-.387a22.834,22.834,0,0,1-.246-6.715Q25.762,36.617,27.731,36.652ZM25.305,40.59V39.43l-1.723-.07v1.3A6.285,6.285,0,0,0,25.305,40.59Zm55.259-11.6L79.439,32.4a6.955,6.955,0,0,1-3.762-2.285,5.978,5.978,0,0,1-4.324,1.617,18.066,18.066,0,0,0,3.2-6.5l3.621.633a11.143,11.143,0,0,1-1.477,2.5A9.592,9.592,0,0,0,80.564,28.988Zm-.914-9.246-.176,4.148-9.141.07q-7,0-9.633-.211a24.1,24.1,0,0,1-1.3,7.629,9.84,9.84,0,0,1-5.379,5.836q1.23-2.109,2.039-7.383a50.516,50.516,0,0,0,.7-7.8q0-1.09-.07-1.934l10.477-.352-.422-3.375,4.676-.141-.141,3.656ZM69.7,29.094l-2.285,3.48a14.075,14.075,0,0,1-2.32-2.883,9.123,9.123,0,0,1-4.957,2.566,18.953,18.953,0,0,0,3.445-7.172l3.375.668a4.661,4.661,0,0,1-.914,1.934A6.9,6.9,0,0,0,69.7,29.094Zm8.156,11.531-.562,3.867q-11.918,0-15.363-.352l-.141-3.023q4.922-.738,6.152-.773l-.105-1.3q-1.9.035-4.887.035l-.176-3.937,5.062.035-.07-2.25,4.605.07v2.109l4.148-.246-.141,4.078q-3.234-.211-4.57-.211L71.7,40.273Q76.38,40.484,77.857,40.625Z" transform="translate(228.025 6209)"/></g><path class="c" d="M0,0H287a0,0,0,0,1,0,0V4a5,5,0,0,1-5,5H5A5,5,0,0,1,0,4V0A0,0,0,0,1,0,0Z" transform="translate(56 6274)"/><g transform="translate(185.262 5866.65)"><path class="c" d="M115.786,403.861c0,1.257.207,2.636,3.4,2.636h17.873c1.783,0,2.629-.93,2.629-2.345v-2.668h2.391v-3.953H130.4V396.1h-5.336v1.436H113.4v3.953h2.387Z"/><path class="b" d="M151.243,401.393H162.2v2.054h-1.671v-.035h-9.282Z" transform="translate(-20.839 -2.917)"/><path class="b" d="M114.892,403.447v-2.054h11v2.018h-9.282v.035Z" transform="translate(-0.822 -2.917)"/></g></g></svg>