<svg xmlns="http://www.w3.org/2000/svg" width="270.315" height="33.008" viewBox="0 0 270.315 33.008"><defs><style>.a{fill:#3d3d3d;}</style></defs><path class="a" d="M-103.516-15.7a22.735,22.735,0,0,1-5.9.742,56.568,56.568,0,0,1-6.445-.508v-4.922a20.376,20.376,0,0,1-3.516-.781q.938-.313,3.594-1.367l-.352-6.914,5,.078q-.156,2.031-.469,5.156,2.031-.937,2.539-1.211a13.736,13.736,0,0,0,2.3-1.562l2.148,3.008a23.833,23.833,0,0,1-6.523,3.008v2.344a44.037,44.037,0,0,0,4.727-.273,7.087,7.087,0,0,0,2.031-1.719Zm-18.633-10.312-.078,3.555-4.219-.078-.156,3.2q.547-.078,4.18-1.172a13.261,13.261,0,0,1-4.18,4.18,18.507,18.507,0,0,1-8.242,3.047l-1.094-3.4a28.829,28.829,0,0,0,4.414-1.289l-.586-11.211,5.586-.234-.117,3.789A38.377,38.377,0,0,0-122.148-26.016ZM-111.836,0a59.321,59.321,0,0,1-8.4.586,54.048,54.048,0,0,1-7.5-.469q0-10.078-.117-12.3,2.539-.2,4.766-.312,2.109-2.7,3.086-4.141a42.7,42.7,0,0,0,4.063,2.813,12.117,12.117,0,0,1-3.242,1.563l7.266-.039q-.039,3.086-.039,5.586Q-111.953-2.578-111.836,0Zm-5.937-9.375-4.258-.078.039,2.461q1.016,0,4.141-.156Zm.313,6.953-.078-1.953h-4.18l.078,2.266A15.253,15.253,0,0,0-117.461-2.422Zm44.086-16.6q-3.711.742-5.937,1.367,1.328,5.586,2.344,8.984-6.016-1.875-8.32-2.812,1.055-.2,3.2-.547L-84-16.445l-11.641,2.07-1.523-5.508q3.008-.469,6.016-.977,3.711-.625,5.977-1.211l-2.07-4.961,5.977-1.367.43,6.016,4.3-.7q1.953-.352,2.617-.508ZM-83.687-5.9l-.273,5.156q-8.672.313-10.781-6.641l4.063-2.227q.625,3.828,5.078,3.828A17.47,17.47,0,0,0-83.687-5.9Zm40.555,1.8L-45.75.273a45.359,45.359,0,0,0-4.922-3.828,5.753,5.753,0,0,1-5.156,2.539A4.515,4.515,0,0,1-60.672-4.57a5.031,5.031,0,0,1-.117-1.055A4.011,4.011,0,0,1-59.48-8.633a4.639,4.639,0,0,1,3.34-1.25,6.067,6.067,0,0,1,1.992.352q-.078-1.875-.078-2.539l-7.656-.352-.039-3.555,7.461-.469-.156-2.3h-6.992l-.273-5.43,7.109-.078-1.133-4.531,5.781-.469.156,5.039,5.43.078v5q-1.563.117-5.234.547.156,1.406.2,2.227l5.117.234.156,3.789a41.3,41.3,0,0,1-5.039.508,25.674,25.674,0,0,1-.312,4.3A52.664,52.664,0,0,1-43.133-4.1ZM-54.422-6.25a2.06,2.06,0,0,0-1.8-.352,1.023,1.023,0,0,0-.82,1.094Q-57-4.453-55.594-4.453a3.11,3.11,0,0,0,1.25-.254q.586-.254.586-.684T-54.422-6.25Zm35.633,3.086q5.664-4.57,5.742-9.8a7.859,7.859,0,0,0-.859-3.906A4.752,4.752,0,0,0-16.8-19.3q-2.3,7.578-10.586,14.375A8.717,8.717,0,0,1-30.742-9.1a10.8,10.8,0,0,1-.937-5,10.115,10.115,0,0,1,3.945-7.656,12.034,12.034,0,0,1,8.2-2.383,11.466,11.466,0,0,1,8.008,3.32A10.376,10.376,0,0,1-8.672-13.4a9.621,9.621,0,0,1-2.812,7.227A11.791,11.791,0,0,1-18.789-3.164Zm-1.875-16.719A5.207,5.207,0,0,0-21.758-20a5.574,5.574,0,0,0-3.926,1.543,5.764,5.764,0,0,0-1.895,3.691,5.512,5.512,0,0,0,.859,3.984A29.615,29.615,0,0,0-23.125-15.2,18.668,18.668,0,0,0-20.664-19.883Zm49.227,1.719a22.89,22.89,0,0,1-5.312.781,22.769,22.769,0,0,1-4.687-.547q.039-.7.117-6.523l-3.594-.234a5.221,5.221,0,0,1-1.172,3.594,7.931,7.931,0,0,1-4.883,2.969Q11.3-20.7,11.3-25.625a12.276,12.276,0,0,0-.469-3.594q1.758.156,5.508.156,2.7,0,6.406-.078,0,.742-.273,8.125a9.925,9.925,0,0,0,1.133.078,2.625,2.625,0,0,0,1.367-.273l.117-2.7ZM27.391-4.727,24.656,1.25,18.016-3.2Q15.555-.977,10.047-.625q3.945-3.125,4.961-5.2l-2.383-2.3,1.133-2.227q1.172.938,3.4,2.383a12.1,12.1,0,0,0,1.289-3.477q-5,.273-7.109.234l-.156-4.648q7.539.273,11.875.2A17.121,17.121,0,0,1,20.4-6.6,12.317,12.317,0,0,0,26.57-4.648,3.814,3.814,0,0,0,27.391-4.727ZM7.781-12.969a9.822,9.822,0,0,1-.9,1.6A11.774,11.774,0,0,1,4.031-8.75Q3.992-4.18,3.68-.43-.383-4.3-1.047-4.8H.945l.117-2.93Q-1.75-7.461-3-7.422l.039-3.75q1.328-.039,3.359-.2l.156-5.625q-2.734.352-3.633.391l-.156-5,3.711-.2L.516-26.68h4.1l-.469,4.531L7-22.187v4.609l-2.969.43-.078,4.883Q5.711-12.539,7.781-12.969Zm56-11.367q-3.75.078-7.07.078-6.836,0-10.508-.312l-.273-3.2q5.586-.078,6.563-.2l-.312-3.672,5.313.039-.469,3.242q3.2,0,6.758-.078Zm-3.906,1.523-.312,6.563q-5.313.2-9.1.2-.039-4.609-.117-6.68Zm-3.516,4.141a6.348,6.348,0,0,0,0-1.406l-2.5.117q0,.234.039,1.289.547.039,1.172.039T56.359-18.672Zm7.5,4.3q.156,6.523-.469,15.742Q61.4-.156,57.727-2.852a24.793,24.793,0,0,0,2.891-.156q-.508-5.82-.469-7.93l-11.055-.234q.156,6.6.156,10.117l-3.828.078q.391-10.469.313-13.2ZM57.375-3.906a9.466,9.466,0,0,1-2.891.391,14.923,14.923,0,0,1-2.773-.273l-.2-4.961L57.3-8.867ZM55.344-5.352l-.117-1.211-1.211.078v1.172A7.55,7.55,0,0,0,55.344-5.352ZM44.758-12.891A2.919,2.919,0,0,1,41.594-10.7a6.567,6.567,0,0,1-1.211-.117l.234,9.883H36.359q.391-6.641.352-8.4a8.682,8.682,0,0,1-6.367,1.875q1.25-1.055,3.672-3.164A7.855,7.855,0,0,0,36.633-14.3v-1.25l-4.922.117-.078-3.555q3.359.078,5.2-.039l.078-3.164a13.54,13.54,0,0,1-2.3.2,11.862,11.862,0,0,1-3.594-.508q7.656-3.437,9.844-5.391l3.438,4.336q-3.008.9-3.828,1.055v3.633q2.031-.156,3.867-.234L44.211-15.2l-3.4-.234.039,1.641A8.48,8.48,0,0,0,44.758-12.891Zm54.711-12.07-.2,4.492q-5.938.234-7.578.2l.039,2.969q4.063-.117,6.172-.273l-.039,4.336q-4.414-.156-6.367-.117l.2,3.008q5.312.039,6.758-.039l-.117,4.3H91.578L91.617.039,86.813,0l.273-20.2-2.227-.039a8.659,8.659,0,0,1-6.328,2.5,39.957,39.957,0,0,0,4.961-7.344,25.409,25.409,0,0,0,2.227-5.469l5,2.344A14.315,14.315,0,0,1,88.3-24.648ZM79.547-23.477a21.689,21.689,0,0,1-4.453,4.023Q76.148-4.492,76.148-2.109L71.7-1.992l.43-16.641a10.377,10.377,0,0,1-4.453.9,14.8,14.8,0,0,1-1.836-.117q7.422-5.547,9.453-9.492ZM127.656-15.2q-10-.312-14.766-.2-.273-4.687-.273-8.4,0-2.734.156-4.961,10.859,0,14.844.156Zm-4.414-4.375-.156-4.258a44.679,44.679,0,0,0-5.2-.117l-.234,4.414q1.367.078,2.617.078Q121.8-19.453,123.242-19.57ZM134.375-.977q-3.75.156-6.406.156a27.433,27.433,0,0,1-5.352-.352q-.078-8.75.078-10.977l11.016-.039Q134.414-4.844,134.375-.977ZM130.273-5q0,.508-.117-3.086l-3.2-.078V-4.8q.508.039,1.016.039A11.733,11.733,0,0,0,130.273-5ZM117.227-.977a72.507,72.507,0,0,1-11.211-.352l.156-10.469q2.969-.078,5.273-.078,3.242,0,5.2.156Zm-3.711-4.141q0-.508-.078-2.5l-3.672-.2-.078,3.047A10.9,10.9,0,0,0,113.516-5.117Z" transform="translate(135.938 31.641)"/></svg>