<svg xmlns="http://www.w3.org/2000/svg" xmlns:xlink="http://www.w3.org/1999/xlink" width="658.201" height="260" viewBox="0 0 658.201 260"><defs><style>.a{fill:none;}.b{fill:#efe596;}.c{fill:#3d3d3d;}.d{fill:#00b917;}.e{fill:#fff;}.e,.g{fill-rule:evenodd;}.f{clip-path:url(#a);}.g{fill:#1ba715;}</style><clipPath id="a"><rect class="a" width="37.041" height="37.041"/></clipPath></defs><g transform="translate(-311.898 -4733)"><g transform="translate(333.091 -1401.686)"><rect class="b" width="481" height="260" rx="22" transform="translate(67.908 6134.686)"/><path class="c" d="M21.062,7.009A14.045,14.045,0,0,0,7.021,21.026V252.31H473.9V21.026A14.045,14.045,0,0,0,459.861,7.009H21.062m0-7.009h438.8a21.044,21.044,0,0,1,21.062,21.026V259.319H0V21.026A21.044,21.044,0,0,1,21.062,0Z" transform="translate(68.323 6135.026)"/><path class="c" d="M-102.318-2.193A24.935,24.935,0,0,1-102.49.8a10.565,10.565,0,0,1-.7,2.723,8.758,8.758,0,0,1-1.659,2.551,8.153,8.153,0,0,1-2.09,1.656A14.2,14.2,0,0,1-109.4,8.821a6.206,6.206,0,0,1-.664.184q-.467.11-.934.209a3.748,3.748,0,0,1-.664.1.7.7,0,0,1-.234-.049.176.176,0,0,1-.135-.172.219.219,0,0,1,.2-.221q.983-.466,1.844-.957a8.271,8.271,0,0,0,1.647-1.251,9.479,9.479,0,0,0,2.212-3.25,10,10,0,0,0,.762-3.839v-3.9h3.048Zm7.67-5.348a8.482,8.482,0,0,1-.59,3.091,8.421,8.421,0,0,1-1.647,2.674A6.97,6.97,0,0,1-98.7-.317a10.764,10.764,0,0,1-2.188.92l-.442.1a2.039,2.039,0,0,1-.443.049q-.246,0-.246-.221a.233.233,0,0,1,.1-.2,1.292,1.292,0,0,1,.2-.123,10.967,10.967,0,0,0,.885-.724,5.79,5.79,0,0,0,.762-.846,8.688,8.688,0,0,0,1.266-2.355,8.031,8.031,0,0,0,.529-2.6h-13.472V-7.541Zm26.353,3.557a1.144,1.144,0,0,1-.627,1.165,3.286,3.286,0,0,1-1.364.282h-6A23.053,23.053,0,0,1-76.628.517a10.664,10.664,0,0,1-.922,2.809,8.331,8.331,0,0,1-1.881,2.453A9.6,9.6,0,0,1-81.459,7.2a17.32,17.32,0,0,1-2.3,1.006q-.221.074-.713.209t-.983.258a3.36,3.36,0,0,1-.713.123.663.663,0,0,1-.209-.037.17.17,0,0,1-.111-.184.2.2,0,0,1,.111-.184.87.87,0,0,1,.209-.086,7.969,7.969,0,0,0,1.438-.675q.676-.4,1.315-.871a9.3,9.3,0,0,0,2.274-2.343,9.109,9.109,0,0,0,1.241-3,16.6,16.6,0,0,0,.492-3.949h-8.112V-3.714h8.162q0-1.3-.025-2.6t-.025-2.576h3.122v5.176h4.671a2.374,2.374,0,0,1,.467-1.276,1.382,1.382,0,0,1,1.18-.564,1.733,1.733,0,0,1,1.155.442A1.419,1.419,0,0,1-68.295-3.984Zm23.059-3.8a16.871,16.871,0,0,1-.713,2.895,29.021,29.021,0,0,1-1.192,3A18.977,18.977,0,0,1-48.555.677a21.1,21.1,0,0,1-4.179,4.7,14.869,14.869,0,0,1-5.58,2.882q-.664.172-1.34.294t-1.438.221l-.639.061q-.369.037-.615.037a2.5,2.5,0,0,1-.529-.061q-.283-.061-.283-.209a.2.2,0,0,1,.135-.184,1.131,1.131,0,0,1,.283-.086q.27-.074.529-.135t.5-.135q.688-.2,1.364-.429a9.566,9.566,0,0,0,1.291-.552,18.708,18.708,0,0,0,2.458-1.5,14.1,14.1,0,0,0,2.188-1.889A20.251,20.251,0,0,0-52.193.9a2.392,2.392,0,0,0-.5-.221Q-53.053.554-53.25.5q-.172-.049-.529-.135T-54.516.2a5.841,5.841,0,0,0-.6-.11q-.246-.049-.762-.1t-.86-.074a.864.864,0,0,1-.381-.11.25.25,0,0,1-.061-.184.818.818,0,0,1,.209-.392q.209-.27.43-.589.295-.392.627-.859t.5-.687a6.971,6.971,0,0,1,.824.4q.406.233.9.576.369.221.922.626A6.223,6.223,0,0,1-51.9-.55a1.486,1.486,0,0,1,.344.417,23.418,23.418,0,0,0,1.573-3.14A26.721,26.721,0,0,0-48.874-6.56h-5.974A14.433,14.433,0,0,1-56.2-4.094a14.16,14.16,0,0,1-1.917,2.281A9.864,9.864,0,0,1-60.5-.108a1.92,1.92,0,0,1-.443.172,1.763,1.763,0,0,1-.442.074A.5.5,0,0,1-61.559.1a.135.135,0,0,1-.1-.135.3.3,0,0,1,.061-.2,1.727,1.727,0,0,0,.111-.147A21.314,21.314,0,0,0-60.121-2.3a25.717,25.717,0,0,0,1.266-2.245q.32-.613.6-1.276t.479-1.251q.1-.27.234-.748l.27-.957q.135-.478.184-.748l3.245.417a2.675,2.675,0,0,1-.184.638q-.135.319-.307.687ZM-31.248-5.26a2.383,2.383,0,0,1-.332.981A10.365,10.365,0,0,1-32.4-2.966a7.407,7.407,0,0,1-1.008,1.141,1.451,1.451,0,0,1-.86.466.152.152,0,0,1-.172-.172,2.193,2.193,0,0,1,.221-.5q.221-.429.529-.993t.529-1.043a2.067,2.067,0,0,0,.221-.626.42.42,0,0,0-.025-.172q-.025-.049-.147-.049a2.928,2.928,0,0,0-.91.184q-.541.184-1.008.368a2.19,2.19,0,0,1-.639.184.717.717,0,0,1-.172-.037q-.123-.037-.123-.135a2.351,2.351,0,0,1,.148-.613,8.654,8.654,0,0,1,.332-.846,1.531,1.531,0,0,1,.307-.5,1.2,1.2,0,0,1,.688-.27,7.059,7.059,0,0,1,.762-.049,6.4,6.4,0,0,1,1.032.1,2.511,2.511,0,0,1,1.02.392A1,1,0,0,1-31.248-5.26Zm11.136,8.144a7.362,7.362,0,0,1-.787,3.5,5.543,5.543,0,0,1-2.237,2.294,7.06,7.06,0,0,1-3.491.809,5.8,5.8,0,0,1-3.884-1.251A4.616,4.616,0,0,1-31.986,4.5a12.038,12.038,0,0,1,.1-1.545q.1-.76.246-1.521-.32.025-.639.037t-.664.012h-1.561a10.622,10.622,0,0,1-1.536-.1,4.241,4.241,0,0,1-.442-.11q-.3-.086-.295-.307a2.217,2.217,0,0,1,.1-.527A6.789,6.789,0,0,1-36.423-.3a3.458,3.458,0,0,1,.356-.675q.2-.282.393-.282a.24.24,0,0,1,.172.049,1.437,1.437,0,0,0,.148.123,1.352,1.352,0,0,0,.393.233q.221.086.418.184a6.893,6.893,0,0,0,1.536.38q.922.135,1.61.184.418-2.208.946-4.4t1.02-4.379l1.291-.1q.651-.049,1.266-.049a.736.736,0,0,1,.307.061.253.253,0,0,1,.135.258,4.285,4.285,0,0,1-.2.8q-.2.65-.5,1.545l-.627,1.827q-.32.932-.578,1.668t-.356,1.006q-.172.466-.307.908t-.258.908a13.663,13.663,0,0,0,2.163-.417Q-27-.5-26.6-.636t.762-.258q.369-.123.393-.123a.043.043,0,0,1,.049.049,1.013,1.013,0,0,1-.209.589,3.81,3.81,0,0,1-.406.491A3.888,3.888,0,0,1-27.7.971q-.946.221-1.881.343-.172.736-.3,1.472a8.92,8.92,0,0,0-.123,1.472,3.613,3.613,0,0,0,.455,1.778A3.638,3.638,0,0,0-28.3,7.361a3.216,3.216,0,0,0,1.77.5,3.213,3.213,0,0,0,1.831-.5A3.9,3.9,0,0,0-23.48,6.049,6.125,6.125,0,0,0-22.8,4.283a8.725,8.725,0,0,0,.209-1.864A10.618,10.618,0,0,0-22.718.775,6.622,6.622,0,0,0-23.16-.771a5.771,5.771,0,0,0-.221-.564q-.123-.27-.27-.54a1.161,1.161,0,0,1-.172-.319.3.3,0,0,1-.1-.221q0-.049.1-.049a1.373,1.373,0,0,1,.59.172q.344.172.541.294a4.538,4.538,0,0,1,1.34,1.288,7.218,7.218,0,0,1,.91,1.766A5.5,5.5,0,0,1-20.112,2.884ZM8.6.848a1.193,1.193,0,0,1-.492,1.067,2.019,2.019,0,0,1-1.155.331H-1.454V7.03A7.675,7.675,0,0,1-1.712,9.1,2.645,2.645,0,0,1-2.67,10.55a3.377,3.377,0,0,1-2.053.527,3.745,3.745,0,0,1-1.61-.4,9.312,9.312,0,0,1-1.61-.981Q-8.706,9.115-9.271,8.6q-.049-.049-.172-.159a.3.3,0,0,1-.123-.209q0-.147.2-.147a.343.343,0,0,1,.148.025,11.461,11.461,0,0,0,1.573.466,7.586,7.586,0,0,0,1.622.172,1.181,1.181,0,0,0,.91-.343,1.867,1.867,0,0,0,.442-.846,4.078,4.078,0,0,0,.123-.969V2.247H-14.04V1.094H-4.6V-3h-7.1V-4.18h7.1V-7.786q-1.032.1-2.053.135t-2.053.037q-.688,0-1.352-.025t-1.352-.074a3.966,3.966,0,0,1-.467-.061q-.369-.061-.369-.209t.086-.184a1.218,1.218,0,0,1,.184-.061q.565-.123,1.119-.2T-9.763-8.6A56.392,56.392,0,0,0-4.145-9.859q2.766-.773,5.445-1.8.172.1.6.4t.91.662a8.468,8.468,0,0,1,.824.687q.344.331.344.527a.314.314,0,0,1-.086.233,1.077,1.077,0,0,1-.209.159,5.059,5.059,0,0,1-.9.258q-.7.159-1.573.307t-1.622.258q-.75.11-1.045.135V-4.18H2.922a1.836,1.836,0,0,1,.492-1.2A1.5,1.5,0,0,1,4.569-5.9,1.677,1.677,0,0,1,5.7-5.444a1.4,1.4,0,0,1,.516,1.092A1.1,1.1,0,0,1,5.676-3.3,2.478,2.478,0,0,1,4.471-3H-1.454v4.1h6.76V.848A1.374,1.374,0,0,1,5.786-.219,1.594,1.594,0,0,1,6.88-.648a1.95,1.95,0,0,1,1.192.392A1.3,1.3,0,0,1,8.6.848Zm5.925,1.3v-2.5h-.934v2.5Zm0-3.41V-3.739h-.934v2.478Zm3.712-2.478H17.205v2.208a1.911,1.911,0,0,1,.6.086q.258.086.258.527a.457.457,0,0,1-.283.478,1.576,1.576,0,0,1-.578.11V2.124A.978.978,0,0,0,18,1.6a2.038,2.038,0,0,0,.234-.944ZM33.258,8.919a.93.93,0,0,1-.479.9,2.173,2.173,0,0,1-1.045.258H20.13V8.943h4.843V5.166h-2.8V4.111h2.8V1.192h2.8V4.111h1.155a1.268,1.268,0,0,1,.455-.846,1.33,1.33,0,0,1,.9-.356,1.422,1.422,0,0,1,.922.356,1.09,1.09,0,0,1,.43.871.933.933,0,0,1-.332.748,1.228,1.228,0,0,1-.824.282h-2.7V8.943h2.68a1.126,1.126,0,0,1,.455-.908,1.548,1.548,0,0,1,1-.368,1.4,1.4,0,0,1,.922.368A1.125,1.125,0,0,1,33.258,8.919ZM34.216.407a.932.932,0,0,1-.467.834,1.777,1.777,0,0,1-.959.294,7.156,7.156,0,0,1-3.466-.9,15.211,15.211,0,0,1-2.95-2.073A12.722,12.722,0,0,1,23.707.162a15.924,15.924,0,0,1-2.962.981,1.987,1.987,0,0,1-.725,1.288,2.877,2.877,0,0,1-1.3.515,13.312,13.312,0,0,1-1.512.135V5.166h1.622a1.167,1.167,0,0,1,.393-.883,1.291,1.291,0,0,1,.91-.368,1.421,1.421,0,0,1,.9.343,1.013,1.013,0,0,1,.43.809,1.027,1.027,0,0,1-.381.846,1.388,1.388,0,0,1-.9.307H17.205v4.464h-2.68V6.22h-4.4V5.166h4.4V3.081H11.108V-4.7h3.417V-6.78H10.691v-1.1h3.835v-3.287h2.68v3.287H18.36a1.236,1.236,0,0,1,.418-.9,1.315,1.315,0,0,1,.91-.356,1.215,1.215,0,0,1,.848.356,1.119,1.119,0,0,1,.381.846,1.106,1.106,0,0,1-.344.809,1.139,1.139,0,0,1-.836.343H17.205V-4.7h3.614V.333a15.179,15.179,0,0,0,2.139-1.46A16.328,16.328,0,0,0,24.8-2.88q-.787-.834-1.536-1.729T21.851-6.437L24.31-8.252q.492.908.983,1.778a19.849,19.849,0,0,0,1.082,1.7q.541-.809,1.02-1.693a10.335,10.335,0,0,0,.774-1.815H21.556v-1.1H31.807a5.877,5.877,0,0,1-.344,1.754A8.223,8.223,0,0,1,30.627-5.9a17.085,17.085,0,0,1-1.2,1.668A10.522,10.522,0,0,1,28-2.831a23.185,23.185,0,0,0,1.745,1.7A11.978,11.978,0,0,0,31.709.309a1.622,1.622,0,0,1,.442-.8,1.191,1.191,0,0,1,.86-.307,1.159,1.159,0,0,1,.848.356A1.155,1.155,0,0,1,34.216.407ZM44.861,4.626a.2.2,0,0,1-.012.061.271.271,0,0,0-.012.086,6.8,6.8,0,0,1-.725,1.693,4.79,4.79,0,0,1-1.254,1.423,2.767,2.767,0,0,1-1.709.564A1.89,1.89,0,0,1,39.834,8a2.921,2.921,0,0,1-.774-1.19,7.328,7.328,0,0,1-.381-1.582q-.111-.846-.135-1.631t-.025-1.325q0-4.759.369-9.42h2.876q-.246,2.527-.406,5.065t-.16,5.09q0,.245.012.822a10.118,10.118,0,0,0,.1,1.19A3.651,3.651,0,0,0,41.6,6.073a.642.642,0,0,0,.578.442,1.348,1.348,0,0,0,.811-.319,5.525,5.525,0,0,0,.787-.736q.369-.417.627-.736t.332-.319a.1.1,0,0,1,.1.086A.525.525,0,0,1,44.861,4.626Zm12.759.2a.876.876,0,0,1-.32.564q-.32.319-.492.466a5.977,5.977,0,0,1-2.1,1.067,8.2,8.2,0,0,1-2.348.38,6.9,6.9,0,0,1-2.7-.527A5.048,5.048,0,0,1,47.59,5.2a4.837,4.837,0,0,1-.959-2.563l2.458-.711A4.5,4.5,0,0,0,50.134,4.54a3.152,3.152,0,0,0,2.544,1.092A13.311,13.311,0,0,0,54.559,5.5a11.108,11.108,0,0,0,1.856-.429q.1-.049.332-.135l.467-.172a1.354,1.354,0,0,1,.283-.086Q57.62,4.675,57.62,4.822ZM55.505-5.456A2.481,2.481,0,0,1,55.2-4.3a4.951,4.951,0,0,1-.762,1.079,7.543,7.543,0,0,1-.9.834q-.172.123-.467.307a1.016,1.016,0,0,1-.516.184.152.152,0,0,1-.172-.172,1.677,1.677,0,0,1,.074-.454l.123-.429q.049-.319.135-.662a2.723,2.723,0,0,0,.086-.662q0-.564-.344-.675a2.665,2.665,0,0,0-.811-.11q-1.106,0-2.225.1T47.2-4.744V-6.094q.811-.049,1.622-.074l1.622-.049q.27-.025.541-.037t.516-.012q.246,0,.885.012t1.364.074a5.415,5.415,0,0,1,1.241.233Q55.505-5.775,55.505-5.456Zm10.177-2.33H63.741v5.029h.221a1.107,1.107,0,0,1,.3-.319A.661.661,0,0,1,64.65-3.2a.724.724,0,0,1,.492.2.6.6,0,0,1,.221.466q0,.491-.258.638a1.166,1.166,0,0,1-.627.135q-.369-.012-.737-.012V4.307h.442a1.156,1.156,0,0,0,.91-.478,2.236,2.236,0,0,0,.492-.944,3.445,3.445,0,0,0,.086-.65q.012-.331.012-.65Zm6.564,1.5V.75h1.6q.123-1.03.147-2.061t.025-2.061q0-.736-.012-1.46t.012-1.46Zm6.416,5.3q0-1.325-.012-2.649T78.638-6.29H76.819q-.025,1.766-.074,3.532A31.318,31.318,0,0,1,76.45.75h1.795A2.436,2.436,0,0,0,78.577-.1,4.8,4.8,0,0,0,78.663-.991Zm5.63,11.063a.975.975,0,0,1-.393.785,1.306,1.306,0,0,1-.836.319,2.476,2.476,0,0,1-.43-.037q-.209-.037-.406-.086a7.159,7.159,0,0,1-2-.969,14.051,14.051,0,0,1-1.905-1.558,19.49,19.49,0,0,1-1.672-1.84,18.4,18.4,0,0,1-1.3-1.84,9.738,9.738,0,0,1-2.864,3.41,13.267,13.267,0,0,1-3.995,2.036q-.639.2-1.34.392a5.131,5.131,0,0,1-1.389.2.2.2,0,0,1-.221-.221q0-.172.295-.245l.332-.135q.209-.086.283-.11A17.681,17.681,0,0,0,69.69,8.134a11.958,11.958,0,0,0,2.581-2.8,8.953,8.953,0,0,0,1.377-3.532H68.215a3.386,3.386,0,0,1-1.057,2.76,4.551,4.551,0,0,1-2.9.822H61.209v-14.2h7.006V.75H69.69V-7.418h4.3q-.025-1.006-.049-2.036t-.025-2.036h2.95v2.036q0,1.03-.025,2.036h4.671V-1.7a6.632,6.632,0,0,1-.135,1.276,2.843,2.843,0,0,1-.5,1.177h.86A1.091,1.091,0,0,1,82.141-.1a1.3,1.3,0,0,1,.873-.356,1.166,1.166,0,0,1,.811.343A1.072,1.072,0,0,1,84.194.7a.892.892,0,0,1-.455.859,2.015,2.015,0,0,1-.971.245H76.327q-.049.294-.111.589a4.081,4.081,0,0,1-.16.564l1.4-.638a13.5,13.5,0,0,0,.762,1.9,21.041,21.041,0,0,0,1.131,2.036,19.687,19.687,0,0,0,1.352,1.9A16.388,16.388,0,0,0,82.08,9.679a1.3,1.3,0,0,1,.467-.54,1.151,1.151,0,0,1,.664-.245A.97.97,0,0,1,84,9.25,1.25,1.25,0,0,1,84.292,10.072ZM107.916,4.6a1.047,1.047,0,0,1-.074.307q-.074.209-.172.429-.1.2-.184.392t-.135.294a8.088,8.088,0,0,1-.885,1.374A8.672,8.672,0,0,1,103.86,9.52a7.383,7.383,0,0,1-3.515.8,7.91,7.91,0,0,1-1.77-.209,5.36,5.36,0,0,1-1.684-.7A3.675,3.675,0,0,1,95.649,8.1a4.041,4.041,0,0,1-.467-2.024,11.281,11.281,0,0,1,.061-1.239q.061-.552.111-.944a2.681,2.681,0,0,0-.75.258,7.5,7.5,0,0,0-.922.5,8.017,8.017,0,0,0-1.426,1.177A8.958,8.958,0,0,0,91.1,7.3l-.295.491a5.171,5.171,0,0,1-.3.442.855.855,0,0,1-.172.172.4.4,0,0,1-.246.074.948.948,0,0,1-.443-.2,6.789,6.789,0,0,1-.615-.466,4.76,4.76,0,0,1-.541-.527q-.221-.258-.221-.356a.338.338,0,0,1,.123-.221l.111-.11.086-.086q.27-.245.946-1.006t1.586-1.815q.91-1.055,1.868-2.2T94.777-.685q.824-1.043,1.34-1.766a2.746,2.746,0,0,0,.516-.9q0-.049-.061-.061a.519.519,0,0,0-.086-.012.2.2,0,0,0-.061.012.273.273,0,0,1-.086.012,20.17,20.17,0,0,0-2.913.711,22.082,22.082,0,0,1-2.962.736,1.225,1.225,0,0,0-.209.037,1.225,1.225,0,0,1-.209.037.226.226,0,0,1-.184-.074.884.884,0,0,1-.111-.172,2.7,2.7,0,0,1-.184-.65,4.015,4.015,0,0,1-.086-.675q0-.343.369-.343.418,0,.836.025t.836.025a23.892,23.892,0,0,0,2.4-.123,10.278,10.278,0,0,0,2.348-.515,5.151,5.151,0,0,0,.811-.368,8.1,8.1,0,0,0,.737-.466q.147-.1.332-.209a.694.694,0,0,1,.356-.11,1.7,1.7,0,0,1,.5.135q.356.135.774.331a7.538,7.538,0,0,1,.737.392q.172.1.295.172a.533.533,0,0,1,.172.147.478.478,0,0,1,.1.343.588.588,0,0,1-.123.343,1.978,1.978,0,0,1-.184.209,1.98,1.98,0,0,1-.209.184q-.369.319-.725.613t-.725.638Q98.354-1.359,97.6-.7T96.141.677q-1.2,1.128-2.385,2.306a4.3,4.3,0,0,0-.369.356q-.246.258-.455.515a1.486,1.486,0,0,0-.258.4q.148-.1.639-.356l1.143-.6q.651-.343,1.315-.65t1.2-.515a2.548,2.548,0,0,1,.762-.209q.246,0,.246.2a.05.05,0,0,1-.012.037.05.05,0,0,0-.012.037,3.3,3.3,0,0,0-.123.564q-.049.343-.1.736-.074.589-.123,1.2t-.049,1.006a2.264,2.264,0,0,0,.787,1.938,3.109,3.109,0,0,0,1.917.589,8.122,8.122,0,0,0,3.171-.65,9.133,9.133,0,0,0,2.63-1.631,6.694,6.694,0,0,0,1.254-1.5.425.425,0,0,1,.344-.2q.172,0,.209.11A.731.731,0,0,1,107.916,4.6ZM99.091-7.271q0,.147-.27.233a3.155,3.155,0,0,1-.565.123,3.908,3.908,0,0,1-.418.037q-.246,0-.836-.061t-1.229-.184q-.688-.147-1.364-.343a4.331,4.331,0,0,1-1.119-.478q-.442-.282-.442-.6a1.2,1.2,0,0,1,.2-.38q.2-.307.467-.7t.5-.711a2.053,2.053,0,0,1,.307-.368.306.306,0,0,1,.221-.1.2.2,0,0,1,.123.037.244.244,0,0,1,.074.086l.184.184a1.719,1.719,0,0,1,.16.184q.418.417.873.809t.922.736q.418.294.836.54t.885.491a2.806,2.806,0,0,1,.3.184A.365.365,0,0,1,99.091-7.271Zm35.2,9.984a1.216,1.216,0,0,1-.541,1.092,2.145,2.145,0,0,1-1.2.356h-5.187q-.123.883-.369,1.926a14.721,14.721,0,0,1-.627,2.011,6.113,6.113,0,0,1-.971,1.68,3.267,3.267,0,0,1-1.291,1.03,4.49,4.49,0,0,1-1.659.27,3.969,3.969,0,0,1-1.782-.478,9.674,9.674,0,0,1-1.782-1.165,10.4,10.4,0,0,1-1.352-1.3.8.8,0,0,0-.049-.086.119.119,0,0,1-.025-.061q0-.1.147-.1a.782.782,0,0,1,.221.049,12.715,12.715,0,0,0,1.709.6,6.618,6.618,0,0,0,1.782.282A2.152,2.152,0,0,0,122.9,8.33a3.751,3.751,0,0,0,.8-1.472,10.87,10.87,0,0,0,.565-2.7h-13.1v-1.2h13.25q.1-.687.147-1.374l.1-1.374H116.1l2.065-7.874h3.073l-.762,2.846h4.646a2.055,2.055,0,0,1,.442-1.239,1.419,1.419,0,0,1,1.18-.527,1.8,1.8,0,0,1,1.106.417,1.258,1.258,0,0,1,.541,1.03,1.339,1.339,0,0,1-.43,1.018,1.469,1.469,0,0,1-1.045.4h-6.785l-.713,2.772h8.457a19.335,19.335,0,0,1-.147,1.95q-.123.969-.246,1.95h3.466a2.132,2.132,0,0,1,.492-1.263,1.489,1.489,0,0,1,1.2-.527,1.717,1.717,0,0,1,1.168.417A1.419,1.419,0,0,1,134.294,2.713ZM133.679-9.6a3.639,3.639,0,0,1-.234,1.1,10.3,10.3,0,0,1-.639,1.46,12.427,12.427,0,0,1-.9,1.46A6.3,6.3,0,0,1,130.9-4.45a1.572,1.572,0,0,1-1.008.442.4.4,0,0,1-.295-.123.4.4,0,0,1-.123-.294q0-1.03.061-2.085t.111-2.085h-14.7V-4.3h-2.975V-9.847h21.461A.217.217,0,0,1,133.679-9.6ZM151.748-4.7H142.9v1.668h5.6a.957.957,0,0,1,.393-.6,1.112,1.112,0,0,1,.664-.233.942.942,0,0,1,.725.307,1.032,1.032,0,0,1,.283.724.735.735,0,0,1-.356.65,1.349,1.349,0,0,1-.75.233H142.9v1.57h5.63a.852.852,0,0,1,.381-.6,1.166,1.166,0,0,1,.676-.233.915.915,0,0,1,.7.307,1.032,1.032,0,0,1,.283.724.735.735,0,0,1-.356.65,1.349,1.349,0,0,1-.75.233H142.9V2.345h6.539a2.229,2.229,0,0,0,1.721-.638,2.465,2.465,0,0,0,.59-1.742ZM145.8,7.839a.278.278,0,0,1-.074.184.737.737,0,0,1-.147.135,11.013,11.013,0,0,1-1.77,1.128,16.186,16.186,0,0,1-2.2.944,19.635,19.635,0,0,1-2.311.65,10.076,10.076,0,0,1-2.1.245.437.437,0,0,1-.2-.049.157.157,0,0,1-.1-.147.245.245,0,0,1,.086-.2.9.9,0,0,1,.184-.123,8.462,8.462,0,0,1,.762-.4,5.845,5.845,0,0,0,.762-.429,29.107,29.107,0,0,0,2.471-1.742,15.349,15.349,0,0,0,2.2-2.061q.418.27.811.564t.787.564q.2.123.369.245t.344.27A.241.241,0,0,1,145.8,7.839Zm13.3-3.287a1.074,1.074,0,0,1-.516,1.067,2.666,2.666,0,0,1-1.2.258H136.089V4.749H156a1.838,1.838,0,0,1,.479-1.116,1.407,1.407,0,0,1,1.094-.478,1.578,1.578,0,0,1,1.033.417A1.253,1.253,0,0,1,159.1,4.552Zm-1.106,5.4a.961.961,0,0,1-.43.773,1.4,1.4,0,0,1-.848.331,10.389,10.389,0,0,1-2.7-.392,20.867,20.867,0,0,1-2.839-.993A18.308,18.308,0,0,1,148.724,8.4a1.079,1.079,0,0,1-.16-.135.258.258,0,0,1-.086-.184.269.269,0,0,1,.1-.172,2.477,2.477,0,0,1,.43-.343q.234-.147.455-.319.811-.662,1.6-1.227.885.957,2.053,2a13.3,13.3,0,0,0,2.3,1.68,1.336,1.336,0,0,1,.529-.675,1.442,1.442,0,0,1,.824-.258,1.223,1.223,0,0,1,.86.343A1.1,1.1,0,0,1,157.992,9.949Zm-.615-18.913a1.055,1.055,0,0,1-.541.993,2.306,2.306,0,0,1-1.155.307h-7.1V-5.75h6.318V-.525a4.261,4.261,0,0,1-.651,2.539,3.331,3.331,0,0,1-1.782,1.239,8.981,8.981,0,0,1-2.606.343h-9.784V-5.75h5.6V-7.664h-8.137v-1.2h8.112v-2.7h2.95v2.7h5.728a1.5,1.5,0,0,1,.455-1.079,1.446,1.446,0,0,1,1.069-.466,1.536,1.536,0,0,1,1.045.429A1.324,1.324,0,0,1,157.377-8.964ZM173.75.947a16.388,16.388,0,0,1-.246,2.711,17.223,17.223,0,0,1-.737,2.858,9.643,9.643,0,0,1-1.229,2.428,4.465,4.465,0,0,1-1.536,1.4,4.117,4.117,0,0,1-1.93.442,2.467,2.467,0,0,1-1.635-.564A3.634,3.634,0,0,1,165.4,8.8a4.506,4.506,0,0,1-.356-1.742V6.8a2.506,2.506,0,0,1,.025-.356q.049-.319.172-.319.049,0,.1.147a2.045,2.045,0,0,0,.1.343l.148.442a4.688,4.688,0,0,0,.885,1.227,1.778,1.778,0,0,0,1.3.54,1.681,1.681,0,0,0,1.18-.515,4.472,4.472,0,0,0,.934-1.349,11.379,11.379,0,0,0,.713-2.183,19.674,19.674,0,0,0,.381-2.257q.111-1.055.111-1.619a5.811,5.811,0,0,0-.123-1.214,1.841,1.841,0,0,0-.492-.944,1.542,1.542,0,0,0-1.131-.368q-.147,0-.283.012a2.451,2.451,0,0,0-.258.037q-.32.736-.811,1.668t-.983,1.791q-.59,1.006-1.278,2t-1.377,1.8a14.622,14.622,0,0,1-1.254,1.325L161.286,5.73a24.542,24.542,0,0,0,2.876-3.4,18.786,18.786,0,0,0,2.016-3.569q-1.057.147-2.09.282T162-.7l-.123-1.349q1.155-.074,2.36-.172t2.36-.172A14.377,14.377,0,0,0,167.26-4.2q.344-1.128.651-2.355a19.559,19.559,0,0,0,.43-2.159q.443.1.9.172a8.351,8.351,0,0,1,.9.2,2.853,2.853,0,0,1,.381.074q.184.049.356.1a.879.879,0,0,1,.221.074.2.2,0,0,1,.1.2,3.184,3.184,0,0,1-.172.6q-.172.5-.442,1.2t-.553,1.423l-.5,1.288q-.221.564-.295.76.221,0,.43-.012t.43-.012a4.071,4.071,0,0,1,2.852.785A3.87,3.87,0,0,1,173.75.947ZM183.8.677a1.28,1.28,0,0,1-.3.724,3.839,3.839,0,0,1-.688.724,4.422,4.422,0,0,1-.934.6,5.278,5.278,0,0,1-.983.356,1.455,1.455,0,0,1-.393.074.13.13,0,0,1-.147-.147l.037-.037.061-.061a8.723,8.723,0,0,0,.8-.957,2.114,2.114,0,0,0,.455-1.276,1.03,1.03,0,0,0-.565-.8,6.5,6.5,0,0,0-1.414-.687,16.345,16.345,0,0,0-1.708-.515A13.91,13.91,0,0,0,176.6-1.6a.8.8,0,0,0-.234-.025,1.455,1.455,0,0,1-.283-.025q-.32-.025-.32-.245a1.1,1.1,0,0,1,.221-.417q.221-.319.516-.724t.565-.724q.27-.319.369-.417a8.2,8.2,0,0,1,2.729.981,12.513,12.513,0,0,1,2.385,1.717,6.682,6.682,0,0,1,.787.908A2.285,2.285,0,0,1,183.8.677Zm-5.433-9.714a3.211,3.211,0,0,1-.135.724q-.135.5-.344,1.079t-.418,1.03a1.52,1.52,0,0,1-.381.576.7.7,0,0,1-.369.123.275.275,0,0,1-.27-.221q-.025-.074-.111-.576t-.184-1.128q-.1-.626-.172-1.116t-.074-.54q0-.147.172-.147a2.946,2.946,0,0,1,.578-.061l.787-.025q.406-.012.6-.012Q178.371-9.332,178.371-9.037Zm3.466-.54a2.771,2.771,0,0,1-.16.724q-.16.5-.393,1.092t-.467,1.055a1.7,1.7,0,0,1-.406.589.59.59,0,0,1-.344.123q-.123,0-.16-.061t-.086-.159q0-.025-.074-.5T179.6-7.835q-.074-.638-.135-1.165t-.061-.6q0-.123.148-.147a7.456,7.456,0,0,1,.983-.086q.516-.012.983-.012Q181.838-9.847,181.838-9.577ZM198.775-1.6h-2.188V.211h.664a.89.89,0,0,1,.2-.392.493.493,0,0,1,.393-.172.519.519,0,0,1,.455.233.872.872,0,0,1,.16.5.715.715,0,0,1-.16.466.553.553,0,0,1-.455.2h-1.254V2.467h.664a.981.981,0,0,1,.2-.4.479.479,0,0,1,.393-.184.519.519,0,0,1,.455.233.872.872,0,0,1,.16.5.715.715,0,0,1-.16.466.553.553,0,0,1-.455.2h-1.254V5.46q.565-.123,1.106-.221t1.082-.245Zm5.384-7.923h-6.613v1.913h4.228a.937.937,0,0,1,.356-.5.972.972,0,0,1,.578-.184.951.951,0,0,1,.615.245.742.742,0,0,1,.295.589.669.669,0,0,1-.332.6,1.257,1.257,0,0,1-.676.209h-5.064v1.84h5.408a1,1,0,0,0,.934-.454,2,2,0,0,0,.27-1.043ZM194.277-5.8a.983.983,0,0,1-.455.969,2.216,2.216,0,0,1-1.069.221q-.615-.012-1.106-.012V-.672q.2-.074.6-.245t.8-.307a2.057,2.057,0,0,1,.541-.135q.172,0,.172.147a.836.836,0,0,1-.27.442,8.115,8.115,0,0,1-.651.626q-.381.331-.713.6t-.479.368v6.01a12.087,12.087,0,0,1-.148,1.938,2.474,2.474,0,0,1-.737,1.46,2.711,2.711,0,0,1-1.893.552,3.133,3.133,0,0,1-1.389-.392,8.708,8.708,0,0,1-1.266-.76q-.074-.049-.307-.221t-.234-.27q0-.147.2-.147a1.209,1.209,0,0,1,.258.037q.16.037.234.061l.565.061a6.038,6.038,0,0,0,.639.037,1.2,1.2,0,0,0,.922-.307,1.384,1.384,0,0,0,.344-.785,7.6,7.6,0,0,0,.061-.969V2.32a6.772,6.772,0,0,1-1.155.675q-.615.282-1.254.527l-1.2-2.379q.91-.245,1.831-.478t1.807-.552q0-1.177-.012-2.367t-.012-2.367h-3.024V-5.677h3q0-1.325-.012-2.637t-.012-2.637h2.8v5.274h.32a1.485,1.485,0,0,1,.369-.834,1,1,0,0,1,.787-.368,1.168,1.168,0,0,1,.8.319A.987.987,0,0,1,194.277-5.8ZM209.69,8.649a.8.8,0,0,1-.332.638,1.066,1.066,0,0,1-.676.27,3.041,3.041,0,0,1-1.487-.417,7.582,7.582,0,0,1-1.4-1.006q-.651-.589-1.119-1.1a11.666,11.666,0,0,1-1.524,1.177,6.209,6.209,0,0,1-1.745.809v1.668h-2.63V5.9a6.574,6.574,0,0,1-1.18.748q-.738.38-1.6.736t-1.659.626q-.8.27-1.364.417l-1.033-2.036q.565-.1,1.119-.209T194.154,6V-1.6h-1.622v-1.03h14.283a1.63,1.63,0,0,1,.467-.92,1.259,1.259,0,0,1,.934-.4,1.423,1.423,0,0,1,.873.331,1,1,0,0,1,.43.822.96.96,0,0,1-.5.957A2.521,2.521,0,0,1,207.9-1.6h-6.49V8.355a8.846,8.846,0,0,0,1.143-1.276q.5-.687.971-1.4-.516-.711-.983-1.447t-.885-1.5l2.04-1.5q.221.515.467,1.018t.492.993q.221-.589.406-1.227a7.905,7.905,0,0,0,.258-1.251h-3.368V-.206h6.293a10.574,10.574,0,0,1-.43,1.95,18,18,0,0,1-.787,2.073,12.163,12.163,0,0,1-.946,1.742q.369.687.8,1.361a8,8,0,0,0,.971,1.239,2.14,2.14,0,0,1,.455-.343,1.055,1.055,0,0,1,.529-.147.748.748,0,0,1,.627.307A1.088,1.088,0,0,1,209.69,8.649Zm-2.68-15.331a2.565,2.565,0,0,1-.922,2.33,4.65,4.65,0,0,1-2.52.589h-8.653v-6.844h12.095ZM216.3-3.518q0,.172-.307.282a3.778,3.778,0,0,1-.737.172,7.467,7.467,0,0,1-.811.074q-.381.012-.529.012t-.627-.049a6.194,6.194,0,0,1-.91-.159q-.43-.11-.43-.307a2.19,2.19,0,0,1,.111-.491q.111-.368.27-.809t.295-.822q.135-.38.184-.527.762.589,1.524,1.165a16.446,16.446,0,0,0,1.6,1.067,1.326,1.326,0,0,1,.234.159A.307.307,0,0,1,216.3-3.518ZM234,2.713a2.738,2.738,0,0,1-.135.6q-.135.454-.184.626a6.222,6.222,0,0,1-1.917,2.784,4.843,4.843,0,0,1-3.171,1.067,4.781,4.781,0,0,1-1.93-.38,3.283,3.283,0,0,1-1.4-1.128,3.173,3.173,0,0,1-.529-1.877,16.481,16.481,0,0,1,.086-1.693q.086-.834.184-1.668l.2-1.619.2-1.619q.049-.466.111-.932a7.123,7.123,0,0,0,.061-.932,1.854,1.854,0,0,0-.246-1.018,1,1,0,0,0-.91-.38,2.519,2.519,0,0,0-1.192.429,11.325,11.325,0,0,0-1.487,1.067q-.762.638-1.4,1.239t-.983.944V9.017h-2.63l.1-8.61q-.516,1.2-1.18,2.428a9.634,9.634,0,0,1-1.573,2.159q-.1.1-.27.258a.512.512,0,0,1-.344.159.266.266,0,0,1-.2-.074,3.65,3.65,0,0,1-.442-.515q-.32-.417-.639-.871t-.418-.626q.762-.466,1.709-1.141A16.214,16.214,0,0,0,215.246.713a5.885,5.885,0,0,0,1.229-1.582,3.832,3.832,0,0,0,.221-.675,3.1,3.1,0,0,0,.1-.724l-.049-6.918h2.606v5.863q.565-.54,1.327-1.141A18.431,18.431,0,0,1,222.3-5.6a10.5,10.5,0,0,1,1.733-.883,4.589,4.589,0,0,1,1.684-.343,3.708,3.708,0,0,1,2.065.5,2.114,2.114,0,0,1,.762,1.9,4.423,4.423,0,0,1-.049.65q-.049.331-.1.675-.172,1.055-.418,2.294t-.43,2.465a15.409,15.409,0,0,0-.184,2.281,2.622,2.622,0,0,0,.356,1.5,1.554,1.554,0,0,0,1.364.515,3.4,3.4,0,0,0,1.659-.491,8.167,8.167,0,0,0,1.622-1.2,6.22,6.22,0,0,0,1.119-1.349l.135-.27a.261.261,0,0,1,.234-.172.119.119,0,0,1,.111.086A.406.406,0,0,1,234,2.713Zm20.846.736a5.4,5.4,0,0,1-1.02,3.2,6.775,6.775,0,0,1-2.569,2.2q-.541.245-1.155.454a9.786,9.786,0,0,1-1.229.331,8.355,8.355,0,0,1-1.057.172q-.516.049-1.057.049a5.622,5.622,0,0,1-1.352-.184,5.084,5.084,0,0,1-1.377-.564,3.565,3.565,0,0,1-1.057-.944,2.164,2.164,0,0,1-.418-1.325,2.023,2.023,0,0,1,.615-1.509,4,4,0,0,1,1.475-.908,4.841,4.841,0,0,1,1.622-.307,4.515,4.515,0,0,1,1.192.172,2.49,2.49,0,0,1,1.069.589,1.54,1.54,0,0,1,.442,1.177,1.135,1.135,0,0,1-.369.908,1.958,1.958,0,0,1-.8.429,2.878,2.878,0,0,1-.652.11,1.281,1.281,0,0,1-.86-.343.981.981,0,0,1-.393-.736,1.293,1.293,0,0,1,.32-.8,1.024,1.024,0,0,1,.762-.429.4.4,0,0,0-.381-.282,4.405,4.405,0,0,0-.5-.037,1.746,1.746,0,0,0-.885.258,2.326,2.326,0,0,0-.737.675,1.5,1.5,0,0,0-.295.883,1.36,1.36,0,0,0,.356.969,2.177,2.177,0,0,0,.873.564,2.929,2.929,0,0,0,.983.184,10.128,10.128,0,0,0,1.2-.074,6.073,6.073,0,0,0,2.188-.846,4.875,4.875,0,0,0,1.586-1.631,4.5,4.5,0,0,0,.6-2.355,2.8,2.8,0,0,0-1.032-2.465,4.478,4.478,0,0,0-2.63-.724,8.58,8.58,0,0,0-2.741.466,13.147,13.147,0,0,0-2.544,1.153,4.123,4.123,0,0,0-.467.307,5.754,5.754,0,0,1-.492.331q-.32.27-.639.576a5.933,5.933,0,0,1-.664.552.562.562,0,0,1-.32.123q-.221,0-.467-.343a3.371,3.371,0,0,1-.406-.76,1.974,1.974,0,0,1-.16-.589q0-.221.307-.368t.479-.221q.565-.221,1.143-.417a8.949,8.949,0,0,0,1.119-.466,2.434,2.434,0,0,0,.676-.491q.283-.294.578-.613a17.722,17.722,0,0,0,1.709-2.343q.774-1.263,1.487-2.49.123-.245.258-.5t.283-.5q.123-.2.221-.38a1.556,1.556,0,0,0,.148-.429,16.7,16.7,0,0,1-2,.527,10.472,10.472,0,0,1-2.053.209q-.147,0-.553-.025a5.376,5.376,0,0,1-.762-.1q-.356-.074-.356-.245v-.552q0-.429.012-.859a1.431,1.431,0,0,1,.061-.5.193.193,0,0,1,.2-.147.083.083,0,0,1,.074.037q.025.037.049.037a4.273,4.273,0,0,0,.848.38q.479.159.873.258a5.61,5.61,0,0,0,1.032.147q.516.025,1.033.025h.43q.209,0,.455-.025.713-.049,1.463-.135t1.463-.184q.27-.074.529-.147a2.868,2.868,0,0,1,.529-.1h.2a1.729,1.729,0,0,1,.184.012q.111.012.111.184a1.235,1.235,0,0,1-.135.491q-.135.294-.234.491a31.854,31.854,0,0,1-1.795,2.784,21.417,21.417,0,0,1-1.917,2.281,26.629,26.629,0,0,1-2.434,2.2,19.17,19.17,0,0,1,1.893-.54,8.626,8.626,0,0,1,1.942-.221,10.591,10.591,0,0,1,2.077.209,6.683,6.683,0,0,1,1.917.687,3.722,3.722,0,0,1,1.389,1.3A3.832,3.832,0,0,1,254.849,3.449Zm19.568,4.489a2.016,2.016,0,1,1-3.442-1.423,2.016,2.016,0,0,1,3.442,1.423Zm.737-16.46a6.663,6.663,0,0,1-.123,1.128q-.123.687-.283,1.4t-.234,1.227q-.172,1.177-.393,2.355T273.7-.059q-.1.564-.147,1.128T273.409,2.2q-.074.466-.123.932a5.552,5.552,0,0,1-.172.908.745.745,0,0,1-.787.662.584.584,0,0,1-.578-.331,1.882,1.882,0,0,1-.172-.773q-.012-.442-.037-.711-.1-2.011-.184-4.011t-.283-3.986q-.074-.809-.184-1.619a11.947,11.947,0,0,1-.111-1.619,2.083,2.083,0,0,1,.6-1.668,2.594,2.594,0,0,1,1.733-.515,2,2,0,0,1,1.45.576A1.925,1.925,0,0,1,275.155-8.522Z" transform="translate(224.106 6177.067)"/><g transform="translate(108.623 6195.496)"><g transform="translate(57.627 0)"><path class="c" d="M405.385,565.681l-4.551-5.983-7.2,2.166-.161-7.518-7.1-2.475,4.294-6.179-4.294-6.179,7.1-2.475.162-7.518,7.2,2.166,4.552-5.983,4.551,5.983,7.2-2.166.161,7.518,7.1,2.475-4.294,6.179,4.294,6.179-7.1,2.475-.161,7.518-7.2-2.166Zm-3.234-10.039,3.234,4.251,3.234-4.251,5.114,1.538.115-5.343,5.044-1.757-3.049-4.388,3.049-4.388-5.044-1.757-.115-5.343-5.114,1.538-3.234-4.251-3.234,4.251-5.114-1.538-.115,5.343-5.044,1.757,3.049,4.388-3.049,4.388,5.044,1.757.115,5.343Z" transform="translate(-386.367 -525.702)"/></g><g transform="translate(0 11.369)"><g transform="translate(0 0)"><path class="d" d="M12.749,0h47.48A12.749,12.749,0,0,1,72.978,12.749V127.188a12.749,12.749,0,0,1-12.749,12.749H12.749A12.749,12.749,0,0,1,0,127.188V12.749A12.749,12.749,0,0,1,12.749,0Z" transform="translate(1.727 1.727)"/><path class="c" d="M12.826-1.65h47.48A14.476,14.476,0,0,1,74.783,12.826V127.265a14.476,14.476,0,0,1-14.476,14.476H12.826A14.476,14.476,0,0,1-1.65,127.265V12.826A14.476,14.476,0,0,1,12.826-1.65Zm47.48,139.937a11.034,11.034,0,0,0,11.022-11.022V12.826A11.034,11.034,0,0,0,60.306,1.8H12.826A11.034,11.034,0,0,0,1.8,12.826V127.265a11.034,11.034,0,0,0,11.022,11.022Z" transform="translate(1.65 1.65)"/><g transform="translate(5.127 5.079)"><path class="e" d="M230.153,301.721a6.039,6.039,0,0,1-6.089,5.95H173.518a6.039,6.039,0,0,1-6.089-5.95V186.814a6.039,6.039,0,0,1,6.089-5.951h11.327l2.138,4.187H210.9l1.684-4.187h11.483a6.039,6.039,0,0,1,6.089,5.951Z" transform="translate(-165.702 -179.136)"/><path class="c" d="M224.14,309.7H173.6a7.826,7.826,0,0,1-7.817-7.818V187.031a7.826,7.826,0,0,1,7.817-7.818h11.327a1.727,1.727,0,0,1,1.62,1.129l1.31,3.55h21.875l1.31-3.55a1.727,1.727,0,0,1,1.62-1.129H224.14a7.826,7.826,0,0,1,7.817,7.818V301.88A7.826,7.826,0,0,1,224.14,309.7ZM173.6,182.667a4.381,4.381,0,0,0-4.362,4.363V301.88a4.381,4.381,0,0,0,4.362,4.363H224.14a4.381,4.381,0,0,0,4.362-4.363V187.031a4.381,4.381,0,0,0-4.362-4.363H213.862l-1.31,3.55a1.727,1.727,0,0,1-1.62,1.129H186.648a1.727,1.727,0,0,1-1.621-1.129l-1.31-3.55Z" transform="translate(-165.779 -179.213)"/></g><path class="c" d="M4.958,1.8H.077a1.727,1.727,0,1,1,0-3.454H4.958a1.727,1.727,0,1,1,0,3.454Z" transform="translate(35.698 6.619)"/><path class="c" d="M204.925,180.81a1.171,1.171,0,1,1-1.171-1.171A1.171,1.171,0,0,1,204.925,180.81Z" transform="translate(-158.929 -174.114)"/></g><g transform="translate(19.696 49.67)"><g class="f" transform="translate(0 0)"><rect class="a" width="37.041" height="37.041"/><path class="g" d="M197.5,249.285a4.63,4.63,0,1,0-4.629-4.63A4.63,4.63,0,0,0,197.5,249.285Zm0-13.891a9.261,9.261,0,1,1-9.26,9.261A9.261,9.261,0,0,1,197.5,235.395Zm13.891,25.466H183.609a4.747,4.747,0,0,1-4.63-4.63V235.395a4.642,4.642,0,0,1,4.63-4.629h3.7l3.473-3.473a3.834,3.834,0,0,1,2.778-1.157h8.1a3.72,3.72,0,0,1,2.547,1.157l3.473,3.473h3.7a4.643,4.643,0,0,1,4.63,4.629v20.836A4.643,4.643,0,0,1,211.389,260.861Z" transform="translate(-178.979 -223.82)"/></g></g></g><path class="c" d="M-35.866,8.816l-5.482,9.733A102.7,102.7,0,0,1-55.269,6.291q-7.946,7.885-20.944,9.548A74.761,74.761,0,0,0-61.491,1.363q5.236-6.961,6.53-12.813-6.714.493-18.172,1.294-.246-6.037-.308-9.979l30.8-.862A42.8,42.8,0,0,1-50.9-.054a37.38,37.38,0,0,0,7.084,5.667Q-38.637,8.939-35.866,8.816ZM24.181-17.425A32.11,32.11,0,0,1,17.344-3.75,29.213,29.213,0,0,1,6.071,4.319a42.109,42.109,0,0,0,3.357-6.5A31.615,31.615,0,0,0,11.492-8.37Q-6.433-7.384-16.6-7.138l-.308-10.287Zm-11.7,28.952-6.16,6.468A128.565,128.565,0,0,1-5.2,5.243L.466.377Q6.01,5.921,6.194,6.044,9.151,8.878,12.478,11.527Zm73.229-6.16-4.62,7.515a38.723,38.723,0,0,1-8.624-7.823l4.25-4.5a32.654,32.654,0,0,0,3.142,2.156A18.28,18.28,0,0,0,85.707,5.367ZM81.518-14.776l-.123,9.055q-8.932.862-13.182,1.232l-.924.062q0,20.513-.37,25.071-10.6-9.055-13.182-10.533,3.7.062,5.482,0L58.788-5.6q-8.624-.123-14.229-.37l-.493-8.254,14.784-.246L58.6-24.879l10.349.431-.431,9.856ZM53,5.305q-4.189,5.3-14.414,5.482Q45.236,4.5,46.961.439Zm92.941-30L142.92-11.82q-3.265-4.435-4.5-6.406l-30.615.308v5.236l-6.591-.308-.185-11.765q8.377-.123,18.172-.123Q131.4-24.879,145.938-24.694ZM143.413,5.49l-.246,6.406H131.647q-1.478,7.022-5.914,10.472-3.2-4.5-5.359-7.33l4.127.308.986-3.573q-10.841.246-16.94.246-3.511,0-5.421-.062l-.246-6.283q20.143,0,23.408-.185.246-2.341.246-3.265-6.591.185-11.889.185L114.4-15.084h7.146V-9.91q6.345-1.91,9.486-4.928l3.388,5.79q-3.758,2.094-13.675,2.464l.062,3.45,12.628-.246a72.174,72.174,0,0,1-.8,8.809Zm56.536-28.767-.185,6.653H186.7v2.649l8.87.37-.986,21.129q-14.291,0-24.886.308l-.493-21.5q6.468-.123,9.363-.308l.062-2.4q-5.421.246-13.983.246l-.37-7.207,13.983.062-.062-4.25,9.117.185-.493,4.435Q194.9-23.277,199.949-23.277ZM187.567-6.768,187.444-9.6q-2.218-.062-10.164.246l-.062,2.834Q179.99-6.645,187.567-6.768ZM187.444-1.1l-.062-2.279q-.554,0-9.733-.185l-.123,2.834Q179.867-.855,187.444-1.1Zm0,5.421-.123-2.279-9.486.062-.062,2.341Q180.73,4.5,187.444,4.319Zm16.016,11.4q-4.127-.246-8.378-.246a11.727,11.727,0,0,0,5.3,4.374,10.563,10.563,0,0,1-4.866,1.232,9.064,9.064,0,0,1-8.193-4.866l-11.581.062q-1.54,5.606-11.519,5.113a14.912,14.912,0,0,0,4.5-5.606q-5.606,0-8.439.062l-.062-5.852q4.99.062,11.026.062,13.552,0,32.216-.37Zm-240.188,32.5a117.145,117.145,0,0,1-.554,14.722l-20.636.123-.554-14.845q7.33.123,12.751.123T-36.728,48.212Zm-7.084,4.127-6.468.123-.246,2.094q.8.062,2.4.062,1.663,0,4.127-.062Zm0,5.482-6.9.123q0,.431-.062,2.279l6.838-.062A13.658,13.658,0,0,0-43.812,57.822Zm15.03,34.5-4.435,5.606a56.456,56.456,0,0,1-5.975-6.345q-1.786,2.341-7.515,3.326,4.435-4.25,5.482-7.33l-2.587-3.758,2.341-2.341,2.464,3.018a19.743,19.743,0,0,0,1.725-5.79q-4.8.431-7.269.493l.062-5.482,12.689-.123q-.308,9.917-3.819,14.353A29.424,29.424,0,0,0-28.782,92.317Zm-2.094-27.1-.37,5.852q-13.737.308-17,.554-.431,11.519-.246,13.244A32.961,32.961,0,0,0-44.921,84q-.739,1.232-1.417,2.526a11.713,11.713,0,0,1-2.156,2.094l-.123,8.316h-5.79l.246-5.3a92.364,92.364,0,0,1-11.026,1.725l-.37-5.113,3.388-.493q.37-12.936.185-17.186h-3.634V65.4Zm-22.545,9.609v-2.4l-2.834.062q0,.37-.062,2.218Zm-.431,5.051V77.9l-2.526.062.062,2.094Zm.123,4L-56.316,84l-.062,2.279a22.2,22.2,0,0,0,2.526-.308Zm-12.5-9.609q-1.047,3.819-5.606,6.838a143.87,143.87,0,0,1-.185,14.414,76.464,76.464,0,0,0-7.761-6.714l3.511-.123q-.062-4.8-.123-5.914a48.474,48.474,0,0,1-5.975,2.279l-1.355-5.174,3.2-1.047,3.942-1.355.185-8.316q-3.018.308-5.606.678l-.185-6.653Q-78.615,63-77.26,63l-.185-7.269,6.714.123L-70.977,63l4.127-.185-.062,6.406q-2.587.062-4.866.185l-.062,6.838A38.585,38.585,0,0,0-66.234,74.269ZM14.326,58.376A64.34,64.34,0,0,1,15.434,69.71q0,21.621-18.973,26.919Q7.18,85.11,7.18,70.758A67.527,67.527,0,0,0,5.948,58.869ZM1.082,70.819Q-2.06,74.946-6.68,82.338q-4.99-6.653-5.667-21.19l7.885-.493q-.246,8.5.678,12.32ZM83.674,60.347V68.6q-15.523.185-20.7.062a38.355,38.355,0,0,1-.493,5.482l14.661.862q.062,1.478.062,3.018a81.757,81.757,0,0,1-.678,10.1,54.957,54.957,0,0,1-2.4,11.4,118.127,118.127,0,0,0-9.055-8.316l4.5.123a88.148,88.148,0,0,0,.924-9.548L60.7,80.921a16.714,16.714,0,0,1-5.3,9.3,19.566,19.566,0,0,1-9.425,5.113q9.486-12.813,9.486-26.18-8.993.062-13.675.308V60.9l14.907.185-.924-9.3,9.486.123-.8,8.87Zm62.757,7.577-.062,5.421q-8.316-.308-15.708-.308-9.117,0-14.661.431l-.123-4.8,7.392-.185.185-2.341-4.682-.123V62.072q3.511,0,4.866-.123l.123-2.587a57.986,57.986,0,0,0-5.852-.062l-.185-5.051H123.7l-.493-3.819,6.222-.246q.062,2.71,0,4.374H133.8V49.814l5.852.246L139.594,54q5.236,0,6.468-.062l-.185,5.174-5.913.308v1.54l5.051.123-.185,4.62q-2.341-.062-4.743,0v2.033Zm-13.305-8.747-3.881-.062v2.156a14.862,14.862,0,0,1,3.819,0Zm.123,8.562V65.645l-3.265.062v1.971Q131.093,67.678,133.249,67.739Zm-24.332-8.562a28.774,28.774,0,0,1-6.838,1.417l-.924-6.838,7.269-.554ZM149.45,85.911l-.431,6.53a44.191,44.191,0,0,0-5.605-.493,78.845,78.845,0,0,1-.246,8.624q-6.468-4.928-7.638-5.606l3.326.062q.062-1.54,0-2.71l-14.907.246q-.062,3.758,0,5.359l-5.359-.123a36.965,36.965,0,0,0,.246-5.236,25.334,25.334,0,0,0-4.374.123q-.062-1.663-.062-2.957,0-1.355.062-2.279,3.511,0,5.113-.123l.185-10.9q8.5-.308,10.225-.246l-.185-2.094,5.236.123v2.587q6.838.308,8.87.554,0,7.207-.123,8.685Zm-10.287-3.634V80.429H135.9v1.848Zm-.123,5.606-.185-1.848-2.834.185.062,1.786A10.029,10.029,0,0,0,139.039,87.882ZM130.107,80h-3.142v2.279q1.232,0,3.018-.062Zm-.739,5.914-2.649.062L126.6,88.5a9.038,9.038,0,0,0,2.71-.431ZM112.8,63.058l-.123,5.3-15.708-.37-.185-4.5Zm-2.9,7.823-.123,4.374q-7.022-.493-9.609-.37l-.123-3.758Zm.123,6.345-.493,4.866q-5.482-.308-7.823-.308a13.535,13.535,0,0,0-1.6.062l-.37-4.62Zm1.54,7.7-.616,12.5q-6.037-.308-11.088-.678a40.008,40.008,0,0,1-.431-11.765Q108.116,84.864,111.566,84.925Zm-4.25,6.9V89.792l-3.018-.123v2.279A11.012,11.012,0,0,0,107.316,91.825ZM204.137,71.5l-1.971,5.975q-4.8-1.478-6.591-4Q193.234,76.055,188,76.3q4.682-6.653,5.606-11.4l6.345,1.109a19.524,19.524,0,0,1-2.587,4.374A16.806,16.806,0,0,0,204.137,71.5Zm-1.6-16.2-.308,7.269-16.016.123q-12.258,0-16.878-.37a42.233,42.233,0,0,1-2.279,13.367,17.241,17.241,0,0,1-9.425,10.225q2.156-3.7,3.573-12.936A88.512,88.512,0,0,0,162.435,59.3q0-1.91-.123-3.388l18.357-.616-.739-5.914,8.193-.246-.246,6.406ZM185.1,71.682l-4,6.1q-3.573-3.819-4.066-5.051a15.985,15.985,0,0,1-8.685,4.5q5.051-7.145,6.037-12.566l5.914,1.17a8.166,8.166,0,0,1-1.6,3.388A12.085,12.085,0,0,0,185.1,71.682Zm14.291,20.2-.986,6.776q-20.882,0-26.919-.616l-.246-5.3q8.624-1.294,10.78-1.355l-.185-2.279q-3.326.062-8.562.062l-.308-6.9,8.87.062-.123-3.942,8.07.123v3.7l7.269-.431-.246,7.146q-5.667-.37-8.008-.37l-.185,2.71Q196.807,91.64,199.394,91.886Z" transform="translate(183.202 48.485)"/></g><path class="c" d="M0,0H502a0,0,0,0,1,0,0V11a5,5,0,0,1-5,5H5a5,5,0,0,1-5-5V0A0,0,0,0,1,0,0Z" transform="translate(56.908 6378.686)"/><g transform="translate(482.07 6358.857)"><path class="c" d="M117.582,409.7c0,2.2.363,4.619,5.954,4.619h31.316c3.125,0,4.607-1.63,4.607-4.109v-4.675h4.189v-6.926H143.2V396.1h-9.35v2.516H113.4v6.926h4.183Z" transform="translate(-113.399 -396.096)"/><path class="b" d="M151.243,401.393h19.191v3.6h-2.928v-.061H151.243Z" transform="translate(-121.447 -397.222)"/><path class="b" d="M114.892,404.991v-3.6h19.271v3.537H117.9v.061Z" transform="translate(-113.716 -397.222)"/></g></g><g transform="translate(30.786 -18.645)"><path class="c" d="M46.021,29.42a2.488,2.488,0,0,1-1.26-.342L28.949,19.829a2.5,2.5,0,1,1,2.524-4.316l15.811,9.248a2.5,2.5,0,0,1-1.265,4.658ZM17.261,12.6A2.488,2.488,0,0,1,16,12.256L-1.262,2.158a2.5,2.5,0,0,1-.9-3.42,2.5,2.5,0,0,1,3.42-.9L18.526,7.94A2.5,2.5,0,0,1,17.261,12.6Z" transform="translate(289.474 4814.871)"/><path class="c" d="M52.1,2.5H50A2.5,2.5,0,0,1,47.5,0,2.5,2.5,0,0,1,50-2.5h2.1A2.5,2.5,0,0,1,54.6,0,2.5,2.5,0,0,1,52.1,2.5ZM40,2.5H0A2.5,2.5,0,0,1-2.5,0,2.5,2.5,0,0,1,0-2.5H40A2.5,2.5,0,0,1,42.5,0,2.5,2.5,0,0,1,40,2.5Z" transform="translate(283.612 4878.507)"/><path class="c" d="M2.866,27.745A2.5,2.5,0,0,1,1.6,23.086l17.264-10.1A2.5,2.5,0,1,1,21.39,17.3L4.126,27.4A2.489,2.489,0,0,1,2.866,27.745ZM28.762,12.6A2.5,2.5,0,0,1,27.5,7.94l17.264-10.1a2.5,2.5,0,0,1,3.42.9,2.5,2.5,0,0,1-.9,3.42l-17.264,10.1A2.489,2.489,0,0,1,28.762,12.6Z" transform="translate(289.474 4915.225)"/></g><g transform="translate(915.498 4796.226)"><path class="c" d="M46.021,29.419a2.488,2.488,0,0,1-1.26-.342L27.5,18.979a2.5,2.5,0,1,1,2.524-4.316l17.264,10.1a2.5,2.5,0,0,1-1.265,4.658ZM15.809,11.749a2.488,2.488,0,0,1-1.26-.342L-1.262,2.158a2.5,2.5,0,0,1-.9-3.42,2.5,2.5,0,0,1,3.42-.9L17.074,7.09a2.5,2.5,0,0,1-1.265,4.658Z" transform="translate(0.217 100.354)"/><path class="c" d="M52.1,2.5h-40A2.5,2.5,0,0,1,9.6,0a2.5,2.5,0,0,1,2.5-2.5h40A2.5,2.5,0,0,1,54.6,0,2.5,2.5,0,0,1,52.1,2.5Zm-50,0H0A2.5,2.5,0,0,1-2.5,0,2.5,2.5,0,0,1,0-2.5H2.1A2.5,2.5,0,0,1,4.6,0,2.5,2.5,0,0,1,2.1,2.5Z" transform="translate(0 63.637)"/><path class="c" d="M0,29.419a2.5,2.5,0,0,1-2.16-1.238,2.5,2.5,0,0,1,.9-3.42L16,14.663a2.5,2.5,0,1,1,2.524,4.316L1.262,29.077A2.489,2.489,0,0,1,0,29.419ZM25.9,14.273a2.5,2.5,0,0,1-1.265-4.658L41.9-.483a2.5,2.5,0,1,1,2.524,4.316l-17.264,10.1A2.489,2.489,0,0,1,25.9,14.273Z" transform="translate(0.217 0)"/></g></g></svg>