<svg xmlns="http://www.w3.org/2000/svg" width="342" height="155" viewBox="0 0 342 155"><defs><style>.a{fill:none;}.b{fill:#3d3d3d;}.c{fill:#e6d231;}</style></defs><g transform="translate(-24 -898)"><rect class="a" width="342" height="155" transform="translate(24 898)"/><path class="b" d="M-111.22.668q4.324-3.551,4.395-7.875.035-2.566-.914-3.516a82.42,82.42,0,0,1-7.172,5.309q-1.477.949-6.152,3.691A9.04,9.04,0,0,1-123.7-8.332a9.009,9.009,0,0,1,1.723-5.432,8.468,8.468,0,0,1,4.641-3.217v-1.863q-2.531.141-5.2.211l-.141-4.957,4.992.035-.281-3.3,5.027.07q-.246,1.934-.387,3.516l9.07-.211-.211,4.289q-6.855-.035-8.93,0a14.4,14.4,0,0,0-.07,1.652,10.269,10.269,0,0,1,6.258,1.617l1.23-1.512,2.813,2.742-1.441.984A7.944,7.944,0,0,1-102.677-8.3Q-102.677-.914-111.22.668Zm1.16-13.992a6.36,6.36,0,0,0-3.621-.6l-.07,3.41Zm-4.289,3.2-2.777.035v-3.164a3.582,3.582,0,0,0-2.566,3.234,4.03,4.03,0,0,0,.563,2.848ZM-69.187-21.8l-.316,4.852q-3.059-.105-6.434-.281l-.07-4.57Zm-.7,13.324L-71.367-4.43a9.791,9.791,0,0,0-3.656-1.617,5.463,5.463,0,0,1-.949,3.8Q-77.52-.035-80.859-.316a5.043,5.043,0,0,1-3.023-1.406,4.829,4.829,0,0,1-1.477-3.516A4.467,4.467,0,0,1-83.9-8.789a6.444,6.444,0,0,1,4.131-1.617,18.911,18.911,0,0,0-.984-4.184l4.992-.809a34.253,34.253,0,0,1,.738,5.2A28.126,28.126,0,0,1-69.891-8.473Zm-9.281,3.164q.211-1.406-1.125-1.406a1.2,1.2,0,0,0-1.266,1.2,1.161,1.161,0,0,0,.7,1.336,1.784,1.784,0,0,0,.492.07Q-79.348-4.113-79.172-5.309Zm-3.41-15.961-.141,4.43-3.234-.105.035,5.2-4.641-.07q.246-2.848.316-5.1-2.707.352-3.48.387l-.211-4.711,3.656.07-.668-3.586,4.711-.387-.176,4.148ZM-37.491-15.4a20.7,20.7,0,0,1-3.2,7.066q-.035-.316-.562-2.918-4.922.035-6.258,0l.035-4.078Zm-8.191-6.117-.07,3.867q-.035,0-6.5.949-2,6.293-3.551,10.16L-60.1-8.121A60.3,60.3,0,0,0-57.53-16.91q-2.5-.246-3.727-.492l-.141-4.324,4.711-.176q-.07-1.512-.316-3.867l5.414.105a44.146,44.146,0,0,1-.492,4.605ZM-38.44-1.16a5.47,5.47,0,0,1-3.48.914A7.8,7.8,0,0,1-47.9-2.566l1.723-3.48a4.593,4.593,0,0,0,3.34,1.02,6.281,6.281,0,0,0,3.656-.879ZM-7.762-21.48a32.259,32.259,0,0,1-6.363,5.766l.914,14.2H-18.45l.176-12.762a27.954,27.954,0,0,1-6.4.844,20.115,20.115,0,0,1-4.605-.527Q-15.813-20.812-13-25.734Zm35.107,5.7L27.2-11.074q-2.285.035-7.84-.035A9.832,9.832,0,0,1,17.5-4.289Q14.97-.984,9.661-.527,14.9-5.484,14.548-10.863q-3.3.176-9.7.563l-.105-5.273q2.531.035,10.125.035l-.246-3.867a8.519,8.519,0,0,1-1.652.141,15.824,15.824,0,0,1-4.043-.527A6.783,6.783,0,0,1,5.829-21.27a43.544,43.544,0,0,0,9.105-2.355,20.338,20.338,0,0,0,5.344-2.848L23.266-21.8a22.917,22.917,0,0,1-4.043,1.688l.07,4.641Zm31.837-4.184-.07,5.555q-4.57-.105-6.117-.211.211,11,.035,14.871Q50.745-1.3,48.9-2.795T45.752-5.168q1.688.07,3.34.07l-.07-8.859A13.755,13.755,0,0,1,45.26-8.648,13.063,13.063,0,0,1,36.19-5.66a21.792,21.792,0,0,0,5.555-4.852,11.931,11.931,0,0,0,2.461-4.008q-3.656.141-6.926.352l-.141-5.59q7.523.105,11.285.07l-.211-5.344,5.7.105-.387,4.184q-.07.809-.105,1.055Zm22.486-1.125a35.217,35.217,0,0,1-3.445,3.164q-1.687-2.074-3.2-3.691l3.059-2.707ZM92.074-18a14.148,14.148,0,0,1-3.727,9.984Q84.094-3.129,76.395-1.16L74.32-6.4Q85.043-8.051,92.074-18ZM76.359-14.7q-1.687,1.723-3.41,3.34-1.336-1.652-3.2-3.656l3.2-2.707ZM114.49-2.848q5.1-4.113,5.168-8.824a7.073,7.073,0,0,0-.773-3.516,4.277,4.277,0,0,0-2.6-2.18q-2.074,6.82-9.527,12.938a7.846,7.846,0,0,1-3.023-3.762,9.719,9.719,0,0,1-.844-4.5,9.1,9.1,0,0,1,3.551-6.891,10.83,10.83,0,0,1,7.383-2.145,10.32,10.32,0,0,1,7.207,2.988,9.338,9.338,0,0,1,2.566,6.68,8.659,8.659,0,0,1-2.531,6.5A10.612,10.612,0,0,1,114.49-2.848ZM112.8-17.895a4.686,4.686,0,0,0-.984-.105,5.017,5.017,0,0,0-3.533,1.389,5.187,5.187,0,0,0-1.705,3.322,4.96,4.96,0,0,0,.773,3.586,26.654,26.654,0,0,0,3.234-3.973A16.8,16.8,0,0,0,112.8-17.895ZM-67.816,24.27l-.176,4.395-8.508.07a47.339,47.339,0,0,1-3.164,4.043,15.561,15.561,0,0,0,5.379-.457l-.809-1.793,2.672-.949,2.32,4.711a13.112,13.112,0,0,1-6.328,1.3,31.242,31.242,0,0,1-7.453-.949Q-83,32.5-81.492,28.523q-1.336.141-5.168.211l-.281-4.676,6.363-.07-.211-3.586,5.309.141-.562,3.9Q-72.07,24.445-67.816,24.27Zm2.32,22.605a8.932,8.932,0,0,1-4.887,1.09,6.824,6.824,0,0,1-3.8-.984l-.035-10.09,3.551.105-.352,7.348a5.488,5.488,0,0,0,2.074-.281l.141-2.6A39.217,39.217,0,0,0-65.5,46.875ZM-89.051,27.117l-2.461,3.059a38.014,38.014,0,0,0-3.023-2.637l2.25-2.777Zm12.727,11.215-.141,6.715q-.914,0-3.516.246l.07-7Zm-5.1-.246q-.562,7.91-5.59,9.563a25.21,25.21,0,0,0,1.318-4.887,24.191,24.191,0,0,0,.475-5.027Zm-8.156-3.691-1.758,3.129q-1.723-1.3-2.988-2.355l1.863-2.461Zm.949,5.309A23.121,23.121,0,0,1-90.984,47.3l-3.832-3.727A16.294,16.294,0,0,0-88.629,39.7Zm52.615,5.063A114.516,114.516,0,0,1-50.5,45.75a58.01,58.01,0,0,1-10.477-.773l.211-14.027,4.43-.211.211,10.16q4.395.633,5.379.633l-.387-17.156,5.449.176-.211,16.523q1.477.07,2.566.07a12.767,12.767,0,0,0,2.531-.176l.141-10.16,4.043.07Zm20.9.387q5.1-4.113,5.168-8.824a7.073,7.073,0,0,0-.773-3.516,4.277,4.277,0,0,0-2.6-2.18q-2.074,6.82-9.527,12.938a7.846,7.846,0,0,1-3.023-3.762,9.719,9.719,0,0,1-.844-4.5,9.1,9.1,0,0,1,3.551-6.891,10.83,10.83,0,0,1,7.383-2.145,10.32,10.32,0,0,1,7.207,2.988A9.338,9.338,0,0,1-6,35.941a8.659,8.659,0,0,1-2.531,6.5A10.612,10.612,0,0,1-15.11,45.152ZM-16.8,30.105A4.686,4.686,0,0,0-17.782,30a5.017,5.017,0,0,0-3.533,1.389,5.187,5.187,0,0,0-1.705,3.322,4.96,4.96,0,0,0,.773,3.586,26.654,26.654,0,0,0,3.234-3.973A16.8,16.8,0,0,0-16.8,30.105Zm48.009,6.363q-2.074,3.8-3.375,6.469a12.716,12.716,0,0,1-2.461-4.113,26.343,26.343,0,0,1-1.863-10.16q0-1.336.105-2.672l-14.133.7A8.972,8.972,0,0,1,9.7,28.77q0,8.367-6.539,12.34a41.464,41.464,0,0,0,2.426-19.3q15.4.07,21.445-.105,0,1.16-.141,3.48t-.141,3.48q0,6.75,1.617,8.754Zm-8.4,10.16a25.985,25.985,0,0,1-6.891.914,21.768,21.768,0,0,1-4.852-.492l.316-3.27a11.9,11.9,0,0,0,3.41.387L15,41.426q-2.988-.176-4.746-.211L9.977,34.57l4.922-.105-.07-1.758q-3.27-.316-4.5-1.934,6.961-1.02,9.422-2.391L21.72,31.16a9.53,9.53,0,0,1-3.762,1.266l-.07,1.9,4.746.141q0,2.426-.176,6.5l-4.887.211.246,3.2a7.173,7.173,0,0,0,2.215-.281l-.211-1.687,2.531-.211ZM19.68,39.035V37.453l-1.582.07v1.441A5.555,5.555,0,0,0,19.68,39.035Zm-5.1-1.512-1.652.035v1.406a13.924,13.924,0,0,0,1.617-.035ZM55.772,20.578q-.281,3.27-.281,5.59a23.171,23.171,0,0,0,.105,2.355q-4.922.281-8.719.281a45.7,45.7,0,0,1-5.977-.281,79.729,79.729,0,0,1,.316-8.016Zm-4.535,2.5-6.152.07.035,1.2q1.652.035,6.047-.211Zm-.281,4.113-.035-1.477-5.52.105.07,1.336A15.658,15.658,0,0,0,48,27.328Q49.3,27.328,50.955,27.188Zm8.754,7.137-22.57.492-.176-3.551q6.645.141,9.563.105V29.578l3.938-.141.035,1.9q6.223,0,9.211-.211ZM59.182,44.66l-2.074,3.516a12.018,12.018,0,0,1-3.937-3.727l1.2-1.336A8.6,8.6,0,0,0,59.182,44.66Zm-4.254-8.754-.176,6.152a22.417,22.417,0,0,1-4.359.422l.105,6.855L44.663,46q1.512.035,2.461-.035V42.832q-2.215,0-4.289-.176l-.527-6.574Q50.745,36.082,54.928,35.906ZM50.85,40.2V38.227q-.246.035-4.535.105l.035,1.934a11.131,11.131,0,0,0,1.406.07Q48.952,40.336,50.85,40.2Zm-7.594,4.676a7.416,7.416,0,0,1-5.73,2.285,7.577,7.577,0,0,1-.809-.035q3.094-2.953,3.586-4.395Zm46.181-9.7a27.706,27.706,0,0,0-3.8,1.09q.316,1.266.773,3.129L82.9,40.23a7.842,7.842,0,0,0-.492-2.566q-3.656,1.547-3.34,4.113Q79.277,43.5,82.3,43.5a17.852,17.852,0,0,0,3.551-.422l.246,4.711a17.732,17.732,0,0,1-3.27.316q-6.047,0-7.453-4.008a8.232,8.232,0,0,1-.457-2.6q0-4.641,6.4-7.207-.562-1.09-2.5-1.09a12.916,12.916,0,0,0-2.285.246l-.105-4.254q-1.652.07-4.324.176l-.176-5.133q3.48-.035,4.219-.141l-.07-3.2,5.414.07a33.2,33.2,0,0,0-.387,3.867l1.406-.07,4.816-.176-.07,4.359-7-.176q-.035.316-.211,1.934a4.042,4.042,0,0,1,4.078,2.145Q85.254,32.391,88,31.23ZM-98.494,79.652a20.6,20.6,0,0,1-4.781.7,20.492,20.492,0,0,1-4.219-.492q.035-.633.105-5.871l-3.234-.211a4.7,4.7,0,0,1-1.055,3.234,7.138,7.138,0,0,1-4.395,2.672q2.039-2.32,2.039-6.75a11.049,11.049,0,0,0-.422-3.234q1.582.141,4.957.141,2.426,0,5.766-.07,0,.668-.246,7.313a8.933,8.933,0,0,0,1.02.07,2.362,2.362,0,0,0,1.23-.246l.105-2.426Zm-1.055,12.094-2.461,5.379-5.977-4.008q-2.215,2-7.172,2.32,3.551-2.812,4.465-4.676l-2.145-2.074,1.02-2q1.055.844,3.059,2.145A10.894,10.894,0,0,0-107.6,85.7q-4.5.246-6.4.211l-.141-4.184q6.785.246,10.688.176a15.409,15.409,0,0,1-2.391,8.156,11.085,11.085,0,0,0,5.555,1.758A3.433,3.433,0,0,0-99.548,91.746ZM-117.2,84.328a8.84,8.84,0,0,1-.809,1.441,10.6,10.6,0,0,1-2.566,2.355q-.035,4.113-.316,7.488-3.656-3.48-4.254-3.937h1.793l.105-2.637q-2.531.246-3.656.281l.035-3.375q1.2-.035,3.023-.176l.141-5.062q-2.461.316-3.27.352l-.141-4.5,3.34-.176.035-4.395h3.691l-.422,4.078,2.566-.035V80.18l-2.672.387-.07,4.395Q-119.06,84.715-117.2,84.328ZM-66.8,74.1q-3.375.07-6.363.07-6.152,0-9.457-.281L-82.863,71q5.027-.07,5.906-.176l-.281-3.3,4.781.035-.422,2.918q2.883,0,6.082-.07Zm-3.516,1.371-.281,5.906q-4.781.176-8.191.176-.035-4.148-.105-6.012ZM-73.477,79.2a5.713,5.713,0,0,0,0-1.266l-2.25.105q0,.211.035,1.16.492.035,1.055.035T-73.477,79.2Zm6.75,3.867q.141,5.871-.422,14.168-1.793-1.371-5.1-3.8a22.314,22.314,0,0,0,2.6-.141q-.457-5.238-.422-7.137l-9.949-.211q.141,5.941.141,9.105l-3.445.07q.352-9.422.281-11.883Zm-5.836,9.422a8.519,8.519,0,0,1-2.6.352,13.431,13.431,0,0,1-2.5-.246l-.176-4.465,5.2-.105Zm-1.828-1.3-.105-1.09-1.09.07v1.055A6.8,6.8,0,0,0-74.391,91.184ZM-83.918,84.4a2.627,2.627,0,0,1-2.848,1.969,5.911,5.911,0,0,1-1.09-.105l.211,8.895h-3.832q.352-5.977.316-7.559a7.814,7.814,0,0,1-5.73,1.688q1.125-.949,3.3-2.848a7.069,7.069,0,0,0,2.355-3.3V82.008l-4.43.105-.07-3.2q3.023.07,4.676-.035l.07-2.848a12.186,12.186,0,0,1-2.074.176,10.676,10.676,0,0,1-3.234-.457q6.891-3.094,8.859-4.852l3.094,3.9q-2.707.809-3.445.949v3.27q1.828-.141,3.48-.211l-.105,3.516-3.059-.211.035,1.477A7.632,7.632,0,0,0-83.918,84.4Zm43.615.914a8.064,8.064,0,0,1-1.934,5.836,7.336,7.336,0,0,1-5.73,2.426,11.586,11.586,0,0,1-1.969-.176q-6.223-1.23-6.223-12.832a52.427,52.427,0,0,1,.492-6.82l5.977-.035a66.51,66.51,0,0,0-.633,7.91q0,6.152,2.777,6.785a5.365,5.365,0,0,0,1.371.176A6.679,6.679,0,0,0-40.3,85.313Zm33.209-7.066q-6.223,1.441-6.715,6.609-.352,3.41,2.883,6.5l-5.59,2.531a12.977,12.977,0,0,1-2.918-7.875,7.756,7.756,0,0,1,.176-1.652A7.441,7.441,0,0,1-17.782,81.2a8.481,8.481,0,0,1,3.164-2.566q-5.625.422-11.777.668L-26.5,74.66q12.832-.281,19.336-.7ZM24.075,88.9l-4.184,5.484q-8.3-7.7-13.605-11.812,9.809-8.613,13.254-11.426L22.6,75.188q-7.629,5.379-9.633,6.68Q18.274,85.453,24.075,88.9Zm36.795-16-.246,2.742a10.9,10.9,0,0,0-1.863.6l-.527-2.918ZM57,76.172a10.9,10.9,0,0,0-1.863.6l-.809-2.918L57,73.43Zm2.848,4.254a20.694,20.694,0,0,1-3.164,7.031q-.035-.316-.562-2.918-4.957.035-6.258,0l.035-4.078Zm-8.156-6.152-.105,3.867q-.035.035-6.469.949-2.039,6.293-3.551,10.16l-4.324-1.582a64.064,64.064,0,0,0,2.6-8.789q-2.5-.246-3.762-.492l-.105-4.324,4.711-.176q-.105-1.477-.352-3.867l5.449.141q-.211,2.742-.527,4.605ZM58.9,94.664a5.471,5.471,0,0,1-3.445.879,7.918,7.918,0,0,1-6.012-2.32l1.723-3.48a4.669,4.669,0,0,0,3.34,1.02,6.354,6.354,0,0,0,3.691-.879ZM90.563,78.879q-3.34.668-5.344,1.23,1.2,5.027,2.109,8.086-5.414-1.687-7.488-2.531.949-.176,2.883-.492L81,81.2,70.523,83.063l-1.371-4.957q2.707-.422,5.414-.879,3.34-.562,5.379-1.09l-1.863-4.465,5.379-1.23.387,5.414,3.867-.633q1.758-.316,2.355-.457ZM81.281,90.691l-.246,4.641q-7.8.281-9.7-5.977l3.656-2q.563,3.445,4.57,3.445A15.723,15.723,0,0,0,81.281,90.691Zm43.263-.07q-4.184-2.812-4.957-3.27a9.45,9.45,0,0,0-2.039-1.125q1.055-.141,3.164-.352.07-.738.07-1.512a13.148,13.148,0,0,0-2.145-7.172l4.711-1.23a25.754,25.754,0,0,1,1.688,9.246A31.411,31.411,0,0,1,124.545,90.621Zm-13.113-6.187q-3.059,3.27-3.234,3.48-1.055,1.23-2.531,3.3-3.8-3.234-4.219-13.324l4.957-.738q-.035,6.082,1.055,8.156Z" transform="translate(195 953)"/><g transform="translate(101 -239)"><path class="c" d="M108.9,301.132a.438.438,0,0,1-.051,0,.626.626,0,0,1-.585-.6.91.91,0,0,0-.014-.108,2,2,0,0,1-.032-.333,1.328,1.328,0,0,0-.012-.139,2.48,2.48,0,0,1-.019-.335l0-.17c0-.1,0-.2.009-.308a2.338,2.338,0,0,1,.046-.316c.009-.05.021-.1.025-.152a1.293,1.293,0,0,1,.121-.422l.01-.021,0-.007a1.035,1.035,0,0,1,.129-.96l0,0,0-.01a1.285,1.285,0,0,1-.009-.46,1.334,1.334,0,0,1,.162-.406c.012-.022.026-.044.036-.067a1.735,1.735,0,0,1,.1-.3,1.048,1.048,0,0,0,.046-.126.789.789,0,0,0,.017-.127,2.081,2.081,0,0,1,.061-.344.714.714,0,0,0,.007-.087,1.568,1.568,0,0,1,.064-.388c.034-.1.076-.2.119-.3.022-.05.044-.1.062-.148a.908.908,0,0,1,.062-.133v-.009l-.014-.04a1.192,1.192,0,0,1-.1-.452.85.85,0,0,0-.017-.139,2.542,2.542,0,0,1-.029-.286c0-.081,0-.161,0-.24,0-.063,0-.125,0-.187a1.06,1.06,0,0,1,.134-.545l-.006-.071c0-.053-.008-.105-.014-.156a1.136,1.136,0,0,1-.247-.458,1.494,1.494,0,0,0-.062-.189c-.022-.061-.045-.124-.065-.187a.6.6,0,0,0-.285-.693c-.034-.059-.064-.121-.094-.182a1.206,1.206,0,0,0-.07-.132c.018.026,0,.014-.023,0a1.471,1.471,0,0,1-.29-.211.928.928,0,0,1-.251-.491,1.909,1.909,0,0,1-.257-.125c-.056-.035-.113-.073-.17-.111a1.648,1.648,0,0,0-.181-.113,1.4,1.4,0,0,0-.18-.069c-.074-.026-.149-.052-.221-.081a2.42,2.42,0,0,1-.258-.132c-.029-.017-.057-.035-.088-.05l-.032,0a1.257,1.257,0,0,1-.462-.034c-.083-.024-.167-.043-.251-.063l-.174-.042c-.09-.022-.182-.041-.274-.06l-.159-.033c-.066-.015-.136-.023-.205-.032s-.155-.021-.233-.036a.951.951,0,0,1-.354-.149,1.514,1.514,0,0,1-.274-.022.933.933,0,0,1-.254,0,1.046,1.046,0,0,1-.1-.02,1.793,1.793,0,0,1-.342.017c-.055,0-.111,0-.167,0-.1,0-.208,0-.312-.008s-.192-.024-.287-.04c-.061-.01-.121-.021-.182-.027a1.079,1.079,0,0,1-.515-.216l-.012-.009-.146-.018c-.062-.008-.124-.017-.186-.023a1.105,1.105,0,0,1-.484.088,1.474,1.474,0,0,1-.229-.035.983.983,0,0,1-.228.013c-.068,0-.136,0-.2,0s-.16,0-.24,0a2.065,2.065,0,0,1-.279-.031.821.821,0,0,0-.09-.013.675.675,0,0,1-.078,0,.631.631,0,0,1,.03-1.259,1.173,1.173,0,0,1,.485-.081c.09.006.182.02.276.035a1.513,1.513,0,0,0,.179.024c.05,0,.1.009.141.017a1.143,1.143,0,0,1,.332-.029c.09.007.178,0,.264.006a.906.906,0,0,1,.2-.007l.471.032a1.51,1.51,0,0,1,.395.1.712.712,0,0,0,.086.028,1.033,1.033,0,0,1,.433.151,1.06,1.06,0,0,1,.5-.079,1.367,1.367,0,0,1,.355.1h.011c.042,0,.085.005.127.009a1.137,1.137,0,0,1,.369-.049.923.923,0,0,1,.339-.1,1.783,1.783,0,0,0,.2-.039c.061-.014.123-.028.187-.039a2.337,2.337,0,0,1,.262-.029,1,1,0,0,0,.13-.013.7.7,0,0,0,.1-.052,2.072,2.072,0,0,1,.246-.12.909.909,0,0,1,.481-.043,1.09,1.09,0,0,1,.255-.235c.013-.011.032-.035.053-.058a1.7,1.7,0,0,1,.237-.227c.105-.081.2-.167.307-.261a2.606,2.606,0,0,1,.21-.163.875.875,0,0,0,.12-.093,1.343,1.343,0,0,1,.335-.235.674.674,0,0,0,.065-.036s.012-.038.032-.074a2,2,0,0,1,.17-.256c-.015.017-.011,0,0-.026a1.3,1.3,0,0,1,.177-.368,2.047,2.047,0,0,1,.205-.233.744.744,0,0,0,.077-.082.632.632,0,0,0,.053-.118,2.167,2.167,0,0,1,.125-.262,2.627,2.627,0,0,1,.152-.226.757.757,0,0,0,.082-.121,1.188,1.188,0,0,1,.251-.319,1.048,1.048,0,0,1,.06-.455,1.018,1.018,0,0,1,.311-.411v-.008a1.622,1.622,0,0,1,.051-.348,1.06,1.06,0,0,0,.025-.153,2.55,2.55,0,0,1,.043-.264,1.211,1.211,0,0,1,.2-.419l.006-.009,0-.034a1.555,1.555,0,0,1,0-.369,1.962,1.962,0,0,1,.08-.317l.02-.058a1.242,1.242,0,0,1-.082-.486,1.3,1.3,0,0,0-.006-.15,2.583,2.583,0,0,1-.01-.278c0-.085.011-.172.021-.26a1.392,1.392,0,0,0,.014-.172,1.643,1.643,0,0,0-.014-.171c-.01-.086-.02-.173-.023-.259a.633.633,0,0,1,.258-.532,1.158,1.158,0,0,1,.124-.326,1.129,1.129,0,0,1-.088-.435.965.965,0,0,1,.127-.443.976.976,0,0,1-.124-.436,1.323,1.323,0,0,0-.019-.165c-.013-.088-.025-.176-.03-.265a1.094,1.094,0,0,1,.1-.5l-.01-.029a1.742,1.742,0,0,1-.088-.333,1.573,1.573,0,0,1,0-.341.987.987,0,0,1-.278-.459.631.631,0,0,1,1.182-.422,1.043,1.043,0,0,1,.344.557,1.6,1.6,0,0,1,.012.407.593.593,0,0,0-.005.094.727.727,0,0,0,.028.081,1.6,1.6,0,0,1,.1.388,1.1,1.1,0,0,1-.11.538l0,.014.012.084c.011.076.022.152.028.228a1.1,1.1,0,0,1,.181.565.986.986,0,0,1-.146.492.988.988,0,0,1-.079.946l0,.007.008.056a2.2,2.2,0,0,1,.021.291l.014.042a1.185,1.185,0,0,1,.084.473.984.984,0,0,1-.24.561l-.021.519,0,.066a.871.871,0,0,1,0,.134l0,.035v.02c0,.072,0,.144,0,.216s0,.154,0,.231a.85.85,0,0,0,.017.128,2.193,2.193,0,0,1,.034.31.84.84,0,0,0,.021.088,1.655,1.655,0,0,1,.061.346,2.209,2.209,0,0,1-.013.3.834.834,0,0,0-.007.132.563.563,0,0,0,.027.083,1.751,1.751,0,0,1,.082.336,1.075,1.075,0,0,1-.065.484,1.388,1.388,0,0,1,.142.365c0-.024.009,0,.023.016a1.369,1.369,0,0,1,.171.37c.02.074.035.148.05.221s.024.124.043.186a1.091,1.091,0,0,1,.022.522v.007c.024.055.051.112.077.168l.064.14c.034.072.062.149.09.227.008.02.016.041.023.062a1.01,1.01,0,0,1,.429.372,1.88,1.88,0,0,1,.133.288.6.6,0,0,0,.042.1.619.619,0,0,0,.08.083,2.17,2.17,0,0,1,.2.226,1.46,1.46,0,0,1,.181.338.614.614,0,0,0,.032.074,1.11,1.11,0,0,1,.172.308.981.981,0,0,1,.453.247l.116.118c.061.063.122.127.187.187a2.172,2.172,0,0,1,.207.231.764.764,0,0,0,.082.1.851.851,0,0,0,.118.076,2.269,2.269,0,0,1,.246.168.7.7,0,0,0,.105.058,2.144,2.144,0,0,1,.272.165,1.293,1.293,0,0,1,.291.32c.014.019.026.039.041.057,0-.01.046.013.09.035a2.419,2.419,0,0,1,.259.142c.122.079.245.156.371.232a1.188,1.188,0,0,1,.316.3,1.084,1.084,0,0,1,.465.115.943.943,0,0,1,.319.287.889.889,0,0,1,.49.072.812.812,0,0,1,.3.243c.044.01.09.015.136.022a2.507,2.507,0,0,1,.313.06,1.258,1.258,0,0,1,.338.154.767.767,0,0,1,.133.039.863.863,0,0,1,.2.113l.044.018a1.513,1.513,0,0,0,.146.057c.092.029.182.064.271.1l.008,0a.861.861,0,0,1,.274.087l.027.005c.081.016.162.033.24.056a1.2,1.2,0,0,1,.55.034,1.494,1.494,0,0,1,.351.188.789.789,0,0,0,.072.046.79.79,0,0,1,.122.054c.056.025.1.051.147.073a.615.615,0,0,0,.077.039,2.258,2.258,0,0,1,.263.081c.029.01.057.021.086.03a.947.947,0,0,1,.144.04.631.631,0,0,1-.333,1.214l-.095-.023-.053,0a1.47,1.47,0,0,1-.4-.073,1.263,1.263,0,0,1-.373-.221h-.018a1.3,1.3,0,0,1-.448-.035.521.521,0,0,1-.064,0,1.4,1.4,0,0,1-.416-.053,1.015,1.015,0,0,1-.423-.275,1.049,1.049,0,0,1-.474-.044.975.975,0,0,0-.893-.336.764.764,0,0,0-.1-.022,1.641,1.641,0,0,1-.365-.1.8.8,0,0,1-.247-.172,1.062,1.062,0,0,1-.457.025,2.112,2.112,0,0,1-.292-.082.8.8,0,0,0-.127-.038,1.1,1.1,0,0,1-.489-.227l-.01-.007-.128-.02c-.071-.012-.141-.024-.211-.029a1.474,1.474,0,0,0-.16.008c-.093.008-.191.013-.273.012s-.149-.006-.223-.012a1.786,1.786,0,0,0-.2-.009l-.16,0c-.089,0-.179,0-.265.011a.835.835,0,0,0-.139.036,2.274,2.274,0,0,1-.271.067c-.015.006-.043.022-.072.035a1.74,1.74,0,0,1-.316.121,1.339,1.339,0,0,0-.17.063c-.068.028-.137.056-.208.08a1.672,1.672,0,0,0-.2.088l-.163.076a1.411,1.411,0,0,1-.363.1c-.026,0-.051.007-.075.013.014,0-.011.029-.038.055a2.122,2.122,0,0,1-.2.177,1.1,1.1,0,0,1-.4.178,1.416,1.416,0,0,1-.2.311,1.386,1.386,0,0,1-.285.241.816.816,0,0,0-.067.048l-.125.206-.073.118a.824.824,0,0,0-.046.114,2.2,2.2,0,0,1-.119.277,1.76,1.76,0,0,1-.18.258.892.892,0,0,1-.134.766c0,.018,0,.035,0,.053a1.139,1.139,0,0,1-.154.478.119.119,0,0,1-.017.03c-.01.083-.025.166-.041.249-.01.052-.021.1-.026.158a.885.885,0,0,0,0,.126,1.993,1.993,0,0,1-.007.337c.005-.03.01,0,.015.021a1.266,1.266,0,0,1,.03.45,1.165,1.165,0,0,1-.183.458l-.015.023c0,.033,0,.066,0,.1a2.3,2.3,0,0,1-.025.312,1.171,1.171,0,0,1-.17.42,1.088,1.088,0,0,1,.032.484c0,.027,0,.059,0,.092a1.466,1.466,0,0,1-.021.365,1.569,1.569,0,0,1-.126.364.656.656,0,0,0-.035.077c-.008.044-.013.1-.018.154a2.68,2.68,0,0,1-.041.287c-.012.061-.021.123-.028.185-.013.088-.024.174-.042.257a1.42,1.42,0,0,1-.137.366A.652.652,0,0,1,108.9,301.132Zm1.249-4.026v0Zm.224-1.825h0Zm-1.118-.972v0Zm-.011-1.743a.109.109,0,0,0,0,.018Zm-.041-.4v0Zm.976-.736a1.137,1.137,0,0,1,.27.532c0,.022.007.044.01.067.04-.031.078-.057.112-.08a.739.739,0,0,0,.064-.046c-.017.011,0-.018.011-.042a1.308,1.308,0,0,1,.269-.389,1.093,1.093,0,0,1,.52-.253l.024-.006.045-.043a1.609,1.609,0,0,1,.338-.264,1.3,1.3,0,0,1,.449-.139c.024,0,.05-.007.073-.013l.105-.051a2.989,2.989,0,0,1,.339-.146c.047-.016.091-.034.135-.052a2.47,2.47,0,0,1,.345-.12c.025-.009.053-.024.081-.037a1.472,1.472,0,0,1,.4-.139c.041-.007.083-.021.126-.033a1.93,1.93,0,0,1,.37-.081c.119-.012.243-.015.367-.017l.06,0a1.419,1.419,0,0,1-.235-.274.637.637,0,0,0-.04-.057.414.414,0,0,1-.075-.032,1.922,1.922,0,0,1-.3-.189,1.162,1.162,0,0,0-.117-.076,2.079,2.079,0,0,1-.283-.2,1.882,1.882,0,0,1-.246-.266.89.89,0,0,0-.08-.093c-.082-.076-.159-.156-.236-.236l-.035-.035a1.038,1.038,0,0,1-.544-.29,1.273,1.273,0,0,1-.236-.406c-.009-.022-.017-.046-.028-.067a1.256,1.256,0,0,1-.19-.346.613.613,0,0,0-.032-.074c-.015-.019-.046-.047-.075-.076a1.865,1.865,0,0,1-.237-.275,1.717,1.717,0,0,1-.171-.349l0-.013a.981.981,0,0,1-.452-.409,2.638,2.638,0,0,1-.134-.32c-.018-.047-.035-.1-.055-.14l-.058-.124c-.051-.109-.1-.217-.143-.326a1.087,1.087,0,0,1-.038-.573l0-.021c-.023-.082-.04-.166-.057-.25-.01-.049-.019-.1-.032-.146,0,.012-.014-.012-.026-.031a1.352,1.352,0,0,1-.175-.381,1.312,1.312,0,0,1-.243.282l-.048.046a1.438,1.438,0,0,1-.157.245,1.255,1.255,0,0,0-.078.113.891.891,0,0,0-.052.114,1.927,1.927,0,0,1-.161.321,1.64,1.64,0,0,1-.238.282.687.687,0,0,0-.078.084c.009-.009,0,.015-.006.037a1.256,1.256,0,0,1-.207.407.882.882,0,0,0-.062.1,1.848,1.848,0,0,1-.211.306,1.3,1.3,0,0,1-.382.282c-.021.012-.042.022-.061.035a1.853,1.853,0,0,1-.258.209,1.1,1.1,0,0,0-.1.076c-.13.116-.252.223-.382.322a.536.536,0,0,0-.07.073,1.509,1.509,0,0,1-.3.272c.028-.019.016,0,0,.018a1.354,1.354,0,0,1-.241.263c.056.028.111.058.166.089a.864.864,0,0,0,.116.062c.047.02.1.037.145.054a2.585,2.585,0,0,1,.334.133,2.766,2.766,0,0,1,.324.2c.04.027.08.054.12.079a.627.627,0,0,0,.1.044,1.56,1.56,0,0,1,.381.2.924.924,0,0,1,.332.592,1.2,1.2,0,0,1,.347.294,1.948,1.948,0,0,1,.207.351l.014.03a1.011,1.011,0,0,1,.45.467.979.979,0,0,1,.016.645l.013.037C110.121,291.249,110.152,291.337,110.177,291.428Zm.019.076h0Zm5.9-.109h0Zm-6.451-1.3h0Zm.6-15.048h0Zm.865-.841h0Z" transform="translate(81.04 870)"/><path class="c" d="M129.2,275.609c-4.362.506-5.311,4.456-5.785,7.391-.474-2.935-1.3-4.891-1.928-5.431a5.551,5.551,0,0,0-5.121-1.833c5.374-1.321,6.765-3.92,7.4-8.3C123.76,272.574,125.214,274.415,129.2,275.609Z" transform="translate(81.04 870)"/></g></g></svg>