<svg xmlns="http://www.w3.org/2000/svg" width="326.184" height="76.165" viewBox="0 0 326.184 76.165">
  <g id="グループ_109" data-name="グループ 109" transform="translate(-29.5 -2637)">
    <path id="パス_538" data-name="パス 538" d="M-93.164-14.133a20.461,20.461,0,0,1-5.309.668,50.911,50.911,0,0,1-5.8-.457v-4.43a18.338,18.338,0,0,1-3.164-.7q.844-.281,3.234-1.23l-.316-6.223,4.5.07q-.141,1.828-.422,4.641,1.828-.844,2.285-1.09a12.362,12.362,0,0,0,2.074-1.406l1.934,2.707a21.45,21.45,0,0,1-5.871,2.707v2.109a39.633,39.633,0,0,0,4.254-.246,6.378,6.378,0,0,0,1.828-1.547Zm-16.77-9.281-.07,3.2-3.8-.07-.141,2.883q.492-.07,3.762-1.055a11.935,11.935,0,0,1-3.762,3.762,16.656,16.656,0,0,1-7.418,2.742l-.984-3.059a25.946,25.946,0,0,0,3.973-1.16l-.527-10.09,5.027-.211-.105,3.41A34.54,34.54,0,0,0-109.934-23.414ZM-100.652,0a53.389,53.389,0,0,1-7.559.527,48.644,48.644,0,0,1-6.75-.422q0-9.07-.105-11.074,2.285-.176,4.289-.281,1.9-2.426,2.777-3.727a38.427,38.427,0,0,0,3.656,2.531,10.905,10.905,0,0,1-2.918,1.406l6.539-.035q-.035,2.777-.035,5.027Q-100.758-2.32-100.652,0ZM-106-8.437l-3.832-.07.035,2.215q.914,0,3.727-.141Zm.281,6.258-.07-1.758h-3.762l.07,2.039A13.727,13.727,0,0,0-105.715-2.18Zm39.677-14.941q-3.34.668-5.344,1.23,1.2,5.027,2.109,8.086-5.414-1.687-7.488-2.531.949-.176,2.883-.492L-75.6-14.8l-10.477,1.863-1.371-4.957q2.707-.422,5.414-.879,3.34-.562,5.379-1.09l-1.863-4.465,5.379-1.23.387,5.414,3.867-.633q1.758-.316,2.355-.457ZM-75.319-5.309l-.246,4.641q-7.8.281-9.7-5.977l3.656-2q.563,3.445,4.57,3.445A15.723,15.723,0,0,0-75.319-5.309Zm36.5,1.617L-41.175.246A40.823,40.823,0,0,0-45.6-3.2,5.177,5.177,0,0,1-50.245-.914a4.064,4.064,0,0,1-4.359-3.2,4.528,4.528,0,0,1-.105-.949A3.61,3.61,0,0,1-53.532-7.77a4.175,4.175,0,0,1,3.006-1.125,5.461,5.461,0,0,1,1.793.316q-.07-1.687-.07-2.285l-6.891-.316-.035-3.2,6.715-.422-.141-2.074h-6.293l-.246-4.887,6.4-.07-1.02-4.078,5.2-.422.141,4.535,4.887.07v4.5q-1.406.105-4.711.492.141,1.266.176,2l4.605.211.141,3.41a37.171,37.171,0,0,1-4.535.457,23.106,23.106,0,0,1-.281,3.867A47.4,47.4,0,0,1-38.82-3.691ZM-48.98-5.625A1.854,1.854,0,0,0-50.6-5.941a.92.92,0,0,0-.738.984q.035.949,1.3.949a2.8,2.8,0,0,0,1.125-.229q.527-.229.527-.615T-48.98-5.625Zm32.07,2.777q5.1-4.113,5.168-8.824a7.073,7.073,0,0,0-.773-3.516,4.277,4.277,0,0,0-2.6-2.18q-2.074,6.82-9.527,12.938a7.846,7.846,0,0,1-3.023-3.762,9.719,9.719,0,0,1-.844-4.5,9.1,9.1,0,0,1,3.551-6.891,10.83,10.83,0,0,1,7.383-2.145,10.32,10.32,0,0,1,7.207,2.988A9.338,9.338,0,0,1-7.8-12.059a8.659,8.659,0,0,1-2.531,6.5A10.612,10.612,0,0,1-16.91-2.848ZM-18.6-17.895A4.686,4.686,0,0,0-19.582-18a5.017,5.017,0,0,0-3.533,1.389,5.187,5.187,0,0,0-1.705,3.322A4.96,4.96,0,0,0-24.047-9.7a26.654,26.654,0,0,0,3.234-3.973A16.8,16.8,0,0,0-18.6-17.895Zm44.3,1.547a20.6,20.6,0,0,1-4.781.7,20.492,20.492,0,0,1-4.219-.492q.035-.633.105-5.871l-3.234-.211a4.7,4.7,0,0,1-1.055,3.234,7.138,7.138,0,0,1-4.395,2.672q2.039-2.32,2.039-6.75A11.049,11.049,0,0,0,9.745-26.3q1.582.141,4.957.141,2.426,0,5.766-.07,0,.668-.246,7.313a8.933,8.933,0,0,0,1.02.07,2.362,2.362,0,0,0,1.23-.246l.105-2.426ZM24.652-4.254,22.191,1.125,16.214-2.883Q14-.879,9.042-.562q3.551-2.812,4.465-4.676L11.363-7.312l1.02-2q1.055.844,3.059,2.145A10.894,10.894,0,0,0,16.6-10.3q-4.5.246-6.4.211l-.141-4.184q6.785.246,10.687.176a15.409,15.409,0,0,1-2.391,8.156,11.085,11.085,0,0,0,5.555,1.758A3.433,3.433,0,0,0,24.652-4.254ZM7-11.672a8.84,8.84,0,0,1-.809,1.441A10.6,10.6,0,0,1,3.628-7.875Q3.593-3.762,3.312-.387-.345-3.867-.942-4.324H.851L.956-6.961q-2.531.246-3.656.281l.035-3.375q1.2-.035,3.023-.176L.5-15.293q-2.461.316-3.27.352l-.141-4.5,3.34-.176.035-4.395H4.155l-.422,4.078L6.3-19.969v4.148l-2.672.387-.07,4.395Q5.14-11.285,7-11.672ZM57.4-21.9q-3.375.07-6.363.07-6.152,0-9.457-.281L41.337-25q5.027-.07,5.906-.176l-.281-3.3,4.781.035-.422,2.918q2.883,0,6.082-.07Zm-3.516,1.371-.281,5.906q-4.781.176-8.191.176-.035-4.148-.105-6.012ZM50.723-16.8a5.713,5.713,0,0,0,0-1.266l-2.25.105q0,.211.035,1.16.492.035,1.055.035T50.723-16.8Zm6.75,3.867q.141,5.871-.422,14.168-1.793-1.371-5.1-3.8a22.314,22.314,0,0,0,2.6-.141q-.457-5.238-.422-7.137l-9.949-.211q.141,5.941.141,9.105l-3.445.07q.352-9.422.281-11.883ZM51.637-3.516a8.519,8.519,0,0,1-2.6.352,13.431,13.431,0,0,1-2.5-.246l-.176-4.465,5.2-.105Zm-1.828-1.3L49.7-5.906l-1.09.07v1.055A6.8,6.8,0,0,0,49.809-4.816ZM40.282-11.6a2.627,2.627,0,0,1-2.848,1.969,5.911,5.911,0,0,1-1.09-.105l.211,8.895H32.723q.352-5.977.316-7.559a7.814,7.814,0,0,1-5.73,1.688q1.125-.949,3.3-2.848a7.069,7.069,0,0,0,2.355-3.3v-1.125l-4.43.105-.07-3.2q3.023.07,4.676-.035l.07-2.848a12.186,12.186,0,0,1-2.074.176,10.676,10.676,0,0,1-3.234-.457Q34.8-23.344,36.766-25.1l3.094,3.9q-2.707.809-3.445.949v3.27q1.828-.141,3.48-.211l-.105,3.516-3.059-.211.035,1.477A7.632,7.632,0,0,0,40.282-11.6Zm49.24-10.863-.176,4.043q-5.344.211-6.82.176l.035,2.672q3.656-.105,5.555-.246l-.035,3.9q-3.973-.141-5.73-.105l.176,2.707q4.781.035,6.082-.035L88.5-5.484H82.42l.035,5.52L78.131,0l.246-18.176-2-.035a7.793,7.793,0,0,1-5.7,2.25,35.961,35.961,0,0,0,4.465-6.609,22.868,22.868,0,0,0,2-4.922l4.5,2.109a12.884,12.884,0,0,1-2.18,3.2Zm-17.93,1.336a19.52,19.52,0,0,1-4.008,3.621q.949,13.465.949,15.609l-4.008.105.387-14.977a9.339,9.339,0,0,1-4.008.809,13.316,13.316,0,0,1-1.652-.105q6.68-4.992,8.508-8.543Zm43.3,7.453q-9-.281-13.289-.176-.246-4.219-.246-7.559,0-2.461.141-4.465,9.773,0,13.359.141Zm-3.973-3.937-.141-3.832a40.212,40.212,0,0,0-4.676-.105l-.211,3.973q1.23.07,2.355.07Q109.617-17.508,110.918-17.613ZM120.938-.879q-3.375.141-5.766.141a24.689,24.689,0,0,1-4.816-.316q-.07-7.875.07-9.879l9.914-.035Q120.973-4.359,120.938-.879ZM117.246-4.5q0,.457-.105-2.777l-2.883-.07v3.023q.457.035.914.035A10.559,10.559,0,0,0,117.246-4.5ZM105.5-.879A65.256,65.256,0,0,1,95.414-1.2l.141-9.422q2.672-.07,4.746-.07,2.918,0,4.676.141Zm-3.34-3.727q0-.457-.07-2.25l-3.3-.176-.07,2.742A9.813,9.813,0,0,0,102.164-4.605Z" transform="translate(192.5 2709.83)" fill="#3d3d3d"/>
    <g id="グループ_56" data-name="グループ 56" transform="translate(124.157 1499.564)">
      <path id="パス_375" data-name="パス 375" d="M112.558,311.409a.612.612,0,0,1-.07,0,.861.861,0,0,1-.8-.818,1.252,1.252,0,0,0-.019-.148,2.752,2.752,0,0,1-.044-.458,1.826,1.826,0,0,0-.017-.191,3.41,3.41,0,0,1-.026-.461l.006-.234c0-.14,0-.28.012-.423a3.214,3.214,0,0,1,.063-.435c.012-.069.029-.139.034-.209a1.778,1.778,0,0,1,.166-.58l.014-.029,0-.01a1.424,1.424,0,0,1,.177-1.32l0,0,0-.014a1.766,1.766,0,0,1-.012-.633,1.834,1.834,0,0,1,.223-.558c.017-.03.036-.06.05-.092a2.385,2.385,0,0,1,.135-.408,1.436,1.436,0,0,0,.063-.173,1.087,1.087,0,0,0,.023-.175,2.862,2.862,0,0,1,.084-.473.982.982,0,0,0,.01-.12,2.157,2.157,0,0,1,.088-.534c.047-.14.1-.276.164-.41.03-.069.06-.135.085-.2a1.247,1.247,0,0,1,.085-.183V302.1l-.019-.055a1.638,1.638,0,0,1-.132-.622,1.168,1.168,0,0,0-.023-.191,3.5,3.5,0,0,1-.04-.393c0-.111,0-.221,0-.33,0-.087.007-.172,0-.257a1.457,1.457,0,0,1,.184-.749l-.008-.1c-.007-.073-.011-.144-.019-.214a1.562,1.562,0,0,1-.34-.63,2.056,2.056,0,0,0-.085-.26c-.03-.084-.062-.171-.089-.257a.82.82,0,0,0-.392-.953c-.047-.081-.088-.166-.129-.25a1.664,1.664,0,0,0-.1-.182c.025.036-.005.019-.032,0a2.02,2.02,0,0,1-.4-.29,1.276,1.276,0,0,1-.345-.675,2.633,2.633,0,0,1-.353-.172c-.077-.048-.155-.1-.234-.153a2.263,2.263,0,0,0-.249-.155,1.927,1.927,0,0,0-.247-.095c-.1-.036-.2-.071-.3-.111a3.327,3.327,0,0,1-.355-.182c-.04-.023-.078-.048-.121-.069l-.044,0a1.729,1.729,0,0,1-.635-.047c-.114-.033-.23-.059-.345-.087l-.239-.058c-.124-.03-.25-.056-.377-.083l-.219-.045c-.091-.021-.187-.032-.282-.044s-.213-.029-.32-.049a1.305,1.305,0,0,1-.487-.2,2.08,2.08,0,0,1-.377-.03,1.285,1.285,0,0,1-.349,0,1.427,1.427,0,0,1-.142-.027,2.465,2.465,0,0,1-.47.023c-.076-.005-.153,0-.23,0-.14,0-.286,0-.429-.011s-.264-.033-.395-.055c-.084-.014-.166-.029-.25-.037a1.485,1.485,0,0,1-.708-.3l-.016-.012-.2-.025c-.085-.011-.171-.023-.256-.032a1.52,1.52,0,0,1-.665.121,2.026,2.026,0,0,1-.315-.048,1.352,1.352,0,0,1-.313.018c-.094,0-.187,0-.281,0-.111,0-.22,0-.33,0a2.841,2.841,0,0,1-.384-.043,1.124,1.124,0,0,0-.124-.018.928.928,0,0,1-.107-.005.867.867,0,0,1,.041-1.731,1.613,1.613,0,0,1,.667-.111c.124.008.25.028.379.048a2.073,2.073,0,0,0,.246.033c.069.005.133.012.194.023a1.571,1.571,0,0,1,.456-.04c.124.01.245.005.363.008a1.247,1.247,0,0,1,.272-.01l.648.044a2.075,2.075,0,0,1,.543.132.987.987,0,0,0,.118.038,1.42,1.42,0,0,1,.6.208,1.457,1.457,0,0,1,.69-.109,1.878,1.878,0,0,1,.488.136h.015c.058,0,.117.007.175.012a1.565,1.565,0,0,1,.507-.067,1.27,1.27,0,0,1,.466-.143,2.449,2.449,0,0,0,.281-.054c.084-.019.169-.039.257-.054a3.21,3.21,0,0,1,.36-.04,1.36,1.36,0,0,0,.179-.018.963.963,0,0,0,.14-.071,2.834,2.834,0,0,1,.338-.165,1.25,1.25,0,0,1,.661-.059,1.5,1.5,0,0,1,.351-.323c.018-.015.044-.048.073-.08a2.338,2.338,0,0,1,.326-.312c.144-.111.279-.23.422-.359a3.59,3.59,0,0,1,.289-.224,1.2,1.2,0,0,0,.165-.128,1.848,1.848,0,0,1,.461-.323.918.918,0,0,0,.089-.049c-.007,0,.017-.052.044-.1a2.742,2.742,0,0,1,.234-.352c-.021.023-.015,0,0-.036a1.785,1.785,0,0,1,.243-.506,2.814,2.814,0,0,1,.282-.32,1.027,1.027,0,0,0,.106-.113.871.871,0,0,0,.073-.162,2.978,2.978,0,0,1,.172-.36,3.62,3.62,0,0,1,.209-.311,1.041,1.041,0,0,0,.113-.166,1.631,1.631,0,0,1,.345-.439,1.442,1.442,0,0,1,.082-.626,1.4,1.4,0,0,1,.428-.565v-.011a2.23,2.23,0,0,1,.07-.479,1.459,1.459,0,0,0,.034-.21,3.506,3.506,0,0,1,.059-.363,1.665,1.665,0,0,1,.275-.576l.008-.012-.006-.047a2.138,2.138,0,0,1,0-.507,2.7,2.7,0,0,1,.11-.436l.027-.08a1.708,1.708,0,0,1-.113-.668,1.785,1.785,0,0,0-.008-.206,3.552,3.552,0,0,1-.014-.382c0-.117.015-.236.029-.357a1.916,1.916,0,0,0,.019-.237,2.263,2.263,0,0,0-.019-.235c-.014-.118-.028-.238-.032-.356a.871.871,0,0,1,.355-.732,1.592,1.592,0,0,1,.17-.448,1.553,1.553,0,0,1-.121-.6,1.326,1.326,0,0,1,.175-.609,1.343,1.343,0,0,1-.171-.6,1.816,1.816,0,0,0-.026-.227c-.018-.121-.034-.242-.041-.364a1.5,1.5,0,0,1,.144-.686l-.014-.04a2.4,2.4,0,0,1-.121-.458,2.162,2.162,0,0,1-.006-.469,1.356,1.356,0,0,1-.382-.631.867.867,0,0,1,1.625-.58,1.435,1.435,0,0,1,.473.766,2.2,2.2,0,0,1,.016.56.817.817,0,0,0-.007.129,1,1,0,0,0,.038.111,2.2,2.2,0,0,1,.131.534,1.506,1.506,0,0,1-.151.74l-.007.019.017.115c.015.1.03.209.038.313a1.514,1.514,0,0,1,.249.777,1.355,1.355,0,0,1-.2.676,1.359,1.359,0,0,1-.109,1.3l0,.01.011.077a3.027,3.027,0,0,1,.029.4l.019.058a1.63,1.63,0,0,1,.115.65,1.353,1.353,0,0,1-.33.771l-.029.714,0,.091a1.2,1.2,0,0,1-.006.184l0,.048v.027c0,.1,0,.2,0,.3s.005.212,0,.318a1.168,1.168,0,0,0,.023.176,3.014,3.014,0,0,1,.047.426,1.153,1.153,0,0,0,.029.121,2.276,2.276,0,0,1,.084.476,3.037,3.037,0,0,1-.018.418,1.146,1.146,0,0,0-.01.181.774.774,0,0,0,.037.114,2.407,2.407,0,0,1,.113.462,1.478,1.478,0,0,1-.089.665,1.909,1.909,0,0,1,.2.5c-.006-.033.012-.005.032.022a1.882,1.882,0,0,1,.235.509c.027.1.048.2.069.3.018.085.033.171.059.256a1.5,1.5,0,0,1,.03.718v.01c.033.076.07.154.106.231l.088.193c.047.1.085.2.124.312.011.028.022.056.032.085a1.388,1.388,0,0,1,.59.511,2.584,2.584,0,0,1,.183.4.822.822,0,0,0,.058.139.852.852,0,0,0,.11.114,2.981,2.981,0,0,1,.278.311,2.006,2.006,0,0,1,.249.465.842.842,0,0,0,.044.1,1.527,1.527,0,0,1,.236.423,1.348,1.348,0,0,1,.623.34l.16.162c.084.087.168.175.257.257a2.989,2.989,0,0,1,.285.318,1.05,1.05,0,0,0,.113.133,1.174,1.174,0,0,0,.162.1,3.113,3.113,0,0,1,.338.231.955.955,0,0,0,.144.08,2.949,2.949,0,0,1,.374.227,1.779,1.779,0,0,1,.4.44c.019.026.036.054.056.078,0-.014.063.018.124.048a3.331,3.331,0,0,1,.356.2c.168.109.337.214.51.319a1.633,1.633,0,0,1,.434.407,1.489,1.489,0,0,1,.639.158,1.3,1.3,0,0,1,.439.395,1.222,1.222,0,0,1,.674.1,1.116,1.116,0,0,1,.411.334c.06.014.124.021.187.03a3.446,3.446,0,0,1,.43.083,1.73,1.73,0,0,1,.465.212,1.054,1.054,0,0,1,.183.054,1.187,1.187,0,0,1,.28.155l.061.025a2.071,2.071,0,0,0,.2.078c.126.04.25.088.373.138l.011,0a1.183,1.183,0,0,1,.377.12l.037.007c.111.022.223.045.33.077a1.644,1.644,0,0,1,.756.047,2.053,2.053,0,0,1,.483.258,1.084,1.084,0,0,0,.1.063,1.089,1.089,0,0,1,.168.074c.077.034.144.07.2.1a.843.843,0,0,0,.106.054,3.108,3.108,0,0,1,.362.111c.04.014.078.029.118.041a1.3,1.3,0,0,1,.2.055.867.867,0,0,1-.458,1.669c-.044-.01-.088-.021-.131-.032-.018,0-.045,0-.073,0a2.023,2.023,0,0,1-.549-.1,1.737,1.737,0,0,1-.513-.3h-.025a1.787,1.787,0,0,1-.616-.048.726.726,0,0,1-.088,0,1.923,1.923,0,0,1-.572-.073,1.4,1.4,0,0,1-.582-.378,1.442,1.442,0,0,1-.652-.06,1.34,1.34,0,0,0-1.228-.462,1.057,1.057,0,0,0-.137-.03,2.256,2.256,0,0,1-.5-.143,1.106,1.106,0,0,1-.34-.236,1.46,1.46,0,0,1-.628.034,2.9,2.9,0,0,1-.4-.113,1.1,1.1,0,0,0-.175-.052,1.509,1.509,0,0,1-.672-.312l-.014-.01-.176-.027c-.1-.016-.194-.033-.29-.04a2.034,2.034,0,0,0-.22.011c-.128.011-.263.018-.375.016s-.2-.008-.307-.016a2.452,2.452,0,0,0-.279-.012l-.22.005c-.122,0-.246,0-.364.015a1.144,1.144,0,0,0-.191.049,3.137,3.137,0,0,1-.373.092c-.021.008-.059.03-.1.048a2.387,2.387,0,0,1-.434.166,1.853,1.853,0,0,0-.234.087c-.093.038-.188.077-.286.11a2.3,2.3,0,0,0-.274.121l-.224.1a1.937,1.937,0,0,1-.5.133c-.036.006-.07.01-.1.018.019,0-.015.04-.052.076a2.916,2.916,0,0,1-.28.243,1.517,1.517,0,0,1-.554.245,1.947,1.947,0,0,1-.274.428,1.9,1.9,0,0,1-.392.331,1.132,1.132,0,0,0-.092.066l-.172.283-.1.162a1.135,1.135,0,0,0-.063.157,3.022,3.022,0,0,1-.164.381,2.417,2.417,0,0,1-.247.355,1.226,1.226,0,0,1-.184,1.053c0,.025,0,.048,0,.073a1.567,1.567,0,0,1-.212.657.165.165,0,0,1-.023.041c-.014.114-.034.228-.056.342-.014.072-.029.144-.036.217a1.218,1.218,0,0,0,0,.173,2.741,2.741,0,0,1-.01.463c.007-.041.014,0,.021.029a1.74,1.74,0,0,1,.041.619,1.6,1.6,0,0,1-.252.63l-.021.032c0,.045,0,.091,0,.136a3.165,3.165,0,0,1-.034.429,1.61,1.61,0,0,1-.234.578,1.5,1.5,0,0,1,.044.665c0,.037,0,.081,0,.126a2.017,2.017,0,0,1-.029.5,2.157,2.157,0,0,1-.173.5.9.9,0,0,0-.048.106c-.011.061-.018.136-.025.212a3.684,3.684,0,0,1-.056.395c-.017.084-.029.169-.038.254-.018.121-.033.239-.058.353a1.952,1.952,0,0,1-.188.5A.9.9,0,0,1,112.558,311.409Zm1.717-5.536v0Zm.308-2.509h0Zm-1.537-1.336v0Zm-.015-2.4a.15.15,0,0,0,0,.025Zm-.056-.553v0Zm1.342-1.012a1.564,1.564,0,0,1,.371.731c.005.03.01.061.014.092.055-.043.107-.078.154-.11a1.006,1.006,0,0,0,.088-.063c-.023.015,0-.025.015-.058a1.8,1.8,0,0,1,.37-.535,1.5,1.5,0,0,1,.715-.348l.033-.008.062-.059a2.213,2.213,0,0,1,.465-.363,1.79,1.79,0,0,1,.617-.191c.033-.006.069-.01.1-.018l.144-.07a4.108,4.108,0,0,1,.466-.2c.065-.022.125-.047.186-.072a3.4,3.4,0,0,1,.474-.165c.034-.012.073-.033.111-.051a2.022,2.022,0,0,1,.551-.191,1.79,1.79,0,0,0,.173-.045,2.658,2.658,0,0,1,.509-.111c.164-.016.334-.021.5-.023l.083,0a1.953,1.953,0,0,1-.323-.377.871.871,0,0,0-.055-.078.565.565,0,0,1-.1-.044,2.641,2.641,0,0,1-.417-.26,1.594,1.594,0,0,0-.161-.1,2.856,2.856,0,0,1-.389-.272,2.59,2.59,0,0,1-.338-.366,1.217,1.217,0,0,0-.11-.128c-.113-.1-.219-.214-.324-.324l-.048-.048a1.427,1.427,0,0,1-.748-.4,1.75,1.75,0,0,1-.324-.558c-.012-.03-.023-.063-.038-.092a1.727,1.727,0,0,1-.261-.476.844.844,0,0,0-.044-.1c-.021-.026-.063-.065-.1-.1a2.563,2.563,0,0,1-.326-.378,2.361,2.361,0,0,1-.235-.48l-.007-.018a1.349,1.349,0,0,1-.621-.562,3.627,3.627,0,0,1-.184-.44c-.025-.065-.048-.131-.076-.193l-.08-.171c-.07-.15-.139-.3-.2-.448a1.5,1.5,0,0,1-.052-.788l0-.029c-.032-.113-.055-.228-.078-.344-.014-.067-.026-.135-.044-.2,0,.016-.019-.017-.036-.043a1.859,1.859,0,0,1-.241-.524,1.8,1.8,0,0,1-.334.388l-.066.063a1.98,1.98,0,0,1-.216.337,1.725,1.725,0,0,0-.107.155,1.228,1.228,0,0,0-.072.157,2.651,2.651,0,0,1-.221.441,2.256,2.256,0,0,1-.327.388.944.944,0,0,0-.107.115c.012-.012,0,.021-.008.051a1.726,1.726,0,0,1-.285.56,1.215,1.215,0,0,0-.085.139,2.542,2.542,0,0,1-.29.421,1.783,1.783,0,0,1-.525.388c-.029.016-.058.03-.084.048a2.545,2.545,0,0,1-.355.287,1.512,1.512,0,0,0-.137.1c-.179.159-.346.307-.525.443a.737.737,0,0,0-.1.1,2.076,2.076,0,0,1-.418.374c.038-.026.022,0,0,.025a1.861,1.861,0,0,1-.331.362c.077.038.153.08.228.122a1.194,1.194,0,0,0,.16.085c.065.027.133.051.2.074a3.544,3.544,0,0,1,.459.183,3.8,3.8,0,0,1,.445.269c.055.037.11.074.165.109a.861.861,0,0,0,.142.06,2.146,2.146,0,0,1,.524.276,1.27,1.27,0,0,1,.456.814,1.652,1.652,0,0,1,.477.4,2.68,2.68,0,0,1,.285.483l.019.041a1.39,1.39,0,0,1,.619.642,1.346,1.346,0,0,1,.022.887l.018.051C114.239,297.82,114.282,297.941,114.316,298.066Zm.026.1h0Zm8.119-.15h0Zm-8.87-1.79h0Zm.825-20.69h0Zm1.189-1.156h0Z" transform="translate(81.04 872.357)" fill="#e6d231"/>
      <path id="パス_376" data-name="パス 376" d="M134.009,278.673c-6,.7-7.3,6.127-7.954,10.162-.652-4.035-1.782-6.725-2.651-7.467a7.633,7.633,0,0,0-7.041-2.52c7.389-1.816,9.3-5.39,10.17-11.412C126.533,274.5,128.533,277.032,134.009,278.673Z" transform="translate(87.499 870)" fill="#e6d231"/>
    </g>
    <g id="グループ_106" data-name="グループ 106" transform="translate(29.5 2672.801)">
      <g id="グループ_105" data-name="グループ 105">
        <path id="パス_458" data-name="パス 458" d="M292.843,686.421a1.2,1.2,0,0,1-.911-.415l-16.09-18.6a1.2,1.2,0,0,1,1.82-1.574l16.09,18.6a1.2,1.2,0,0,1-.91,1.99Z" transform="translate(-275.549 -646.057)" fill="#3d3d3d"/>
        <path id="パス_459" data-name="パス 459" d="M298.673,686.08a1.2,1.2,0,0,1-1.043-.6l-19.837-34.347a1.2,1.2,0,1,1,2.084-1.2l19.837,34.347a1.2,1.2,0,0,1-1.041,1.8Z" transform="translate(-275.126 -649.326)" fill="#3d3d3d"/>
      </g>
    </g>
    <g id="グループ_108" data-name="グループ 108" transform="translate(330.935 2672.802)">
      <g id="グループ_107" data-name="グループ 107">
        <path id="パス_460" data-name="パス 460" d="M432.746,686.421a1.2,1.2,0,0,1-.908-1.99l16.09-18.6a1.2,1.2,0,0,1,1.82,1.574l-16.091,18.6A1.2,1.2,0,0,1,432.746,686.421Z" transform="translate(-425.292 -646.058)" fill="#3d3d3d"/>
        <path id="パス_461" data-name="パス 461" d="M427.55,686.08a1.2,1.2,0,0,1-1.041-1.8l19.837-34.347a1.2,1.2,0,0,1,2.084,1.2l-19.838,34.347A1.2,1.2,0,0,1,427.55,686.08Z" transform="translate(-426.348 -649.326)" fill="#3d3d3d"/>
      </g>
    </g>
  </g>
</svg>
