<svg xmlns="http://www.w3.org/2000/svg" width="494.02" height="104.931" viewBox="0 0 494.02 104.931"><defs><style>.a{fill:#3d3d3d;}.b{fill:#e6d231;}</style></defs><g transform="translate(53.045 -897.436)"><path class="a" d="M-234.178.742q4.8-3.945,4.883-8.75.039-2.852-1.016-3.906a91.579,91.579,0,0,1-7.969,5.9q-1.641,1.055-6.836,4.1a10.044,10.044,0,0,1-2.93-7.344,10.01,10.01,0,0,1,1.914-6.035,9.409,9.409,0,0,1,5.156-3.574v-2.07q-2.812.156-5.781.234l-.156-5.508,5.547.039-.312-3.672,5.586.078q-.273,2.148-.43,3.906l10.078-.234-.234,4.766q-7.617-.039-9.922,0a16,16,0,0,0-.078,1.836,11.41,11.41,0,0,1,6.953,1.8l1.367-1.68,3.125,3.047-1.6,1.094a8.826,8.826,0,0,1,2.148,6.016Q-224.686-1.016-234.178.742Zm1.289-15.547a7.067,7.067,0,0,0-4.023-.664l-.078,3.789Zm-4.766,3.555-3.086.039v-3.516a3.98,3.98,0,0,0-2.852,3.594,4.478,4.478,0,0,0,.625,3.164Zm50.58-12.969-.352,5.391q-3.4-.117-7.148-.312l-.078-5.078Zm-.781,14.8L-189.5-4.922a10.879,10.879,0,0,0-4.062-1.8A6.07,6.07,0,0,1-194.614-2.5q-1.719,2.461-5.43,2.148A5.6,5.6,0,0,1-203.4-1.914a5.366,5.366,0,0,1-1.641-3.906,4.964,4.964,0,0,1,1.621-3.945,7.16,7.16,0,0,1,4.59-1.8,21.013,21.013,0,0,0-1.094-4.648l5.547-.9a38.061,38.061,0,0,1,.82,5.781A31.251,31.251,0,0,1-187.856-9.414ZM-198.169-5.9q.234-1.563-1.25-1.562a1.337,1.337,0,0,0-1.406,1.328,1.29,1.29,0,0,0,.781,1.484,1.982,1.982,0,0,0,.547.078Q-198.364-4.57-198.169-5.9Zm-3.789-17.734-.156,4.922-3.594-.117.039,5.781-5.156-.078q.273-3.164.352-5.664-3.008.391-3.867.43l-.234-5.234,4.063.078-.742-3.984,5.234-.43-.2,4.609Zm50.5,6.523a23,23,0,0,1-3.555,7.852q-.039-.352-.625-3.242-5.469.039-6.953,0l.039-4.531Zm-9.1-6.8-.078,4.3q-.039,0-7.227,1.055-2.227,6.992-3.945,11.289l-4.766-1.758a66.994,66.994,0,0,0,2.852-9.766q-2.773-.273-4.141-.547l-.156-4.8,5.234-.2q-.078-1.68-.352-4.3l6.016.117a49.05,49.05,0,0,1-.547,5.117Zm8.047,22.617a6.077,6.077,0,0,1-3.867,1.016,8.67,8.67,0,0,1-6.641-2.578l1.914-3.867a5.1,5.1,0,0,0,3.711,1.133,6.978,6.978,0,0,0,4.063-.977Zm34.486-22.578a35.843,35.843,0,0,1-7.07,6.406L-124.08-1.68h-5.82l.2-14.18a31.06,31.06,0,0,1-7.109.938,22.35,22.35,0,0,1-5.117-.586q14.961-7.617,18.086-13.086Zm39.408,6.328-.156,5.234q-2.539.039-8.711-.039a10.925,10.925,0,0,1-2.07,7.578q-2.812,3.672-8.711,4.18,5.82-5.508,5.43-11.484-3.672.2-10.781.625l-.117-5.859q2.813.039,11.25.039l-.273-4.3a9.466,9.466,0,0,1-1.836.156,17.582,17.582,0,0,1-4.492-.586,7.537,7.537,0,0,1-3.437-1.641A48.382,48.382,0,0,0-92.406-26.25a22.6,22.6,0,0,0,5.938-3.164l3.32,5.2a25.463,25.463,0,0,1-4.492,1.875l.078,5.156Zm35.775-4.648-.078,6.172q-5.078-.117-6.8-.234.234,12.227.039,16.523-2.539-1.719-4.59-3.379t-3.5-2.637q1.875.078,3.711.078l-.078-9.844a15.283,15.283,0,0,1-4.18,5.9,14.515,14.515,0,0,1-10.078,3.32,24.213,24.213,0,0,0,6.172-5.391,13.257,13.257,0,0,0,2.734-4.453q-4.062.156-7.7.391l-.156-6.211q8.359.117,12.539.078l-.234-5.937,6.328.117-.43,4.648q-.078.9-.117,1.172Zm25.384-1.25a39.13,39.13,0,0,1-3.828,3.516q-1.875-2.3-3.555-4.1l3.4-3.008ZM-5.9-20A15.72,15.72,0,0,1-10.036-8.906q-4.727,5.43-13.281,7.617l-2.3-5.82Q-13.708-8.945-5.9-20Zm-17.461,3.672q-1.875,1.914-3.789,3.711Q-28.63-14.453-30.7-16.68l3.555-3.008ZM19.411-3.164q5.664-4.57,5.742-9.8a7.859,7.859,0,0,0-.859-3.906A4.752,4.752,0,0,0,21.4-19.3Q19.1-11.719,10.817-4.922A8.717,8.717,0,0,1,7.458-9.1a10.8,10.8,0,0,1-.937-5,10.115,10.115,0,0,1,3.945-7.656,12.034,12.034,0,0,1,8.2-2.383,11.466,11.466,0,0,1,8.008,3.32A10.376,10.376,0,0,1,29.528-13.4a9.621,9.621,0,0,1-2.812,7.227A11.791,11.791,0,0,1,19.411-3.164ZM17.536-19.883A5.207,5.207,0,0,0,16.442-20a5.574,5.574,0,0,0-3.926,1.543,5.764,5.764,0,0,0-1.895,3.691,5.512,5.512,0,0,0,.859,3.984A29.615,29.615,0,0,0,15.075-15.2,18.668,18.668,0,0,0,17.536-19.883Zm51.713-6.484-.2,4.883-9.453.078a52.6,52.6,0,0,1-3.516,4.492,17.29,17.29,0,0,0,5.977-.508l-.9-1.992,2.969-1.055,2.578,5.234a14.569,14.569,0,0,1-7.031,1.445A34.714,34.714,0,0,1,51.4-14.844q.977-2.383,2.656-6.8-1.484.156-5.742.234L48-26.6l7.07-.078-.234-3.984,5.9.156-.625,4.336Q64.522-26.172,69.248-26.367ZM71.827-1.25A9.924,9.924,0,0,1,66.4-.039a7.582,7.582,0,0,1-4.219-1.094l-.039-11.211,3.945.117-.391,8.164A6.1,6.1,0,0,0,68-4.375l.156-2.891A43.575,43.575,0,0,0,71.827-1.25ZM45.655-23.2,42.92-19.8a42.238,42.238,0,0,0-3.359-2.93l2.5-3.086ZM59.8-10.742l-.156,7.461q-1.016,0-3.906.273l.078-7.773Zm-5.664-.273Q53.506-2.227,47.92-.391a28.011,28.011,0,0,0,1.465-5.43,26.879,26.879,0,0,0,.527-5.586Zm-9.062-4.1-1.953,3.477Q41.2-13.086,39.8-14.258l2.07-2.734Zm1.055,5.9A25.69,25.69,0,0,1,43.506-.781L39.248-4.922A18.1,18.1,0,0,0,46.123-9.219Zm58.861,5.625A127.24,127.24,0,0,1,88.891-2.5,64.455,64.455,0,0,1,77.25-3.359l.234-15.586,4.922-.234.234,11.289q4.883.7,5.977.7l-.43-19.062,6.055.2L94.008-7.7q1.641.078,2.852.078a14.186,14.186,0,0,0,2.813-.2L99.828-19.1l4.492.078Zm23.627.43q5.664-4.57,5.742-9.8a7.859,7.859,0,0,0-.859-3.906A4.752,4.752,0,0,0,130.6-19.3q-2.3,7.578-10.586,14.375a8.717,8.717,0,0,1-3.359-4.18,10.8,10.8,0,0,1-.937-5,10.115,10.115,0,0,1,3.945-7.656,12.034,12.034,0,0,1,8.2-2.383,11.466,11.466,0,0,1,8.008,3.32,10.376,10.376,0,0,1,2.852,7.422,9.621,9.621,0,0,1-2.812,7.227A11.791,11.791,0,0,1,128.611-3.164Zm-1.875-16.719A5.207,5.207,0,0,0,125.642-20a5.574,5.574,0,0,0-3.926,1.543,5.764,5.764,0,0,0-1.895,3.691,5.512,5.512,0,0,0,.859,3.984,29.615,29.615,0,0,0,3.594-4.414A18.668,18.668,0,0,0,126.736-19.883Zm53.744,7.07q-2.3,4.219-3.75,7.188A14.129,14.129,0,0,1,174-10.2a29.27,29.27,0,0,1-2.07-11.289q0-1.484.117-2.969l-15.7.781a9.969,9.969,0,0,1,.234,2.3q0,9.3-7.266,13.711A46.072,46.072,0,0,0,152-29.1q17.109.078,23.828-.117,0,1.289-.156,3.867t-.156,3.867q0,7.5,1.8,9.727ZM171.144-1.523a28.872,28.872,0,0,1-7.656,1.016,24.187,24.187,0,0,1-5.391-.547l.352-3.633a13.219,13.219,0,0,0,3.789.43l.234-3.047q-3.32-.2-5.273-.234l-.312-7.383,5.469-.117-.078-1.953q-3.633-.352-5-2.148,7.734-1.133,10.469-2.656l2.188,3.086a10.589,10.589,0,0,1-4.18,1.406l-.078,2.109,5.273.156q0,2.7-.2,7.227l-5.43.234.273,3.555a7.97,7.97,0,0,0,2.461-.312l-.234-1.875,2.813-.234Zm-3.477-8.437v-1.758l-1.758.078v1.6A6.172,6.172,0,0,0,167.667-9.961ZM162-11.641l-1.836.039v1.563a15.472,15.472,0,0,0,1.8-.039Zm46.166-18.828q-.312,3.633-.312,6.211a25.746,25.746,0,0,0,.117,2.617q-5.469.313-9.687.313a50.778,50.778,0,0,1-6.641-.312A88.591,88.591,0,0,1,192-30.547ZM203.13-27.7l-6.836.078.039,1.328q1.836.039,6.719-.234Zm-.312,4.57-.039-1.641-6.133.117.078,1.484a17.4,17.4,0,0,0,2.813.2Q200.981-22.969,202.817-23.125Zm9.727,7.93-25.078.547-.2-3.945q7.383.156,10.625.117v-1.992l4.375-.156.039,2.109q6.914,0,10.234-.234Zm-.586,11.484L209.653.2a13.354,13.354,0,0,1-4.375-4.141l1.328-1.484A9.553,9.553,0,0,0,211.958-3.711Zm-4.727-9.727-.2,6.836a24.907,24.907,0,0,1-4.844.469l.117,7.617-6.484-3.711q1.68.039,2.734-.039V-5.742q-2.461,0-4.766-.2l-.586-7.3Q202.583-13.242,207.231-13.437ZM202.7-8.672v-2.187q-.273.039-5.039.117l.039,2.148a12.368,12.368,0,0,0,1.563.078Q200.591-8.516,202.7-8.672Zm-8.437,5.2A8.24,8.24,0,0,1,187.9-.937a8.419,8.419,0,0,1-.9-.039q3.438-3.281,3.984-4.883Zm51.713-10.781a30.784,30.784,0,0,0-4.219,1.211q.352,1.406.859,3.477l-3.906.938a8.713,8.713,0,0,0-.547-2.852q-4.062,1.719-3.711,4.57Q234.686-5,238.045-5a19.836,19.836,0,0,0,3.945-.469l.273,5.234a19.7,19.7,0,0,1-3.633.352q-6.719,0-8.281-4.453a9.147,9.147,0,0,1-.508-2.891q0-5.156,7.109-8.008-.625-1.211-2.773-1.211a14.351,14.351,0,0,0-2.539.273l-.117-4.727q-1.836.078-4.8.2l-.2-5.7q3.867-.039,4.688-.156l-.078-3.555,6.016.078a36.892,36.892,0,0,0-.43,4.3l1.563-.078,5.352-.2-.078,4.844-7.773-.2q-.039.352-.234,2.148,3.281-.078,4.531,2.383,1.25-.508,4.3-1.8ZM-110.837,29.836a22.89,22.89,0,0,1-5.312.781,22.769,22.769,0,0,1-4.687-.547q.039-.7.117-6.523l-3.594-.234a5.221,5.221,0,0,1-1.172,3.594,7.931,7.931,0,0,1-4.883,2.969q2.266-2.578,2.266-7.5a12.276,12.276,0,0,0-.469-3.594q1.758.156,5.508.156,2.7,0,6.406-.078,0,.742-.273,8.125a9.925,9.925,0,0,0,1.133.078,2.625,2.625,0,0,0,1.367-.273l.117-2.7Zm-1.172,13.438-2.734,5.977-6.641-4.453q-2.461,2.227-7.969,2.578,3.945-3.125,4.961-5.2l-2.383-2.3,1.133-2.227q1.172.938,3.4,2.383a12.1,12.1,0,0,0,1.289-3.477q-5,.273-7.109.234l-.156-4.648q7.539.273,11.875.2A17.121,17.121,0,0,1-119,41.4a12.317,12.317,0,0,0,6.172,1.953A3.814,3.814,0,0,0-112.009,43.273Zm-19.609-8.242a9.822,9.822,0,0,1-.9,1.6,11.774,11.774,0,0,1-2.852,2.617q-.039,4.57-.352,8.32-4.062-3.867-4.727-4.375h1.992l.117-2.93q-2.812.273-4.062.313l.039-3.75q1.328-.039,3.359-.2l.156-5.625q-2.734.352-3.633.391l-.156-5,3.711-.2.039-4.883h4.1l-.469,4.531,2.852-.039v4.609l-2.969.43-.078,4.883Q-133.689,35.461-131.619,35.031Zm56.4-11.367q-3.75.078-7.07.078-6.836,0-10.508-.312l-.273-3.2q5.586-.078,6.563-.2l-.312-3.672,5.313.039-.469,3.242q3.2,0,6.758-.078Zm-3.906,1.523-.312,6.563q-5.312.2-9.1.2-.039-4.609-.117-6.68Zm-3.516,4.141a6.347,6.347,0,0,0,0-1.406l-2.5.117q0,.234.039,1.289.547.039,1.172.039T-82.641,29.328Zm7.5,4.3q.156,6.523-.469,15.742-1.992-1.523-5.664-4.219a24.793,24.793,0,0,0,2.891-.156q-.508-5.82-.469-7.93l-11.055-.234q.156,6.6.156,10.117l-3.828.078q.391-10.469.313-13.2Zm-6.484,10.469a9.466,9.466,0,0,1-2.891.391,14.923,14.923,0,0,1-2.773-.273l-.2-4.961,5.781-.117Zm-2.031-1.445-.117-1.211-1.211.078v1.172A7.55,7.55,0,0,0-83.656,42.648Zm-10.586-7.539A2.919,2.919,0,0,1-97.406,37.3a6.567,6.567,0,0,1-1.211-.117l.234,9.883h-4.258q.391-6.641.352-8.4a8.682,8.682,0,0,1-6.367,1.875q1.25-1.055,3.672-3.164a7.855,7.855,0,0,0,2.617-3.672v-1.25l-4.922.117-.078-3.555q3.359.078,5.2-.039l.078-3.164a13.54,13.54,0,0,1-2.3.2,11.863,11.863,0,0,1-3.594-.508q7.656-3.437,9.844-5.391l3.438,4.336q-3.008.9-3.828,1.055v3.633q2.031-.156,3.867-.234l-.117,3.906-3.4-.234.039,1.641A8.48,8.48,0,0,0-94.242,35.109Zm48.861,1.016a8.96,8.96,0,0,1-2.148,6.484A8.151,8.151,0,0,1-53.9,45.3a12.873,12.873,0,0,1-2.187-.2Q-63,43.742-63,30.852a58.252,58.252,0,0,1,.547-7.578l6.641-.039a73.9,73.9,0,0,0-.7,8.789q0,6.836,3.086,7.539a5.961,5.961,0,0,0,1.523.2A7.421,7.421,0,0,0-45.381,36.125Zm37.3-7.852q-6.914,1.6-7.461,7.344-.391,3.789,3.2,7.227l-6.211,2.813a14.419,14.419,0,0,1-3.242-8.75,8.618,8.618,0,0,1,.2-1.836,8.268,8.268,0,0,1,1.641-3.516A9.423,9.423,0,0,1-16.442,28.7q-6.25.469-13.086.742l-.117-5.156q14.258-.313,21.484-.781ZM26.95,40.109,22.3,46.2Q13.083,37.648,7.184,33.078q10.9-9.57,14.727-12.7l3.4,4.492q-8.477,5.977-10.7,7.422Q20.5,36.281,26.95,40.109ZM68.233,22.336l-.273,3.047a12.107,12.107,0,0,0-2.07.664L65.3,22.8Zm-4.3,3.633a12.107,12.107,0,0,0-2.07.664l-.9-3.242,2.969-.469ZM67.1,30.7a22.993,22.993,0,0,1-3.516,7.813q-.039-.352-.625-3.242-5.508.039-6.953,0l.039-4.531Zm-9.063-6.836-.117,4.3q-.039.039-7.187,1.055Q48.467,36.2,46.788,40.5l-4.8-1.758a71.182,71.182,0,0,0,2.891-9.766q-2.773-.273-4.18-.547l-.117-4.8,5.234-.2q-.117-1.641-.391-4.3l6.055.156q-.234,3.047-.586,5.117Zm8.008,22.656a6.078,6.078,0,0,1-3.828.977,8.8,8.8,0,0,1-6.68-2.578l1.914-3.867a5.188,5.188,0,0,0,3.711,1.133,7.06,7.06,0,0,0,4.1-.977Zm35.58-17.539q-3.711.742-5.937,1.367,1.328,5.586,2.344,8.984-6.016-1.875-8.32-2.812,1.055-.2,3.2-.547L91,31.555l-11.641,2.07-1.523-5.508q3.008-.469,6.016-.977,3.711-.625,5.977-1.211l-2.07-4.961L93.734,19.6l.43,6.016,4.3-.7q1.953-.352,2.617-.508ZM91.313,42.1l-.273,5.156q-8.672.312-10.781-6.641l4.063-2.227q.625,3.828,5.078,3.828A17.47,17.47,0,0,0,91.313,42.1Zm48.47-.078q-4.648-3.125-5.508-3.633a10.5,10.5,0,0,0-2.266-1.25q1.172-.156,3.516-.391.078-.82.078-1.68A14.609,14.609,0,0,0,133.22,27.1l5.234-1.367a28.616,28.616,0,0,1,1.875,10.273A34.9,34.9,0,0,1,139.783,42.023Zm-14.57-6.875q-3.4,3.633-3.594,3.867-1.172,1.367-2.812,3.672-4.219-3.594-4.687-14.8l5.508-.82q-.039,6.758,1.172,9.063Z" transform="translate(195 953)"/><g transform="translate(184.177 897.436)"><path class="b" d="M108.9,301.132a.438.438,0,0,1-.051,0,.626.626,0,0,1-.585-.6.91.91,0,0,0-.014-.108,2,2,0,0,1-.032-.333,1.328,1.328,0,0,0-.012-.139,2.48,2.48,0,0,1-.019-.335l0-.17c0-.1,0-.2.009-.308a2.338,2.338,0,0,1,.046-.316c.009-.05.021-.1.025-.152a1.293,1.293,0,0,1,.121-.422l.01-.021,0-.007a1.035,1.035,0,0,1,.129-.96l0,0,0-.01a1.285,1.285,0,0,1-.009-.46,1.334,1.334,0,0,1,.162-.406c.012-.022.026-.044.036-.067a1.735,1.735,0,0,1,.1-.3,1.048,1.048,0,0,0,.046-.126.789.789,0,0,0,.017-.127,2.081,2.081,0,0,1,.061-.344.714.714,0,0,0,.007-.087,1.568,1.568,0,0,1,.064-.388c.034-.1.076-.2.119-.3.022-.05.044-.1.062-.148a.908.908,0,0,1,.062-.133v-.009l-.014-.04a1.192,1.192,0,0,1-.1-.452.85.85,0,0,0-.017-.139,2.542,2.542,0,0,1-.029-.286c0-.081,0-.161,0-.24,0-.063,0-.125,0-.187a1.06,1.06,0,0,1,.134-.545l-.006-.071c0-.053-.008-.105-.014-.156a1.136,1.136,0,0,1-.247-.458,1.494,1.494,0,0,0-.062-.189c-.022-.061-.045-.124-.065-.187a.6.6,0,0,0-.285-.693c-.034-.059-.064-.121-.094-.182a1.206,1.206,0,0,0-.07-.132c.018.026,0,.014-.023,0a1.471,1.471,0,0,1-.29-.211.928.928,0,0,1-.251-.491,1.909,1.909,0,0,1-.257-.125c-.056-.035-.113-.073-.17-.111a1.648,1.648,0,0,0-.181-.113,1.4,1.4,0,0,0-.18-.069c-.074-.026-.149-.052-.221-.081a2.42,2.42,0,0,1-.258-.132c-.029-.017-.057-.035-.088-.05l-.032,0a1.257,1.257,0,0,1-.462-.034c-.083-.024-.167-.043-.251-.063l-.174-.042c-.09-.022-.182-.041-.274-.06l-.159-.033c-.066-.015-.136-.023-.205-.032s-.155-.021-.233-.036a.951.951,0,0,1-.354-.149,1.514,1.514,0,0,1-.274-.022.933.933,0,0,1-.254,0,1.046,1.046,0,0,1-.1-.02,1.793,1.793,0,0,1-.342.017c-.055,0-.111,0-.167,0-.1,0-.208,0-.312-.008s-.192-.024-.287-.04c-.061-.01-.121-.021-.182-.027a1.079,1.079,0,0,1-.515-.216l-.012-.009-.146-.018c-.062-.008-.124-.017-.186-.023a1.105,1.105,0,0,1-.484.088,1.474,1.474,0,0,1-.229-.035.983.983,0,0,1-.228.013c-.068,0-.136,0-.2,0s-.16,0-.24,0a2.065,2.065,0,0,1-.279-.031.821.821,0,0,0-.09-.013.675.675,0,0,1-.078,0,.631.631,0,0,1,.03-1.259,1.173,1.173,0,0,1,.485-.081c.09.006.182.02.276.035a1.513,1.513,0,0,0,.179.024c.05,0,.1.009.141.017a1.143,1.143,0,0,1,.332-.029c.09.007.178,0,.264.006a.906.906,0,0,1,.2-.007l.471.032a1.51,1.51,0,0,1,.395.1.712.712,0,0,0,.086.028,1.033,1.033,0,0,1,.433.151,1.06,1.06,0,0,1,.5-.079,1.367,1.367,0,0,1,.355.1h.011c.042,0,.085.005.127.009a1.137,1.137,0,0,1,.369-.049.923.923,0,0,1,.339-.1,1.783,1.783,0,0,0,.2-.039c.061-.014.123-.028.187-.039a2.337,2.337,0,0,1,.262-.029,1,1,0,0,0,.13-.013.7.7,0,0,0,.1-.052,2.072,2.072,0,0,1,.246-.12.909.909,0,0,1,.481-.043,1.09,1.09,0,0,1,.255-.235c.013-.011.032-.035.053-.058a1.7,1.7,0,0,1,.237-.227c.105-.081.2-.167.307-.261a2.606,2.606,0,0,1,.21-.163.875.875,0,0,0,.12-.093,1.343,1.343,0,0,1,.335-.235.674.674,0,0,0,.065-.036s.012-.038.032-.074a2,2,0,0,1,.17-.256c-.015.017-.011,0,0-.026a1.3,1.3,0,0,1,.177-.368,2.047,2.047,0,0,1,.205-.233.744.744,0,0,0,.077-.082.632.632,0,0,0,.053-.118,2.167,2.167,0,0,1,.125-.262,2.627,2.627,0,0,1,.152-.226.757.757,0,0,0,.082-.121,1.188,1.188,0,0,1,.251-.319,1.048,1.048,0,0,1,.06-.455,1.018,1.018,0,0,1,.311-.411v-.008a1.622,1.622,0,0,1,.051-.348,1.06,1.06,0,0,0,.025-.153,2.55,2.55,0,0,1,.043-.264,1.211,1.211,0,0,1,.2-.419l.006-.009,0-.034a1.555,1.555,0,0,1,0-.369,1.962,1.962,0,0,1,.08-.317l.02-.058a1.242,1.242,0,0,1-.082-.486,1.3,1.3,0,0,0-.006-.15,2.583,2.583,0,0,1-.01-.278c0-.085.011-.172.021-.26a1.392,1.392,0,0,0,.014-.172,1.643,1.643,0,0,0-.014-.171c-.01-.086-.02-.173-.023-.259a.633.633,0,0,1,.258-.532,1.158,1.158,0,0,1,.124-.326,1.129,1.129,0,0,1-.088-.435.965.965,0,0,1,.127-.443.976.976,0,0,1-.124-.436,1.323,1.323,0,0,0-.019-.165c-.013-.088-.025-.176-.03-.265a1.094,1.094,0,0,1,.1-.5l-.01-.029a1.742,1.742,0,0,1-.088-.333,1.573,1.573,0,0,1,0-.341.987.987,0,0,1-.278-.459.631.631,0,0,1,1.182-.422,1.043,1.043,0,0,1,.344.557,1.6,1.6,0,0,1,.012.407.593.593,0,0,0-.005.094.727.727,0,0,0,.028.081,1.6,1.6,0,0,1,.1.388,1.1,1.1,0,0,1-.11.538l0,.014.012.084c.011.076.022.152.028.228a1.1,1.1,0,0,1,.181.565.986.986,0,0,1-.146.492.988.988,0,0,1-.079.946l0,.007.008.056a2.2,2.2,0,0,1,.021.291l.014.042a1.185,1.185,0,0,1,.084.473.984.984,0,0,1-.24.561l-.021.519,0,.066a.871.871,0,0,1,0,.134l0,.035v.02c0,.072,0,.144,0,.216s0,.154,0,.231a.85.85,0,0,0,.017.128,2.193,2.193,0,0,1,.034.31.84.84,0,0,0,.021.088,1.655,1.655,0,0,1,.061.346,2.209,2.209,0,0,1-.013.3.834.834,0,0,0-.007.132.563.563,0,0,0,.027.083,1.751,1.751,0,0,1,.082.336,1.075,1.075,0,0,1-.065.484,1.388,1.388,0,0,1,.142.365c0-.024.009,0,.023.016a1.369,1.369,0,0,1,.171.37c.02.074.035.148.05.221s.024.124.043.186a1.091,1.091,0,0,1,.022.522v.007c.024.055.051.112.077.168l.064.14c.034.072.062.149.09.227.008.02.016.041.023.062a1.01,1.01,0,0,1,.429.372,1.88,1.88,0,0,1,.133.288.6.6,0,0,0,.042.1.619.619,0,0,0,.08.083,2.17,2.17,0,0,1,.2.226,1.46,1.46,0,0,1,.181.338.614.614,0,0,0,.032.074,1.11,1.11,0,0,1,.172.308.981.981,0,0,1,.453.247l.116.118c.061.063.122.127.187.187a2.172,2.172,0,0,1,.207.231.764.764,0,0,0,.082.1.851.851,0,0,0,.118.076,2.269,2.269,0,0,1,.246.168.7.7,0,0,0,.105.058,2.144,2.144,0,0,1,.272.165,1.293,1.293,0,0,1,.291.32c.014.019.026.039.041.057,0-.01.046.013.09.035a2.419,2.419,0,0,1,.259.142c.122.079.245.156.371.232a1.188,1.188,0,0,1,.316.3,1.084,1.084,0,0,1,.465.115.943.943,0,0,1,.319.287.889.889,0,0,1,.49.072.812.812,0,0,1,.3.243c.044.01.09.015.136.022a2.507,2.507,0,0,1,.313.06,1.258,1.258,0,0,1,.338.154.767.767,0,0,1,.133.039.863.863,0,0,1,.2.113l.044.018a1.513,1.513,0,0,0,.146.057c.092.029.182.064.271.1l.008,0a.861.861,0,0,1,.274.087l.027.005c.081.016.162.033.24.056a1.2,1.2,0,0,1,.55.034,1.494,1.494,0,0,1,.351.188.789.789,0,0,0,.072.046.79.79,0,0,1,.122.054c.056.025.1.051.147.073a.615.615,0,0,0,.077.039,2.258,2.258,0,0,1,.263.081c.029.01.057.021.086.03a.947.947,0,0,1,.144.04.631.631,0,0,1-.333,1.214l-.095-.023-.053,0a1.47,1.47,0,0,1-.4-.073,1.263,1.263,0,0,1-.373-.221h-.018a1.3,1.3,0,0,1-.448-.035.521.521,0,0,1-.064,0,1.4,1.4,0,0,1-.416-.053,1.015,1.015,0,0,1-.423-.275,1.049,1.049,0,0,1-.474-.044.975.975,0,0,0-.893-.336.764.764,0,0,0-.1-.022,1.641,1.641,0,0,1-.365-.1.8.8,0,0,1-.247-.172,1.062,1.062,0,0,1-.457.025,2.112,2.112,0,0,1-.292-.082.8.8,0,0,0-.127-.038,1.1,1.1,0,0,1-.489-.227l-.01-.007-.128-.02c-.071-.012-.141-.024-.211-.029a1.474,1.474,0,0,0-.16.008c-.093.008-.191.013-.273.012s-.149-.006-.223-.012a1.786,1.786,0,0,0-.2-.009l-.16,0c-.089,0-.179,0-.265.011a.835.835,0,0,0-.139.036,2.274,2.274,0,0,1-.271.067c-.015.006-.043.022-.072.035a1.74,1.74,0,0,1-.316.121,1.339,1.339,0,0,0-.17.063c-.068.028-.137.056-.208.08a1.672,1.672,0,0,0-.2.088l-.163.076a1.411,1.411,0,0,1-.363.1c-.026,0-.051.007-.075.013.014,0-.011.029-.038.055a2.122,2.122,0,0,1-.2.177,1.1,1.1,0,0,1-.4.178,1.416,1.416,0,0,1-.2.311,1.386,1.386,0,0,1-.285.241.816.816,0,0,0-.067.048l-.125.206-.073.118a.824.824,0,0,0-.046.114,2.2,2.2,0,0,1-.119.277,1.76,1.76,0,0,1-.18.258.892.892,0,0,1-.134.766c0,.018,0,.035,0,.053a1.139,1.139,0,0,1-.154.478.119.119,0,0,1-.017.03c-.01.083-.025.166-.041.249-.01.052-.021.1-.026.158a.885.885,0,0,0,0,.126,1.993,1.993,0,0,1-.007.337c.005-.03.01,0,.015.021a1.266,1.266,0,0,1,.03.45,1.165,1.165,0,0,1-.183.458l-.015.023c0,.033,0,.066,0,.1a2.3,2.3,0,0,1-.025.312,1.171,1.171,0,0,1-.17.42,1.088,1.088,0,0,1,.032.484c0,.027,0,.059,0,.092a1.466,1.466,0,0,1-.021.365,1.569,1.569,0,0,1-.126.364.656.656,0,0,0-.035.077c-.008.044-.013.1-.018.154a2.68,2.68,0,0,1-.041.287c-.012.061-.021.123-.028.185-.013.088-.024.174-.042.257a1.42,1.42,0,0,1-.137.366A.652.652,0,0,1,108.9,301.132Zm1.249-4.026v0Zm.224-1.825h0Zm-1.118-.972v0Zm-.011-1.743a.109.109,0,0,0,0,.018Zm-.041-.4v0Zm.976-.736a1.137,1.137,0,0,1,.27.532c0,.022.007.044.01.067.04-.031.078-.057.112-.08a.739.739,0,0,0,.064-.046c-.017.011,0-.018.011-.042a1.308,1.308,0,0,1,.269-.389,1.093,1.093,0,0,1,.52-.253l.024-.006.045-.043a1.609,1.609,0,0,1,.338-.264,1.3,1.3,0,0,1,.449-.139c.024,0,.05-.007.073-.013l.105-.051a2.989,2.989,0,0,1,.339-.146c.047-.016.091-.034.135-.052a2.47,2.47,0,0,1,.345-.12c.025-.009.053-.024.081-.037a1.472,1.472,0,0,1,.4-.139c.041-.007.083-.021.126-.033a1.93,1.93,0,0,1,.37-.081c.119-.012.243-.015.367-.017l.06,0a1.419,1.419,0,0,1-.235-.274.637.637,0,0,0-.04-.057.414.414,0,0,1-.075-.032,1.922,1.922,0,0,1-.3-.189,1.162,1.162,0,0,0-.117-.076,2.079,2.079,0,0,1-.283-.2,1.882,1.882,0,0,1-.246-.266.89.89,0,0,0-.08-.093c-.082-.076-.159-.156-.236-.236l-.035-.035a1.038,1.038,0,0,1-.544-.29,1.273,1.273,0,0,1-.236-.406c-.009-.022-.017-.046-.028-.067a1.256,1.256,0,0,1-.19-.346.613.613,0,0,0-.032-.074c-.015-.019-.046-.047-.075-.076a1.865,1.865,0,0,1-.237-.275,1.717,1.717,0,0,1-.171-.349l0-.013a.981.981,0,0,1-.452-.409,2.638,2.638,0,0,1-.134-.32c-.018-.047-.035-.1-.055-.14l-.058-.124c-.051-.109-.1-.217-.143-.326a1.087,1.087,0,0,1-.038-.573l0-.021c-.023-.082-.04-.166-.057-.25-.01-.049-.019-.1-.032-.146,0,.012-.014-.012-.026-.031a1.352,1.352,0,0,1-.175-.381,1.312,1.312,0,0,1-.243.282l-.048.046a1.438,1.438,0,0,1-.157.245,1.255,1.255,0,0,0-.078.113.891.891,0,0,0-.052.114,1.927,1.927,0,0,1-.161.321,1.64,1.64,0,0,1-.238.282.687.687,0,0,0-.078.084c.009-.009,0,.015-.006.037a1.256,1.256,0,0,1-.207.407.882.882,0,0,0-.062.1,1.848,1.848,0,0,1-.211.306,1.3,1.3,0,0,1-.382.282c-.021.012-.042.022-.061.035a1.853,1.853,0,0,1-.258.209,1.1,1.1,0,0,0-.1.076c-.13.116-.252.223-.382.322a.536.536,0,0,0-.07.073,1.509,1.509,0,0,1-.3.272c.028-.019.016,0,0,.018a1.354,1.354,0,0,1-.241.263c.056.028.111.058.166.089a.864.864,0,0,0,.116.062c.047.02.1.037.145.054a2.585,2.585,0,0,1,.334.133,2.766,2.766,0,0,1,.324.2c.04.027.08.054.12.079a.627.627,0,0,0,.1.044,1.56,1.56,0,0,1,.381.2.924.924,0,0,1,.332.592,1.2,1.2,0,0,1,.347.294,1.948,1.948,0,0,1,.207.351l.014.03a1.011,1.011,0,0,1,.45.467.979.979,0,0,1,.016.645l.013.037C110.121,291.249,110.152,291.337,110.177,291.428Zm.019.076h0Zm5.9-.109h0Zm-6.451-1.3h0Zm.6-15.048h0Zm.865-.841h0Z" transform="translate(-99.137 -267.436)"/><path class="b" d="M129.2,275.609c-4.362.506-5.311,4.456-5.785,7.391-.474-2.935-1.3-4.891-1.928-5.431a5.551,5.551,0,0,0-5.121-1.833c5.374-1.321,6.765-3.92,7.4-8.3C123.76,272.574,125.214,274.415,129.2,275.609Z" transform="translate(-99.137 -267.436)"/></g></g></svg>