<svg xmlns="http://www.w3.org/2000/svg" width="321.117" height="125.461" viewBox="0 0 321.117 125.461"><defs><style>.a{fill:#3d3d3d;}</style></defs><path class="a" d="M-143-18.809a51.672,51.672,0,0,1-.879,10.2A26.8,26.8,0,0,1-147.076.6a42.2,42.2,0,0,0-3.059-3.3q-2.285-2.25-2.391-2.355l3.375.141a27.243,27.243,0,0,0,1.3-9.562l-5.309.246q-1.02,9.563-10.652,12.094,5.133-6.293,5.7-11.637-2.918.141-6.187.246l-.105-5.484,6.574.07q-.176-2.6-.492-5.836l6.047.176-.562,5.871Q-150.17-18.738-143-18.809Zm30.811,4.324a16.927,16.927,0,0,1-6.469,7.436,26.986,26.986,0,0,1-10.723,4.166l-.492-20.285,6.4.141-.387,12.656A46.369,46.369,0,0,0-112.187-14.484Zm18.928-6.785-2.5,4.605-5.2-3.094,2.531-3.937Q-95.755-22.57-93.259-21.27Zm13.219,3.375A17,17,0,0,1-85.7-7.77,24.229,24.229,0,0,1-97.654-2.215L-99.939-7.98A36.507,36.507,0,0,0-88.3-11.6,33.479,33.479,0,0,0-80.04-17.895Zm32.534-8.086-.246,2.777a12.427,12.427,0,0,0-1.863.6l-.527-2.953Zm-3.867,3.3a11.156,11.156,0,0,0-1.828.6l-.809-2.953,2.637-.422Zm-1.477,1.723q-.035,8.367-3.586,13.5Q-60.62-1.336-69.444-.281a28.59,28.59,0,0,0,3.973-3.41,18.655,18.655,0,0,0,3.023-3.656q-2.953-1.3-4.711-1.863l1.512-3.8q.7.176,5.59,1.828a19.094,19.094,0,0,0,1.441-5.379q-3.973.141-7.91.211a9.364,9.364,0,0,1-5.168,3.234,24.247,24.247,0,0,0,2.461-11.18,15.554,15.554,0,0,0-.105-1.969l5.555.6a24.914,24.914,0,0,1-1.16,4.957Zm34.08,4.781-.387,4.324h-22.57l-.105-4.43Q-26.821-16.1-18.77-16.172ZM7.471-7.8l-.352,5.7a23.521,23.521,0,0,1-4.254.422q-8.508,0-9.668-6.82a7.9,7.9,0,0,1-.105-1.3,8.1,8.1,0,0,1,2.742-6.117,37.532,37.532,0,0,1-2.285-7.629l4.887-1.16A45.562,45.562,0,0,0-.264-18.7L4.588-21.8,7.4-17.262a10.517,10.517,0,0,0-5.906,2,5.511,5.511,0,0,0-2.355,4.57q0,.387.035.809A2.936,2.936,0,0,0,.686-7.664a5.644,5.644,0,0,0,3.059.773A7.965,7.965,0,0,0,7.471-7.8Zm31.444-2.883a8.064,8.064,0,0,1-1.934,5.836,7.336,7.336,0,0,1-5.73,2.426A11.586,11.586,0,0,1,29.282-2.6q-6.223-1.23-6.223-12.832a52.427,52.427,0,0,1,.492-6.82l5.977-.035a66.51,66.51,0,0,0-.633,7.91q0,6.152,2.777,6.785a5.365,5.365,0,0,0,1.371.176A6.679,6.679,0,0,0,38.914-10.687Zm31.409-7.066q-6.223,1.441-6.715,6.609-.352,3.41,2.883,6.5L60.9-2.109a12.977,12.977,0,0,1-2.918-7.875,7.756,7.756,0,0,1,.176-1.652A7.441,7.441,0,0,1,59.636-14.8,8.481,8.481,0,0,1,62.8-17.367q-5.625.422-11.777.668l-.105-4.641q12.832-.281,19.336-.7ZM107.708-4.359,105.353.422A32.988,32.988,0,0,1,99.9-4.184,8.033,8.033,0,0,1,93.329-1.02a19.665,19.665,0,0,0,2.32-2.25A8.759,8.759,0,0,0,97.478-5.8,22.437,22.437,0,0,1,95.509-9l1.441-1.617a10.475,10.475,0,0,0,2.039,2.039,18.934,18.934,0,0,0,.809-4.535l-4.887.211q.105,6.574-5.941,10.2a56.108,56.108,0,0,0,2.461-13.887q.105-1.617.105-2.355a50.757,50.757,0,0,0-.492-6.645l15.152-.352-.07,5.2-10.547-.211-.141,4.359q.668-.035,8.859-.492-.492,3.691-.879,5.484a22.242,22.242,0,0,1-1.582,4.852A17.064,17.064,0,0,0,107.708-4.359Zm-18.914,1.2a4.079,4.079,0,0,1-2.285.668,3.646,3.646,0,0,1-3.727-2.848q.105,2.6-5.1,3.059a8.667,8.667,0,0,0,2.531-3.937,20.376,20.376,0,0,0-2.672.105l-.035-18.176q4.43-.105,10.09-.035l.316,18.773H85.771Q86.017-3.34,88.794-3.164ZM84.118-18.6l-.035-1.547a30.036,30.036,0,0,0-3.27-.211L80.779-18.7Q82.536-18.6,84.118-18.6Zm-.035,4.605L83.907-15.5a24.57,24.57,0,0,0-3.2-.141v2.109A8.62,8.62,0,0,0,84.083-13.992Zm-.246,5.555v-1.969a25.763,25.763,0,0,0-2.918.07l.07,1.9q.738.07,1.441.07T83.837-8.437ZM131.066-25.1l-.176,4.5q-4.922-.176-5.941-.141l-.07,1.406h4.359L128.921-16q-3.094-.141-5.59-.141-1.336,0-4.043.105-1.828.07-3.164.035l-.352-2.883,4.395-.141v-2l-6.68.527-.035-4.359,6.926.176-.176-3.27,4.746.07L124.843-25Zm4.008,10.969-1.758,6.645q-.527-1.125-1.723-3.27H114.4l-.246,2.531L110.394-8.4q.07-3.375,0-5.555ZM134.265-.949Q132.332.7,127.937.7a16.108,16.108,0,0,1-4.676-.668q-.105-5.7-.07-8.965l4.184.105-.352,5.836a9.66,9.66,0,0,0,1.828.176,6.434,6.434,0,0,0,1.617-.176l.07-2.32ZM120.73-7.7a7.479,7.479,0,0,1-3.937,7.137A12.152,12.152,0,0,1,112.714.879a14.784,14.784,0,0,0,2.707-3.8,9.925,9.925,0,0,0,1.23-4.43q0-.387-.035-.773Zm35.979-17.508-2.18,15.68q-1.547.141-3.727.281l.844-16.348ZM154.846-.984l-4.852.07q.422-2.953.633-5.027l3.938.176ZM-125.747,20.859l-.141,4.078q-4.359-.211-6.75-.281l.387,6.609-4.043.246V20.859ZM-93,41.6l-.387,5.766a149.255,149.255,0,0,1-15.187-.984l-.211-4.113q4.676.176,5.977.105.07-2.18.07-4.395t-.07-4.465q-3.164.352-4.395.387V28.84q3.832-.176,4.57-.281l-.387-6.363,5.2.176-.387,6.082,4.289-.422.105,5.484-4.465.246q0,2.672.035,8.016Zm-16.277-7.734a3,3,0,0,1-3.129,1.969,3.921,3.921,0,0,1-.949-.105l.246,11.18-3.937.281.281-9.105q-1.652,1.547-5.7,1.477,4.184-3.691,5.309-6.785V31.125q-2.145.176-4.008.246l-.176-4.395q1.582.035,2.637.035t1.547-.035l.105-4.57h4.043l.176,4.957,3.234-.211-.07,3.867-3.621.105V32.5a4.717,4.717,0,0,0,1.9.984A6.972,6.972,0,0,0-109.28,33.867Zm33.87,11.285q5.1-4.113,5.168-8.824a7.073,7.073,0,0,0-.773-3.516,4.277,4.277,0,0,0-2.6-2.18q-2.074,6.82-9.527,12.938a7.846,7.846,0,0,1-3.023-3.762,9.719,9.719,0,0,1-.844-4.5,9.1,9.1,0,0,1,3.551-6.891,10.83,10.83,0,0,1,7.383-2.145,10.32,10.32,0,0,1,7.207,2.988,9.338,9.338,0,0,1,2.566,6.68,8.659,8.659,0,0,1-2.531,6.5A10.612,10.612,0,0,1-75.41,45.152ZM-77.1,30.105A4.686,4.686,0,0,0-78.082,30a5.017,5.017,0,0,0-3.533,1.389,5.187,5.187,0,0,0-1.705,3.322,4.96,4.96,0,0,0,.773,3.586,26.654,26.654,0,0,0,3.234-3.973A16.8,16.8,0,0,0-77.1,30.105Zm43.854-6.117a17.091,17.091,0,0,1-3.217,5.941,12.411,12.411,0,0,1-4.553,3.691,13.67,13.67,0,0,0,1.02-5.59q-6.891.7-16.523,1.266l-.246-5.449Q-49.662,23.988-33.244,23.988Zm-9.984,8.367a12.185,12.185,0,0,1,.211,2.25,11.686,11.686,0,0,1-2.426,7.313,10.825,10.825,0,0,1-7.1,4.184A15.854,15.854,0,0,0-48.466,35.73a15.488,15.488,0,0,0-.492-3.832ZM-4.12,34.043l-2.5,5.344q-3.867-1.758-5.062-2.32-3.3-1.582-4.43-2.285l.387,11.707L-21,46.453l.246-23.484,4.922-.105.281,7.77q2.637.914,5.977,1.863Q-5.632,33.551-4.12,34.043Zm27.26-9.457a37.989,37.989,0,0,1,.457,5.66q0,14.8-13.57,16.945a20.311,20.311,0,0,0,6.5-8.086,20.351,20.351,0,0,0,1.793-8.4,15.136,15.136,0,0,0-1.02-5.871ZM12.558,36.715,7.6,36.961,7.53,25.219l4.711-.035ZM56.693,39.07l-.457,5.52L35.213,44.7l-.281-5.062q.035,0,8.438-.738l-.07-6.961-5.977-.07-.457-5.66H54.97l-.316,5.414q-2.953.176-6.082.281,0-.773-.07,6.715ZM89.508,24.234a27.5,27.5,0,0,1-1.582,9.809,16.422,16.422,0,0,0-3.234-3.3q.6.035,1.09.035a7.168,7.168,0,0,0,.773-.035,35.317,35.317,0,0,0,.316-3.691l-2.039.035a4.62,4.62,0,0,1-.809,2.742,5.867,5.867,0,0,1-3.34,2.637,17.646,17.646,0,0,0,1.547-5.625l-1.477-.105q-.7,1.688-3.586,3.34a30.478,30.478,0,0,0,1.125-7.629q0-.668-.035-1.125l4.465.105a13.4,13.4,0,0,1-1.09,2.777ZM73.863,25.5v2.6l-3.48-.141v.949l3.234.316-.527,2.426q-2.215-.879-2.707-1.02L70.7,33.48l-3.34.07.176-2.672q-.809,1.582-5.59,1.652A13.1,13.1,0,0,0,64.564,30.7a8.261,8.261,0,0,0,1.986-2.32l-3.973.176-.035-2.742q2.988.07,4.852.035v-1.23a9.982,9.982,0,0,1-5.273-1.055q7.453-1.723,9.352-3.375l2.109,3.3a11.958,11.958,0,0,1-3.34.879l-.035,1.23Zm9.7,17.332A12.891,12.891,0,0,1,78.68,41.5q3.551-1.23,4.148-2.074Zm4.641-7.207-1.863,5.027q-7.945-3.9-10.16-5.941a9.6,9.6,0,0,1-5.2,3.023,22.728,22.728,0,0,1-6.047.773q-.738,0-1.477-.035a29.339,29.339,0,0,0,5.8-2.883q4.254-2.6,4.254-4.254l4.043-.035q.879,1.9,4.746,3.27A14.993,14.993,0,0,0,88.207,35.625Zm-3.586,10.09-2.074,2.813a19.7,19.7,0,0,1-2.883-2.812l1.16-1.652A15.7,15.7,0,0,0,84.621,45.715Zm-6.715-7.383L77.625,49.2q-1.863-1.441-5.836-4.043l2.391.035-.105-6.855Zm-5.871,2.32-1.406,2.461a25.6,25.6,0,0,0-2.6-1.828L69.4,39.141Zm-1.23,3.27a11.736,11.736,0,0,1-2.883,3.973l-1.687-3.3A20.184,20.184,0,0,0,70.8,43.922Zm48.424,5.1-6.047-4.887a25.3,25.3,0,0,0,2.918.035A29.729,29.729,0,0,1,116.065,41a12.571,12.571,0,0,0,.07-1.617l-7.1.07a11.568,11.568,0,0,1-6.785,7.77A49.818,49.818,0,0,0,105.8,35.168a50.154,50.154,0,0,0,.492-7.031,32.245,32.245,0,0,0-.492-6.223q5.379-.105,8.719-.105,3.375,0,4.676.105ZM115.151,26.66l-4.887-.07-.035,2.777q2.426.035,4.887-.105Zm.211,8.613-.07-2.531-5.062-.07-.035,2.848Q111.916,35.52,115.362,35.273Zm-12.586-9.6.035,6.68q0,4.816-.141,6.117a39.526,39.526,0,0,1-5.379.387,20.714,20.714,0,0,1-3.234-.211q-.211-7.559-.211-10.934,0-1.477.035-2.145Q100.948,25.746,102.776,25.676Zm-3.164,3.656h-2.6v1.793a11.058,11.058,0,0,0,2.566.281Zm.035,6.328V33.9a17.273,17.273,0,0,0-2.637.141V35.73a9.93,9.93,0,0,0,1.16.07A7.516,7.516,0,0,0,99.647,35.66Zm36.471,1.617V47.93H125.571l.141-4.113q4.359.246,6.75.316l-.387-6.609ZM-46.54,70.793l-.246,2.777a10.9,10.9,0,0,0-1.863.6l-.527-2.953Zm-3.867,3.3a12.427,12.427,0,0,0-1.863.6l-.773-2.953,2.637-.422Zm-2.5,5.238q-6.223,1.441-6.75,6.574-.352,3.41,2.918,6.5l-5.625,2.531a13.031,13.031,0,0,1-2.883-7.84,9.837,9.837,0,0,1,.141-1.687,7.269,7.269,0,0,1,1.512-3.129,8.359,8.359,0,0,1,3.164-2.6q-5.625.457-11.777.7l-.105-4.676q12.832-.246,19.3-.668Zm32.463-10.2-.105,8.051-13.078.105q-2.637,0-3.727-.035a10.518,10.518,0,0,1-7,8.613,28.7,28.7,0,0,0,3.164-12.9,16.754,16.754,0,0,0-.387-3.8q6.68.07,11.672.07Q-23.92,69.246-20.44,69.141Zm-4.922,5.1-.07-1.512-9.457-.07.035,1.828Q-33.307,74.484-25.362,74.238Zm5.66,17.051a2.815,2.815,0,0,1-1.793.527,2.945,2.945,0,0,1-2.18-.809l2.566-1.9Zm.457,2.18-2.777,4.043a21.212,21.212,0,0,1-6.187-6.258l1.582-1.617a28.028,28.028,0,0,0,2.285,2A9.216,9.216,0,0,0-19.245,93.469Zm-.527-7.84-.035,3.023-13.676.281.141,3.691q1.3-.352,3.586-1.125a7.923,7.923,0,0,1-3.375,3.762,14.135,14.135,0,0,1-4.816,1.793L-38.44,94l1.934-.422.035-4.254q-1.758-.141-2.918-.176l-.141-3.129,2.918-.176,2.074-.141V84.188l-2.812.176-.07-3.059h3.3l-.176-2.426h4.043l-.211,2.6,3.48-.035-.07-2.883,3.551-.105.211,2.777,2.707-.141-.105,3.27-2.6-.141-.141,1.477Zm-7.418.633L-27.3,84.68l-3.375.105V86.3Q-28.631,86.262-27.19,86.262ZM8.051,70.512,7.8,76.348q-4.676.07-7.945.07-4.605,0-6.5-.141l-.316-5.836ZM13.43,89.461,10.2,93.188a19.862,19.862,0,0,1-4.078-4.535l2.848-2.145A15.863,15.863,0,0,0,13.43,89.461Zm-2.25-5.2a85.2,85.2,0,0,1-8.93.422L2.215,96.6q-3.129-2.637-4.008-3.3-1.2-.879-3.48-2.215l3.2.035-.281-6.469q-5.766-.387-9.176-.844l-.316-4.043q5.309.07,9.562.07,10.828,0,13.465-.281ZM-5.977,88.371q-1.687,3.48-8.051,3.938a13.69,13.69,0,0,0,2.391-3.2,18.271,18.271,0,0,0,1.16-3.023Zm49.8-12.656L41.358,80.25a31.373,31.373,0,0,1-5.7-2.918,21.324,21.324,0,0,1-5.133-4.148,11.632,11.632,0,0,1-4.5,3.9,15.782,15.782,0,0,1-8.4,2.039q8.93-5.449,10.16-9.562l4.781-.035Q35.241,73.922,43.819,75.715ZM34.362,78.7l-.176,3.34q-2.145.07-3.9.07-2.145,0-3.762-.105l-.176-3.34Zm7.875,5.133-.176,3.727-11.25.316A13.065,13.065,0,0,1,29.3,91.887a9.441,9.441,0,0,0,2.426.316,8.621,8.621,0,0,0,2.742-.422L33.2,89.918l2.777-1.512a32.315,32.315,0,0,1,3.375,5.836,25.563,25.563,0,0,1-8.332,1.371,23.082,23.082,0,0,1-6.855-.949,67.218,67.218,0,0,0,2.742-6.926L19.7,87.563l-.07-3.48Zm22.69-13.043-2.18,15.68q-1.547.141-3.727.281l.844-16.348ZM63.063,95.016l-4.852.07q.422-2.953.633-5.027l3.938.176Z" transform="translate(164.408 27.949)"/></svg>