<svg xmlns="http://www.w3.org/2000/svg" width="592.824" height="120.205" viewBox="0 0 592.824 120.205"><defs><style>.a{fill:#3d3d3d;}.b{fill:#e6d231;}</style></defs><g transform="translate(102.654 -890.436)"><path class="a" d="M-281.014.891q5.766-4.734,5.859-10.5.047-3.422-1.219-4.687a109.893,109.893,0,0,1-9.562,7.078q-1.969,1.266-8.2,4.922a12.053,12.053,0,0,1-3.516-8.812,12.012,12.012,0,0,1,2.3-7.242,11.291,11.291,0,0,1,6.188-4.289v-2.484q-3.375.188-6.937.281l-.187-6.609,6.656.047-.375-4.406,6.7.094q-.328,2.578-.516,4.688l12.094-.281-.281,5.719q-9.141-.047-11.906,0a19.2,19.2,0,0,0-.094,2.2,13.692,13.692,0,0,1,8.344,2.156l1.641-2.016,3.75,3.656-1.922,1.313a10.592,10.592,0,0,1,2.578,7.219Q-269.623-1.219-281.014.891Zm1.547-18.656a8.48,8.48,0,0,0-4.828-.8l-.094,4.547Zm-5.719,4.266-3.7.047v-4.219a4.776,4.776,0,0,0-3.422,4.313,5.373,5.373,0,0,0,.75,3.8Zm60.7-15.562-.422,6.469q-4.078-.141-8.578-.375l-.094-6.094Zm-.937,17.766L-227.4-5.906a13.054,13.054,0,0,0-4.875-2.156A7.284,7.284,0,0,1-233.537-3Q-235.6-.047-240.053-.422A6.724,6.724,0,0,1-244.084-2.3a6.439,6.439,0,0,1-1.969-4.687,5.956,5.956,0,0,1,1.945-4.734,8.592,8.592,0,0,1,5.508-2.156,25.215,25.215,0,0,0-1.312-5.578l6.656-1.078a45.671,45.671,0,0,1,.984,6.938A37.5,37.5,0,0,1-225.428-11.3ZM-237.8-7.078q.281-1.875-1.5-1.875a1.6,1.6,0,0,0-1.687,1.594,1.547,1.547,0,0,0,.938,1.781,2.379,2.379,0,0,0,.656.094Q-238.037-5.484-237.8-7.078Zm-4.547-21.281-.187,5.906-4.312-.141.047,6.938-6.187-.094q.328-3.8.422-6.8-3.609.469-4.641.516l-.281-6.281,4.875.094L-253.506-33l6.281-.516-.234,5.531Zm60.6,7.828a27.6,27.6,0,0,1-4.266,9.422q-.047-.422-.75-3.891-6.562.047-8.344,0l.047-5.437Zm-10.922-8.156-.094,5.156q-.047,0-8.672,1.266-2.672,8.391-4.734,13.547l-5.719-2.109a80.394,80.394,0,0,0,3.422-11.719q-3.328-.328-4.969-.656l-.187-5.766,6.281-.234q-.094-2.016-.422-5.156l7.219.141a58.861,58.861,0,0,1-.656,6.141Zm9.656,27.141a7.293,7.293,0,0,1-4.641,1.219,10.4,10.4,0,0,1-7.969-3.094l2.3-4.641q1.359,1.359,4.453,1.359A8.374,8.374,0,0,0-184-7.875Zm41.383-27.094a43.012,43.012,0,0,1-8.484,7.688L-148.9-2.016h-6.984l.234-17.016a37.272,37.272,0,0,1-8.531,1.125,26.82,26.82,0,0,1-6.141-.7q17.953-9.141,21.7-15.7Zm47.289,7.594-.187,6.281q-3.047.047-10.453-.047a13.11,13.11,0,0,1-2.484,9.094Q-110.841-1.312-117.919-.7q6.984-6.609,6.516-13.781-4.406.234-12.937.75l-.141-7.031q3.375.047,13.5.047l-.328-5.156a11.359,11.359,0,0,1-2.2.188,21.1,21.1,0,0,1-5.391-.7,9.044,9.044,0,0,1-4.125-1.969A58.059,58.059,0,0,0-110.888-31.5a27.117,27.117,0,0,0,7.125-3.8l3.984,6.234a30.556,30.556,0,0,1-5.391,2.25l.094,6.188Zm42.93-5.578-.094,7.406q-6.094-.141-8.156-.281.281,14.672.047,19.828-3.047-2.062-5.508-4.055t-4.2-3.164q2.25.094,4.453.094l-.094-11.812a18.34,18.34,0,0,1-5.016,7.078A17.418,17.418,0,0,1-82.067-7.547a29.056,29.056,0,0,0,7.406-6.469,15.909,15.909,0,0,0,3.281-5.344q-4.875.188-9.234.469l-.187-7.453q10.031.141,15.047.094l-.281-7.125,7.594.141-.516,5.578q-.094,1.078-.141,1.406Zm30.461-1.5a46.956,46.956,0,0,1-4.594,4.219q-2.25-2.766-4.266-4.922l4.078-3.609ZM-7.074-24a18.865,18.865,0,0,1-4.969,13.313q-5.672,6.516-15.937,9.141l-2.766-6.984Q-16.449-10.734-7.074-24Zm-20.953,4.406q-2.25,2.3-4.547,4.453-1.781-2.2-4.266-4.875l4.266-3.609ZM23.293-3.8q6.8-5.484,6.891-11.766a9.43,9.43,0,0,0-1.031-4.687,5.7,5.7,0,0,0-3.469-2.906q-2.766,9.094-12.7,17.25a10.461,10.461,0,0,1-4.031-5.016,12.959,12.959,0,0,1-1.125-6,12.138,12.138,0,0,1,4.734-9.187A14.441,14.441,0,0,1,22.4-28.969a13.76,13.76,0,0,1,9.609,3.984,12.451,12.451,0,0,1,3.422,8.906,11.545,11.545,0,0,1-3.375,8.672A14.149,14.149,0,0,1,23.293-3.8Zm-2.25-20.062A6.248,6.248,0,0,0,19.731-24a6.689,6.689,0,0,0-4.711,1.852,6.917,6.917,0,0,0-2.273,4.43,6.614,6.614,0,0,0,1.031,4.781,35.538,35.538,0,0,0,4.313-5.3A22.4,22.4,0,0,0,21.043-23.859ZM83.1-31.641l-.234,5.859-11.344.094A63.119,63.119,0,0,1,67.3-20.3a20.748,20.748,0,0,0,7.172-.609L73.395-23.3l3.563-1.266,3.094,6.281a17.483,17.483,0,0,1-8.437,1.734,41.656,41.656,0,0,1-9.937-1.266q1.172-2.859,3.187-8.156-1.781.188-6.891.281L57.6-31.922l8.484-.094L65.8-36.8l7.078.188-.75,5.2Q77.426-31.406,83.1-31.641ZM86.192-1.5q-2.2,1.453-6.516,1.453a9.1,9.1,0,0,1-5.062-1.312l-.047-13.453,4.734.141-.469,9.8A7.317,7.317,0,0,0,81.6-5.25l.188-3.469A52.289,52.289,0,0,0,86.192-1.5ZM54.786-27.844,51.5-23.766a50.685,50.685,0,0,0-4.031-3.516l3-3.7ZM71.754-12.891l-.187,8.953q-1.219,0-4.687.328l.094-9.328Zm-6.8-.328Q64.207-2.672,57.5-.469a33.613,33.613,0,0,0,1.758-6.516,32.254,32.254,0,0,0,.633-6.7ZM54.082-18.141l-2.344,4.172q-2.3-1.734-3.984-3.141l2.484-3.281Zm1.266,7.078A30.828,30.828,0,0,1,52.207-.937L47.1-5.906A21.726,21.726,0,0,0,55.348-11.062Zm70.633,6.75A152.687,152.687,0,0,1,106.669-3,77.346,77.346,0,0,1,92.7-4.031l.281-18.7,5.906-.281.281,13.547q5.859.844,7.172.844L105.825-31.5l7.266.234-.281,22.031q1.969.094,3.422.094a17.023,17.023,0,0,0,3.375-.234l.188-13.547,5.391.094Zm28.352.516q6.8-5.484,6.891-11.766a9.43,9.43,0,0,0-1.031-4.687,5.7,5.7,0,0,0-3.469-2.906q-2.766,9.094-12.7,17.25a10.461,10.461,0,0,1-4.031-5.016,12.959,12.959,0,0,1-1.125-6,12.138,12.138,0,0,1,4.734-9.187,14.441,14.441,0,0,1,9.844-2.859,13.76,13.76,0,0,1,9.609,3.984,12.451,12.451,0,0,1,3.422,8.906A11.545,11.545,0,0,1,163.1-7.406,14.149,14.149,0,0,1,154.333-3.8Zm-2.25-20.062A6.248,6.248,0,0,0,150.771-24a6.689,6.689,0,0,0-4.711,1.852,6.917,6.917,0,0,0-2.273,4.43,6.614,6.614,0,0,0,1.031,4.781,35.538,35.538,0,0,0,4.313-5.3A22.4,22.4,0,0,0,152.083-23.859Zm64.493,8.484q-2.766,5.063-4.5,8.625a16.955,16.955,0,0,1-3.281-5.484,35.124,35.124,0,0,1-2.484-13.547q0-1.781.141-3.562l-18.844.938a11.963,11.963,0,0,1,.281,2.766q0,11.156-8.719,16.453A55.286,55.286,0,0,0,182.4-34.922q20.531.094,28.594-.141,0,1.547-.187,4.641t-.187,4.641q0,9,2.156,11.672Zm-11.2,13.547a34.646,34.646,0,0,1-9.187,1.219,29.024,29.024,0,0,1-6.469-.656l.422-4.359a15.863,15.863,0,0,0,4.547.516l.281-3.656q-3.984-.234-6.328-.281l-.375-8.859,6.563-.141-.094-2.344q-4.359-.422-6-2.578,9.281-1.359,12.563-3.187l2.625,3.7a12.707,12.707,0,0,1-5.016,1.688l-.094,2.531,6.328.188q0,3.234-.234,8.672l-6.516.281.328,4.266a9.564,9.564,0,0,0,2.953-.375l-.281-2.25,3.375-.281ZM201.2-11.953v-2.109l-2.109.094v1.922A7.406,7.406,0,0,0,201.2-11.953Zm-6.8-2.016-2.2.047v1.875a18.566,18.566,0,0,0,2.156-.047Zm55.4-22.594q-.375,4.359-.375,7.453a30.9,30.9,0,0,0,.141,3.141q-6.562.375-11.625.375a60.934,60.934,0,0,1-7.969-.375,106.306,106.306,0,0,1,.422-10.687Zm-6.047,3.328-8.2.094.047,1.594q2.2.047,8.063-.281Zm-.375,5.484-.047-1.969-7.359.141.094,1.781a20.878,20.878,0,0,0,3.375.234Q241.177-27.562,243.381-27.75Zm11.672,9.516-30.094.656-.234-4.734q8.859.188,12.75.141v-2.391l5.25-.187.047,2.531q8.3,0,12.281-.281Zm-.7,13.781L251.584.234a16.024,16.024,0,0,1-5.25-4.969l1.594-1.781A11.463,11.463,0,0,0,254.349-4.453Zm-5.672-11.672-.234,8.2a29.889,29.889,0,0,1-5.812.563l.141,9.141L234.99-2.672q2.016.047,3.281-.047V-6.891q-2.953,0-5.719-.234l-.7-8.766Q243.1-15.891,248.677-16.125Zm-5.437,5.719v-2.625q-.328.047-6.047.141l.047,2.578a14.842,14.842,0,0,0,1.875.094Q240.709-10.219,243.24-10.406ZM233.115-4.172a9.888,9.888,0,0,1-7.641,3.047,10.1,10.1,0,0,1-1.078-.047q4.125-3.937,4.781-5.859ZM295.17-17.109a36.941,36.941,0,0,0-5.062,1.453q.422,1.688,1.031,4.172l-4.687,1.125a10.456,10.456,0,0,0-.656-3.422q-4.875,2.063-4.453,5.484.281,2.3,4.313,2.3a23.8,23.8,0,0,0,4.734-.562l.328,6.281a23.643,23.643,0,0,1-4.359.422Q278.3.141,276.42-5.2a10.976,10.976,0,0,1-.609-3.469q0-6.187,8.531-9.609-.75-1.453-3.328-1.453a17.221,17.221,0,0,0-3.047.328l-.141-5.672q-2.2.094-5.766.234l-.234-6.844q4.641-.047,5.625-.187l-.094-4.266,7.219.094a44.272,44.272,0,0,0-.516,5.156l1.875-.094,6.422-.234-.094,5.813-9.328-.234q-.047.422-.281,2.578,3.938-.094,5.438,2.859,1.5-.609,5.156-2.156ZM-133.005,34.2a27.468,27.468,0,0,1-6.375.938,27.322,27.322,0,0,1-5.625-.656q.047-.844.141-7.828l-4.312-.281a6.265,6.265,0,0,1-1.406,4.313,9.517,9.517,0,0,1-5.859,3.563q2.719-3.094,2.719-9a14.732,14.732,0,0,0-.562-4.312q2.109.188,6.609.188,3.234,0,7.688-.094,0,.891-.328,9.75a11.91,11.91,0,0,0,1.359.094,3.149,3.149,0,0,0,1.641-.328l.141-3.234Zm-1.406,16.125-3.281,7.172-7.969-5.344q-2.953,2.672-9.562,3.094,4.734-3.75,5.953-6.234l-2.859-2.766,1.359-2.672q1.406,1.125,4.078,2.859a14.525,14.525,0,0,0,1.547-4.172q-6,.328-8.531.281l-.187-5.578q9.047.328,14.25.234-.328,6.75-3.187,10.875a14.781,14.781,0,0,0,7.406,2.344A4.577,4.577,0,0,0-134.411,50.328Zm-23.531-9.891a11.786,11.786,0,0,1-1.078,1.922,14.128,14.128,0,0,1-3.422,3.141q-.047,5.484-.422,9.984-4.875-4.641-5.672-5.25h2.391l.141-3.516q-3.375.328-4.875.375l.047-4.5q1.594-.047,4.031-.234l.188-6.75q-3.281.422-4.359.469l-.187-6,4.453-.234.047-5.859h4.922l-.562,5.438,3.422-.047v5.531l-3.562.516-.094,5.859Q-160.427,40.953-157.943,40.438ZM-90.263,26.8q-4.5.094-8.484.094-8.2,0-12.609-.375l-.328-3.844q6.7-.094,7.875-.234l-.375-4.406,6.375.047-.562,3.891q3.844,0,8.109-.094Zm-4.687,1.828-.375,7.875q-6.375.234-10.922.234-.047-5.531-.141-8.016Zm-4.219,4.969a7.617,7.617,0,0,0,0-1.687l-3,.141q0,.281.047,1.547.656.047,1.406.047T-99.169,33.594Zm9,5.156q.188,7.828-.562,18.891-2.391-1.828-6.8-5.062a29.752,29.752,0,0,0,3.469-.187q-.609-6.984-.562-9.516l-13.266-.281q.188,7.922.188,12.141l-4.594.094q.469-12.562.375-15.844ZM-97.95,51.313a11.359,11.359,0,0,1-3.469.469,17.908,17.908,0,0,1-3.328-.328l-.234-5.953,6.937-.141Zm-2.437-1.734-.141-1.453-1.453.094v1.406A9.061,9.061,0,0,0-100.388,49.578Zm-12.7-9.047q-.75,2.625-3.8,2.625a7.881,7.881,0,0,1-1.453-.141l.281,11.859h-5.109q.469-7.969.422-10.078a10.419,10.419,0,0,1-7.641,2.25q1.5-1.266,4.406-3.8,2.719-2.484,3.141-4.406v-1.5l-5.906.141-.094-4.266q4.031.094,6.234-.047l.094-3.8a16.248,16.248,0,0,1-2.766.234A14.235,14.235,0,0,1-129.591,29q9.188-4.125,11.813-6.469l4.125,5.2q-3.609,1.078-4.594,1.266v4.359q2.438-.187,4.641-.281l-.141,4.688-4.078-.281.047,1.969A10.175,10.175,0,0,0-113.091,40.531Zm58.633,1.219a10.752,10.752,0,0,1-2.578,7.781,9.781,9.781,0,0,1-7.641,3.234,15.448,15.448,0,0,1-2.625-.234q-8.3-1.641-8.3-17.109a69.9,69.9,0,0,1,.656-9.094l7.969-.047a88.679,88.679,0,0,0-.844,10.547q0,8.2,3.7,9.047a7.153,7.153,0,0,0,1.828.234A8.9,8.9,0,0,0-54.458,41.75ZM-9.7,32.328q-8.3,1.922-8.953,8.813-.469,4.547,3.844,8.672l-7.453,3.375a17.3,17.3,0,0,1-3.891-10.5,10.341,10.341,0,0,1,.234-2.2,9.921,9.921,0,0,1,1.969-4.219,11.308,11.308,0,0,1,4.219-3.422q-7.5.563-15.7.891l-.141-6.187q17.109-.375,25.781-.937Zm42.039,14.2-5.578,7.313Q15.7,43.578,8.621,38.094,21.7,26.609,26.293,22.859l4.078,5.391Q20.2,35.422,17.527,37.156,24.606,41.938,32.34,46.531ZM81.879,25.2l-.328,3.656a14.528,14.528,0,0,0-2.484.8l-.7-3.891Zm-5.156,4.359a14.528,14.528,0,0,0-2.484.8l-1.078-3.891,3.563-.562Zm3.8,5.672A27.592,27.592,0,0,1,76.3,44.609q-.047-.422-.75-3.891-6.609.047-8.344,0l.047-5.437Zm-10.875-8.2L69.5,32.188q-.047.047-8.625,1.266Q58.161,41.844,56.145,47l-5.766-2.109a85.418,85.418,0,0,0,3.469-11.719q-3.328-.328-5.016-.656l-.141-5.766,6.281-.234q-.141-1.969-.469-5.156l7.266.188q-.281,3.656-.7,6.141Zm9.609,27.188a7.294,7.294,0,0,1-4.594,1.172A10.557,10.557,0,0,1,66.645,52.3l2.3-4.641a6.225,6.225,0,0,0,4.453,1.359,8.473,8.473,0,0,0,4.922-1.172Zm42.7-21.047q-4.453.891-7.125,1.641,1.594,6.7,2.813,10.781-7.219-2.25-9.984-3.375,1.266-.234,3.844-.656l-2.3-5.3L95.231,38.75,93.4,32.141q3.609-.562,7.219-1.172,4.453-.75,7.172-1.453l-2.484-5.953,7.172-1.641L113,29.141l5.156-.844q2.344-.422,3.141-.609Zm-12.375,15.75-.328,6.188q-10.406.375-12.937-7.969l4.875-2.672q.75,4.594,6.094,4.594A20.964,20.964,0,0,0,109.575,48.922Zm58.164-.094q-5.578-3.75-6.609-4.359a12.6,12.6,0,0,0-2.719-1.5q1.406-.187,4.219-.469.094-.984.094-2.016a17.531,17.531,0,0,0-2.859-9.562l6.281-1.641a34.339,34.339,0,0,1,2.25,12.328A41.882,41.882,0,0,1,167.739,48.828Zm-17.484-8.25q-4.078,4.359-4.312,4.641-1.406,1.641-3.375,4.406-5.062-4.312-5.625-17.766l6.609-.984q-.047,8.109,1.406,10.875Z" transform="translate(195 953)"/><g transform="translate(184.177 890.436)"><path class="b" d="M108.9,301.132a.438.438,0,0,1-.051,0,.626.626,0,0,1-.585-.6.91.91,0,0,0-.014-.108,2,2,0,0,1-.032-.333,1.328,1.328,0,0,0-.012-.139,2.48,2.48,0,0,1-.019-.335l0-.17c0-.1,0-.2.009-.308a2.338,2.338,0,0,1,.046-.316c.009-.05.021-.1.025-.152a1.293,1.293,0,0,1,.121-.422l.01-.021,0-.007a1.035,1.035,0,0,1,.129-.96l0,0,0-.01a1.285,1.285,0,0,1-.009-.46,1.334,1.334,0,0,1,.162-.406c.012-.022.026-.044.036-.067a1.735,1.735,0,0,1,.1-.3,1.048,1.048,0,0,0,.046-.126.789.789,0,0,0,.017-.127,2.081,2.081,0,0,1,.061-.344.714.714,0,0,0,.007-.087,1.568,1.568,0,0,1,.064-.388c.034-.1.076-.2.119-.3.022-.05.044-.1.062-.148a.908.908,0,0,1,.062-.133v-.009l-.014-.04a1.192,1.192,0,0,1-.1-.452.85.85,0,0,0-.017-.139,2.542,2.542,0,0,1-.029-.286c0-.081,0-.161,0-.24,0-.063,0-.125,0-.187a1.06,1.06,0,0,1,.134-.545l-.006-.071c0-.053-.008-.105-.014-.156a1.136,1.136,0,0,1-.247-.458,1.494,1.494,0,0,0-.062-.189c-.022-.061-.045-.124-.065-.187a.6.6,0,0,0-.285-.693c-.034-.059-.064-.121-.094-.182a1.206,1.206,0,0,0-.07-.132c.018.026,0,.014-.023,0a1.471,1.471,0,0,1-.29-.211.928.928,0,0,1-.251-.491,1.909,1.909,0,0,1-.257-.125c-.056-.035-.113-.073-.17-.111a1.648,1.648,0,0,0-.181-.113,1.4,1.4,0,0,0-.18-.069c-.074-.026-.149-.052-.221-.081a2.42,2.42,0,0,1-.258-.132c-.029-.017-.057-.035-.088-.05l-.032,0a1.257,1.257,0,0,1-.462-.034c-.083-.024-.167-.043-.251-.063l-.174-.042c-.09-.022-.182-.041-.274-.06l-.159-.033c-.066-.015-.136-.023-.205-.032s-.155-.021-.233-.036a.951.951,0,0,1-.354-.149,1.514,1.514,0,0,1-.274-.022.933.933,0,0,1-.254,0,1.046,1.046,0,0,1-.1-.02,1.793,1.793,0,0,1-.342.017c-.055,0-.111,0-.167,0-.1,0-.208,0-.312-.008s-.192-.024-.287-.04c-.061-.01-.121-.021-.182-.027a1.079,1.079,0,0,1-.515-.216l-.012-.009-.146-.018c-.062-.008-.124-.017-.186-.023a1.105,1.105,0,0,1-.484.088,1.474,1.474,0,0,1-.229-.035.983.983,0,0,1-.228.013c-.068,0-.136,0-.2,0s-.16,0-.24,0a2.065,2.065,0,0,1-.279-.031.821.821,0,0,0-.09-.013.675.675,0,0,1-.078,0,.631.631,0,0,1,.03-1.259,1.173,1.173,0,0,1,.485-.081c.09.006.182.02.276.035a1.513,1.513,0,0,0,.179.024c.05,0,.1.009.141.017a1.143,1.143,0,0,1,.332-.029c.09.007.178,0,.264.006a.906.906,0,0,1,.2-.007l.471.032a1.51,1.51,0,0,1,.395.1.712.712,0,0,0,.086.028,1.033,1.033,0,0,1,.433.151,1.06,1.06,0,0,1,.5-.079,1.367,1.367,0,0,1,.355.1h.011c.042,0,.085.005.127.009a1.137,1.137,0,0,1,.369-.049.923.923,0,0,1,.339-.1,1.783,1.783,0,0,0,.2-.039c.061-.014.123-.028.187-.039a2.337,2.337,0,0,1,.262-.029,1,1,0,0,0,.13-.013.7.7,0,0,0,.1-.052,2.072,2.072,0,0,1,.246-.12.909.909,0,0,1,.481-.043,1.09,1.09,0,0,1,.255-.235c.013-.011.032-.035.053-.058a1.7,1.7,0,0,1,.237-.227c.105-.081.2-.167.307-.261a2.606,2.606,0,0,1,.21-.163.875.875,0,0,0,.12-.093,1.343,1.343,0,0,1,.335-.235.674.674,0,0,0,.065-.036s.012-.038.032-.074a2,2,0,0,1,.17-.256c-.015.017-.011,0,0-.026a1.3,1.3,0,0,1,.177-.368,2.047,2.047,0,0,1,.205-.233.744.744,0,0,0,.077-.082.632.632,0,0,0,.053-.118,2.167,2.167,0,0,1,.125-.262,2.627,2.627,0,0,1,.152-.226.757.757,0,0,0,.082-.121,1.188,1.188,0,0,1,.251-.319,1.048,1.048,0,0,1,.06-.455,1.018,1.018,0,0,1,.311-.411v-.008a1.622,1.622,0,0,1,.051-.348,1.06,1.06,0,0,0,.025-.153,2.55,2.55,0,0,1,.043-.264,1.211,1.211,0,0,1,.2-.419l.006-.009,0-.034a1.555,1.555,0,0,1,0-.369,1.962,1.962,0,0,1,.08-.317l.02-.058a1.242,1.242,0,0,1-.082-.486,1.3,1.3,0,0,0-.006-.15,2.583,2.583,0,0,1-.01-.278c0-.085.011-.172.021-.26a1.392,1.392,0,0,0,.014-.172,1.643,1.643,0,0,0-.014-.171c-.01-.086-.02-.173-.023-.259a.633.633,0,0,1,.258-.532,1.158,1.158,0,0,1,.124-.326,1.129,1.129,0,0,1-.088-.435.965.965,0,0,1,.127-.443.976.976,0,0,1-.124-.436,1.323,1.323,0,0,0-.019-.165c-.013-.088-.025-.176-.03-.265a1.094,1.094,0,0,1,.1-.5l-.01-.029a1.742,1.742,0,0,1-.088-.333,1.573,1.573,0,0,1,0-.341.987.987,0,0,1-.278-.459.631.631,0,0,1,1.182-.422,1.043,1.043,0,0,1,.344.557,1.6,1.6,0,0,1,.012.407.593.593,0,0,0-.005.094.727.727,0,0,0,.028.081,1.6,1.6,0,0,1,.1.388,1.1,1.1,0,0,1-.11.538l0,.014.012.084c.011.076.022.152.028.228a1.1,1.1,0,0,1,.181.565.986.986,0,0,1-.146.492.988.988,0,0,1-.079.946l0,.007.008.056a2.2,2.2,0,0,1,.021.291l.014.042a1.185,1.185,0,0,1,.084.473.984.984,0,0,1-.24.561l-.021.519,0,.066a.871.871,0,0,1,0,.134l0,.035v.02c0,.072,0,.144,0,.216s0,.154,0,.231a.85.85,0,0,0,.017.128,2.193,2.193,0,0,1,.034.31.84.84,0,0,0,.021.088,1.655,1.655,0,0,1,.061.346,2.209,2.209,0,0,1-.013.3.834.834,0,0,0-.007.132.563.563,0,0,0,.027.083,1.751,1.751,0,0,1,.082.336,1.075,1.075,0,0,1-.065.484,1.388,1.388,0,0,1,.142.365c0-.024.009,0,.023.016a1.369,1.369,0,0,1,.171.37c.02.074.035.148.05.221s.024.124.043.186a1.091,1.091,0,0,1,.022.522v.007c.024.055.051.112.077.168l.064.14c.034.072.062.149.09.227.008.02.016.041.023.062a1.01,1.01,0,0,1,.429.372,1.88,1.88,0,0,1,.133.288.6.6,0,0,0,.042.1.619.619,0,0,0,.08.083,2.17,2.17,0,0,1,.2.226,1.46,1.46,0,0,1,.181.338.614.614,0,0,0,.032.074,1.11,1.11,0,0,1,.172.308.981.981,0,0,1,.453.247l.116.118c.061.063.122.127.187.187a2.172,2.172,0,0,1,.207.231.764.764,0,0,0,.082.1.851.851,0,0,0,.118.076,2.269,2.269,0,0,1,.246.168.7.7,0,0,0,.105.058,2.144,2.144,0,0,1,.272.165,1.293,1.293,0,0,1,.291.32c.014.019.026.039.041.057,0-.01.046.013.09.035a2.419,2.419,0,0,1,.259.142c.122.079.245.156.371.232a1.188,1.188,0,0,1,.316.3,1.084,1.084,0,0,1,.465.115.943.943,0,0,1,.319.287.889.889,0,0,1,.49.072.812.812,0,0,1,.3.243c.044.01.09.015.136.022a2.507,2.507,0,0,1,.313.06,1.258,1.258,0,0,1,.338.154.767.767,0,0,1,.133.039.863.863,0,0,1,.2.113l.044.018a1.513,1.513,0,0,0,.146.057c.092.029.182.064.271.1l.008,0a.861.861,0,0,1,.274.087l.027.005c.081.016.162.033.24.056a1.2,1.2,0,0,1,.55.034,1.494,1.494,0,0,1,.351.188.789.789,0,0,0,.072.046.79.79,0,0,1,.122.054c.056.025.1.051.147.073a.615.615,0,0,0,.077.039,2.258,2.258,0,0,1,.263.081c.029.01.057.021.086.03a.947.947,0,0,1,.144.04.631.631,0,0,1-.333,1.214l-.095-.023-.053,0a1.47,1.47,0,0,1-.4-.073,1.263,1.263,0,0,1-.373-.221h-.018a1.3,1.3,0,0,1-.448-.035.521.521,0,0,1-.064,0,1.4,1.4,0,0,1-.416-.053,1.015,1.015,0,0,1-.423-.275,1.049,1.049,0,0,1-.474-.044.975.975,0,0,0-.893-.336.764.764,0,0,0-.1-.022,1.641,1.641,0,0,1-.365-.1.8.8,0,0,1-.247-.172,1.062,1.062,0,0,1-.457.025,2.112,2.112,0,0,1-.292-.082.8.8,0,0,0-.127-.038,1.1,1.1,0,0,1-.489-.227l-.01-.007-.128-.02c-.071-.012-.141-.024-.211-.029a1.474,1.474,0,0,0-.16.008c-.093.008-.191.013-.273.012s-.149-.006-.223-.012a1.786,1.786,0,0,0-.2-.009l-.16,0c-.089,0-.179,0-.265.011a.835.835,0,0,0-.139.036,2.274,2.274,0,0,1-.271.067c-.015.006-.043.022-.072.035a1.74,1.74,0,0,1-.316.121,1.339,1.339,0,0,0-.17.063c-.068.028-.137.056-.208.08a1.672,1.672,0,0,0-.2.088l-.163.076a1.411,1.411,0,0,1-.363.1c-.026,0-.051.007-.075.013.014,0-.011.029-.038.055a2.122,2.122,0,0,1-.2.177,1.1,1.1,0,0,1-.4.178,1.416,1.416,0,0,1-.2.311,1.386,1.386,0,0,1-.285.241.816.816,0,0,0-.067.048l-.125.206-.073.118a.824.824,0,0,0-.046.114,2.2,2.2,0,0,1-.119.277,1.76,1.76,0,0,1-.18.258.892.892,0,0,1-.134.766c0,.018,0,.035,0,.053a1.139,1.139,0,0,1-.154.478.119.119,0,0,1-.017.03c-.01.083-.025.166-.041.249-.01.052-.021.1-.026.158a.885.885,0,0,0,0,.126,1.993,1.993,0,0,1-.007.337c.005-.03.01,0,.015.021a1.266,1.266,0,0,1,.03.45,1.165,1.165,0,0,1-.183.458l-.015.023c0,.033,0,.066,0,.1a2.3,2.3,0,0,1-.025.312,1.171,1.171,0,0,1-.17.42,1.088,1.088,0,0,1,.032.484c0,.027,0,.059,0,.092a1.466,1.466,0,0,1-.021.365,1.569,1.569,0,0,1-.126.364.656.656,0,0,0-.035.077c-.008.044-.013.1-.018.154a2.68,2.68,0,0,1-.041.287c-.012.061-.021.123-.028.185-.013.088-.024.174-.042.257a1.42,1.42,0,0,1-.137.366A.652.652,0,0,1,108.9,301.132Zm1.249-4.026v0Zm.224-1.825h0Zm-1.118-.972v0Zm-.011-1.743a.109.109,0,0,0,0,.018Zm-.041-.4v0Zm.976-.736a1.137,1.137,0,0,1,.27.532c0,.022.007.044.01.067.04-.031.078-.057.112-.08a.739.739,0,0,0,.064-.046c-.017.011,0-.018.011-.042a1.308,1.308,0,0,1,.269-.389,1.093,1.093,0,0,1,.52-.253l.024-.006.045-.043a1.609,1.609,0,0,1,.338-.264,1.3,1.3,0,0,1,.449-.139c.024,0,.05-.007.073-.013l.105-.051a2.989,2.989,0,0,1,.339-.146c.047-.016.091-.034.135-.052a2.47,2.47,0,0,1,.345-.12c.025-.009.053-.024.081-.037a1.472,1.472,0,0,1,.4-.139c.041-.007.083-.021.126-.033a1.93,1.93,0,0,1,.37-.081c.119-.012.243-.015.367-.017l.06,0a1.419,1.419,0,0,1-.235-.274.637.637,0,0,0-.04-.057.414.414,0,0,1-.075-.032,1.922,1.922,0,0,1-.3-.189,1.162,1.162,0,0,0-.117-.076,2.079,2.079,0,0,1-.283-.2,1.882,1.882,0,0,1-.246-.266.89.89,0,0,0-.08-.093c-.082-.076-.159-.156-.236-.236l-.035-.035a1.038,1.038,0,0,1-.544-.29,1.273,1.273,0,0,1-.236-.406c-.009-.022-.017-.046-.028-.067a1.256,1.256,0,0,1-.19-.346.613.613,0,0,0-.032-.074c-.015-.019-.046-.047-.075-.076a1.865,1.865,0,0,1-.237-.275,1.717,1.717,0,0,1-.171-.349l0-.013a.981.981,0,0,1-.452-.409,2.638,2.638,0,0,1-.134-.32c-.018-.047-.035-.1-.055-.14l-.058-.124c-.051-.109-.1-.217-.143-.326a1.087,1.087,0,0,1-.038-.573l0-.021c-.023-.082-.04-.166-.057-.25-.01-.049-.019-.1-.032-.146,0,.012-.014-.012-.026-.031a1.352,1.352,0,0,1-.175-.381,1.312,1.312,0,0,1-.243.282l-.048.046a1.438,1.438,0,0,1-.157.245,1.255,1.255,0,0,0-.078.113.891.891,0,0,0-.052.114,1.927,1.927,0,0,1-.161.321,1.64,1.64,0,0,1-.238.282.687.687,0,0,0-.078.084c.009-.009,0,.015-.006.037a1.256,1.256,0,0,1-.207.407.882.882,0,0,0-.062.1,1.848,1.848,0,0,1-.211.306,1.3,1.3,0,0,1-.382.282c-.021.012-.042.022-.061.035a1.853,1.853,0,0,1-.258.209,1.1,1.1,0,0,0-.1.076c-.13.116-.252.223-.382.322a.536.536,0,0,0-.07.073,1.509,1.509,0,0,1-.3.272c.028-.019.016,0,0,.018a1.354,1.354,0,0,1-.241.263c.056.028.111.058.166.089a.864.864,0,0,0,.116.062c.047.02.1.037.145.054a2.585,2.585,0,0,1,.334.133,2.766,2.766,0,0,1,.324.2c.04.027.08.054.12.079a.627.627,0,0,0,.1.044,1.56,1.56,0,0,1,.381.2.924.924,0,0,1,.332.592,1.2,1.2,0,0,1,.347.294,1.948,1.948,0,0,1,.207.351l.014.03a1.011,1.011,0,0,1,.45.467.979.979,0,0,1,.016.645l.013.037C110.121,291.249,110.152,291.337,110.177,291.428Zm.019.076h0Zm5.9-.109h0Zm-6.451-1.3h0Zm.6-15.048h0Zm.865-.841h0Z" transform="translate(-99.137 -267.436)"/><path class="b" d="M129.2,275.609c-4.362.506-5.311,4.456-5.785,7.391-.474-2.935-1.3-4.891-1.928-5.431a5.551,5.551,0,0,0-5.121-1.833c5.374-1.321,6.765-3.92,7.4-8.3C123.76,272.574,125.214,274.415,129.2,275.609Z" transform="translate(-99.137 -267.436)"/></g></g></svg>