<svg xmlns="http://www.w3.org/2000/svg" width="418.093" height="80.802" viewBox="0 0 418.093 80.802"><defs><style>.a{fill:#3d3d3d;}.b{fill:#e6d231;}</style></defs><g transform="translate(13.5 -2634)"><path class="a" d="M-124.219-18.844a27.282,27.282,0,0,1-7.078.891,67.881,67.881,0,0,1-7.734-.609v-5.906a24.451,24.451,0,0,1-4.219-.937q1.125-.375,4.313-1.641l-.422-8.3,6,.094q-.187,2.438-.562,6.188,2.438-1.125,3.047-1.453a16.483,16.483,0,0,0,2.766-1.875l2.578,3.609q-2.156,1.688-7.828,3.609v2.813a52.844,52.844,0,0,0,5.672-.328,8.5,8.5,0,0,0,2.438-2.062Zm-22.359-12.375-.094,4.266-5.062-.094-.187,3.844q.656-.094,5.016-1.406a15.913,15.913,0,0,1-5.016,5.016,22.208,22.208,0,0,1-9.891,3.656l-1.312-4.078a34.6,34.6,0,0,0,5.3-1.547l-.7-13.453,6.7-.281-.141,4.547A46.053,46.053,0,0,0-146.578-31.219ZM-134.2,0a71.185,71.185,0,0,1-10.078.7,64.858,64.858,0,0,1-9-.562q0-12.094-.141-14.766,3.047-.234,5.719-.375,2.531-3.234,3.7-4.969a51.236,51.236,0,0,0,4.875,3.375,14.541,14.541,0,0,1-3.891,1.875l8.719-.047q-.047,3.7-.047,6.7Q-134.344-3.094-134.2,0Zm-7.125-11.25-5.109-.094.047,2.953q1.219,0,4.969-.187Zm.375,8.344-.094-2.344h-5.016l.094,2.719A18.3,18.3,0,0,0-140.953-2.906Zm52.9-19.922q-4.453.891-7.125,1.641,1.594,6.7,2.813,10.781-7.219-2.25-9.984-3.375,1.266-.234,3.844-.656l-2.3-5.3-13.969,2.484-1.828-6.609q3.609-.562,7.219-1.172,4.453-.75,7.172-1.453l-2.484-5.953,7.172-1.641L-97-26.859l5.156-.844q2.344-.422,3.141-.609Zm-12.375,15.75-.328,6.188q-10.406.375-12.937-7.969l4.875-2.672q.75,4.594,6.094,4.594A20.964,20.964,0,0,0-100.425-7.078Zm48.666,2.156L-54.9.328a54.431,54.431,0,0,0-5.906-4.594,6.9,6.9,0,0,1-6.187,3.047q-4.641,0-5.812-4.266a6.037,6.037,0,0,1-.141-1.266,4.813,4.813,0,0,1,1.57-3.609,5.566,5.566,0,0,1,4.008-1.5,7.281,7.281,0,0,1,2.391.422q-.094-2.25-.094-3.047l-9.187-.422-.047-4.266,8.953-.562-.187-2.766h-8.391l-.328-6.516,8.531-.094-1.359-5.437,6.937-.562.188,6.047,6.516.094v6q-1.875.141-6.281.656.188,1.688.234,2.672l6.141.281.188,4.547a49.561,49.561,0,0,1-6.047.609,30.809,30.809,0,0,1-.375,5.156A63.2,63.2,0,0,1-51.759-4.922ZM-65.306-7.5a2.473,2.473,0,0,0-2.156-.422,1.227,1.227,0,0,0-.984,1.313q.047,1.266,1.734,1.266a3.732,3.732,0,0,0,1.5-.3q.7-.3.7-.82T-65.306-7.5Zm42.759,3.7q6.8-5.484,6.891-11.766a9.43,9.43,0,0,0-1.031-4.687,5.7,5.7,0,0,0-3.469-2.906q-2.766,9.094-12.7,17.25a10.461,10.461,0,0,1-4.031-5.016,12.959,12.959,0,0,1-1.125-6,12.138,12.138,0,0,1,4.734-9.187,14.441,14.441,0,0,1,9.844-2.859,13.76,13.76,0,0,1,9.609,3.984,12.451,12.451,0,0,1,3.422,8.906,11.545,11.545,0,0,1-3.375,8.672A14.149,14.149,0,0,1-22.547-3.8ZM-24.8-23.859A6.248,6.248,0,0,0-26.109-24a6.689,6.689,0,0,0-4.711,1.852,6.917,6.917,0,0,0-2.273,4.43,6.614,6.614,0,0,0,1.031,4.781,35.538,35.538,0,0,0,4.313-5.3A22.4,22.4,0,0,0-24.8-23.859ZM34.275-21.8a27.468,27.468,0,0,1-6.375.938,27.322,27.322,0,0,1-5.625-.656q.047-.844.141-7.828L18.1-29.625A6.265,6.265,0,0,1,16.7-25.312a9.517,9.517,0,0,1-5.859,3.563q2.719-3.094,2.719-9a14.732,14.732,0,0,0-.562-4.312q2.109.188,6.609.188,3.234,0,7.688-.094,0,.891-.328,9.75a11.91,11.91,0,0,0,1.359.094,3.149,3.149,0,0,0,1.641-.328l.141-3.234ZM32.869-5.672,29.587,1.5,21.619-3.844Q18.666-1.172,12.056-.75q4.734-3.75,5.953-6.234L15.15-9.75l1.359-2.672q1.406,1.125,4.078,2.859a14.525,14.525,0,0,0,1.547-4.172q-6,.328-8.531.281l-.187-5.578q9.047.328,14.25.234-.328,6.75-3.187,10.875a14.781,14.781,0,0,0,7.406,2.344A4.577,4.577,0,0,0,32.869-5.672ZM9.337-15.562a11.786,11.786,0,0,1-1.078,1.922A14.128,14.128,0,0,1,4.837-10.5Q4.791-5.016,4.416-.516-.459-5.156-1.256-5.766H1.134l.141-3.516Q-2.1-8.953-3.6-8.906l.047-4.5q1.594-.047,4.031-.234l.188-6.75q-3.281.422-4.359.469l-.187-6,4.453-.234.047-5.859H5.541l-.562,5.438L8.4-26.625v5.531l-3.562.516-.094,5.859Q6.853-15.047,9.337-15.562ZM76.538-29.2q-4.5.094-8.484.094-8.2,0-12.609-.375l-.328-3.844q6.7-.094,7.875-.234l-.375-4.406,6.375.047-.562,3.891q3.844,0,8.109-.094ZM71.85-27.375,71.475-19.5q-6.375.234-10.922.234-.047-5.531-.141-8.016Zm-4.219,4.969a7.617,7.617,0,0,0,0-1.687l-3,.141q0,.281.047,1.547.656.047,1.406.047T67.631-22.406Zm9,5.156q.188,7.828-.562,18.891-2.391-1.828-6.8-5.062a29.752,29.752,0,0,0,3.469-.187q-.609-6.984-.562-9.516l-13.266-.281Q59.1-5.484,59.1-1.266l-4.594.094q.469-12.562.375-15.844ZM68.85-4.687a11.359,11.359,0,0,1-3.469.469,17.908,17.908,0,0,1-3.328-.328L61.819-10.5l6.938-.141ZM66.413-6.422l-.141-1.453-1.453.094v1.406A9.061,9.061,0,0,0,66.413-6.422Zm-12.7-9.047q-.75,2.625-3.8,2.625a7.881,7.881,0,0,1-1.453-.141l.281,11.859H43.631q.469-7.969.422-10.078a10.419,10.419,0,0,1-7.641,2.25q1.5-1.266,4.406-3.8,2.719-2.484,3.141-4.406v-1.5l-5.906.141-.094-4.266q4.031.094,6.234-.047l.094-3.8a16.248,16.248,0,0,1-2.766.234A14.235,14.235,0,0,1,37.209-27q9.188-4.125,11.813-6.469l4.125,5.2Q49.538-27.187,48.553-27v4.359q2.438-.187,4.641-.281l-.141,4.688-4.078-.281.047,1.969A10.175,10.175,0,0,0,53.709-15.469Zm65.653-14.484-.234,5.391q-7.125.281-9.094.234l.047,3.563q4.875-.141,7.406-.328l-.047,5.2q-5.3-.187-7.641-.141l.234,3.609q6.375.047,8.109-.047L118-7.312h-8.109l.047,7.359L104.175,0l.328-24.234-2.672-.047a10.391,10.391,0,0,1-7.594,3,47.948,47.948,0,0,0,5.953-8.812,30.49,30.49,0,0,0,2.672-6.562l6,2.813a17.178,17.178,0,0,1-2.906,4.266ZM95.456-28.172a26.027,26.027,0,0,1-5.344,4.828Q91.378-5.391,91.378-2.531l-5.344.141.516-19.969a12.453,12.453,0,0,1-5.344,1.078,17.755,17.755,0,0,1-2.2-.141q8.906-6.656,11.344-11.391Zm57.731,9.938q-12-.375-17.719-.234-.328-5.625-.328-10.078,0-3.281.188-5.953,13.031,0,17.813.188Zm-5.3-5.25-.187-5.109a53.616,53.616,0,0,0-6.234-.141l-.281,5.3q1.641.094,3.141.094Q146.156-23.344,147.891-23.484ZM161.25-1.172q-4.5.188-7.687.188a32.919,32.919,0,0,1-6.422-.422q-.094-10.5.094-13.172l13.219-.047Q161.3-5.812,161.25-1.172ZM156.328-6q0,.609-.141-3.7L152.344-9.8v4.031q.609.047,1.219.047A14.079,14.079,0,0,0,156.328-6ZM140.672-1.172a87.009,87.009,0,0,1-13.453-.422l.188-12.562q3.563-.094,6.328-.094,3.891,0,6.234.188Zm-4.453-4.969q0-.609-.094-3l-4.406-.234-.094,3.656A13.084,13.084,0,0,0,136.219-6.141Z" transform="translate(192.5 2709.83)"/><g transform="translate(167.157 1496.564)"><path class="b" d="M112.558,311.409a.612.612,0,0,1-.07,0,.861.861,0,0,1-.8-.818,1.252,1.252,0,0,0-.019-.148,2.752,2.752,0,0,1-.044-.458,1.826,1.826,0,0,0-.017-.191,3.41,3.41,0,0,1-.026-.461l.006-.234c0-.14,0-.28.012-.423a3.214,3.214,0,0,1,.063-.435c.012-.069.029-.139.034-.209a1.778,1.778,0,0,1,.166-.58l.014-.029,0-.01a1.424,1.424,0,0,1,.177-1.32l0,0,0-.014a1.766,1.766,0,0,1-.012-.633,1.834,1.834,0,0,1,.223-.558c.017-.03.036-.06.05-.092a2.385,2.385,0,0,1,.135-.408,1.436,1.436,0,0,0,.063-.173,1.087,1.087,0,0,0,.023-.175,2.862,2.862,0,0,1,.084-.473.982.982,0,0,0,.01-.12,2.157,2.157,0,0,1,.088-.534c.047-.14.1-.276.164-.41.03-.069.06-.135.085-.2a1.247,1.247,0,0,1,.085-.183V302.1l-.019-.055a1.638,1.638,0,0,1-.132-.622,1.168,1.168,0,0,0-.023-.191,3.5,3.5,0,0,1-.04-.393c0-.111,0-.221,0-.33,0-.087.007-.172,0-.257a1.457,1.457,0,0,1,.184-.749l-.008-.1c-.007-.073-.011-.144-.019-.214a1.562,1.562,0,0,1-.34-.63,2.056,2.056,0,0,0-.085-.26c-.03-.084-.062-.171-.089-.257a.82.82,0,0,0-.392-.953c-.047-.081-.088-.166-.129-.25a1.664,1.664,0,0,0-.1-.182c.025.036-.005.019-.032,0a2.02,2.02,0,0,1-.4-.29,1.276,1.276,0,0,1-.345-.675,2.633,2.633,0,0,1-.353-.172c-.077-.048-.155-.1-.234-.153a2.263,2.263,0,0,0-.249-.155,1.927,1.927,0,0,0-.247-.095c-.1-.036-.2-.071-.3-.111a3.327,3.327,0,0,1-.355-.182c-.04-.023-.078-.048-.121-.069l-.044,0a1.729,1.729,0,0,1-.635-.047c-.114-.033-.23-.059-.345-.087l-.239-.058c-.124-.03-.25-.056-.377-.083l-.219-.045c-.091-.021-.187-.032-.282-.044s-.213-.029-.32-.049a1.305,1.305,0,0,1-.487-.2,2.08,2.08,0,0,1-.377-.03,1.285,1.285,0,0,1-.349,0,1.427,1.427,0,0,1-.142-.027,2.465,2.465,0,0,1-.47.023c-.076-.005-.153,0-.23,0-.14,0-.286,0-.429-.011s-.264-.033-.395-.055c-.084-.014-.166-.029-.25-.037a1.485,1.485,0,0,1-.708-.3l-.016-.012-.2-.025c-.085-.011-.171-.023-.256-.032a1.52,1.52,0,0,1-.665.121,2.026,2.026,0,0,1-.315-.048,1.352,1.352,0,0,1-.313.018c-.094,0-.187,0-.281,0-.111,0-.22,0-.33,0a2.841,2.841,0,0,1-.384-.043,1.124,1.124,0,0,0-.124-.018.928.928,0,0,1-.107-.005.867.867,0,0,1,.041-1.731,1.613,1.613,0,0,1,.667-.111c.124.008.25.028.379.048a2.073,2.073,0,0,0,.246.033c.069.005.133.012.194.023a1.571,1.571,0,0,1,.456-.04c.124.01.245.005.363.008a1.247,1.247,0,0,1,.272-.01l.648.044a2.075,2.075,0,0,1,.543.132.987.987,0,0,0,.118.038,1.42,1.42,0,0,1,.6.208,1.457,1.457,0,0,1,.69-.109,1.878,1.878,0,0,1,.488.136h.015c.058,0,.117.007.175.012a1.565,1.565,0,0,1,.507-.067,1.27,1.27,0,0,1,.466-.143,2.449,2.449,0,0,0,.281-.054c.084-.019.169-.039.257-.054a3.21,3.21,0,0,1,.36-.04,1.36,1.36,0,0,0,.179-.018.963.963,0,0,0,.14-.071,2.834,2.834,0,0,1,.338-.165,1.25,1.25,0,0,1,.661-.059,1.5,1.5,0,0,1,.351-.323c.018-.015.044-.048.073-.08a2.338,2.338,0,0,1,.326-.312c.144-.111.279-.23.422-.359a3.59,3.59,0,0,1,.289-.224,1.2,1.2,0,0,0,.165-.128,1.848,1.848,0,0,1,.461-.323.918.918,0,0,0,.089-.049c-.007,0,.017-.052.044-.1a2.742,2.742,0,0,1,.234-.352c-.021.023-.015,0,0-.036a1.785,1.785,0,0,1,.243-.506,2.814,2.814,0,0,1,.282-.32,1.027,1.027,0,0,0,.106-.113.871.871,0,0,0,.073-.162,2.978,2.978,0,0,1,.172-.36,3.62,3.62,0,0,1,.209-.311,1.041,1.041,0,0,0,.113-.166,1.631,1.631,0,0,1,.345-.439,1.442,1.442,0,0,1,.082-.626,1.4,1.4,0,0,1,.428-.565v-.011a2.23,2.23,0,0,1,.07-.479,1.459,1.459,0,0,0,.034-.21,3.506,3.506,0,0,1,.059-.363,1.665,1.665,0,0,1,.275-.576l.008-.012-.006-.047a2.138,2.138,0,0,1,0-.507,2.7,2.7,0,0,1,.11-.436l.027-.08a1.708,1.708,0,0,1-.113-.668,1.785,1.785,0,0,0-.008-.206,3.552,3.552,0,0,1-.014-.382c0-.117.015-.236.029-.357a1.916,1.916,0,0,0,.019-.237,2.263,2.263,0,0,0-.019-.235c-.014-.118-.028-.238-.032-.356a.871.871,0,0,1,.355-.732,1.592,1.592,0,0,1,.17-.448,1.553,1.553,0,0,1-.121-.6,1.326,1.326,0,0,1,.175-.609,1.343,1.343,0,0,1-.171-.6,1.816,1.816,0,0,0-.026-.227c-.018-.121-.034-.242-.041-.364a1.5,1.5,0,0,1,.144-.686l-.014-.04a2.4,2.4,0,0,1-.121-.458,2.162,2.162,0,0,1-.006-.469,1.356,1.356,0,0,1-.382-.631.867.867,0,0,1,1.625-.58,1.435,1.435,0,0,1,.473.766,2.2,2.2,0,0,1,.016.56.817.817,0,0,0-.007.129,1,1,0,0,0,.038.111,2.2,2.2,0,0,1,.131.534,1.506,1.506,0,0,1-.151.74l-.007.019.017.115c.015.1.03.209.038.313a1.514,1.514,0,0,1,.249.777,1.355,1.355,0,0,1-.2.676,1.359,1.359,0,0,1-.109,1.3l0,.01.011.077a3.027,3.027,0,0,1,.029.4l.019.058a1.63,1.63,0,0,1,.115.65,1.353,1.353,0,0,1-.33.771l-.029.714,0,.091a1.2,1.2,0,0,1-.006.184l0,.048v.027c0,.1,0,.2,0,.3s.005.212,0,.318a1.168,1.168,0,0,0,.023.176,3.014,3.014,0,0,1,.047.426,1.153,1.153,0,0,0,.029.121,2.276,2.276,0,0,1,.084.476,3.037,3.037,0,0,1-.018.418,1.146,1.146,0,0,0-.01.181.774.774,0,0,0,.037.114,2.407,2.407,0,0,1,.113.462,1.478,1.478,0,0,1-.089.665,1.909,1.909,0,0,1,.2.5c-.006-.033.012-.005.032.022a1.882,1.882,0,0,1,.235.509c.027.1.048.2.069.3.018.085.033.171.059.256a1.5,1.5,0,0,1,.03.718v.01c.033.076.07.154.106.231l.088.193c.047.1.085.2.124.312.011.028.022.056.032.085a1.388,1.388,0,0,1,.59.511,2.584,2.584,0,0,1,.183.4.822.822,0,0,0,.058.139.852.852,0,0,0,.11.114,2.981,2.981,0,0,1,.278.311,2.006,2.006,0,0,1,.249.465.842.842,0,0,0,.044.1,1.527,1.527,0,0,1,.236.423,1.348,1.348,0,0,1,.623.34l.16.162c.084.087.168.175.257.257a2.989,2.989,0,0,1,.285.318,1.05,1.05,0,0,0,.113.133,1.174,1.174,0,0,0,.162.1,3.113,3.113,0,0,1,.338.231.955.955,0,0,0,.144.08,2.949,2.949,0,0,1,.374.227,1.779,1.779,0,0,1,.4.44c.019.026.036.054.056.078,0-.014.063.018.124.048a3.331,3.331,0,0,1,.356.2c.168.109.337.214.51.319a1.633,1.633,0,0,1,.434.407,1.489,1.489,0,0,1,.639.158,1.3,1.3,0,0,1,.439.395,1.222,1.222,0,0,1,.674.1,1.116,1.116,0,0,1,.411.334c.06.014.124.021.187.03a3.446,3.446,0,0,1,.43.083,1.73,1.73,0,0,1,.465.212,1.054,1.054,0,0,1,.183.054,1.187,1.187,0,0,1,.28.155l.061.025a2.071,2.071,0,0,0,.2.078c.126.04.25.088.373.138l.011,0a1.183,1.183,0,0,1,.377.12l.037.007c.111.022.223.045.33.077a1.644,1.644,0,0,1,.756.047,2.053,2.053,0,0,1,.483.258,1.084,1.084,0,0,0,.1.063,1.089,1.089,0,0,1,.168.074c.077.034.144.07.2.1a.843.843,0,0,0,.106.054,3.108,3.108,0,0,1,.362.111c.04.014.078.029.118.041a1.3,1.3,0,0,1,.2.055.867.867,0,0,1-.458,1.669c-.044-.01-.088-.021-.131-.032-.018,0-.045,0-.073,0a2.023,2.023,0,0,1-.549-.1,1.737,1.737,0,0,1-.513-.3h-.025a1.787,1.787,0,0,1-.616-.048.726.726,0,0,1-.088,0,1.923,1.923,0,0,1-.572-.073,1.4,1.4,0,0,1-.582-.378,1.442,1.442,0,0,1-.652-.06,1.34,1.34,0,0,0-1.228-.462,1.057,1.057,0,0,0-.137-.03,2.256,2.256,0,0,1-.5-.143,1.106,1.106,0,0,1-.34-.236,1.46,1.46,0,0,1-.628.034,2.9,2.9,0,0,1-.4-.113,1.1,1.1,0,0,0-.175-.052,1.509,1.509,0,0,1-.672-.312l-.014-.01-.176-.027c-.1-.016-.194-.033-.29-.04a2.034,2.034,0,0,0-.22.011c-.128.011-.263.018-.375.016s-.2-.008-.307-.016a2.452,2.452,0,0,0-.279-.012l-.22.005c-.122,0-.246,0-.364.015a1.144,1.144,0,0,0-.191.049,3.137,3.137,0,0,1-.373.092c-.021.008-.059.03-.1.048a2.387,2.387,0,0,1-.434.166,1.853,1.853,0,0,0-.234.087c-.093.038-.188.077-.286.11a2.3,2.3,0,0,0-.274.121l-.224.1a1.937,1.937,0,0,1-.5.133c-.036.006-.07.01-.1.018.019,0-.015.04-.052.076a2.916,2.916,0,0,1-.28.243,1.517,1.517,0,0,1-.554.245,1.947,1.947,0,0,1-.274.428,1.9,1.9,0,0,1-.392.331,1.132,1.132,0,0,0-.092.066l-.172.283-.1.162a1.135,1.135,0,0,0-.063.157,3.022,3.022,0,0,1-.164.381,2.417,2.417,0,0,1-.247.355,1.226,1.226,0,0,1-.184,1.053c0,.025,0,.048,0,.073a1.567,1.567,0,0,1-.212.657.165.165,0,0,1-.023.041c-.014.114-.034.228-.056.342-.014.072-.029.144-.036.217a1.218,1.218,0,0,0,0,.173,2.741,2.741,0,0,1-.01.463c.007-.041.014,0,.021.029a1.74,1.74,0,0,1,.041.619,1.6,1.6,0,0,1-.252.63l-.021.032c0,.045,0,.091,0,.136a3.165,3.165,0,0,1-.034.429,1.61,1.61,0,0,1-.234.578,1.5,1.5,0,0,1,.044.665c0,.037,0,.081,0,.126a2.017,2.017,0,0,1-.029.5,2.157,2.157,0,0,1-.173.5.9.9,0,0,0-.048.106c-.011.061-.018.136-.025.212a3.684,3.684,0,0,1-.056.395c-.017.084-.029.169-.038.254-.018.121-.033.239-.058.353a1.952,1.952,0,0,1-.188.5A.9.9,0,0,1,112.558,311.409Zm1.717-5.536v0Zm.308-2.509h0Zm-1.537-1.336v0Zm-.015-2.4a.15.15,0,0,0,0,.025Zm-.056-.553v0Zm1.342-1.012a1.564,1.564,0,0,1,.371.731c.005.03.01.061.014.092.055-.043.107-.078.154-.11a1.006,1.006,0,0,0,.088-.063c-.023.015,0-.025.015-.058a1.8,1.8,0,0,1,.37-.535,1.5,1.5,0,0,1,.715-.348l.033-.008.062-.059a2.213,2.213,0,0,1,.465-.363,1.79,1.79,0,0,1,.617-.191c.033-.006.069-.01.1-.018l.144-.07a4.108,4.108,0,0,1,.466-.2c.065-.022.125-.047.186-.072a3.4,3.4,0,0,1,.474-.165c.034-.012.073-.033.111-.051a2.022,2.022,0,0,1,.551-.191,1.79,1.79,0,0,0,.173-.045,2.658,2.658,0,0,1,.509-.111c.164-.016.334-.021.5-.023l.083,0a1.953,1.953,0,0,1-.323-.377.871.871,0,0,0-.055-.078.565.565,0,0,1-.1-.044,2.641,2.641,0,0,1-.417-.26,1.594,1.594,0,0,0-.161-.1,2.856,2.856,0,0,1-.389-.272,2.59,2.59,0,0,1-.338-.366,1.217,1.217,0,0,0-.11-.128c-.113-.1-.219-.214-.324-.324l-.048-.048a1.427,1.427,0,0,1-.748-.4,1.75,1.75,0,0,1-.324-.558c-.012-.03-.023-.063-.038-.092a1.727,1.727,0,0,1-.261-.476.844.844,0,0,0-.044-.1c-.021-.026-.063-.065-.1-.1a2.563,2.563,0,0,1-.326-.378,2.361,2.361,0,0,1-.235-.48l-.007-.018a1.349,1.349,0,0,1-.621-.562,3.627,3.627,0,0,1-.184-.44c-.025-.065-.048-.131-.076-.193l-.08-.171c-.07-.15-.139-.3-.2-.448a1.5,1.5,0,0,1-.052-.788l0-.029c-.032-.113-.055-.228-.078-.344-.014-.067-.026-.135-.044-.2,0,.016-.019-.017-.036-.043a1.859,1.859,0,0,1-.241-.524,1.8,1.8,0,0,1-.334.388l-.066.063a1.98,1.98,0,0,1-.216.337,1.725,1.725,0,0,0-.107.155,1.228,1.228,0,0,0-.072.157,2.651,2.651,0,0,1-.221.441,2.256,2.256,0,0,1-.327.388.944.944,0,0,0-.107.115c.012-.012,0,.021-.008.051a1.726,1.726,0,0,1-.285.56,1.215,1.215,0,0,0-.085.139,2.542,2.542,0,0,1-.29.421,1.783,1.783,0,0,1-.525.388c-.029.016-.058.03-.084.048a2.545,2.545,0,0,1-.355.287,1.512,1.512,0,0,0-.137.1c-.179.159-.346.307-.525.443a.737.737,0,0,0-.1.1,2.076,2.076,0,0,1-.418.374c.038-.026.022,0,0,.025a1.861,1.861,0,0,1-.331.362c.077.038.153.08.228.122a1.194,1.194,0,0,0,.16.085c.065.027.133.051.2.074a3.544,3.544,0,0,1,.459.183,3.8,3.8,0,0,1,.445.269c.055.037.11.074.165.109a.861.861,0,0,0,.142.06,2.146,2.146,0,0,1,.524.276,1.27,1.27,0,0,1,.456.814,1.652,1.652,0,0,1,.477.4,2.68,2.68,0,0,1,.285.483l.019.041a1.39,1.39,0,0,1,.619.642,1.346,1.346,0,0,1,.022.887l.018.051C114.239,297.82,114.282,297.941,114.316,298.066Zm.026.1h0Zm8.119-.15h0Zm-8.87-1.79h0Zm.825-20.69h0Zm1.189-1.156h0Z" transform="translate(81.04 872.357)"/><path class="b" d="M134.009,278.673c-6,.7-7.3,6.127-7.954,10.162-.652-4.035-1.782-6.725-2.651-7.467a7.633,7.633,0,0,0-7.041-2.52c7.389-1.816,9.3-5.39,10.17-11.412C126.533,274.5,128.533,277.032,134.009,278.673Z" transform="translate(87.499 870)"/></g><g transform="translate(-13.5 2664.801)"><path class="a" d="M292.843,686.421a1.2,1.2,0,0,1-.911-.415l-16.09-18.6a1.2,1.2,0,0,1,1.82-1.574l16.09,18.6a1.2,1.2,0,0,1-.91,1.99Z" transform="translate(-275.549 -636.421)"/><path class="a" d="M304.262,695.716a1.521,1.521,0,0,1-1.32-.759l-25.106-43.352a1.522,1.522,0,0,1,2.637-1.519l25.106,43.352a1.52,1.52,0,0,1-1.317,2.278Z" transform="translate(-275.126 -649.326)"/></g><g transform="translate(373.935 2664.802)"><path class="a" d="M432.746,686.421a1.2,1.2,0,0,1-.908-1.99l16.09-18.6a1.2,1.2,0,0,1,1.82,1.574l-16.091,18.6A1.2,1.2,0,0,1,432.746,686.421Z" transform="translate(-419.383 -636.421)"/><path class="a" d="M427.869,695.717a1.52,1.52,0,0,1-1.317-2.278l25.106-43.352a1.522,1.522,0,0,1,2.638,1.519l-25.107,43.352A1.521,1.521,0,0,1,427.869,695.717Z" transform="translate(-426.348 -649.326)"/></g></g></svg>