<svg xmlns="http://www.w3.org/2000/svg" xmlns:xlink="http://www.w3.org/1999/xlink" width="387" height="200" viewBox="0 0 387 200"><defs><style>.a{fill:none;}.b{fill:#efe596;}.c{fill:#3d3d3d;}.d{fill:#00b917;}.e{fill:#fff;}.e,.g{fill-rule:evenodd;}.f{clip-path:url(#a);}.g{fill:#1ba715;}</style><clipPath id="a"><rect class="a" width="28.523" height="28.523"/></clipPath></defs><g transform="translate(-56.11 -6134.841)"><path class="b" d="M12,0H358a12,12,0,0,1,12,12V200a0,0,0,0,1,0,0H0a0,0,0,0,1,0,0V12A12,12,0,0,1,12,0Z" transform="translate(65.11 6134.841)"/><path class="c" d="M16.19,5.4A10.806,10.806,0,0,0,5.4,16.19V194.285H364.284V16.19A10.806,10.806,0,0,0,353.49,5.4H16.19m0-5.4h337.3a16.19,16.19,0,0,1,16.19,16.19V199.682H0V16.19A16.19,16.19,0,0,1,16.19,0Z" transform="translate(65.444 6135)"/><path class="c" d="M-104.567-4.371a19.242,19.242,0,0,1-.132,2.3,8.149,8.149,0,0,1-.538,2.1,6.746,6.746,0,0,1-1.275,1.964,6.267,6.267,0,0,1-1.606,1.275,10.9,10.9,0,0,1-1.889.841,4.761,4.761,0,0,1-.51.142q-.359.085-.718.161a2.874,2.874,0,0,1-.51.076.539.539,0,0,1-.179-.038.135.135,0,0,1-.1-.132.169.169,0,0,1,.151-.17q.756-.359,1.417-.737a6.356,6.356,0,0,0,1.266-.963,7.3,7.3,0,0,0,1.7-2.5,7.711,7.711,0,0,0,.586-2.956v-3h2.342Zm5.893-4.118a6.544,6.544,0,0,1-.453,2.38,6.487,6.487,0,0,1-1.266,2.059,5.357,5.357,0,0,1-1.4,1.124,8.261,8.261,0,0,1-1.681.708l-.34.076a1.563,1.563,0,0,1-.34.038q-.189,0-.189-.17a.18.18,0,0,1,.076-.151.992.992,0,0,1,.151-.094,8.431,8.431,0,0,0,.68-.557,4.455,4.455,0,0,0,.586-.652,6.694,6.694,0,0,0,.973-1.813,6.2,6.2,0,0,0,.406-2H-111.82v-.944ZM-78.425-5.75a.881.881,0,0,1-.482.9,2.52,2.52,0,0,1-1.048.217h-4.609a17.788,17.788,0,0,1-.264,2.352,8.223,8.223,0,0,1-.708,2.163,6.413,6.413,0,0,1-1.445,1.889,7.38,7.38,0,0,1-1.558,1.1,13.294,13.294,0,0,1-1.766.774q-.17.057-.548.161t-.756.2a2.577,2.577,0,0,1-.548.094.508.508,0,0,1-.161-.028.131.131,0,0,1-.085-.142.153.153,0,0,1,.085-.142.668.668,0,0,1,.161-.066,6.117,6.117,0,0,0,1.1-.519q.519-.312,1.011-.671A7.154,7.154,0,0,0-88.294.72a7.023,7.023,0,0,0,.954-2.314,12.8,12.8,0,0,0,.378-3.041H-93.2v-.907h6.271q0-1-.019-2t-.019-1.983h2.4v3.986h3.589a1.831,1.831,0,0,1,.359-.982,1.061,1.061,0,0,1,.907-.434,1.33,1.33,0,0,1,.888.34A1.093,1.093,0,0,1-78.425-5.75Zm17.718-2.928a13.014,13.014,0,0,1-.548,2.229,22.377,22.377,0,0,1-.916,2.314,14.623,14.623,0,0,1-1.086,1.974,16.232,16.232,0,0,1-3.211,3.617,11.416,11.416,0,0,1-4.288,2.219q-.51.132-1.029.227t-1.1.17l-.491.047q-.283.028-.472.028A1.918,1.918,0,0,1-74.26,4.1q-.217-.047-.217-.161a.152.152,0,0,1,.1-.142.867.867,0,0,1,.217-.066q.208-.057.406-.1t.387-.1q.529-.151,1.048-.331a7.342,7.342,0,0,0,.992-.425,14.369,14.369,0,0,0,1.889-1.152A10.837,10.837,0,0,0-67.753.162a15.588,15.588,0,0,0,1.7-2.153,1.836,1.836,0,0,0-.387-.17q-.274-.094-.425-.132-.132-.038-.406-.1t-.567-.132a4.479,4.479,0,0,0-.463-.085q-.189-.038-.586-.076t-.661-.057a.663.663,0,0,1-.293-.085.192.192,0,0,1-.047-.142.63.63,0,0,1,.161-.3q.161-.208.331-.453.227-.3.482-.661t.387-.529a5.351,5.351,0,0,1,.633.312q.312.179.689.444.283.17.708.482a4.785,4.785,0,0,1,.671.576,1.143,1.143,0,0,1,.264.321A18.046,18.046,0,0,0-64.353-5.2a20.6,20.6,0,0,0,.85-2.531h-4.59a11.121,11.121,0,0,1-1.039,1.9A10.9,10.9,0,0,1-70.6-4.078a7.579,7.579,0,0,1-1.832,1.313,1.473,1.473,0,0,1-.34.132,1.352,1.352,0,0,1-.34.057.385.385,0,0,1-.132-.028.1.1,0,0,1-.076-.1.228.228,0,0,1,.047-.151,1.331,1.331,0,0,0,.085-.113,16.413,16.413,0,0,0,1.048-1.483,19.815,19.815,0,0,0,.973-1.728q.246-.472.463-.982t.368-.963q.076-.208.179-.576l.208-.737q.1-.368.142-.576l2.493.321a2.063,2.063,0,0,1-.142.491q-.1.246-.236.529Zm10.748,1.946a1.838,1.838,0,0,1-.255.756,7.984,7.984,0,0,1-.633,1.011,5.7,5.7,0,0,1-.774.878,1.114,1.114,0,0,1-.661.359.117.117,0,0,1-.132-.132,1.691,1.691,0,0,1,.17-.387q.17-.331.406-.765t.406-.8a1.594,1.594,0,0,0,.17-.482.324.324,0,0,0-.019-.132q-.019-.038-.113-.038a2.245,2.245,0,0,0-.7.142q-.416.142-.774.283a1.68,1.68,0,0,1-.491.142.55.55,0,0,1-.132-.028q-.094-.028-.094-.1a1.813,1.813,0,0,1,.113-.472,6.673,6.673,0,0,1,.255-.652,1.179,1.179,0,0,1,.236-.387.922.922,0,0,1,.529-.208,5.412,5.412,0,0,1,.586-.038,4.906,4.906,0,0,1,.793.076,1.927,1.927,0,0,1,.784.3A.77.77,0,0,1-49.959-6.732ZM-41.4-.461a5.679,5.679,0,0,1-.6,2.692A4.264,4.264,0,0,1-43.726,4a5.415,5.415,0,0,1-2.682.623,4.451,4.451,0,0,1-2.984-.963A3.558,3.558,0,0,1-50.526.786,9.29,9.29,0,0,1-50.45-.4q.076-.586.189-1.171-.246.019-.491.028t-.51.009h-1.2a8.145,8.145,0,0,1-1.181-.076,3.253,3.253,0,0,1-.34-.085q-.227-.066-.227-.236a1.71,1.71,0,0,1,.076-.406,5.237,5.237,0,0,1,.2-.576,2.664,2.664,0,0,1,.274-.519q.151-.217.3-.217a.184.184,0,0,1,.132.038,1.105,1.105,0,0,0,.113.094,1.039,1.039,0,0,0,.3.179q.17.066.321.142a5.287,5.287,0,0,0,1.181.293q.708.1,1.237.142.321-1.7.727-3.391t.784-3.372l.992-.076q.5-.038.973-.038a.565.565,0,0,1,.236.047.2.2,0,0,1,.1.2,3.305,3.305,0,0,1-.151.614q-.151.5-.387,1.19l-.482,1.407q-.246.718-.444,1.284t-.274.774q-.132.359-.236.7t-.2.7a10.478,10.478,0,0,0,1.662-.321q.076-.019.378-.123t.586-.2q.283-.094.3-.094a.033.033,0,0,1,.038.038.781.781,0,0,1-.161.453,2.933,2.933,0,0,1-.312.378,2.985,2.985,0,0,1-1.294.661q-.727.17-1.445.264-.132.567-.227,1.133A6.882,6.882,0,0,0-49,.6a2.787,2.787,0,0,0,.349,1.369,2.8,2.8,0,0,0,.954,1.02,2.467,2.467,0,0,0,1.36.387,2.465,2.465,0,0,0,1.407-.387,3,3,0,0,0,.935-1.011,4.723,4.723,0,0,0,.519-1.36A6.732,6.732,0,0,0-43.311-.82,8.194,8.194,0,0,0-43.4-2.085a5.108,5.108,0,0,0-.34-1.19,4.45,4.45,0,0,0-.17-.434q-.094-.208-.208-.416a.9.9,0,0,1-.132-.246.235.235,0,0,1-.076-.17q0-.038.076-.038a1.053,1.053,0,0,1,.453.132q.264.132.416.227a3.49,3.49,0,0,1,1.029.992,5.562,5.562,0,0,1,.7,1.36A4.243,4.243,0,0,1-41.4-.461Zm22.062-1.568a.919.919,0,0,1-.378.822,1.549,1.549,0,0,1-.888.255h-6.46V2.731a5.922,5.922,0,0,1-.2,1.6A2.037,2.037,0,0,1-28,5.442a2.591,2.591,0,0,1-1.577.406,2.873,2.873,0,0,1-1.237-.312,7.152,7.152,0,0,1-1.237-.756q-.586-.444-1.02-.841-.038-.038-.132-.123a.231.231,0,0,1-.094-.161q0-.113.151-.113a.263.263,0,0,1,.113.019,8.792,8.792,0,0,0,1.209.359,5.817,5.817,0,0,0,1.247.132.907.907,0,0,0,.7-.264,1.439,1.439,0,0,0,.34-.652,3.147,3.147,0,0,0,.094-.746V-.952h-7.291V-1.84h7.253V-4.994h-5.459V-5.9h5.459V-8.678q-.793.076-1.577.1t-1.577.028q-.529,0-1.039-.019t-1.039-.057a3.041,3.041,0,0,1-.359-.047q-.283-.047-.283-.161t.066-.142a.934.934,0,0,1,.142-.047q.434-.094.859-.151t.841-.132a43.251,43.251,0,0,0,4.316-.973q2.125-.595,4.184-1.388.132.076.463.312t.7.51a6.51,6.51,0,0,1,.633.529q.264.255.264.406a.242.242,0,0,1-.066.179.828.828,0,0,1-.161.123,3.881,3.881,0,0,1-.689.2q-.538.123-1.209.236t-1.247.2q-.576.085-.8.1V-5.9H-23.7a1.415,1.415,0,0,1,.378-.926,1.149,1.149,0,0,1,.888-.4,1.287,1.287,0,0,1,.869.349,1.082,1.082,0,0,1,.4.841.844.844,0,0,1-.416.812,1.9,1.9,0,0,1-.926.227h-4.552V-1.84h5.194v-.189A1.059,1.059,0,0,1-21.5-2.85a1.223,1.223,0,0,1,.841-.331,1.5,1.5,0,0,1,.916.3A1,1,0,0,1-19.341-2.029Zm4.552,1V-2.954h-.718v1.927Zm0-2.626V-5.561h-.718v1.908Zm2.852-1.908h-.793v1.7a1.465,1.465,0,0,1,.463.066q.2.066.2.406a.352.352,0,0,1-.217.368,1.208,1.208,0,0,1-.444.085v1.889a.751.751,0,0,0,.614-.406,1.572,1.572,0,0,0,.179-.727ZM-.4,4.186a.716.716,0,0,1-.368.689,1.666,1.666,0,0,1-.8.2h-8.916V4.2h3.721V1.3H-8.914V.484h2.153V-1.764h2.153V.484h.888A.977.977,0,0,1-3.37-.168a1.021,1.021,0,0,1,.689-.274,1.091,1.091,0,0,1,.708.274A.84.84,0,0,1-1.642.5a.719.719,0,0,1-.255.576A.942.942,0,0,1-2.53,1.3H-4.607V4.2h2.059a.867.867,0,0,1,.349-.7,1.188,1.188,0,0,1,.765-.283,1.071,1.071,0,0,1,.708.283A.867.867,0,0,1-.4,4.186ZM.341-2.369a.718.718,0,0,1-.359.642A1.363,1.363,0,0,1-.754-1.5a5.489,5.489,0,0,1-2.663-.689,11.687,11.687,0,0,1-2.267-1.6A9.771,9.771,0,0,1-7.733-2.558,12.217,12.217,0,0,1-10.01-1.8a1.531,1.531,0,0,1-.557.992,2.208,2.208,0,0,1-1,.4,10.207,10.207,0,0,1-1.162.1V1.3h1.247a.9.9,0,0,1,.3-.68.991.991,0,0,1,.7-.283A1.091,1.091,0,0,1-9.792.6a.781.781,0,0,1,.331.623.791.791,0,0,1-.293.652,1.065,1.065,0,0,1-.689.236H-12.73V5.546h-2.059V2.108H-18.17V1.3h3.381V-.31h-2.626V-6.3h2.626V-7.9h-2.947v-.85h2.947v-2.531h2.059v2.531h.888a.953.953,0,0,1,.321-.689,1.009,1.009,0,0,1,.7-.274.932.932,0,0,1,.652.274.863.863,0,0,1,.293.652.853.853,0,0,1-.264.623.874.874,0,0,1-.642.264H-12.73V-6.3h2.777v3.872A11.662,11.662,0,0,0-8.31-3.549,12.557,12.557,0,0,0-6.893-4.9q-.6-.642-1.181-1.332T-9.16-7.639l1.889-1.4q.378.7.756,1.369a15.289,15.289,0,0,0,.831,1.313q.416-.623.784-1.3a7.967,7.967,0,0,0,.6-1.4H-9.386v-.85H-1.51a4.534,4.534,0,0,1-.264,1.351,6.337,6.337,0,0,1-.642,1.332,13.155,13.155,0,0,1-.926,1.284,8.093,8.093,0,0,1-1.1,1.077A17.833,17.833,0,0,0-3.1-3.549a9.205,9.205,0,0,0,1.511,1.1,1.25,1.25,0,0,1,.34-.614.914.914,0,0,1,.661-.236.89.89,0,0,1,.652.274A.89.89,0,0,1,.341-2.369ZM8.52.88a.155.155,0,0,1-.009.047A.209.209,0,0,0,8.5.993a5.241,5.241,0,0,1-.557,1.3,3.686,3.686,0,0,1-.963,1.1,2.123,2.123,0,0,1-1.313.434,1.451,1.451,0,0,1-1.011-.349,2.25,2.25,0,0,1-.595-.916A5.653,5.653,0,0,1,3.77,1.343Q3.685.691,3.666.087T3.647-.933q0-3.664.283-7.253H6.14q-.189,1.946-.312,3.9T5.706-.366q0,.189.009.633a7.806,7.806,0,0,0,.076.916,2.816,2.816,0,0,0,.227.812.493.493,0,0,0,.444.34,1.034,1.034,0,0,0,.623-.246,4.249,4.249,0,0,0,.6-.567q.283-.321.482-.567T8.426.71A.077.077,0,0,1,8.5.776.405.405,0,0,1,8.52.88Zm9.8.151a.675.675,0,0,1-.246.434q-.246.246-.378.359a4.589,4.589,0,0,1-1.615.822,6.288,6.288,0,0,1-1.8.293A5.293,5.293,0,0,1,12.2,2.533a3.879,3.879,0,0,1-1.587-1.209A3.729,3.729,0,0,1,9.88-.65L11.769-1.2a3.472,3.472,0,0,0,.8,2.012,2.419,2.419,0,0,0,1.955.841,10.206,10.206,0,0,0,1.445-.1A8.52,8.52,0,0,0,17.4,1.22q.076-.038.255-.1l.359-.132a1.039,1.039,0,0,1,.217-.066Q18.324.918,18.324,1.031ZM16.7-6.883A1.914,1.914,0,0,1,16.463-6a3.812,3.812,0,0,1-.586.831,5.8,5.8,0,0,1-.689.642q-.132.094-.359.236a.779.779,0,0,1-.4.142.117.117,0,0,1-.132-.132,1.293,1.293,0,0,1,.057-.349l.094-.331q.038-.246.1-.51a2.1,2.1,0,0,0,.066-.51q0-.434-.264-.519a2.044,2.044,0,0,0-.623-.085q-.85,0-1.709.076t-1.709.17V-7.374q.623-.038,1.247-.057l1.247-.038q.208-.019.416-.028t.4-.009q.189,0,.68.009t1.048.057a4.153,4.153,0,0,1,.954.179Q16.7-7.129,16.7-6.883Zm7.82-1.794H23.027v3.872h.17a.851.851,0,0,1,.227-.246.507.507,0,0,1,.3-.094.555.555,0,0,1,.378.151.465.465,0,0,1,.17.359q0,.378-.2.491a.894.894,0,0,1-.482.1q-.283-.009-.567-.009V.635h.34a.888.888,0,0,0,.7-.368,1.723,1.723,0,0,0,.378-.727,2.658,2.658,0,0,0,.066-.5q.009-.255.009-.5Zm5.043,1.152V-2.1H30.79q.094-.793.113-1.587t.019-1.587q0-.567-.009-1.124t.009-1.124Zm4.93,4.08q0-1.02-.009-2.04t-.009-2.04h-1.4q-.019,1.36-.057,2.72a24.163,24.163,0,0,1-.227,2.7h1.379a1.878,1.878,0,0,0,.255-.652A3.7,3.7,0,0,0,34.492-3.445Zm4.326,8.519a.751.751,0,0,1-.3.6,1,1,0,0,1-.642.246,1.9,1.9,0,0,1-.331-.028q-.161-.028-.312-.066a5.5,5.5,0,0,1-1.539-.746,10.8,10.8,0,0,1-1.464-1.2,15,15,0,0,1-1.284-1.417,14.166,14.166,0,0,1-1-1.417,7.5,7.5,0,0,1-2.2,2.626,10.186,10.186,0,0,1-3.069,1.568q-.491.151-1.029.3a3.935,3.935,0,0,1-1.067.151.15.15,0,0,1-.17-.17q0-.132.227-.189l.255-.1q.161-.066.217-.085A13.581,13.581,0,0,0,27.6,3.581a9.2,9.2,0,0,0,1.983-2.153,6.9,6.9,0,0,0,1.058-2.72H26.465A2.61,2.61,0,0,1,25.652.833a3.491,3.491,0,0,1-2.229.633H21.081V-9.471h5.383V-2.1H27.6v-6.29H30.9q-.019-.774-.038-1.568t-.019-1.568h2.267v1.568q0,.793-.019,1.568h3.589v4.4a5.117,5.117,0,0,1-.1.982,2.191,2.191,0,0,1-.387.907h.661a.841.841,0,0,1,.312-.652,1,1,0,0,1,.671-.274.9.9,0,0,1,.623.264.826.826,0,0,1,.283.623.687.687,0,0,1-.349.661,1.546,1.546,0,0,1-.746.189H32.7q-.038.227-.085.453A3.148,3.148,0,0,1,32.49-.4L33.567-.9A10.41,10.41,0,0,0,34.152.569a16.214,16.214,0,0,0,.869,1.568A15.161,15.161,0,0,0,36.06,3.6a12.61,12.61,0,0,0,1.058,1.171,1,1,0,0,1,.359-.416.884.884,0,0,1,.51-.189.745.745,0,0,1,.6.274A.963.963,0,0,1,38.818,5.073ZM56.97.861a.808.808,0,0,1-.057.236q-.057.161-.132.331-.076.151-.142.3t-.1.227a6.229,6.229,0,0,1-.68,1.058,6.666,6.666,0,0,1-2,1.634,5.663,5.663,0,0,1-2.7.614,6.066,6.066,0,0,1-1.36-.161A4.114,4.114,0,0,1,48.5,4.563a2.828,2.828,0,0,1-.954-1.011,3.117,3.117,0,0,1-.359-1.558,8.7,8.7,0,0,1,.047-.954q.047-.425.085-.727a2.057,2.057,0,0,0-.576.2A5.762,5.762,0,0,0,46.034.9a6.163,6.163,0,0,0-1.1.907,6.9,6.9,0,0,0-.888,1.133l-.227.378a3.982,3.982,0,0,1-.227.34.658.658,0,0,1-.132.132.306.306,0,0,1-.189.057.728.728,0,0,1-.34-.151,5.217,5.217,0,0,1-.472-.359,3.661,3.661,0,0,1-.416-.406q-.17-.2-.17-.274a.261.261,0,0,1,.094-.17l.085-.085.066-.066q.208-.189.727-.774t1.218-1.4q.7-.812,1.436-1.691t1.369-1.681q.633-.8,1.029-1.36a2.116,2.116,0,0,0,.4-.689q0-.038-.047-.047a.4.4,0,0,0-.066-.009.155.155,0,0,0-.047.009.209.209,0,0,1-.066.009,15.47,15.47,0,0,0-2.238.548,16.937,16.937,0,0,1-2.276.567.939.939,0,0,0-.161.028.939.939,0,0,1-.161.028.174.174,0,0,1-.142-.057.682.682,0,0,1-.085-.132,2.082,2.082,0,0,1-.142-.5,3.1,3.1,0,0,1-.066-.519q0-.264.283-.264.321,0,.642.019t.642.019a18.319,18.319,0,0,0,1.842-.094,7.883,7.883,0,0,0,1.8-.4,3.953,3.953,0,0,0,.623-.283,6.222,6.222,0,0,0,.567-.359q.113-.076.255-.161a.533.533,0,0,1,.274-.085,1.306,1.306,0,0,1,.387.1q.274.1.595.255a5.789,5.789,0,0,1,.567.3q.132.076.227.132a.41.41,0,0,1,.132.113.369.369,0,0,1,.076.264.453.453,0,0,1-.094.264,1.525,1.525,0,0,1-.142.161,1.525,1.525,0,0,1-.161.142q-.283.246-.557.472t-.557.491q-.586.51-1.162,1.02T47.922-2.161Q47-1.292,46.09-.385a3.3,3.3,0,0,0-.283.274q-.189.2-.349.4a1.145,1.145,0,0,0-.2.312q.113-.076.491-.274l.878-.463q.5-.264,1.011-.5t.926-.4A1.954,1.954,0,0,1,49.15-1.2q.189,0,.189.151a.038.038,0,0,1-.009.028.038.038,0,0,0-.009.028,2.546,2.546,0,0,0-.094.434q-.038.264-.076.567-.057.453-.094.926t-.038.774a1.745,1.745,0,0,0,.6,1.492,2.385,2.385,0,0,0,1.473.453,6.229,6.229,0,0,0,2.437-.5A7.015,7.015,0,0,0,55.553,1.9,5.152,5.152,0,0,0,56.517.748.327.327,0,0,1,56.781.6q.132,0,.161.085A.564.564,0,0,1,56.97.861ZM50.189-8.281q0,.113-.208.179a2.42,2.42,0,0,1-.434.094,3,3,0,0,1-.321.028q-.189,0-.642-.047t-.944-.142q-.529-.113-1.048-.264a3.324,3.324,0,0,1-.859-.368q-.34-.217-.34-.463a.927.927,0,0,1,.151-.293q.151-.236.359-.538t.387-.548a1.58,1.58,0,0,1,.236-.283.235.235,0,0,1,.17-.076.153.153,0,0,1,.094.028.187.187,0,0,1,.057.066l.142.142a1.321,1.321,0,0,1,.123.142q.321.321.671.623t.708.567q.321.227.642.416t.68.378a2.156,2.156,0,0,1,.227.142A.281.281,0,0,1,50.189-8.281ZM77.238-.593a.937.937,0,0,1-.416.841A1.646,1.646,0,0,1,75.9.521H71.911Q71.817,1.2,71.628,2a11.351,11.351,0,0,1-.482,1.549A4.709,4.709,0,0,1,70.4,4.847a2.511,2.511,0,0,1-.992.793,3.443,3.443,0,0,1-1.275.208,3.044,3.044,0,0,1-1.369-.368,7.432,7.432,0,0,1-1.369-.9,8,8,0,0,1-1.039-1,.617.617,0,0,0-.038-.066.092.092,0,0,1-.019-.047q0-.076.113-.076a.6.6,0,0,1,.17.038,9.756,9.756,0,0,0,1.313.463,5.075,5.075,0,0,0,1.369.217,1.651,1.651,0,0,0,1.218-.378A2.89,2.89,0,0,0,69.1,2.6,8.386,8.386,0,0,0,69.531.521H59.463V-.4H69.645q.076-.529.113-1.058l.076-1.058H63.26l1.587-6.063h2.361l-.586,2.191h3.57a1.584,1.584,0,0,1,.34-.954,1.089,1.089,0,0,1,.907-.406,1.379,1.379,0,0,1,.85.321.969.969,0,0,1,.416.793,1.032,1.032,0,0,1-.331.784,1.127,1.127,0,0,1-.8.312H66.358L65.81-3.408h6.5a14.917,14.917,0,0,1-.113,1.5q-.094.746-.189,1.5h2.663a1.644,1.644,0,0,1,.378-.973,1.143,1.143,0,0,1,.926-.406,1.318,1.318,0,0,1,.9.321A1.094,1.094,0,0,1,77.238-.593Zm-.472-9.482a2.807,2.807,0,0,1-.179.85A7.939,7.939,0,0,1,76.1-8.1a9.572,9.572,0,0,1-.689,1.124,4.849,4.849,0,0,1-.774.869,1.206,1.206,0,0,1-.774.34.309.309,0,0,1-.227-.094.309.309,0,0,1-.094-.227q0-.793.047-1.606T73.668-9.3h-11.3V-6H60.087v-4.269h16.49A.167.167,0,0,1,76.766-10.075ZM90.649-6.3h-6.8v1.284h4.307a.737.737,0,0,1,.3-.463.853.853,0,0,1,.51-.179.723.723,0,0,1,.557.236.8.8,0,0,1,.217.557.567.567,0,0,1-.274.5,1.035,1.035,0,0,1-.576.179H83.849v1.209h4.326a.657.657,0,0,1,.293-.463.894.894,0,0,1,.519-.179.7.7,0,0,1,.538.236.8.8,0,0,1,.217.557.567.567,0,0,1-.274.5,1.035,1.035,0,0,1-.576.179H83.849V-.876h5.024A1.711,1.711,0,0,0,90.2-1.368a1.9,1.9,0,0,0,.453-1.341ZM86.078,3.355a.214.214,0,0,1-.057.142.567.567,0,0,1-.113.1,8.46,8.46,0,0,1-1.36.869,12.422,12.422,0,0,1-1.691.727,15.063,15.063,0,0,1-1.776.5,7.726,7.726,0,0,1-1.615.189.335.335,0,0,1-.151-.038.121.121,0,0,1-.076-.113.189.189,0,0,1,.066-.151.694.694,0,0,1,.142-.094,6.5,6.5,0,0,1,.586-.312,4.491,4.491,0,0,0,.586-.331,22.365,22.365,0,0,0,1.9-1.341,11.8,11.8,0,0,0,1.691-1.587q.321.208.623.434t.6.434q.151.094.283.189t.264.208A.186.186,0,0,1,86.078,3.355ZM96.3.823a.827.827,0,0,1-.4.822,2.045,2.045,0,0,1-.926.2H78.617V.975h15.3a1.417,1.417,0,0,1,.368-.859,1.08,1.08,0,0,1,.841-.368,1.211,1.211,0,0,1,.793.321A.965.965,0,0,1,96.3.823Zm-.85,4.156a.74.74,0,0,1-.331.595,1.07,1.07,0,0,1-.652.255,7.966,7.966,0,0,1-2.078-.3A16.01,16.01,0,0,1,90.2,4.762a14.058,14.058,0,0,1-1.879-.973.829.829,0,0,1-.123-.1.2.2,0,0,1-.066-.142.207.207,0,0,1,.076-.132,1.9,1.9,0,0,1,.331-.264q.179-.113.349-.246.623-.51,1.228-.944Q90.8,2.693,91.7,3.5A10.219,10.219,0,0,0,93.463,4.79a1.029,1.029,0,0,1,.406-.519,1.106,1.106,0,0,1,.633-.2.938.938,0,0,1,.661.264A.846.846,0,0,1,95.447,4.979ZM94.974-9.584a.813.813,0,0,1-.416.765,1.769,1.769,0,0,1-.888.236H88.212V-7.11h4.854v4.023a3.286,3.286,0,0,1-.5,1.955A2.559,2.559,0,0,1,91.2-.178a6.887,6.887,0,0,1-2,.264H81.677v-7.2h4.307V-8.583H79.731v-.926h6.233v-2.078h2.267v2.078h4.4a1.156,1.156,0,0,1,.349-.831A1.11,1.11,0,0,1,93.8-10.7a1.179,1.179,0,0,1,.8.331A1.02,1.02,0,0,1,94.974-9.584Zm12.58,7.631a12.646,12.646,0,0,1-.189,2.087,13.286,13.286,0,0,1-.567,2.2,7.431,7.431,0,0,1-.944,1.87,3.433,3.433,0,0,1-1.181,1.077,3.158,3.158,0,0,1-1.483.34,1.893,1.893,0,0,1-1.256-.434,2.8,2.8,0,0,1-.793-1.1,3.476,3.476,0,0,1-.274-1.341v-.2a1.936,1.936,0,0,1,.019-.274q.038-.246.132-.246.038,0,.076.113a1.579,1.579,0,0,0,.076.264l.113.34a3.61,3.61,0,0,0,.68.944,1.365,1.365,0,0,0,1,.416,1.291,1.291,0,0,0,.907-.4,3.443,3.443,0,0,0,.718-1.039,8.774,8.774,0,0,0,.548-1.681,15.179,15.179,0,0,0,.293-1.738q.085-.812.085-1.247a4.484,4.484,0,0,0-.094-.935,1.418,1.418,0,0,0-.378-.727,1.183,1.183,0,0,0-.869-.283q-.113,0-.217.009a1.879,1.879,0,0,0-.2.028q-.246.567-.623,1.284t-.756,1.379Q101.925-.461,101.4.3t-1.058,1.388a11.251,11.251,0,0,1-.963,1.02l-1.4-.982a18.888,18.888,0,0,0,2.21-2.616,14.477,14.477,0,0,0,1.549-2.748q-.812.113-1.606.217t-1.606.2l-.094-1.039q.888-.057,1.813-.132t1.813-.132a11.084,11.084,0,0,0,.51-1.4q.264-.869.5-1.813A15.089,15.089,0,0,0,103.4-9.4q.34.076.689.132a6.4,6.4,0,0,1,.689.151,2.189,2.189,0,0,1,.293.057l.274.076a.674.674,0,0,1,.17.057.152.152,0,0,1,.076.151,2.457,2.457,0,0,1-.132.463q-.132.387-.34.926t-.425,1.1l-.387.992q-.17.434-.227.586.17,0,.331-.009t.331-.009a3.124,3.124,0,0,1,2.191.6A2.984,2.984,0,0,1,107.554-1.953Zm7.726-.208a.987.987,0,0,1-.227.557,2.954,2.954,0,0,1-.529.557,3.4,3.4,0,0,1-.718.463,4.05,4.05,0,0,1-.756.274,1.116,1.116,0,0,1-.3.057.1.1,0,0,1-.113-.113l.028-.028.047-.047a6.715,6.715,0,0,0,.614-.737,1.63,1.63,0,0,0,.349-.982.793.793,0,0,0-.434-.614,4.99,4.99,0,0,0-1.086-.529,12.538,12.538,0,0,0-1.313-.4,10.668,10.668,0,0,0-1.1-.217.617.617,0,0,0-.179-.019,1.116,1.116,0,0,1-.217-.019q-.246-.019-.246-.189a.851.851,0,0,1,.17-.321q.17-.246.4-.557t.434-.557q.208-.246.283-.321a6.3,6.3,0,0,1,2.1.756,9.616,9.616,0,0,1,1.832,1.322,5.141,5.141,0,0,1,.6.7A1.762,1.762,0,0,1,115.28-2.161Zm-4.174-7.48a2.478,2.478,0,0,1-.1.557q-.1.387-.264.831t-.321.793a1.171,1.171,0,0,1-.293.444.54.54,0,0,1-.283.094.212.212,0,0,1-.208-.17q-.019-.057-.085-.444t-.142-.869q-.076-.482-.132-.859t-.057-.416q0-.113.132-.113a2.259,2.259,0,0,1,.444-.047l.6-.019q.312-.009.463-.009Q111.105-9.868,111.105-9.641Zm2.663-.416a2.138,2.138,0,0,1-.123.557q-.123.387-.3.841t-.359.812a1.312,1.312,0,0,1-.312.453.453.453,0,0,1-.264.094q-.094,0-.123-.047t-.066-.123q0-.019-.057-.387t-.113-.859q-.057-.491-.1-.9t-.047-.463q0-.094.113-.113a5.717,5.717,0,0,1,.756-.066q.4-.009.756-.009Q113.769-10.264,113.769-10.056Zm13.014,6.139H125.1v1.4h.51a.686.686,0,0,1,.151-.3.378.378,0,0,1,.3-.132.4.4,0,0,1,.349.179.673.673,0,0,1,.123.387.551.551,0,0,1-.123.359.424.424,0,0,1-.349.151H125.1v1.1h.51a.757.757,0,0,1,.151-.312.367.367,0,0,1,.3-.142.4.4,0,0,1,.349.179.673.673,0,0,1,.123.387.551.551,0,0,1-.123.359.424.424,0,0,1-.349.151H125.1V1.522q.434-.094.85-.17t.831-.189Zm4.137-6.1h-5.081v1.473h3.249a.722.722,0,0,1,.274-.387.746.746,0,0,1,.444-.142.73.73,0,0,1,.472.189.572.572,0,0,1,.227.453.515.515,0,0,1-.255.463.965.965,0,0,1-.519.161h-3.891v1.417h4.156a.766.766,0,0,0,.718-.349,1.541,1.541,0,0,0,.208-.8Zm-7.593,2.871a.757.757,0,0,1-.349.746,1.7,1.7,0,0,1-.822.17q-.472-.009-.85-.009V-3.2q.151-.057.463-.189t.614-.236a1.578,1.578,0,0,1,.416-.1q.132,0,.132.113a.644.644,0,0,1-.208.34,6.246,6.246,0,0,1-.5.482q-.293.255-.548.463t-.368.283V2.58a9.327,9.327,0,0,1-.113,1.492,1.907,1.907,0,0,1-.567,1.124,2.08,2.08,0,0,1-1.454.425,2.4,2.4,0,0,1-1.067-.3,6.687,6.687,0,0,1-.973-.586q-.057-.038-.236-.17t-.179-.208q0-.113.151-.113a.927.927,0,0,1,.2.028q.123.028.179.047l.434.047a4.63,4.63,0,0,0,.491.028.924.924,0,0,0,.708-.236,1.067,1.067,0,0,0,.264-.6,5.86,5.86,0,0,0,.047-.746V-.9a5.2,5.2,0,0,1-.888.519q-.472.217-.963.406L116.413-1.8q.7-.189,1.407-.368t1.388-.425q0-.907-.009-1.823t-.009-1.823h-2.323v-.812h2.3q0-1.02-.009-2.031t-.009-2.031h2.153v4.061h.246a1.144,1.144,0,0,1,.283-.642.769.769,0,0,1,.6-.283.9.9,0,0,1,.614.246A.761.761,0,0,1,123.326-7.148ZM135.17,3.978a.618.618,0,0,1-.255.491.818.818,0,0,1-.519.208,2.333,2.333,0,0,1-1.143-.321,5.826,5.826,0,0,1-1.077-.774q-.5-.453-.859-.85a8.968,8.968,0,0,1-1.171.907,4.766,4.766,0,0,1-1.341.623V5.546h-2.021V1.862a5.051,5.051,0,0,1-.907.576q-.567.293-1.228.567t-1.275.482q-.614.208-1.048.321l-.793-1.568q.434-.076.859-.161t.841-.142V-3.918h-1.247v-.793H132.96a1.256,1.256,0,0,1,.359-.708.966.966,0,0,1,.718-.312,1.092,1.092,0,0,1,.671.255.772.772,0,0,1,.331.633.739.739,0,0,1-.387.737,1.934,1.934,0,0,1-.859.189H128.8V3.751a6.809,6.809,0,0,0,.878-.982q.387-.529.746-1.077-.4-.548-.756-1.114t-.68-1.152l1.568-1.152q.17.4.359.784t.378.765q.17-.453.312-.944a6.094,6.094,0,0,0,.2-.963H129.22v-.756h4.836a8.155,8.155,0,0,1-.331,1.5,13.882,13.882,0,0,1-.6,1.6,9.374,9.374,0,0,1-.727,1.341q.283.529.614,1.048a6.16,6.16,0,0,0,.746.954,1.645,1.645,0,0,1,.349-.264.809.809,0,0,1,.406-.113.574.574,0,0,1,.482.236A.839.839,0,0,1,135.17,3.978ZM133.111-7.828a1.977,1.977,0,0,1-.708,1.794,3.567,3.567,0,0,1-1.936.453h-6.649v-5.27h9.293Zm7.14,2.437q0,.132-.236.217a2.9,2.9,0,0,1-.567.132,5.726,5.726,0,0,1-.623.057q-.293.009-.406.009t-.482-.038a4.751,4.751,0,0,1-.7-.123q-.331-.085-.331-.236a1.69,1.69,0,0,1,.085-.378q.085-.283.208-.623t.227-.633q.1-.293.142-.406.586.453,1.171.9a12.636,12.636,0,0,0,1.228.822,1.018,1.018,0,0,1,.179.123A.237.237,0,0,1,140.251-5.391Zm13.6,4.8a2.111,2.111,0,0,1-.1.463q-.1.349-.142.482A4.791,4.791,0,0,1,152.132,2.5a3.716,3.716,0,0,1-2.437.822,3.666,3.666,0,0,1-1.483-.293,2.524,2.524,0,0,1-1.077-.869A2.447,2.447,0,0,1,146.73.71a12.722,12.722,0,0,1,.066-1.3q.066-.642.142-1.284l.151-1.247.151-1.247q.038-.359.085-.718a5.5,5.5,0,0,0,.047-.718,1.43,1.43,0,0,0-.189-.784.768.768,0,0,0-.7-.293,1.933,1.933,0,0,0-.916.331,8.7,8.7,0,0,0-1.143.822q-.586.491-1.077.954t-.756.727V4.261h-2.021l.076-6.63q-.4.926-.907,1.87a7.418,7.418,0,0,1-1.209,1.662q-.076.076-.208.2a.393.393,0,0,1-.264.123.2.2,0,0,1-.151-.057,2.808,2.808,0,0,1-.34-.4q-.246-.321-.491-.671t-.321-.482q.586-.359,1.313-.878a12.463,12.463,0,0,0,1.369-1.133,4.53,4.53,0,0,0,.944-1.218,2.957,2.957,0,0,0,.17-.519,2.393,2.393,0,0,0,.076-.557l-.038-5.327h2V-5.24q.434-.416,1.02-.878A14.169,14.169,0,0,1,144.86-7a8.063,8.063,0,0,1,1.332-.68,3.52,3.52,0,0,1,1.294-.264,2.844,2.844,0,0,1,1.587.387,1.63,1.63,0,0,1,.586,1.464,3.414,3.414,0,0,1-.038.5q-.038.255-.076.519-.132.812-.321,1.766t-.331,1.9a11.891,11.891,0,0,0-.142,1.757,2.022,2.022,0,0,0,.274,1.152,1.193,1.193,0,0,0,1.048.4,2.607,2.607,0,0,0,1.275-.378A6.276,6.276,0,0,0,152.595.6a4.787,4.787,0,0,0,.859-1.039l.1-.208a.2.2,0,0,1,.179-.132.092.092,0,0,1,.085.066A.314.314,0,0,1,153.851-.593Zm16.018.567a4.161,4.161,0,0,1-.784,2.465,5.209,5.209,0,0,1-1.974,1.691q-.416.189-.888.349a7.5,7.5,0,0,1-.944.255,6.406,6.406,0,0,1-.812.132q-.4.038-.812.038a4.311,4.311,0,0,1-1.039-.142,3.9,3.9,0,0,1-1.058-.434,2.741,2.741,0,0,1-.812-.727,1.669,1.669,0,0,1-.321-1.02,1.559,1.559,0,0,1,.472-1.162,3.071,3.071,0,0,1,1.133-.7,3.713,3.713,0,0,1,1.247-.236,3.462,3.462,0,0,1,.916.132,1.912,1.912,0,0,1,.822.453,1.187,1.187,0,0,1,.34.907.875.875,0,0,1-.283.7,1.5,1.5,0,0,1-.614.331,2.207,2.207,0,0,1-.5.085.983.983,0,0,1-.661-.264.756.756,0,0,1-.3-.567,1,1,0,0,1,.246-.614.786.786,0,0,1,.586-.331.31.31,0,0,0-.293-.217,3.378,3.378,0,0,0-.387-.028,1.339,1.339,0,0,0-.68.2,1.789,1.789,0,0,0-.567.519,1.159,1.159,0,0,0-.227.68,1.049,1.049,0,0,0,.274.746,1.673,1.673,0,0,0,.671.434,2.246,2.246,0,0,0,.756.142,7.765,7.765,0,0,0,.926-.057,4.66,4.66,0,0,0,1.681-.652A3.75,3.75,0,0,0,167.2,1.825a3.468,3.468,0,0,0,.463-1.813,2.157,2.157,0,0,0-.793-1.9,3.436,3.436,0,0,0-2.021-.557,6.58,6.58,0,0,0-2.106.359,10.091,10.091,0,0,0-1.955.888,3.169,3.169,0,0,0-.359.236,4.425,4.425,0,0,1-.378.255q-.246.208-.491.444a4.562,4.562,0,0,1-.51.425.432.432,0,0,1-.246.094q-.17,0-.359-.264a2.6,2.6,0,0,1-.312-.586,1.522,1.522,0,0,1-.123-.453q0-.17.236-.283t.368-.17q.434-.17.878-.321a6.868,6.868,0,0,0,.859-.359,1.87,1.87,0,0,0,.519-.378q.217-.227.444-.472a13.647,13.647,0,0,0,1.313-1.8q.6-.973,1.143-1.917.094-.189.2-.387t.217-.387q.094-.151.17-.293a1.2,1.2,0,0,0,.113-.331,12.8,12.8,0,0,1-1.539.406,8.03,8.03,0,0,1-1.577.161q-.113,0-.425-.019a4.123,4.123,0,0,1-.586-.076q-.274-.057-.274-.189V-8.29q0-.331.009-.661a1.1,1.1,0,0,1,.047-.387.148.148,0,0,1,.151-.113.064.064,0,0,1,.057.028q.019.028.038.028a3.28,3.28,0,0,0,.652.293q.368.123.671.2a4.3,4.3,0,0,0,.793.113q.4.019.793.019h.331q.161,0,.349-.019.548-.038,1.124-.1t1.124-.142l.406-.113a2.2,2.2,0,0,1,.406-.076h.151a1.324,1.324,0,0,1,.142.009q.085.009.085.142a.953.953,0,0,1-.1.378q-.1.227-.179.378a24.53,24.53,0,0,1-1.379,2.144,16.482,16.482,0,0,1-1.473,1.757,20.473,20.473,0,0,1-1.87,1.691,14.708,14.708,0,0,1,1.454-.416,6.615,6.615,0,0,1,1.492-.17,8.122,8.122,0,0,1,1.6.161,5.128,5.128,0,0,1,1.473.529,2.863,2.863,0,0,1,1.067,1A2.955,2.955,0,0,1,169.868-.026ZM184.9,3.43a1.549,1.549,0,1,1-3.1,0,1.549,1.549,0,1,1,3.1,0Zm.567-12.674a5.141,5.141,0,0,1-.094.869q-.094.529-.217,1.077t-.179.944q-.132.907-.3,1.813t-.321,1.813q-.076.434-.113.869t-.113.869q-.057.359-.094.718a4.281,4.281,0,0,1-.132.7.573.573,0,0,1-.6.51.449.449,0,0,1-.444-.255,1.452,1.452,0,0,1-.132-.595q-.009-.34-.028-.548-.076-1.549-.142-3.088t-.217-3.069q-.057-.623-.142-1.247a9.216,9.216,0,0,1-.085-1.247,1.606,1.606,0,0,1,.463-1.284,1.99,1.99,0,0,1,1.332-.4,1.532,1.532,0,0,1,1.114.444A1.484,1.484,0,0,1,185.471-9.244Z" transform="translate(211.165 6170.054)"/><g transform="translate(96.476 6181.563)"><g transform="translate(44.374 0)"><path class="c" d="M401.012,556.487l-3.5-4.607-5.545,1.668-.124-5.789-5.471-1.906,3.306-4.758-3.306-4.758,5.471-1.906.124-5.789,5.545,1.668,3.5-4.607,3.5,4.607,5.545-1.668.124,5.789,5.471,1.906-3.306,4.758,3.306,4.758-5.471,1.906-.124,5.789-5.545-1.668Zm-2.49-7.73,2.49,3.273,2.49-3.273,3.938,1.184.088-4.114,3.884-1.353-2.348-3.379,2.348-3.379-3.884-1.353-.088-4.114-3.938,1.185-2.49-3.273-2.49,3.273-3.938-1.185-.088,4.114-3.884,1.353,2.348,3.379-2.348,3.379,3.884,1.353.088,4.114Z" transform="translate(-386.367 -525.702)"/></g><g transform="translate(0 8.754)"><g transform="translate(0 0)"><path class="d" d="M9.817,0H46.378a9.817,9.817,0,0,1,9.817,9.817V97.938a9.817,9.817,0,0,1-9.817,9.817H9.817A9.817,9.817,0,0,1,0,97.938V9.817A9.817,9.817,0,0,1,9.817,0Z" transform="translate(1.33 1.329)"/><path class="c" d="M9.5-1.65H46.058A11.147,11.147,0,0,1,57.205,9.5V97.618a11.147,11.147,0,0,1-11.147,11.147H9.5A11.147,11.147,0,0,1-1.65,97.618V9.5A11.147,11.147,0,0,1,9.5-1.65ZM46.058,106.1a8.5,8.5,0,0,0,8.487-8.487V9.5A8.5,8.5,0,0,0,46.058,1.01H9.5A8.5,8.5,0,0,0,1.01,9.5V97.618A8.5,8.5,0,0,0,9.5,106.1Z" transform="translate(1.65 1.65)"/><g transform="translate(3.948 3.911)"><path class="e" d="M215.728,273.927a4.65,4.65,0,0,1-4.689,4.582H172.118a4.65,4.65,0,0,1-4.689-4.582V185.446a4.65,4.65,0,0,1,4.689-4.583h8.722l1.646,3.224H200.9l1.3-3.224h8.842a4.65,4.65,0,0,1,4.689,4.583Z" transform="translate(-166.099 -179.533)"/><path class="c" d="M210.719,279.689H171.8a6.026,6.026,0,0,1-6.019-6.02V185.233a6.026,6.026,0,0,1,6.019-6.02h8.722a1.33,1.33,0,0,1,1.248.87l1.008,2.733h16.845l1.008-2.733a1.33,1.33,0,0,1,1.248-.87h8.842a6.026,6.026,0,0,1,6.019,6.02v88.437A6.026,6.026,0,0,1,210.719,279.689ZM171.8,181.873a3.373,3.373,0,0,0-3.359,3.36v88.437a3.373,3.373,0,0,0,3.359,3.36h38.921a3.373,3.373,0,0,0,3.359-3.36V185.233a3.373,3.373,0,0,0-3.359-3.36H202.8l-1.008,2.733a1.33,1.33,0,0,1-1.248.87h-18.7a1.33,1.33,0,0,1-1.248-.87l-1.008-2.733Z" transform="translate(-165.779 -179.213)"/></g><path class="c" d="M3.438,1.01H-.32A1.33,1.33,0,0,1-1.65-.32,1.33,1.33,0,0,1-.32-1.65H3.438A1.33,1.33,0,0,1,4.768-.32,1.33,1.33,0,0,1,3.438,1.01Z" transform="translate(27.868 5.476)"/><path class="c" d="M204.386,180.541a.9.9,0,1,1-.9-.9A.9.9,0,0,1,204.386,180.541Z" transform="translate(-168.968 -175.385)"/></g><g transform="translate(15.166 38.247)"><g class="f" transform="translate(0 0)"><rect class="a" width="28.523" height="28.523"/><path class="g" d="M193.24,243.961a3.565,3.565,0,1,0-3.565-3.565A3.565,3.565,0,0,0,193.24,243.961Zm0-10.7a7.131,7.131,0,1,1-7.13,7.131A7.131,7.131,0,0,1,193.24,233.265Zm10.7,19.61H182.544a3.655,3.655,0,0,1-3.565-3.566V233.265a3.575,3.575,0,0,1,3.565-3.565H185.4l2.674-2.674a2.953,2.953,0,0,1,2.139-.891h6.239a2.865,2.865,0,0,1,1.961.891l2.674,2.674h2.852a3.575,3.575,0,0,1,3.566,3.565v16.044A3.576,3.576,0,0,1,203.936,252.875Z" transform="translate(-178.979 -224.352)"/></g></g></g><path class="c" d="M-46.873.458l-4.222,7.494a79.08,79.08,0,0,1-10.72-9.439q-6.119,6.071-16.127,7.352A57.567,57.567,0,0,0-66.6-5.281a26.508,26.508,0,0,0,5.028-9.866q-5.17.379-13.993,1-.19-4.648-.237-7.684L-52.09-22.5A32.954,32.954,0,0,1-58.446-6.372a28.783,28.783,0,0,0,5.455,4.364Q-49.007.553-46.873.458ZM-.635-19.748A24.726,24.726,0,0,1-5.9-9.218,22.5,22.5,0,0,1-14.581-3a32.425,32.425,0,0,0,2.585-5,24.344,24.344,0,0,0,1.589-4.767q-13.8.759-21.629.949l-.237-7.921ZM-9.648,2.545l-4.743,4.98a99,99,0,0,1-8.87-9.819L-18.9-6.04q4.269,4.269,4.411,4.364Q-12.209.505-9.648,2.545ZM46.741-2.2,43.183,3.589a29.817,29.817,0,0,1-6.641-6.024L39.815-5.9a25.144,25.144,0,0,0,2.419,1.66A14.076,14.076,0,0,0,46.741-2.2ZM43.515-17.709l-.095,6.973q-6.878.664-10.151.949l-.711.047q0,15.8-.285,19.305Q24.115,2.592,22.123,1.454q2.846.047,4.222,0l-.332-12.1q-6.641-.095-10.957-.285l-.379-6.356,11.384-.19-.19-8.016,7.969.332-.332,7.589ZM21.554-2.246q-3.225,4.079-11.1,4.222,5.123-4.838,6.451-7.969Zm71.567-23.1L90.8-15.432q-2.514-3.415-3.463-4.933l-23.574.237V-16.1l-5.075-.237-.142-9.06q6.451-.095,13.993-.095Q81.926-25.488,93.12-25.345ZM91.176-2.1l-.19,4.933h-8.87a13.216,13.216,0,0,1-4.554,8.064Q75.1,7.431,73.436,5.249l3.178.237.759-2.751q-8.348.19-13.044.19-2.7,0-4.174-.047l-.19-4.838q15.511,0,18.024-.142.19-1.8.19-2.514-5.075.142-9.155.142l-.19-13.471h5.5v3.984a17.911,17.911,0,0,0,7.3-3.795L84.25-13.3q-2.893,1.613-10.53,1.9l.047,2.656,9.724-.19a55.575,55.575,0,0,1-.617,6.783ZM134.71-24.254l-.142,5.123H124.511v2.04l6.83.285L130.583-.538q-11,0-19.163.237l-.379-16.554q4.98-.095,7.21-.237l.047-1.85q-4.174.19-10.767.19l-.285-5.55,10.767.047-.047-3.273,7.02.142-.379,3.415Q130.82-24.254,134.71-24.254Zm-9.534,12.712-.095-2.182q-1.708-.047-7.826.19l-.047,2.182Q119.341-11.448,125.176-11.542Zm-.095,4.364-.047-1.755q-.427,0-7.494-.142l-.095,2.182Q119.246-6.989,125.081-7.179Zm0,4.174-.095-1.755-7.3.047-.047,1.8Q119.91-2.862,125.081-3ZM137.413,5.77q-3.178-.19-6.451-.19a9.03,9.03,0,0,0,4.079,3.368,8.134,8.134,0,0,1-3.747.949,6.979,6.979,0,0,1-6.309-3.747l-8.917.047q-1.186,4.316-8.87,3.937a11.482,11.482,0,0,0,3.463-4.316q-4.316,0-6.5.047l-.047-4.506q3.842.047,8.49.047,10.435,0,24.807-.285ZM-47.537,30.794a90.2,90.2,0,0,1-.427,11.336l-15.89.095-.427-11.431q5.645.095,9.819.095T-47.537,30.794Zm-5.455,3.178-4.98.095-.19,1.613q.617.047,1.85.047,1.281,0,3.178-.047Zm0,4.222-5.312.095q0,.332-.047,1.755L-53.087,40A10.518,10.518,0,0,0-52.992,38.193Zm11.574,26.562-3.415,4.316a43.472,43.472,0,0,1-4.6-4.886q-1.376,1.8-5.787,2.561Q-51.806,63.475-51,61.1l-1.992-2.893,1.8-1.8,1.9,2.324a15.2,15.2,0,0,0,1.328-4.459q-3.7.332-5.6.379l.047-4.222,9.771-.095q-.237,7.637-2.941,11.052A22.657,22.657,0,0,0-41.418,64.756Zm-1.613-20.87-.285,4.506q-10.578.237-13.091.427-.332,8.87-.19,10.2a25.378,25.378,0,0,0,2.751-.664q-.569.949-1.091,1.945A9.02,9.02,0,0,1-56.6,61.91l-.095,6.4H-61.15l.19-4.079a71.123,71.123,0,0,1-8.49,1.328l-.285-3.937,2.609-.379q.285-9.961.142-13.234h-2.8V44.028Zm-17.36,7.4v-1.85l-2.182.047q0,.285-.047,1.708Zm-.332,3.889V53.657l-1.945.047.047,1.613Zm.095,3.083-1.992.095-.047,1.755a17.089,17.089,0,0,0,1.945-.237Zm-9.629-7.4a9.577,9.577,0,0,1-4.316,5.265,110.786,110.786,0,0,1-.142,11.1,58.88,58.88,0,0,0-5.977-5.17l2.7-.095q-.047-3.7-.095-4.554a37.326,37.326,0,0,1-4.6,1.755l-1.044-3.984,2.467-.806,3.036-1.044.142-6.4q-2.324.237-4.316.522l-.142-5.123q2.751-.142,3.795-.142l-.142-5.6,5.17.095-.19,5.5,3.178-.142-.047,4.933q-1.992.047-3.747.142l-.047,5.265A29.71,29.71,0,0,0-70.257,50.858ZM-8.225,38.62a49.543,49.543,0,0,1,.854,8.728Q-7.371,64-21.98,68.076q8.253-8.87,8.253-19.922A52,52,0,0,0-14.675,39Zm-10.2,9.581q-2.419,3.178-5.977,8.87-3.842-5.123-4.364-16.317l6.071-.379a39.824,39.824,0,0,0,.522,9.487Zm63.6-8.064v6.356q-11.953.142-15.937.047a29.532,29.532,0,0,1-.379,4.222l11.289.664q.047,1.138.047,2.324a62.955,62.955,0,0,1-.522,7.779,42.319,42.319,0,0,1-1.85,8.775,90.958,90.958,0,0,0-6.973-6.4L34.313,64a67.875,67.875,0,0,0,.711-7.352l-7.542-.664A12.87,12.87,0,0,1,23.4,63.143a15.066,15.066,0,0,1-7.257,3.937q7.3-9.866,7.3-20.159-6.925.047-10.53.237V40.565l11.479.142-.711-7.162,7.3.095-.617,6.83ZM93.5,45.972l-.047,4.174q-6.4-.237-12.1-.237-7.02,0-11.289.332l-.095-3.7,5.692-.142.142-1.8L72.2,44.5V41.466q2.7,0,3.747-.095l.095-1.992a44.648,44.648,0,0,0-4.506-.047L71.4,35.442H76L75.618,32.5l4.791-.19q.047,2.087,0,3.368h3.368V32.027l4.506.19-.047,3.036q4.032,0,4.98-.047l-.142,3.984-4.554.237v1.186l3.889.095-.142,3.557q-1.8-.047-3.652,0V45.83ZM83.254,39.237l-2.988-.047v1.66a11.443,11.443,0,0,1,2.941,0Zm.095,6.593V44.217l-2.514.047v1.518Q81.689,45.783,83.349,45.83ZM64.613,39.237a22.157,22.157,0,0,1-5.265,1.091l-.711-5.265,5.6-.427ZM95.824,59.823l-.332,5.028a34.028,34.028,0,0,0-4.316-.379,60.711,60.711,0,0,1-.19,6.641Q86.005,67.317,85.1,66.8l2.561.047q.047-1.186,0-2.087l-11.479.19q-.047,2.893,0,4.127l-4.127-.095a28.465,28.465,0,0,0,.19-4.032,19.507,19.507,0,0,0-3.368.095q-.047-1.281-.047-2.277,0-1.044.047-1.755,2.7,0,3.937-.095l.142-8.4q6.546-.237,7.874-.19l-.142-1.613,4.032.095V52.8q5.265.237,6.83.427,0,5.55-.095,6.688Zm-7.921-2.8V55.6H85.389v1.423Zm-.095,4.316-.142-1.423-2.182.142.047,1.376A7.723,7.723,0,0,0,87.808,61.341ZM80.93,55.269H78.511v1.755q.949,0,2.324-.047Zm-.569,4.554-2.04.047-.095,1.945a6.959,6.959,0,0,0,2.087-.332ZM67.6,42.225,67.507,46.3l-12.1-.285-.142-3.463Zm-2.229,6.024-.095,3.368q-5.407-.379-7.4-.285l-.095-2.893Zm.095,4.886-.379,3.747q-4.222-.237-6.024-.237a10.423,10.423,0,0,0-1.233.047l-.285-3.557Zm1.186,5.929-.474,9.629q-4.648-.237-8.538-.522a30.807,30.807,0,0,1-.332-9.06Q64,59.016,66.653,59.064ZM63.38,64.376V62.811l-2.324-.095v1.755A8.48,8.48,0,0,0,63.38,64.376Zm74.555-15.653-1.518,4.6q-3.7-1.138-5.075-3.083-1.8,1.992-5.834,2.182,3.6-5.123,4.316-8.775l4.886.854a15.034,15.034,0,0,1-1.992,3.368A12.941,12.941,0,0,0,137.935,48.724ZM136.7,36.249l-.237,5.6-12.333.095q-9.439,0-13-.285a32.521,32.521,0,0,1-1.755,10.293,13.276,13.276,0,0,1-7.257,7.874q1.66-2.846,2.751-9.961a68.156,68.156,0,0,0,.949-10.53q0-1.47-.095-2.609l14.135-.474-.569-4.554,6.309-.19-.19,4.933ZM123.278,48.866l-3.083,4.7a18.989,18.989,0,0,1-3.131-3.889,12.309,12.309,0,0,1-6.688,3.463q3.889-5.5,4.648-9.676l4.554.9a6.288,6.288,0,0,1-1.233,2.609A9.306,9.306,0,0,0,123.278,48.866Zm11,15.558-.759,5.218q-16.08,0-20.728-.474l-.19-4.079q6.641-1,8.3-1.044l-.142-1.755q-2.561.047-6.593.047l-.237-5.312,6.83.047-.095-3.036,6.214.095v2.846l5.6-.332-.19,5.5q-4.364-.285-6.166-.285l-.142,2.087Q132.29,64.234,134.283,64.424Z" transform="translate(159.684 43.665)"/></g><path class="c" d="M0,0H387a0,0,0,0,1,0,0V7a5,5,0,0,1-5,5H5A5,5,0,0,1,0,7V0A0,0,0,0,1,0,0Z" transform="translate(56.11 6322.841)"/><g transform="translate(383.398 6307.355)"><path class="c" d="M116.62,406.573c0,1.7.279,3.557,4.585,3.557h24.114c2.406,0,3.547-1.255,3.547-3.164v-3.6h3.226v-5.333H136.343V396.1h-7.2v1.937H113.4v5.333h3.221Z" transform="translate(-113.399 -396.096)"/><path class="b" d="M151.243,401.393h14.778v2.771h-2.255v-.047H151.243Z" transform="translate(-128.299 -398.182)"/><path class="b" d="M114.892,404.164v-2.771h14.839v2.723H117.208v.047Z" transform="translate(-113.987 -398.182)"/></g></g></svg>