<svg xmlns="http://www.w3.org/2000/svg" width="489.778" height="80.734" viewBox="0 0 489.778 80.734"><defs><style>.a{fill:#3d3d3d;}</style></defs><path class="a" d="M-162.887-20.9a57.414,57.414,0,0,1-.977,11.328A29.773,29.773,0,0,1-167.418.664a46.892,46.892,0,0,0-3.4-3.672q-2.539-2.5-2.656-2.617l3.75.156a30.269,30.269,0,0,0,1.445-10.625l-5.9.273Q-175.309-5.2-186.012-2.383q5.7-6.992,6.328-12.93-3.242.156-6.875.273l-.117-6.094,7.3.078q-.2-2.891-.547-6.484l6.719.2-.625,6.523Q-170.855-20.82-162.887-20.9Zm35.034,4.8a18.807,18.807,0,0,1-7.187,8.262A29.985,29.985,0,0,1-146.954-3.2l-.547-22.539,7.109.156-.43,14.063Q-132.227-13.594-127.852-16.094Zm21.831-7.539-2.773,5.117-5.781-3.437,2.813-4.375Q-108.795-25.078-106.021-23.633Zm14.688,3.75a18.887,18.887,0,0,1-6.289,11.25A26.922,26.922,0,0,1-110.9-2.461l-2.539-6.406a40.563,40.563,0,0,0,12.93-4.023A37.2,37.2,0,0,0-91.334-19.883Zm36.948-8.984-.273,3.086a13.808,13.808,0,0,0-2.07.664l-.586-3.281Zm-4.3,3.672a12.4,12.4,0,0,0-2.031.664l-.9-3.281,2.93-.469Zm-1.641,1.914q-.039,9.3-3.984,15-4.648,6.8-14.453,7.969A31.767,31.767,0,0,0-74.346-4.1a20.728,20.728,0,0,0,3.359-4.062q-3.281-1.445-5.234-2.07l1.68-4.219q.781.2,6.211,2.031a21.215,21.215,0,0,0,1.6-5.977q-4.414.156-8.789.234A10.4,10.4,0,0,1-81.26-14.57a26.942,26.942,0,0,0,2.734-12.422,17.282,17.282,0,0,0-.117-2.187l6.172.664a27.682,27.682,0,0,1-1.289,5.508Zm38.667,5.313-.43,4.8H-47.163l-.117-4.922Q-30.6-17.891-21.655-17.969ZM8.3-8.672,7.91-2.344a26.134,26.134,0,0,1-4.727.469q-9.453,0-10.742-7.578A8.778,8.778,0,0,1-7.676-10.9a9,9,0,0,1,3.047-6.8,41.7,41.7,0,0,1-2.539-8.477l5.43-1.289a50.624,50.624,0,0,0,1.445,6.68L5.1-24.219,8.223-19.18A11.686,11.686,0,0,0,1.66-16.953,6.123,6.123,0,0,0-.957-11.875q0,.43.039.9A3.262,3.262,0,0,0,.762-8.516a6.271,6.271,0,0,0,3.4.859A8.85,8.85,0,0,0,8.3-8.672Zm35.738-3.2A8.96,8.96,0,0,1,41.89-5.391a8.151,8.151,0,0,1-6.367,2.7,12.873,12.873,0,0,1-2.187-.2q-6.914-1.367-6.914-14.258a58.252,58.252,0,0,1,.547-7.578l6.641-.039a73.9,73.9,0,0,0-.7,8.789q0,6.836,3.086,7.539a5.961,5.961,0,0,0,1.523.2A7.421,7.421,0,0,0,44.038-11.875Zm35.7-7.852q-6.914,1.6-7.461,7.344-.391,3.789,3.2,7.227L69.268-2.344a14.419,14.419,0,0,1-3.242-8.75,8.617,8.617,0,0,1,.2-1.836,8.268,8.268,0,0,1,1.641-3.516A9.423,9.423,0,0,1,71.377-19.3q-6.25.469-13.086.742l-.117-5.156q14.258-.313,21.484-.781ZM122.076-4.844,119.459.469A36.654,36.654,0,0,1,113.4-4.648a8.925,8.925,0,0,1-7.3,3.516,21.849,21.849,0,0,0,2.578-2.5,9.733,9.733,0,0,0,2.031-2.812A24.931,24.931,0,0,1,108.521-10l1.6-1.8a11.639,11.639,0,0,0,2.266,2.266,21.038,21.038,0,0,0,.9-5.039l-5.43.234q.117,7.3-6.6,11.328a62.342,62.342,0,0,0,2.734-15.43q.117-1.8.117-2.617a56.4,56.4,0,0,0-.547-7.383l16.836-.391-.078,5.781L108.6-23.281l-.156,4.844q.742-.039,9.844-.547-.547,4.1-.977,6.094A24.713,24.713,0,0,1,115.552-7.5,18.96,18.96,0,0,0,122.076-4.844ZM101.06-3.516a4.532,4.532,0,0,1-2.539.742A4.051,4.051,0,0,1,94.38-5.937q.117,2.891-5.664,3.4a9.63,9.63,0,0,0,2.813-4.375A22.64,22.64,0,0,0,88.56-6.8l-.039-20.2q4.922-.117,11.211-.039l.352,20.859H97.7Q97.974-3.711,101.06-3.516Zm-5.2-17.148-.039-1.719a33.373,33.373,0,0,0-3.633-.234l-.039,1.836Q94.107-20.664,95.865-20.664Zm-.039,5.117-.2-1.68a27.3,27.3,0,0,0-3.555-.156v2.344A9.577,9.577,0,0,0,95.826-15.547Zm-.273,6.172v-2.187a28.626,28.626,0,0,0-3.242.078l.078,2.109q.82.078,1.6.078T95.552-9.375Zm53.277-18.516-.2,5q-5.469-.2-6.6-.156l-.078,1.563H146.8l-.352,3.711q-3.438-.156-6.211-.156-1.484,0-4.492.117-2.031.078-3.516.039l-.391-3.2,4.883-.156v-2.227l-7.422.586-.039-4.844,7.7.2-.2-3.633,5.273.078-.117,3.2ZM153.282-15.7,151.329-8.32q-.586-1.25-1.914-3.633h-19.1l-.273,2.813-4.18-.2q.078-3.75,0-6.172Zm-.9,14.648Q150.235.781,145.352.781a17.9,17.9,0,0,1-5.2-.742q-.117-6.328-.078-9.961l4.648.117-.391,6.484a10.733,10.733,0,0,0,2.031.2,7.149,7.149,0,0,0,1.8-.2l.078-2.578Zm-15.039-7.5a8.31,8.31,0,0,1-4.375,7.93,13.5,13.5,0,0,1-4.531,1.6,16.427,16.427,0,0,0,3.008-4.219,11.028,11.028,0,0,0,1.367-4.922q0-.43-.039-.859Zm40.777-19.453L175.7-10.586q-1.719.156-4.141.313l.938-18.164Zm-2.07,26.914-5.391.078q.469-3.281.7-5.586l4.375.2Zm-406.37,18.938-.156,4.531q-4.844-.234-7.5-.312l.43,7.344-4.492.273V17.844Zm37.183,23.047-.43,6.406A165.839,165.839,0,0,1-210.441,46.2l-.234-4.57q5.2.2,6.641.117.078-2.422.078-4.883t-.078-4.961q-3.516.391-4.883.43V26.711q4.258-.2,5.078-.312l-.43-7.07,5.781.2-.43,6.758,4.766-.469.117,6.094L-199,32.18q0,2.969.039,8.906ZM-211.222,32.3a3.33,3.33,0,0,1-3.477,2.188,4.357,4.357,0,0,1-1.055-.117l.273,12.422-4.375.313.313-10.117q-1.836,1.719-6.328,1.641,4.648-4.1,5.9-7.539V29.25q-2.383.2-4.453.273l-.2-4.883q1.758.039,2.93.039t1.719-.039l.117-5.078h4.492l.2,5.508,3.594-.234-.078,4.3-4.023.117v1.523a5.241,5.241,0,0,0,2.109,1.094A7.746,7.746,0,0,0-211.222,32.3Zm38.433,12.539q5.664-4.57,5.742-9.8a7.859,7.859,0,0,0-.859-3.906A4.752,4.752,0,0,0-170.8,28.7q-2.3,7.578-10.586,14.375a8.717,8.717,0,0,1-3.359-4.18,10.8,10.8,0,0,1-.937-5,10.115,10.115,0,0,1,3.945-7.656,12.034,12.034,0,0,1,8.2-2.383,11.466,11.466,0,0,1,8.008,3.32,10.376,10.376,0,0,1,2.852,7.422,9.621,9.621,0,0,1-2.812,7.227A11.791,11.791,0,0,1-172.789,44.836Zm-1.875-16.719A5.207,5.207,0,0,0-175.758,28a5.574,5.574,0,0,0-3.926,1.543,5.764,5.764,0,0,0-1.895,3.691,5.512,5.512,0,0,0,.859,3.984,29.615,29.615,0,0,0,3.594-4.414A18.669,18.669,0,0,0-174.664,28.117Zm49.527-6.8a18.99,18.99,0,0,1-3.574,6.6,13.79,13.79,0,0,1-5.059,4.1,15.189,15.189,0,0,0,1.133-6.211q-7.656.781-18.359,1.406l-.273-6.055Q-143.38,21.32-125.138,21.32Zm-11.094,9.3a13.538,13.538,0,0,1,.234,2.5,12.985,12.985,0,0,1-2.7,8.125,12.027,12.027,0,0,1-7.891,4.648,17.616,17.616,0,0,0,4.531-11.523,17.209,17.209,0,0,0-.547-4.258Zm44.253,1.875-2.773,5.938q-4.3-1.953-5.625-2.578-3.672-1.758-4.922-2.539l.43,13.008-5.859-.039.273-26.094,5.469-.117.313,8.633q2.93,1.016,6.641,2.07Q-93.658,31.945-91.978,32.492Zm31.089-10.508a42.21,42.21,0,0,1,.508,6.289q0,16.445-15.078,18.828a22.568,22.568,0,0,0,7.227-8.984,22.612,22.612,0,0,0,1.992-9.336,16.817,16.817,0,0,0-1.133-6.523ZM-72.647,35.461l-5.508.273-.078-13.047L-73,22.648Zm49.839,2.617-.508,6.133-23.359.117-.312-5.625q.039,0,9.375-.82l-.078-7.734-6.641-.078-.508-6.289h20.117l-.352,6.016q-3.281.2-6.758.313,0-.859-.078,7.461ZM14.453,21.594a30.557,30.557,0,0,1-1.758,10.9A18.247,18.247,0,0,0,9.1,28.82q.664.039,1.211.039a7.965,7.965,0,0,0,.859-.039,39.241,39.241,0,0,0,.352-4.1l-2.266.039a5.134,5.134,0,0,1-.9,3.047,6.519,6.519,0,0,1-3.711,2.93,19.607,19.607,0,0,0,1.719-6.25l-1.641-.117Q3.945,26.242.742,28.078A33.865,33.865,0,0,0,1.992,19.6q0-.742-.039-1.25l4.961.117A14.888,14.888,0,0,1,5.7,21.555ZM-2.93,23v2.891L-6.8,25.734v1.055l3.594.352-.586,2.7Q-6.25,28.859-6.8,28.7l.352,3.164-3.711.078.2-2.969q-.9,1.758-6.211,1.836a14.55,14.55,0,0,0,2.91-2.031A9.178,9.178,0,0,0-11.055,26.2l-4.414.2-.039-3.047q3.32.078,5.391.039V22.023a11.091,11.091,0,0,1-5.859-1.172Q-7.7,18.938-5.586,17.1l2.344,3.672a13.287,13.287,0,0,1-3.711.977l-.039,1.367ZM7.852,42.258a14.323,14.323,0,0,1-5.43-1.484q3.945-1.367,4.609-2.3Zm5.156-8.008-2.07,5.586Q2.109,35.5-.352,33.234a10.672,10.672,0,0,1-5.781,3.359,25.253,25.253,0,0,1-6.719.859q-.82,0-1.641-.039a32.6,32.6,0,0,0,6.445-3.2Q-3.32,31.32-3.32,29.484l4.492-.039q.977,2.109,5.273,3.633A16.658,16.658,0,0,0,13.008,34.25ZM9.023,45.461l-2.3,3.125a21.892,21.892,0,0,1-3.2-3.125L4.8,43.625A17.444,17.444,0,0,0,9.023,45.461Zm-7.461-8.2L1.25,49.328q-2.07-1.6-6.484-4.492l2.656.039L-2.7,37.258Zm-6.523,2.578L-6.523,42.57a28.442,28.442,0,0,0-2.891-2.031l1.523-2.383Zm-1.367,3.633a13.04,13.04,0,0,1-3.2,4.414l-1.875-3.672A22.427,22.427,0,0,0-6.328,43.469Zm54.6,5.664L41.558,43.7a28.106,28.106,0,0,0,3.242.039,33.032,33.032,0,0,1-.039-3.516,13.968,13.968,0,0,0,.078-1.8l-7.891.078a12.853,12.853,0,0,1-7.539,8.633,55.353,55.353,0,0,0,3.945-13.4A55.726,55.726,0,0,0,33.9,25.93a35.828,35.828,0,0,0-.547-6.914q5.977-.117,9.688-.117,3.75,0,5.2.117ZM43.745,24.289l-5.43-.078L38.277,27.3q2.7.039,5.43-.117Zm.234,9.57L43.9,31.047l-5.625-.078-.039,3.164Q40.152,34.133,43.98,33.859ZM30,23.2l.039,7.422q0,5.352-.156,6.8a43.918,43.918,0,0,1-5.977.43,23.016,23.016,0,0,1-3.594-.234q-.234-8.4-.234-12.148,0-1.641.039-2.383Q27.964,23.273,30,23.2ZM26.48,27.258H23.589V29.25a12.287,12.287,0,0,0,2.852.313Zm.039,7.031V32.336a19.192,19.192,0,0,0-2.93.156v1.875a11.034,11.034,0,0,0,1.289.078A8.351,8.351,0,0,0,26.519,34.289Zm41.323,1.8V47.922H56.123l.156-4.57q4.844.273,7.5.352l-.43-7.344Zm52.847-16.094-.273,3.086a12.107,12.107,0,0,0-2.07.664l-.586-3.281Zm-4.3,3.672a13.808,13.808,0,0,0-2.07.664l-.859-3.281,2.93-.469Zm-2.773,5.82q-6.914,1.6-7.5,7.3-.391,3.789,3.242,7.227l-6.25,2.813a14.479,14.479,0,0,1-3.2-8.711,10.93,10.93,0,0,1,.156-1.875,8.077,8.077,0,0,1,1.68-3.477,9.288,9.288,0,0,1,3.516-2.891q-6.25.508-13.086.781l-.117-5.2q14.258-.273,21.445-.742Zm36.87-11.328-.117,8.945-14.531.117q-2.93,0-4.141-.039a11.687,11.687,0,0,1-7.773,9.57,31.894,31.894,0,0,0,3.516-14.336,18.615,18.615,0,0,0-.43-4.219q7.422.078,12.969.078Q146.622,18.273,150.489,18.156ZM145.02,23.82l-.078-1.68-10.508-.078.039,2.031Q136.192,24.094,145.02,23.82Zm6.289,18.945a3.127,3.127,0,0,1-1.992.586,3.273,3.273,0,0,1-2.422-.9l2.852-2.109Zm.508,2.422-3.086,4.492a23.569,23.569,0,0,1-6.875-6.953l1.758-1.8a31.144,31.144,0,0,0,2.539,2.227A10.24,10.24,0,0,0,151.817,45.188Zm-.586-8.711-.039,3.359-15.2.313.156,4.1q1.445-.391,3.984-1.25a8.8,8.8,0,0,1-3.75,4.18,15.705,15.705,0,0,1-5.352,1.992l-.547-3.4,2.148-.469.039-4.727q-1.953-.156-3.242-.2l-.156-3.477,3.242-.2,2.3-.156v-1.68l-3.125.2-.078-3.4h3.672l-.2-2.7h4.492l-.234,2.891,3.867-.039-.078-3.2,3.945-.117.234,3.086,3.008-.156-.117,3.633-2.891-.156-.156,1.641Zm-8.242.7-.117-1.758-3.75.117v1.68Q141.387,37.18,142.989,37.18Zm39.956-17.5-.273,6.484q-5.2.078-8.828.078-5.117,0-7.227-.156l-.352-6.484Zm5.977,21.055-3.594,4.141a22.069,22.069,0,0,1-4.531-5.039l3.164-2.383A17.625,17.625,0,0,0,188.922,40.734Zm-2.5-5.781a94.664,94.664,0,0,1-9.922.469l-.039,13.242q-3.477-2.93-4.453-3.672-1.328-.977-3.867-2.461l3.555.039-.312-7.187q-6.406-.43-10.2-.937l-.352-4.492q5.9.078,10.625.078,12.031,0,14.961-.312Zm-19.062,4.57q-1.875,3.867-8.945,4.375a15.211,15.211,0,0,0,2.656-3.555,20.3,20.3,0,0,0,1.289-3.359Zm56.128-14.062L220.753,30.5a34.859,34.859,0,0,1-6.328-3.242,23.694,23.694,0,0,1-5.7-4.609,12.924,12.924,0,0,1-5,4.336,17.535,17.535,0,0,1-9.336,2.266q9.922-6.055,11.289-10.625l5.313-.039Q213.956,23.469,223.487,25.461Zm-10.508,3.32-.2,3.711q-2.383.078-4.336.078-2.383,0-4.18-.117l-.2-3.711Zm8.75,5.7-.2,4.141-12.5.352a14.517,14.517,0,0,1-1.68,4.453,10.49,10.49,0,0,0,2.7.352,9.579,9.579,0,0,0,3.047-.469l-1.406-2.07,3.086-1.68a35.906,35.906,0,0,1,3.75,6.484,28.4,28.4,0,0,1-9.258,1.523,25.647,25.647,0,0,1-7.617-1.055,74.686,74.686,0,0,0,3.047-7.7l-8.008-.2-.078-3.867Zm26.011-14.492-2.422,17.422q-1.719.156-4.141.313l.938-18.164Zm-2.07,26.914-5.391.078q.469-3.281.7-5.586l4.375.2Z" transform="translate(242.038 31.055)"/></svg>