<svg xmlns="http://www.w3.org/2000/svg" width="366.184" height="79.165" viewBox="0 0 366.184 79.165">
  <g id="グループ_109" data-name="グループ 109" transform="translate(-9.5 -2634)">
    <path id="パス_555" data-name="パス 555" d="M-103.516-15.7a22.735,22.735,0,0,1-5.9.742,56.568,56.568,0,0,1-6.445-.508v-4.922a20.376,20.376,0,0,1-3.516-.781q.938-.313,3.594-1.367l-.352-6.914,5,.078q-.156,2.031-.469,5.156,2.031-.937,2.539-1.211a13.736,13.736,0,0,0,2.3-1.562l2.148,3.008a23.833,23.833,0,0,1-6.523,3.008v2.344a44.037,44.037,0,0,0,4.727-.273,7.087,7.087,0,0,0,2.031-1.719Zm-18.633-10.312-.078,3.555-4.219-.078-.156,3.2q.547-.078,4.18-1.172a13.261,13.261,0,0,1-4.18,4.18,18.507,18.507,0,0,1-8.242,3.047l-1.094-3.4a28.829,28.829,0,0,0,4.414-1.289l-.586-11.211,5.586-.234-.117,3.789A38.377,38.377,0,0,0-122.148-26.016ZM-111.836,0a59.321,59.321,0,0,1-8.4.586,54.048,54.048,0,0,1-7.5-.469q0-10.078-.117-12.3,2.539-.2,4.766-.312,2.109-2.7,3.086-4.141a42.7,42.7,0,0,0,4.063,2.813,12.117,12.117,0,0,1-3.242,1.563l7.266-.039q-.039,3.086-.039,5.586Q-111.953-2.578-111.836,0Zm-5.937-9.375-4.258-.078.039,2.461q1.016,0,4.141-.156Zm.313,6.953-.078-1.953h-4.18l.078,2.266A15.253,15.253,0,0,0-117.461-2.422Zm44.086-16.6q-3.711.742-5.937,1.367,1.328,5.586,2.344,8.984-6.016-1.875-8.32-2.812,1.055-.2,3.2-.547L-84-16.445l-11.641,2.07-1.523-5.508q3.008-.469,6.016-.977,3.711-.625,5.977-1.211l-2.07-4.961,5.977-1.367.43,6.016,4.3-.7q1.953-.352,2.617-.508ZM-83.687-5.9l-.273,5.156q-8.672.313-10.781-6.641l4.063-2.227q.625,3.828,5.078,3.828A17.47,17.47,0,0,0-83.687-5.9Zm40.555,1.8L-45.75.273a45.359,45.359,0,0,0-4.922-3.828,5.753,5.753,0,0,1-5.156,2.539A4.515,4.515,0,0,1-60.672-4.57a5.031,5.031,0,0,1-.117-1.055A4.011,4.011,0,0,1-59.48-8.633a4.639,4.639,0,0,1,3.34-1.25,6.067,6.067,0,0,1,1.992.352q-.078-1.875-.078-2.539l-7.656-.352-.039-3.555,7.461-.469-.156-2.3h-6.992l-.273-5.43,7.109-.078-1.133-4.531,5.781-.469.156,5.039,5.43.078v5q-1.563.117-5.234.547.156,1.406.2,2.227l5.117.234.156,3.789a41.3,41.3,0,0,1-5.039.508,25.674,25.674,0,0,1-.312,4.3A52.664,52.664,0,0,1-43.133-4.1ZM-54.422-6.25a2.06,2.06,0,0,0-1.8-.352,1.023,1.023,0,0,0-.82,1.094Q-57-4.453-55.594-4.453a3.11,3.11,0,0,0,1.25-.254q.586-.254.586-.684T-54.422-6.25Zm35.633,3.086q5.664-4.57,5.742-9.8a7.859,7.859,0,0,0-.859-3.906A4.752,4.752,0,0,0-16.8-19.3q-2.3,7.578-10.586,14.375A8.717,8.717,0,0,1-30.742-9.1a10.8,10.8,0,0,1-.937-5,10.115,10.115,0,0,1,3.945-7.656,12.034,12.034,0,0,1,8.2-2.383,11.466,11.466,0,0,1,8.008,3.32A10.376,10.376,0,0,1-8.672-13.4a9.621,9.621,0,0,1-2.812,7.227A11.791,11.791,0,0,1-18.789-3.164Zm-1.875-16.719A5.207,5.207,0,0,0-21.758-20a5.574,5.574,0,0,0-3.926,1.543,5.764,5.764,0,0,0-1.895,3.691,5.512,5.512,0,0,0,.859,3.984A29.615,29.615,0,0,0-23.125-15.2,18.668,18.668,0,0,0-20.664-19.883Zm49.227,1.719a22.89,22.89,0,0,1-5.312.781,22.769,22.769,0,0,1-4.687-.547q.039-.7.117-6.523l-3.594-.234a5.221,5.221,0,0,1-1.172,3.594,7.931,7.931,0,0,1-4.883,2.969Q11.3-20.7,11.3-25.625a12.276,12.276,0,0,0-.469-3.594q1.758.156,5.508.156,2.7,0,6.406-.078,0,.742-.273,8.125a9.925,9.925,0,0,0,1.133.078,2.625,2.625,0,0,0,1.367-.273l.117-2.7ZM27.391-4.727,24.656,1.25,18.016-3.2Q15.555-.977,10.047-.625q3.945-3.125,4.961-5.2l-2.383-2.3,1.133-2.227q1.172.938,3.4,2.383a12.1,12.1,0,0,0,1.289-3.477q-5,.273-7.109.234l-.156-4.648q7.539.273,11.875.2A17.121,17.121,0,0,1,20.4-6.6,12.317,12.317,0,0,0,26.57-4.648,3.814,3.814,0,0,0,27.391-4.727ZM7.781-12.969a9.822,9.822,0,0,1-.9,1.6A11.774,11.774,0,0,1,4.031-8.75Q3.992-4.18,3.68-.43-.383-4.3-1.047-4.8H.945l.117-2.93Q-1.75-7.461-3-7.422l.039-3.75q1.328-.039,3.359-.2l.156-5.625q-2.734.352-3.633.391l-.156-5,3.711-.2L.516-26.68h4.1l-.469,4.531L7-22.187v4.609l-2.969.43-.078,4.883Q5.711-12.539,7.781-12.969Zm56-11.367q-3.75.078-7.07.078-6.836,0-10.508-.312l-.273-3.2q5.586-.078,6.563-.2l-.312-3.672,5.313.039-.469,3.242q3.2,0,6.758-.078Zm-3.906,1.523-.312,6.563q-5.313.2-9.1.2-.039-4.609-.117-6.68Zm-3.516,4.141a6.348,6.348,0,0,0,0-1.406l-2.5.117q0,.234.039,1.289.547.039,1.172.039T56.359-18.672Zm7.5,4.3q.156,6.523-.469,15.742Q61.4-.156,57.727-2.852a24.793,24.793,0,0,0,2.891-.156q-.508-5.82-.469-7.93l-11.055-.234q.156,6.6.156,10.117l-3.828.078q.391-10.469.313-13.2ZM57.375-3.906a9.466,9.466,0,0,1-2.891.391,14.923,14.923,0,0,1-2.773-.273l-.2-4.961L57.3-8.867ZM55.344-5.352l-.117-1.211-1.211.078v1.172A7.55,7.55,0,0,0,55.344-5.352ZM44.758-12.891A2.919,2.919,0,0,1,41.594-10.7a6.567,6.567,0,0,1-1.211-.117l.234,9.883H36.359q.391-6.641.352-8.4a8.682,8.682,0,0,1-6.367,1.875q1.25-1.055,3.672-3.164A7.855,7.855,0,0,0,36.633-14.3v-1.25l-4.922.117-.078-3.555q3.359.078,5.2-.039l.078-3.164a13.54,13.54,0,0,1-2.3.2,11.862,11.862,0,0,1-3.594-.508q7.656-3.437,9.844-5.391l3.438,4.336q-3.008.9-3.828,1.055v3.633q2.031-.156,3.867-.234L44.211-15.2l-3.4-.234.039,1.641A8.48,8.48,0,0,0,44.758-12.891Zm54.711-12.07-.2,4.492q-5.938.234-7.578.2l.039,2.969q4.063-.117,6.172-.273l-.039,4.336q-4.414-.156-6.367-.117l.2,3.008q5.312.039,6.758-.039l-.117,4.3H91.578L91.617.039,86.813,0l.273-20.2-2.227-.039a8.659,8.659,0,0,1-6.328,2.5,39.957,39.957,0,0,0,4.961-7.344,25.409,25.409,0,0,0,2.227-5.469l5,2.344A14.315,14.315,0,0,1,88.3-24.648ZM79.547-23.477a21.689,21.689,0,0,1-4.453,4.023Q76.148-4.492,76.148-2.109L71.7-1.992l.43-16.641a10.377,10.377,0,0,1-4.453.9,14.8,14.8,0,0,1-1.836-.117q7.422-5.547,9.453-9.492ZM127.656-15.2q-10-.312-14.766-.2-.273-4.687-.273-8.4,0-2.734.156-4.961,10.859,0,14.844.156Zm-4.414-4.375-.156-4.258a44.679,44.679,0,0,0-5.2-.117l-.234,4.414q1.367.078,2.617.078Q121.8-19.453,123.242-19.57ZM134.375-.977q-3.75.156-6.406.156a27.433,27.433,0,0,1-5.352-.352q-.078-8.75.078-10.977l11.016-.039Q134.414-4.844,134.375-.977ZM130.273-5q0,.508-.117-3.086l-3.2-.078V-4.8q.508.039,1.016.039A11.733,11.733,0,0,0,130.273-5ZM117.227-.977a72.507,72.507,0,0,1-11.211-.352l.156-10.469q2.969-.078,5.273-.078,3.242,0,5.2.156Zm-3.711-4.141q0-.508-.078-2.5l-3.672-.2-.078,3.047A10.9,10.9,0,0,0,113.516-5.117Z" transform="translate(192.5 2709.83)" fill="#3d3d3d"/>
    <g id="グループ_56" data-name="グループ 56" transform="translate(144.157 1496.564)">
      <path id="パス_375" data-name="パス 375" d="M112.558,311.409a.612.612,0,0,1-.07,0,.861.861,0,0,1-.8-.818,1.252,1.252,0,0,0-.019-.148,2.752,2.752,0,0,1-.044-.458,1.826,1.826,0,0,0-.017-.191,3.41,3.41,0,0,1-.026-.461l.006-.234c0-.14,0-.28.012-.423a3.214,3.214,0,0,1,.063-.435c.012-.069.029-.139.034-.209a1.778,1.778,0,0,1,.166-.58l.014-.029,0-.01a1.424,1.424,0,0,1,.177-1.32l0,0,0-.014a1.766,1.766,0,0,1-.012-.633,1.834,1.834,0,0,1,.223-.558c.017-.03.036-.06.05-.092a2.385,2.385,0,0,1,.135-.408,1.436,1.436,0,0,0,.063-.173,1.087,1.087,0,0,0,.023-.175,2.862,2.862,0,0,1,.084-.473.982.982,0,0,0,.01-.12,2.157,2.157,0,0,1,.088-.534c.047-.14.1-.276.164-.41.03-.069.06-.135.085-.2a1.247,1.247,0,0,1,.085-.183V302.1l-.019-.055a1.638,1.638,0,0,1-.132-.622,1.168,1.168,0,0,0-.023-.191,3.5,3.5,0,0,1-.04-.393c0-.111,0-.221,0-.33,0-.087.007-.172,0-.257a1.457,1.457,0,0,1,.184-.749l-.008-.1c-.007-.073-.011-.144-.019-.214a1.562,1.562,0,0,1-.34-.63,2.056,2.056,0,0,0-.085-.26c-.03-.084-.062-.171-.089-.257a.82.82,0,0,0-.392-.953c-.047-.081-.088-.166-.129-.25a1.664,1.664,0,0,0-.1-.182c.025.036-.005.019-.032,0a2.02,2.02,0,0,1-.4-.29,1.276,1.276,0,0,1-.345-.675,2.633,2.633,0,0,1-.353-.172c-.077-.048-.155-.1-.234-.153a2.263,2.263,0,0,0-.249-.155,1.927,1.927,0,0,0-.247-.095c-.1-.036-.2-.071-.3-.111a3.327,3.327,0,0,1-.355-.182c-.04-.023-.078-.048-.121-.069l-.044,0a1.729,1.729,0,0,1-.635-.047c-.114-.033-.23-.059-.345-.087l-.239-.058c-.124-.03-.25-.056-.377-.083l-.219-.045c-.091-.021-.187-.032-.282-.044s-.213-.029-.32-.049a1.305,1.305,0,0,1-.487-.2,2.08,2.08,0,0,1-.377-.03,1.285,1.285,0,0,1-.349,0,1.427,1.427,0,0,1-.142-.027,2.465,2.465,0,0,1-.47.023c-.076-.005-.153,0-.23,0-.14,0-.286,0-.429-.011s-.264-.033-.395-.055c-.084-.014-.166-.029-.25-.037a1.485,1.485,0,0,1-.708-.3l-.016-.012-.2-.025c-.085-.011-.171-.023-.256-.032a1.52,1.52,0,0,1-.665.121,2.026,2.026,0,0,1-.315-.048,1.352,1.352,0,0,1-.313.018c-.094,0-.187,0-.281,0-.111,0-.22,0-.33,0a2.841,2.841,0,0,1-.384-.043,1.124,1.124,0,0,0-.124-.018.928.928,0,0,1-.107-.005.867.867,0,0,1,.041-1.731,1.613,1.613,0,0,1,.667-.111c.124.008.25.028.379.048a2.073,2.073,0,0,0,.246.033c.069.005.133.012.194.023a1.571,1.571,0,0,1,.456-.04c.124.01.245.005.363.008a1.247,1.247,0,0,1,.272-.01l.648.044a2.075,2.075,0,0,1,.543.132.987.987,0,0,0,.118.038,1.42,1.42,0,0,1,.6.208,1.457,1.457,0,0,1,.69-.109,1.878,1.878,0,0,1,.488.136h.015c.058,0,.117.007.175.012a1.565,1.565,0,0,1,.507-.067,1.27,1.27,0,0,1,.466-.143,2.449,2.449,0,0,0,.281-.054c.084-.019.169-.039.257-.054a3.21,3.21,0,0,1,.36-.04,1.36,1.36,0,0,0,.179-.018.963.963,0,0,0,.14-.071,2.834,2.834,0,0,1,.338-.165,1.25,1.25,0,0,1,.661-.059,1.5,1.5,0,0,1,.351-.323c.018-.015.044-.048.073-.08a2.338,2.338,0,0,1,.326-.312c.144-.111.279-.23.422-.359a3.59,3.59,0,0,1,.289-.224,1.2,1.2,0,0,0,.165-.128,1.848,1.848,0,0,1,.461-.323.918.918,0,0,0,.089-.049c-.007,0,.017-.052.044-.1a2.742,2.742,0,0,1,.234-.352c-.021.023-.015,0,0-.036a1.785,1.785,0,0,1,.243-.506,2.814,2.814,0,0,1,.282-.32,1.027,1.027,0,0,0,.106-.113.871.871,0,0,0,.073-.162,2.978,2.978,0,0,1,.172-.36,3.62,3.62,0,0,1,.209-.311,1.041,1.041,0,0,0,.113-.166,1.631,1.631,0,0,1,.345-.439,1.442,1.442,0,0,1,.082-.626,1.4,1.4,0,0,1,.428-.565v-.011a2.23,2.23,0,0,1,.07-.479,1.459,1.459,0,0,0,.034-.21,3.506,3.506,0,0,1,.059-.363,1.665,1.665,0,0,1,.275-.576l.008-.012-.006-.047a2.138,2.138,0,0,1,0-.507,2.7,2.7,0,0,1,.11-.436l.027-.08a1.708,1.708,0,0,1-.113-.668,1.785,1.785,0,0,0-.008-.206,3.552,3.552,0,0,1-.014-.382c0-.117.015-.236.029-.357a1.916,1.916,0,0,0,.019-.237,2.263,2.263,0,0,0-.019-.235c-.014-.118-.028-.238-.032-.356a.871.871,0,0,1,.355-.732,1.592,1.592,0,0,1,.17-.448,1.553,1.553,0,0,1-.121-.6,1.326,1.326,0,0,1,.175-.609,1.343,1.343,0,0,1-.171-.6,1.816,1.816,0,0,0-.026-.227c-.018-.121-.034-.242-.041-.364a1.5,1.5,0,0,1,.144-.686l-.014-.04a2.4,2.4,0,0,1-.121-.458,2.162,2.162,0,0,1-.006-.469,1.356,1.356,0,0,1-.382-.631.867.867,0,0,1,1.625-.58,1.435,1.435,0,0,1,.473.766,2.2,2.2,0,0,1,.016.56.817.817,0,0,0-.007.129,1,1,0,0,0,.038.111,2.2,2.2,0,0,1,.131.534,1.506,1.506,0,0,1-.151.74l-.007.019.017.115c.015.1.03.209.038.313a1.514,1.514,0,0,1,.249.777,1.355,1.355,0,0,1-.2.676,1.359,1.359,0,0,1-.109,1.3l0,.01.011.077a3.027,3.027,0,0,1,.029.4l.019.058a1.63,1.63,0,0,1,.115.65,1.353,1.353,0,0,1-.33.771l-.029.714,0,.091a1.2,1.2,0,0,1-.006.184l0,.048v.027c0,.1,0,.2,0,.3s.005.212,0,.318a1.168,1.168,0,0,0,.023.176,3.014,3.014,0,0,1,.047.426,1.153,1.153,0,0,0,.029.121,2.276,2.276,0,0,1,.084.476,3.037,3.037,0,0,1-.018.418,1.146,1.146,0,0,0-.01.181.774.774,0,0,0,.037.114,2.407,2.407,0,0,1,.113.462,1.478,1.478,0,0,1-.089.665,1.909,1.909,0,0,1,.2.5c-.006-.033.012-.005.032.022a1.882,1.882,0,0,1,.235.509c.027.1.048.2.069.3.018.085.033.171.059.256a1.5,1.5,0,0,1,.03.718v.01c.033.076.07.154.106.231l.088.193c.047.1.085.2.124.312.011.028.022.056.032.085a1.388,1.388,0,0,1,.59.511,2.584,2.584,0,0,1,.183.4.822.822,0,0,0,.058.139.852.852,0,0,0,.11.114,2.981,2.981,0,0,1,.278.311,2.006,2.006,0,0,1,.249.465.842.842,0,0,0,.044.1,1.527,1.527,0,0,1,.236.423,1.348,1.348,0,0,1,.623.34l.16.162c.084.087.168.175.257.257a2.989,2.989,0,0,1,.285.318,1.05,1.05,0,0,0,.113.133,1.174,1.174,0,0,0,.162.1,3.113,3.113,0,0,1,.338.231.955.955,0,0,0,.144.08,2.949,2.949,0,0,1,.374.227,1.779,1.779,0,0,1,.4.44c.019.026.036.054.056.078,0-.014.063.018.124.048a3.331,3.331,0,0,1,.356.2c.168.109.337.214.51.319a1.633,1.633,0,0,1,.434.407,1.489,1.489,0,0,1,.639.158,1.3,1.3,0,0,1,.439.395,1.222,1.222,0,0,1,.674.1,1.116,1.116,0,0,1,.411.334c.06.014.124.021.187.03a3.446,3.446,0,0,1,.43.083,1.73,1.73,0,0,1,.465.212,1.054,1.054,0,0,1,.183.054,1.187,1.187,0,0,1,.28.155l.061.025a2.071,2.071,0,0,0,.2.078c.126.04.25.088.373.138l.011,0a1.183,1.183,0,0,1,.377.12l.037.007c.111.022.223.045.33.077a1.644,1.644,0,0,1,.756.047,2.053,2.053,0,0,1,.483.258,1.084,1.084,0,0,0,.1.063,1.089,1.089,0,0,1,.168.074c.077.034.144.07.2.1a.843.843,0,0,0,.106.054,3.108,3.108,0,0,1,.362.111c.04.014.078.029.118.041a1.3,1.3,0,0,1,.2.055.867.867,0,0,1-.458,1.669c-.044-.01-.088-.021-.131-.032-.018,0-.045,0-.073,0a2.023,2.023,0,0,1-.549-.1,1.737,1.737,0,0,1-.513-.3h-.025a1.787,1.787,0,0,1-.616-.048.726.726,0,0,1-.088,0,1.923,1.923,0,0,1-.572-.073,1.4,1.4,0,0,1-.582-.378,1.442,1.442,0,0,1-.652-.06,1.34,1.34,0,0,0-1.228-.462,1.057,1.057,0,0,0-.137-.03,2.256,2.256,0,0,1-.5-.143,1.106,1.106,0,0,1-.34-.236,1.46,1.46,0,0,1-.628.034,2.9,2.9,0,0,1-.4-.113,1.1,1.1,0,0,0-.175-.052,1.509,1.509,0,0,1-.672-.312l-.014-.01-.176-.027c-.1-.016-.194-.033-.29-.04a2.034,2.034,0,0,0-.22.011c-.128.011-.263.018-.375.016s-.2-.008-.307-.016a2.452,2.452,0,0,0-.279-.012l-.22.005c-.122,0-.246,0-.364.015a1.144,1.144,0,0,0-.191.049,3.137,3.137,0,0,1-.373.092c-.021.008-.059.03-.1.048a2.387,2.387,0,0,1-.434.166,1.853,1.853,0,0,0-.234.087c-.093.038-.188.077-.286.11a2.3,2.3,0,0,0-.274.121l-.224.1a1.937,1.937,0,0,1-.5.133c-.036.006-.07.01-.1.018.019,0-.015.04-.052.076a2.916,2.916,0,0,1-.28.243,1.517,1.517,0,0,1-.554.245,1.947,1.947,0,0,1-.274.428,1.9,1.9,0,0,1-.392.331,1.132,1.132,0,0,0-.092.066l-.172.283-.1.162a1.135,1.135,0,0,0-.063.157,3.022,3.022,0,0,1-.164.381,2.417,2.417,0,0,1-.247.355,1.226,1.226,0,0,1-.184,1.053c0,.025,0,.048,0,.073a1.567,1.567,0,0,1-.212.657.165.165,0,0,1-.023.041c-.014.114-.034.228-.056.342-.014.072-.029.144-.036.217a1.218,1.218,0,0,0,0,.173,2.741,2.741,0,0,1-.01.463c.007-.041.014,0,.021.029a1.74,1.74,0,0,1,.041.619,1.6,1.6,0,0,1-.252.63l-.021.032c0,.045,0,.091,0,.136a3.165,3.165,0,0,1-.034.429,1.61,1.61,0,0,1-.234.578,1.5,1.5,0,0,1,.044.665c0,.037,0,.081,0,.126a2.017,2.017,0,0,1-.029.5,2.157,2.157,0,0,1-.173.5.9.9,0,0,0-.048.106c-.011.061-.018.136-.025.212a3.684,3.684,0,0,1-.056.395c-.017.084-.029.169-.038.254-.018.121-.033.239-.058.353a1.952,1.952,0,0,1-.188.5A.9.9,0,0,1,112.558,311.409Zm1.717-5.536v0Zm.308-2.509h0Zm-1.537-1.336v0Zm-.015-2.4a.15.15,0,0,0,0,.025Zm-.056-.553v0Zm1.342-1.012a1.564,1.564,0,0,1,.371.731c.005.03.01.061.014.092.055-.043.107-.078.154-.11a1.006,1.006,0,0,0,.088-.063c-.023.015,0-.025.015-.058a1.8,1.8,0,0,1,.37-.535,1.5,1.5,0,0,1,.715-.348l.033-.008.062-.059a2.213,2.213,0,0,1,.465-.363,1.79,1.79,0,0,1,.617-.191c.033-.006.069-.01.1-.018l.144-.07a4.108,4.108,0,0,1,.466-.2c.065-.022.125-.047.186-.072a3.4,3.4,0,0,1,.474-.165c.034-.012.073-.033.111-.051a2.022,2.022,0,0,1,.551-.191,1.79,1.79,0,0,0,.173-.045,2.658,2.658,0,0,1,.509-.111c.164-.016.334-.021.5-.023l.083,0a1.953,1.953,0,0,1-.323-.377.871.871,0,0,0-.055-.078.565.565,0,0,1-.1-.044,2.641,2.641,0,0,1-.417-.26,1.594,1.594,0,0,0-.161-.1,2.856,2.856,0,0,1-.389-.272,2.59,2.59,0,0,1-.338-.366,1.217,1.217,0,0,0-.11-.128c-.113-.1-.219-.214-.324-.324l-.048-.048a1.427,1.427,0,0,1-.748-.4,1.75,1.75,0,0,1-.324-.558c-.012-.03-.023-.063-.038-.092a1.727,1.727,0,0,1-.261-.476.844.844,0,0,0-.044-.1c-.021-.026-.063-.065-.1-.1a2.563,2.563,0,0,1-.326-.378,2.361,2.361,0,0,1-.235-.48l-.007-.018a1.349,1.349,0,0,1-.621-.562,3.627,3.627,0,0,1-.184-.44c-.025-.065-.048-.131-.076-.193l-.08-.171c-.07-.15-.139-.3-.2-.448a1.5,1.5,0,0,1-.052-.788l0-.029c-.032-.113-.055-.228-.078-.344-.014-.067-.026-.135-.044-.2,0,.016-.019-.017-.036-.043a1.859,1.859,0,0,1-.241-.524,1.8,1.8,0,0,1-.334.388l-.066.063a1.98,1.98,0,0,1-.216.337,1.725,1.725,0,0,0-.107.155,1.228,1.228,0,0,0-.072.157,2.651,2.651,0,0,1-.221.441,2.256,2.256,0,0,1-.327.388.944.944,0,0,0-.107.115c.012-.012,0,.021-.008.051a1.726,1.726,0,0,1-.285.56,1.215,1.215,0,0,0-.085.139,2.542,2.542,0,0,1-.29.421,1.783,1.783,0,0,1-.525.388c-.029.016-.058.03-.084.048a2.545,2.545,0,0,1-.355.287,1.512,1.512,0,0,0-.137.1c-.179.159-.346.307-.525.443a.737.737,0,0,0-.1.1,2.076,2.076,0,0,1-.418.374c.038-.026.022,0,0,.025a1.861,1.861,0,0,1-.331.362c.077.038.153.08.228.122a1.194,1.194,0,0,0,.16.085c.065.027.133.051.2.074a3.544,3.544,0,0,1,.459.183,3.8,3.8,0,0,1,.445.269c.055.037.11.074.165.109a.861.861,0,0,0,.142.06,2.146,2.146,0,0,1,.524.276,1.27,1.27,0,0,1,.456.814,1.652,1.652,0,0,1,.477.4,2.68,2.68,0,0,1,.285.483l.019.041a1.39,1.39,0,0,1,.619.642,1.346,1.346,0,0,1,.022.887l.018.051C114.239,297.82,114.282,297.941,114.316,298.066Zm.026.1h0Zm8.119-.15h0Zm-8.87-1.79h0Zm.825-20.69h0Zm1.189-1.156h0Z" transform="translate(81.04 872.357)" fill="#e6d231"/>
      <path id="パス_376" data-name="パス 376" d="M134.009,278.673c-6,.7-7.3,6.127-7.954,10.162-.652-4.035-1.782-6.725-2.651-7.467a7.633,7.633,0,0,0-7.041-2.52c7.389-1.816,9.3-5.39,10.17-11.412C126.533,274.5,128.533,277.032,134.009,278.673Z" transform="translate(87.499 870)" fill="#e6d231"/>
    </g>
    <g id="グループ_106" data-name="グループ 106" transform="translate(9.5 2672.801)">
      <g id="グループ_105" data-name="グループ 105">
        <path id="パス_458" data-name="パス 458" d="M292.843,686.421a1.2,1.2,0,0,1-.911-.415l-16.09-18.6a1.2,1.2,0,0,1,1.82-1.574l16.09,18.6a1.2,1.2,0,0,1-.91,1.99Z" transform="translate(-275.549 -646.057)" fill="#3d3d3d"/>
        <path id="パス_459" data-name="パス 459" d="M298.673,686.08a1.2,1.2,0,0,1-1.043-.6l-19.837-34.347a1.2,1.2,0,1,1,2.084-1.2l19.837,34.347a1.2,1.2,0,0,1-1.041,1.8Z" transform="translate(-275.126 -649.326)" fill="#3d3d3d"/>
      </g>
    </g>
    <g id="グループ_108" data-name="グループ 108" transform="translate(350.935 2672.802)">
      <g id="グループ_107" data-name="グループ 107">
        <path id="パス_460" data-name="パス 460" d="M432.746,686.421a1.2,1.2,0,0,1-.908-1.99l16.09-18.6a1.2,1.2,0,0,1,1.82,1.574l-16.091,18.6A1.2,1.2,0,0,1,432.746,686.421Z" transform="translate(-425.292 -646.058)" fill="#3d3d3d"/>
        <path id="パス_461" data-name="パス 461" d="M427.55,686.08a1.2,1.2,0,0,1-1.041-1.8l19.837-34.347a1.2,1.2,0,0,1,2.084,1.2l-19.838,34.347A1.2,1.2,0,0,1,427.55,686.08Z" transform="translate(-426.348 -649.326)" fill="#3d3d3d"/>
      </g>
    </g>
  </g>
</svg>
