<svg xmlns="http://www.w3.org/2000/svg" xmlns:xlink="http://www.w3.org/1999/xlink" width="342" height="415.298" viewBox="0 0 342 415.298"><defs><style>.a{fill:none;}.b,.h{fill:#fff;}.c{fill:#e6d231;}.d{fill:#3d3d3d;}.e{isolation:isolate;}.f{fill:#b0a026;}.g{clip-path:url(#a);}.h,.k{fill-rule:evenodd;}.i{fill:#00b917;}.j{clip-path:url(#b);}.k{fill:#1ba715;}</style><clipPath id="a"><rect class="a" width="150.622" height="174.751"/></clipPath><clipPath id="b"><rect class="a" width="34.156" height="34.156"/></clipPath></defs><g transform="translate(-8.186 -117.838)"><g transform="translate(98.186 147.534) rotate(-45)"><g transform="translate(0 0)"><path class="b" d="M19.793,22.3l-4.874,2.989a52.575,52.575,0,0,1-3.175-8.948A17.943,17.943,0,0,1,0,15.4,38.27,38.27,0,0,0,10.187,12.59,17.627,17.627,0,0,0,16.3,8.484Q13.172,7.034,7.848,4.54,9.239,1.778,10.194,0L24.185,7.281a21.916,21.916,0,0,1-8.906,7.313,19.139,19.139,0,0,0,1.758,4.3Q18.523,21.667,19.793,22.3Z" transform="translate(0 0)"/><path class="b" d="M19.826,12.681a16.435,16.435,0,0,1-7.012,3.474,14.96,14.96,0,0,1-7.094-.184A21.557,21.557,0,0,0,9.1,14.353a16.178,16.178,0,0,0,2.753-1.891Q4.227,7.333,0,4.3L3.048,0ZM6.112,20.891l-4.511.74a65.591,65.591,0,0,1-.769-8.763l3.816-.238q.552,3.974.591,4.082Q5.571,18.783,6.112,20.891Z" transform="translate(33.031 16.968)"/><path class="b" d="M7.2,10.3Q3.766,10.7,0,7.064a18.2,18.2,0,0,0,6.778-.711ZM24.79,13.36l-3.323,3.231q-3.545-2.921-5.215-4.327l-.357-.313q-7.427,7.423-9.211,8.937a71.141,71.141,0,0,0-.955-8.584q1.314,1.36,1.983,1.985L13.244,8.45Q10.167,5.283,8.229,3.165L11.039,0l5.438,5.264,3.68-3.856,3.588,3.9L20.021,8.72Zm-5.778,8.8L14.62,23.21a19.771,19.771,0,0,1-.287-5.952L17.5,17.17a16.315,16.315,0,0,0,.356,1.917A9.366,9.366,0,0,0,19.012,22.164Z" transform="translate(49.727 38.81)"/><path class="b" d="M23.437,7.343l-7.77,1.951a16.825,16.825,0,0,1-.7,2.582,8.391,8.391,0,0,1-2.533,3.135,10.645,10.645,0,0,1-4.446,1.853q.018-.132.525-3.6a7.343,7.343,0,0,0,.071-1.949A22.179,22.179,0,0,0,9.92,13.194,12.35,12.35,0,0,0,12.391,10.5a12.106,12.106,0,0,0,1.07-2.979l4.273-.933Q16.677,5.135,16.006,4.3L2.038,15.624,0,13.133,17.622,0q.2.321,2.025,2.58Q22.063,5.575,23.437,7.343Zm9.107,9.718a65.8,65.8,0,0,1-8.535,5.964q-2.334-2.939-3.569-4.576-.722-.956-1.076-1.479-3.84,2.66-6.1,4.368-1.358,1.026-2.152,1.7l1.817,2.3Q8.8,23.754,6.1,22.633L25.431,7.892Q27.673,10.862,32.544,17.061ZM19.885,31.9l-4.875.083q.488-8.78,1.751-12.182l2.258.429a10.751,10.751,0,0,0-.272,1.785q-.084,1.722-.145,2.322,1.648.3,2.309.39a10.211,10.211,0,0,0,2.327.1L23,28.016a12.148,12.148,0,0,1-4.43-3.1A13.021,13.021,0,0,0,19.885,31.9ZM23.5,18.946,24.759,18l-1.93-2.3-1.221,1q.3.446.6.85A8.51,8.51,0,0,0,23.5,18.946Zm2.881-2.41q.1-.077,1.07-.886l-1.74-2.2-1.1.747a11.782,11.782,0,0,0,.727,1.07Q25.782,15.844,26.382,16.536Z" transform="translate(67.399 57.947)"/><path class="b" d="M13.055,26.166l-4.27,1.469Q5.018,19.881,6.294,13.149a5.21,5.21,0,0,1-3.39-.064A7.563,7.563,0,0,1,0,11.234,27.188,27.188,0,0,0,9.112,8.482l1.724,3.3q-1.441.656-2.074,1.008-.154,1.024-.239,2.946l5.8-3.188q-.835-1.7-1.91-3.7l3.142-2.07,6.108,10.674-3.222,1.537q-2.061-3.255-2.358-3.92L14.24,16.094l1.644,3.09L13.2,20.528l-1.6-2.753-2,1A19.394,19.394,0,0,0,11.29,23.25Q11.9,24.352,13.055,26.166Zm15.718-7.288-7.017,1.589q.984-1.087,2.613-3.218L17.359,4.695l-2.12,1.249q-.6-.891-1.062-1.718A15.371,15.371,0,0,1,13.4,2.637L18.214,0q3.7,6.6,4.425,7.641l2.674-1.809,2.033,3.92-2.8,1.265Q27.813,17.283,28.772,18.878Z" transform="translate(85.958 86.229)"/></g></g><g transform="translate(8.186 191.892)"><ellipse class="b" cx="171" cy="170.623" rx="171" ry="170.623"/><path class="c" d="M156.305-1.5c4.031,0,8.1.154,12.1.456a1.5,1.5,0,1,1-.226,2.991c-3.925-.3-7.921-.448-11.876-.448a1.5,1.5,0,0,1-1.5-1.5A1.5,1.5,0,0,1,156.305-1.5Zm-9.02.255a1.5,1.5,0,0,1,.084,3c-3.946.224-7.926.6-11.83,1.124a1.5,1.5,0,0,1-.4-2.974c3.979-.532,8.035-.918,12.057-1.146ZM180.214.313a1.511,1.511,0,0,1,.229.017c3.979.609,7.98,1.381,11.894,2.292a1.5,1.5,0,0,1-.681,2.922c-3.839-.895-7.764-1.651-11.667-2.249a1.5,1.5,0,0,1,.225-2.983ZM123.521,1.935a1.5,1.5,0,0,1,.311,2.967c-3.86.822-7.734,1.8-11.516,2.921a1.5,1.5,0,1,1-.849-2.877c3.856-1.138,7.806-2.14,11.741-2.977A1.505,1.505,0,0,1,123.521,1.935Zm80.045,3.819a1.5,1.5,0,0,1,.452.07c3.834,1.212,7.669,2.589,11.4,4.094A1.5,1.5,0,1,1,214.3,12.7c-3.659-1.476-7.421-2.827-11.182-4.015a1.5,1.5,0,0,1,.452-2.931ZM100.525,8.722a1.5,1.5,0,0,1,.535,2.9c-3.685,1.4-7.363,2.972-10.931,4.658a1.5,1.5,0,0,1-1.281-2.713c3.638-1.719,7.387-3.316,11.144-4.748A1.5,1.5,0,0,1,100.525,8.722Zm125.279,6a1.494,1.494,0,0,1,.665.157c3.6,1.786,7.18,3.736,10.636,5.8a1.5,1.5,0,0,1-1.536,2.577c-3.391-2.02-6.9-3.933-10.434-5.685a1.5,1.5,0,0,1,.668-2.844ZM78.843,18.963a1.5,1.5,0,0,1,.744,2.8c-3.425,1.953-6.819,4.066-10.088,6.278a1.5,1.5,0,1,1-1.682-2.484C71.15,23.3,74.61,21.152,78.1,19.16A1.493,1.493,0,0,1,78.843,18.963ZM246.4,26.994a1.493,1.493,0,0,1,.863.274c3.286,2.316,6.524,4.789,9.625,7.351a1.5,1.5,0,0,1-1.911,2.313c-3.042-2.513-6.22-4.94-9.443-7.212a1.5,1.5,0,0,1,.865-2.726ZM58.987,32.4a1.5,1.5,0,0,1,.934,2.674c-3.088,2.454-6.121,5.059-9.014,7.743a1.5,1.5,0,0,1-2.04-2.2c2.948-2.735,6.04-5.391,9.187-7.892A1.494,1.494,0,0,1,58.987,32.4Zm205.9,9.863a1.5,1.5,0,0,1,1.041.42c2.9,2.791,5.72,5.728,8.394,8.731a1.5,1.5,0,0,1-2.24,2c-2.623-2.946-5.394-5.828-8.236-8.566a1.5,1.5,0,0,1,1.041-2.58ZM41.41,48.709a1.5,1.5,0,0,1,1.1,2.519c-2.68,2.9-5.281,5.934-7.73,9.025a1.5,1.5,0,1,1-2.351-1.863c2.5-3.151,5.147-6.246,7.879-9.2A1.5,1.5,0,0,1,41.41,48.709ZM280.83,60.171a1.5,1.5,0,0,1,1.194.591c2.438,3.2,4.782,6.535,6.965,9.91a1.5,1.5,0,1,1-2.519,1.63c-2.142-3.31-4.44-6.581-6.832-9.721a1.5,1.5,0,0,1,1.192-2.409ZM26.523,67.5a1.5,1.5,0,0,1,1.242,2.339c-2.207,3.273-4.313,6.671-6.259,10.1A1.5,1.5,0,0,1,18.9,78.46c1.984-3.5,4.131-6.959,6.381-10.3A1.5,1.5,0,0,1,26.523,67.5ZM293.852,80.3a1.5,1.5,0,0,1,1.32.785c1.919,3.537,3.723,7.192,5.362,10.862a1.5,1.5,0,0,1-2.739,1.223c-1.607-3.6-3.376-7.185-5.259-10.654a1.5,1.5,0,0,1,1.317-2.216ZM14.687,88.354a1.5,1.5,0,0,1,1.357,2.138c-1.678,3.572-3.235,7.254-4.63,10.941a1.5,1.5,0,1,1-2.806-1.061c1.422-3.76,3.01-7.513,4.72-11.156A1.5,1.5,0,0,1,14.687,88.354ZM303.626,102.2a1.5,1.5,0,0,1,1.413,1c1.35,3.789,2.568,7.678,3.619,11.56a1.5,1.5,0,1,1-2.9.784c-1.031-3.807-2.225-7.621-3.549-11.337a1.5,1.5,0,0,1,1.413-2ZM6.206,110.78a1.5,1.5,0,0,1,1.441,1.92c-1.1,3.786-2.074,7.663-2.882,11.526a1.5,1.5,0,1,1-2.936-.614c.824-3.938,1.812-7.892,2.938-11.752A1.5,1.5,0,0,1,6.206,110.78ZM309.9,125.338a1.5,1.5,0,0,1,1.472,1.222c.747,3.947,1.349,7.978,1.79,11.98a1.5,1.5,0,1,1-2.982.328c-.432-3.926-1.023-7.879-1.755-11.751a1.5,1.5,0,0,1,1.476-1.779Zm-308.6,8.91a1.5,1.5,0,0,1,1.489,1.693c-.506,3.906-.867,7.887-1.072,11.834a1.5,1.5,0,0,1-3-.156c.21-4.023.578-8.082,1.093-12.063A1.5,1.5,0,0,1,1.295,134.249ZM312.524,149.17a1.5,1.5,0,0,1,1.5,1.45c.058,1.758.088,3.544.088,5.307,0,2.263-.049,4.554-.145,6.808a1.5,1.5,0,1,1-3-.128c.094-2.212.142-4.46.142-6.68,0-1.73-.029-3.482-.086-5.208a1.5,1.5,0,0,1,1.449-1.549ZM.045,158.2a1.5,1.5,0,0,1,1.5,1.464c.094,3.953.341,7.943.735,11.86a1.5,1.5,0,0,1-2.985.3c-.4-3.993-.653-8.06-.749-12.089A1.5,1.5,0,0,1,.009,158.2ZM311.5,173.129a1.517,1.517,0,0,1,.18.011,1.5,1.5,0,0,1,1.311,1.668c-.479,4-1.12,8.022-1.9,11.962a1.5,1.5,0,0,1-2.942-.586c.77-3.864,1.4-7.812,1.868-11.733A1.5,1.5,0,0,1,311.5,173.129ZM2.447,182.053a1.5,1.5,0,0,1,1.475,1.236c.7,3.885,1.553,7.79,2.548,11.6a1.5,1.5,0,1,1-2.9.756c-1.014-3.89-1.888-7.871-2.6-11.832a1.5,1.5,0,0,1,1.478-1.765Zm304.366,14.591a1.5,1.5,0,0,1,1.445,1.906c-1.089,3.871-2.344,7.749-3.731,11.525a1.5,1.5,0,0,1-2.816-1.034c1.36-3.7,2.591-7.507,3.659-11.3A1.5,1.5,0,0,1,306.813,196.643ZM8.492,205.254a1.5,1.5,0,0,1,1.418,1.011c1.287,3.727,2.738,7.451,4.312,11.07a1.5,1.5,0,0,1-2.751,1.2c-1.6-3.69-3.084-7.487-4.4-11.287a1.5,1.5,0,0,1,1.418-1.99Zm290.06,13.9a1.5,1.5,0,0,1,1.363,2.125c-1.673,3.654-3.512,7.291-5.465,10.809a1.5,1.5,0,0,1-2.623-1.456c1.916-3.451,3.719-7.018,5.361-10.6A1.5,1.5,0,0,1,298.552,219.151Zm-280.5,8.09a1.5,1.5,0,0,1,1.326.8c1.847,3.483,3.855,6.94,5.967,10.275a1.5,1.5,0,1,1-2.534,1.605c-2.154-3.4-4.2-6.924-6.084-10.474a1.5,1.5,0,0,1,1.324-2.2Zm268.865,12.874a1.5,1.5,0,0,1,1.25,2.327c-2.215,3.354-4.59,6.665-7.059,9.843a1.5,1.5,0,0,1-2.369-1.841c2.422-3.117,4.752-6.366,6.925-9.656A1.5,1.5,0,0,1,286.916,240.115ZM30.882,247.5a1.5,1.5,0,0,1,1.2.6c2.36,3.16,4.873,6.269,7.47,9.241a1.5,1.5,0,1,1-2.259,1.974c-2.647-3.03-5.208-6.2-7.614-9.42a1.5,1.5,0,0,1,1.2-2.4Zm241.324,11.553a1.5,1.5,0,0,1,1.11,2.508c-2.7,2.977-5.554,5.888-8.477,8.651a1.5,1.5,0,1,1-2.061-2.18c2.867-2.711,5.665-5.566,8.316-8.487A1.5,1.5,0,0,1,272.206,259.049Zm-225.548,6.5a1.5,1.5,0,0,1,1.051.43c2.815,2.764,5.772,5.455,8.79,8a1.5,1.5,0,0,1-1.933,2.295c-3.076-2.59-6.09-5.332-8.959-8.15a1.5,1.5,0,0,1,1.051-2.57Zm208.125,9.969a1.5,1.5,0,0,1,.945,2.665c-3.125,2.533-6.387,4.975-9.7,7.26a1.5,1.5,0,0,1-1.705-2.468c3.245-2.242,6.445-4.638,9.511-7.122A1.494,1.494,0,0,1,254.782,275.522ZM65,281a1.493,1.493,0,0,1,.875.282c3.2,2.3,6.537,4.513,9.905,6.563a1.5,1.5,0,1,1-1.56,2.562c-3.433-2.09-6.83-4.341-10.1-6.69A1.5,1.5,0,0,1,65,281Zm170.055,8.15a1.5,1.5,0,0,1,.757,2.8c-3.476,2.026-7.073,3.942-10.69,5.694a1.5,1.5,0,0,1-1.307-2.7c3.549-1.718,7.077-3.6,10.487-5.585A1.493,1.493,0,0,1,235.053,289.149ZM85.479,293.465a1.494,1.494,0,0,1,.678.163c3.519,1.787,7.15,3.459,10.793,4.969a1.5,1.5,0,1,1-1.149,2.771c-3.714-1.539-7.416-3.244-11-5.066a1.5,1.5,0,0,1,.68-2.838Zm128,6.131a1.5,1.5,0,0,1,.548,2.9c-3.745,1.469-7.593,2.809-11.439,3.984a1.5,1.5,0,1,1-.877-2.869c3.772-1.153,7.547-2.468,11.22-3.908A1.5,1.5,0,0,1,213.474,299.6Zm-105.846,3.049a1.5,1.5,0,0,1,.466.075c3.749,1.225,7.594,2.318,11.427,3.25a1.5,1.5,0,1,1-.709,2.915c-3.908-.95-7.828-2.065-11.65-3.313a1.5,1.5,0,0,1,.465-2.926Zm82.917,3.957a1.5,1.5,0,0,1,.325,2.964c-3.921.874-7.93,1.607-11.914,2.178a1.5,1.5,0,1,1-.426-2.97c3.908-.56,7.84-1.279,11.687-2.137A1.505,1.505,0,0,1,190.545,306.6Zm-59.622,1.707a1.511,1.511,0,0,1,.243.02c3.888.633,7.855,1.125,11.792,1.46a1.5,1.5,0,0,1-.255,2.989c-4.013-.342-8.057-.842-12.02-1.488a1.5,1.5,0,0,1,.239-2.981Zm35.89,1.7a1.5,1.5,0,0,1,.1,3c-3.507.232-7.076.35-10.605.35-.5,0-1.006,0-1.5-.007a1.5,1.5,0,1,1,.028-3c.49,0,.987.007,1.477.007,3.464,0,6.966-.116,10.407-.343Q166.763,310.009,166.813,310.009Z" transform="translate(14.695 14.695)"/></g><g transform="translate(60.186 141.582)"><path class="b" d="M45.326,47.326a1.994,1.994,0,0,1-1.414-.586L-1.414,1.414a2,2,0,0,1,0-2.828,2,2,0,0,1,2.828,0L46.74,43.912a2,2,0,0,1-1.414,3.414Z" transform="translate(2 2)"/><path class="b" d="M0,47.326a1.994,1.994,0,0,1-1.414-.586,2,2,0,0,1,0-2.828L43.912-1.414a2,2,0,0,1,2.828,0,2,2,0,0,1,0,2.828L1.414,46.74A1.994,1.994,0,0,1,0,47.326Z" transform="translate(190.278 2)"/></g><path class="d" d="M-109.158-4.228q-1.828.038-2.971.038t-1.562-.038l.267,4.113h-4.989l.3-4.342h-5.637l.076,4.494-4.266-.152q.229-3.047.229-4.608h-4.3l.038-4.38q3.275,0,4.113-.038l-.076-5.408a35.882,35.882,0,0,0-3.847-.076l-.076-5.294q2.171-.038,4.189,0l-.267-4.38,4.875.19-.381,4.685q4.113-.076,4.951-.19l-.076-4.532,5.446-.19v4.646q2.514-.076,3.771-.19l.076,4.951-3.694.5-.19,5.065q1.447-.038,3.961-.152Zm-9.026-5.294q-.076-.686-.152-5.294-3.009,0-4.837.152.038.609-.076,5.256Q-123.783-9.445-118.184-9.521Zm45.147-16.187-.19,4.761-9.217.076a51.283,51.283,0,0,1-3.428,4.38,16.858,16.858,0,0,0,5.827-.5l-.876-1.942,2.895-1.028,2.514,5.1a14.205,14.205,0,0,1-6.855,1.409,33.846,33.846,0,0,1-8.074-1.028q.952-2.323,2.59-6.627-1.447.152-5.6.229l-.3-5.065,6.894-.076-.229-3.885,5.751.152-.609,4.228Q-77.646-25.518-73.037-25.708Zm2.514,24.489A9.676,9.676,0,0,1-75.818-.038,7.393,7.393,0,0,1-79.931-1.1l-.038-10.931,3.847.114-.381,7.96a5.945,5.945,0,0,0,2.247-.3l.152-2.818A42.485,42.485,0,0,0-70.524-1.219Zm-25.518-21.4-2.666,3.313a41.181,41.181,0,0,0-3.275-2.856l2.437-3.009Zm13.787,12.149L-82.407-3.2q-.99,0-3.809.267l.076-7.579Zm-5.522-.267q-.609,8.569-6.056,10.359A27.309,27.309,0,0,0-92.4-5.675a26.207,26.207,0,0,0,.514-5.446Zm-8.836-4-1.9,3.39q-1.866-1.409-3.237-2.552l2.019-2.666Zm1.028,5.751A25.048,25.048,0,0,1-98.136-.762L-102.287-4.8A17.652,17.652,0,0,0-95.584-8.988Zm57,5.484A124.059,124.059,0,0,1-54.276-2.437a62.844,62.844,0,0,1-11.35-.838l.229-15.2,4.8-.229.229,11.007q4.761.686,5.827.686l-.419-18.586,5.9.19-.229,17.9q1.6.076,2.78.076a13.831,13.831,0,0,0,2.742-.19l.152-11.007,4.38.076ZM-6.3-20.376A55.977,55.977,0,0,1-7.255-9.331,29.029,29.029,0,0,1-10.721.647a45.718,45.718,0,0,0-3.313-3.58q-2.476-2.437-2.59-2.552l3.656.152a29.513,29.513,0,0,0,1.409-10.359l-5.751.267q-1.1,10.359-11.54,13.1,5.561-6.817,6.17-12.606-3.161.152-6.7.267L-29.5-20.6l7.122.076q-.19-2.818-.533-6.322l6.551.19-.609,6.36Q-14.073-20.3-6.3-20.376Zm33.379,4.685a18.337,18.337,0,0,1-7.008,8.055A29.235,29.235,0,0,1,8.451-3.123L7.918-25.1l6.932.152-.419,13.711Q22.81-13.254,27.075-15.691Zm20.505-7.351-2.7,4.989L39.24-21.4l2.742-4.266Q44.877-24.451,47.581-23.042ZM61.9-19.386A18.414,18.414,0,0,1,55.769-8.417,26.248,26.248,0,0,1,42.82-2.4L40.344-8.646a39.549,39.549,0,0,0,12.606-3.923A36.269,36.269,0,0,0,61.9-19.386Zm35.245-8.76-.267,3.009a13.462,13.462,0,0,0-2.019.647l-.571-3.2Zm-4.189,3.58a12.085,12.085,0,0,0-1.98.647l-.876-3.2,2.856-.457Zm-1.6,1.866q-.038,9.064-3.885,14.625Q82.94-1.447,73.38-.3A30.972,30.972,0,0,0,77.684-4,20.209,20.209,0,0,0,80.959-7.96q-3.2-1.409-5.1-2.019l1.638-4.113q.762.19,6.056,1.98a20.685,20.685,0,0,0,1.562-5.827q-4.3.152-8.569.229a10.145,10.145,0,0,1-5.6,3.5,26.268,26.268,0,0,0,2.666-12.111,16.853,16.853,0,0,0-.114-2.133l6.018.647a26.989,26.989,0,0,1-1.257,5.37Zm36.921,5.18-.419,4.685H103.407l-.114-4.8Q119.556-17.443,128.277-17.52Z" transform="translate(181.195 373.018)"/><g class="e" transform="translate(65.186 389.537)"><path class="d" d="M-87.156-28.069l-1.866,7.96q-2.019-2.742-2.78-3.961l-18.929.19v3.237l-4.075-.19-.114-7.274q5.18-.076,11.235-.076Q-96.144-28.184-87.156-28.069ZM-88.717-9.407l-.152,3.961h-7.122a10.611,10.611,0,0,1-3.656,6.475q-1.98-2.78-3.313-4.532l2.552.19.609-2.209q-6.7.152-10.474.152-2.171,0-3.352-.038l-.152-3.885q12.454,0,14.473-.114.152-1.447.152-2.019-4.075.114-7.351.114l-.152-10.816h4.418v3.2a14.381,14.381,0,0,0,5.865-3.047l2.095,3.58q-2.323,1.295-8.455,1.523l.038,2.133,7.808-.152a44.621,44.621,0,0,1-.5,5.446Zm33.005-17.786-.114,4.113H-63.9v1.638l5.484.229L-59.026-8.15q-8.836,0-15.387.19l-.3-13.292q4-.076,5.789-.19l.038-1.485q-3.352.152-8.646.152l-.229-4.456,8.646.038-.038-2.628,5.637.114-.3,2.742Q-58.835-27.193-55.712-27.193Zm-7.655,10.207-.076-1.752q-1.371-.038-6.284.152l-.038,1.752Q-68.052-16.91-63.367-16.986Zm-.076,3.5-.038-1.409q-.343,0-6.018-.114l-.076,1.752Q-68.128-13.33-63.444-13.482Zm0,3.352-.076-1.409-5.865.038-.038,1.447Q-67.595-10.017-63.444-10.131Zm9.9,7.046q-2.552-.152-5.18-.152a7.251,7.251,0,0,0,3.275,2.7,6.531,6.531,0,0,1-3.009.762A5.6,5.6,0,0,1-63.52-2.78l-7.16.038Q-71.632.724-77.8.419a9.22,9.22,0,0,0,2.78-3.466q-3.466,0-5.218.038l-.038-3.618q3.085.038,6.817.038,8.379,0,19.919-.229Zm32.205-20.49A165.664,165.664,0,0,1-22.4-4.113a173.4,173.4,0,0,1-18.015.267L-40.874-8.8q7.274.152,13.6.038l.229-9.369q-6.437.114-13.749.762l-.419-6.322q4-.19,8.341-.19Q-26.668-23.88-21.336-23.575ZM.35-23.042l-2.7,4.989L-7.99-21.4l2.742-4.266Q-2.354-24.451.35-23.042Zm14.32,3.656A18.414,18.414,0,0,1,8.539-8.417,26.249,26.249,0,0,1-4.41-2.4L-6.886-8.646A39.549,39.549,0,0,0,5.721-12.568,36.268,36.268,0,0,0,14.671-19.386ZM42.679-26.66l-.038,5.218-14.435.571.038-5.979q4.266-.038,8.379.076Q41.118-26.66,42.679-26.66Zm4.532,9.6-.152,5.256-8.493-.076a9.591,9.591,0,0,1-2.171,7.2q-2.933,3.352-9.217,3.656a18.224,18.224,0,0,0,5.294-6.094,11.241,11.241,0,0,0,.838-4.608q-4.913.419-10.169.8L22.8-16.986ZM81.237-7.351l-3.39,6.018A63.5,63.5,0,0,1,69.24-8.912a21.678,21.678,0,0,1-12.949,5.9,46.223,46.223,0,0,0,9.1-8.95,21.284,21.284,0,0,0,4.037-7.922q-4.151.3-11.235.8-.152-3.732-.19-6.17l19.043-.533a26.46,26.46,0,0,1-5.1,12.949,23.111,23.111,0,0,0,4.38,3.5Q79.523-7.274,81.237-7.351Zm32.274-7.77-2.7,5.789q-4.189-1.9-5.484-2.514-3.58-1.714-4.8-2.476l.419,12.683L95.23-1.676,95.5-27.117l5.332-.114.3,8.417q2.856.99,6.475,2.019Q111.874-15.653,113.511-15.12Z" transform="translate(114.921 29.821)"/></g><g transform="translate(13.378 435.092)"><g transform="translate(0 0)"><g transform="translate(6.06 8.013)"><path class="c" d="M316.2,568.845h55.137L355.584,536.12,371.337,503.4H316.2Z" transform="translate(-46.07 -481.577)"/><path class="c" d="M74.962,568.845H19.824L35.577,536.12,19.824,503.4H74.962Z" transform="translate(-19.824 -481.577)"/><rect class="c" width="246.498" height="65.451" transform="translate(39.384)"/><path class="f" d="M62.709,550.9,78.462,572.72V550.9Z" transform="translate(-23.322 -485.452)"/><path class="f" d="M331.953,550.9,316.2,572.72V550.9Z" transform="translate(-46.07 -485.452)"/></g><path class="d" d="M303.7,538.452H57.2a1,1,0,0,1-1-1V472a1,1,0,0,1,1-1H89.6a1,1,0,1,1,0,2H58.2v63.449H302.7V473H96.36a1,1,0,1,1,0-2H303.7a1,1,0,0,1,1,1v65.449A1,1,0,0,1,303.7,538.452Z" transform="translate(-16.813 -471.003)"/><g transform="translate(0 21.818)"><path class="d" d="M29.03,527.334a1,1,0,0,1-.9-.566L13.414,496.193a1,1,0,0,1,.9-1.434h35.7a1,1,0,0,1,0,2H15.906L29.93,525.9a1,1,0,0,1-.9,1.434Z" transform="translate(-13.315 -494.759)"/><path class="d" d="M69.454,565.313H14.317a1,1,0,0,1-.9-1.433L28.129,533.3a1,1,0,0,1,1.8.867l-14.024,29.15H68.454V546.745a1,1,0,0,1,2,0v17.568A1,1,0,0,1,69.454,565.313Z" transform="translate(-13.315 -497.856)"/><path class="d" d="M14.483,18.059a1,1,0,0,1-.763-.353L-.762.647A1,1,0,0,1-.647-.762a1,1,0,0,1,1.41.115L15.245,16.412a1,1,0,0,1-.762,1.647Z" transform="translate(41.653 49.393)"/></g><g transform="translate(270.127 21.818)"><path class="d" d="M352.838,527.334a1,1,0,0,1-.9-1.434l14.023-29.141H331.848a1,1,0,1,1,0-2h35.7a1,1,0,0,1,.9,1.434L353.74,526.767A1,1,0,0,1,352.838,527.334Z" transform="translate(-311.414 -494.759)"/><path class="d" d="M365.825,565.313H310.688a1,1,0,0,1-1-1V546.745a1,1,0,0,1,2,0v16.568h52.546l-14.024-29.15a1,1,0,0,1,1.8-.867l14.714,30.584a1,1,0,0,1-.9,1.433Z" transform="translate(-309.688 -497.856)"/><path class="d" d="M0,18.059a1,1,0,0,1-.647-.238,1,1,0,0,1-.115-1.41L13.72-.647a1,1,0,0,1,1.41-.115,1,1,0,0,1,.115,1.41L.762,17.706A1,1,0,0,1,0,18.059Z" transform="translate(1.003 49.393)"/></g></g><g class="e" transform="translate(133.816 13.423)"><path class="d" d="M11.592-10.092v-.06h-3.6V1.032h3.6V.972A7.269,7.269,0,0,1,9.216-4.56,7.269,7.269,0,0,1,11.592-10.092Zm3.96,2.2h.864v-.6h3.12v.6h.876v-.6h2.724v-.732H20.412v-.8h-.876v.8h-3.12v-.8h-.864v.8H12.864V-8.5h2.688Zm2.424,5.94c.072-.276.132-.552.18-.852h-.864a4.655,4.655,0,0,1-.2.852H14.88a7.024,7.024,0,0,0,1.4-1.092h3.408a6.655,6.655,0,0,0,1.26,1.092ZM14.964-5.808h6.108v.768H14.964Zm0-1.332h6.108v.768H14.964ZM23.3-3.048v-.72H16.9c.156-.228.288-.444.42-.684h4.632V-7.728H14.112v3.276h2.244a4.164,4.164,0,0,1-.48.684H12.708v.72H15.12A8.574,8.574,0,0,1,12.444-1.68a2.189,2.189,0,0,1,.516.636,12.982,12.982,0,0,0,1.476-.648v.408h2.352c-.48.744-1.38,1.26-3.108,1.572a2.223,2.223,0,0,1,.444.7c2.088-.432,3.084-1.152,3.6-2.268h2.7C20.34-.432,20.232-.06,20.1.072a.541.541,0,0,1-.4.1,12.281,12.281,0,0,1-1.3-.06,1.964,1.964,0,0,1,.2.732c.6.024,1.152.036,1.44.012a.951.951,0,0,0,.72-.264c.264-.24.4-.84.528-2.2l.012-.108a8.423,8.423,0,0,0,1.716.78,3.177,3.177,0,0,1,.576-.7,8,8,0,0,1-2.9-1.416Zm3.66-1.992h2.8v.828h-2.8ZM29.76-7.1h-2.8v-.8h2.8Zm0,1.428h-2.8v-.792h2.8Zm5.568,3.66v-.732h-4.92v-.744h4.584v-.72h-4.38V-5.04h3.48v-.636h-3.48v-.792h3.444V-7.1H30.612v-.8h3.912v-.708H30.588c.228-.384.48-.84.72-1.284l-1-.144a10.149,10.149,0,0,1-.624,1.428H27.372a14.568,14.568,0,0,0,.756-1.26l-.924-.18a10.562,10.562,0,0,1-2.832,3.528,2.67,2.67,0,0,1,.636.588,12.055,12.055,0,0,0,1.128-1.08v3.528h3.4v.744H24.684v.732h4.1A12.888,12.888,0,0,1,24.4.048a3.5,3.5,0,0,1,.588.732,14.04,14.04,0,0,0,4.548-2.448V.9h.876V-1.692A13.606,13.606,0,0,0,34.992.7a3.778,3.778,0,0,1,.576-.732,12.806,12.806,0,0,1-4.38-1.98Zm3.156-1.968h2.172v1.2H38.484Zm2.172-3.672V-6.6H38.484V-7.656ZM38.484-5.88h2.172V-4.7H38.484Zm3.876,3.1h-.876V-7.656h.876v-.8h-.876V-9.9h-.828v1.44H38.484V-9.9h-.816v1.44H36.66v.8h1.008v4.872H36.5v.8H42.36Zm-4.2,1.056A6.26,6.26,0,0,1,36.516.408a5.516,5.516,0,0,1,.72.516A7.932,7.932,0,0,0,39.012-1.5Zm1.7.372A9.42,9.42,0,0,1,41.1.468l.72-.42a8.89,8.89,0,0,0-1.26-1.776Zm3.9-2.568c.012-.408.024-.816.024-1.188v-.8h2.448v1.992Zm2.472-4.7V-6.72H43.788V-8.628Zm.864-.816H42.948v4.332c0,1.716-.1,4-1.092,5.58a2.287,2.287,0,0,1,.708.516,9.4,9.4,0,0,0,1.14-4.1h2.532V-.24c0,.192-.072.252-.252.252s-.768.012-1.4,0a3.628,3.628,0,0,1,.276.864A5.319,5.319,0,0,0,46.644.708C46.968.564,47.1.3,47.1-.228Zm5.5.612v1H50v-1ZM50-6.12V-7.176H52.6V-6.12Zm3.444.684V-9.528H49.116V.924H50v-6.36Zm1.932,1.6v1.1H52.56v-1.1ZM52.56-.9V-2.064h2.82V-.9Zm3.648.708V-4.536H51.756V.408h.8v-.6Zm-.84-5.916V-7.176h2.688v1.068Zm2.688-2.724v1H55.368v-1Zm.9-.7h-4.44v4.1h3.54V-.276c0,.216-.072.288-.276.288S56.832.036,56.1,0a3.287,3.287,0,0,1,.312.912A6.83,6.83,0,0,0,58.428.756c.4-.156.528-.456.528-1.02Zm5.052,10.56V-10.152h-3.6v.06A7.269,7.269,0,0,1,62.784-4.56,7.269,7.269,0,0,1,60.408.972v.06Z" transform="translate(-4 12)"/></g><g transform="translate(56.808 35.724)"><g class="e" transform="translate(47.302 1.578)"><path class="d" d="M3.468-2.688V-5.064H6.156v2.376Zm7.932,0H7.056V-5.064h3.516V-5.9H7.056V-7.728h3.792v-.864H3.7c.192-.408.384-.84.552-1.26l-.9-.216a10.155,10.155,0,0,1-2.7,4.14,5.523,5.523,0,0,1,.768.564A11.087,11.087,0,0,0,3.24-7.728H6.156V-5.9H2.58v3.216H.612v.864H6.156V.924h.9V-1.824H11.4Z" transform="translate(0 12)"/></g><g class="e" transform="translate(83.202 3.578)"><path class="d" d="M3.276-3.672a15.066,15.066,0,0,0,.132-2.016H8.892v2.016Zm5.616-4.86V-6.54H3.408V-8.532Zm.924-.876H2.508v3.672c0,1.908-.192,4.344-2.1,6.024a3.377,3.377,0,0,1,.66.648A6.769,6.769,0,0,0,3.132-2.8h5.76V-.4c0,.264-.1.348-.372.36S7.284-.024,6.288-.06A4.256,4.256,0,0,1,6.66.864,9.649,9.649,0,0,0,9.192.7c.444-.144.624-.456.624-1.08Z" transform="translate(0 10)"/></g><g class="e" transform="translate(120.776 3.578)"><path class="d" d="M3.06-.876V-4.224H9.012V-.876ZM9.012-8.34V-5.1H3.06V-8.34ZM2.16-9.216v10h.9V0H9.012V.732h.936V-9.216Z" transform="translate(0 10)"/></g><g class="e" transform="translate(134.634 1.578)"><path class="d" d="M4.72-3.52A3,3,0,0,0,6.97-2.45,2.987,2.987,0,0,0,9.58-4.2l-.71-.38A2.206,2.206,0,0,1,6.98-3.26a2.309,2.309,0,0,1-1.7-.82A3,3,0,0,0,3.03-5.15,2.987,2.987,0,0,0,.42-3.4l.71.38A2.206,2.206,0,0,1,3.02-4.34,2.292,2.292,0,0,1,4.72-3.52Z" transform="translate(0 10)"/></g><path class="d" d="M10.623-2.676V0H.523a6.956,6.956,0,0,1,.984-2.876,19.14,19.14,0,0,1,3.24-3.6A20.381,20.381,0,0,0,7.137-8.941a3.17,3.17,0,0,0,.595-1.764,2,2,0,0,0-.518-1.482,1.933,1.933,0,0,0-1.43-.518,1.919,1.919,0,0,0-1.436.543,2.791,2.791,0,0,0-.615,1.8L.861-10.644a4.707,4.707,0,0,1,1.61-3.415,5.406,5.406,0,0,1,3.384-1.036,4.89,4.89,0,0,1,3.5,1.2,3.935,3.935,0,0,1,1.271,2.984,5.194,5.194,0,0,1-.364,1.933A7.86,7.86,0,0,1,9.105-7.055,18.46,18.46,0,0,1,7.219-5.137Q5.855-3.886,5.491-3.476a4.974,4.974,0,0,0-.59.8Zm6.819-12.417a4.107,4.107,0,0,1,3.415,1.559q1.466,1.846,1.466,6.122T20.846-1.282a4.1,4.1,0,0,1-3.4,1.538A4.3,4.3,0,0,1,13.9-1.43q-1.343-1.687-1.343-6.014,0-4.245,1.477-6.111A4.1,4.1,0,0,1,17.442-15.094Zm0,2.389a1.439,1.439,0,0,0-.933.333,2.237,2.237,0,0,0-.636,1.195,16.477,16.477,0,0,0-.3,3.763,16.356,16.356,0,0,0,.267,3.635,2.556,2.556,0,0,0,.672,1.318,1.433,1.433,0,0,0,.928.328,1.439,1.439,0,0,0,.933-.333,2.237,2.237,0,0,0,.636-1.195,16.331,16.331,0,0,0,.3-3.753,16.355,16.355,0,0,0-.267-3.635,2.591,2.591,0,0,0-.672-1.323A1.419,1.419,0,0,0,17.442-12.7ZM33.981-2.676V0h-10.1a6.956,6.956,0,0,1,.984-2.876,19.14,19.14,0,0,1,3.24-3.6A20.381,20.381,0,0,0,30.5-8.941a3.17,3.17,0,0,0,.595-1.764,2,2,0,0,0-.518-1.482,1.933,1.933,0,0,0-1.43-.518,1.919,1.919,0,0,0-1.436.543,2.791,2.791,0,0,0-.615,1.8l-2.871-.287a4.707,4.707,0,0,1,1.61-3.415,5.406,5.406,0,0,1,3.384-1.036,4.89,4.89,0,0,1,3.5,1.2,3.935,3.935,0,0,1,1.271,2.984,5.194,5.194,0,0,1-.364,1.933,7.86,7.86,0,0,1-1.154,1.923,18.459,18.459,0,0,1-1.887,1.917q-1.364,1.251-1.728,1.661a4.974,4.974,0,0,0-.59.8ZM43.3,0H40.421V-10.859A9.933,9.933,0,0,1,36.7-8.675V-11.29a8.333,8.333,0,0,0,2.451-1.4,5.319,5.319,0,0,0,1.815-2.4H43.3Z" transform="translate(-0.523 15.094)"/><path class="d" d="M8.265,0H5.383V-10.859A9.933,9.933,0,0,1,1.661-8.675V-11.29a8.333,8.333,0,0,0,2.451-1.4,5.318,5.318,0,0,0,1.815-2.4H8.265ZM18.785,0H15.9V-10.859a9.933,9.933,0,0,1-3.722,2.184V-11.29a8.333,8.333,0,0,0,2.451-1.4,5.318,5.318,0,0,0,1.815-2.4h2.338Z" transform="translate(61.012 15.094)"/><path class="d" d="M10.623-2.676V0H.523a6.956,6.956,0,0,1,.984-2.876,19.14,19.14,0,0,1,3.24-3.6A20.381,20.381,0,0,0,7.137-8.941a3.17,3.17,0,0,0,.595-1.764,2,2,0,0,0-.518-1.482,1.933,1.933,0,0,0-1.43-.518,1.919,1.919,0,0,0-1.436.543,2.791,2.791,0,0,0-.615,1.8L.861-10.644a4.707,4.707,0,0,1,1.61-3.415,5.406,5.406,0,0,1,3.384-1.036,4.89,4.89,0,0,1,3.5,1.2,3.935,3.935,0,0,1,1.271,2.984,5.194,5.194,0,0,1-.364,1.933A7.86,7.86,0,0,1,9.105-7.055,18.46,18.46,0,0,1,7.219-5.137Q5.855-3.886,5.491-3.476a4.974,4.974,0,0,0-.59.8Zm6.819-12.417a4.107,4.107,0,0,1,3.415,1.559q1.466,1.846,1.466,6.122T20.846-1.282a4.1,4.1,0,0,1-3.4,1.538A4.3,4.3,0,0,1,13.9-1.43q-1.343-1.687-1.343-6.014,0-4.245,1.477-6.111A4.1,4.1,0,0,1,17.442-15.094Zm0,2.389a1.439,1.439,0,0,0-.933.333,2.237,2.237,0,0,0-.636,1.195,16.477,16.477,0,0,0-.3,3.763,16.356,16.356,0,0,0,.267,3.635,2.556,2.556,0,0,0,.672,1.318,1.433,1.433,0,0,0,.928.328,1.439,1.439,0,0,0,.933-.333,2.237,2.237,0,0,0,.636-1.195,16.331,16.331,0,0,0,.3-3.753,16.355,16.355,0,0,0-.267-3.635,2.591,2.591,0,0,0-.672-1.323A1.419,1.419,0,0,0,17.442-12.7Z" transform="translate(96.83 15.094)"/><g class="e" transform="translate(173.208 3.578)"><path class="d" d="M3.276-3.672a15.066,15.066,0,0,0,.132-2.016H8.892v2.016Zm5.616-4.86V-6.54H3.408V-8.532Zm.924-.876H2.508v3.672c0,1.908-.192,4.344-2.1,6.024a3.377,3.377,0,0,1,.66.648A6.769,6.769,0,0,0,3.132-2.8h5.76V-.4c0,.264-.1.348-.372.36S7.284-.024,6.288-.06A4.256,4.256,0,0,1,6.66.864,9.649,9.649,0,0,0,9.192.7c.444-.144.624-.456.624-1.08Z" transform="translate(0 10)"/></g><g class="e" transform="translate(208.945 1.578)"><path class="d" d="M3.06-.876V-4.224H9.012V-.876ZM9.012-8.34V-5.1H3.06V-8.34ZM2.16-9.216v10h.9V0H9.012V.732h.936V-9.216Z" transform="translate(0 12)"/></g><path class="d" d="M8.265,0H5.383V-10.859A9.933,9.933,0,0,1,1.661-8.675V-11.29a8.333,8.333,0,0,0,2.451-1.4,5.318,5.318,0,0,0,1.815-2.4H8.265ZM22.3-2.676V0H12.2a6.956,6.956,0,0,1,.984-2.876,19.14,19.14,0,0,1,3.24-3.6,20.38,20.38,0,0,0,2.389-2.461,3.17,3.17,0,0,0,.595-1.764,2,2,0,0,0-.518-1.482,1.933,1.933,0,0,0-1.43-.518,1.919,1.919,0,0,0-1.436.543,2.791,2.791,0,0,0-.615,1.8l-2.871-.287a4.707,4.707,0,0,1,1.61-3.415,5.406,5.406,0,0,1,3.384-1.036,4.89,4.89,0,0,1,3.5,1.2A3.935,3.935,0,0,1,22.3-10.91a5.194,5.194,0,0,1-.364,1.933,7.86,7.86,0,0,1-1.154,1.923A18.459,18.459,0,0,1,18.9-5.137Q17.534-3.886,17.17-3.476a4.974,4.974,0,0,0-.59.8Z" transform="translate(147.344 15.094)"/><path class="d" d="M.79-3.989l2.789-.338A2.64,2.64,0,0,0,4.3-2.7a1.963,1.963,0,0,0,1.415.564,1.944,1.944,0,0,0,1.5-.677,2.624,2.624,0,0,0,.61-1.825,2.447,2.447,0,0,0-.584-1.723,1.863,1.863,0,0,0-1.425-.636,5.027,5.027,0,0,0-1.323.215l.318-2.348a2.525,2.525,0,0,0,1.784-.508,1.807,1.807,0,0,0,.615-1.43,1.635,1.635,0,0,0-.451-1.21,1.622,1.622,0,0,0-1.2-.451,1.736,1.736,0,0,0-1.261.513,2.409,2.409,0,0,0-.636,1.5L1-11.167a5.936,5.936,0,0,1,.836-2.179A3.772,3.772,0,0,1,3.4-14.627a5.235,5.235,0,0,1,2.24-.467,4.469,4.469,0,0,1,3.4,1.354,3.533,3.533,0,0,1,1.056,2.5A3.54,3.54,0,0,1,7.937-8.08,3.5,3.5,0,0,1,10-6.839a3.6,3.6,0,0,1,.774,2.328A4.515,4.515,0,0,1,9.331-1.138,4.98,4.98,0,0,1,5.732.256,4.955,4.955,0,0,1,2.348-.918,4.614,4.614,0,0,1,.79-3.989ZM19.944,0H17.063V-10.859A9.933,9.933,0,0,1,13.34-8.675V-11.29a8.333,8.333,0,0,0,2.451-1.4,5.318,5.318,0,0,0,1.815-2.4h2.338Z" transform="translate(185.918 15.094)"/></g></g><path class="c" d="M265.1,309.9a.408.408,0,0,1-.047,0,.575.575,0,0,1-.537-.546.819.819,0,0,0-.013-.1,1.841,1.841,0,0,1-.029-.306,1.223,1.223,0,0,0-.011-.128,2.265,2.265,0,0,1-.017-.308l0-.156c0-.094,0-.187.008-.283a2.153,2.153,0,0,1,.042-.29c.008-.046.019-.093.023-.14a1.186,1.186,0,0,1,.111-.388l.009-.019,0-.006a.951.951,0,0,1,.118-.882l0,0,0-.009a1.177,1.177,0,0,1-.008-.422,1.222,1.222,0,0,1,.149-.373c.011-.02.024-.04.033-.062a1.593,1.593,0,0,1,.09-.273.966.966,0,0,0,.042-.116.721.721,0,0,0,.016-.117,1.921,1.921,0,0,1,.056-.316.638.638,0,0,0,.006-.08,1.439,1.439,0,0,1,.059-.356c.031-.094.07-.185.109-.274.02-.046.04-.09.057-.136a.836.836,0,0,1,.057-.122v-.008l-.013-.037a1.094,1.094,0,0,1-.088-.415.771.771,0,0,0-.016-.128,2.35,2.35,0,0,1-.027-.263c0-.074,0-.148,0-.22s0-.115,0-.172a.973.973,0,0,1,.123-.5l-.006-.065c0-.049-.007-.1-.013-.143a1.043,1.043,0,0,1-.227-.421,1.376,1.376,0,0,0-.057-.174c-.02-.056-.041-.114-.06-.172a.548.548,0,0,0-.262-.637c-.031-.054-.059-.111-.086-.167a1.1,1.1,0,0,0-.064-.121c.016.024,0,.013-.021,0a1.352,1.352,0,0,1-.266-.194.853.853,0,0,1-.231-.451,1.746,1.746,0,0,1-.236-.115c-.051-.032-.1-.067-.156-.1a1.5,1.5,0,0,0-.166-.1,1.273,1.273,0,0,0-.165-.063c-.068-.024-.137-.048-.2-.074a2.224,2.224,0,0,1-.237-.121c-.027-.016-.052-.032-.081-.046l-.029,0a1.154,1.154,0,0,1-.424-.031c-.076-.022-.153-.04-.23-.058l-.16-.039c-.083-.02-.167-.038-.252-.055l-.146-.03c-.061-.014-.125-.021-.188-.029s-.142-.019-.214-.033a.873.873,0,0,1-.325-.137,1.387,1.387,0,0,1-.252-.02.856.856,0,0,1-.233,0,.953.953,0,0,1-.095-.018,1.645,1.645,0,0,1-.314.016c-.051,0-.1,0-.153,0-.094,0-.191,0-.287-.007s-.176-.022-.264-.037c-.056-.009-.111-.019-.167-.025a.99.99,0,0,1-.473-.2l-.011-.008-.134-.017c-.057-.007-.114-.016-.171-.021a1.015,1.015,0,0,1-.445.081,1.35,1.35,0,0,1-.21-.032.9.9,0,0,1-.21.012c-.062,0-.125,0-.187,0s-.147,0-.22,0a1.894,1.894,0,0,1-.256-.029.763.763,0,0,0-.083-.012.626.626,0,0,1-.072,0,.579.579,0,0,1,.028-1.156,1.079,1.079,0,0,1,.445-.074c.083.006.167.018.254.032a1.406,1.406,0,0,0,.164.022,1.3,1.3,0,0,1,.129.016,1.049,1.049,0,0,1,.3-.027c.083.006.164,0,.242.005a.832.832,0,0,1,.182-.006l.433.029a1.388,1.388,0,0,1,.363.088.651.651,0,0,0,.079.026.948.948,0,0,1,.4.139.973.973,0,0,1,.461-.073,1.254,1.254,0,0,1,.326.091h.01c.039,0,.078,0,.117.008a1.042,1.042,0,0,1,.339-.045.848.848,0,0,1,.311-.1,1.646,1.646,0,0,0,.187-.036c.056-.013.113-.026.172-.036a2.166,2.166,0,0,1,.241-.027.912.912,0,0,0,.119-.012.644.644,0,0,0,.094-.048,1.892,1.892,0,0,1,.226-.11.835.835,0,0,1,.442-.039,1,1,0,0,1,.234-.216c.012-.01.029-.032.049-.053a1.562,1.562,0,0,1,.218-.208c.1-.074.186-.153.282-.24a2.406,2.406,0,0,1,.193-.15.8.8,0,0,0,.11-.085,1.231,1.231,0,0,1,.308-.216.608.608,0,0,0,.06-.033s.011-.035.029-.068a1.837,1.837,0,0,1,.156-.235c-.014.016-.01,0,0-.024a1.193,1.193,0,0,1,.163-.338,1.875,1.875,0,0,1,.188-.214.683.683,0,0,0,.071-.075.582.582,0,0,0,.049-.108,2,2,0,0,1,.115-.241,2.4,2.4,0,0,1,.14-.207.692.692,0,0,0,.075-.111,1.092,1.092,0,0,1,.231-.293.964.964,0,0,1,.055-.418.935.935,0,0,1,.286-.378V292.8a1.493,1.493,0,0,1,.047-.32.976.976,0,0,0,.023-.141,2.357,2.357,0,0,1,.039-.242,1.112,1.112,0,0,1,.184-.385l.006-.008,0-.031a1.429,1.429,0,0,1,0-.339,1.8,1.8,0,0,1,.073-.291l.018-.053a1.141,1.141,0,0,1-.075-.446,1.181,1.181,0,0,0-.005-.138,2.364,2.364,0,0,1-.009-.255c0-.078.01-.158.019-.239a1.258,1.258,0,0,0,.013-.158,1.506,1.506,0,0,0-.013-.157c-.009-.079-.018-.159-.021-.238a.582.582,0,0,1,.237-.489,1.064,1.064,0,0,1,.114-.3,1.036,1.036,0,0,1-.081-.4.887.887,0,0,1,.117-.407.9.9,0,0,1-.114-.4,1.218,1.218,0,0,0-.017-.152c-.012-.081-.023-.162-.028-.243a1,1,0,0,1,.1-.458l-.009-.027a1.6,1.6,0,0,1-.081-.306,1.441,1.441,0,0,1,0-.313.906.906,0,0,1-.255-.422.579.579,0,0,1,1.086-.388.959.959,0,0,1,.316.512,1.472,1.472,0,0,1,.011.374.546.546,0,0,0,0,.086.651.651,0,0,0,.026.074,1.472,1.472,0,0,1,.087.356,1,1,0,0,1-.1.494l0,.013.011.077c.01.07.02.14.026.209a1.011,1.011,0,0,1,.166.519.9.9,0,0,1-.134.452.907.907,0,0,1-.073.869l0,.007.007.051a2.029,2.029,0,0,1,.019.267l.013.039a1.09,1.09,0,0,1,.077.434.9.9,0,0,1-.22.515l-.019.477,0,.061a.8.8,0,0,1,0,.123l0,.032v.018c0,.066,0,.132,0,.2s0,.141,0,.212a.781.781,0,0,0,.016.118,2.019,2.019,0,0,1,.031.285.79.79,0,0,0,.019.081,1.514,1.514,0,0,1,.056.318,2.036,2.036,0,0,1-.012.279.765.765,0,0,0-.007.121.52.52,0,0,0,.025.076,1.613,1.613,0,0,1,.075.309.987.987,0,0,1-.06.445,1.274,1.274,0,0,1,.13.335c0-.022.008,0,.021.015a1.256,1.256,0,0,1,.157.34c.018.068.032.136.046.2s.022.114.04.171a1,1,0,0,1,.02.479v.006c.022.051.047.1.071.154l.059.129c.031.066.057.137.083.208.007.018.015.038.021.057a.927.927,0,0,1,.394.342,1.716,1.716,0,0,1,.122.264.278.278,0,0,0,.112.169,2,2,0,0,1,.185.208,1.339,1.339,0,0,1,.166.31.559.559,0,0,0,.029.068,1.018,1.018,0,0,1,.158.283.9.9,0,0,1,.416.227l.107.108c.056.058.112.117.172.172a2,2,0,0,1,.19.212.7.7,0,0,0,.075.089.785.785,0,0,0,.108.07,2.1,2.1,0,0,1,.226.154.638.638,0,0,0,.1.053,1.957,1.957,0,0,1,.25.152,1.186,1.186,0,0,1,.267.294c.013.017.024.036.038.052,0-.009.042.012.083.032a2.223,2.223,0,0,1,.238.13c.112.073.225.143.341.213a1.09,1.09,0,0,1,.29.272,1,1,0,0,1,.427.106.867.867,0,0,1,.293.264.816.816,0,0,1,.45.066.746.746,0,0,1,.275.223c.04.009.083.014.125.02a2.3,2.3,0,0,1,.287.055,1.154,1.154,0,0,1,.311.141.7.7,0,0,1,.122.036.793.793,0,0,1,.187.1l.04.017a1.389,1.389,0,0,0,.134.052c.085.027.167.059.249.092l.007,0a.789.789,0,0,1,.252.08l.025,0c.074.015.149.03.22.051a1.1,1.1,0,0,1,.505.031,1.374,1.374,0,0,1,.322.173.725.725,0,0,0,.066.042.726.726,0,0,1,.112.05c.051.023.1.047.135.067a.557.557,0,0,0,.071.036,2.071,2.071,0,0,1,.241.074c.027.009.052.019.079.028a.868.868,0,0,1,.132.037.579.579,0,0,1-.306,1.115l-.087-.021-.049,0a1.353,1.353,0,0,1-.366-.067,1.16,1.16,0,0,1-.343-.2h-.016a1.194,1.194,0,0,1-.411-.032.473.473,0,0,1-.059,0,1.286,1.286,0,0,1-.382-.049.931.931,0,0,1-.388-.253.962.962,0,0,1-.435-.04.9.9,0,0,0-.82-.309.7.7,0,0,0-.092-.02,1.511,1.511,0,0,1-.335-.1.738.738,0,0,1-.227-.158.974.974,0,0,1-.42.023,1.939,1.939,0,0,1-.268-.075.733.733,0,0,0-.117-.035,1.009,1.009,0,0,1-.449-.209l-.009-.006-.117-.018c-.065-.011-.13-.022-.194-.027a1.345,1.345,0,0,0-.147.007c-.085.007-.175.012-.251.011s-.137-.006-.2-.011a1.643,1.643,0,0,0-.186-.008l-.147,0c-.082,0-.164,0-.243.01a.768.768,0,0,0-.128.033,2.074,2.074,0,0,1-.249.062c-.014.006-.039.02-.066.032a1.6,1.6,0,0,1-.29.111,1.229,1.229,0,0,0-.156.058c-.062.026-.126.051-.191.073a1.531,1.531,0,0,0-.183.081l-.15.07a1.292,1.292,0,0,1-.333.089c-.024,0-.047.007-.069.012.013,0-.01.027-.035.05a1.945,1.945,0,0,1-.187.163,1.012,1.012,0,0,1-.37.163,1.3,1.3,0,0,1-.183.286,1.273,1.273,0,0,1-.262.221.744.744,0,0,0-.062.044l-.115.189-.067.108a.761.761,0,0,0-.042.1,2.027,2.027,0,0,1-.109.254,1.624,1.624,0,0,1-.165.237.856.856,0,0,1-.028.53.866.866,0,0,1-.1.174c0,.016,0,.032,0,.049a1.045,1.045,0,0,1-.141.439.11.11,0,0,1-.016.028c-.009.076-.023.152-.038.229-.009.048-.019.1-.024.145a.82.82,0,0,0,0,.116,1.829,1.829,0,0,1-.006.309c0-.027.009,0,.014.019a1.164,1.164,0,0,1,.028.413,1.071,1.071,0,0,1-.168.421l-.014.021c0,.03,0,.061,0,.091a2.111,2.111,0,0,1-.023.287,1.076,1.076,0,0,1-.156.386,1,1,0,0,1,.029.445c0,.025,0,.054,0,.084a1.347,1.347,0,0,1-.019.335,1.439,1.439,0,0,1-.116.334.615.615,0,0,0-.032.071c-.007.04-.012.091-.016.141a2.47,2.47,0,0,1-.038.264c-.011.056-.019.113-.026.17-.012.081-.022.16-.039.236a1.3,1.3,0,0,1-.126.336A.6.6,0,0,1,265.1,309.9Zm1.147-3.7v0Zm.206-1.676h0Zm-1.027-.893v0Zm-.01-1.6a.1.1,0,0,0,0,.017Zm-.038-.369v0Zm.9-.676a1.045,1.045,0,0,1,.248.489c0,.02.007.04.009.062.037-.029.072-.052.1-.074a.662.662,0,0,0,.059-.042c-.016.01,0-.016.01-.039a1.2,1.2,0,0,1,.247-.357,1,1,0,0,1,.478-.232l.022-.005.041-.039a1.477,1.477,0,0,1,.31-.243,1.194,1.194,0,0,1,.412-.128c.022,0,.046-.006.067-.012l.1-.047a2.74,2.74,0,0,1,.311-.134c.043-.015.084-.031.124-.048a2.269,2.269,0,0,1,.317-.11c.023-.008.049-.022.074-.034a1.35,1.35,0,0,1,.368-.128c.038-.006.076-.019.116-.03a1.77,1.77,0,0,1,.34-.074c.109-.011.223-.014.337-.016l.055,0a1.3,1.3,0,0,1-.216-.252.589.589,0,0,0-.037-.052.393.393,0,0,1-.069-.029,1.768,1.768,0,0,1-.278-.174,1.055,1.055,0,0,0-.107-.07,1.9,1.9,0,0,1-.26-.182,1.719,1.719,0,0,1-.226-.244.806.806,0,0,0-.073-.085c-.075-.07-.146-.143-.217-.217l-.032-.032a.953.953,0,0,1-.5-.266,1.17,1.17,0,0,1-.217-.373c-.008-.02-.016-.042-.026-.061a1.157,1.157,0,0,1-.174-.318.559.559,0,0,0-.029-.068c-.014-.017-.042-.043-.069-.07a1.714,1.714,0,0,1-.218-.253,1.574,1.574,0,0,1-.157-.321l0-.012a.9.9,0,0,1-.415-.376,2.411,2.411,0,0,1-.123-.294c-.017-.043-.032-.087-.051-.129l-.053-.114c-.047-.1-.093-.2-.131-.3a1,1,0,0,1-.035-.526l0-.019c-.021-.075-.037-.152-.052-.23-.009-.045-.017-.09-.029-.134,0,.011-.013-.011-.024-.028a1.241,1.241,0,0,1-.161-.35,1.2,1.2,0,0,1-.223.259l-.044.042a1.32,1.32,0,0,1-.144.225,1.172,1.172,0,0,0-.072.1.805.805,0,0,0-.048.1,1.774,1.774,0,0,1-.148.295,1.5,1.5,0,0,1-.219.259.633.633,0,0,0-.072.077c.008-.008,0,.014-.005.034a1.156,1.156,0,0,1-.19.374.785.785,0,0,0-.057.093,1.7,1.7,0,0,1-.194.281,1.192,1.192,0,0,1-.351.259c-.019.011-.039.02-.056.032a1.7,1.7,0,0,1-.237.192,1,1,0,0,0-.092.07c-.119.107-.231.2-.351.3a.492.492,0,0,0-.064.067,1.389,1.389,0,0,1-.279.25c.026-.017.015,0,0,.017a1.244,1.244,0,0,1-.221.241c.051.026.1.053.153.082a.789.789,0,0,0,.107.057c.043.018.089.034.133.05a2.373,2.373,0,0,1,.307.122,2.538,2.538,0,0,1,.3.18c.037.025.074.05.11.073a.577.577,0,0,0,.095.04,1.433,1.433,0,0,1,.35.185.848.848,0,0,1,.3.544,1.1,1.1,0,0,1,.319.27,1.788,1.788,0,0,1,.19.322l.013.028a.929.929,0,0,1,.413.429.9.9,0,0,1,.015.592l.012.034C266.225,300.819,266.254,300.9,266.276,300.984Zm.017.07h0Zm5.423-.1h0Zm-5.925-1.2h0Zm.551-13.82h0Zm.794-.772h0Z" transform="translate(-21.539 -19.083)"/><path class="c" d="M285.15,285.942c-4.006.465-4.878,4.093-5.313,6.788-.435-2.7-1.19-4.492-1.771-4.988a5.1,5.1,0,0,0-4.7-1.684c4.936-1.213,6.213-3.6,6.794-7.623C280.157,283.155,281.492,284.846,285.15,285.942Z" transform="translate(-23 -18.504)"/><path class="c" d="M108.1,298.9a.388.388,0,0,1-.047,0,.575.575,0,0,1-.537-.546.838.838,0,0,0-.013-.1,1.839,1.839,0,0,1-.029-.306,1.218,1.218,0,0,0-.011-.128,2.28,2.28,0,0,1-.017-.308l0-.156c0-.094,0-.187.008-.283a2.148,2.148,0,0,1,.042-.29c.008-.046.019-.093.023-.14a1.188,1.188,0,0,1,.111-.388l.009-.019,0-.006a.951.951,0,0,1,.118-.882l0,0,0-.009a1.18,1.18,0,0,1-.008-.423,1.224,1.224,0,0,1,.149-.373c.011-.02.024-.04.033-.062a1.6,1.6,0,0,1,.09-.273.961.961,0,0,0,.042-.116.725.725,0,0,0,.016-.117,1.914,1.914,0,0,1,.056-.316.653.653,0,0,0,.006-.08,1.44,1.44,0,0,1,.059-.356c.031-.094.07-.185.109-.274.02-.046.04-.09.057-.136a.834.834,0,0,1,.057-.122v-.008l-.013-.037a1.094,1.094,0,0,1-.088-.415.78.78,0,0,0-.016-.128,2.333,2.333,0,0,1-.027-.263c0-.074,0-.148,0-.22s0-.115,0-.172a.973.973,0,0,1,.123-.5l-.006-.065c0-.049-.007-.1-.013-.143a1.043,1.043,0,0,1-.227-.421,1.369,1.369,0,0,0-.057-.174c-.02-.056-.041-.114-.06-.172a.548.548,0,0,0-.262-.637c-.031-.054-.059-.111-.086-.167a1.1,1.1,0,0,0-.064-.121c.017.024,0,.013-.021,0a1.352,1.352,0,0,1-.266-.194.852.852,0,0,1-.231-.451,1.753,1.753,0,0,1-.236-.115c-.051-.032-.1-.067-.156-.1a1.516,1.516,0,0,0-.166-.1,1.287,1.287,0,0,0-.165-.063c-.068-.024-.137-.048-.2-.074a2.213,2.213,0,0,1-.237-.121c-.027-.016-.052-.032-.081-.046l-.029,0a1.153,1.153,0,0,1-.424-.031c-.076-.022-.153-.039-.231-.058l-.16-.039c-.083-.02-.167-.038-.252-.055l-.146-.03c-.061-.014-.125-.021-.188-.029s-.142-.019-.214-.033a.874.874,0,0,1-.325-.137,1.4,1.4,0,0,1-.252-.02.859.859,0,0,1-.233,0,.96.96,0,0,1-.095-.018,1.64,1.64,0,0,1-.314.016c-.051,0-.1,0-.153,0-.094,0-.191,0-.287-.007s-.176-.022-.264-.037c-.056-.009-.111-.019-.167-.025a.991.991,0,0,1-.473-.2l-.011-.008-.134-.017c-.057-.007-.114-.016-.171-.021a1.013,1.013,0,0,1-.445.081,1.352,1.352,0,0,1-.21-.032.9.9,0,0,1-.209.012c-.062,0-.125,0-.187,0s-.147,0-.22,0a1.889,1.889,0,0,1-.256-.029.77.77,0,0,0-.083-.012.619.619,0,0,1-.072,0,.579.579,0,0,1,.028-1.156,1.076,1.076,0,0,1,.445-.074c.083.005.167.018.253.032a1.405,1.405,0,0,0,.164.022,1.3,1.3,0,0,1,.13.016,1.05,1.05,0,0,1,.3-.027c.083.006.163,0,.242.005a.831.831,0,0,1,.182-.006l.433.029a1.386,1.386,0,0,1,.363.088.657.657,0,0,0,.079.026.949.949,0,0,1,.4.139.973.973,0,0,1,.461-.073,1.253,1.253,0,0,1,.326.091h.01c.039,0,.078,0,.117.008a1.041,1.041,0,0,1,.339-.045.846.846,0,0,1,.311-.1,1.635,1.635,0,0,0,.187-.036c.056-.013.113-.026.172-.036a2.156,2.156,0,0,1,.241-.027.909.909,0,0,0,.119-.012.635.635,0,0,0,.094-.048,1.9,1.9,0,0,1,.226-.11.834.834,0,0,1,.442-.039,1,1,0,0,1,.234-.216c.012-.01.029-.032.049-.053a1.566,1.566,0,0,1,.218-.208c.1-.074.186-.153.282-.24a2.387,2.387,0,0,1,.193-.15.808.808,0,0,0,.11-.085,1.231,1.231,0,0,1,.308-.216.61.61,0,0,0,.06-.033s.011-.035.029-.068a1.831,1.831,0,0,1,.156-.235c-.014.016-.01,0,0-.024a1.193,1.193,0,0,1,.163-.338,1.877,1.877,0,0,1,.188-.214.681.681,0,0,0,.071-.075.582.582,0,0,0,.049-.108,1.994,1.994,0,0,1,.115-.241,2.413,2.413,0,0,1,.14-.207.7.7,0,0,0,.075-.111,1.091,1.091,0,0,1,.231-.293.963.963,0,0,1,.055-.418.935.935,0,0,1,.286-.378V281.8a1.489,1.489,0,0,1,.047-.32.975.975,0,0,0,.023-.141,2.338,2.338,0,0,1,.039-.242,1.112,1.112,0,0,1,.184-.385l.006-.008,0-.031a1.428,1.428,0,0,1,0-.339,1.8,1.8,0,0,1,.073-.291l.018-.053a1.141,1.141,0,0,1-.075-.446,1.192,1.192,0,0,0-.006-.138,2.376,2.376,0,0,1-.009-.255c0-.078.01-.158.019-.239a1.281,1.281,0,0,0,.013-.158,1.514,1.514,0,0,0-.013-.157c-.009-.079-.018-.159-.021-.238a.581.581,0,0,1,.237-.489,1.064,1.064,0,0,1,.114-.3,1.037,1.037,0,0,1-.081-.4.887.887,0,0,1,.117-.407.9.9,0,0,1-.114-.4,1.213,1.213,0,0,0-.017-.151c-.012-.081-.023-.162-.028-.243a1,1,0,0,1,.1-.458l-.009-.027a1.6,1.6,0,0,1-.081-.306,1.445,1.445,0,0,1,0-.313.906.906,0,0,1-.255-.422.579.579,0,0,1,1.086-.388.958.958,0,0,1,.316.512,1.468,1.468,0,0,1,.011.374.545.545,0,0,0,0,.086.672.672,0,0,0,.026.074,1.469,1.469,0,0,1,.087.356,1.006,1.006,0,0,1-.1.494l0,.013.011.077c.01.07.02.14.026.209a1.011,1.011,0,0,1,.166.519.9.9,0,0,1-.134.452.908.908,0,0,1-.073.869l0,.006.007.051a2.019,2.019,0,0,1,.019.267l.013.039a1.089,1.089,0,0,1,.077.434.9.9,0,0,1-.22.515l-.019.477,0,.061a.8.8,0,0,1,0,.123l0,.032v.018c0,.066,0,.132,0,.2s0,.141,0,.212a.782.782,0,0,0,.016.118,2.013,2.013,0,0,1,.031.285.766.766,0,0,0,.019.081,1.519,1.519,0,0,1,.056.318,2.029,2.029,0,0,1-.012.279.764.764,0,0,0-.006.121.52.52,0,0,0,.025.076,1.606,1.606,0,0,1,.075.309.987.987,0,0,1-.06.444,1.274,1.274,0,0,1,.13.335c0-.022.008,0,.021.015a1.258,1.258,0,0,1,.157.34c.018.068.032.136.046.2s.022.114.04.171a1,1,0,0,1,.02.479v.006c.022.05.047.1.071.154l.059.129c.031.066.057.137.083.208.007.018.015.038.021.057a.927.927,0,0,1,.394.342,1.72,1.72,0,0,1,.122.264.549.549,0,0,0,.039.093.567.567,0,0,0,.073.076,2,2,0,0,1,.186.208,1.339,1.339,0,0,1,.166.31.564.564,0,0,0,.029.068,1.02,1.02,0,0,1,.158.283.9.9,0,0,1,.416.227l.107.108c.056.058.112.117.172.172a1.994,1.994,0,0,1,.19.212.7.7,0,0,0,.075.089.781.781,0,0,0,.108.07,2.084,2.084,0,0,1,.226.154.644.644,0,0,0,.1.053,1.962,1.962,0,0,1,.25.152,1.185,1.185,0,0,1,.267.294c.013.017.024.036.038.052,0-.009.042.012.083.032a2.221,2.221,0,0,1,.238.13c.112.073.225.143.341.213a1.091,1.091,0,0,1,.29.272,1,1,0,0,1,.427.106.866.866,0,0,1,.293.264.815.815,0,0,1,.45.066.746.746,0,0,1,.275.223c.04.009.083.014.125.02a2.3,2.3,0,0,1,.287.055,1.155,1.155,0,0,1,.31.141.7.7,0,0,1,.122.036.792.792,0,0,1,.187.1l.04.017a1.41,1.41,0,0,0,.134.052c.084.027.167.059.249.092l.007,0a.791.791,0,0,1,.252.08l.025,0c.074.015.149.03.22.051a1.1,1.1,0,0,1,.505.031,1.373,1.373,0,0,1,.322.173.723.723,0,0,0,.066.042.728.728,0,0,1,.112.05c.051.023.1.047.135.067a.581.581,0,0,0,.071.036,2.062,2.062,0,0,1,.242.074c.027.009.052.019.079.028a.869.869,0,0,1,.132.037.579.579,0,0,1-.306,1.115l-.087-.021-.049,0a1.352,1.352,0,0,1-.366-.067,1.159,1.159,0,0,1-.343-.2h-.017a1.194,1.194,0,0,1-.411-.032.473.473,0,0,1-.059,0,1.285,1.285,0,0,1-.382-.049.931.931,0,0,1-.389-.253.964.964,0,0,1-.435-.04.9.9,0,0,0-.82-.309.693.693,0,0,0-.092-.02,1.511,1.511,0,0,1-.335-.1.738.738,0,0,1-.227-.158.975.975,0,0,1-.42.023,1.933,1.933,0,0,1-.268-.075.74.74,0,0,0-.117-.035,1.009,1.009,0,0,1-.449-.208l-.009-.006-.118-.018c-.065-.011-.13-.022-.194-.027a1.338,1.338,0,0,0-.147.007c-.085.007-.175.012-.251.011s-.137-.005-.2-.011a1.63,1.63,0,0,0-.186-.008l-.147,0c-.082,0-.164,0-.243.01a.763.763,0,0,0-.128.033,2.1,2.1,0,0,1-.249.062c-.014.005-.039.02-.066.032a1.591,1.591,0,0,1-.29.111,1.224,1.224,0,0,0-.156.058c-.062.026-.126.051-.191.073a1.535,1.535,0,0,0-.183.081l-.15.07a1.292,1.292,0,0,1-.333.089c-.024,0-.047.007-.069.012.013,0-.01.027-.035.05a1.94,1.94,0,0,1-.187.163,1.013,1.013,0,0,1-.37.164,1.3,1.3,0,0,1-.183.286,1.271,1.271,0,0,1-.262.221.753.753,0,0,0-.062.044l-.115.189-.067.108a.753.753,0,0,0-.042.1,2.018,2.018,0,0,1-.109.254,1.619,1.619,0,0,1-.165.237.819.819,0,0,1-.123.7c0,.017,0,.032,0,.049a1.046,1.046,0,0,1-.141.439.11.11,0,0,1-.016.028c-.009.076-.023.152-.038.229-.009.048-.019.1-.024.145a.813.813,0,0,0,0,.116,1.83,1.83,0,0,1-.006.31c0-.027.009,0,.014.019a1.162,1.162,0,0,1,.028.413,1.071,1.071,0,0,1-.168.421l-.014.021c0,.03,0,.061,0,.091a2.115,2.115,0,0,1-.023.287,1.075,1.075,0,0,1-.156.386,1,1,0,0,1,.029.445c0,.025,0,.054,0,.084a1.346,1.346,0,0,1-.019.335,1.439,1.439,0,0,1-.116.334.6.6,0,0,0-.032.071c-.007.04-.012.091-.017.141a2.468,2.468,0,0,1-.038.264c-.011.056-.019.113-.026.17-.012.081-.022.16-.039.236a1.306,1.306,0,0,1-.126.336A.6.6,0,0,1,108.1,298.9Zm1.147-3.7v0Zm.206-1.676h0Zm-1.027-.893v0Zm-.01-1.6a.1.1,0,0,0,0,.017Zm-.038-.369v0Zm.9-.676a1.045,1.045,0,0,1,.248.489c0,.02.006.04.009.062.037-.029.072-.052.1-.074a.682.682,0,0,0,.059-.042c-.016.01,0-.016.01-.039a1.2,1.2,0,0,1,.247-.357,1,1,0,0,1,.478-.232l.022-.005.041-.039a1.476,1.476,0,0,1,.31-.243,1.2,1.2,0,0,1,.412-.128c.022,0,.046-.006.067-.012l.1-.047a2.744,2.744,0,0,1,.311-.134c.043-.015.084-.031.124-.048a2.275,2.275,0,0,1,.317-.11c.023-.008.049-.022.074-.034a1.356,1.356,0,0,1,.368-.128c.038-.006.076-.019.116-.03a1.775,1.775,0,0,1,.34-.074c.109-.011.223-.014.337-.016l.055,0a1.3,1.3,0,0,1-.216-.252.574.574,0,0,0-.037-.052.382.382,0,0,1-.069-.029,1.762,1.762,0,0,1-.278-.174,1.066,1.066,0,0,0-.107-.07,1.9,1.9,0,0,1-.26-.182,1.726,1.726,0,0,1-.226-.244.816.816,0,0,0-.073-.085c-.075-.07-.146-.143-.217-.217l-.032-.032a.954.954,0,0,1-.5-.266,1.168,1.168,0,0,1-.217-.373c-.008-.02-.016-.042-.026-.062a1.153,1.153,0,0,1-.174-.318.566.566,0,0,0-.029-.068c-.014-.017-.042-.043-.069-.07a1.707,1.707,0,0,1-.218-.253,1.576,1.576,0,0,1-.157-.321l0-.012a.9.9,0,0,1-.415-.376,2.421,2.421,0,0,1-.123-.294c-.017-.043-.032-.087-.051-.129l-.053-.114c-.047-.1-.093-.2-.131-.3a1,1,0,0,1-.035-.526l0-.019c-.021-.075-.037-.152-.052-.23-.009-.045-.017-.09-.029-.134,0,.011-.013-.011-.024-.029a1.241,1.241,0,0,1-.161-.35,1.2,1.2,0,0,1-.223.259l-.044.042a1.322,1.322,0,0,1-.144.225,1.143,1.143,0,0,0-.072.1.812.812,0,0,0-.048.1,1.771,1.771,0,0,1-.148.295,1.508,1.508,0,0,1-.219.259.628.628,0,0,0-.072.077c.008-.008,0,.014-.006.034a1.152,1.152,0,0,1-.19.374.816.816,0,0,0-.057.093,1.7,1.7,0,0,1-.194.281,1.19,1.19,0,0,1-.351.259c-.019.011-.039.02-.056.032a1.709,1.709,0,0,1-.237.192,1.019,1.019,0,0,0-.092.07c-.119.107-.231.2-.351.3a.484.484,0,0,0-.064.067,1.387,1.387,0,0,1-.279.25c.026-.017.015,0,0,.017a1.243,1.243,0,0,1-.221.241c.051.026.1.053.152.082a.8.8,0,0,0,.107.057c.043.018.089.034.133.05a2.377,2.377,0,0,1,.307.122,2.542,2.542,0,0,1,.3.18c.037.025.073.05.11.073a.582.582,0,0,0,.095.04,1.429,1.429,0,0,1,.35.185.848.848,0,0,1,.3.544,1.1,1.1,0,0,1,.319.27,1.791,1.791,0,0,1,.19.322l.013.028a.929.929,0,0,1,.413.429.9.9,0,0,1,.015.592l.012.034C109.225,289.819,109.253,289.9,109.276,289.984Zm.017.07h0Zm5.423-.1h0Zm-5.925-1.2h0Zm.551-13.82h0Zm.794-.772h0Z" transform="translate(-7.806 -18.122)"/><path class="c" d="M128.15,274.942c-4.006.465-4.878,4.093-5.313,6.788-.435-2.7-1.19-4.492-1.771-4.988a5.1,5.1,0,0,0-4.7-1.683c4.936-1.213,6.213-3.6,6.794-7.623C123.157,272.155,124.492,273.846,128.15,274.942Z" transform="translate(-9.295 -17.544)"/><g transform="translate(98.57 143.686)"><g class="g"><g transform="translate(5.888 21.121)"><path class="h" d="M167.937,369.445s11.233-32.478,13.129-33.615c12.291-7.375,26.13-25.237,26.13-25.237l12.29-14.156s-62.444-25.854-62.444-35.66,1.836-9.189,1.836-14.46c0-6.985-4.953-11.385-8.24-11.987-1.619-.3-1.245,4.116-2.445,7.6s-3.727,10.961-4.269,15.651c-.782,6.777-3.13,13.09-3.7,18.5a136.88,136.88,0,0,0,.569,28.457c.98,7.837-2.155,16.283-2.769,18.127-1.879,5.638-22.465,46.158-22.465,46.158" transform="translate(-114.045 -179.252)"/><path class="d" d="M172.454,376.344a1.516,1.516,0,0,1-1.432-2.011c.028-.081,2.848-8.229,5.864-16.41,1.775-4.814,3.27-8.7,4.445-11.555,2.215-5.378,2.86-6.087,3.473-6.455,4.9-2.94,10.89-8.159,17.324-15.094,4.9-5.279,8.354-9.727,8.388-9.771q.026-.033.054-.065l12.29-14.156a1.515,1.515,0,1,1,2.289,1.987l-12.264,14.125c-.338.433-3.763,4.795-8.516,9.92-2.932,3.162-5.794,6-8.506,8.427a64.655,64.655,0,0,1-9.353,7.137,36.43,36.43,0,0,0-2.685,5.853c-1.164,2.869-2.621,6.681-4.329,11.33-2.914,7.93-5.583,15.639-5.609,15.716A1.516,1.516,0,0,1,172.454,376.344Z" transform="translate(-118.563 -184.635)"/><path class="h" d="M219.027,233.759s14.863-7.494,19.87-7.167c4.376.288,5.922,3.512,2.673,8.386-3.572,5.357-18.019,12.406-18.019,12.406Z" transform="translate(-122.485 -178.621)"/><path class="d" d="M238.428,224.932c.149,0,.3,0,.434.014,2.56.168,4.448,1.23,5.317,2.99a5.556,5.556,0,0,1,.36,3.664,11.9,11.9,0,0,1-1.843,4.085c-1.607,2.41-5.251,5.328-10.831,8.671-4.067,2.437-7.634,4.183-7.784,4.256a1.515,1.515,0,0,1-2.1-.884L217.454,234.1a1.515,1.515,0,0,1,.756-1.831c.036-.018,3.651-1.837,7.869-3.63C231.869,226.18,236.024,224.932,238.428,224.932ZM224.3,245.1c1.419-.737,3.655-1.936,6.026-3.358,6.453-3.869,8.917-6.345,9.848-7.741,1.322-1.983,1.791-3.705,1.287-4.726s-1.967-1.253-2.8-1.307c-.073,0-.152-.007-.236-.007-3.7,0-13.12,4.214-17.682,6.435Z" transform="translate(-122.351 -178.487)"/><rect class="i" width="64.027" height="122.774" rx="12.179" transform="translate(44.654 1.515)"/><path class="d" d="M11.051-1.65H52.707a12.7,12.7,0,0,1,12.7,12.7v100.4a12.7,12.7,0,0,1-12.7,12.7H11.051a12.7,12.7,0,0,1-12.7-12.7V11.051a12.7,12.7,0,0,1,12.7-12.7ZM52.707,121.124a9.681,9.681,0,0,0,9.67-9.67V11.051a9.681,9.681,0,0,0-9.67-9.67H11.051a9.681,9.681,0,0,0-9.67,9.67v100.4a9.681,9.681,0,0,0,9.67,9.67Z" transform="translate(44.789 1.65)"/><g transform="translate(47.637 4.456)"><path class="h" d="M222.459,286.9a5.3,5.3,0,0,1-5.343,5.22H172.772a5.3,5.3,0,0,1-5.342-5.22V186.084a5.3,5.3,0,0,1,5.342-5.221h9.937l1.875,3.674h20.981l1.478-3.674h10.074a5.3,5.3,0,0,1,5.343,5.221Z" transform="translate(-165.914 -179.348)"/><path class="d" d="M216.982,293.694H172.637a6.866,6.866,0,0,1-6.858-6.859V186.072a6.866,6.866,0,0,1,6.858-6.859h9.937A1.515,1.515,0,0,1,184,180.2l1.149,3.114h19.192l1.149-3.114a1.515,1.515,0,0,1,1.422-.991h10.074a6.866,6.866,0,0,1,6.858,6.859V286.835A6.866,6.866,0,0,1,216.982,293.694Zm-44.345-111.45a3.843,3.843,0,0,0-3.827,3.828V286.835a3.843,3.843,0,0,0,3.827,3.828h44.345a3.843,3.843,0,0,0,3.827-3.828V186.072a3.843,3.843,0,0,0-3.827-3.828h-9.018l-1.149,3.114a1.515,1.515,0,0,1-1.422.991h-21.3a1.515,1.515,0,0,1-1.422-.991l-1.149-3.114Z" transform="translate(-165.779 -179.213)"/></g><path class="h" d="M162.819,308.78c.819-12.29-4.9-25.616-5.519-32.991-.317-3.8-.257-5.206-.257-15.012s1.836-9.189,1.836-14.46c0-6.985-4.953-11.385-8.24-11.987-1.619-.3-1.245,4.116-2.445,7.6s-3.727,10.961-4.269,15.651c-.782,6.777-3.13,13.09-3.7,18.5a136.88,136.88,0,0,0,.569,28.457c.98,7.837-2.155,16.283-2.769,18.127-1.879,5.638-22.465,46.158-22.465,46.158" transform="translate(-114.045 -179.252)"/><path class="d" d="M115.425,370.2a1.516,1.516,0,0,1-1.35-2.2c.205-.4,20.556-40.483,22.378-45.951.04-.119.089-.265.148-.435a55.859,55.859,0,0,0,1.925-6.845,31.434,31.434,0,0,0,.63-10.18,141.9,141.9,0,0,1-1.06-18.375c.027-4.531.269-8.358.487-10.428a67.018,67.018,0,0,1,1.72-8.585,81.025,81.025,0,0,0,1.981-9.927c.587-5.082,3.413-13.278,4.342-15.971a22.836,22.836,0,0,0,.828-3.87c.32-2.081.551-3.585,1.635-4.357a2.2,2.2,0,0,1,1.688-.365,11.225,11.225,0,0,1,6.26,4.141,14.683,14.683,0,0,1,3.222,9.337,16.671,16.671,0,0,1-.763,5.171c-.5,1.8-1.072,3.839-1.072,9.289,0,1.506,0,2.813,0,3.962-.007,6.28-.008,7.772.255,10.924a66.417,66.417,0,0,0,2.085,9.782c1.771,6.842,3.974,15.357,3.436,23.436a1.515,1.515,0,0,1-3.024-.2,47.732,47.732,0,0,0-.813-11.476c-.681-3.843-1.664-7.645-2.533-11a67.979,67.979,0,0,1-2.171-10.29c-.273-3.279-.272-4.8-.265-11.179,0-1.148,0-2.454,0-3.959,0-5.866.657-8.216,1.184-10.1a13.773,13.773,0,0,0,.652-4.355,11.681,11.681,0,0,0-2.552-7.437,8.992,8.992,0,0,0-3.853-2.9c-.143.541-.276,1.41-.373,2.041a25.143,25.143,0,0,1-.958,4.4c-.9,2.616-3.647,10.578-4.2,15.331a83.35,83.35,0,0,1-2.048,10.3,64.957,64.957,0,0,0-1.65,8.184c-.073.69-.436,4.423-.471,10.129a138.86,138.86,0,0,0,1.037,17.981c.962,7.692-1.791,15.738-2.695,18.382-.055.162-.1.3-.14.412-1.893,5.68-21.709,44.707-22.551,46.366A1.515,1.515,0,0,1,115.425,370.2Z" transform="translate(-113.911 -179.118)"/><path class="h" d="M237.02,283.07s-3.542-.443-3.978.093c-.508.626.9,2.6.585,3.873-.98,3.923-5.38,5.4-3.693,9.321,2.293,5.332,9.108,1.09,10.629-1.108C242,293.173,240.953,288.389,237.02,283.07Z" transform="translate(-123.344 -183.215)"/><path class="d" d="M234.367,281.248h0a25.541,25.541,0,0,1,2.705.184,1.515,1.515,0,0,1,1.031.6c4.148,5.611,5.55,11.084,3.571,13.943-1.227,1.773-4.841,4.339-8.164,4.339a5.352,5.352,0,0,1-5.1-3.5,5.272,5.272,0,0,1-.156-4.139,11.067,11.067,0,0,1,1.844-2.875,8.787,8.787,0,0,0,1.927-3.273,4.718,4.718,0,0,0-.335-1.348c-.328-.958-.736-2.151.044-3.112A3.157,3.157,0,0,1,234.367,281.248Zm1.686,3.123c-.41-.038-.959-.08-1.473-.09a5.338,5.338,0,0,1,.382,2.988,11.438,11.438,0,0,1-2.5,4.429c-1.334,1.67-1.9,2.47-1.272,3.925a2.338,2.338,0,0,0,2.319,1.662,7,7,0,0,0,3.353-1.1,8.011,8.011,0,0,0,2.318-1.932c.452-.653.461-2,.025-3.615A20.23,20.23,0,0,0,236.053,284.371Z" transform="translate(-123.209 -183.08)"/><path class="h" d="M235.017,269.671a60.531,60.531,0,0,1-4.355,5c-2.119,2.161-4.518,4.893-4.131,7.057.8,4.47,5.186,4.851,9.421,2.934,4.3-1.949,8.143-6.067,6.866-10.378C241.136,268.607,238.679,269.389,235.017,269.671Z" transform="translate(-123.094 -182.12)"/><path class="d" d="M237.736,267.819a5.649,5.649,0,0,1,3.811,1.247,9.336,9.336,0,0,1,2.589,4.648,7.521,7.521,0,0,1,.091,3.953,9.659,9.659,0,0,1-1.665,3.452,15.709,15.709,0,0,1-6.12,4.784,12.727,12.727,0,0,1-5.143,1.228,6.685,6.685,0,0,1-4.1-1.259,6.214,6.214,0,0,1-2.3-4.018c-.5-2.79,1.888-5.679,4.541-8.384a59.543,59.543,0,0,0,4.233-4.854,1.516,1.516,0,0,1,1.088-.591c.309-.024.615-.052.91-.079C236.393,267.881,237.07,267.819,237.736,267.819ZM231.3,284.1a9.709,9.709,0,0,0,3.893-.958,12.822,12.822,0,0,0,4.932-3.823,5.267,5.267,0,0,0,1.106-4.744c-1.1-3.726-2.319-3.726-3.493-3.726-.528,0-1.138.056-1.784.115l-.285.026c-.706.886-2.232,2.741-4.059,4.6a24.677,24.677,0,0,0-2.826,3.307,3.884,3.884,0,0,0-.895,2.422A3.069,3.069,0,0,0,231.3,284.1Z" transform="translate(-122.959 -181.985)"/><path class="h" d="M233.6,250.964s.655,4.1-.623,5.061c-2.343,1.758-7.383,5.1-7.677,7.446-.571,4.562,4.106,5.8,8.476,4.21,5.268-1.916,7.707-3.51,7.983-9.42S235.84,251.342,233.6,250.964Z" transform="translate(-122.993 -180.61)"/><path class="d" d="M233.465,249.314a1.518,1.518,0,0,1,.253.021l.043.007a16.228,16.228,0,0,1,5.527,1.772,7.386,7.386,0,0,1,3.851,7.081c-.153,3.275-.934,5.49-2.532,7.179-1.5,1.588-3.58,2.553-6.447,3.595a12.081,12.081,0,0,1-4.071.751A6.76,6.76,0,0,1,224.9,267.7a5.557,5.557,0,0,1-1.236-4.55c.311-2.48,3.454-4.953,7.221-7.7.362-.264.706-.514,1-.734a4.27,4.27,0,0,0,.232-1.94,14.7,14.7,0,0,0-.146-1.707,1.515,1.515,0,0,1,1.5-1.754Zm-3.376,17.376a9.021,9.021,0,0,0,3.035-.568c2.45-.891,4.189-1.675,5.281-2.83,1.064-1.124,1.59-2.739,1.706-5.237a4.356,4.356,0,0,0-2.353-4.324,10.268,10.268,0,0,0-2.613-1.018q0,.139,0,.281c.007,2.054-.45,3.4-1.4,4.107-.322.241-.692.511-1.085.8a50.568,50.568,0,0,0-4.037,3.161c-1.774,1.607-1.945,2.334-1.961,2.463a2.656,2.656,0,0,0,.5,2.168A3.84,3.84,0,0,0,230.089,266.69Z" transform="translate(-122.859 -180.475)"/><path class="d" d="M4.148,1.381H-.135A1.515,1.515,0,0,1-1.65-.135,1.515,1.515,0,0,1-.135-1.65H4.148A1.515,1.515,0,0,1,5.663-.135,1.515,1.515,0,0,1,4.148,1.381Z" transform="translate(74.661 6.01)"/><path class="d" d="M204.637,180.667a1.028,1.028,0,1,1-1.028-1.028A1.028,1.028,0,0,1,204.637,180.667Z" transform="translate(-121.144 -174.792)"/></g></g></g><g transform="translate(164.148 210.033)"><g class="j"><rect class="a" width="34.156" height="34.156"/><path class="k" d="M196.056,247.482a4.269,4.269,0,1,0-4.269-4.269A4.269,4.269,0,0,0,196.056,247.482Zm0-12.808a8.539,8.539,0,1,1-8.539,8.54A8.54,8.54,0,0,1,196.056,234.674Zm12.808,23.482H183.248a4.377,4.377,0,0,1-4.269-4.27V234.674a4.281,4.281,0,0,1,4.269-4.269h3.416l3.2-3.2a3.536,3.536,0,0,1,2.561-1.067H199.9a3.43,3.43,0,0,1,2.348,1.067l3.2,3.2h3.415a4.281,4.281,0,0,1,4.27,4.269v19.213A4.282,4.282,0,0,1,208.865,258.156Z" transform="translate(-178.979 -224)"/></g></g><path class="d" d="M11.48,0H240.854a11.48,11.48,0,0,1,0,22.961H11.48A11.48,11.48,0,0,1,11.48,0Z" transform="translate(53.186 306.375)"/><g class="e" transform="translate(65.186 308.219)"><path class="b" d="M-169.989-20.4q0,.3-.28.3-.21,0-.429-.009t-.429-.009a.249.249,0,0,0-.245.149.712.712,0,0,0-.07.307q0,.613-.009,1.235t-.009,1.235q0,1.928.009,3.864t.009,3.864q0,.123-.018.386a1.429,1.429,0,0,0,.044.482.254.254,0,0,0,.254.219q.228,0,.456-.018t.456-.018a.184.184,0,0,1,.175.1.45.45,0,0,1,.053.219.336.336,0,0,1-.079.219.267.267,0,0,1-.219.1q-.6,0-1.183-.018t-1.183-.018q-.6,0-1.192.018t-1.192.018a.278.278,0,0,1-.228-.07.385.385,0,0,1-.053-.228.432.432,0,0,1,.061-.237.221.221,0,0,1,.2-.1q.193,0,.386.018t.368.018A.347.347,0,0,0-174-8.535a.919.919,0,0,0,.105-.377q.018-.219.018-.377l.018-10.058a4.444,4.444,0,0,0-.035-.464q-.035-.307-.245-.324h-.193a3.263,3.263,0,0,0-.342.018,3.262,3.262,0,0,1-.342.018.294.294,0,0,1-.333-.333.3.3,0,0,1,.079-.21.259.259,0,0,1,.2-.088q.753,0,1.5.035t1.5.035q.456,0,.92-.035t.92-.035a.2.2,0,0,1,.193.105A.5.5,0,0,1-169.989-20.4Zm12.3,12.249a.248.248,0,0,1-.28.28q-.508,0-1.025-.026t-1.025-.026q-.491,0-1,.026t-1.016.026a.184.184,0,0,1-.175-.1.415.415,0,0,1-.053-.2q0-.263.28-.263.158,0,.315.009t.315.009q.263,0,.263-.228,0-1.472.009-2.944t.009-2.944a6.4,6.4,0,0,0-.079-.981,1.834,1.834,0,0,0-.35-.859,1.051,1.051,0,0,0-.885-.35,1.422,1.422,0,0,0-.8.28,3.619,3.619,0,0,0-.736.666,2.9,2.9,0,0,0-.464.718v6.2a.994.994,0,0,0,.044.3q.044.14.237.14.14,0,.289-.009t.289-.009a.281.281,0,0,1,.175.07.2.2,0,0,1,.088.158q0,.333-.28.333-.491,0-.973-.044t-.99-.044q-.526,0-1.06.044t-1.078.044a.184.184,0,0,1-.175-.1.415.415,0,0,1-.053-.2q0-.263.28-.263.158,0,.315.009t.333.009q.245,0,.28-.105a1.145,1.145,0,0,0,.035-.333v-6.817a2,2,0,0,0-.053-.429.286.286,0,0,0-.315-.237,3.262,3.262,0,0,0-.342.018,3.263,3.263,0,0,1-.342.018.757.757,0,0,1-.237-.044.177.177,0,0,1-.131-.184.185.185,0,0,1,.07-.158.385.385,0,0,1,.158-.07,1.865,1.865,0,0,1,.368-.07,3.487,3.487,0,0,0,.368-.053q.456-.088.9-.2t.885-.237a1.46,1.46,0,0,1,.14-.061.4.4,0,0,1,.14-.026q.14,0,.254.263a3.948,3.948,0,0,1,.193.561,4.311,4.311,0,0,1,.1.421,5.53,5.53,0,0,1,1.227-.815,3.155,3.155,0,0,1,1.419-.359,4.542,4.542,0,0,1,1.831.3,1.775,1.775,0,0,1,.937.99,5.022,5.022,0,0,1,.28,1.849q0,1.367-.017,2.734t-.018,2.734a.287.287,0,0,0,.114.254.5.5,0,0,0,.289.079,1.554,1.554,0,0,0,.237-.018,1.554,1.554,0,0,1,.237-.018Q-157.688-8.429-157.688-8.149Zm8.236-2.331a2.344,2.344,0,0,1-.35,1.341,2.326,2.326,0,0,1-.929.8,4.411,4.411,0,0,1-1.253.386,8.693,8.693,0,0,1-1.34.105,4.2,4.2,0,0,1-.859-.088q-.421-.088-.841-.193-.175-.035-.368-.079a1.735,1.735,0,0,0-.386-.044q-.07-.245-.2-.727t-.245-.946a3.23,3.23,0,0,1-.114-.657q0-.193.123-.245a.66.66,0,0,1,.263-.053.354.354,0,0,1,.315.158,3.551,3.551,0,0,1,.421.771,2.323,2.323,0,0,0,.491.753,3.147,3.147,0,0,0,.71.534,1.691,1.691,0,0,0,.832.272A1.678,1.678,0,0,0-152-8.762a1.54,1.54,0,0,0,.394-1.174,1.308,1.308,0,0,0-.333-.911,3.469,3.469,0,0,0-.85-.666q-.517-.3-1.1-.587a9.6,9.6,0,0,1-1.1-.64,3.1,3.1,0,0,1-.85-.85,2.146,2.146,0,0,1-.333-1.218,2.128,2.128,0,0,1,.491-1.454,2.872,2.872,0,0,1,1.253-.824,4.676,4.676,0,0,1,1.533-.263,4.376,4.376,0,0,1,.683.053,2.865,2.865,0,0,1,.666.193q.158.053.429.131a1.644,1.644,0,0,0,.429.079,1.8,1.8,0,0,0,.438-.053q.035.491.114.981a7.977,7.977,0,0,1,.1.981v.053a.34.34,0,0,1-.1.289.371.371,0,0,1-.272.114.377.377,0,0,1-.254-.07.7.7,0,0,1-.149-.21q-.228-.508-.447-.973a2.181,2.181,0,0,0-.578-.762,1.565,1.565,0,0,0-1.025-.3,1.126,1.126,0,0,0-1.034.543,2.176,2.176,0,0,0-.333,1.157,1.12,1.12,0,0,0,.368.841,3.6,3.6,0,0,0,.753.561q.473.245,1.1.543a9.764,9.764,0,0,1,1.2.683,4.019,4.019,0,0,1,.964.885A1.827,1.827,0,0,1-149.452-10.48Zm7.36,1.735a.527.527,0,0,1-.254.429,2.11,2.11,0,0,1-.631.3,4.934,4.934,0,0,1-.762.166,4.938,4.938,0,0,1-.648.053,2.47,2.47,0,0,1-1.822-.534,2.538,2.538,0,0,1-.508-1.779q0-1.507.018-3.014t.018-3.014h-.806a.422.422,0,0,0-.3.114.351.351,0,0,1-.228.114.155.155,0,0,1-.175-.175.964.964,0,0,1,.07-.263,1.444,1.444,0,0,1,.105-.245q.053-.105.105-.123a.532.532,0,0,1,.158-.018h1.086V-18.61a5.521,5.521,0,0,0,.964-.718,5.3,5.3,0,0,0,.806-.876,1.181,1.181,0,0,1,.14-.184.274.274,0,0,1,.21-.1q.28,0,.263.245l-.053,3.5h1.8a.527.527,0,0,1,.254.061.227.227,0,0,1,.114.219q0,.333-.368.333h-1.8l-.035,6.764a1.292,1.292,0,0,0,.114.534.441.441,0,0,0,.447.254,3.573,3.573,0,0,0,.6-.053,2.231,2.231,0,0,0,.57-.175,1.457,1.457,0,0,0,.166-.079.338.338,0,0,1,.166-.044Q-142.093-8.92-142.093-8.745Zm6.308-1.016q-.053-.824-.07-1.656t0-1.673a5.239,5.239,0,0,0-1.393.447,3.167,3.167,0,0,0-1.113.867,2.135,2.135,0,0,0-.438,1.384,3.25,3.25,0,0,0,.1.753,1.465,1.465,0,0,0,.35.675.9.9,0,0,0,.692.272,1.436,1.436,0,0,0,.666-.184,4.861,4.861,0,0,0,.675-.429A5.2,5.2,0,0,0-135.784-9.761Zm3.61,1.034a.285.285,0,0,1-.061.158,1.058,1.058,0,0,1-.114.14,1.765,1.765,0,0,1-1.4.631,2,2,0,0,1-1.209-.333,2.087,2.087,0,0,1-.7-1.034,4.863,4.863,0,0,1-1.2.946,3.07,3.07,0,0,1-1.5.35A3.068,3.068,0,0,1-139.6-8.14a2.7,2.7,0,0,1-1.034-.78,1.811,1.811,0,0,1-.412-1.174,2.1,2.1,0,0,1,.342-1.183,3.405,3.405,0,0,1,.867-.894,6.26,6.26,0,0,1,1.069-.622,8.411,8.411,0,0,1,1.437-.464q.736-.166,1.472-.342v-.07q0-.315-.009-.85a6.042,6.042,0,0,0-.114-1.069,2.56,2.56,0,0,0-.35-.911.8.8,0,0,0-.718-.377,1.6,1.6,0,0,0-.973.315,1.671,1.671,0,0,0-.6.841,3.068,3.068,0,0,0-.053.307,3.082,3.082,0,0,1-.053.307.434.434,0,0,1-.324.377,1.7,1.7,0,0,1-.534.1,1.348,1.348,0,0,1-.578-.131.5.5,0,0,1-.28-.5.7.7,0,0,1,.044-.254q.044-.114.1-.237a1.947,1.947,0,0,1,.841-.981,3.64,3.64,0,0,1,1.235-.421,8.372,8.372,0,0,1,1.288-.105,3.579,3.579,0,0,1,2.366.771,2.791,2.791,0,0,1,.929,2.278v2.646q-.018.491-.009,1.008t.044,1.025a2.322,2.322,0,0,0,.14.57.45.45,0,0,0,.473.272.757.757,0,0,0,.412-.105.585.585,0,0,1,.307-.105.083.083,0,0,1,.088.07A.48.48,0,0,1-132.174-8.727Zm7.167,1.542a1.378,1.378,0,0,0-.289-.981,1.38,1.38,0,0,0-.762-.386q-.473-.088-1-.14l-1.314-.14a2.24,2.24,0,0,0-.473.806,3.128,3.128,0,0,0-.123.911,1.593,1.593,0,0,0,.587,1.437,2.749,2.749,0,0,0,1.533.386,1.788,1.788,0,0,0,1.376-.5A1.968,1.968,0,0,0-125.008-7.185Zm-.753-7.29q0-.315-.018-.736a3.9,3.9,0,0,0-.123-.824,1.517,1.517,0,0,0-.35-.666.889.889,0,0,0-.683-.263,1.066,1.066,0,0,0-.815.307,1.753,1.753,0,0,0-.412.771,4.717,4.717,0,0,0-.149.955q-.026.491-.026.859,0,.386.035.824a3.378,3.378,0,0,0,.166.824,1.434,1.434,0,0,0,.412.631,1.159,1.159,0,0,0,.789.245.876.876,0,0,0,.675-.254,1.5,1.5,0,0,0,.342-.648,4.132,4.132,0,0,0,.131-.8q.026-.4.026-.718Zm3.47-2.4q0,.21-.272.315a2.117,2.117,0,0,1-.6.131q-.324.026-.482.026-.193,0-.394-.009t-.394-.026a2.088,2.088,0,0,1,.482.648,4.23,4.23,0,0,1,.315.85,3.323,3.323,0,0,1,.114.815,2.554,2.554,0,0,1-.5,1.577,3.207,3.207,0,0,1-1.288,1.016,3.972,3.972,0,0,1-1.63.35h-.368q-.193,0-.385-.018a2.611,2.611,0,0,0-.429.464,1.093,1.093,0,0,0-.166.64.433.433,0,0,0,.14.289.619.619,0,0,0,.263.184,2.448,2.448,0,0,0,.561.114q.3.026.561.061.683.035,1.437.07a4.46,4.46,0,0,1,1.411.289,2.01,2.01,0,0,1,1.043.955.956.956,0,0,1,.131.35,2.609,2.609,0,0,1,.026.386,1.854,1.854,0,0,1-.429,1.253,3.09,3.09,0,0,1-1.086.8,5.865,5.865,0,0,1-1.384.429,7.5,7.5,0,0,1-1.323.131q-.438,0-1.121-.061a7.313,7.313,0,0,1-1.358-.254,3.155,3.155,0,0,1-1.13-.561,1.216,1.216,0,0,1-.456-1,1.785,1.785,0,0,1,.228-.894,3.455,3.455,0,0,1,.57-.745q.342-.342.675-.622a2.828,2.828,0,0,1-.543-.219q-.333-.166-.333-.429a.949.949,0,0,1,.175-.473,4.439,4.439,0,0,1,.438-.578q.263-.3.517-.552l.394-.394a3.441,3.441,0,0,1-1.262-1.13,2.88,2.88,0,0,1-.456-1.621,2.485,2.485,0,0,1,.534-1.621,3.382,3.382,0,0,1,1.367-1,4.417,4.417,0,0,1,1.691-.342,3.845,3.845,0,0,1,.508.035q.263.035.508.088.28.07.561.149a2.126,2.126,0,0,0,.578.079,4.954,4.954,0,0,0,1.349-.193,1.075,1.075,0,0,0,.613-.386q.21-.28.368-.28t.2.184a1.48,1.48,0,0,1,.035.4Q-122.291-16.981-122.291-16.876Zm8.5,1.63a.585.585,0,0,1-.1.324.321.321,0,0,1-.289.149.4.4,0,0,1-.4-.245q-.105-.228-.219-.534a1.89,1.89,0,0,0-.3-.534.627.627,0,0,0-.517-.228.811.811,0,0,0-.333.07,1.533,1.533,0,0,0-.3.175,2.727,2.727,0,0,0-.9,1.1,4.947,4.947,0,0,0-.447,1.393V-8.85q0,.3.166.386a.687.687,0,0,0,.4.061,3.919,3.919,0,0,1,.429-.026q.245,0,.245.263a.248.248,0,0,1-.28.28q-.526,0-1.051-.018t-1.051-.018q-.543,0-1.086.026t-1.1.026a.184.184,0,0,1-.175-.1.385.385,0,0,1-.053-.184q0-.263.28-.263.175,0,.342.009t.342.009a.283.283,0,0,0,.28-.14.7.7,0,0,0,.07-.315v-6.343a3.512,3.512,0,0,0-.035-.456,1.363,1.363,0,0,0-.149-.473.4.4,0,0,0-.377-.21,1.337,1.337,0,0,0-.342.044,1.407,1.407,0,0,1-.359.044.232.232,0,0,1-.263-.263.261.261,0,0,1,.193-.263,2.137,2.137,0,0,1,.508-.114,4.616,4.616,0,0,0,.508-.079q.228-.053.6-.149t.727-.175a2.787,2.787,0,0,1,.552-.079.424.424,0,0,1,.386.193,1.44,1.44,0,0,1,.105.412q.053.324.088.657t.035.473a8.7,8.7,0,0,1,1.209-1.244,2.42,2.42,0,0,1,1.612-.561,1.546,1.546,0,0,1,.517.1.508.508,0,0,1,.342.377,5.7,5.7,0,0,1,.14.85Q-113.793-15.6-113.793-15.246Zm6.308,5.485q-.053-.824-.07-1.656t0-1.673a5.239,5.239,0,0,0-1.393.447,3.167,3.167,0,0,0-1.113.867,2.135,2.135,0,0,0-.438,1.384,3.25,3.25,0,0,0,.1.753,1.465,1.465,0,0,0,.35.675.9.9,0,0,0,.692.272,1.436,1.436,0,0,0,.666-.184,4.863,4.863,0,0,0,.675-.429A5.2,5.2,0,0,0-107.484-9.761Zm3.61,1.034a.285.285,0,0,1-.061.158,1.061,1.061,0,0,1-.114.14,1.765,1.765,0,0,1-1.4.631,2,2,0,0,1-1.209-.333,2.087,2.087,0,0,1-.7-1.034,4.863,4.863,0,0,1-1.2.946,3.07,3.07,0,0,1-1.5.35A3.068,3.068,0,0,1-111.3-8.14a2.7,2.7,0,0,1-1.034-.78,1.811,1.811,0,0,1-.412-1.174,2.1,2.1,0,0,1,.342-1.183,3.4,3.4,0,0,1,.867-.894,6.261,6.261,0,0,1,1.069-.622,8.41,8.41,0,0,1,1.437-.464q.736-.166,1.472-.342v-.07q0-.315-.009-.85a6.04,6.04,0,0,0-.114-1.069,2.56,2.56,0,0,0-.35-.911.8.8,0,0,0-.718-.377,1.6,1.6,0,0,0-.973.315,1.671,1.671,0,0,0-.6.841,3.069,3.069,0,0,0-.053.307,3.064,3.064,0,0,1-.053.307.434.434,0,0,1-.324.377,1.7,1.7,0,0,1-.534.1,1.348,1.348,0,0,1-.578-.131.5.5,0,0,1-.28-.5.7.7,0,0,1,.044-.254q.044-.114.1-.237a1.947,1.947,0,0,1,.841-.981,3.64,3.64,0,0,1,1.235-.421,8.372,8.372,0,0,1,1.288-.105,3.579,3.579,0,0,1,2.366.771,2.791,2.791,0,0,1,.929,2.278v2.646q-.018.491-.009,1.008t.044,1.025a2.322,2.322,0,0,0,.14.57.45.45,0,0,0,.473.272.757.757,0,0,0,.412-.105.585.585,0,0,1,.307-.105.083.083,0,0,1,.088.07A.479.479,0,0,1-103.875-8.727Zm16.367.613q0,.28-.3.28-.508,0-1.016-.044t-1.016-.044q-.508,0-1.025.044t-1.043.044a.189.189,0,0,1-.166-.1.345.345,0,0,1-.061-.184q0-.263.315-.263.14,0,.289.009t.289.009q.21,0,.245-.131A1.2,1.2,0,0,0-90.96-8.8V-14q0-.473-.026-1.043a2.808,2.808,0,0,0-.219-1.008,1.1,1.1,0,0,0-.394-.534,1.192,1.192,0,0,0-.64-.149,1.587,1.587,0,0,0-.981.386,5.474,5.474,0,0,0-.789.736,4.126,4.126,0,0,1,.079.71q.009.359.009.71v5.4a.61.61,0,0,0,.079.333.338.338,0,0,0,.307.123,1.555,1.555,0,0,0,.237-.018,1.554,1.554,0,0,1,.237-.018.232.232,0,0,1,.263.263q0,.28-.3.28-.491,0-.99-.044T-95.1-7.921q-.508,0-1.016.044t-1.016.044a.184.184,0,0,1-.175-.1.385.385,0,0,1-.053-.184.215.215,0,0,1,.158-.237,1.013,1.013,0,0,1,.359-.026q.2.018.307.018.245,0,.3-.114a.8.8,0,0,0,.053-.324q0-1.3-.009-2.6T-96.2-14q0-.473-.026-1.043a2.808,2.808,0,0,0-.219-1.008,1,1,0,0,0-.421-.526,1.505,1.505,0,0,0-.666-.123,1.091,1.091,0,0,0-.561.219,4.644,4.644,0,0,0-.631.5q-.3.28-.456.456V-8.8a.61.61,0,0,0,.079.333.338.338,0,0,0,.307.123,1.733,1.733,0,0,0,.245-.018,1.733,1.733,0,0,1,.245-.018q.245,0,.245.263a.248.248,0,0,1-.28.28q-.508,0-1.008-.035t-1.008-.035q-.526,0-1.043.035t-1.043.035a.2.2,0,0,1-.184-.1.345.345,0,0,1-.061-.184q0-.263.3-.263.14,0,.289.009t.307.009A.266.266,0,0,0-101.5-8.6a2.448,2.448,0,0,0,.044-.421v-6.659a1.881,1.881,0,0,0-.053-.421.3.3,0,0,0-.333-.228,3.047,3.047,0,0,0-.394.026,3.048,3.048,0,0,1-.394.026.37.37,0,0,1-.2-.061.2.2,0,0,1-.1-.184.2.2,0,0,1,.079-.175.485.485,0,0,1,.149-.07,2.116,2.116,0,0,1,.473-.088q.245-.018.473-.053.21-.053.6-.158t.78-.2a2.667,2.667,0,0,1,.526-.1.3.3,0,0,1,.3.193,1.324,1.324,0,0,1,.175.447q.053.254.123.482a5.2,5.2,0,0,1,1.262-.8,3.65,3.65,0,0,1,1.454-.272,3.406,3.406,0,0,1,1.305.263,1.916,1.916,0,0,1,.973.859,5.457,5.457,0,0,1,1.279-.859,3.4,3.4,0,0,1,1.472-.315,3.813,3.813,0,0,1,1.8.333,1.652,1.652,0,0,1,.8,1.025,6.671,6.671,0,0,1,.2,1.814v5.4a.393.393,0,0,0,.149.368.615.615,0,0,0,.368.07q.219-.018.412-.018A.232.232,0,0,1-87.508-8.114Zm8.131-11.04a24.361,24.361,0,0,1-.57,3.128,15.865,15.865,0,0,1-1.06,2.988,6.693,6.693,0,0,1-.4.753q-.228.368-.473.718A7.3,7.3,0,0,1-82.75-10.5a8.016,8.016,0,0,1-1.043.894,6.124,6.124,0,0,1-.534.35q-.377.228-.762.412a1.53,1.53,0,0,1-.578.184.33.33,0,0,1-.131-.026.1.1,0,0,1-.061-.1.2.2,0,0,1,.07-.14,2.247,2.247,0,0,1,.219-.193,2.25,2.25,0,0,0,.219-.193,8.289,8.289,0,0,0,1.542-1.963,14.151,14.151,0,0,0,1.525-3.925,31.145,31.145,0,0,0,.613-4.171Zm8.954,9.165a3.39,3.39,0,0,1-.044.456q-.044.3-.289.3a.585.585,0,0,1-.491-.263q-.018-.035-.07-.149a1.322,1.322,0,0,0-.088-.166,26.882,26.882,0,0,0-1.551-2.646q-.9-1.367-1.91-2.664t-1.971-2.366l1.893-1.1q.508.561,1.1,1.367t1.2,1.744q.6.937,1.1,1.91a13.5,13.5,0,0,1,.806,1.892A5.383,5.383,0,0,1-70.423-9.989Zm6.746-2.839q0,.14-.175.14a.864.864,0,0,1-.3-.079,1.189,1.189,0,0,1-.28-.149,3.374,3.374,0,0,1-.753-.675,6.721,6.721,0,0,1-.692-.964,5.539,5.539,0,0,1-.447-.9,1.893,1.893,0,0,1,.307-.123l.552-.193.526-.184a2.511,2.511,0,0,1,.245-.079.056.056,0,0,1,.061.053.551.551,0,0,1,.009.088q.088.333.175.683l.175.7q.088.35.219.727a5.2,5.2,0,0,0,.307.71.769.769,0,0,1,.053.131A.416.416,0,0,1-63.677-12.828Zm7.009-2.926a13.172,13.172,0,0,1-1.27,3.619,10.194,10.194,0,0,1-2.287,2.909,9.571,9.571,0,0,1-3.347,1.884q-.158.053-.473.14t-.622.158a2.308,2.308,0,0,1-.482.07.261.261,0,0,1-.131-.035.129.129,0,0,1-.061-.123.118.118,0,0,1,.053-.105.442.442,0,0,1,.105-.053,7.24,7.24,0,0,0,.683-.315l.666-.35a9.209,9.209,0,0,0,1.857-1.349,10.29,10.29,0,0,0,2.287-3.207A13.746,13.746,0,0,0-58.577-16.3Zm-4.363,2.769q0,.14-.175.14a.8.8,0,0,1-.3-.088,3.043,3.043,0,0,1-.28-.14,3.509,3.509,0,0,1-.78-.666,5.917,5.917,0,0,1-.675-.92,4.579,4.579,0,0,1-.438-.937q.088-.035.333-.123t.526-.184q.28-.1.5-.175a2.279,2.279,0,0,1,.237-.079q.035,0,.044.044a.312.312,0,0,0,.026.079q.088.386.175.78t.21.8q.053.123.193.456t.272.648A1.864,1.864,0,0,1-61.031-12.985ZM-44.1-14.492a.248.248,0,0,1-.28.28,1.365,1.365,0,0,1-.219-.053q-.184-.053-.237-.07-.683-.21-1.358-.394t-1.358-.359a5.293,5.293,0,0,0-.675-.131q-.342-.044-.692-.114a.6.6,0,0,1-.123-.044.1.1,0,0,1-.053-.1,1.112,1.112,0,0,1,.114-.289q.114-.237.272-.534t.289-.552q.131-.254.166-.324a8.85,8.85,0,0,1,1.507.447,7.58,7.58,0,0,1,1.481.771,3.253,3.253,0,0,1,1.06,1.13A.5.5,0,0,1-44.1-14.492Zm7.255-3.014a3.861,3.861,0,0,1-.1.745q-.1.464-.245.981t-.307.964a5.315,5.315,0,0,1-.3.71,10.738,10.738,0,0,1-3.7,4.083,16.34,16.34,0,0,1-3.1,1.542,14.8,14.8,0,0,1-3.347.841l-.911-1.717a16.445,16.445,0,0,0,1.954-.4,21.632,21.632,0,0,0,2.085-.666,12.687,12.687,0,0,0,1.8-.824,14.46,14.46,0,0,0,1.673-1.1,11.494,11.494,0,0,0,1.481-1.341,16.924,16.924,0,0,0,1.472-1.84,21.77,21.77,0,0,0,1.227-2l.07-.105a.118.118,0,0,1,.105-.053.11.11,0,0,1,.114.061A.291.291,0,0,1-36.849-17.506Zm-6.4-.105q0,.263-.28.263a2.185,2.185,0,0,1-.447-.1q-.342-.1-.692-.219a5.13,5.13,0,0,0-.508-.158q-.386-.105-.771-.2t-.771-.166a5.294,5.294,0,0,0-.675-.131q-.342-.044-.692-.114-.053-.018-.114-.044a.11.11,0,0,1-.061-.114,1.03,1.03,0,0,1,.114-.28q.114-.228.28-.517t.3-.534a3.085,3.085,0,0,1,.184-.315,10.107,10.107,0,0,1,1.489.429,6.731,6.731,0,0,1,1.472.753,3.518,3.518,0,0,1,1.069,1.113q.035.07.07.158A.469.469,0,0,1-43.245-17.612Zm21.431,7.29a1.331,1.331,0,0,1-.079.412,2.354,2.354,0,0,1-.166.394,2.025,2.025,0,0,1-.762.789,2.866,2.866,0,0,1-1.016.342,7.858,7.858,0,0,1-1.113.079h-8.656V-9.323q1.454,0,2.926.009t2.926.009a.838.838,0,0,0,.377-.526,3.7,3.7,0,0,0,.1-.648q.105-1.192.21-2.374t.14-2.357l-5.239.053v-.771h7.062q-.018.806-.105,1.621t-.158,1.638q-.035.578-.123,1.157t-.21,1.139a2.962,2.962,0,0,1-.184.57,1.858,1.858,0,0,1-.342.5h2.681a1.322,1.322,0,0,0,.438-.088.676.676,0,0,0,.35-.245,1.149,1.149,0,0,1-.6-.228.639.639,0,0,1-.3-.543.723.723,0,0,1,.289-.561.889.889,0,0,1,.57-.245,1.045,1.045,0,0,1,.683.245A.8.8,0,0,1-21.814-10.322Zm17.8-9.41a12.073,12.073,0,0,1-.508,2.068,20.759,20.759,0,0,1-.85,2.147,13.565,13.565,0,0,1-1.008,1.831,15.058,15.058,0,0,1-2.979,3.356,10.591,10.591,0,0,1-3.978,2.059q-.473.123-.955.21t-1.025.158l-.456.044q-.263.026-.438.026a1.779,1.779,0,0,1-.377-.044q-.2-.044-.2-.149a.141.141,0,0,1,.1-.131.8.8,0,0,1,.2-.061q.193-.053.377-.1t.359-.1q.491-.14.973-.307a6.811,6.811,0,0,0,.92-.394,13.329,13.329,0,0,0,1.752-1.069,10.053,10.053,0,0,0,1.56-1.349,14.461,14.461,0,0,0,1.577-2,1.7,1.7,0,0,0-.359-.158q-.254-.088-.394-.123-.123-.035-.377-.1t-.526-.123a4.156,4.156,0,0,0-.429-.079q-.175-.035-.543-.07t-.613-.053a.615.615,0,0,1-.272-.079.179.179,0,0,1-.044-.131.584.584,0,0,1,.149-.28q.149-.193.307-.421.21-.28.447-.613t.359-.491a4.965,4.965,0,0,1,.587.289q.289.166.64.412.263.158.657.447a4.439,4.439,0,0,1,.622.534,1.061,1.061,0,0,1,.245.3,16.74,16.74,0,0,0,1.121-2.243A19.115,19.115,0,0,0-6.6-18.856h-4.258a10.316,10.316,0,0,1-.964,1.761,10.11,10.11,0,0,1-1.367,1.63,7.031,7.031,0,0,1-1.7,1.218,1.367,1.367,0,0,1-.315.123,1.254,1.254,0,0,1-.315.053.357.357,0,0,1-.123-.026.1.1,0,0,1-.07-.1.212.212,0,0,1,.044-.14,1.234,1.234,0,0,0,.079-.105,15.227,15.227,0,0,0,.973-1.376,18.381,18.381,0,0,0,.9-1.6q.228-.438.429-.911t.342-.894q.07-.193.166-.534l.193-.683q.1-.342.131-.534l2.313.3a1.914,1.914,0,0,1-.131.456q-.1.228-.219.491Zm17.856.438a11.446,11.446,0,0,1-.359,1.577q-.254.859-.613,1.752t-.762,1.7a13.97,13.97,0,0,1-.806,1.419A13.405,13.405,0,0,1,8.422-9.586a11.185,11.185,0,0,1-3.9,1.963q-.666.175-1.376.289A9,9,0,0,1,1.72-7.22,3,3,0,0,1,1.4-7.255q-.245-.035-.245-.158,0-.105.193-.175A2.75,2.75,0,0,1,1.772-7.7l.315-.061A8.245,8.245,0,0,0,3.1-8.114q.5-.21.99-.438A11.7,11.7,0,0,0,5.794-9.6a10.463,10.463,0,0,0,1.481-1.314,14.908,14.908,0,0,0,1.709-2.243,18,18,0,0,0,1.349-2.6,14.885,14.885,0,0,0,.85-2.69H6.942A10.414,10.414,0,0,1,6-16.657a9.536,9.536,0,0,1-1.323,1.612,6.211,6.211,0,0,1-1.656,1.165q-.21.105-.438.193a1.307,1.307,0,0,1-.473.088q-.088,0-.088-.07a.249.249,0,0,1,.035-.14q.035-.053.088-.123a9.625,9.625,0,0,0,.9-1.27q.464-.762.894-1.63T4.69-18.54a9.976,9.976,0,0,0,.464-1.507q.526.158,1.06.342a10.714,10.714,0,0,1,1.025.412Zm.421-2.944a2.277,2.277,0,0,1-.088.5q-.088.342-.228.736t-.289.71a1.085,1.085,0,0,1-.272.4.318.318,0,0,1-.228.105.115.115,0,0,1-.114-.053l-.061-.123a2.227,2.227,0,0,1-.053-.307,2.886,2.886,0,0,0-.053-.324q-.07-.4-.123-.824t-.123-.841v-.035q0-.035.088-.07a2,2,0,0,1,.394-.044l.526-.018q.272-.009.412-.009Q14.266-22.43,14.266-22.238Zm2.26-.053a1.935,1.935,0,0,1-.105.5q-.105.342-.263.745a7.044,7.044,0,0,1-.324.718,1.474,1.474,0,0,1-.272.4.318.318,0,0,1-.228.105q-.123,0-.175-.175a2.347,2.347,0,0,1-.053-.368q-.035-.333-.088-.762t-.088-.771q-.035-.342-.035-.412,0-.088.105-.105.245-.035.657-.053t.657-.018Q16.527-22.483,16.527-22.29Zm10.391,8.253q.333.7.718,1.4a9.183,9.183,0,0,0,.876,1.314,7.692,7.692,0,0,0,.745-1.314,8.016,8.016,0,0,0,.5-1.4Zm-2.225-4.311a.666.666,0,0,1-.254.552.918.918,0,0,1-.587.2H22.537q0,.561.009,1.13t.009,1.13q.088-.035.342-.158t.552-.254q.3-.131.526-.228a1.149,1.149,0,0,1,.28-.1.077.077,0,0,1,.088.088.831.831,0,0,1-.219.438,6.609,6.609,0,0,1-.534.6q-.315.315-.6.561t-.429.35v4.644a9.245,9.245,0,0,1-.1,1.376,1.81,1.81,0,0,1-.5,1.043,1.834,1.834,0,0,1-1.332.4A3.03,3.03,0,0,1,19.3-6.9a4.75,4.75,0,0,1-1.157-.771.274.274,0,0,0-.053-.07.1.1,0,0,1-.035-.07A.081.081,0,0,1,18.1-7.9a.288.288,0,0,1,.088-.018,2.217,2.217,0,0,1,.587.1,2.477,2.477,0,0,0,.675.1.955.955,0,0,0,.7-.228,1.156,1.156,0,0,0,.307-.578,3.344,3.344,0,0,0,.079-.736v-1.8q0-.9-.018-1.8-.438.3-.911.578a6.315,6.315,0,0,1-.981.473l-1-1.682q.718-.245,1.446-.508t1.446-.508q0-.771-.009-1.542T20.5-17.594H18.192v-.771H20.5q0-.929-.009-1.857t-.009-1.857H22.52v3.715h.6a.808.808,0,0,1,.272-.5.747.747,0,0,1,.517-.219.815.815,0,0,1,.543.21A.664.664,0,0,1,24.693-18.347Zm10.2,11.075a.758.758,0,0,1-.263.587.888.888,0,0,1-.613.237,3.756,3.756,0,0,1-1.051-.184,11.515,11.515,0,0,1-1.209-.438q-.6-.254-1-.447A8.647,8.647,0,0,1,29.617-8.2q-.543-.386-1.069-.771a8.33,8.33,0,0,1-2.585,1.428,8.767,8.767,0,0,1-2.9.517q-.053,0-.158-.009t-.105-.1a.11.11,0,0,1,.061-.114.866.866,0,0,1,.131-.044q.263-.088.508-.184t.491-.219a11.953,11.953,0,0,0,1.752-1.034,11.7,11.7,0,0,0,1.577-1.3,10.774,10.774,0,0,1-1.192-1.332q-.543-.718-1.034-1.472.4-.3.771-.6t.753-.6H24.535V-14.9h7.482a.634.634,0,0,1,.245.044q.105.044.105.219A2.923,2.923,0,0,1,32.1-13.52,9.985,9.985,0,0,1,31.4-12.2q-.421.683-.859,1.262a11.171,11.171,0,0,1-.753.911A16.082,16.082,0,0,0,31.4-8.6a12.671,12.671,0,0,0,1.8,1.183.947.947,0,0,1,.359-.456.953.953,0,0,1,.552-.175.778.778,0,0,1,.534.237A.715.715,0,0,1,34.891-7.273Zm-.035-10.339a.812.812,0,0,1-.123.429,1.487,1.487,0,0,1-.28.342,3.555,3.555,0,0,1-1.349.771,4.971,4.971,0,0,1-1.542.263,5.235,5.235,0,0,1-1.5-.175,1.3,1.3,0,0,1-.824-.692,3.5,3.5,0,0,1-.254-1.5q0-.683.009-1.376t.026-1.376H27.6q-.018.806-.114,1.6a7.064,7.064,0,0,1-.359,1.533A4.348,4.348,0,0,1,26.3-16.4a4.777,4.777,0,0,1-.517.508,4.33,4.33,0,0,1-.587.438q-.123.07-.28.149a.7.7,0,0,1-.315.079.417.417,0,0,1-.114-.026q-.079-.026-.079-.079a.25.25,0,0,1,.044-.149q.044-.061.079-.114a4.417,4.417,0,0,0,.421-.71,5.232,5.232,0,0,0,.28-.78,6.27,6.27,0,0,0,.228-1.472q.035-.806.009-1.63t-.026-1.525h5.73q-.018.876-.061,1.77t-.044,1.77a1.648,1.648,0,0,0,.254.981,1.066,1.066,0,0,0,.92.35,4.052,4.052,0,0,0,.631-.053,2.224,2.224,0,0,0,.6-.175,1.367,1.367,0,0,1-.237-.219.432.432,0,0,1-.114-.289.711.711,0,0,1,.289-.613,1.089,1.089,0,0,1,.657-.21.762.762,0,0,1,.561.228A.762.762,0,0,1,34.856-17.612Zm12.687,5.905H46.316v2.243h.666a.434.434,0,0,0,.456-.289,1.659,1.659,0,0,0,.105-.569Zm.859-6.028h-3v2.12h2.068a.98.98,0,0,0,.666-.228.791.791,0,0,0,.263-.631Zm-5.625-3.259q0,.158-.307.307a5.284,5.284,0,0,1-.727.28q-.421.131-.8.228l-.517.131v2.7h.613a.682.682,0,0,1,.237-.517.747.747,0,0,1,.517-.219.827.827,0,0,1,.6.237.783.783,0,0,1,.245.587.524.524,0,0,1-.307.526,1.521,1.521,0,0,1-.64.14H40.428v1.525l.718-.3q.07.421.2.955t.3,1.06q.166.526.324.929a.343.343,0,0,1,.026.07.288.288,0,0,1,.009.07q0,.14-.158.14a.829.829,0,0,1-.464-.245,6.106,6.106,0,0,1-.561-.543q-.272-.3-.394-.438V-6.66H38.413v-6.2a4.412,4.412,0,0,1-.429.841,11.192,11.192,0,0,1-.692.981,9.989,9.989,0,0,1-.789.894,4.077,4.077,0,0,1-.718.6.356.356,0,0,1-.193.07q-.088,0-.088-.105a.271.271,0,0,1,.026-.123.8.8,0,0,0,.044-.105,16.418,16.418,0,0,0,1.069-2.874,15.7,15.7,0,0,0,.526-3.014l1.244.263V-16.6H35.925v-.753h2.488v-2.313q-.631.088-1.27.14t-1.27.053a.479.479,0,0,1-.105-.018.083.083,0,0,1-.07-.088q0-.088.123-.123.3-.123.613-.237t.613-.237q1.069-.438,2.085-.973a16.567,16.567,0,0,0,1.945-1.2q.088.053.35.237t.578.421q.315.237.543.429T42.776-20.993ZM51.836-8.745a3.079,3.079,0,0,1-.429,1.656,1.639,1.639,0,0,1-1.516.692,2.09,2.09,0,0,1-.753-.175,6.478,6.478,0,0,1-.859-.421,7.991,7.991,0,0,1-.683-.438,1.143,1.143,0,0,1-.123-.105.189.189,0,0,1-.053-.14q0-.035.053-.035h.07a.456.456,0,0,1,.14.018,4.682,4.682,0,0,0,.657.1q.342.026.675.026a.7.7,0,0,0,.552-.21,1.038,1.038,0,0,0,.237-.526,3.631,3.631,0,0,0,.053-.6v-4.381H44.038v6.606H42.251v-7.36h9.585ZM49.207-10.41a1.753,1.753,0,0,1-.254,1.034,1.2,1.2,0,0,1-.7.464A4.249,4.249,0,0,1,47.21-8.8H44.757V-12.32h4.451Zm1.121-6.081a1.317,1.317,0,0,1-.386,1.051,1.8,1.8,0,0,1-.955.412,8.232,8.232,0,0,1-1.13.079H43.565v-3.435h6.764Zm2.1-3.7a.778.778,0,0,1-.307.666,1.158,1.158,0,0,1-.71.228H42.023V-20.1h3.89l-.368-2.418q.158,0,.561.009t.867.035q.464.026.824.079t.429.158a.256.256,0,0,1,.053.158,1.283,1.283,0,0,1-.105.377q-.105.272-.245.6t-.272.6q-.131.28-.2.4h2.926a1.109,1.109,0,0,1,.307-.718.925.925,0,0,1,.71-.315,1.091,1.091,0,0,1,.718.263A.848.848,0,0,1,52.432-20.187Z" transform="translate(175.352 22.518)"/></g></g></svg>