<svg xmlns="http://www.w3.org/2000/svg" xmlns:xlink="http://www.w3.org/1999/xlink" width="1000" height="1000" viewBox="0 0 709.43 643"><defs><style>.a{fill:none;}.b,.h{fill:#fff;}.c{fill:#e6d231;}.d{fill:#3d3d3d;}.e{isolation:isolate;}.f{fill:#b0a026;}.g{clip-path:url(#a);}.h,.k{fill-rule:evenodd;}.i{fill:#00b917;}.j{clip-path:url(#b);}.k{fill:#1ba715;}.l{filter:url(#i);}.m{filter:url(#g);}.n{filter:url(#e);}.o{filter:url(#c);}</style><clipPath id="a"><rect class="a" width="193.103" height="224.037"/></clipPath><clipPath id="b"><rect class="a" width="43.789" height="43.789"/></clipPath><filter id="c" x="624.164" y="0" width="78.386" height="364.38" filterUnits="userSpaceOnUse"><feOffset dx="6" dy="6" input="SourceAlpha"/><feGaussianBlur stdDeviation="3" result="d"/><feFlood flood-opacity="0.161"/><feComposite operator="in" in2="d"/><feComposite in="SourceGraphic"/></filter><filter id="e" x="676.814" y="370.017" width="32.616" height="31.999" filterUnits="userSpaceOnUse"><feOffset dx="6" dy="6" input="SourceAlpha"/><feGaussianBlur stdDeviation="3" result="f"/><feFlood flood-opacity="0.161"/><feComposite operator="in" in2="f"/><feComposite in="SourceGraphic"/></filter><filter id="g" x="0" y="0" width="74.269" height="373.369" filterUnits="userSpaceOnUse"><feOffset dx="6" dy="6" input="SourceAlpha"/><feGaussianBlur stdDeviation="3" result="h"/><feFlood flood-opacity="0.161"/><feComposite operator="in" in2="h"/><feComposite in="SourceGraphic"/></filter><filter id="i" x="47.276" y="370.564" width="34.368" height="34.089" filterUnits="userSpaceOnUse"><feOffset dx="6" dy="6" input="SourceAlpha"/><feGaussianBlur stdDeviation="3" result="j"/><feFlood flood-opacity="0.161"/><feComposite operator="in" in2="j"/><feComposite in="SourceGraphic"/></filter></defs><g transform="translate(-291.375 -70)"><g transform="translate(419.051 114.635)"><g transform="translate(115.383 104.008) rotate(-45)"><g transform="translate(0 0)"><path class="b" d="M25.375,28.592l-6.249,3.831a67.4,67.4,0,0,1-4.07-11.472Q7.983,22.937,0,19.742a49.064,49.064,0,0,0,13.06-3.6,22.6,22.6,0,0,0,7.834-5.263Q16.887,9.018,10.061,5.82,11.845,2.279,13.069,0L31.006,9.335A28.1,28.1,0,0,1,19.588,18.71a24.537,24.537,0,0,0,2.254,5.51Q23.748,27.777,25.375,28.592Z" transform="translate(0 0)"/><path class="b" d="M25.418,16.257a21.071,21.071,0,0,1-8.99,4.454,19.179,19.179,0,0,1-9.095-.236,27.637,27.637,0,0,0,4.33-2.075,20.741,20.741,0,0,0,3.53-2.424Q5.419,9.4,0,5.508L3.908,0ZM7.836,26.784l-5.784.949A84.09,84.09,0,0,1,1.067,16.5l4.892-.3q.708,5.1.757,5.234Q7.142,24.08,7.836,26.784Z" transform="translate(42.347 21.754)"/><path class="b" d="M9.231,13.2Q4.828,13.716,0,9.056q6,.173,8.69-.911Zm22.551,3.924-4.26,4.142q-4.544-3.744-6.686-5.547l-.458-.4Q10.857,24.838,8.57,26.78a91.205,91.205,0,0,0-1.225-11Q9.03,17.519,9.887,18.32l7.092-7.486q-3.944-4.06-6.429-6.776L14.153,0l6.972,6.748,4.718-4.943,4.6,5L25.667,11.18ZM24.375,28.416l-5.631,1.341a25.346,25.346,0,0,1-.369-7.631l4.059-.113a20.917,20.917,0,0,0,.457,2.457A12.008,12.008,0,0,0,24.375,28.416Z" transform="translate(63.752 49.756)"/><path class="b" d="M30.048,9.414l-9.961,2.5a21.571,21.571,0,0,1-.9,3.31,10.757,10.757,0,0,1-3.247,4.019,13.648,13.648,0,0,1-5.7,2.376q.023-.17.674-4.61a9.414,9.414,0,0,0,.091-2.5,28.434,28.434,0,0,0,1.712,2.4,15.833,15.833,0,0,0,3.169-3.452,15.521,15.521,0,0,0,1.372-3.82l5.479-1.2Q21.38,6.584,20.521,5.511L2.613,20.031,0,16.836,22.592,0q.258.412,2.6,3.307Q28.286,7.147,30.048,9.414ZM41.723,21.872q-8.059,6.233-10.942,7.646-2.992-3.767-4.576-5.866-.926-1.226-1.38-1.9Q19.9,25.168,17,27.357q-1.741,1.316-2.759,2.183l2.329,2.952q-5.286-2.038-8.75-3.476L32.6,10.118Q35.477,13.926,41.723,21.872ZM25.493,40.9l-6.25.106q.625-11.256,2.245-15.618l2.9.55a13.783,13.783,0,0,0-.349,2.289q-.108,2.208-.186,2.977,2.112.381,2.96.5a13.09,13.09,0,0,0,2.984.13l-.311,4.083a15.574,15.574,0,0,1-5.68-3.97A16.693,16.693,0,0,0,25.493,40.9Zm4.636-16.61,1.613-1.217-2.474-2.944L27.7,21.41q.381.572.771,1.09A10.91,10.91,0,0,0,30.129,24.29Zm3.694-3.09q.129-.1,1.372-1.136l-2.23-2.824-1.4.957a15.1,15.1,0,0,0,.933,1.372Q33.054,20.313,33.822,21.2Z" transform="translate(86.408 74.291)"/><path class="b" d="M16.736,33.546,11.262,35.43Q6.434,25.488,8.069,16.858a6.679,6.679,0,0,1-4.346-.082A9.7,9.7,0,0,1,0,14.4q7.692-1.219,11.682-3.529l2.21,4.229q-1.847.841-2.659,1.292-.2,1.312-.306,3.777l7.44-4.087q-1.07-2.179-2.449-4.743l4.028-2.654,7.831,13.684-4.131,1.97Q21,20.169,20.624,19.317l-2.368,1.315,2.108,3.961-3.436,1.724-2.052-3.53-2.567,1.287a24.864,24.864,0,0,0,2.165,5.733Q15.26,31.22,16.736,33.546ZM36.887,24.2l-9,2.037q1.261-1.394,3.35-4.126L22.255,6.019l-2.718,1.6q-.772-1.143-1.361-2.2a19.706,19.706,0,0,1-.994-2.037L23.351,0Q28.1,8.462,29.024,9.8l3.428-2.32L35.059,12.5l-3.585,1.621Q35.658,22.158,36.887,24.2Z" transform="translate(110.202 110.549)"/></g></g><g transform="translate(0 160.876)"><ellipse class="b" cx="219.228" cy="218.745" rx="219.228" ry="218.745"/><path class="c" d="M200.8-1.5c5.168,0,10.388.2,15.516.585a1.923,1.923,0,0,1-.29,3.835c-5.032-.381-10.155-.574-15.226-.574a1.923,1.923,0,1,1,0-3.846Zm-11.563.327a1.923,1.923,0,0,1,.107,3.843c-5.059.287-10.162.772-15.166,1.441A1.923,1.923,0,1,1,173.668.3c5.1-.682,10.3-1.176,15.458-1.469C189.163-1.172,189.2-1.173,189.236-1.173Zm42.215,2a1.937,1.937,0,0,1,.293.022c5.1.781,10.231,1.77,15.249,2.939a1.923,1.923,0,1,1-.873,3.746c-4.922-1.147-9.954-2.117-14.958-2.883a1.923,1.923,0,0,1,.289-3.824ZM158.769,2.9a1.923,1.923,0,0,1,.4,3.8c-4.948,1.054-9.916,2.313-14.764,3.744a1.923,1.923,0,1,1-1.089-3.689c4.943-1.459,10.007-2.743,15.052-3.817A1.929,1.929,0,0,1,158.769,2.9ZM261.39,7.8a1.923,1.923,0,0,1,.58.09c4.915,1.554,9.832,3.319,14.615,5.248a1.923,1.923,0,0,1-1.439,3.567c-4.691-1.892-9.514-3.624-14.336-5.148A1.923,1.923,0,0,1,261.39,7.8Zm-132.1,3.8a1.923,1.923,0,0,1,.685,3.72c-4.724,1.8-9.439,3.81-14.014,5.971a1.923,1.923,0,0,1-1.643-3.478c4.664-2.2,9.471-4.251,14.287-6.087A1.919,1.919,0,0,1,129.287,11.6ZM289.9,19.3a1.915,1.915,0,0,1,.853.2c4.617,2.29,9.2,4.79,13.636,7.43a1.923,1.923,0,0,1-1.969,3.3c-4.347-2.59-8.848-5.042-13.377-7.289A1.923,1.923,0,0,1,289.9,19.3ZM101.491,24.734a1.923,1.923,0,0,1,.954,3.594c-4.391,2.5-8.743,5.212-12.933,8.048a1.923,1.923,0,1,1-2.156-3.185c4.272-2.891,8.707-5.651,13.184-8.2A1.914,1.914,0,0,1,101.491,24.734Zm214.817,10.3a1.915,1.915,0,0,1,1.106.351c4.212,2.969,8.364,6.14,12.34,9.425a1.923,1.923,0,0,1-2.45,2.965c-3.9-3.222-7.974-6.333-12.107-9.246a1.923,1.923,0,0,1,1.11-3.495ZM76.034,41.963a1.923,1.923,0,0,1,1.2,3.429c-3.959,3.147-7.847,6.486-11.556,9.927A1.923,1.923,0,1,1,63.06,52.5c3.78-3.507,7.743-6.911,11.779-10.118A1.915,1.915,0,0,1,76.034,41.963ZM340,54.608a1.917,1.917,0,0,1,1.334.538c3.713,3.578,7.334,7.344,10.762,11.194a1.923,1.923,0,0,1-2.872,2.558c-3.363-3.777-6.915-7.472-10.558-10.982A1.923,1.923,0,0,1,340,54.608ZM53.5,62.869A1.923,1.923,0,0,1,54.912,66.1c-3.436,3.714-6.77,7.607-9.91,11.57a1.923,1.923,0,1,1-3.015-2.388c3.2-4.04,6.6-8.008,10.1-11.794A1.918,1.918,0,0,1,53.5,62.869Zm306.944,14.7a1.92,1.92,0,0,1,1.531.758c3.126,4.1,6.13,8.378,8.929,12.7a1.923,1.923,0,1,1-3.229,2.089c-2.746-4.244-5.693-8.437-8.759-12.463a1.923,1.923,0,0,1,1.528-3.088Zm-326.031,9.4a1.923,1.923,0,0,1,1.593,3c-2.829,4.2-5.529,8.552-8.025,12.948a1.923,1.923,0,0,1-3.345-1.9c2.544-4.481,5.3-8.922,8.181-13.2A1.921,1.921,0,0,1,34.414,86.964Zm342.726,16.41a1.923,1.923,0,0,1,1.692,1.006c2.461,4.535,4.773,9.22,6.874,13.925a1.923,1.923,0,1,1-3.512,1.568c-2.06-4.615-4.329-9.211-6.742-13.659a1.924,1.924,0,0,1,1.689-2.841ZM19.239,113.7a1.924,1.924,0,0,1,1.739,2.741c-2.151,4.58-4.148,9.3-5.936,14.027a1.923,1.923,0,0,1-3.6-1.36c1.823-4.821,3.859-9.633,6.052-14.3A1.923,1.923,0,0,1,19.239,113.7ZM389.67,131.444a1.924,1.924,0,0,1,1.812,1.278c1.731,4.857,3.292,9.844,4.64,14.82a1.923,1.923,0,1,1-3.712,1.006c-1.322-4.881-2.853-9.771-4.55-14.535a1.924,1.924,0,0,1,1.811-2.569Zm-381.3,11a1.925,1.925,0,0,1,1.847,2.462c-1.416,4.853-2.659,9.825-3.694,14.776a1.923,1.923,0,0,1-3.765-.787c1.056-5.049,2.323-10.118,3.767-15.066A1.924,1.924,0,0,1,8.366,142.447ZM397.71,161.111a1.924,1.924,0,0,1,1.887,1.566c.957,5.06,1.729,10.228,2.294,15.358a1.923,1.923,0,1,1-3.823.421c-.554-5.033-1.312-10.1-2.25-15.065a1.925,1.925,0,0,1,1.892-2.281ZM2.071,172.535a1.925,1.925,0,0,1,1.91,2.17c-.649,5.007-1.111,10.112-1.375,15.172a1.923,1.923,0,0,1-3.841-.2c.269-5.158.74-10.362,1.4-15.466A1.924,1.924,0,0,1,2.071,172.535Zm399.008,19.13A1.923,1.923,0,0,1,403,193.524c.075,2.254.113,4.543.113,6.8,0,2.9-.063,5.838-.186,8.728a1.923,1.923,0,1,1-3.842-.164c.121-2.836.182-5.718.182-8.564,0-2.218-.037-4.464-.111-6.676a1.923,1.923,0,0,1,1.858-1.986ZM.469,203.235a1.923,1.923,0,0,1,1.922,1.877c.12,5.067.437,10.183.942,15.205a1.923,1.923,0,0,1-3.827.385c-.514-5.119-.838-10.334-.96-15.5a1.923,1.923,0,0,1,1.877-1.968ZM399.76,222.381a1.925,1.925,0,0,1,1.912,2.152c-.614,5.125-1.435,10.284-2.441,15.335a1.923,1.923,0,0,1-3.772-.751c.987-4.954,1.792-10.015,2.394-15.042A1.923,1.923,0,0,1,399.76,222.381ZM3.548,233.821a1.924,1.924,0,0,1,1.891,1.584c.893,4.981,1.992,9.986,3.266,14.878a1.923,1.923,0,1,1-3.722.97c-1.3-4.987-2.42-10.091-3.33-15.169a1.925,1.925,0,0,1,1.9-2.263Zm390.209,18.706a1.925,1.925,0,0,1,1.852,2.444c-1.4,4.963-3.005,9.935-4.783,14.776a1.923,1.923,0,0,1-3.61-1.326c1.743-4.748,3.322-9.624,4.691-14.492A1.924,1.924,0,0,1,393.757,252.527ZM11.3,263.566a1.924,1.924,0,0,1,1.818,1.3c1.651,4.778,3.511,9.553,5.528,14.192a1.923,1.923,0,0,1-3.527,1.534c-2.057-4.73-3.954-9.6-5.636-14.47a1.925,1.925,0,0,1,1.818-2.551Zm371.868,17.816a1.924,1.924,0,0,1,1.747,2.724c-2.145,4.685-4.5,9.347-7.007,13.858a1.923,1.923,0,0,1-3.363-1.867c2.456-4.424,4.768-9,6.873-13.593A1.923,1.923,0,0,1,383.165,281.383ZM23.554,291.754a1.923,1.923,0,0,1,1.7,1.022c2.368,4.465,4.942,8.9,7.65,13.172a1.923,1.923,0,1,1-3.249,2.058c-2.761-4.358-5.385-8.877-7.8-13.429a1.924,1.924,0,0,1,1.7-2.824Zm344.695,16.5a1.923,1.923,0,0,1,1.6,2.983c-2.84,4.3-5.885,8.545-9.05,12.619a1.923,1.923,0,0,1-3.037-2.36c3.1-4,6.092-8.161,8.878-12.379A1.922,1.922,0,0,1,368.248,308.259ZM40,317.722a1.92,1.92,0,0,1,1.542.772c3.025,4.051,6.247,8.037,9.576,11.847a1.923,1.923,0,1,1-2.9,2.53c-3.393-3.884-6.677-7.947-9.761-12.076A1.923,1.923,0,0,1,40,317.722Zm309.386,14.812a1.923,1.923,0,0,1,1.423,3.216c-3.465,3.817-7.121,7.549-10.868,11.091a1.923,1.923,0,0,1-2.642-2.795c3.676-3.475,7.263-7.136,10.662-10.881A1.918,1.918,0,0,1,349.389,332.534ZM60.227,340.872a1.917,1.917,0,0,1,1.347.551c3.609,3.544,7.4,6.993,11.269,10.251a1.923,1.923,0,0,1-2.478,2.942c-3.943-3.321-7.808-6.836-11.486-10.449a1.923,1.923,0,0,1,1.348-3.3Zm266.824,12.781a1.923,1.923,0,0,1,1.212,3.417c-4.007,3.247-8.189,6.378-12.429,9.308a1.923,1.923,0,1,1-2.186-3.165c4.16-2.874,8.263-5.946,12.194-9.131A1.916,1.916,0,0,1,327.051,353.653Zm-243.31,7.021a1.914,1.914,0,0,1,1.121.362c4.108,2.954,8.38,5.785,12.7,8.414a1.923,1.923,0,0,1-2,3.285c-4.4-2.68-8.757-5.565-12.944-8.577a1.923,1.923,0,0,1,1.124-3.484Zm218.016,10.449a1.923,1.923,0,0,1,.97,3.585c-4.456,2.6-9.068,5.054-13.706,7.3a1.923,1.923,0,1,1-1.676-3.462c4.55-2.2,9.073-4.612,13.445-7.16A1.915,1.915,0,0,1,301.758,371.123ZM110,376.657a1.915,1.915,0,0,1,.869.209c4.511,2.292,9.167,4.435,13.837,6.371a1.923,1.923,0,1,1-1.473,3.553c-4.761-1.973-9.507-4.158-14.106-6.495a1.923,1.923,0,0,1,.872-3.638Zm164.095,7.86a1.923,1.923,0,0,1,.7,3.714c-4.8,1.883-9.735,3.6-14.666,5.108a1.923,1.923,0,1,1-1.124-3.678c4.836-1.478,9.676-3.164,14.385-5.01A1.916,1.916,0,0,1,274.093,384.516Zm-135.7,3.91a1.922,1.922,0,0,1,.6.1c4.806,1.57,9.735,2.972,14.65,4.167a1.923,1.923,0,0,1-.909,3.737c-5.011-1.218-10.036-2.647-14.936-4.248a1.923,1.923,0,0,1,.6-3.752ZM244.7,393.5a1.923,1.923,0,0,1,.417,3.8c-5.027,1.121-10.166,2.06-15.274,2.793a1.923,1.923,0,1,1-.546-3.807c5.011-.719,10.052-1.64,14.983-2.74A1.928,1.928,0,0,1,244.7,393.5Zm-76.438,2.189a1.937,1.937,0,0,1,.312.025c4.985.812,10.071,1.442,15.118,1.872a1.923,1.923,0,1,1-.326,3.832c-5.144-.438-10.329-1.08-15.41-1.908a1.923,1.923,0,0,1,.307-3.821Zm46.013,2.178a1.923,1.923,0,0,1,.125,3.842c-4.5.3-9.071.449-13.6.449-.64,0-1.29,0-1.929-.009a1.923,1.923,0,1,1,.036-3.846c.628.006,1.265.009,1.894.009,4.441,0,8.93-.148,13.342-.44Q214.207,397.866,214.271,397.866Z" transform="translate(18.429 18.416)"/></g><g transform="translate(66.666 96.377)"><path class="b" d="M58.674,61.238a2.556,2.556,0,0,1-1.813-.751L-1.249,2.377A2.564,2.564,0,0,1,2.377-1.249l58.11,58.11a2.564,2.564,0,0,1-1.813,4.377Z" transform="translate(2 2)"/><path class="b" d="M.564,61.238a2.564,2.564,0,0,1-1.813-4.377l58.11-58.11a2.564,2.564,0,1,1,3.626,3.626L2.377,60.487A2.556,2.556,0,0,1,.564,61.238Z" transform="translate(243.379 2)"/></g><path class="d" d="M-102.713,3.012q-2.344.049-3.809.049t-2-.049l.342,5.273h-6.4l.391-5.566h-7.226l.1,5.762-5.469-.2q.293-3.906.293-5.908h-5.518l.049-5.615q4.2,0,5.273-.049l-.1-6.934a46,46,0,0,0-4.932-.1l-.1-6.787q2.783-.049,5.371,0l-.342-5.615,6.25.244-.488,6.006q5.273-.1,6.348-.244l-.1-5.81,6.982-.244v5.957q3.223-.1,4.834-.244l.1,6.348-4.736.635-.244,6.494q1.855-.049,5.078-.2Zm-11.572-6.787q-.1-.879-.2-6.787-3.857,0-6.2.2.049.781-.1,6.738Q-121.463-3.677-114.285-3.775Zm57.88-20.752-.244,6.1-11.816.1A65.75,65.75,0,0,1-72.86-12.71a21.612,21.612,0,0,0,7.471-.635l-1.123-2.49,3.711-1.318,3.223,6.543A18.211,18.211,0,0,1-68.368-8.8a43.392,43.392,0,0,1-10.351-1.318q1.221-2.978,3.32-8.5-1.855.2-7.178.293l-.391-6.494,8.838-.1-.293-4.98,7.373.2-.781,5.42Q-62.313-24.282-56.405-24.526Zm3.223,31.4q-2.295,1.514-6.787,1.514a9.478,9.478,0,0,1-5.273-1.367L-65.292-7l4.932.146-.488,10.2a7.622,7.622,0,0,0,2.881-.391l.2-3.613A54.464,54.464,0,0,0-53.182,6.87ZM-85.9-20.571l-3.418,4.248a52.8,52.8,0,0,0-4.2-3.662l3.125-3.857ZM-68.221-5l-.2,9.326q-1.27,0-4.883.342l.1-9.717Zm-7.08-.342q-.781,10.986-7.764,13.281a35.013,35.013,0,0,0,1.831-6.787,33.6,33.6,0,0,0,.659-6.982Zm-11.328-5.127-2.441,4.346q-2.393-1.807-4.15-3.271l2.588-3.418Zm1.318,7.373A32.112,32.112,0,0,1-88.582,7.456L-93.9,2.28A22.631,22.631,0,0,0-85.311-3.091ZM-12.236,3.94A159.048,159.048,0,0,1-32.353,5.307,80.568,80.568,0,0,1-46.9,4.233l.293-19.482,6.152-.293.293,14.111q6.1.879,7.471.879l-.537-23.828,7.568.244-.293,22.949q2.051.1,3.564.1a17.732,17.732,0,0,0,3.516-.244l.2-14.111,5.615.1ZM29.151-17.691A71.765,71.765,0,0,1,27.93-3.531Q26.416,4.575,23.487,9.262a58.612,58.612,0,0,0-4.248-4.59Q16.065,1.548,15.918,1.4l4.687.2a37.836,37.836,0,0,0,1.807-13.281l-7.373.342Q13.624,1.938.245,5.454q7.129-8.74,7.91-16.162-4.053.2-8.594.342l-.146-7.617,9.131.1Q8.3-21.5,7.862-25.991l8.4.244-.781,8.154Q19.19-17.593,29.151-17.691Zm42.793,6.006A23.509,23.509,0,0,1,62.959-1.358,37.481,37.481,0,0,1,48.067,4.428l-.684-28.174,8.887.2L55.732-5.972Q66.475-8.56,71.943-11.685Zm26.289-9.424-3.467,6.4-7.226-4.3,3.516-5.469Q94.765-22.915,98.232-21.108Zm18.359,4.687A23.608,23.608,0,0,1,108.73-2.359a33.651,33.651,0,0,1-16.6,7.715L88.955-2.652a50.7,50.7,0,0,0,16.162-5.029A46.5,46.5,0,0,0,116.591-16.421Zm45.185-11.23-.342,3.857a17.258,17.258,0,0,0-2.588.83l-.732-4.1Zm-5.371,4.59a15.493,15.493,0,0,0-2.539.83l-1.123-4.1,3.662-.586Zm-2.051,2.393q-.049,11.621-4.98,18.75-5.811,8.5-18.066,9.961a39.707,39.707,0,0,0,5.517-4.736,25.909,25.909,0,0,0,4.2-5.078q-4.1-1.807-6.543-2.588l2.1-5.273q.977.244,7.764,2.539a26.518,26.518,0,0,0,2-7.471q-5.517.2-10.986.293a13.006,13.006,0,0,1-7.178,4.492A33.677,33.677,0,0,0,131.6-25.308a21.607,21.607,0,0,0-.146-2.734l7.715.83a34.6,34.6,0,0,1-1.611,6.885Zm47.333,6.641-.537,6.006H169.8l-.146-6.152Q190.506-13.931,201.688-14.028Z" transform="translate(184.573 384.655)"/><g class="e" transform="translate(73.076 414.264)"><path class="d" d="M-79.325-27.575l-2.393,10.2q-2.588-3.516-3.564-5.078l-24.267.244v4.15l-5.225-.244-.146-9.326q6.641-.1,14.4-.1Q-90.848-27.722-79.325-27.575Zm-2,23.926-.2,5.078h-9.131q-1.172,5.566-4.687,8.3-2.539-3.564-4.248-5.81l3.271.244.781-2.832q-8.594.2-13.428.2-2.783,0-4.3-.049l-.2-4.98q15.967,0,18.554-.146.2-1.855.2-2.588-5.225.146-9.424.146l-.2-13.867h5.664v4.1a18.437,18.437,0,0,0,7.519-3.906l2.686,4.59q-2.979,1.66-10.84,1.953l.049,2.734,10.01-.2A57.2,57.2,0,0,1-89.872-3.7Zm42.314-22.8-.146,5.273H-49.511v2.1l7.031.293-.781,16.748q-11.328,0-19.726.244l-.391-17.041q5.127-.1,7.422-.244l.049-1.9q-4.3.2-11.084.2l-.293-5.713,11.084.049-.049-3.369,7.226.146-.391,3.516Q-43.017-26.452-39.013-26.452Zm-9.814,13.086-.1-2.246q-1.758-.049-8.057.2l-.049,2.246Q-54.833-13.269-48.827-13.366Zm-.1,4.492-.049-1.807q-.439,0-7.715-.146l-.1,2.246Q-54.931-8.679-48.925-8.874Zm0,4.3-.1-1.807-7.519.049-.049,1.855Q-54.247-4.431-48.925-4.577Zm12.7,9.033q-3.271-.2-6.641-.2a9.3,9.3,0,0,0,4.2,3.467,8.373,8.373,0,0,1-3.857.977,7.185,7.185,0,0,1-6.494-3.857L-58.2,4.9q-1.221,4.443-9.131,4.053A11.82,11.82,0,0,0-63.769,4.5q-4.443,0-6.689.049l-.049-4.639q3.955.049,8.74.049,10.742,0,25.537-.293ZM5.059-21.814A212.387,212.387,0,0,1,3.692,3.137a222.309,222.309,0,0,1-23.1.342l-.586-6.348q9.326.2,17.431.049l.293-12.012q-8.252.146-17.627.977l-.537-8.105Q-15.3-22.2-9.736-22.2-1.777-22.2,5.059-21.814Zm27.8.684-3.467,6.4-7.226-4.3L25.683-24.5Q29.394-22.937,32.861-21.13ZM51.22-16.443A23.608,23.608,0,0,1,43.359-2.38a33.652,33.652,0,0,1-16.6,7.715L23.584-2.673A50.7,50.7,0,0,0,39.746-7.7,46.5,46.5,0,0,0,51.22-16.443Zm35.908-9.326-.049,6.689-18.506.732.049-7.666q5.469-.049,10.742.1Q85.126-25.769,87.128-25.769Zm5.81,12.3-.2,6.738-10.889-.1A12.3,12.3,0,0,1,79.072,2.4q-3.76,4.3-11.816,4.687,5.078-4.1,6.787-7.812a14.411,14.411,0,0,0,1.074-5.908q-6.3.537-13.037,1.025l-.439-7.764ZM136.561-1.013,132.216,6.7a81.406,81.406,0,0,1-11.035-9.717q-6.3,6.25-16.6,7.568a59.26,59.26,0,0,0,11.67-11.474,27.287,27.287,0,0,0,5.176-10.156q-5.322.391-14.4,1.025-.2-4.785-.244-7.91l24.414-.684a33.923,33.923,0,0,1-6.543,16.6,29.629,29.629,0,0,0,5.615,4.492Q134.364-.915,136.561-1.013Zm41.377-9.961-3.467,7.422Q169.1-5.993,167.44-6.775q-4.59-2.2-6.152-3.174l.537,16.26L154.5,6.262l.342-32.617,6.836-.146.391,10.791q3.662,1.27,8.3,2.588Q175.838-11.657,177.938-10.974Z" transform="translate(114.921 29.821)"/></g><g transform="translate(6.656 472.669)"><g transform="translate(0 0)"><g transform="translate(7.769 10.273)"><path class="c" d="M316.2,587.3h70.688l-20.2-41.955,20.2-41.954H316.2Z" transform="translate(30.117 -475.423)"/><path class="c" d="M90.513,587.3H19.824l20.2-41.955-20.2-41.954H90.513Z" transform="translate(-19.824 -475.423)"/><rect class="c" width="316.02" height="83.91" transform="translate(50.492)"/><path class="f" d="M62.709,550.9l20.2,27.969V550.9Z" transform="translate(-12.214 -466.992)"/><path class="f" d="M336.4,550.9l-20.2,27.969V550.9Z" transform="translate(30.117 -466.992)"/></g><path class="d" d="M373.5,557.475H57.483a1.282,1.282,0,0,1-1.282-1.282V472.285A1.282,1.282,0,0,1,57.483,471h41.54a1.282,1.282,0,1,1,0,2.564H58.765v81.344H372.217V473.567H107.686a1.282,1.282,0,1,1,0-2.564H373.5a1.282,1.282,0,0,1,1.282,1.282v83.908A1.282,1.282,0,0,1,373.5,557.475Z" transform="translate(-5.705 -471.003)"/><g transform="translate(0 27.972)"><path class="d" d="M33.462,536.521a1.282,1.282,0,0,1-1.156-.726L13.442,496.6a1.282,1.282,0,0,1,1.155-1.838H60.37a1.282,1.282,0,0,1,0,2.564H16.637l17.98,37.36a1.282,1.282,0,0,1-1.154,1.838Z" transform="translate(-13.315 -494.759)"/><path class="d" d="M85.287,574.5H14.6a1.282,1.282,0,0,1-1.155-1.838l18.863-39.209a1.282,1.282,0,0,1,2.311,1.112L16.638,571.938H84V550.7a1.282,1.282,0,1,1,2.564,0V573.22A1.282,1.282,0,0,1,85.287,574.5Z" transform="translate(-13.315 -488.021)"/><path class="d" d="M18.85,23.435a1.279,1.279,0,0,1-.978-.452L-.7,1.112A1.282,1.282,0,0,1,1.259-.548l18.567,21.87a1.282,1.282,0,0,1-.977,2.112Z" transform="translate(53.118 63.041)"/></g><g transform="translate(346.313 27.972)"><path class="d" d="M359.04,536.521a1.283,1.283,0,0,1-1.154-1.838l17.978-37.36H332.13a1.282,1.282,0,0,1,0-2.564H377.9a1.282,1.282,0,0,1,1.155,1.838l-18.863,39.2A1.282,1.282,0,0,1,359.04,536.521Z" transform="translate(-305.933 -494.759)"/><path class="d" d="M381.658,574.5H310.97a1.282,1.282,0,0,1-1.282-1.282V550.7a1.282,1.282,0,1,1,2.564,0v21.24h67.366l-17.98-37.371a1.282,1.282,0,0,1,2.311-1.112l18.864,39.209a1.282,1.282,0,0,1-1.155,1.838Z" transform="translate(-309.688 -488.021)"/><path class="d" d="M.281,23.435A1.282,1.282,0,0,1-.7,21.323L17.872-.548a1.282,1.282,0,1,1,1.955,1.659L1.259,22.982A1.279,1.279,0,0,1,.281,23.435Z" transform="translate(1.004 63.041)"/></g></g><g class="e" transform="translate(176.675 19.578)"><path class="d" d="M12.607-10.075v-.077H7.992V4.186h4.615V4.109A9.319,9.319,0,0,1,9.561-2.983,9.319,9.319,0,0,1,12.607-10.075ZM17.684-7.26h1.108v-.769h4v.769h1.123v-.769h3.492v-.938H23.915V-10H22.792v1.031h-4V-10H17.684v1.031H14.238v.938h3.446ZM20.792.356c.092-.354.169-.708.231-1.092H19.915A5.968,5.968,0,0,1,19.653.356H16.823a9,9,0,0,0,1.8-1.4h4.369a8.532,8.532,0,0,0,1.615,1.4ZM16.93-4.583h7.831V-3.6H16.93Zm0-1.708h7.831v.985H16.93ZM27.623-1.044v-.923H19.407c.2-.292.369-.569.538-.877h5.938v-4.2H15.838v4.2h2.877a5.339,5.339,0,0,1-.615.877H14.038v.923H17.13A10.992,10.992,0,0,1,13.7.709a2.807,2.807,0,0,1,.662.815A16.643,16.643,0,0,0,16.253.694v.523h3.015c-.615.954-1.769,1.615-3.985,2.015a2.85,2.85,0,0,1,.569.892c2.677-.554,3.954-1.477,4.615-2.908H23.93c-.108,1.092-.246,1.569-.415,1.738a.694.694,0,0,1-.508.123A15.745,15.745,0,0,1,21.346,3a2.518,2.518,0,0,1,.262.938c.769.031,1.477.046,1.846.015a1.22,1.22,0,0,0,.923-.338c.338-.308.508-1.077.677-2.815l.015-.138a10.8,10.8,0,0,0,2.2,1,4.073,4.073,0,0,1,.738-.892,10.257,10.257,0,0,1-3.723-1.815ZM32.315-3.6H35.9v1.062H32.315ZM35.9-6.244H32.315V-7.275H35.9Zm0,1.831H32.315V-5.429H35.9ZM43.038.279V-.66H36.73v-.954h5.877v-.923H36.992V-3.6h4.461v-.815H36.992V-5.429h4.415v-.815H36.992V-7.275h5.015v-.908H36.961c.292-.492.615-1.077.923-1.646l-1.277-.185a13.011,13.011,0,0,1-.8,1.831H32.838A18.677,18.677,0,0,0,33.807-9.8l-1.185-.231a13.541,13.541,0,0,1-3.631,4.523,3.423,3.423,0,0,1,.815.754,15.454,15.454,0,0,0,1.446-1.385v4.523h4.354V-.66H29.392V.279h5.261a16.523,16.523,0,0,1-5.631,2.646,4.486,4.486,0,0,1,.754.938A18,18,0,0,0,35.607.725V4.017H36.73V.694a17.443,17.443,0,0,0,5.877,3.062,4.844,4.844,0,0,1,.738-.938A16.417,16.417,0,0,1,37.73.279Zm4.046-2.523h2.785V-.706H47.084Zm2.785-4.708V-5.6H47.084V-6.952ZM47.084-4.675h2.785v1.508H47.084ZM52.053-.706H50.93V-6.952h1.123V-7.983H50.93V-9.829H49.868v1.846H47.084V-9.829H46.038v1.846H44.745v1.031h1.292V-.706H44.545V.325h7.508ZM46.669.648a8.026,8.026,0,0,1-2.108,2.738,7.073,7.073,0,0,1,.923.662A10.169,10.169,0,0,0,47.761.94Zm2.185.477a12.077,12.077,0,0,1,1.585,2.338l.923-.538A11.4,11.4,0,0,0,49.745.648Zm5-3.292c.015-.523.031-1.046.031-1.523V-4.721h3.138v2.554ZM57.022-8.2v2.446H53.884V-8.2ZM58.13-9.244H52.807v5.554c0,2.2-.123,5.123-1.4,7.154a2.932,2.932,0,0,1,.908.662,12.045,12.045,0,0,0,1.462-5.261h3.246V2.556c0,.246-.092.323-.323.323-.215.015-.985.015-1.8,0a4.652,4.652,0,0,1,.354,1.108,6.819,6.819,0,0,0,2.292-.215c.415-.185.585-.523.585-1.2Zm7.046.785v1.277H61.853V-8.46ZM61.853-4.983V-6.337h3.323v1.354Zm4.415.877V-9.352H60.715v13.4h1.138V-4.106ZM68.745-2.06V-.644H65.13V-2.06ZM65.13,1.709V.217h3.615V1.709Zm4.677.908V-2.952H64.1V3.386H65.13V2.617ZM68.73-4.967V-6.337h3.446v1.369ZM72.176-8.46v1.277H68.73V-8.46Zm1.154-.892H67.638v5.261h4.538v6.6c0,.277-.092.369-.354.369-.277.015-1.215.031-2.154-.015a4.213,4.213,0,0,1,.4,1.169,8.757,8.757,0,0,0,2.585-.2c.508-.2.677-.585.677-1.308ZM79.807,4.186V-10.152H75.191v.077a9.319,9.319,0,0,1,3.046,7.092,9.319,9.319,0,0,1-3.046,7.092v.077Z" transform="translate(-7.992 10.152)"/></g><g transform="translate(72.83 45.8)"><g class="e" transform="translate(61.428 4.5)"><path class="d" d="M4.273-.607V-3.653H7.72V-.607Zm10.169,0H8.873V-3.653h4.508V-4.73H8.873V-7.068h4.861V-8.176H4.566c.246-.523.492-1.077.708-1.615L4.12-10.068A13.019,13.019,0,0,1,.658-4.76a7.081,7.081,0,0,1,.985.723A14.214,14.214,0,0,0,3.981-7.068H7.72V-4.73H3.135V-.607H.612V.5H7.72V4.024H8.873V.5h5.569Z" transform="translate(-0.612 10.068)"/></g><g class="e" transform="translate(107.192 5.346)"><path class="d" d="M4.085-2.054a19.315,19.315,0,0,0,.169-2.585h7.031v2.585Zm7.2-6.231v2.554H4.254V-8.285Zm1.185-1.123H3.1V-4.7C3.1-2.254,2.854.869.408,3.023a4.329,4.329,0,0,1,.846.831A8.677,8.677,0,0,0,3.9-.931h7.385V2.146c0,.338-.123.446-.477.462-.354,0-1.585.015-2.862-.031a5.457,5.457,0,0,1,.477,1.185,12.371,12.371,0,0,0,3.246-.215c.569-.185.8-.585.8-1.385Z" transform="translate(-0.408 9.408)"/></g><g class="e" transform="translate(157.609 5.592)"><path class="d" d="M3.314,1.476V-2.816h7.631V1.476Zm7.631-9.569v4.154H3.314V-8.093ZM2.16-9.216V3.6H3.314v-1h7.631v.938h1.2V-9.216Z" transform="translate(-2.16 9.216)"/></g><g class="e" transform="translate(173.145 8.241)"><path class="d" d="M5.933-3.06A3.842,3.842,0,0,0,8.817-1.688a3.829,3.829,0,0,0,3.346-2.244l-.91-.487A2.828,2.828,0,0,1,8.83-2.727,2.96,2.96,0,0,1,6.651-3.778,3.842,3.842,0,0,0,3.766-5.15,3.829,3.829,0,0,0,.42-2.906l.91.487A2.828,2.828,0,0,1,3.753-4.112,2.939,2.939,0,0,1,5.933-3.06Z" transform="translate(-0.42 5.15)"/></g><path class="d" d="M13.472.826V4.257H.523A8.918,8.918,0,0,1,1.785.57,24.538,24.538,0,0,1,5.939-4.051,26.129,26.129,0,0,0,9-7.206a4.064,4.064,0,0,0,.762-2.261,2.57,2.57,0,0,0-.664-1.9,2.478,2.478,0,0,0-1.834-.664,2.461,2.461,0,0,0-1.84.7A3.578,3.578,0,0,0,4.638-9.02L.957-9.388a6.035,6.035,0,0,1,2.064-4.378,6.93,6.93,0,0,1,4.338-1.328,6.27,6.27,0,0,1,4.483,1.538,5.045,5.045,0,0,1,1.63,3.825A6.659,6.659,0,0,1,13-7.252a10.077,10.077,0,0,1-1.479,2.465A23.666,23.666,0,0,1,9.107-2.329Q7.359-.725,6.892-.2A6.377,6.377,0,0,0,6.136.826Zm8.742-15.92a5.266,5.266,0,0,1,4.378,2q1.88,2.366,1.88,7.848T26.578,2.614a5.257,5.257,0,0,1-4.364,1.972,5.515,5.515,0,0,1-4.535-2.162Q15.956.261,15.956-5.287q0-5.442,1.893-7.835A5.257,5.257,0,0,1,22.214-15.094Zm0,3.063a1.845,1.845,0,0,0-1.2.427,2.868,2.868,0,0,0-.815,1.531,21.124,21.124,0,0,0-.381,4.825,20.969,20.969,0,0,0,.342,4.66A3.277,3.277,0,0,0,21.024,1.1a1.837,1.837,0,0,0,1.19.421,1.845,1.845,0,0,0,1.2-.427,2.868,2.868,0,0,0,.815-1.531,20.937,20.937,0,0,0,.381-4.811,20.969,20.969,0,0,0-.342-4.66,3.322,3.322,0,0,0-.861-1.7A1.82,1.82,0,0,0,22.214-12.031ZM43.418.826V4.257H30.469A8.918,8.918,0,0,1,31.731.57a24.538,24.538,0,0,1,4.154-4.621,26.128,26.128,0,0,0,3.063-3.155,4.064,4.064,0,0,0,.762-2.261,2.57,2.57,0,0,0-.664-1.9,2.478,2.478,0,0,0-1.834-.664,2.461,2.461,0,0,0-1.84.7,3.578,3.578,0,0,0-.789,2.314L30.9-9.388a6.035,6.035,0,0,1,2.064-4.378,6.93,6.93,0,0,1,4.338-1.328,6.27,6.27,0,0,1,4.483,1.538,5.045,5.045,0,0,1,1.63,3.825,6.659,6.659,0,0,1-.467,2.478,10.077,10.077,0,0,1-1.479,2.465,23.665,23.665,0,0,1-2.419,2.458Q37.305-.725,36.838-.2A6.376,6.376,0,0,0,36.083.826Zm11.95,3.431H51.674V-9.664a12.735,12.735,0,0,1-4.772,2.8v-3.352a10.683,10.683,0,0,0,3.142-1.794,6.819,6.819,0,0,0,2.327-3.083h3Z" transform="translate(-0.523 15.094)"/><path class="d" d="M10.127,4.257H6.433V-9.664a12.735,12.735,0,0,1-4.772,2.8v-3.352A10.683,10.683,0,0,0,4.8-12.011,6.818,6.818,0,0,0,7.13-15.094h3Zm13.488,0H19.921V-9.664a12.735,12.735,0,0,1-4.772,2.8v-3.352a10.683,10.683,0,0,0,3.142-1.794,6.819,6.819,0,0,0,2.327-3.083h3Z" transform="translate(78.688 15.094)"/><path class="d" d="M13.472.826V4.257H.523A8.918,8.918,0,0,1,1.785.57,24.538,24.538,0,0,1,5.939-4.051,26.129,26.129,0,0,0,9-7.206a4.064,4.064,0,0,0,.762-2.261,2.57,2.57,0,0,0-.664-1.9,2.478,2.478,0,0,0-1.834-.664,2.461,2.461,0,0,0-1.84.7A3.578,3.578,0,0,0,4.638-9.02L.957-9.388a6.035,6.035,0,0,1,2.064-4.378,6.93,6.93,0,0,1,4.338-1.328,6.27,6.27,0,0,1,4.483,1.538,5.045,5.045,0,0,1,1.63,3.825A6.659,6.659,0,0,1,13-7.252a10.077,10.077,0,0,1-1.479,2.465A23.666,23.666,0,0,1,9.107-2.329Q7.359-.725,6.892-.2A6.377,6.377,0,0,0,6.136.826Zm8.742-15.92a5.266,5.266,0,0,1,4.378,2q1.88,2.366,1.88,7.848T26.578,2.614a5.257,5.257,0,0,1-4.364,1.972,5.515,5.515,0,0,1-4.535-2.162Q15.956.261,15.956-5.287q0-5.442,1.893-7.835A5.257,5.257,0,0,1,22.214-15.094Zm0,3.063a1.845,1.845,0,0,0-1.2.427,2.868,2.868,0,0,0-.815,1.531,21.124,21.124,0,0,0-.381,4.825,20.969,20.969,0,0,0,.342,4.66A3.277,3.277,0,0,0,21.024,1.1a1.837,1.837,0,0,0,1.19.421,1.845,1.845,0,0,0,1.2-.427,2.868,2.868,0,0,0,.815-1.531,20.937,20.937,0,0,0,.381-4.811,20.969,20.969,0,0,0-.342-4.66,3.322,3.322,0,0,0-.861-1.7A1.82,1.82,0,0,0,22.214-12.031Z" transform="translate(124.288 15.094)"/><g class="e" transform="translate(222.583 5.346)"><path class="d" d="M4.085-2.054a19.315,19.315,0,0,0,.169-2.585h7.031v2.585Zm7.2-6.231v2.554H4.254V-8.285Zm1.185-1.123H3.1V-4.7C3.1-2.254,2.854.869.408,3.023a4.329,4.329,0,0,1,.846.831A8.677,8.677,0,0,0,3.9-.931h7.385V2.146c0,.338-.123.446-.477.462-.354,0-1.585.015-2.862-.031a5.457,5.457,0,0,1,.477,1.185,12.371,12.371,0,0,0,3.246-.215c.569-.185.8-.585.8-1.385Z" transform="translate(-0.408 9.408)"/></g><g class="e" transform="translate(270.645 5.592)"><path class="d" d="M3.314,1.476V-2.816h7.631V1.476Zm7.631-9.569v4.154H3.314V-8.093ZM2.16-9.216V3.6H3.314v-1h7.631v.938h1.2V-9.216Z" transform="translate(-2.16 9.216)"/></g><path class="d" d="M10.127,4.257H6.433V-9.664a12.735,12.735,0,0,1-4.772,2.8v-3.352A10.683,10.683,0,0,0,4.8-12.011,6.818,6.818,0,0,0,7.13-15.094h3Zm18-3.431V4.257H15.175A8.918,8.918,0,0,1,16.437.57a24.538,24.538,0,0,1,4.154-4.621,26.128,26.128,0,0,0,3.063-3.155,4.064,4.064,0,0,0,.762-2.261,2.57,2.57,0,0,0-.664-1.9,2.478,2.478,0,0,0-1.834-.664,2.461,2.461,0,0,0-1.84.7A3.578,3.578,0,0,0,19.29-9.02l-3.681-.368a6.035,6.035,0,0,1,2.064-4.378,6.93,6.93,0,0,1,4.338-1.328,6.27,6.27,0,0,1,4.483,1.538,5.045,5.045,0,0,1,1.63,3.825,6.659,6.659,0,0,1-.467,2.478,10.077,10.077,0,0,1-1.479,2.465,23.666,23.666,0,0,1-2.419,2.458Q22.011-.725,21.544-.2A6.377,6.377,0,0,0,20.788.826Z" transform="translate(189.369 15.094)"/><path class="d" d="M.79-.857l3.576-.434A3.385,3.385,0,0,0,5.285.8,2.517,2.517,0,0,0,7.1,1.523,2.492,2.492,0,0,0,9.025.655a3.364,3.364,0,0,0,.782-2.34,3.137,3.137,0,0,0-.749-2.209,2.389,2.389,0,0,0-1.827-.815,6.444,6.444,0,0,0-1.7.276l.408-3.01A3.238,3.238,0,0,0,8.23-8.094a2.316,2.316,0,0,0,.789-1.834,2.1,2.1,0,0,0-.578-1.551A2.079,2.079,0,0,0,6.9-12.057a2.226,2.226,0,0,0-1.617.657A3.088,3.088,0,0,0,4.47-9.48l-3.4-.578a7.61,7.61,0,0,1,1.071-2.794,4.836,4.836,0,0,1,2-1.643,6.711,6.711,0,0,1,2.872-.6,5.729,5.729,0,0,1,4.364,1.735,4.53,4.53,0,0,1,1.354,3.208q0,2.537-2.774,4.049A4.488,4.488,0,0,1,12.6-4.511a4.616,4.616,0,0,1,.993,2.984A5.788,5.788,0,0,1,11.74,2.8,6.385,6.385,0,0,1,7.126,4.586,6.353,6.353,0,0,1,2.788,3.08,5.915,5.915,0,0,1,.79-.857ZM25.346,4.257H21.652V-9.664a12.735,12.735,0,0,1-4.772,2.8v-3.352a10.683,10.683,0,0,0,3.142-1.794,6.818,6.818,0,0,0,2.327-3.083h3Z" transform="translate(238.576 15.094)"/></g></g><path class="c" d="M267.63,317a.527.527,0,0,1-.06,0,.738.738,0,0,1-.689-.7,1.047,1.047,0,0,0-.016-.127,2.357,2.357,0,0,1-.038-.392,1.6,1.6,0,0,0-.014-.164,2.909,2.909,0,0,1-.022-.394l0-.2c0-.12,0-.24.011-.363a2.785,2.785,0,0,1,.054-.372c.011-.059.025-.119.03-.179a1.523,1.523,0,0,1,.142-.5l.012-.025,0-.008a1.218,1.218,0,0,1,.152-1.13l0,0,0-.012a1.511,1.511,0,0,1-.011-.542,1.568,1.568,0,0,1,.191-.478c.014-.026.031-.052.042-.079a2.047,2.047,0,0,1,.115-.35,1.242,1.242,0,0,0,.054-.148.926.926,0,0,0,.02-.15,2.458,2.458,0,0,1,.072-.405.818.818,0,0,0,.008-.1,1.849,1.849,0,0,1,.075-.457c.04-.12.09-.237.14-.351.026-.059.052-.115.073-.174a1.065,1.065,0,0,1,.073-.157v-.01l-.016-.047a1.4,1.4,0,0,1-.113-.532.994.994,0,0,0-.02-.164,3.005,3.005,0,0,1-.034-.337c0-.1,0-.19,0-.283,0-.074.006-.147,0-.22a1.249,1.249,0,0,1,.158-.642l-.007-.084c-.006-.062-.009-.123-.016-.184a1.337,1.337,0,0,1-.291-.539,1.759,1.759,0,0,0-.073-.222c-.026-.072-.053-.146-.076-.22a.7.7,0,0,0-.336-.816c-.04-.069-.075-.142-.111-.214a1.4,1.4,0,0,0-.082-.155c.021.031,0,.016-.027,0a1.739,1.739,0,0,1-.342-.249,1.092,1.092,0,0,1-.3-.578,2.228,2.228,0,0,1-.3-.147c-.066-.041-.133-.086-.2-.131a1.928,1.928,0,0,0-.213-.133,1.636,1.636,0,0,0-.212-.081c-.087-.031-.176-.061-.26-.1a2.83,2.83,0,0,1-.3-.155c-.034-.02-.067-.041-.1-.059l-.038,0a1.482,1.482,0,0,1-.544-.04c-.1-.028-.2-.051-.3-.074l-.2-.049c-.106-.026-.214-.048-.323-.071l-.187-.039c-.078-.018-.16-.027-.241-.038s-.182-.025-.274-.042a1.121,1.121,0,0,1-.417-.175,1.78,1.78,0,0,1-.323-.026,1.1,1.1,0,0,1-.3,0,1.2,1.2,0,0,1-.121-.024,2.106,2.106,0,0,1-.4.02c-.065,0-.131,0-.2,0-.12,0-.245,0-.367-.009s-.226-.028-.338-.047c-.072-.012-.142-.025-.214-.032a1.269,1.269,0,0,1-.606-.254l-.014-.011-.172-.021c-.073-.009-.146-.02-.219-.027a1.3,1.3,0,0,1-.57.1,1.742,1.742,0,0,1-.269-.041,1.153,1.153,0,0,1-.269.015c-.08,0-.16,0-.24,0-.1,0-.188,0-.283,0a2.435,2.435,0,0,1-.328-.037.962.962,0,0,0-.106-.015.82.82,0,0,1-.092,0,.743.743,0,0,1,.035-1.483,1.381,1.381,0,0,1,.571-.1c.106.007.214.024.325.041a1.793,1.793,0,0,0,.211.028,1.669,1.669,0,0,1,.166.02,1.345,1.345,0,0,1,.391-.034c.106.008.21,0,.311.007a1.07,1.07,0,0,1,.233-.008l.555.038a1.78,1.78,0,0,1,.465.113.849.849,0,0,0,.1.033,1.216,1.216,0,0,1,.51.178,1.247,1.247,0,0,1,.591-.093,1.608,1.608,0,0,1,.418.117h.013c.049,0,.1.006.15.011a1.335,1.335,0,0,1,.434-.058,1.085,1.085,0,0,1,.4-.122,2.124,2.124,0,0,0,.24-.046c.072-.017.145-.033.22-.046a2.754,2.754,0,0,1,.308-.034,1.176,1.176,0,0,0,.153-.015.828.828,0,0,0,.12-.061,2.418,2.418,0,0,1,.29-.141,1.07,1.07,0,0,1,.566-.051,1.284,1.284,0,0,1,.3-.277c.015-.013.038-.041.062-.068a2,2,0,0,1,.279-.267c.124-.1.239-.2.361-.307a3.112,3.112,0,0,1,.247-.192,1.022,1.022,0,0,0,.141-.109,1.577,1.577,0,0,1,.394-.277.776.776,0,0,0,.077-.042c-.006,0,.014-.045.038-.087a2.358,2.358,0,0,1,.2-.3c-.018.02-.013,0,0-.031a1.528,1.528,0,0,1,.208-.433,2.4,2.4,0,0,1,.241-.274.875.875,0,0,0,.091-.1.742.742,0,0,0,.062-.139,2.551,2.551,0,0,1,.147-.309,3.081,3.081,0,0,1,.179-.266.886.886,0,0,0,.1-.142,1.4,1.4,0,0,1,.3-.376,1.236,1.236,0,0,1,.071-.536,1.2,1.2,0,0,1,.366-.484v-.009a1.916,1.916,0,0,1,.06-.41,1.262,1.262,0,0,0,.029-.18,3.016,3.016,0,0,1,.051-.311,1.424,1.424,0,0,1,.235-.493l.007-.01,0-.04a1.831,1.831,0,0,1,0-.435,2.305,2.305,0,0,1,.094-.373l.024-.068a1.464,1.464,0,0,1-.1-.572,1.5,1.5,0,0,0-.007-.177,3.039,3.039,0,0,1-.012-.327c0-.1.013-.2.025-.306a1.608,1.608,0,0,0,.016-.2,1.931,1.931,0,0,0-.016-.2c-.012-.1-.023-.2-.027-.3a.746.746,0,0,1,.3-.627,1.362,1.362,0,0,1,.146-.384,1.331,1.331,0,0,1-.1-.512,1.137,1.137,0,0,1,.15-.522,1.151,1.151,0,0,1-.146-.513,1.569,1.569,0,0,0-.022-.194c-.015-.1-.029-.207-.035-.312a1.289,1.289,0,0,1,.124-.588l-.012-.034a2.043,2.043,0,0,1-.1-.392,1.848,1.848,0,0,1,0-.4,1.161,1.161,0,0,1-.327-.54.743.743,0,0,1,1.392-.5,1.229,1.229,0,0,1,.405.656,1.89,1.89,0,0,1,.014.479.68.68,0,0,0-.006.111.833.833,0,0,0,.033.1,1.887,1.887,0,0,1,.112.457,1.289,1.289,0,0,1-.13.633l-.006.017.014.1c.013.09.026.179.033.269a1.3,1.3,0,0,1,.213.665,1.16,1.16,0,0,1-.172.579,1.164,1.164,0,0,1-.093,1.114l0,.008.009.066a2.6,2.6,0,0,1,.025.343l.017.05a1.4,1.4,0,0,1,.1.557,1.159,1.159,0,0,1-.283.66l-.025.611,0,.078a1.011,1.011,0,0,1,0,.158l0,.041v.023c0,.085,0,.17,0,.254s0,.181,0,.272a1,1,0,0,0,.02.151,2.58,2.58,0,0,1,.04.365,1.021,1.021,0,0,0,.025.1,1.943,1.943,0,0,1,.072.407,2.622,2.622,0,0,1-.015.358.981.981,0,0,0-.008.155.678.678,0,0,0,.032.1,2.066,2.066,0,0,1,.1.4,1.266,1.266,0,0,1-.077.57,1.632,1.632,0,0,1,.167.43c0-.028.011,0,.027.019a1.614,1.614,0,0,1,.2.436c.023.087.041.174.059.26s.028.146.051.219a1.283,1.283,0,0,1,.026.615v.008c.028.065.06.132.091.2l.075.165c.04.085.073.175.106.267.009.023.019.048.027.073a1.188,1.188,0,0,1,.505.438,2.2,2.2,0,0,1,.157.339.708.708,0,0,0,.049.119.722.722,0,0,0,.094.1,2.565,2.565,0,0,1,.238.266,1.716,1.716,0,0,1,.213.4.737.737,0,0,0,.038.087,1.3,1.3,0,0,1,.2.363,1.154,1.154,0,0,1,.533.291l.137.139c.072.074.143.149.22.22a2.548,2.548,0,0,1,.244.272.888.888,0,0,0,.1.114,1,1,0,0,0,.139.089,2.709,2.709,0,0,1,.29.2.812.812,0,0,0,.124.068,2.513,2.513,0,0,1,.32.194,1.519,1.519,0,0,1,.343.377c.017.022.031.046.048.067,0-.012.054.015.106.041a2.817,2.817,0,0,1,.305.167c.144.093.288.184.437.273a1.4,1.4,0,0,1,.372.349,1.274,1.274,0,0,1,.548.135,1.11,1.11,0,0,1,.376.338,1.046,1.046,0,0,1,.577.085.957.957,0,0,1,.352.286c.052.012.106.018.16.026a2.936,2.936,0,0,1,.368.071,1.479,1.479,0,0,1,.4.181.9.9,0,0,1,.157.046,1.014,1.014,0,0,1,.24.133l.052.021a1.745,1.745,0,0,0,.172.067c.108.034.214.075.319.118l.009,0a1.016,1.016,0,0,1,.323.1l.032.006c.1.019.191.039.283.066a1.408,1.408,0,0,1,.648.04,1.761,1.761,0,0,1,.413.221.906.906,0,0,0,.085.054.927.927,0,0,1,.144.064c.066.029.124.06.173.086a.708.708,0,0,0,.091.046,2.664,2.664,0,0,1,.31.1c.034.012.067.025.1.035a1.112,1.112,0,0,1,.17.047.743.743,0,0,1-.392,1.43l-.112-.027-.062,0a1.737,1.737,0,0,1-.47-.086,1.487,1.487,0,0,1-.439-.26h-.021a1.532,1.532,0,0,1-.527-.041.613.613,0,0,1-.075,0,1.647,1.647,0,0,1-.49-.063,1.193,1.193,0,0,1-.5-.324,1.233,1.233,0,0,1-.558-.052,1.148,1.148,0,0,0-1.051-.4.883.883,0,0,0-.118-.026,1.94,1.94,0,0,1-.43-.123.946.946,0,0,1-.291-.2,1.249,1.249,0,0,1-.538.029,2.488,2.488,0,0,1-.344-.1.932.932,0,0,0-.15-.045,1.293,1.293,0,0,1-.576-.267l-.012-.008-.151-.024c-.084-.014-.166-.028-.248-.034a1.694,1.694,0,0,0-.188.009c-.11.009-.225.015-.322.014s-.175-.007-.263-.014a2.1,2.1,0,0,0-.239-.011l-.188,0c-.1,0-.211,0-.312.013a1,1,0,0,0-.164.042,2.66,2.66,0,0,1-.319.079c-.018.007-.051.026-.085.041a2.053,2.053,0,0,1-.372.143,1.582,1.582,0,0,0-.2.074c-.08.033-.161.066-.245.094a1.956,1.956,0,0,0-.234.1l-.192.09a1.66,1.66,0,0,1-.427.114c-.031,0-.06.008-.088.015.017,0-.013.034-.045.065a2.5,2.5,0,0,1-.24.208,1.3,1.3,0,0,1-.474.21,1.664,1.664,0,0,1-.234.366,1.636,1.636,0,0,1-.336.284.9.9,0,0,0-.079.057l-.147.242-.086.139a.973.973,0,0,0-.054.134,2.6,2.6,0,0,1-.14.326,2.085,2.085,0,0,1-.212.3,1.1,1.1,0,0,1-.035.679,1.111,1.111,0,0,1-.122.223c0,.021,0,.041,0,.062a1.339,1.339,0,0,1-.181.563.141.141,0,0,1-.02.035c-.012.1-.029.2-.048.293-.012.061-.025.124-.031.186a1.048,1.048,0,0,0,0,.148,2.347,2.347,0,0,1-.008.4c.006-.035.012,0,.018.025a1.491,1.491,0,0,1,.035.53,1.373,1.373,0,0,1-.215.539l-.018.027c0,.039,0,.078,0,.117a2.72,2.72,0,0,1-.029.367,1.38,1.38,0,0,1-.2.495,1.279,1.279,0,0,1,.038.57c0,.032,0,.069,0,.108a1.733,1.733,0,0,1-.025.43,1.847,1.847,0,0,1-.149.429.8.8,0,0,0-.041.091c-.009.052-.015.116-.021.181a3.172,3.172,0,0,1-.048.338c-.014.072-.025.145-.033.218-.015.1-.028.2-.05.3a1.67,1.67,0,0,1-.161.431A.768.768,0,0,1,267.63,317Zm1.471-4.74v0Zm.264-2.149h0Zm-1.316-1.145v0Zm-.013-2.052a.131.131,0,0,0,0,.021Zm-.048-.473v0Zm1.149-.867a1.339,1.339,0,0,1,.318.626c0,.026.008.052.012.079.047-.037.092-.067.132-.094a.849.849,0,0,0,.075-.054c-.02.013,0-.021.013-.049a1.543,1.543,0,0,1,.317-.458,1.287,1.287,0,0,1,.612-.3l.028-.007.053-.051a1.894,1.894,0,0,1,.4-.311,1.532,1.532,0,0,1,.529-.164c.028,0,.059-.008.086-.015l.124-.06a3.5,3.5,0,0,1,.4-.172c.055-.019.107-.04.159-.061a2.926,2.926,0,0,1,.406-.141c.029-.011.062-.028.1-.043a1.729,1.729,0,0,1,.472-.164,1.507,1.507,0,0,0,.148-.039,2.271,2.271,0,0,1,.436-.1c.14-.014.286-.018.432-.02l.071,0a1.67,1.67,0,0,1-.277-.323.751.751,0,0,0-.047-.067.5.5,0,0,1-.088-.038,2.27,2.27,0,0,1-.357-.222,1.362,1.362,0,0,0-.138-.09,2.437,2.437,0,0,1-.333-.233,2.205,2.205,0,0,1-.29-.313,1.04,1.04,0,0,0-.094-.109c-.1-.09-.187-.184-.278-.278l-.041-.041a1.223,1.223,0,0,1-.641-.341,1.5,1.5,0,0,1-.278-.478c-.01-.026-.02-.054-.033-.079a1.485,1.485,0,0,1-.224-.407.711.711,0,0,0-.038-.087c-.018-.022-.054-.055-.088-.089a2.2,2.2,0,0,1-.279-.324,2.024,2.024,0,0,1-.2-.411l-.006-.015a1.155,1.155,0,0,1-.532-.482,3.093,3.093,0,0,1-.158-.377c-.021-.055-.041-.112-.065-.165l-.068-.146c-.06-.128-.119-.256-.168-.384a1.281,1.281,0,0,1-.045-.675l0-.025c-.027-.1-.047-.2-.067-.294-.012-.058-.022-.115-.038-.172,0,.014-.017-.014-.031-.036a1.592,1.592,0,0,1-.206-.449,1.54,1.54,0,0,1-.286.332l-.057.054a1.694,1.694,0,0,1-.185.289,1.5,1.5,0,0,0-.092.133,1.025,1.025,0,0,0-.061.134,2.274,2.274,0,0,1-.19.378,1.929,1.929,0,0,1-.28.332.807.807,0,0,0-.092.1c.011-.011,0,.018-.007.044a1.485,1.485,0,0,1-.244.479,1.008,1.008,0,0,0-.073.119,2.19,2.19,0,0,1-.248.36,1.526,1.526,0,0,1-.45.332c-.025.014-.05.026-.072.041a2.181,2.181,0,0,1-.3.246,1.291,1.291,0,0,0-.118.089c-.153.137-.3.263-.45.379a.627.627,0,0,0-.082.086,1.777,1.777,0,0,1-.358.32c.033-.022.019,0,0,.021a1.594,1.594,0,0,1-.284.31c.066.033.131.068.2.1a1.007,1.007,0,0,0,.137.073c.055.024.114.044.171.064a3.051,3.051,0,0,1,.393.157,3.262,3.262,0,0,1,.381.231c.047.032.094.064.141.093a.742.742,0,0,0,.121.052,1.838,1.838,0,0,1,.449.237,1.087,1.087,0,0,1,.391.7,1.415,1.415,0,0,1,.409.346,2.291,2.291,0,0,1,.244.413l.016.035a1.192,1.192,0,0,1,.53.55,1.153,1.153,0,0,1,.019.76l.015.044C269.07,305.359,269.107,305.463,269.136,305.57Zm.022.089h0Zm6.953-.128h0Zm-7.6-1.533h0Zm.707-17.718h0Zm1.019-.99h0Z" transform="translate(34.132 -29.299)"/><path class="c" d="M288.475,288.059c-5.136.6-6.253,5.247-6.812,8.7-.558-3.456-1.526-5.759-2.27-6.395a6.536,6.536,0,0,0-6.03-2.158c6.328-1.555,7.965-4.616,8.71-9.773C282.073,284.486,283.785,286.654,288.475,288.059Z" transform="translate(37.118 -30.33)"/><path class="c" d="M110.63,306a.483.483,0,0,1-.06,0,.738.738,0,0,1-.689-.7,1.073,1.073,0,0,0-.016-.127,2.36,2.36,0,0,1-.038-.392,1.558,1.558,0,0,0-.014-.164,2.919,2.919,0,0,1-.022-.394l0-.2c0-.12,0-.24.011-.363a2.756,2.756,0,0,1,.054-.372c.011-.059.025-.119.029-.179a1.522,1.522,0,0,1,.143-.5l.012-.025,0-.008a1.219,1.219,0,0,1,.152-1.13l0,0,0-.012a1.513,1.513,0,0,1-.011-.542,1.568,1.568,0,0,1,.191-.478c.014-.026.031-.052.042-.079a2.05,2.05,0,0,1,.115-.35,1.224,1.224,0,0,0,.054-.148.928.928,0,0,0,.02-.15,2.45,2.45,0,0,1,.072-.405.837.837,0,0,0,.008-.1,1.845,1.845,0,0,1,.075-.457c.04-.12.089-.237.14-.351.026-.059.052-.115.073-.174a1.064,1.064,0,0,1,.073-.157v-.011l-.016-.047a1.4,1.4,0,0,1-.113-.532,1,1,0,0,0-.02-.164,2.989,2.989,0,0,1-.034-.337c0-.1,0-.19,0-.283,0-.074.006-.147,0-.22a1.248,1.248,0,0,1,.158-.642l-.007-.084c-.006-.062-.009-.124-.016-.184a1.338,1.338,0,0,1-.291-.539,1.759,1.759,0,0,0-.073-.223c-.026-.072-.053-.146-.077-.22a.7.7,0,0,0-.336-.816c-.04-.069-.075-.142-.111-.214a1.413,1.413,0,0,0-.082-.155c.021.031,0,.016-.027,0a1.736,1.736,0,0,1-.341-.248,1.092,1.092,0,0,1-.3-.578,2.241,2.241,0,0,1-.3-.147c-.066-.041-.133-.086-.2-.131a1.95,1.95,0,0,0-.213-.133,1.657,1.657,0,0,0-.212-.081c-.087-.031-.175-.061-.26-.1a2.829,2.829,0,0,1-.3-.155c-.034-.02-.067-.041-.1-.059l-.038,0a1.479,1.479,0,0,1-.544-.04c-.1-.028-.2-.051-.3-.074l-.2-.049c-.106-.026-.214-.048-.323-.071l-.187-.039c-.078-.018-.16-.027-.241-.038s-.183-.025-.274-.042a1.121,1.121,0,0,1-.417-.175,1.786,1.786,0,0,1-.323-.026,1.1,1.1,0,0,1-.3,0c-.042-.006-.082-.014-.121-.023a2.1,2.1,0,0,1-.4.02c-.065,0-.131,0-.2,0-.12,0-.245,0-.367-.009s-.226-.028-.338-.047c-.072-.012-.142-.025-.214-.032a1.27,1.27,0,0,1-.606-.254l-.014-.011-.172-.021c-.073-.009-.146-.02-.219-.027a1.3,1.3,0,0,1-.57.1,1.725,1.725,0,0,1-.27-.041,1.156,1.156,0,0,1-.268.015c-.08,0-.16,0-.24,0-.1,0-.188,0-.283,0a2.4,2.4,0,0,1-.329-.037,1.015,1.015,0,0,0-.106-.015.8.8,0,0,1-.092,0,.743.743,0,0,1,.035-1.482,1.379,1.379,0,0,1,.571-.1c.106.007.214.024.325.041a1.812,1.812,0,0,0,.211.028,1.656,1.656,0,0,1,.166.02,1.344,1.344,0,0,1,.391-.034c.106.008.21,0,.311.007a1.066,1.066,0,0,1,.233-.008l.555.038a1.776,1.776,0,0,1,.465.113.859.859,0,0,0,.1.033,1.217,1.217,0,0,1,.51.178,1.248,1.248,0,0,1,.591-.093,1.609,1.609,0,0,1,.418.117h.013c.049,0,.1.006.15.011a1.337,1.337,0,0,1,.434-.058,1.086,1.086,0,0,1,.4-.122,2.1,2.1,0,0,0,.24-.046c.072-.016.145-.033.22-.046a2.752,2.752,0,0,1,.309-.034,1.15,1.15,0,0,0,.153-.015.818.818,0,0,0,.12-.061,2.445,2.445,0,0,1,.29-.141,1.069,1.069,0,0,1,.566-.051,1.28,1.28,0,0,1,.3-.277c.015-.013.038-.041.062-.068a2.008,2.008,0,0,1,.279-.267c.124-.1.239-.2.361-.307a3.052,3.052,0,0,1,.247-.192,1.03,1.03,0,0,0,.141-.11,1.578,1.578,0,0,1,.394-.277.786.786,0,0,0,.077-.042c-.006,0,.014-.045.038-.087a2.346,2.346,0,0,1,.2-.3c-.018.02-.013,0,0-.031a1.529,1.529,0,0,1,.208-.433,2.386,2.386,0,0,1,.241-.274.872.872,0,0,0,.091-.1.748.748,0,0,0,.062-.139,2.547,2.547,0,0,1,.147-.309,3.085,3.085,0,0,1,.179-.266.888.888,0,0,0,.1-.142,1.4,1.4,0,0,1,.3-.376,1.234,1.234,0,0,1,.071-.536,1.2,1.2,0,0,1,.366-.484v-.009a1.909,1.909,0,0,1,.06-.41,1.25,1.25,0,0,0,.029-.18,3,3,0,0,1,.051-.311,1.425,1.425,0,0,1,.236-.493l.007-.011,0-.04a1.831,1.831,0,0,1,0-.435,2.312,2.312,0,0,1,.094-.373l.024-.068a1.463,1.463,0,0,1-.1-.572,1.531,1.531,0,0,0-.007-.177,3.046,3.046,0,0,1-.012-.327c0-.1.013-.2.025-.306a1.645,1.645,0,0,0,.016-.2,1.946,1.946,0,0,0-.016-.2c-.012-.1-.024-.2-.027-.3a.745.745,0,0,1,.3-.626,1.364,1.364,0,0,1,.146-.384,1.329,1.329,0,0,1-.1-.512,1.137,1.137,0,0,1,.15-.522,1.149,1.149,0,0,1-.146-.513,1.562,1.562,0,0,0-.022-.194c-.015-.1-.029-.207-.035-.312a1.288,1.288,0,0,1,.124-.588l-.012-.034a2.051,2.051,0,0,1-.1-.392,1.853,1.853,0,0,1,0-.4,1.161,1.161,0,0,1-.327-.54.743.743,0,0,1,1.392-.5,1.228,1.228,0,0,1,.405.656,1.882,1.882,0,0,1,.014.479.7.7,0,0,0-.006.111.866.866,0,0,0,.033.1,1.885,1.885,0,0,1,.112.457,1.29,1.29,0,0,1-.13.634l-.006.016.014.1c.013.09.026.179.033.268a1.3,1.3,0,0,1,.213.665,1.16,1.16,0,0,1-.172.579,1.164,1.164,0,0,1-.093,1.114l0,.008.009.066a2.581,2.581,0,0,1,.025.343l.016.049a1.4,1.4,0,0,1,.1.557,1.159,1.159,0,0,1-.283.661l-.025.611,0,.078a1.025,1.025,0,0,1,0,.158l0,.041v.023c0,.085,0,.17,0,.254s0,.181,0,.272a1,1,0,0,0,.02.151,2.579,2.579,0,0,1,.04.365.988.988,0,0,0,.025.1,1.947,1.947,0,0,1,.072.407,2.6,2.6,0,0,1-.015.358.983.983,0,0,0-.008.155.66.66,0,0,0,.032.1,2.064,2.064,0,0,1,.1.4,1.266,1.266,0,0,1-.077.57,1.633,1.633,0,0,1,.167.43c0-.028.011,0,.027.019a1.612,1.612,0,0,1,.2.436c.024.087.041.174.059.26s.028.146.051.219a1.285,1.285,0,0,1,.026.615v.008c.028.065.06.132.091.2l.075.165c.04.085.073.176.106.267.009.024.019.048.027.073a1.189,1.189,0,0,1,.505.438,2.2,2.2,0,0,1,.157.339.7.7,0,0,0,.049.119.729.729,0,0,0,.094.1,2.565,2.565,0,0,1,.238.266,1.716,1.716,0,0,1,.213.4.719.719,0,0,0,.038.087,1.307,1.307,0,0,1,.2.363,1.156,1.156,0,0,1,.533.291l.137.139c.072.074.144.15.22.22a2.557,2.557,0,0,1,.244.272.906.906,0,0,0,.1.114,1,1,0,0,0,.139.089,2.687,2.687,0,0,1,.29.2.823.823,0,0,0,.124.068,2.509,2.509,0,0,1,.32.194,1.518,1.518,0,0,1,.343.377c.016.022.031.046.048.067,0-.012.054.015.106.041a2.885,2.885,0,0,1,.3.167c.144.093.288.184.437.273a1.4,1.4,0,0,1,.372.349,1.276,1.276,0,0,1,.547.135,1.109,1.109,0,0,1,.376.338,1.046,1.046,0,0,1,.577.085.956.956,0,0,1,.352.286c.052.012.106.018.16.026a2.954,2.954,0,0,1,.369.071,1.48,1.48,0,0,1,.4.181.912.912,0,0,1,.157.046,1.016,1.016,0,0,1,.24.133l.052.021a1.834,1.834,0,0,0,.172.067c.108.034.214.075.319.118l.009,0a1.041,1.041,0,0,1,.18.042,1.054,1.054,0,0,1,.142.06l.032.006c.1.019.191.039.283.066a1.408,1.408,0,0,1,.648.04,1.759,1.759,0,0,1,.413.221.93.93,0,0,0,.085.054.94.94,0,0,1,.144.064c.066.029.124.06.173.086a.745.745,0,0,0,.091.046,2.648,2.648,0,0,1,.31.1c.034.012.067.025.1.035a1.122,1.122,0,0,1,.17.047.743.743,0,0,1-.392,1.429l-.112-.027c-.015,0-.039,0-.062,0a1.732,1.732,0,0,1-.47-.086,1.486,1.486,0,0,1-.439-.26h-.021a1.532,1.532,0,0,1-.527-.041.624.624,0,0,1-.075,0,1.645,1.645,0,0,1-.49-.062,1.193,1.193,0,0,1-.5-.324,1.235,1.235,0,0,1-.558-.052,1.148,1.148,0,0,0-1.051-.4.887.887,0,0,0-.118-.026,1.94,1.94,0,0,1-.43-.122.949.949,0,0,1-.291-.2,1.251,1.251,0,0,1-.538.029,2.474,2.474,0,0,1-.344-.1.95.95,0,0,0-.15-.045,1.294,1.294,0,0,1-.576-.267l-.012-.008-.151-.023c-.084-.014-.166-.028-.248-.034a1.736,1.736,0,0,0-.188.009c-.109.009-.225.015-.321.014s-.175-.007-.263-.014a2.087,2.087,0,0,0-.239-.011l-.188,0c-.1,0-.211,0-.312.013a.982.982,0,0,0-.164.042,2.683,2.683,0,0,1-.319.079c-.018.007-.051.026-.085.041a2.044,2.044,0,0,1-.372.142,1.588,1.588,0,0,0-.2.074c-.08.033-.161.066-.245.094a1.962,1.962,0,0,0-.234.1l-.192.089a1.649,1.649,0,0,1-.427.114c-.031,0-.06.008-.088.015.016,0-.013.034-.045.065a2.5,2.5,0,0,1-.24.208,1.3,1.3,0,0,1-.475.21,1.665,1.665,0,0,1-.234.366,1.63,1.63,0,0,1-.336.284.958.958,0,0,0-.079.057l-.147.243-.086.139a.968.968,0,0,0-.054.134,2.594,2.594,0,0,1-.14.326,2.079,2.079,0,0,1-.212.3,1.049,1.049,0,0,1-.158.9c0,.021,0,.041,0,.063a1.342,1.342,0,0,1-.181.563.14.14,0,0,1-.02.035c-.012.1-.029.2-.048.293-.012.061-.025.124-.031.186a1.044,1.044,0,0,0,0,.148,2.347,2.347,0,0,1-.008.4c.006-.035.012,0,.018.025a1.489,1.489,0,0,1,.035.53,1.373,1.373,0,0,1-.215.539l-.018.027c0,.039,0,.078,0,.117a2.712,2.712,0,0,1-.029.367,1.378,1.378,0,0,1-.2.495,1.281,1.281,0,0,1,.038.57c0,.032,0,.069,0,.108a1.726,1.726,0,0,1-.025.43,1.844,1.844,0,0,1-.148.428.778.778,0,0,0-.041.091c-.009.052-.015.116-.021.181a3.167,3.167,0,0,1-.048.338c-.014.072-.025.145-.033.218-.015.1-.028.2-.049.3a1.674,1.674,0,0,1-.161.431A.768.768,0,0,1,110.63,306Zm1.471-4.741v0Zm.264-2.149h0Zm-1.316-1.145v0Zm-.013-2.052a.13.13,0,0,0,0,.021Zm-.048-.473v0Zm1.149-.867a1.339,1.339,0,0,1,.318.626c0,.026.008.052.012.079.047-.036.092-.067.132-.094a.884.884,0,0,0,.075-.054c-.02.013,0-.021.013-.049a1.54,1.54,0,0,1,.317-.458,1.288,1.288,0,0,1,.612-.3l.028-.007.053-.051a1.9,1.9,0,0,1,.4-.311,1.538,1.538,0,0,1,.529-.164c.028,0,.059-.008.086-.015l.124-.06a3.507,3.507,0,0,1,.4-.172c.055-.019.107-.04.159-.061a2.9,2.9,0,0,1,.406-.141c.029-.011.062-.028.1-.044a1.737,1.737,0,0,1,.472-.164c.048-.008.1-.025.148-.039a2.276,2.276,0,0,1,.436-.1c.14-.014.286-.018.432-.02l.071,0a1.67,1.67,0,0,1-.277-.323.744.744,0,0,0-.047-.067.491.491,0,0,1-.088-.038,2.26,2.26,0,0,1-.357-.222,1.36,1.36,0,0,0-.138-.09,2.448,2.448,0,0,1-.333-.233,2.218,2.218,0,0,1-.29-.313,1.047,1.047,0,0,0-.094-.109c-.1-.09-.187-.184-.278-.278l-.041-.041a1.223,1.223,0,0,1-.641-.342,1.5,1.5,0,0,1-.278-.478c-.011-.026-.02-.054-.033-.079a1.478,1.478,0,0,1-.224-.407.721.721,0,0,0-.038-.087c-.018-.022-.054-.055-.088-.09a2.185,2.185,0,0,1-.279-.324,2.021,2.021,0,0,1-.2-.411l-.006-.015a1.155,1.155,0,0,1-.532-.482,3.1,3.1,0,0,1-.158-.377c-.021-.055-.041-.112-.065-.165l-.068-.146c-.06-.128-.119-.256-.168-.384a1.28,1.28,0,0,1-.045-.675l0-.025c-.027-.1-.047-.2-.067-.294-.012-.058-.022-.115-.038-.172,0,.014-.017-.014-.031-.037a1.591,1.591,0,0,1-.206-.449,1.543,1.543,0,0,1-.286.332l-.056.054a1.691,1.691,0,0,1-.185.289,1.467,1.467,0,0,0-.092.133,1.041,1.041,0,0,0-.061.134,2.271,2.271,0,0,1-.19.378,1.938,1.938,0,0,1-.28.332.8.8,0,0,0-.092.1c.011-.011,0,.018-.007.044a1.477,1.477,0,0,1-.244.479,1.037,1.037,0,0,0-.073.119,2.173,2.173,0,0,1-.248.36,1.524,1.524,0,0,1-.45.332c-.025.014-.049.026-.072.041a2.19,2.19,0,0,1-.3.246,1.316,1.316,0,0,0-.118.089c-.153.137-.3.263-.45.379a.623.623,0,0,0-.082.086,1.777,1.777,0,0,1-.358.32c.033-.022.019,0,0,.021a1.6,1.6,0,0,1-.284.31c.066.033.131.068.2.1a1.025,1.025,0,0,0,.137.073c.055.023.114.044.171.064a3.042,3.042,0,0,1,.393.157,3.257,3.257,0,0,1,.381.231c.047.032.094.064.141.093a.754.754,0,0,0,.121.052,1.831,1.831,0,0,1,.449.237,1.087,1.087,0,0,1,.391.7,1.414,1.414,0,0,1,.409.346,2.3,2.3,0,0,1,.244.413l.016.035a1.191,1.191,0,0,1,.53.55,1.152,1.152,0,0,1,.019.759l.015.044C112.07,294.359,112.107,294.463,112.136,294.57Zm.022.09h0Zm6.953-.128h0Zm-7.6-1.533h0Zm.706-17.718h0Zm1.018-.99h0Z" transform="translate(7.458 -31.169)"/><path class="c" d="M131.475,277.059c-5.136.6-6.254,5.247-6.812,8.7-.558-3.456-1.526-5.759-2.27-6.395a6.536,6.536,0,0,0-6.03-2.158c6.328-1.555,7.965-4.616,8.71-9.773C125.073,273.486,126.785,275.654,131.475,277.059Z" transform="translate(10.408 -32.202)"/><g transform="translate(115.877 99.075)"><g class="g"><g transform="translate(7.548 27.078)"><path class="h" d="M182.709,407.556s14.4-41.638,16.832-43.1c15.758-9.455,33.5-32.354,33.5-32.354L248.8,313.958s-80.055-33.145-80.055-45.717S171.1,256.46,171.1,249.7c0-8.955-6.35-14.6-10.564-15.368-2.076-.38-1.6,5.277-3.134,9.738s-4.778,14.053-5.473,20.065c-1,8.688-4.013,16.782-4.743,23.714a175.484,175.484,0,0,0,.73,36.482c1.256,10.047-2.762,20.875-3.55,23.239-2.409,7.228-28.8,59.177-28.8,59.177" transform="translate(-113.618 -163.722)"/><path class="d" d="M172.882,397.79a1.944,1.944,0,0,1-1.836-2.578c.036-.1,3.651-10.549,7.518-21.038,2.275-6.172,4.192-11.156,5.7-14.814,2.839-6.895,3.666-7.8,4.452-8.275,6.281-3.769,13.961-10.46,22.209-19.351,6.279-6.768,10.71-12.47,10.754-12.527q.033-.043.069-.084L237.5,300.974a1.943,1.943,0,0,1,2.934,2.547l-15.723,18.109c-.433.555-4.824,6.147-10.917,12.718-3.759,4.054-7.428,7.689-10.9,10.8A82.885,82.885,0,0,1,190.9,354.3c-.256.356-1.138,1.825-3.442,7.5-1.493,3.679-3.36,8.566-5.55,14.526-3.736,10.167-7.157,20.05-7.191,20.149A1.944,1.944,0,0,1,172.882,397.79Z" transform="translate(-103.791 -152.012)"/><path class="h" d="M219.027,235.783s19.055-9.608,25.474-9.188c5.611.369,7.592,4.5,3.426,10.751-4.579,6.868-23.1,15.905-23.1,15.905Z" transform="translate(-95.257 -165.094)"/><path class="d" d="M244.365,224.932c.191,0,.378.006.556.018,3.282.216,5.7,1.577,6.817,3.833a7.122,7.122,0,0,1,.462,4.7,15.256,15.256,0,0,1-2.363,5.237c-2.06,3.09-6.732,6.83-13.885,11.117-5.214,3.125-9.788,5.363-9.98,5.457a1.943,1.943,0,0,1-2.7-1.134l-5.8-17.469a1.943,1.943,0,0,1,.969-2.347c.046-.023,4.681-2.355,10.088-4.654C235.957,226.532,241.283,224.932,244.365,224.932Zm-18.112,25.859c1.82-.945,4.686-2.482,7.726-4.3,8.273-4.96,11.432-8.135,12.625-9.925,1.695-2.542,2.3-4.75,1.65-6.059s-2.522-1.606-3.587-1.676c-.093-.006-.2-.009-.3-.009-4.741,0-16.82,5.4-22.669,8.25Z" transform="translate(-95.55 -165.387)"/><rect class="i" width="82.085" height="157.401" rx="12.179" transform="translate(57.249 1.943)"/><path class="d" d="M14.633-1.65H68.038A16.283,16.283,0,0,1,84.321,14.633V143.354a16.283,16.283,0,0,1-16.283,16.283H14.633A16.283,16.283,0,0,1-1.65,143.354V14.633A16.283,16.283,0,0,1,14.633-1.65Zm53.405,157.4a12.411,12.411,0,0,0,12.4-12.4V14.633a12.411,12.411,0,0,0-12.4-12.4H14.633a12.411,12.411,0,0,0-12.4,12.4V143.354a12.411,12.411,0,0,0,12.4,12.4Z" transform="translate(56.956 1.65)"/><g transform="translate(61.073 5.713)"><path class="h" d="M237.98,316.8a6.793,6.793,0,0,1-6.849,6.693H174.278a6.793,6.793,0,0,1-6.849-6.693V187.557a6.793,6.793,0,0,1,6.849-6.694h12.74l2.4,4.71h26.9l1.894-4.71h12.916a6.793,6.793,0,0,1,6.849,6.694Z" transform="translate(-165.486 -178.92)"/><path class="d" d="M231.424,325.982H174.571a8.8,8.8,0,0,1-8.792-8.793V188.006a8.8,8.8,0,0,1,8.792-8.793h12.74a1.943,1.943,0,0,1,1.823,1.27l1.473,3.993h24.605l1.473-3.993a1.943,1.943,0,0,1,1.823-1.27h12.916a8.8,8.8,0,0,1,8.792,8.793V317.189A8.8,8.8,0,0,1,231.424,325.982ZM174.571,183.1a4.927,4.927,0,0,0-4.906,4.908V317.189a4.927,4.927,0,0,0,4.906,4.908h56.852a4.927,4.927,0,0,0,4.906-4.908V188.006a4.927,4.927,0,0,0-4.906-4.908H219.862l-1.473,3.993a1.943,1.943,0,0,1-1.823,1.27H189.253a1.943,1.943,0,0,1-1.823-1.27l-1.473-3.993Z" transform="translate(-165.779 -179.213)"/></g><path class="h" d="M176.147,329.782c1.05-15.757-6.288-32.84-7.075-42.3-.406-4.87-.33-6.674-.33-19.245S171.1,256.46,171.1,249.7c0-8.955-6.35-14.6-10.564-15.368-2.076-.38-1.6,5.277-3.134,9.738s-4.778,14.053-5.473,20.065c-1,8.688-4.013,16.782-4.743,23.714a175.484,175.484,0,0,0,.73,36.482c1.256,10.047-2.762,20.875-3.55,23.239-2.409,7.228-28.8,59.177-28.8,59.177" transform="translate(-113.618 -163.722)"/><path class="d" d="M115.852,408.986a1.944,1.944,0,0,1-1.731-2.823c.263-.518,26.353-51.9,28.69-58.911.051-.152.115-.339.19-.558a71.626,71.626,0,0,0,2.468-8.775,40.3,40.3,0,0,0,.808-13.051,181.914,181.914,0,0,1-1.359-23.557c.035-5.809.345-10.715.625-13.369a85.92,85.92,0,0,1,2.2-11.006,103.881,103.881,0,0,0,2.54-12.727c.753-6.515,4.376-17.023,5.566-20.476a29.278,29.278,0,0,0,1.061-4.962c.41-2.668.706-4.6,2.1-5.585a2.821,2.821,0,0,1,2.164-.468,14.391,14.391,0,0,1,8.026,5.308A18.824,18.824,0,0,1,173.331,250a21.372,21.372,0,0,1-.979,6.629c-.644,2.307-1.375,4.922-1.375,11.909,0,1.93,0,3.607,0,5.08-.009,8.051-.011,9.964.326,14a85.143,85.143,0,0,0,2.673,12.541c2.27,8.772,5.1,19.689,4.4,30.045a1.943,1.943,0,1,1-3.877-.258,61.192,61.192,0,0,0-1.043-14.712c-.873-4.927-2.134-9.8-3.247-14.1a87.145,87.145,0,0,1-2.783-13.192c-.351-4.2-.349-6.148-.34-14.332,0-1.472,0-3.147,0-5.075,0-7.52.842-10.533,1.518-12.954a17.659,17.659,0,0,0,.836-5.583,14.975,14.975,0,0,0-3.272-9.534,11.528,11.528,0,0,0-4.94-3.719c-.183.694-.354,1.807-.478,2.617A32.24,32.24,0,0,1,159.527,245c-1.156,3.354-4.675,13.561-5.38,19.655a106.861,106.861,0,0,1-2.625,13.2,83.266,83.266,0,0,0-2.115,10.492c-.093.885-.559,5.67-.6,12.986a178.027,178.027,0,0,0,1.329,23.052c1.233,9.861-2.3,20.176-3.455,23.566-.071.207-.131.384-.18.529-2.427,7.282-27.831,57.316-28.912,59.443A1.943,1.943,0,0,1,115.852,408.986Z" transform="translate(-113.911 -164.014)"/><path class="h" d="M239.126,283.118s-4.541-.568-5.1.119c-.651.8,1.16,3.329.75,4.965-1.256,5.03-6.9,6.921-4.735,11.95,2.94,6.836,11.677,1.4,13.627-1.42C245.511,296.072,244.168,289.938,239.126,283.118Z" transform="translate(-93.389 -155.101)"/><path class="d" d="M236.191,281.248h0a32.759,32.759,0,0,1,3.468.235,1.943,1.943,0,0,1,1.321.773c5.319,7.194,7.115,14.211,4.578,17.875-1.573,2.273-6.206,5.563-10.466,5.563a6.861,6.861,0,0,1-6.543-4.481,6.759,6.759,0,0,1-.2-5.306,14.187,14.187,0,0,1,2.364-3.686,11.266,11.266,0,0,0,2.471-4.2,6.048,6.048,0,0,0-.43-1.728c-.42-1.229-.943-2.758.056-3.99C233.525,281.428,234.679,281.248,236.191,281.248Zm2.161,4c-.526-.049-1.23-.1-1.888-.115a6.844,6.844,0,0,1,.49,3.831,14.664,14.664,0,0,1-3.2,5.678c-1.71,2.141-2.433,3.167-1.63,5.032a3,3,0,0,0,2.973,2.131,8.971,8.971,0,0,0,4.3-1.412,10.269,10.269,0,0,0,2.972-2.477c.579-.837.592-2.569.033-4.634A25.935,25.935,0,0,0,238.353,285.252Z" transform="translate(-93.682 -155.394)"/><path class="h" d="M237.422,269.728a77.613,77.613,0,0,1-5.583,6.4c-2.716,2.771-5.792,6.273-5.3,9.048,1.023,5.731,6.649,6.219,12.078,3.762,5.519-2.5,10.439-7.778,8.8-13.305C245.267,268.363,242.117,269.367,237.422,269.728Z" transform="translate(-93.933 -157.484)"/><path class="d" d="M241.375,267.819a7.242,7.242,0,0,1,4.886,1.6c1.416,1.206,2.471,3.1,3.319,5.959a9.642,9.642,0,0,1,.117,5.069,12.382,12.382,0,0,1-2.135,4.426A20.139,20.139,0,0,1,239.715,291a16.316,16.316,0,0,1-6.593,1.575,8.57,8.57,0,0,1-5.25-1.614,7.967,7.967,0,0,1-2.949-5.151c-.639-3.577,2.42-7.28,5.821-10.749a76.309,76.309,0,0,0,5.427-6.224,1.944,1.944,0,0,1,1.395-.758c.4-.03.788-.066,1.167-.1C239.652,267.9,240.52,267.819,241.375,267.819Zm-8.253,20.875a12.448,12.448,0,0,0,4.991-1.229,16.437,16.437,0,0,0,6.323-4.9,6.753,6.753,0,0,0,1.418-6.083c-1.416-4.776-2.973-4.776-4.479-4.776-.677,0-1.459.072-2.287.147l-.366.033c-.906,1.136-2.861,3.514-5.2,5.9a31.638,31.638,0,0,0-3.623,4.24,4.979,4.979,0,0,0-1.147,3.105C229.176,287.528,230.606,288.694,233.121,288.694Z" transform="translate(-94.226 -157.777)"/><path class="h" d="M235.954,250.964s.84,5.26-.8,6.488c-3,2.254-9.466,6.54-9.842,9.546-.732,5.849,5.264,7.435,10.867,5.4,6.754-2.456,9.881-4.5,10.234-12.077S238.826,251.449,235.954,250.964Z" transform="translate(-94.152 -160.768)"/><path class="d" d="M236.247,249.314a1.945,1.945,0,0,1,.324.027l.055.009a20.8,20.8,0,0,1,7.085,2.272,9.469,9.469,0,0,1,4.937,9.078c-.2,4.2-1.2,7.038-3.246,9.2-1.926,2.036-4.59,3.273-8.265,4.609a15.488,15.488,0,0,1-5.219.962,8.666,8.666,0,0,1-6.655-2.594,7.125,7.125,0,0,1-1.584-5.833c.4-3.179,4.428-6.35,9.257-9.868.465-.339.905-.659,1.282-.941a5.476,5.476,0,0,0,.3-2.487,18.868,18.868,0,0,0-.187-2.189,1.943,1.943,0,0,1,1.918-2.249Zm-4.329,22.276a11.563,11.563,0,0,0,3.891-.728c3.141-1.142,5.37-2.148,6.77-3.628,1.364-1.441,2.038-3.512,2.188-6.714a5.584,5.584,0,0,0-3.017-5.543,13.163,13.163,0,0,0-3.35-1.3q0,.178,0,.361c.009,2.633-.577,4.355-1.791,5.266-.413.309-.888.656-1.391,1.022a64.826,64.826,0,0,0-5.175,4.053c-2.275,2.06-2.494,2.992-2.515,3.158a3.4,3.4,0,0,0,.642,2.779A4.922,4.922,0,0,0,231.918,271.59Z" transform="translate(-94.445 -161.06)"/><path class="d" d="M5.783,2.236H.293a1.943,1.943,0,1,1,0-3.886h5.49a1.943,1.943,0,1,1,0,3.886Z" transform="translate(95.253 7.239)"/><path class="d" d="M205.217,180.957a1.318,1.318,0,1,1-1.318-1.318A1.318,1.318,0,0,1,205.217,180.957Z" transform="translate(-98.175 -173.425)"/></g></g></g><g transform="translate(199.949 184.133)"><g class="j"><rect class="a" width="43.789" height="43.789"/><path class="k" d="M200.873,253.5a5.473,5.473,0,1,0-5.473-5.473A5.473,5.473,0,0,0,200.873,253.5Zm0-16.421a10.947,10.947,0,1,1-10.947,10.948A10.948,10.948,0,0,1,200.873,237.082Zm16.421,30.105H184.452a5.611,5.611,0,0,1-5.473-5.474V237.082a5.488,5.488,0,0,1,5.473-5.473h4.379l4.106-4.106a4.533,4.533,0,0,1,3.284-1.368H205.8a4.4,4.4,0,0,1,3.011,1.368l4.106,4.106h4.378a5.488,5.488,0,0,1,5.474,5.473v24.631A5.489,5.489,0,0,1,217.293,267.187Z" transform="translate(-178.979 -223.398)"/></g></g><path class="d" d="M14.718,0H308.784a14.718,14.718,0,1,1,0,29.436H14.718A14.718,14.718,0,0,1,14.718,0Z" transform="translate(57.692 307.648)"/><g class="e" transform="translate(73.076 310.011)"><path class="b" d="M-168.477-19.8q0,.382-.359.382-.27,0-.55-.011t-.55-.011a.319.319,0,0,0-.315.191.913.913,0,0,0-.09.393q0,.786-.011,1.584t-.011,1.584q0,2.471.011,4.954t.011,4.954q0,.157-.023.494a1.832,1.832,0,0,0,.056.618.326.326,0,0,0,.326.281q.292,0,.584-.022t.584-.022a.236.236,0,0,1,.225.124.577.577,0,0,1,.067.281.431.431,0,0,1-.1.281.343.343,0,0,1-.281.124q-.764,0-1.516-.022t-1.516-.022q-.764,0-1.528.022t-1.528.022a.357.357,0,0,1-.292-.09.493.493,0,0,1-.067-.292.554.554,0,0,1,.079-.3.283.283,0,0,1,.258-.124q.247,0,.494.022t.472.022a.444.444,0,0,0,.427-.2,1.177,1.177,0,0,0,.135-.483q.022-.281.023-.483l.022-12.9a5.706,5.706,0,0,0-.045-.6q-.045-.393-.314-.416h-.247a4.184,4.184,0,0,0-.438.022,4.182,4.182,0,0,1-.438.022.377.377,0,0,1-.427-.427.389.389,0,0,1,.1-.27.332.332,0,0,1,.258-.112q.966,0,1.921.045t1.921.045q.584,0,1.179-.045t1.179-.045a.251.251,0,0,1,.247.135A.645.645,0,0,1-168.477-19.8Zm15.771,15.7a.318.318,0,0,1-.359.359q-.652,0-1.314-.034t-1.314-.034q-.629,0-1.281.034t-1.3.034a.235.235,0,0,1-.225-.124.532.532,0,0,1-.067-.258q0-.337.359-.337.2,0,.4.011t.4.011q.337,0,.337-.292,0-1.887.011-3.774t.011-3.774a8.2,8.2,0,0,0-.1-1.258,2.35,2.35,0,0,0-.449-1.1,1.347,1.347,0,0,0-1.135-.449,1.823,1.823,0,0,0-1.022.359,4.638,4.638,0,0,0-.944.854,3.716,3.716,0,0,0-.6.921V-5a1.274,1.274,0,0,0,.056.382q.056.18.3.18.18,0,.371-.011t.371-.011a.36.36,0,0,1,.225.09.257.257,0,0,1,.112.2q0,.427-.359.427-.629,0-1.247-.056t-1.269-.056q-.674,0-1.359.056t-1.382.056a.236.236,0,0,1-.225-.124.532.532,0,0,1-.067-.258q0-.337.359-.337.2,0,.4.011t.427.011q.314,0,.359-.135A1.468,1.468,0,0,0-164.164-5v-8.739a2.56,2.56,0,0,0-.067-.55.366.366,0,0,0-.4-.3,4.183,4.183,0,0,0-.438.022,4.183,4.183,0,0,1-.438.022.971.971,0,0,1-.3-.056.227.227,0,0,1-.168-.236.237.237,0,0,1,.09-.2.494.494,0,0,1,.2-.09,2.391,2.391,0,0,1,.472-.09,4.473,4.473,0,0,0,.472-.067q.584-.112,1.157-.258t1.134-.3a1.873,1.873,0,0,1,.18-.079.509.509,0,0,1,.18-.034q.18,0,.326.337a5.061,5.061,0,0,1,.247.719,5.529,5.529,0,0,1,.124.539,7.09,7.09,0,0,1,1.573-1.045,4.045,4.045,0,0,1,1.82-.461,5.823,5.823,0,0,1,2.348.382,2.275,2.275,0,0,1,1.2,1.269,6.438,6.438,0,0,1,.359,2.37q0,1.752-.022,3.5t-.023,3.5a.368.368,0,0,0,.146.326.637.637,0,0,0,.371.1,1.994,1.994,0,0,0,.3-.022,1.992,1.992,0,0,1,.3-.022Q-152.706-4.456-152.706-4.1Zm10.559-2.988a3,3,0,0,1-.449,1.719,2.982,2.982,0,0,1-1.191,1.022,5.655,5.655,0,0,1-1.606.494,11.145,11.145,0,0,1-1.719.135,5.383,5.383,0,0,1-1.1-.112q-.539-.112-1.078-.247-.225-.045-.472-.1a2.224,2.224,0,0,0-.494-.056q-.09-.315-.258-.932t-.315-1.213a4.139,4.139,0,0,1-.146-.842q0-.247.157-.315a.846.846,0,0,1,.337-.067.454.454,0,0,1,.4.2,4.553,4.553,0,0,1,.539.988,2.978,2.978,0,0,0,.629.966,4.036,4.036,0,0,0,.91.685,2.168,2.168,0,0,0,1.067.348,2.152,2.152,0,0,0,1.516-.472,1.974,1.974,0,0,0,.505-1.505,1.677,1.677,0,0,0-.427-1.168,4.448,4.448,0,0,0-1.09-.854q-.663-.382-1.4-.753a12.3,12.3,0,0,1-1.4-.82,3.97,3.97,0,0,1-1.09-1.09,2.751,2.751,0,0,1-.427-1.561,2.729,2.729,0,0,1,.629-1.865,3.682,3.682,0,0,1,1.606-1.056,6,6,0,0,1,1.966-.337,5.61,5.61,0,0,1,.876.067,3.672,3.672,0,0,1,.854.247q.2.067.55.168a2.108,2.108,0,0,0,.55.1,2.307,2.307,0,0,0,.562-.067q.045.629.146,1.258a10.227,10.227,0,0,1,.124,1.258v.067a.436.436,0,0,1-.124.371.475.475,0,0,1-.348.146.484.484,0,0,1-.326-.09.892.892,0,0,1-.191-.27q-.292-.651-.573-1.247a2.8,2.8,0,0,0-.741-.977,2.007,2.007,0,0,0-1.314-.382,1.444,1.444,0,0,0-1.325.7,2.79,2.79,0,0,0-.427,1.483,1.436,1.436,0,0,0,.472,1.078,4.614,4.614,0,0,0,.966.719q.607.315,1.4.7a12.52,12.52,0,0,1,1.539.876,5.152,5.152,0,0,1,1.236,1.134A2.342,2.342,0,0,1-142.148-7.084Zm9.435,2.224a.675.675,0,0,1-.326.55,2.7,2.7,0,0,1-.809.382,6.326,6.326,0,0,1-.977.213,6.331,6.331,0,0,1-.831.067,3.166,3.166,0,0,1-2.336-.685,3.254,3.254,0,0,1-.651-2.28q0-1.932.022-3.864t.022-3.864h-1.033a.541.541,0,0,0-.382.146.45.45,0,0,1-.292.146.2.2,0,0,1-.225-.225,1.236,1.236,0,0,1,.09-.337,1.849,1.849,0,0,1,.135-.315q.067-.135.135-.157a.682.682,0,0,1,.2-.022h1.393v-2.4a7.077,7.077,0,0,0,1.236-.921,6.793,6.793,0,0,0,1.033-1.123,1.517,1.517,0,0,1,.18-.236.352.352,0,0,1,.27-.124q.359,0,.337.315l-.067,4.493h2.314a.676.676,0,0,1,.326.079.291.291,0,0,1,.146.281q0,.427-.472.427h-2.314l-.045,8.672a1.657,1.657,0,0,0,.146.685.566.566,0,0,0,.573.326,4.581,4.581,0,0,0,.775-.067,2.86,2.86,0,0,0,.73-.225,1.866,1.866,0,0,0,.213-.1.433.433,0,0,1,.213-.056Q-132.712-5.085-132.712-4.86Zm8.088-1.3q-.067-1.056-.09-2.123t0-2.145a6.718,6.718,0,0,0-1.786.573,4.06,4.06,0,0,0-1.426,1.112,2.737,2.737,0,0,0-.562,1.775,4.165,4.165,0,0,0,.124.966,1.878,1.878,0,0,0,.449.865,1.156,1.156,0,0,0,.887.348,1.841,1.841,0,0,0,.854-.236,6.232,6.232,0,0,0,.865-.55A6.659,6.659,0,0,0-124.625-6.163ZM-120-4.838a.365.365,0,0,1-.079.2,1.358,1.358,0,0,1-.146.18,2.262,2.262,0,0,1-1.8.809,2.569,2.569,0,0,1-1.55-.427,2.675,2.675,0,0,1-.9-1.325,6.234,6.234,0,0,1-1.539,1.213,3.935,3.935,0,0,1-1.921.449,3.933,3.933,0,0,1-1.584-.348,3.457,3.457,0,0,1-1.326-1,2.322,2.322,0,0,1-.528-1.505,2.687,2.687,0,0,1,.438-1.516,4.366,4.366,0,0,1,1.112-1.146,8.027,8.027,0,0,1,1.37-.8,10.784,10.784,0,0,1,1.842-.6q.944-.213,1.887-.438v-.09q0-.4-.011-1.09a7.745,7.745,0,0,0-.146-1.37,3.282,3.282,0,0,0-.449-1.168,1.03,1.03,0,0,0-.921-.483,2.053,2.053,0,0,0-1.247.4,2.143,2.143,0,0,0-.775,1.078,3.928,3.928,0,0,0-.067.393,3.951,3.951,0,0,1-.067.393.556.556,0,0,1-.416.483,2.179,2.179,0,0,1-.685.124,1.728,1.728,0,0,1-.741-.168.64.64,0,0,1-.359-.64.9.9,0,0,1,.056-.326q.056-.146.124-.3a2.5,2.5,0,0,1,1.078-1.258,4.666,4.666,0,0,1,1.584-.539,10.733,10.733,0,0,1,1.651-.135,4.589,4.589,0,0,1,3.033.988,3.578,3.578,0,0,1,1.191,2.92v3.392q-.022.629-.011,1.292t.056,1.314a2.976,2.976,0,0,0,.18.73.576.576,0,0,0,.607.348.97.97,0,0,0,.528-.135.749.749,0,0,1,.393-.135.106.106,0,0,1,.112.09A.614.614,0,0,1-120-4.838Zm9.188,1.977a1.766,1.766,0,0,0-.371-1.258,1.769,1.769,0,0,0-.977-.494q-.607-.112-1.281-.18l-1.685-.18a2.871,2.871,0,0,0-.607,1.033,4.01,4.01,0,0,0-.157,1.168,2.042,2.042,0,0,0,.753,1.842,3.525,3.525,0,0,0,1.966.494,2.292,2.292,0,0,0,1.764-.64A2.523,2.523,0,0,0-110.809-2.861Zm-.966-9.346q0-.4-.022-.944a4.994,4.994,0,0,0-.157-1.056,1.944,1.944,0,0,0-.449-.854,1.14,1.14,0,0,0-.876-.337,1.366,1.366,0,0,0-1.045.393,2.247,2.247,0,0,0-.528.988,6.049,6.049,0,0,0-.191,1.224q-.034.629-.034,1.1,0,.494.045,1.056a4.329,4.329,0,0,0,.213,1.056,1.838,1.838,0,0,0,.528.809,1.486,1.486,0,0,0,1.011.315,1.124,1.124,0,0,0,.865-.326,1.922,1.922,0,0,0,.438-.831,5.3,5.3,0,0,0,.168-1.022q.034-.517.034-.921Zm4.448-3.078q0,.27-.348.4a2.714,2.714,0,0,1-.764.168q-.416.034-.618.034-.247,0-.505-.011t-.505-.034a2.677,2.677,0,0,1,.618.831,5.424,5.424,0,0,1,.4,1.09,4.26,4.26,0,0,1,.146,1.045,3.275,3.275,0,0,1-.64,2.022,4.111,4.111,0,0,1-1.651,1.3,5.093,5.093,0,0,1-2.089.449h-.472q-.247,0-.494-.022a3.347,3.347,0,0,0-.55.6,1.4,1.4,0,0,0-.213.82.555.555,0,0,0,.18.371.794.794,0,0,0,.337.236,3.138,3.138,0,0,0,.719.146q.382.034.719.079.876.045,1.842.09A5.717,5.717,0,0,1-109.4-5.3a2.577,2.577,0,0,1,1.337,1.224,1.226,1.226,0,0,1,.169.449,3.346,3.346,0,0,1,.034.494,2.377,2.377,0,0,1-.55,1.606A3.962,3.962,0,0,1-109.809-.5a7.519,7.519,0,0,1-1.775.55,9.611,9.611,0,0,1-1.7.168q-.562,0-1.438-.079a9.375,9.375,0,0,1-1.741-.326,4.044,4.044,0,0,1-1.449-.719,1.559,1.559,0,0,1-.584-1.281,2.288,2.288,0,0,1,.292-1.146,4.43,4.43,0,0,1,.73-.955q.438-.438.865-.8a3.625,3.625,0,0,1-.7-.281q-.427-.213-.427-.55a1.216,1.216,0,0,1,.225-.607,5.688,5.688,0,0,1,.562-.741q.337-.382.663-.708l.505-.505a4.412,4.412,0,0,1-1.617-1.449A3.693,3.693,0,0,1-117.975-12a3.186,3.186,0,0,1,.685-2.078,4.336,4.336,0,0,1,1.752-1.281,5.663,5.663,0,0,1,2.168-.438,4.929,4.929,0,0,1,.652.045q.337.045.652.112.359.09.719.191a2.725,2.725,0,0,0,.741.1,6.351,6.351,0,0,0,1.73-.247,1.378,1.378,0,0,0,.786-.494q.27-.359.472-.359t.258.236a1.9,1.9,0,0,1,.045.517Q-107.326-15.419-107.327-15.284Zm10.9,2.089a.75.75,0,0,1-.124.416.412.412,0,0,1-.371.191.51.51,0,0,1-.517-.315q-.135-.292-.281-.685a2.424,2.424,0,0,0-.382-.685.8.8,0,0,0-.663-.292,1.039,1.039,0,0,0-.427.09,1.966,1.966,0,0,0-.382.225,3.5,3.5,0,0,0-1.157,1.4,6.343,6.343,0,0,0-.573,1.786V-5q0,.382.213.494a.881.881,0,0,0,.517.079,5.025,5.025,0,0,1,.55-.034q.315,0,.315.337a.318.318,0,0,1-.359.359q-.674,0-1.348-.022t-1.348-.022q-.7,0-1.393.034t-1.415.034a.235.235,0,0,1-.225-.124.493.493,0,0,1-.067-.236q0-.337.359-.337.225,0,.438.011t.438.011a.362.362,0,0,0,.359-.18.892.892,0,0,0,.09-.4v-8.132a4.5,4.5,0,0,0-.045-.584,1.747,1.747,0,0,0-.191-.607.506.506,0,0,0-.483-.27,1.714,1.714,0,0,0-.438.056,1.8,1.8,0,0,1-.461.056.3.3,0,0,1-.337-.337.335.335,0,0,1,.247-.337,2.74,2.74,0,0,1,.651-.146,5.919,5.919,0,0,0,.651-.1q.292-.067.764-.191t.932-.225a3.573,3.573,0,0,1,.708-.1.543.543,0,0,1,.494.247,1.846,1.846,0,0,1,.135.528q.067.416.112.842t.045.607a11.153,11.153,0,0,1,1.55-1.6A3.1,3.1,0,0,1-97.779-16a1.982,1.982,0,0,1,.663.124.651.651,0,0,1,.438.483,7.31,7.31,0,0,1,.18,1.09Q-96.431-13.644-96.431-13.195Zm8.088,7.032q-.067-1.056-.09-2.123t0-2.145a6.717,6.717,0,0,0-1.786.573,4.06,4.06,0,0,0-1.427,1.112,2.737,2.737,0,0,0-.562,1.775,4.167,4.167,0,0,0,.124.966,1.878,1.878,0,0,0,.449.865,1.156,1.156,0,0,0,.887.348,1.842,1.842,0,0,0,.854-.236,6.236,6.236,0,0,0,.865-.55A6.664,6.664,0,0,0-88.343-6.163Zm4.628,1.325a.365.365,0,0,1-.079.2,1.359,1.359,0,0,1-.146.18,2.262,2.262,0,0,1-1.8.809,2.569,2.569,0,0,1-1.55-.427,2.675,2.675,0,0,1-.9-1.325,6.235,6.235,0,0,1-1.539,1.213,3.936,3.936,0,0,1-1.921.449,3.933,3.933,0,0,1-1.584-.348,3.458,3.458,0,0,1-1.325-1,2.322,2.322,0,0,1-.528-1.505,2.687,2.687,0,0,1,.438-1.516,4.365,4.365,0,0,1,1.112-1.146,8.027,8.027,0,0,1,1.37-.8,10.782,10.782,0,0,1,1.842-.6q.944-.213,1.887-.438v-.09q0-.4-.011-1.09a7.742,7.742,0,0,0-.146-1.37A3.282,3.282,0,0,0-89.04-14.8a1.03,1.03,0,0,0-.921-.483,2.053,2.053,0,0,0-1.247.4,2.143,2.143,0,0,0-.775,1.078,3.926,3.926,0,0,0-.067.393,3.933,3.933,0,0,1-.067.393.556.556,0,0,1-.416.483,2.179,2.179,0,0,1-.685.124,1.728,1.728,0,0,1-.741-.168.64.64,0,0,1-.359-.64.9.9,0,0,1,.056-.326q.056-.146.124-.3A2.5,2.5,0,0,1-93.061-15.1a4.667,4.667,0,0,1,1.584-.539,10.735,10.735,0,0,1,1.651-.135,4.589,4.589,0,0,1,3.033.988,3.578,3.578,0,0,1,1.191,2.92v3.392q-.022.629-.011,1.292t.056,1.314a2.977,2.977,0,0,0,.18.73.576.576,0,0,0,.607.348.97.97,0,0,0,.528-.135.75.75,0,0,1,.393-.135.106.106,0,0,1,.112.09A.614.614,0,0,1-83.715-4.838Zm20.983.786q0,.359-.382.359-.651,0-1.3-.056t-1.3-.056q-.651,0-1.314.056t-1.337.056a.242.242,0,0,1-.213-.124.442.442,0,0,1-.079-.236q0-.337.4-.337.18,0,.371.011t.371.011q.27,0,.315-.168a1.535,1.535,0,0,0,.045-.393V-11.6q0-.607-.034-1.337a3.6,3.6,0,0,0-.281-1.292,1.4,1.4,0,0,0-.505-.685,1.528,1.528,0,0,0-.82-.191,2.035,2.035,0,0,0-1.258.494,7.018,7.018,0,0,0-1.011.944,5.288,5.288,0,0,1,.1.91q.011.461.011.91v6.919a.783.783,0,0,0,.1.427.433.433,0,0,0,.393.157,1.993,1.993,0,0,0,.3-.022,1.992,1.992,0,0,1,.3-.022.3.3,0,0,1,.337.337q0,.359-.382.359-.629,0-1.269-.056T-72.46-3.8q-.651,0-1.3.056t-1.3.056a.236.236,0,0,1-.225-.124.494.494,0,0,1-.067-.236.276.276,0,0,1,.2-.3,1.3,1.3,0,0,1,.461-.034q.258.022.393.022.315,0,.382-.146a1.021,1.021,0,0,0,.067-.416q0-1.662-.011-3.336t-.011-3.336q0-.607-.034-1.337a3.6,3.6,0,0,0-.281-1.292,1.281,1.281,0,0,0-.539-.674,1.93,1.93,0,0,0-.854-.157,1.4,1.4,0,0,0-.719.281,5.952,5.952,0,0,0-.809.64q-.382.359-.584.584v8.627a.783.783,0,0,0,.1.427.433.433,0,0,0,.393.157,2.221,2.221,0,0,0,.315-.022,2.222,2.222,0,0,1,.315-.022q.314,0,.314.337a.318.318,0,0,1-.359.359q-.651,0-1.292-.045T-79.2-3.782q-.674,0-1.337.045t-1.337.045a.261.261,0,0,1-.236-.124.442.442,0,0,1-.079-.236q0-.337.382-.337.18,0,.371.011t.393.011a.341.341,0,0,0,.371-.315,3.138,3.138,0,0,0,.056-.539v-8.537a2.411,2.411,0,0,0-.067-.539.379.379,0,0,0-.427-.292,3.906,3.906,0,0,0-.505.034,3.907,3.907,0,0,1-.505.034.474.474,0,0,1-.258-.079.261.261,0,0,1-.124-.236.25.25,0,0,1,.1-.225.622.622,0,0,1,.191-.09,2.713,2.713,0,0,1,.607-.112q.315-.022.607-.067.27-.067.775-.2t1-.258a3.419,3.419,0,0,1,.674-.124.39.39,0,0,1,.382.247,1.7,1.7,0,0,1,.225.573q.067.326.157.618A6.669,6.669,0,0,1-76.167-15.5a4.679,4.679,0,0,1,1.865-.348,4.366,4.366,0,0,1,1.674.337,2.457,2.457,0,0,1,1.247,1.1,7,7,0,0,1,1.64-1.1,4.352,4.352,0,0,1,1.887-.4,4.888,4.888,0,0,1,2.314.427,2.118,2.118,0,0,1,1.022,1.314,8.551,8.551,0,0,1,.258,2.325v6.919a.5.5,0,0,0,.191.472.788.788,0,0,0,.472.09q.281-.022.528-.022A.3.3,0,0,1-62.733-4.052ZM-52.309-18.2a31.232,31.232,0,0,1-.73,4.01,20.339,20.339,0,0,1-1.359,3.83,8.581,8.581,0,0,1-.517.966q-.292.472-.607.921a9.36,9.36,0,0,1-1.112,1.37A10.276,10.276,0,0,1-57.97-5.961a7.851,7.851,0,0,1-.685.449q-.483.292-.977.528a1.961,1.961,0,0,1-.741.236.423.423,0,0,1-.169-.034.123.123,0,0,1-.079-.124.259.259,0,0,1,.09-.18,2.879,2.879,0,0,1,.281-.247,2.884,2.884,0,0,0,.281-.247A10.626,10.626,0,0,0-57.993-8.1a18.142,18.142,0,0,0,1.954-5.032,39.926,39.926,0,0,0,.786-5.347Zm11.48,11.749a4.344,4.344,0,0,1-.056.584q-.056.382-.371.382a.751.751,0,0,1-.629-.337q-.022-.045-.09-.191a1.7,1.7,0,0,0-.112-.213,34.459,34.459,0,0,0-1.988-3.392q-1.157-1.752-2.449-3.415t-2.527-3.033l2.426-1.415q.651.719,1.415,1.752t1.539,2.235q.775,1.2,1.415,2.449a17.311,17.311,0,0,1,1.033,2.426A6.9,6.9,0,0,1-40.829-6.455Zm8.649-3.639q0,.18-.225.18a1.108,1.108,0,0,1-.382-.1,1.525,1.525,0,0,1-.359-.191,4.326,4.326,0,0,1-.966-.865A8.616,8.616,0,0,1-35-12.308a7.1,7.1,0,0,1-.573-1.157,2.428,2.428,0,0,1,.393-.157l.708-.247.674-.236a3.217,3.217,0,0,1,.315-.1.072.072,0,0,1,.079.067.707.707,0,0,1,.011.112q.112.427.225.876l.225.9q.112.449.281.932a6.663,6.663,0,0,0,.393.91.986.986,0,0,1,.067.168A.534.534,0,0,1-32.18-10.095Zm8.986-3.752a16.888,16.888,0,0,1-1.629,4.639,13.069,13.069,0,0,1-2.932,3.729,12.271,12.271,0,0,1-4.291,2.415q-.2.067-.607.18t-.8.2a2.959,2.959,0,0,1-.618.09.334.334,0,0,1-.168-.045.166.166,0,0,1-.079-.157.151.151,0,0,1,.067-.135A.567.567,0,0,1-34.112-3a9.283,9.283,0,0,0,.876-.4l.854-.449A11.806,11.806,0,0,0-30-5.579,13.192,13.192,0,0,0-27.069-9.69a17.623,17.623,0,0,0,1.427-4.853Zm-5.594,3.55q0,.18-.225.18a1.02,1.02,0,0,1-.382-.112,3.9,3.9,0,0,1-.359-.18,4.5,4.5,0,0,1-1-.854,7.586,7.586,0,0,1-.865-1.179,5.871,5.871,0,0,1-.562-1.2q.112-.045.427-.157t.674-.236q.359-.124.64-.225a2.922,2.922,0,0,1,.3-.1q.045,0,.056.056a.4.4,0,0,0,.034.1q.112.494.225,1t.27,1.022q.067.157.247.584t.348.831A2.389,2.389,0,0,1-28.788-10.3Zm21.7-1.932a.318.318,0,0,1-.359.359,1.75,1.75,0,0,1-.281-.067q-.236-.067-.3-.09-.876-.27-1.741-.505t-1.741-.461a6.786,6.786,0,0,0-.865-.168q-.438-.056-.887-.146a.77.77,0,0,1-.157-.056.125.125,0,0,1-.067-.124,1.425,1.425,0,0,1,.146-.371q.146-.3.348-.685t.371-.708q.169-.326.213-.416a11.346,11.346,0,0,1,1.932.573,9.718,9.718,0,0,1,1.9.988,4.17,4.17,0,0,1,1.359,1.449A.634.634,0,0,1-7.086-12.229Zm9.3-3.864a4.95,4.95,0,0,1-.124.955q-.124.6-.315,1.258t-.393,1.236a6.815,6.815,0,0,1-.382.91A13.767,13.767,0,0,1-3.739-6.5,20.948,20.948,0,0,1-7.715-4.523a18.974,18.974,0,0,1-4.291,1.078l-1.168-2.2a21.083,21.083,0,0,0,2.5-.517A27.733,27.733,0,0,0-8-7.017a16.265,16.265,0,0,0,2.3-1.056,18.538,18.538,0,0,0,2.145-1.4A14.737,14.737,0,0,0-1.65-11.2,21.7,21.7,0,0,0,.237-13.554,27.912,27.912,0,0,0,1.81-16.115l.09-.135a.151.151,0,0,1,.135-.067.141.141,0,0,1,.146.079A.373.373,0,0,1,2.214-16.093Zm-8.2-.135q0,.337-.359.337a2.8,2.8,0,0,1-.573-.124q-.438-.124-.887-.281a6.58,6.58,0,0,0-.651-.2q-.494-.135-.988-.258t-.988-.213a6.788,6.788,0,0,0-.865-.168q-.438-.056-.887-.146-.067-.022-.146-.056a.141.141,0,0,1-.079-.146,1.321,1.321,0,0,1,.146-.359q.146-.292.359-.663t.382-.685a3.953,3.953,0,0,1,.236-.4,12.956,12.956,0,0,1,1.91.55,8.629,8.629,0,0,1,1.887.966,4.511,4.511,0,0,1,1.37,1.427q.045.09.09.2A.6.6,0,0,1-5.985-16.228ZM21.49-6.882a1.707,1.707,0,0,1-.1.528,3.018,3.018,0,0,1-.213.505A2.6,2.6,0,0,1,20.2-4.838a3.674,3.674,0,0,1-1.3.438,10.074,10.074,0,0,1-1.427.1H6.37V-5.6q1.865,0,3.752.011t3.752.011a1.074,1.074,0,0,0,.483-.674,4.749,4.749,0,0,0,.124-.831q.135-1.528.27-3.044t.18-3.022l-6.717.067v-.988h9.054q-.022,1.033-.135,2.078t-.2,2.1q-.045.741-.157,1.483T16.5-6.95a3.8,3.8,0,0,1-.236.73,2.383,2.383,0,0,1-.438.64h3.437a1.694,1.694,0,0,0,.562-.112.867.867,0,0,0,.449-.315,1.473,1.473,0,0,1-.764-.292.819.819,0,0,1-.382-.7.926.926,0,0,1,.371-.719,1.139,1.139,0,0,1,.73-.315,1.339,1.339,0,0,1,.876.315A1.024,1.024,0,0,1,21.49-6.882ZM44.314-18.946a15.479,15.479,0,0,1-.651,2.651,26.615,26.615,0,0,1-1.09,2.752A17.391,17.391,0,0,1,41.282-11.2a19.3,19.3,0,0,1-3.819,4.3,13.578,13.578,0,0,1-5.1,2.64q-.607.157-1.224.27t-1.314.2l-.584.056q-.337.034-.562.034a2.281,2.281,0,0,1-.483-.056q-.258-.056-.258-.191a.18.18,0,0,1,.124-.168,1.031,1.031,0,0,1,.258-.079q.247-.067.483-.124t.461-.124q.629-.18,1.247-.393a8.733,8.733,0,0,0,1.179-.505A17.089,17.089,0,0,0,33.935-6.7a12.889,12.889,0,0,0,2-1.73,18.54,18.54,0,0,0,2.022-2.561,2.184,2.184,0,0,0-.461-.2q-.326-.112-.505-.157-.157-.045-.483-.124t-.674-.157a5.327,5.327,0,0,0-.55-.1q-.225-.045-.7-.09t-.786-.067a.789.789,0,0,1-.348-.1.229.229,0,0,1-.056-.168.749.749,0,0,1,.191-.359q.191-.247.393-.539.27-.359.573-.786t.461-.629a6.366,6.366,0,0,1,.753.371q.371.213.82.528.337.2.842.573a5.691,5.691,0,0,1,.8.685,1.36,1.36,0,0,1,.315.382,21.463,21.463,0,0,0,1.438-2.876,24.509,24.509,0,0,0,1.011-3.01H35.53a13.226,13.226,0,0,1-1.236,2.258,12.962,12.962,0,0,1-1.752,2.089,9.014,9.014,0,0,1-2.179,1.561,1.752,1.752,0,0,1-.4.157,1.608,1.608,0,0,1-.4.067.458.458,0,0,1-.157-.034.124.124,0,0,1-.09-.124.272.272,0,0,1,.056-.18,1.583,1.583,0,0,0,.1-.135,19.52,19.52,0,0,0,1.247-1.764,23.563,23.563,0,0,0,1.157-2.056q.292-.562.55-1.168t.438-1.146q.09-.247.213-.685l.247-.876q.124-.438.168-.685l2.965.382a2.454,2.454,0,0,1-.168.584q-.124.292-.281.629Zm22.892.562a14.676,14.676,0,0,1-.461,2.022q-.326,1.1-.786,2.247t-.977,2.179a17.911,17.911,0,0,1-1.033,1.82,17.186,17.186,0,0,1-3.7,4.179,14.34,14.34,0,0,1-5,2.516q-.854.225-1.764.371a11.536,11.536,0,0,1-1.831.146,3.845,3.845,0,0,1-.4-.045q-.315-.045-.315-.2,0-.135.247-.225a3.526,3.526,0,0,1,.539-.146l.4-.079a10.57,10.57,0,0,0,1.292-.449q.64-.27,1.269-.562a15.006,15.006,0,0,0,2.19-1.348,13.415,13.415,0,0,0,1.9-1.685,19.114,19.114,0,0,0,2.19-2.876,23.073,23.073,0,0,0,1.73-3.336,19.084,19.084,0,0,0,1.09-3.448H58.355A13.35,13.35,0,0,1,57.142-15a12.225,12.225,0,0,1-1.7,2.067,7.963,7.963,0,0,1-2.123,1.494q-.27.135-.562.247a1.675,1.675,0,0,1-.607.112q-.112,0-.112-.09a.319.319,0,0,1,.045-.18q.045-.067.112-.157a12.339,12.339,0,0,0,1.157-1.629q.6-.977,1.146-2.089t.966-2.19a12.788,12.788,0,0,0,.6-1.932q.674.2,1.359.438a13.736,13.736,0,0,1,1.314.528Zm.539-3.774a2.919,2.919,0,0,1-.112.64q-.112.438-.292.944t-.371.91a1.39,1.39,0,0,1-.348.517.408.408,0,0,1-.292.135.147.147,0,0,1-.146-.067l-.079-.157a2.854,2.854,0,0,1-.067-.393,3.705,3.705,0,0,0-.067-.416q-.09-.517-.157-1.056t-.157-1.078v-.045q0-.045.112-.09a2.562,2.562,0,0,1,.505-.056l.674-.022q.348-.011.528-.011Q67.746-22.406,67.746-22.159Zm2.9-.067a2.481,2.481,0,0,1-.135.64q-.135.438-.337.955a9.029,9.029,0,0,1-.416.921,1.89,1.89,0,0,1-.348.517.408.408,0,0,1-.292.135q-.157,0-.225-.225a3.009,3.009,0,0,1-.067-.472q-.045-.427-.112-.977T68.6-21.72q-.045-.438-.045-.528,0-.112.135-.135.315-.045.842-.067t.842-.022Q70.644-22.473,70.644-22.226ZM83.966-11.645q.427.9.921,1.8A11.774,11.774,0,0,0,86.01-8.163a9.862,9.862,0,0,0,.955-1.685,10.277,10.277,0,0,0,.64-1.8Zm-2.853-5.526a.854.854,0,0,1-.326.708,1.177,1.177,0,0,1-.753.258H78.349q0,.719.011,1.449t.011,1.449q.112-.045.438-.2t.708-.326q.382-.168.674-.292a1.473,1.473,0,0,1,.359-.124.1.1,0,0,1,.112.112,1.066,1.066,0,0,1-.281.562,8.473,8.473,0,0,1-.685.764q-.4.4-.775.719t-.55.449v5.953a11.854,11.854,0,0,1-.124,1.764,2.32,2.32,0,0,1-.64,1.337,2.352,2.352,0,0,1-1.707.517A3.885,3.885,0,0,1,74.193-2.5a6.09,6.09,0,0,1-1.483-.988.351.351,0,0,0-.067-.09.13.13,0,0,1-.045-.09.1.1,0,0,1,.067-.112.37.37,0,0,1,.112-.022,2.842,2.842,0,0,1,.753.124,3.176,3.176,0,0,0,.865.124,1.224,1.224,0,0,0,.9-.292,1.482,1.482,0,0,0,.393-.741,4.287,4.287,0,0,0,.1-.944v-2.3q0-1.157-.022-2.3Q75.2-9.758,74.6-9.4a8.1,8.1,0,0,1-1.258.607l-1.281-2.157q.921-.315,1.853-.651t1.853-.651q0-.988-.011-1.977t-.011-1.977H72.778v-.988h2.965q0-1.191-.011-2.381t-.011-2.381h2.606v4.763h.764a1.036,1.036,0,0,1,.348-.64.957.957,0,0,1,.663-.281,1.045,1.045,0,0,1,.7.27A.851.851,0,0,1,81.113-17.171Zm13.075,14.2a.972.972,0,0,1-.337.753,1.139,1.139,0,0,1-.786.3,4.816,4.816,0,0,1-1.348-.236,14.763,14.763,0,0,1-1.55-.562q-.764-.326-1.281-.573a11.084,11.084,0,0,1-1.46-.876q-.7-.494-1.37-.988a10.68,10.68,0,0,1-3.314,1.831,11.239,11.239,0,0,1-3.718.663q-.067,0-.2-.011t-.135-.124a.141.141,0,0,1,.079-.146A1.11,1.11,0,0,1,78.933-3q.337-.112.651-.236t.629-.281a15.324,15.324,0,0,0,2.247-1.325A14.993,14.993,0,0,0,84.482-6.5a13.812,13.812,0,0,1-1.528-1.707q-.7-.921-1.325-1.887.517-.382.988-.775t.966-.775H80.91v-1.1H90.5a.813.813,0,0,1,.315.056q.135.056.135.281a3.748,3.748,0,0,1-.348,1.427,12.8,12.8,0,0,1-.887,1.7q-.539.876-1.1,1.618A14.319,14.319,0,0,1,87.65-6.5a20.619,20.619,0,0,0,2.056,1.831,16.245,16.245,0,0,0,2.3,1.516,1.214,1.214,0,0,1,.461-.584,1.221,1.221,0,0,1,.708-.225,1,1,0,0,1,.685.3A.917.917,0,0,1,94.187-2.973Zm-.045-13.255a1.041,1.041,0,0,1-.157.55,1.906,1.906,0,0,1-.359.438,4.558,4.558,0,0,1-1.73.988,6.373,6.373,0,0,1-1.977.337A6.711,6.711,0,0,1,88-14.138a1.671,1.671,0,0,1-1.056-.887,4.481,4.481,0,0,1-.326-1.921q0-.876.011-1.764t.034-1.764h-1.82q-.022,1.033-.146,2.056a9.057,9.057,0,0,1-.461,1.966,5.574,5.574,0,0,1-1.056,1.775,6.125,6.125,0,0,1-.663.651,5.551,5.551,0,0,1-.753.562q-.157.09-.359.191a.9.9,0,0,1-.4.1.535.535,0,0,1-.146-.034q-.1-.034-.1-.1a.32.32,0,0,1,.056-.191q.056-.079.1-.146a5.661,5.661,0,0,0,.539-.91,6.707,6.707,0,0,0,.359-1,8.039,8.039,0,0,0,.292-1.887q.045-1.033.011-2.089t-.034-1.954h7.346q-.022,1.123-.079,2.269t-.056,2.269a2.113,2.113,0,0,0,.326,1.258,1.366,1.366,0,0,0,1.179.449,5.194,5.194,0,0,0,.809-.067,2.851,2.851,0,0,0,.764-.225,1.753,1.753,0,0,1-.3-.281.554.554,0,0,1-.146-.371.911.911,0,0,1,.371-.786,1.4,1.4,0,0,1,.842-.27.977.977,0,0,1,.719.292A.977.977,0,0,1,94.143-16.228Zm16.265,7.571h-1.573v2.876h.854a.556.556,0,0,0,.584-.371,2.127,2.127,0,0,0,.135-.73Zm1.1-7.728h-3.842v2.718h2.651a1.257,1.257,0,0,0,.854-.292,1.014,1.014,0,0,0,.337-.809ZM104.3-20.564q0,.2-.393.393a6.775,6.775,0,0,1-.932.359q-.539.168-1.022.292l-.663.168v3.46h.786a.875.875,0,0,1,.3-.663.957.957,0,0,1,.663-.281,1.06,1.06,0,0,1,.764.3,1,1,0,0,1,.314.753.672.672,0,0,1-.393.674,1.951,1.951,0,0,1-.82.18h-1.618v1.954l.921-.382q.09.539.258,1.224t.382,1.359q.213.674.416,1.191a.439.439,0,0,1,.034.09.37.37,0,0,1,.011.09q0,.18-.2.18a1.063,1.063,0,0,1-.6-.315,7.829,7.829,0,0,1-.719-.7q-.348-.382-.505-.562v8.6H98.7V-10.14a5.657,5.657,0,0,1-.55,1.078A14.347,14.347,0,0,1,97.265-7.8a12.813,12.813,0,0,1-1.011,1.146,5.228,5.228,0,0,1-.921.764.456.456,0,0,1-.247.09q-.112,0-.112-.135a.347.347,0,0,1,.034-.157,1.026,1.026,0,0,0,.056-.135,21.05,21.05,0,0,0,1.37-3.684,20.129,20.129,0,0,0,.674-3.864l1.6.337v-1.483h-3.19v-.966H98.7v-2.965q-.809.112-1.629.18t-1.629.067a.614.614,0,0,1-.135-.022.106.106,0,0,1-.09-.112q0-.112.157-.157.382-.157.786-.3t.786-.3q1.37-.562,2.673-1.247a21.237,21.237,0,0,0,2.494-1.539q.112.067.449.3t.741.539q.4.3.7.55T104.3-20.564Zm11.615,15.7a3.948,3.948,0,0,1-.55,2.123,2.1,2.1,0,0,1-1.943.887,2.679,2.679,0,0,1-.966-.225,8.3,8.3,0,0,1-1.1-.539,10.247,10.247,0,0,1-.876-.562,1.466,1.466,0,0,1-.157-.135.243.243,0,0,1-.067-.18q0-.045.067-.045h.09a.584.584,0,0,1,.18.022,6,6,0,0,0,.842.124q.438.034.865.034a.89.89,0,0,0,.708-.27,1.331,1.331,0,0,0,.3-.674,4.656,4.656,0,0,0,.067-.764v-5.616h-7.458v8.469h-2.291v-9.435h12.289Zm-3.37-2.134a2.247,2.247,0,0,1-.326,1.325,1.54,1.54,0,0,1-.9.6,5.447,5.447,0,0,1-1.337.146h-3.145V-9.443h5.706Zm1.438-7.8a1.689,1.689,0,0,1-.494,1.348,2.311,2.311,0,0,1-1.224.528,10.555,10.555,0,0,1-1.449.1h-5.5v-4.4h8.672Zm2.7-4.74a1,1,0,0,1-.393.854,1.485,1.485,0,0,1-.91.292H103.331v-1.033h4.987l-.472-3.1q.2,0,.719.011t1.112.045q.6.034,1.056.1t.55.2a.329.329,0,0,1,.067.2,1.645,1.645,0,0,1-.135.483q-.135.348-.315.764t-.348.775q-.168.359-.258.517h3.752a1.422,1.422,0,0,1,.393-.921,1.186,1.186,0,0,1,.91-.4,1.4,1.4,0,0,1,.921.337A1.087,1.087,0,0,1,116.675-19.53Z" transform="translate(175.352 22.518)"/></g></g><g transform="translate(918.539 73)"><g class="o" transform="matrix(1, 0, 0, 1, -627.16, -3)"><path class="b" d="M27.8-2.87,26.425,7.218a20.622,20.622,0,0,1-4.186.412q-11.871,0-15.92-8.646-1.1-2.333-1.3-7.823l-3.5-.069q.069,1.029.069,1.99,0,13.175-15.3,13.656a31.607,31.607,0,0,1-6.313-.686q8.921-3.5,12.009-8.509A10.431,10.431,0,0,0-6.307-7.879a8.324,8.324,0,0,0-.069-1.029l-5.558-.274L-12.346-44.8q13.724,0,31.977.412l.274,34.173a40.97,40.97,0,0,1-9.058.961,2.59,2.59,0,0,0-.137.823q0,3.294,3.362,5.421a11.473,11.473,0,0,0,6.382,1.921A15.421,15.421,0,0,0,27.8-2.87ZM9.407-33.612l-.274-4.529L-2.053-38l.48,4.735Q2.819-33.2,9.407-33.612Zm-.274,9.127v-3.98h-10.5l-.412,3.774Q1.927-24.416,9.133-24.485Zm0,9.813-.343-5.009-9.538.069-.274,5.078q1.441.069,3.225.069Q5.153-14.466,9.133-14.672ZM21.827,48.18Q9.682,50.993,8.721,61.081q-.686,6.656,5.627,12.695L3.437,78.716q-5.7-7.548-5.7-15.371a15.138,15.138,0,0,1,.343-3.225A14.524,14.524,0,0,1,.967,53.944a16.554,16.554,0,0,1,6.176-5.009q-10.979.823-22.988,1.3l-.206-9.058Q9,40.632,21.69,39.808ZM33.7,114.943l-5.764,14.548q-1.578-5.009-2.745-7.686H11.74a11,11,0,0,1-6.793,6.244,78.911,78.911,0,0,0,1.51-14.616,31.918,31.918,0,0,0-.48-6.382H15.24a22.925,22.925,0,0,1-1.716,8.166Zm-30.674.892-4.049,5.558a17.958,17.958,0,0,1-6.931-5.627l3.294-4.392Q-.68,115.149,3.025,115.836Zm29.919,32.526-3.5,9.95q-10.087-4.186-14.891-9.264-4.254,6.107-12.969,8.029a48.874,48.874,0,0,0,8.3-13.587,43.731,43.731,0,0,0,3.294-11.6l8.029,1.441a53.931,53.931,0,0,1-3.637,11.048Q23.68,148.087,32.944,148.362Zm-46.25-30.4a17.7,17.7,0,0,1-7.411,1.441,24.283,24.283,0,0,1-5.9-.755,33.907,33.907,0,0,0,4.872-3.225q3.911-2.951,4.186-4.254ZM4.878,132.648.761,140.2q-8.1-5.009-11.734-10.636-4.872,7.823-15.714,8.1a39.125,39.125,0,0,0,6.039-5.97q3.431-4.186,4.049-7.342l8.715-.412Q-5.209,129.354,4.878,132.648ZM-3.631,140.4q.343,5.078.343,8.783a28.271,28.271,0,0,1-.48,6.45q-6.107.274-10.156.274-2.745,0-4.529-.137-.274-6.176-.274-10.568,0-2.539.069-4.46ZM-8.3,151.038l-.069-4.46-4.186-.069.137,4.6a5.032,5.032,0,0,0,1.029.069Q-10.287,151.175-8.3,151.038Zm28.546,62.989a15.739,15.739,0,0,1-3.774,11.391A14.318,14.318,0,0,1,5.29,230.153a22.615,22.615,0,0,1-3.843-.343q-12.146-2.4-12.146-25.047a102.331,102.331,0,0,1,.961-13.312l11.666-.069a129.819,129.819,0,0,0-1.235,15.44q0,12.009,5.421,13.244a10.471,10.471,0,0,0,2.676.343A13.036,13.036,0,0,0,20.249,214.027Zm5.558,86.389q-8.166-5.49-9.676-6.382a18.446,18.446,0,0,0-3.98-2.2q2.059-.275,6.176-.686.137-1.441.137-2.951a25.664,25.664,0,0,0-4.186-14l9.2-2.4a50.269,50.269,0,0,1,3.294,18.047A61.311,61.311,0,0,1,25.807,300.417ZM.212,288.339q-5.97,6.382-6.313,6.793-2.059,2.4-4.941,6.45-7.411-6.313-8.235-26.007l9.676-1.441q-.069,11.871,2.059,15.92Z" transform="translate(653.85 47.8)"/></g><g class="n" transform="matrix(1, 0, 0, 1, -627.16, -3)"><path class="b" d="M-7.365-5.828-13.61.417q-5.9-6.039-8.372-8.029l5.764-5.97A79.161,79.161,0,0,1-7.365-5.828Z" transform="translate(701.8 386.6)"/></g></g><g transform="translate(294.375 73)"><g class="m" transform="matrix(1, 0, 0, 1, -3, -3)"><path class="b" d="M17.175-46.447q-.549,6.382-.549,10.911a45.228,45.228,0,0,0,.206,4.6q-9.607.549-17.018.549a89.2,89.2,0,0,1-11.666-.549,155.623,155.623,0,0,1,.618-15.646ZM8.323-41.575l-12.009.137.069,2.333q3.225.069,11.8-.412Zm-.549,8.029-.069-2.882-10.773.206.137,2.608a30.563,30.563,0,0,0,4.941.343Q4.549-33.272,7.774-33.546Zm17.087,13.93-44.055.961-.343-6.931q12.969.274,18.665.206v-3.5l7.686-.274.069,3.706q12.146,0,17.979-.412ZM23.832.559,19.783,7.421A23.458,23.458,0,0,1,12.1.147l2.333-2.608A16.781,16.781,0,0,0,23.832.559Zm-8.3-17.087L15.185-4.519A43.754,43.754,0,0,1,6.676-3.7L6.882,9.685-4.509,3.166q2.951.069,4.8-.069V-3.01q-4.323,0-8.372-.343L-9.106-16.185Q7.363-16.185,15.528-16.528ZM7.568-8.156V-12q-.48.069-8.852.206l.069,3.774a21.727,21.727,0,0,0,2.745.137Q3.863-7.882,7.568-8.156ZM-7.254.97q-4.117,4.46-11.185,4.46a14.789,14.789,0,0,1-1.578-.069q6.039-5.764,7-8.578Zm34.31,77.194Q19.1,83.722,6.745,83.722a66.331,66.331,0,0,1-21.2-3.568l-.961-31.428q11.117-.618,14.273-.618a26.194,26.194,0,0,0,4.392-7.823l-4.735-1.51Q-3.754,42-9.861,44.128a29.568,29.568,0,0,1-8.509,1.853A72.962,72.962,0,0,0-6.224,29.443Q-2.931,30.541,14.5,35A38.962,38.962,0,0,1,6.745,46.873l15.234.549-.48,17.91-27.311-.137-.823,10.225A90.063,90.063,0,0,0,7.02,76.38q7.48,0,10.362-1.029l.137-7.205A124.332,124.332,0,0,0,27.057,78.164Zm-11.871-18.6-.274-5.147H7.431l-.412,4.8Q8.117,59.362,15.185,59.568ZM.432,59.225.295,55.108l-7-.206-.343,4.735ZM35.36,111.647l-.549,5.421a18.192,18.192,0,0,0-3.568,1.1l-1.1-5.7Zm-7.548,6.45a17.975,17.975,0,0,0-3.637,1.1L22.6,113.5l5.215-.823Zm-.823,10.568q-1.51,1.1-6.725,4.323-4.872-8.166-6.588-10.636l6.931-3.98ZM7.157,159.819a138.134,138.134,0,0,0-9.813-11.048q1.372,0,5.558.274,2.882-7.823,2.882-12.9a9.214,9.214,0,0,0-.206-2.059Q4.892,130.243.5,130.449a22.055,22.055,0,0,0-4.254.755,156.407,156.407,0,0,1-8.3,24.086l-7.686-3.5a128.623,128.623,0,0,0,8.234-19.626q-3.294,1.029-7.891,2.264l-1.51-9.676q5.9-1.3,11.117-2.127l.412-10.773,10.019,1.1-2.2,9.95a32.351,32.351,0,0,1,3.98-.274q10.979.069,10.979,12.695a54.052,54.052,0,0,1-1.647,12.695A43.213,43.213,0,0,1,7.157,159.819Zm.274,76.645q8.44-6.931,8.578-15.371.069-5.009-1.784-6.862a160.877,160.877,0,0,1-14,10.362q-2.882,1.853-12.009,7.205a17.644,17.644,0,0,1-5.147-12.9,17.585,17.585,0,0,1,3.362-10.6,16.529,16.529,0,0,1,9.058-6.279v-3.637q-4.941.274-10.156.412l-.274-9.676,9.744.069-.549-6.45,9.813.137q-.48,3.774-.755,6.862l17.7-.412-.412,8.372q-13.381-.069-17.43,0a28.107,28.107,0,0,0-.137,3.225,20.043,20.043,0,0,1,12.215,3.157l2.4-2.951,5.49,5.352L20.332,208.4a15.505,15.505,0,0,1,3.774,10.568Q24.106,233.376,7.431,236.463ZM9.7,209.152a12.414,12.414,0,0,0-7.068-1.167l-.137,6.656ZM1.324,215.4l-5.421.069V209.29A6.992,6.992,0,0,0-9.106,215.6q-.343,3.637,1.1,5.558Zm16.126,79.39q0,6.931-4.529,10.7a16,16,0,0,1-10.43,3.294A22.56,22.56,0,0,1-3,308.1a8.083,8.083,0,0,1-4.8-2.882,7.3,7.3,0,0,1-1.51-4.529,6.237,6.237,0,0,1,2.127-5.112,7.816,7.816,0,0,1,5.627-1.544A7.375,7.375,0,0,1,2.147,295.4a8.228,8.228,0,0,1,3.088,4.666,3.568,3.568,0,0,0,2.539-1.887A6.554,6.554,0,0,0,8.8,294.718q0-8.783-11.528-8.783a32.816,32.816,0,0,0-4.049.274L1.53,274.2q-6.931.412-12.009.618l-.343-10.087q19.008,0,25.87.206A132.175,132.175,0,0,1,4.137,281.474a15.229,15.229,0,0,1,9.332,3.98A12.347,12.347,0,0,1,17.45,294.787ZM.02,301.1q-.618-2.127-2.2-2.127a1.671,1.671,0,0,0-1.269.549,1.339,1.339,0,0,0-.377,1.235A1.79,1.79,0,0,0-2.176,302.2a2.6,2.6,0,0,0,1.647-.343Q.089,301.443.02,301.1Z" transform="translate(23.91 49.58)"/></g><g class="l" transform="matrix(1, 0, 0, 1, -3, -3)"><path class="b" d="M-5.53-6.658A8.759,8.759,0,0,1-8.137-.825a7.176,7.176,0,0,1-5.833,1.99,8.61,8.61,0,0,1-5.627-2.4A8,8,0,0,1-21.861-6.8a7.163,7.163,0,0,1,2.4-5.867,8.615,8.615,0,0,1,6.176-2.23,7.837,7.837,0,0,1,5.73,2.47A7.139,7.139,0,0,1-5.53-6.658Zm-4.186-.206q0-3.362-3.5-3.362A3.056,3.056,0,0,0-15.548-9.06a3.151,3.151,0,0,0-.892,2.47,2.736,2.736,0,0,0,.961,2.059,3.775,3.775,0,0,0,2.2,1.029,3.132,3.132,0,0,0,2.573-.823A3.368,3.368,0,0,0-9.715-6.864Z" transform="translate(72.14 388.46)"/></g></g></g></svg>