<svg xmlns="http://www.w3.org/2000/svg" xmlns:xlink="http://www.w3.org/1999/xlink" width="439.655" height="600" viewBox="0 0 439.655 533.883"><defs><style>.a{fill:none;}.b,.h{fill:#fff;}.c{fill:#e6d231;}.d{fill:#3d3d3d;}.e{isolation:isolate;}.f{fill:#b0a026;}.g{clip-path:url(#a);}.h,.k{fill-rule:evenodd;}.i{fill:#00b917;}.j{clip-path:url(#b);}.k{fill:#1ba715;}</style><clipPath id="a"><rect class="a" width="193.631" height="224.649"/></clipPath><clipPath id="b"><rect class="a" width="43.909" height="43.909"/></clipPath></defs><g transform="translate(-8.186 -132.524)"><g transform="translate(123.884 170.699) rotate(-45)"><g transform="translate(0 0)"><path class="b" d="M25.445,28.67l-6.266,3.842a67.587,67.587,0,0,1-4.082-11.5Q8,23,0,19.8a49.2,49.2,0,0,0,13.1-3.612,22.66,22.66,0,0,0,7.855-5.278Q16.933,9.042,10.089,5.836,11.878,2.285,13.1,0L31.091,9.36a28.174,28.174,0,0,1-11.449,9.4,24.6,24.6,0,0,0,2.26,5.526Q23.812,27.853,25.445,28.67Z" transform="translate(0 0)"/><path class="b" d="M25.487,16.3a21.128,21.128,0,0,1-9.014,4.467,19.232,19.232,0,0,1-9.12-.236,27.713,27.713,0,0,0,4.341-2.08,20.8,20.8,0,0,0,3.54-2.431Q5.433,9.427,0,5.523L3.919,0ZM7.857,26.857l-5.8.952A84.32,84.32,0,0,1,1.07,16.544l4.906-.306q.71,5.109.759,5.248Q7.161,24.146,7.857,26.857Z" transform="translate(42.463 21.813)"/><path class="b" d="M9.256,13.24Q4.841,13.754,0,9.081q6.02.174,8.713-.914Zm22.612,3.935L27.6,21.329q-4.557-3.755-6.7-5.562l-.459-.4Q10.886,24.906,8.593,26.853A91.454,91.454,0,0,0,7.365,15.819q1.69,1.748,2.549,2.551l7.111-7.507q-3.955-4.072-6.447-6.795L14.192,0l6.991,6.766L25.913,1.81l4.613,5.017-4.789,4.384ZM24.441,28.493,18.8,29.838a25.416,25.416,0,0,1-.37-7.652l4.07-.113a20.975,20.975,0,0,0,.458,2.464A12.041,12.041,0,0,0,24.441,28.493Z" transform="translate(63.926 49.892)"/><path class="b" d="M30.13,9.439l-9.989,2.508a21.629,21.629,0,0,1-.9,3.319,10.787,10.787,0,0,1-3.256,4.03,13.685,13.685,0,0,1-5.716,2.383q.023-.17.675-4.622a9.439,9.439,0,0,0,.091-2.505,28.512,28.512,0,0,0,1.717,2.411A15.876,15.876,0,0,0,15.93,13.5a15.563,15.563,0,0,0,1.375-3.83L22.8,8.47Q21.439,6.6,20.577,5.526L2.62,20.086,0,16.882,22.654,0q.259.413,2.6,3.317Q28.363,7.167,30.13,9.439ZM41.837,21.932q-8.081,6.25-10.972,7.667-3-3.778-4.588-5.882-.928-1.229-1.384-1.9-4.936,3.42-7.848,5.615-1.746,1.319-2.766,2.189l2.335,2.96q-5.3-2.044-8.774-3.485l24.852-18.95Q35.574,13.964,41.837,21.932ZM25.563,41.012l-6.267.106q.627-11.287,2.252-15.66l2.9.551a13.82,13.82,0,0,0-.349,2.3q-.108,2.214-.187,2.985,2.118.383,2.968.5a13.126,13.126,0,0,0,2.992.13l-.312,4.095a15.617,15.617,0,0,1-5.7-3.981A16.739,16.739,0,0,0,25.563,41.012Zm4.648-16.656,1.618-1.221-2.481-2.952-1.569,1.285q.383.574.773,1.093A10.94,10.94,0,0,0,30.211,24.356Zm3.7-3.1q.129-.1,1.375-1.139l-2.236-2.831-1.409.96a15.145,15.145,0,0,0,.935,1.375Q33.144,20.368,33.915,21.258Z" transform="translate(86.644 74.494)"/><path class="b" d="M16.782,33.637l-5.489,1.889Q6.451,25.557,8.091,16.9a6.7,6.7,0,0,1-4.358-.083A9.723,9.723,0,0,1,0,14.442Q7.713,13.22,11.713,10.9l2.216,4.241q-1.853.843-2.666,1.3-.2,1.316-.307,3.788l7.461-4.1q-1.073-2.185-2.456-4.756L20,8.712l7.853,13.722-4.142,1.975q-2.649-4.185-3.031-5.039l-2.374,1.319,2.113,3.972-3.445,1.728-2.058-3.54-2.574,1.29a24.932,24.932,0,0,0,2.171,5.749Q15.3,31.306,16.782,33.637Zm20.206-9.369-9.02,2.043q1.265-1.4,3.359-4.137L22.316,6.036,19.591,7.641Q18.817,6.5,18.226,5.432a19.761,19.761,0,0,1-1-2.043L23.415,0Q28.174,8.485,29.1,9.823L32.541,7.5l2.614,5.039-3.6,1.626Q35.755,22.219,36.988,24.269Z" transform="translate(110.503 110.851)"/></g></g><g transform="translate(8.186 227.723)"><ellipse class="b" cx="219.827" cy="219.342" rx="219.827" ry="219.342"/><path class="c" d="M201.352-1.5c5.182,0,10.416.2,15.559.586a1.928,1.928,0,1,1-.291,3.846c-5.046-.382-10.183-.575-15.268-.575a1.928,1.928,0,1,1,0-3.857Zm-11.595.328a1.928,1.928,0,0,1,.108,3.854c-5.073.288-10.189.774-15.208,1.445A1.928,1.928,0,1,1,174.146.3c5.115-.684,10.33-1.18,15.5-1.473C189.683-1.171,189.721-1.172,189.757-1.172Zm42.33,2a1.943,1.943,0,0,1,.294.022c5.115.783,10.259,1.775,15.29,2.947a1.928,1.928,0,1,1-.875,3.756c-4.935-1.15-9.982-2.123-15-2.891a1.928,1.928,0,0,1,.29-3.835ZM159.207,2.916a1.929,1.929,0,0,1,.4,3.815c-4.962,1.057-9.943,2.32-14.8,3.755a1.928,1.928,0,1,1-1.092-3.7c4.957-1.463,10.035-2.751,15.093-3.828A1.935,1.935,0,0,1,159.207,2.916Zm102.9,4.909a1.927,1.927,0,0,1,.582.09c4.929,1.558,9.859,3.328,14.655,5.262a1.928,1.928,0,1,1-1.442,3.577c-4.7-1.9-9.54-3.634-14.375-5.162a1.929,1.929,0,0,1,.581-3.768ZM129.644,11.64a1.929,1.929,0,0,1,.687,3.731c-4.737,1.806-9.465,3.82-14.053,5.988a1.928,1.928,0,0,1-1.647-3.487c4.677-2.209,9.5-4.263,14.326-6.1A1.924,1.924,0,0,1,129.644,11.64Zm161.051,7.713a1.92,1.92,0,0,1,.855.2c4.629,2.3,9.23,4.8,13.674,7.451a1.928,1.928,0,0,1-1.974,3.313c-4.359-2.6-8.872-5.056-13.413-7.309a1.929,1.929,0,0,1,.858-3.656ZM101.772,24.806a1.929,1.929,0,0,1,.957,3.6c-4.4,2.511-8.767,5.226-12.969,8.07A1.928,1.928,0,1,1,87.6,33.286c4.283-2.9,8.731-5.667,13.22-8.227A1.92,1.92,0,0,1,101.772,24.806Zm215.4,10.324a1.919,1.919,0,0,1,1.109.352c4.224,2.977,8.387,6.157,12.374,9.451a1.928,1.928,0,0,1-2.456,2.973c-3.911-3.231-8-6.351-12.14-9.272a1.928,1.928,0,0,1,1.113-3.5ZM76.246,42.082a1.928,1.928,0,0,1,1.2,3.438c-3.97,3.155-7.869,6.5-11.587,9.954a1.928,1.928,0,0,1-2.623-2.827C67.027,49.13,71,45.717,75.047,42.5A1.92,1.92,0,0,1,76.246,42.082ZM340.937,54.761a1.922,1.922,0,0,1,1.338.54c3.723,3.588,7.354,7.364,10.791,11.224a1.928,1.928,0,0,1-2.88,2.565C346.814,65.3,343.252,61.6,339.6,58.078a1.928,1.928,0,0,1,1.338-3.317ZM53.65,63.045a1.928,1.928,0,0,1,1.415,3.238c-3.445,3.724-6.789,7.628-9.937,11.6a1.928,1.928,0,1,1-3.023-2.395c3.209-4.051,6.617-8.03,10.129-11.826A1.923,1.923,0,0,1,53.65,63.045ZM361.433,77.781a1.925,1.925,0,0,1,1.535.76c3.135,4.115,6.147,8.4,8.954,12.739a1.928,1.928,0,1,1-3.238,2.095c-2.753-4.256-5.708-8.46-8.783-12.5a1.928,1.928,0,0,1,1.533-3.1ZM34.512,87.206a1.929,1.929,0,0,1,1.6,3.007c-2.837,4.207-5.545,8.576-8.047,12.983a1.928,1.928,0,0,1-3.354-1.9c2.551-4.493,5.311-8.946,8.2-13.235A1.926,1.926,0,0,1,34.512,87.206ZM378.175,103.66a1.928,1.928,0,0,1,1.7,1.009c2.467,4.547,4.787,9.245,6.893,13.963a1.928,1.928,0,0,1-3.522,1.572c-2.066-4.628-4.34-9.236-6.761-13.7a1.929,1.929,0,0,1,1.693-2.848ZM19.3,114.011a1.929,1.929,0,0,1,1.744,2.748c-2.157,4.592-4.159,9.325-5.952,14.066a1.928,1.928,0,0,1-3.607-1.364c1.828-4.834,3.87-9.659,6.068-14.341A1.929,1.929,0,0,1,19.3,114.011Zm371.443,17.8a1.929,1.929,0,0,1,1.817,1.282c1.735,4.871,3.3,9.87,4.652,14.861a1.928,1.928,0,1,1-3.722,1.008c-1.326-4.894-2.861-9.8-4.563-14.575a1.93,1.93,0,0,1,1.816-2.576ZM8.393,142.841a1.93,1.93,0,0,1,1.852,2.469c-1.42,4.866-2.666,9.852-3.7,14.817a1.928,1.928,0,0,1-3.775-.789c1.059-5.063,2.33-10.145,3.777-15.107A1.929,1.929,0,0,1,8.393,142.841ZM398.8,161.556a1.929,1.929,0,0,1,1.893,1.57c.96,5.074,1.734,10.256,2.3,15.4a1.928,1.928,0,1,1-3.833.422c-.556-5.047-1.315-10.129-2.256-15.106a1.93,1.93,0,0,1,1.9-2.287ZM2.08,173.01A1.93,1.93,0,0,1,4,175.187c-.65,5.021-1.114,10.139-1.379,15.213a1.928,1.928,0,0,1-3.851-.2c.27-5.172.742-10.39,1.405-15.508A1.929,1.929,0,0,1,2.08,173.01Zm400.1,19.182a1.928,1.928,0,0,1,1.926,1.864c.075,2.26.113,4.556.113,6.823,0,2.909-.063,5.854-.186,8.752a1.928,1.928,0,1,1-3.853-.164c.121-2.844.183-5.733.183-8.588,0-2.224-.037-4.477-.111-6.695a1.928,1.928,0,0,1,1.863-1.991Zm-401.7,11.6A1.928,1.928,0,0,1,2.4,205.677c.121,5.081.439,10.211.945,15.247a1.928,1.928,0,0,1-3.837.386c-.516-5.133-.84-10.362-.963-15.541A1.928,1.928,0,0,1,.427,203.8Zm400.382,19.2a1.93,1.93,0,0,1,1.917,2.158c-.616,5.139-1.439,10.312-2.448,15.377a1.928,1.928,0,0,1-3.782-.753c.989-4.968,1.8-10.042,2.4-15.083A1.929,1.929,0,0,1,400.856,222.993ZM3.562,234.464a1.929,1.929,0,0,1,1.9,1.589c.9,4.995,2,10.014,3.275,14.918A1.928,1.928,0,0,1,5,251.944c-1.3-5-2.427-10.118-3.339-15.211a1.93,1.93,0,0,1,1.9-2.269Zm391.275,18.757a1.93,1.93,0,0,1,1.857,2.451c-1.4,4.977-3.013,9.962-4.8,14.816a1.928,1.928,0,0,1-3.62-1.329c1.748-4.761,3.331-9.65,4.7-14.531A1.929,1.929,0,0,1,394.837,253.221ZM11.332,264.29a1.929,1.929,0,0,1,1.823,1.3c1.655,4.791,3.52,9.579,5.543,14.231a1.928,1.928,0,0,1-3.537,1.538c-2.063-4.743-3.964-9.625-5.652-14.51a1.93,1.93,0,0,1,1.823-2.558Zm372.884,17.865a1.929,1.929,0,0,1,1.752,2.732c-2.151,4.7-4.515,9.373-7.026,13.9a1.928,1.928,0,0,1-3.372-1.872c2.463-4.437,4.781-9.022,6.892-13.63A1.929,1.929,0,0,1,384.216,282.155Zm-360.594,10.4a1.928,1.928,0,0,1,1.705,1.025C27.7,298.058,30.283,302.5,33,306.789a1.928,1.928,0,1,1-3.258,2.064c-2.769-4.37-5.4-8.9-7.821-13.465a1.929,1.929,0,0,1,1.7-2.832Zm345.636,16.55a1.929,1.929,0,0,1,1.607,2.991c-2.848,4.311-5.9,8.568-9.074,12.653a1.928,1.928,0,0,1-3.046-2.366c3.113-4.007,6.108-8.184,8.9-12.413A1.927,1.927,0,0,1,369.258,309.105ZM40.116,318.595a1.925,1.925,0,0,1,1.546.775c3.034,4.062,6.264,8.059,9.6,11.88a1.928,1.928,0,0,1-2.9,2.537c-3.4-3.895-6.7-7.969-9.788-12.109a1.928,1.928,0,0,1,1.544-3.082Zm310.232,14.852a1.928,1.928,0,0,1,1.427,3.224c-3.474,3.828-7.14,7.569-10.9,11.121a1.928,1.928,0,1,1-2.65-2.8c3.686-3.485,7.283-7.156,10.691-10.911A1.923,1.923,0,0,1,350.348,333.447ZM60.4,341.808a1.922,1.922,0,0,1,1.351.553c3.619,3.554,7.421,7.012,11.3,10.279a1.928,1.928,0,0,1-2.484,2.95c-3.954-3.33-7.829-6.855-11.518-10.477a1.928,1.928,0,0,1,1.351-3.3Zm267.553,12.815a1.928,1.928,0,0,1,1.215,3.427c-4.018,3.256-8.211,6.4-12.463,9.333a1.928,1.928,0,0,1-2.192-3.173c4.172-2.882,8.285-5.962,12.227-9.156A1.921,1.921,0,0,1,327.949,354.623Zm-243.975,7.04a1.92,1.92,0,0,1,1.124.363c4.119,2.962,8.4,5.8,12.733,8.437a1.928,1.928,0,0,1-2.005,3.294c-4.414-2.687-8.781-5.581-12.98-8.6a1.928,1.928,0,0,1,1.127-3.494Zm218.612,10.477a1.929,1.929,0,0,1,.973,3.595c-4.468,2.605-9.092,5.068-13.743,7.319a1.928,1.928,0,1,1-1.681-3.471c4.562-2.209,9.1-4.624,13.481-7.18A1.92,1.92,0,0,1,302.586,372.141ZM110.3,377.69a1.92,1.92,0,0,1,.872.21c4.524,2.3,9.192,4.447,13.875,6.388a1.928,1.928,0,0,1-1.477,3.563c-4.774-1.979-9.533-4.17-14.144-6.512a1.929,1.929,0,0,1,.875-3.648Zm164.543,7.881a1.929,1.929,0,0,1,.7,3.724c-4.814,1.888-9.762,3.611-14.706,5.122a1.928,1.928,0,1,1-1.127-3.688c4.849-1.482,9.7-3.172,14.424-5.024A1.922,1.922,0,0,1,274.845,385.571Zm-136.07,3.92a1.927,1.927,0,0,1,.6.1c4.819,1.574,9.762,2.98,14.69,4.178a1.928,1.928,0,0,1-.911,3.747c-5.024-1.222-10.063-2.655-14.977-4.259a1.929,1.929,0,0,1,.6-3.762Zm106.593,5.087a1.928,1.928,0,0,1,.418,3.811c-5.041,1.124-10.194,2.066-15.316,2.8a1.928,1.928,0,1,1-.548-3.818c5.024-.721,10.079-1.645,15.024-2.747A1.934,1.934,0,0,1,245.369,394.579Zm-76.647,2.195a1.941,1.941,0,0,1,.312.025c5,.814,10.1,1.446,15.159,1.877a1.928,1.928,0,0,1-.327,3.843c-5.158-.439-10.357-1.083-15.452-1.913a1.928,1.928,0,0,1,.308-3.832Zm46.139,2.184a1.928,1.928,0,0,1,.126,3.853c-4.509.3-9.1.45-13.634.45-.642,0-1.293,0-1.935-.009a1.928,1.928,0,1,1,.036-3.856c.63.006,1.269.009,1.9.009,4.453,0,8.955-.149,13.379-.441Q214.8,398.957,214.86,398.957Z" transform="translate(18.475 18.462)"/></g><g transform="translate(75.034 163.048)"><path class="b" d="M58.84,61.411a2.563,2.563,0,0,1-1.818-.753L-1.247,2.389A2.571,2.571,0,0,1,2.389-1.247L60.658,57.022a2.571,2.571,0,0,1-1.818,4.389Z" transform="translate(2 2)"/><path class="b" d="M.571,61.411a2.571,2.571,0,0,1-1.818-4.389L57.022-1.247a2.571,2.571,0,0,1,3.636,3.636L2.389,60.658A2.563,2.563,0,0,1,.571,61.411Z" transform="translate(244.038 2)"/></g><path class="d" d="M-102.633,3.1q-2.35.049-3.819.049t-2.007-.049l.343,5.288h-6.414l.392-5.582h-7.246l.1,5.777-5.484-.2q.294-3.917.294-5.924h-5.533l.049-5.631q4.211,0,5.288-.049l-.1-6.952a46.126,46.126,0,0,0-4.945-.1l-.1-6.806q2.791-.049,5.386,0l-.343-5.631,6.267.245-.49,6.022q5.288-.1,6.365-.245l-.1-5.826,7-.245v5.973q3.231-.1,4.847-.245l.1,6.365-4.749.636-.245,6.512q1.86-.049,5.092-.2Zm-11.6-6.806q-.1-.881-.2-6.806-3.868,0-6.218.2.049.783-.1,6.757Q-121.434-3.605-114.237-3.7ZM-56.2-24.512l-.245,6.12-11.849.1A65.925,65.925,0,0,1-72.7-12.663a21.671,21.671,0,0,0,7.491-.636l-1.126-2.5,3.721-1.322,3.231,6.561a18.261,18.261,0,0,1-8.813,1.812,43.51,43.51,0,0,1-10.38-1.322q1.224-2.987,3.329-8.519-1.86.2-7.2.294l-.392-6.512,8.862-.1-.294-4.994,7.393.2-.783,5.435Q-62.123-24.267-56.2-24.512ZM-52.967,6.97q-2.3,1.518-6.806,1.518A9.5,9.5,0,0,1-65.06,7.117l-.049-14.052,4.945.147-.49,10.233a7.643,7.643,0,0,0,2.889-.392l.2-3.623A54.613,54.613,0,0,0-52.967,6.97Zm-32.8-27.516-3.427,4.26a52.941,52.941,0,0,0-4.211-3.672l3.133-3.868ZM-68.047-4.927l-.2,9.352q-1.273,0-4.9.343l.1-9.743Zm-7.1-.343Q-75.93,5.746-82.931,8.047A35.107,35.107,0,0,0-81.1,1.242a33.69,33.69,0,0,0,.661-7Zm-11.359-5.141-2.448,4.358q-2.4-1.812-4.162-3.28l2.595-3.427Zm1.322,7.393a32.2,32.2,0,0,1-3.28,10.576L-93.8,2.368A22.692,22.692,0,0,0-85.183-3.018Zm73.275,7.05A159.482,159.482,0,0,1-32.08,5.4a80.789,80.789,0,0,1-14.59-1.077l.294-19.535,6.169-.294.294,14.15q6.12.881,7.491.881l-.539-23.893,7.589.245-.294,23.012q2.056.1,3.574.1a17.78,17.78,0,0,0,3.525-.245l.2-14.15,5.631.1Zm41.5-21.69a71.961,71.961,0,0,1-1.224,14.2Q26.849,4.669,23.912,9.369a58.772,58.772,0,0,0-4.26-4.6q-3.182-3.134-3.329-3.28l4.7.2a37.94,37.94,0,0,0,1.812-13.317l-7.393.343Q14.021,2.025.606,5.55,7.754-3.214,8.538-10.656q-4.064.2-8.617.343l-.147-7.638,9.156.1q-.245-3.623-.685-8.128l8.421.245-.783,8.176Q19.6-17.559,29.591-17.657ZM72.5-11.635A23.573,23.573,0,0,1,63.492-1.28a37.583,37.583,0,0,1-14.933,5.8l-.685-28.251,8.911.2L56.245-5.907Q67.017-8.5,72.5-11.635Zm26.361-9.449-3.476,6.414-7.246-4.309,3.525-5.484Q95.385-22.9,98.861-21.084Zm18.409,4.7a23.673,23.673,0,0,1-7.883,14.1A33.743,33.743,0,0,1,92.741,5.452l-3.182-8.03A50.841,50.841,0,0,0,105.765-7.62,46.625,46.625,0,0,0,117.271-16.384Zm45.309-11.261-.343,3.868a17.306,17.306,0,0,0-2.595.832l-.734-4.113Zm-5.386,4.6a15.534,15.534,0,0,0-2.546.832l-1.126-4.113,3.672-.588Zm-2.056,2.4q-.049,11.653-4.994,18.8-5.826,8.519-18.116,9.988A39.816,39.816,0,0,0,137.56,3.4,25.981,25.981,0,0,0,141.771-1.7q-4.113-1.812-6.561-2.595l2.105-5.288q.979.245,7.785,2.546a26.593,26.593,0,0,0,2.007-7.491q-5.533.2-11.016.294a13.041,13.041,0,0,1-7.2,4.5,33.768,33.768,0,0,0,3.427-15.57,21.668,21.668,0,0,0-.147-2.742l7.736.832a34.7,34.7,0,0,1-1.616,6.9ZM202.6-13.985l-.539,6.022H170.628l-.147-6.169Q191.388-13.887,202.6-13.985Z" transform="translate(192.903 452.032)"/><g class="e" transform="translate(81.462 481.803)"><path class="d" d="M-79.228-27.569l-2.4,10.233q-2.595-3.525-3.574-5.092l-24.334.245v4.162l-5.239-.245-.147-9.352q6.659-.1,14.443-.1Q-90.783-27.716-79.228-27.569ZM-81.235-3.578l-.2,5.092h-9.156q-1.175,5.582-4.7,8.323-2.546-3.574-4.26-5.826l3.28.245.783-2.84q-8.617.2-13.464.2-2.791,0-4.309-.049l-.2-4.994q16.01,0,18.605-.147.2-1.861.2-2.595-5.239.147-9.449.147l-.2-13.9h5.679v4.113a18.488,18.488,0,0,0,7.54-3.917l2.693,4.6q-2.987,1.665-10.869,1.958l.049,2.742,10.037-.2a57.364,57.364,0,0,1-.636,7Zm42.43-22.865-.147,5.288h-10.38v2.105l7.05.294-.783,16.794q-11.359,0-19.78.245l-.392-17.087q5.141-.1,7.442-.245l.049-1.909q-4.309.2-11.114.2l-.294-5.728,11.114.049-.049-3.378,7.246.147-.392,3.525Q-42.82-26.443-38.806-26.443Zm-9.841,13.122-.1-2.252q-1.763-.049-8.079.2l-.049,2.252Q-54.669-13.224-48.647-13.321Zm-.1,4.5-.049-1.812q-.441,0-7.736-.147l-.1,2.252Q-54.767-8.621-48.745-8.817Zm0,4.309-.1-1.812-7.54.049-.049,1.861Q-54.082-4.362-48.745-4.508Zm12.73,9.058q-3.28-.2-6.659-.2A9.321,9.321,0,0,0-38.463,7.83a8.4,8.4,0,0,1-3.868.979,7.2,7.2,0,0,1-6.512-3.868l-9.2.049Q-59.271,9.445-67.2,9.054A11.852,11.852,0,0,0-63.629,4.6q-4.455,0-6.708.049L-70.386,0q3.966.049,8.764.049,10.771,0,25.607-.294Zm41.4-26.341A212.967,212.967,0,0,1,4.016,3.227a222.916,222.916,0,0,1-23.159.343l-.588-6.365q9.352.2,17.479.049l.294-12.044q-8.274.147-17.675.979l-.539-8.128q5.141-.245,10.722-.245Q-1.468-22.183,5.387-21.792Zm27.878.685-3.476,6.414L22.542-19l3.525-5.484Q29.789-22.918,33.265-21.106Zm18.409,4.7a23.672,23.672,0,0,1-7.883,14.1A33.744,33.744,0,0,1,27.145,5.431L23.962-2.6A50.842,50.842,0,0,0,40.168-7.642,46.625,46.625,0,0,0,51.674-16.406ZM87.68-25.758l-.049,6.708-18.556.734L69.124-26q5.484-.049,10.771.1Q85.673-25.758,87.68-25.758Zm5.826,12.338-.2,6.757-10.918-.1A12.329,12.329,0,0,1,79.6,2.493q-3.77,4.309-11.849,4.7,5.092-4.113,6.806-7.834a14.451,14.451,0,0,0,1.077-5.924q-6.316.539-13.073,1.028l-.441-7.785ZM137.248-.934,132.891,6.8a81.628,81.628,0,0,1-11.065-9.743q-6.316,6.267-16.647,7.589a59.422,59.422,0,0,0,11.7-11.506,27.362,27.362,0,0,0,5.19-10.184q-5.337.392-14.444,1.028-.2-4.8-.245-7.932l24.481-.685A34.016,34.016,0,0,1,125.3-7.985a29.711,29.711,0,0,0,5.631,4.5Q135.045-.836,137.248-.934Zm41.49-9.988L175.262-3.48q-5.386-2.448-7.05-3.231-4.6-2.2-6.169-3.182l.539,16.3-7.344-.049.343-32.706,6.855-.147.392,10.82q3.672,1.273,8.323,2.595Q176.633-11.608,178.738-10.922Z" transform="translate(114.921 29.821)"/></g><g transform="translate(14.86 540.367)"><g transform="translate(0 0)"><g transform="translate(7.79 10.301)"><path class="c" d="M316.2,587.533h70.881l-20.251-42.07,20.251-42.069H316.2Z" transform="translate(31.063 -475.347)"/><path class="c" d="M90.706,587.533H19.824l20.251-42.07L19.824,503.395H90.706Z" transform="translate(-19.824 -475.347)"/><rect class="c" width="316.884" height="84.139" transform="translate(50.63)"/><path class="f" d="M62.709,550.9,82.96,578.95V550.9Z" transform="translate(-12.076 -466.763)"/><path class="f" d="M336.451,550.9,316.2,578.95V550.9Z" transform="translate(31.063 -466.763)"/></g><path class="d" d="M374.366,557.711H57.487a1.286,1.286,0,0,1-1.286-1.286V472.289A1.286,1.286,0,0,1,57.487,471H99.14a1.285,1.285,0,1,1,0,2.571H58.772V555.14H373.08V473.574H107.827a1.285,1.285,0,1,1,0-2.571H374.366a1.286,1.286,0,0,1,1.285,1.286v84.137A1.286,1.286,0,0,1,374.366,557.711Z" transform="translate(-5.567 -471.003)"/><g transform="translate(0 28.048)"><path class="d" d="M33.517,536.635a1.286,1.286,0,0,1-1.159-.728L13.442,496.6a1.286,1.286,0,0,1,1.158-1.843H60.5a1.286,1.286,0,0,1,0,2.571H16.646l18.029,37.462a1.286,1.286,0,0,1-1.157,1.843Z" transform="translate(-13.315 -494.759)"/><path class="d" d="M85.483,574.617H14.6a1.286,1.286,0,0,1-1.158-1.843l18.914-39.316a1.286,1.286,0,0,1,2.317,1.115L16.648,572.046H84.2v-21.3a1.286,1.286,0,0,1,2.571,0v22.584A1.286,1.286,0,0,1,85.483,574.617Z" transform="translate(-13.315 -487.899)"/><path class="d" d="M18.9,23.5a1.283,1.283,0,0,1-.981-.454L-.694,1.118A1.286,1.286,0,0,1,1.266-.546l18.618,21.93A1.286,1.286,0,0,1,18.9,23.5Z" transform="translate(53.261 63.211)"/></g><g transform="translate(347.259 28.048)"><path class="d" d="M359.117,536.635a1.286,1.286,0,0,1-1.158-1.843l18.028-37.462H332.134a1.286,1.286,0,1,1,0-2.571h45.9a1.286,1.286,0,0,1,1.158,1.843l-18.914,39.3A1.286,1.286,0,0,1,359.117,536.635Z" transform="translate(-305.865 -494.759)"/><path class="d" d="M381.854,574.617H310.974a1.286,1.286,0,0,1-1.286-1.286V550.747a1.286,1.286,0,0,1,2.571,0v21.3h67.55L361.78,534.572a1.286,1.286,0,0,1,2.317-1.115l18.916,39.316a1.286,1.286,0,0,1-1.158,1.843Z" transform="translate(-309.688 -487.899)"/><path class="d" d="M.285,23.5a1.286,1.286,0,0,1-.979-2.118L17.923-.546a1.286,1.286,0,1,1,1.96,1.664L1.266,23.048A1.283,1.283,0,0,1,.285,23.5Z" transform="translate(1.004 63.211)"/></g></g><g class="e" transform="translate(177.158 19.632)"><path class="d" d="M12.62-10.075v-.077H7.992V4.225H12.62V4.148A9.344,9.344,0,0,1,9.566-2.963,9.344,9.344,0,0,1,12.62-10.075Zm5.091,2.823h1.111v-.771h4.011v.771h1.126v-.771h3.5v-.941h-3.5V-10H22.832v1.034H18.821V-10H17.711v1.034H14.255v.941h3.456ZM20.827.384c.093-.355.17-.71.231-1.1H19.948a5.984,5.984,0,0,1-.262,1.1H16.847a9.029,9.029,0,0,0,1.8-1.4h4.381a8.556,8.556,0,0,0,1.62,1.4ZM16.955-4.568h7.852v.987H16.955Zm0-1.712h7.852v.987H16.955ZM27.676-1.02v-.926H19.438c.2-.293.37-.571.54-.879h5.955V-7.036H15.86v4.211h2.885a5.353,5.353,0,0,1-.617.879H14.055v.926h3.1A11.022,11.022,0,0,1,13.715.739a2.814,2.814,0,0,1,.663.818,16.688,16.688,0,0,0,1.9-.833v.525H19.3c-.617.956-1.774,1.62-4,2.021a2.858,2.858,0,0,1,.571.895c2.684-.555,3.965-1.481,4.628-2.916h3.471c-.108,1.1-.247,1.574-.417,1.743a.7.7,0,0,1-.509.123,15.788,15.788,0,0,1-1.666-.077,2.525,2.525,0,0,1,.262.941c.771.031,1.481.046,1.851.015a1.223,1.223,0,0,0,.926-.339c.339-.309.509-1.08.679-2.823l.015-.139a10.828,10.828,0,0,0,2.206,1A4.084,4.084,0,0,1,28.062.8a10.285,10.285,0,0,1-3.733-1.82ZM32.381-3.58h3.594v1.064H32.381Zm3.594-2.653H32.381V-7.267h3.594Zm0,1.836H32.381V-5.416h3.594ZM43.134.307V-.634H36.809V-1.59H42.7v-.926H37.071V-3.58h4.474V-4.4H37.071V-5.416H41.5v-.818H37.071V-7.267H42.1v-.91H37.04c.293-.494.617-1.08.926-1.651l-1.28-.185a13.046,13.046,0,0,1-.8,1.836H32.906a18.727,18.727,0,0,0,.972-1.62l-1.188-.231a13.578,13.578,0,0,1-3.641,4.535,3.432,3.432,0,0,1,.818.756,15.5,15.5,0,0,0,1.45-1.388V-1.59h4.366v.956H29.45V.307h5.276A16.568,16.568,0,0,1,29.08,2.961a4.5,4.5,0,0,1,.756.941A18.049,18.049,0,0,0,35.683.755v3.3h1.126V.724A17.491,17.491,0,0,0,42.7,3.794a4.857,4.857,0,0,1,.74-.941A16.462,16.462,0,0,1,37.811.307Zm4.057-2.53h2.792V-.68H47.191Zm2.792-4.721v1.358H47.191V-6.943ZM47.191-4.66h2.792v1.512H47.191ZM52.173-.68H51.047V-6.943h1.126V-7.977H51.047V-9.828H49.983v1.851H47.191V-9.828H46.142v1.851h-1.3v1.034h1.3V-.68h-1.5V.353h7.528ZM46.774.677a8.047,8.047,0,0,1-2.113,2.746,7.093,7.093,0,0,1,.926.663A10.2,10.2,0,0,0,47.869.97Zm2.191.478A12.11,12.11,0,0,1,50.554,3.5l.926-.54A11.428,11.428,0,0,0,49.859.677Zm5.014-3.3c.015-.525.031-1.049.031-1.527V-4.706h3.147v2.561Zm3.178-6.047V-5.74H54.009V-8.193Zm1.111-1.049H52.929v5.569c0,2.206-.123,5.137-1.4,7.173a2.94,2.94,0,0,1,.91.663A12.077,12.077,0,0,0,53.9-1.112h3.255v3.7c0,.247-.093.324-.324.324-.216.015-.987.015-1.8,0a4.664,4.664,0,0,1,.355,1.111,6.838,6.838,0,0,0,2.3-.216c.417-.185.586-.525.586-1.2Zm7.065.787v1.28H62v-1.28ZM62-4.969V-6.326h3.332v1.358Zm4.427.879V-9.35H60.859V4.087H62V-4.089Zm2.484,2.052V-.618H65.286V-2.038ZM65.286,1.742V.245h3.625v1.5Zm4.69.91V-2.932H64.252V3.423h1.034V2.652ZM68.9-4.953V-6.326h3.456v1.373Zm3.456-3.5v1.28H68.9v-1.28Zm1.157-.895H67.8v5.276h4.551V2.544c0,.278-.093.37-.355.37-.278.015-1.219.031-2.16-.015a4.225,4.225,0,0,1,.4,1.172,8.78,8.78,0,0,0,2.592-.2c.509-.2.679-.586.679-1.311ZM80,4.225V-10.152H75.375v.077a9.344,9.344,0,0,1,3.054,7.112,9.344,9.344,0,0,1-3.054,7.112v.077Z" transform="translate(-7.992 10.152)"/></g><g transform="translate(73.029 45.925)"><g class="e" transform="translate(61.596 4.512)"><path class="d" d="M4.284-.581V-3.635H7.739V-.581Zm10.2,0H8.9V-3.635h4.52v-1.08H8.9V-7.06h4.875V-8.171H4.577c.247-.525.494-1.08.71-1.62l-1.157-.278A13.055,13.055,0,0,1,.658-4.746a7.1,7.1,0,0,1,.987.725A14.253,14.253,0,0,0,3.99-7.06H7.739v2.345h-4.6V-.581H.612V.53H7.739V4.063H8.9V.53H14.48Z" transform="translate(-0.612 10.068)"/></g><g class="e" transform="translate(107.485 5.361)"><path class="d" d="M4.095-2.034a19.368,19.368,0,0,0,.17-2.592h7.05v2.592Zm7.22-6.248v2.561H4.265V-8.282ZM12.5-9.408H3.108v4.721c0,2.453-.247,5.584-2.7,7.744a4.341,4.341,0,0,1,.848.833A8.7,8.7,0,0,0,3.91-.908h7.4V2.177c0,.339-.123.447-.478.463-.355,0-1.589.015-2.869-.031A5.472,5.472,0,0,1,8.445,3.8,12.4,12.4,0,0,0,11.7,3.581c.571-.185.8-.586.8-1.388Z" transform="translate(-0.408 9.408)"/></g><g class="e" transform="translate(158.04 5.607)"><path class="d" d="M3.317,1.505V-2.8h7.652v4.3Zm7.652-9.6v4.165H3.317V-8.09ZM2.16-9.216V3.634H3.317v-1h7.652v.941h1.2V-9.216Z" transform="translate(-2.16 9.216)"/></g><g class="e" transform="translate(173.618 8.263)"><path class="d" d="M5.948-3.055A3.853,3.853,0,0,0,8.84-1.679,3.839,3.839,0,0,0,12.2-3.929l-.913-.489a2.836,2.836,0,0,1-2.43,1.7A2.968,2.968,0,0,1,6.668-3.774,3.853,3.853,0,0,0,3.775-5.15,3.839,3.839,0,0,0,.42-2.9l.913.489a2.836,2.836,0,0,1,2.43-1.7A2.947,2.947,0,0,1,5.948-3.055Z" transform="translate(-0.42 5.15)"/></g><path class="d" d="M13.507.869V4.31H.523A8.942,8.942,0,0,1,1.788.612,24.605,24.605,0,0,1,5.954-4.021,26.2,26.2,0,0,0,9.025-7.185,4.075,4.075,0,0,0,9.79-9.452a2.577,2.577,0,0,0-.666-1.9,2.485,2.485,0,0,0-1.839-.666,2.468,2.468,0,0,0-1.845.7A3.588,3.588,0,0,0,4.649-9L.958-9.373a6.051,6.051,0,0,1,2.07-4.39,6.949,6.949,0,0,1,4.35-1.331,6.287,6.287,0,0,1,4.5,1.542,5.059,5.059,0,0,1,1.635,3.836,6.677,6.677,0,0,1-.468,2.485,10.1,10.1,0,0,1-1.483,2.472A23.731,23.731,0,0,1,9.131-2.294Q7.377-.686,6.91-.159A6.394,6.394,0,0,0,6.152.869Zm8.766-15.963a5.28,5.28,0,0,1,4.39,2q1.885,2.373,1.885,7.87t-1.9,7.883a5.272,5.272,0,0,1-4.376,1.977,5.53,5.53,0,0,1-4.548-2.168Q16,.3,16-5.26q0-5.457,1.9-7.856A5.272,5.272,0,0,1,22.273-15.094Zm0,3.071a1.85,1.85,0,0,0-1.2.428,2.876,2.876,0,0,0-.817,1.536,21.182,21.182,0,0,0-.382,4.838,21.026,21.026,0,0,0,.343,4.673,3.286,3.286,0,0,0,.863,1.694,1.842,1.842,0,0,0,1.193.422,1.85,1.85,0,0,0,1.2-.428A2.876,2.876,0,0,0,24.29-.4a20.994,20.994,0,0,0,.382-4.825,21.026,21.026,0,0,0-.343-4.673,3.331,3.331,0,0,0-.863-1.7A1.825,1.825,0,0,0,22.273-12.022ZM43.535.869V4.31H30.551a8.942,8.942,0,0,1,1.265-3.7,24.6,24.6,0,0,1,4.165-4.633,26.2,26.2,0,0,0,3.071-3.164,4.075,4.075,0,0,0,.765-2.267,2.577,2.577,0,0,0-.666-1.9,2.485,2.485,0,0,0-1.839-.666,2.468,2.468,0,0,0-1.845.7A3.588,3.588,0,0,0,34.677-9l-3.691-.369a6.051,6.051,0,0,1,2.07-4.39,6.949,6.949,0,0,1,4.35-1.331A6.287,6.287,0,0,1,41.9-13.551a5.059,5.059,0,0,1,1.635,3.836,6.677,6.677,0,0,1-.468,2.485,10.1,10.1,0,0,1-1.483,2.472,23.729,23.729,0,0,1-2.425,2.465Q37.406-.686,36.938-.159A6.394,6.394,0,0,0,36.18.869ZM55.517,4.31h-3.7V-9.65a12.77,12.77,0,0,1-4.785,2.808V-10.2a10.712,10.712,0,0,0,3.15-1.8,6.837,6.837,0,0,0,2.333-3.091h3.005Z" transform="translate(-0.523 15.094)"/><path class="d" d="M10.15,4.31h-3.7V-9.65A12.77,12.77,0,0,1,1.661-6.842V-10.2A10.712,10.712,0,0,0,4.812-12a6.837,6.837,0,0,0,2.333-3.091H10.15Zm13.525,0h-3.7V-9.65a12.77,12.77,0,0,1-4.785,2.808V-10.2a10.712,10.712,0,0,0,3.15-1.8,6.837,6.837,0,0,0,2.333-3.091h3.005Z" transform="translate(78.907 15.094)"/><path class="d" d="M13.507.869V4.31H.523A8.942,8.942,0,0,1,1.788.612,24.605,24.605,0,0,1,5.954-4.021,26.2,26.2,0,0,0,9.025-7.185,4.075,4.075,0,0,0,9.79-9.452a2.577,2.577,0,0,0-.666-1.9,2.485,2.485,0,0,0-1.839-.666,2.468,2.468,0,0,0-1.845.7A3.588,3.588,0,0,0,4.649-9L.958-9.373a6.051,6.051,0,0,1,2.07-4.39,6.949,6.949,0,0,1,4.35-1.331,6.287,6.287,0,0,1,4.5,1.542,5.059,5.059,0,0,1,1.635,3.836,6.677,6.677,0,0,1-.468,2.485,10.1,10.1,0,0,1-1.483,2.472A23.731,23.731,0,0,1,9.131-2.294Q7.377-.686,6.91-.159A6.394,6.394,0,0,0,6.152.869Zm8.766-15.963a5.28,5.28,0,0,1,4.39,2q1.885,2.373,1.885,7.87t-1.9,7.883a5.272,5.272,0,0,1-4.376,1.977,5.53,5.53,0,0,1-4.548-2.168Q16,.3,16-5.26q0-5.457,1.9-7.856A5.272,5.272,0,0,1,22.273-15.094Zm0,3.071a1.85,1.85,0,0,0-1.2.428,2.876,2.876,0,0,0-.817,1.536,21.182,21.182,0,0,0-.382,4.838,21.026,21.026,0,0,0,.343,4.673,3.286,3.286,0,0,0,.863,1.694,1.842,1.842,0,0,0,1.193.422,1.85,1.85,0,0,0,1.2-.428A2.876,2.876,0,0,0,24.29-.4a20.994,20.994,0,0,0,.382-4.825,21.026,21.026,0,0,0-.343-4.673,3.331,3.331,0,0,0-.863-1.7A1.825,1.825,0,0,0,22.273-12.022Z" transform="translate(124.629 15.094)"/><g class="e" transform="translate(223.191 5.361)"><path class="d" d="M4.095-2.034a19.368,19.368,0,0,0,.17-2.592h7.05v2.592Zm7.22-6.248v2.561H4.265V-8.282ZM12.5-9.408H3.108v4.721c0,2.453-.247,5.584-2.7,7.744a4.341,4.341,0,0,1,.848.833A8.7,8.7,0,0,0,3.91-.908h7.4V2.177c0,.339-.123.447-.478.463-.355,0-1.589.015-2.869-.031A5.472,5.472,0,0,1,8.445,3.8,12.4,12.4,0,0,0,11.7,3.581c.571-.185.8-.586.8-1.388Z" transform="translate(-0.408 9.408)"/></g><g class="e" transform="translate(271.385 5.607)"><path class="d" d="M3.317,1.505V-2.8h7.652v4.3Zm7.652-9.6v4.165H3.317V-8.09ZM2.16-9.216V3.634H3.317v-1h7.652v.941h1.2V-9.216Z" transform="translate(-2.16 9.216)"/></g><path class="d" d="M10.15,4.31h-3.7V-9.65A12.77,12.77,0,0,1,1.661-6.842V-10.2A10.712,10.712,0,0,0,4.812-12a6.837,6.837,0,0,0,2.333-3.091H10.15ZM28.2.869V4.31H15.212a8.942,8.942,0,0,1,1.265-3.7,24.605,24.605,0,0,1,4.165-4.633,26.2,26.2,0,0,0,3.071-3.164,4.075,4.075,0,0,0,.765-2.267,2.577,2.577,0,0,0-.666-1.9,2.485,2.485,0,0,0-1.839-.666,2.468,2.468,0,0,0-1.845.7A3.588,3.588,0,0,0,19.338-9l-3.691-.369a6.051,6.051,0,0,1,2.07-4.39,6.949,6.949,0,0,1,4.35-1.331,6.287,6.287,0,0,1,4.495,1.542A5.059,5.059,0,0,1,28.2-9.716a6.677,6.677,0,0,1-.468,2.485,10.1,10.1,0,0,1-1.483,2.472A23.73,23.73,0,0,1,23.82-2.294Q22.067-.686,21.6-.159A6.394,6.394,0,0,0,20.841.869Z" transform="translate(189.891 15.094)"/><path class="d" d="M.79-.818l3.585-.435A3.394,3.394,0,0,0,5.3.843a2.524,2.524,0,0,0,1.819.725A2.5,2.5,0,0,0,9.048.7a3.373,3.373,0,0,0,.784-2.346,3.145,3.145,0,0,0-.751-2.215A2.4,2.4,0,0,0,7.249-4.68a6.462,6.462,0,0,0-1.7.277l.409-3.019A3.247,3.247,0,0,0,8.25-8.074a2.323,2.323,0,0,0,.791-1.839,2.1,2.1,0,0,0-.58-1.555,2.085,2.085,0,0,0-1.542-.58A2.232,2.232,0,0,0,5.3-11.39,3.1,3.1,0,0,0,4.48-9.465l-3.414-.58a7.631,7.631,0,0,1,1.074-2.8,4.849,4.849,0,0,1,2-1.648,6.73,6.73,0,0,1,2.88-.6,5.745,5.745,0,0,1,4.376,1.74,4.542,4.542,0,0,1,1.358,3.216q0,2.544-2.781,4.06a4.5,4.5,0,0,1,2.656,1.595,4.628,4.628,0,0,1,1,2.992A5.8,5.8,0,0,1,11.77,2.847,6.4,6.4,0,0,1,7.143,4.639,6.37,6.37,0,0,1,2.793,3.13,5.931,5.931,0,0,1,.79-.818ZM25.413,4.31h-3.7V-9.65a12.77,12.77,0,0,1-4.785,2.808V-10.2a10.712,10.712,0,0,0,3.15-1.8,6.837,6.837,0,0,0,2.333-3.091h3.005Z" transform="translate(239.23 15.094)"/></g></g><path class="c" d="M267.662,317.084a.537.537,0,0,1-.06,0,.74.74,0,0,1-.691-.7,1.065,1.065,0,0,0-.016-.128,2.363,2.363,0,0,1-.038-.393,1.57,1.57,0,0,0-.014-.164,2.919,2.919,0,0,1-.022-.4l0-.2c0-.12,0-.241.011-.364a2.78,2.78,0,0,1,.054-.373c.011-.059.025-.119.03-.18a1.525,1.525,0,0,1,.143-.5l.012-.025,0-.008a1.222,1.222,0,0,1,.152-1.133l0,0,0-.012a1.514,1.514,0,0,1-.011-.543,1.571,1.571,0,0,1,.191-.479c.014-.026.031-.052.042-.079a2.053,2.053,0,0,1,.116-.351,1.241,1.241,0,0,0,.054-.149.925.925,0,0,0,.02-.15,2.47,2.47,0,0,1,.072-.406.824.824,0,0,0,.008-.1,1.847,1.847,0,0,1,.076-.458c.04-.121.09-.237.141-.352.026-.059.052-.116.073-.175a1.079,1.079,0,0,1,.073-.157v-.011l-.017-.047a1.407,1.407,0,0,1-.113-.534.992.992,0,0,0-.02-.164,3.022,3.022,0,0,1-.034-.338c0-.1,0-.19,0-.284,0-.074.006-.148,0-.221a1.251,1.251,0,0,1,.158-.643l-.007-.084c-.006-.063-.009-.124-.016-.184a1.341,1.341,0,0,1-.292-.541,1.759,1.759,0,0,0-.073-.223c-.026-.072-.053-.146-.077-.221a.7.7,0,0,0-.337-.818c-.04-.07-.076-.143-.111-.215a1.413,1.413,0,0,0-.083-.156c.021.031,0,.016-.027,0a1.741,1.741,0,0,1-.342-.249,1.1,1.1,0,0,1-.3-.58,2.233,2.233,0,0,1-.3-.148c-.066-.041-.133-.086-.2-.131a1.923,1.923,0,0,0-.214-.133,1.632,1.632,0,0,0-.213-.081c-.087-.031-.176-.062-.261-.1a2.843,2.843,0,0,1-.3-.156c-.034-.02-.067-.041-.1-.059l-.038,0a1.485,1.485,0,0,1-.546-.04c-.1-.028-.2-.051-.3-.074l-.205-.05c-.106-.026-.215-.048-.324-.071l-.188-.039c-.078-.018-.16-.027-.242-.038s-.183-.025-.275-.042a1.123,1.123,0,0,1-.418-.176,1.786,1.786,0,0,1-.323-.026,1.1,1.1,0,0,1-.3,0,1.2,1.2,0,0,1-.122-.024,2.107,2.107,0,0,1-.4.02c-.065,0-.131,0-.2,0-.12,0-.246,0-.368-.009s-.227-.028-.339-.047c-.072-.012-.143-.025-.215-.032a1.273,1.273,0,0,1-.608-.255l-.014-.011-.172-.021c-.073-.009-.146-.02-.22-.027a1.306,1.306,0,0,1-.572.1,1.745,1.745,0,0,1-.27-.041,1.158,1.158,0,0,1-.269.015c-.08,0-.161,0-.241,0-.1,0-.189,0-.283,0a2.439,2.439,0,0,1-.329-.037.974.974,0,0,0-.106-.015.8.8,0,0,1-.092,0,.745.745,0,0,1,.035-1.487,1.386,1.386,0,0,1,.573-.1c.106.007.215.024.326.041a1.817,1.817,0,0,0,.211.028c.059,0,.115.011.166.02a1.351,1.351,0,0,1,.392-.034c.106.008.21,0,.312.007a1.07,1.07,0,0,1,.234-.008l.556.038a1.784,1.784,0,0,1,.466.113.849.849,0,0,0,.1.033,1.218,1.218,0,0,1,.511.178,1.251,1.251,0,0,1,.593-.093,1.611,1.611,0,0,1,.419.117h.013c.05,0,.1.006.15.011a1.341,1.341,0,0,1,.436-.058,1.092,1.092,0,0,1,.4-.123,2.119,2.119,0,0,0,.241-.046c.072-.017.145-.033.221-.046a2.792,2.792,0,0,1,.309-.034,1.166,1.166,0,0,0,.154-.015.826.826,0,0,0,.12-.061,2.437,2.437,0,0,1,.29-.142,1.073,1.073,0,0,1,.568-.051,1.288,1.288,0,0,1,.3-.277c.015-.013.038-.041.063-.069a2.01,2.01,0,0,1,.28-.268c.124-.1.24-.2.362-.308a3.09,3.09,0,0,1,.248-.193,1.019,1.019,0,0,0,.142-.11,1.58,1.58,0,0,1,.4-.277.776.776,0,0,0,.077-.043c-.006,0,.014-.045.038-.087a2.367,2.367,0,0,1,.2-.3c-.018.02-.013,0,0-.031a1.535,1.535,0,0,1,.209-.434,2.4,2.4,0,0,1,.242-.275.875.875,0,0,0,.091-.1.747.747,0,0,0,.063-.139,2.563,2.563,0,0,1,.148-.309,3.063,3.063,0,0,1,.18-.267.887.887,0,0,0,.1-.143,1.4,1.4,0,0,1,.3-.377,1.239,1.239,0,0,1,.071-.537,1.2,1.2,0,0,1,.367-.485V295.1a1.919,1.919,0,0,1,.06-.411,1.253,1.253,0,0,0,.03-.181,3.013,3.013,0,0,1,.051-.312,1.428,1.428,0,0,1,.236-.495l.007-.011,0-.04a1.836,1.836,0,0,1,0-.436,2.314,2.314,0,0,1,.094-.374l.024-.068a1.467,1.467,0,0,1-.1-.574,1.51,1.51,0,0,0-.007-.177,3.05,3.05,0,0,1-.012-.328c0-.1.013-.2.025-.307a1.616,1.616,0,0,0,.017-.2,1.933,1.933,0,0,0-.017-.2c-.012-.1-.024-.2-.027-.306a.748.748,0,0,1,.3-.628,1.368,1.368,0,0,1,.146-.385,1.333,1.333,0,0,1-.1-.514,1.14,1.14,0,0,1,.15-.523,1.154,1.154,0,0,1-.146-.515,1.568,1.568,0,0,0-.022-.195c-.015-.1-.03-.208-.035-.313a1.292,1.292,0,0,1,.124-.589l-.012-.034a2.058,2.058,0,0,1-.1-.393,1.852,1.852,0,0,1,0-.4,1.164,1.164,0,0,1-.328-.542.745.745,0,0,1,1.4-.5,1.232,1.232,0,0,1,.406.658,1.892,1.892,0,0,1,.014.48.694.694,0,0,0-.006.111.832.832,0,0,0,.033.1,1.9,1.9,0,0,1,.112.458,1.293,1.293,0,0,1-.13.635l-.006.017.014.1c.013.09.026.179.033.269a1.3,1.3,0,0,1,.214.667,1.163,1.163,0,0,1-.172.581,1.166,1.166,0,0,1-.093,1.117l0,.008.009.066a2.6,2.6,0,0,1,.025.343l.017.05a1.4,1.4,0,0,1,.1.558,1.162,1.162,0,0,1-.283.662l-.025.613,0,.078a1.014,1.014,0,0,1,0,.158l0,.041v.024c0,.085,0,.17,0,.255s0,.182,0,.273a1,1,0,0,0,.02.151,2.605,2.605,0,0,1,.04.366,1.018,1.018,0,0,0,.025.1,1.95,1.95,0,0,1,.072.408,2.626,2.626,0,0,1-.015.359.98.98,0,0,0-.008.156.663.663,0,0,0,.032.1,2.074,2.074,0,0,1,.1.4,1.269,1.269,0,0,1-.077.571,1.638,1.638,0,0,1,.168.431c0-.028.011,0,.027.019a1.614,1.614,0,0,1,.2.437c.024.087.041.175.059.261s.028.146.051.22a1.288,1.288,0,0,1,.026.616v.008c.028.065.06.132.091.2l.076.165c.04.085.073.176.106.268.009.024.019.048.027.073a1.191,1.191,0,0,1,.506.439,2.2,2.2,0,0,1,.157.34.357.357,0,0,0,.144.217,2.566,2.566,0,0,1,.238.267,1.722,1.722,0,0,1,.214.4.721.721,0,0,0,.038.087,1.308,1.308,0,0,1,.2.364,1.158,1.158,0,0,1,.535.292l.137.139c.072.074.144.15.221.221a2.556,2.556,0,0,1,.244.273.888.888,0,0,0,.1.115,1,1,0,0,0,.139.09,2.707,2.707,0,0,1,.29.2.815.815,0,0,0,.124.068,2.517,2.517,0,0,1,.321.195,1.523,1.523,0,0,1,.344.378c.017.022.031.046.049.067,0-.012.054.015.106.041a2.843,2.843,0,0,1,.306.168c.144.093.289.184.438.274a1.4,1.4,0,0,1,.373.349,1.278,1.278,0,0,1,.549.136,1.113,1.113,0,0,1,.377.339,1.049,1.049,0,0,1,.579.085.958.958,0,0,1,.353.287c.052.012.106.018.161.026a2.949,2.949,0,0,1,.369.071,1.483,1.483,0,0,1,.4.182.9.9,0,0,1,.157.046,1.015,1.015,0,0,1,.241.133l.052.021a1.754,1.754,0,0,0,.172.067c.109.034.215.076.32.118l.009,0a1.015,1.015,0,0,1,.324.1l.032.006c.1.019.191.039.283.066a1.412,1.412,0,0,1,.649.04,1.766,1.766,0,0,1,.414.222.912.912,0,0,0,.085.054.93.93,0,0,1,.144.064c.066.03.124.06.174.086a.714.714,0,0,0,.091.046,2.65,2.65,0,0,1,.31.1c.034.012.067.025.1.035a1.117,1.117,0,0,1,.17.047.745.745,0,0,1-.393,1.433l-.112-.027c-.015,0-.039,0-.063,0a1.738,1.738,0,0,1-.471-.086,1.492,1.492,0,0,1-.44-.261h-.021a1.536,1.536,0,0,1-.529-.041.62.62,0,0,1-.076,0,1.649,1.649,0,0,1-.491-.063,1.2,1.2,0,0,1-.5-.325,1.237,1.237,0,0,1-.56-.052,1.151,1.151,0,0,0-1.054-.4.875.875,0,0,0-.118-.026,1.945,1.945,0,0,1-.431-.123.949.949,0,0,1-.292-.2,1.253,1.253,0,0,1-.54.03,2.488,2.488,0,0,1-.345-.1.949.949,0,0,0-.15-.045,1.3,1.3,0,0,1-.577-.268l-.012-.008-.151-.024c-.084-.014-.166-.028-.249-.034a1.742,1.742,0,0,0-.189.009c-.11.009-.226.015-.322.014s-.176-.007-.263-.014a2.11,2.11,0,0,0-.24-.011l-.189,0c-.105,0-.211,0-.313.013a1,1,0,0,0-.164.042,2.667,2.667,0,0,1-.32.079c-.018.007-.051.026-.085.041a2.059,2.059,0,0,1-.373.143,1.587,1.587,0,0,0-.2.074c-.08.033-.162.066-.245.094a1.971,1.971,0,0,0-.235.1l-.192.09a1.664,1.664,0,0,1-.429.114c-.031,0-.06.008-.089.015.017,0-.013.034-.045.065a2.5,2.5,0,0,1-.241.209,1.3,1.3,0,0,1-.476.21,1.669,1.669,0,0,1-.235.367,1.636,1.636,0,0,1-.337.284.948.948,0,0,0-.079.057l-.148.243-.086.139a.974.974,0,0,0-.054.135,2.618,2.618,0,0,1-.14.327,2.082,2.082,0,0,1-.213.3,1.1,1.1,0,0,1-.036.681,1.113,1.113,0,0,1-.123.223c0,.021,0,.041,0,.063a1.343,1.343,0,0,1-.182.564.143.143,0,0,1-.02.036c-.012.1-.03.2-.048.294-.012.061-.025.124-.031.187a1.05,1.05,0,0,0,0,.149,2.355,2.355,0,0,1-.008.4c.006-.035.012,0,.018.025a1.5,1.5,0,0,1,.035.531,1.376,1.376,0,0,1-.216.541l-.018.027c0,.039,0,.078,0,.117a2.716,2.716,0,0,1-.03.368,1.384,1.384,0,0,1-.2.5,1.284,1.284,0,0,1,.038.571c0,.032,0,.07,0,.109a1.734,1.734,0,0,1-.025.431,1.853,1.853,0,0,1-.149.43.784.784,0,0,0-.041.091c-.009.052-.015.117-.021.182a3.165,3.165,0,0,1-.048.339c-.014.072-.025.145-.033.218-.015.1-.028.205-.05.3a1.676,1.676,0,0,1-.162.432A.77.77,0,0,1,267.662,317.084Zm1.475-4.753v0Zm.264-2.155h0Zm-1.32-1.148v0Zm-.013-2.058a.132.132,0,0,0,0,.021Zm-.048-.475v0Zm1.152-.869a1.343,1.343,0,0,1,.319.628c0,.026.008.052.012.079.047-.037.092-.067.132-.095a.843.843,0,0,0,.076-.054c-.02.013,0-.021.013-.05a1.546,1.546,0,0,1,.318-.459,1.29,1.29,0,0,1,.614-.3l.028-.007.053-.051a1.9,1.9,0,0,1,.4-.312,1.537,1.537,0,0,1,.53-.164c.028,0,.059-.008.086-.015l.124-.06a3.512,3.512,0,0,1,.4-.172c.056-.019.107-.04.159-.061a2.924,2.924,0,0,1,.407-.142c.03-.011.063-.028.1-.044a1.734,1.734,0,0,1,.473-.164c.048-.008.1-.025.149-.039a2.275,2.275,0,0,1,.437-.1c.14-.014.287-.018.433-.02l.071,0a1.676,1.676,0,0,1-.277-.324.753.753,0,0,0-.047-.067.5.5,0,0,1-.089-.038,2.277,2.277,0,0,1-.358-.223,1.336,1.336,0,0,0-.138-.09,2.452,2.452,0,0,1-.334-.234,2.211,2.211,0,0,1-.29-.314,1.042,1.042,0,0,0-.094-.11c-.1-.09-.188-.184-.279-.279l-.041-.041a1.225,1.225,0,0,1-.642-.342,1.5,1.5,0,0,1-.279-.479c-.011-.026-.02-.054-.033-.079a1.488,1.488,0,0,1-.224-.409.726.726,0,0,0-.038-.087c-.018-.022-.054-.055-.089-.09a2.2,2.2,0,0,1-.28-.325,2.024,2.024,0,0,1-.2-.412l-.006-.015a1.158,1.158,0,0,1-.534-.483,3.089,3.089,0,0,1-.158-.378c-.021-.055-.041-.112-.065-.165l-.069-.146c-.06-.129-.119-.256-.169-.385a1.285,1.285,0,0,1-.045-.677l0-.025c-.027-.1-.047-.2-.067-.3-.012-.058-.022-.116-.038-.172,0,.014-.017-.014-.031-.036a1.6,1.6,0,0,1-.207-.45,1.548,1.548,0,0,1-.287.333l-.057.054a1.7,1.7,0,0,1-.185.289,1.5,1.5,0,0,0-.092.133,1.027,1.027,0,0,0-.061.135,2.279,2.279,0,0,1-.19.379,1.932,1.932,0,0,1-.281.333.812.812,0,0,0-.092.1c.011-.011,0,.018-.007.044a1.487,1.487,0,0,1-.244.481,1.014,1.014,0,0,0-.073.119,2.191,2.191,0,0,1-.249.361,1.532,1.532,0,0,1-.451.333c-.025.014-.05.026-.072.041a2.188,2.188,0,0,1-.3.247,1.267,1.267,0,0,0-.118.09c-.153.137-.3.263-.451.38a.633.633,0,0,0-.083.086,1.787,1.787,0,0,1-.359.321c.033-.022.019,0,0,.021a1.6,1.6,0,0,1-.285.31c.066.033.131.068.2.105a1.016,1.016,0,0,0,.137.073c.056.024.114.044.171.064a3.05,3.05,0,0,1,.394.157,3.265,3.265,0,0,1,.382.231c.047.032.095.064.142.093a.743.743,0,0,0,.122.052,1.84,1.84,0,0,1,.45.237,1.09,1.09,0,0,1,.392.7,1.418,1.418,0,0,1,.41.347,2.3,2.3,0,0,1,.244.414l.017.035a1.2,1.2,0,0,1,.531.551,1.156,1.156,0,0,1,.019.762l.015.044C269.105,305.415,269.142,305.519,269.172,305.627Zm.022.09h0Zm6.972-.129h0Zm-7.617-1.537h0Zm.708-17.767h0Zm1.021-.993h0Z" transform="translate(43.111 37.806)"/><path class="c" d="M288.516,288.086c-5.15.6-6.271,5.261-6.83,8.726-.56-3.465-1.53-5.775-2.276-6.412a6.555,6.555,0,0,0-6.046-2.164c6.345-1.56,7.987-4.628,8.734-9.8C282.1,284.5,283.813,286.676,288.516,288.086Z" transform="translate(46.152 36.755)"/><path class="c" d="M110.662,306.084a.5.5,0,0,1-.06,0,.74.74,0,0,1-.691-.7,1.076,1.076,0,0,0-.017-.128,2.364,2.364,0,0,1-.038-.393,1.57,1.57,0,0,0-.014-.164,2.928,2.928,0,0,1-.022-.4l0-.2c0-.12,0-.241.011-.364a2.764,2.764,0,0,1,.054-.373c.011-.059.025-.119.03-.179a1.526,1.526,0,0,1,.143-.5l.012-.025,0-.008a1.222,1.222,0,0,1,.152-1.133l0,0,0-.012a1.517,1.517,0,0,1-.011-.543,1.574,1.574,0,0,1,.191-.479c.014-.026.031-.052.043-.079a2.055,2.055,0,0,1,.116-.351,1.232,1.232,0,0,0,.054-.149.933.933,0,0,0,.02-.15,2.46,2.46,0,0,1,.072-.406.839.839,0,0,0,.008-.1,1.851,1.851,0,0,1,.076-.458c.04-.12.09-.237.141-.352.026-.059.052-.116.073-.175a1.069,1.069,0,0,1,.073-.157v-.011l-.017-.047a1.407,1.407,0,0,1-.113-.534,1,1,0,0,0-.02-.164,3,3,0,0,1-.034-.338c0-.1,0-.19,0-.283,0-.074.006-.147,0-.221a1.252,1.252,0,0,1,.158-.643l-.007-.084c-.006-.063-.009-.124-.017-.184a1.341,1.341,0,0,1-.292-.541,1.763,1.763,0,0,0-.073-.223c-.026-.072-.053-.146-.077-.221a.7.7,0,0,0-.337-.818c-.04-.07-.076-.143-.111-.215a1.422,1.422,0,0,0-.083-.156c.021.031,0,.016-.027,0a1.739,1.739,0,0,1-.342-.249,1.1,1.1,0,0,1-.3-.58,2.248,2.248,0,0,1-.3-.148c-.066-.041-.133-.086-.2-.131a1.945,1.945,0,0,0-.214-.133,1.647,1.647,0,0,0-.213-.081c-.087-.031-.176-.061-.261-.1a2.842,2.842,0,0,1-.3-.156c-.034-.02-.067-.041-.1-.059l-.038,0a1.483,1.483,0,0,1-.545-.04c-.1-.028-.2-.051-.3-.074l-.205-.05c-.106-.026-.215-.048-.323-.071l-.188-.039c-.078-.018-.161-.027-.242-.038s-.183-.025-.275-.042a1.125,1.125,0,0,1-.418-.176,1.8,1.8,0,0,1-.323-.026,1.1,1.1,0,0,1-.3,0c-.043-.006-.083-.014-.122-.023a2.108,2.108,0,0,1-.4.02c-.065,0-.131,0-.2,0-.12,0-.246,0-.368-.009s-.227-.028-.339-.047c-.072-.012-.143-.025-.215-.032a1.274,1.274,0,0,1-.608-.255l-.014-.011-.172-.021c-.073-.009-.146-.02-.22-.027a1.3,1.3,0,0,1-.571.1,1.737,1.737,0,0,1-.27-.041,1.158,1.158,0,0,1-.269.015c-.08,0-.161,0-.241,0-.1,0-.189,0-.283,0a2.433,2.433,0,0,1-.329-.037,1,1,0,0,0-.106-.015.809.809,0,0,1-.092,0,.745.745,0,0,1,.035-1.486,1.383,1.383,0,0,1,.573-.1c.106.007.215.024.326.041a1.822,1.822,0,0,0,.211.028c.059,0,.115.011.166.02a1.349,1.349,0,0,1,.392-.034c.106.008.21,0,.312.007a1.066,1.066,0,0,1,.234-.008l.556.038a1.781,1.781,0,0,1,.466.113.843.843,0,0,0,.1.033,1.22,1.22,0,0,1,.511.178,1.251,1.251,0,0,1,.593-.093,1.612,1.612,0,0,1,.419.117h.013c.05,0,.1.006.15.011a1.338,1.338,0,0,1,.436-.058,1.087,1.087,0,0,1,.4-.123,2.11,2.11,0,0,0,.241-.046c.072-.017.145-.033.221-.046a2.774,2.774,0,0,1,.309-.034,1.174,1.174,0,0,0,.153-.015.817.817,0,0,0,.12-.061,2.437,2.437,0,0,1,.29-.142,1.073,1.073,0,0,1,.568-.051,1.286,1.286,0,0,1,.3-.278c.015-.013.038-.041.063-.068a2.012,2.012,0,0,1,.28-.268c.124-.1.24-.2.362-.308a3.068,3.068,0,0,1,.248-.192,1.036,1.036,0,0,0,.142-.11,1.583,1.583,0,0,1,.4-.277.775.775,0,0,0,.077-.043c-.006,0,.014-.045.038-.087a2.354,2.354,0,0,1,.2-.3c-.018.02-.013,0,0-.031a1.533,1.533,0,0,1,.209-.435,2.41,2.41,0,0,1,.242-.275.881.881,0,0,0,.091-.1.75.75,0,0,0,.063-.139,2.564,2.564,0,0,1,.148-.309,3.113,3.113,0,0,1,.179-.267.893.893,0,0,0,.1-.143,1.4,1.4,0,0,1,.3-.377,1.238,1.238,0,0,1,.071-.537,1.2,1.2,0,0,1,.367-.485V284.1a1.915,1.915,0,0,1,.06-.411,1.251,1.251,0,0,0,.03-.181,3,3,0,0,1,.051-.312,1.429,1.429,0,0,1,.236-.495l.007-.011,0-.04a1.835,1.835,0,0,1,0-.436,2.318,2.318,0,0,1,.094-.374l.024-.068a1.467,1.467,0,0,1-.1-.574,1.535,1.535,0,0,0-.007-.177,3.055,3.055,0,0,1-.012-.328c0-.1.013-.2.025-.307a1.648,1.648,0,0,0,.017-.2,1.946,1.946,0,0,0-.017-.2c-.012-.1-.024-.2-.027-.306a.747.747,0,0,1,.3-.628,1.367,1.367,0,0,1,.146-.385,1.332,1.332,0,0,1-.1-.514,1.14,1.14,0,0,1,.15-.523,1.152,1.152,0,0,1-.146-.515,1.561,1.561,0,0,0-.022-.195c-.015-.1-.029-.208-.035-.313a1.292,1.292,0,0,1,.124-.589l-.012-.034a2.059,2.059,0,0,1-.1-.393,1.857,1.857,0,0,1,0-.4,1.165,1.165,0,0,1-.328-.542.745.745,0,0,1,1.4-.5,1.232,1.232,0,0,1,.406.658,1.886,1.886,0,0,1,.014.48.7.7,0,0,0-.006.111.873.873,0,0,0,.033.1,1.888,1.888,0,0,1,.112.458,1.293,1.293,0,0,1-.13.635l-.006.017.014.1c.013.09.026.18.033.269a1.3,1.3,0,0,1,.214.667,1.163,1.163,0,0,1-.172.581,1.167,1.167,0,0,1-.093,1.117l0,.008.009.066a2.593,2.593,0,0,1,.025.344l.017.05a1.4,1.4,0,0,1,.1.558,1.162,1.162,0,0,1-.283.662l-.025.613,0,.078a1.026,1.026,0,0,1,0,.158l0,.041v.024c0,.085,0,.17,0,.255s0,.182,0,.273a1,1,0,0,0,.02.151,2.588,2.588,0,0,1,.04.366.989.989,0,0,0,.025.1,1.952,1.952,0,0,1,.072.408,2.611,2.611,0,0,1-.015.359.984.984,0,0,0-.008.156.667.667,0,0,0,.032.1,2.067,2.067,0,0,1,.1.4,1.27,1.27,0,0,1-.077.571,1.637,1.637,0,0,1,.168.431c0-.028.011,0,.027.019a1.618,1.618,0,0,1,.2.437c.024.087.041.175.059.261s.028.146.051.22a1.288,1.288,0,0,1,.026.616v.008c.028.065.06.132.091.2l.076.165c.04.085.073.176.106.268.009.024.019.048.027.073a1.192,1.192,0,0,1,.506.439,2.209,2.209,0,0,1,.157.34.709.709,0,0,0,.05.119.73.73,0,0,0,.094.1,2.572,2.572,0,0,1,.239.267,1.723,1.723,0,0,1,.214.4.723.723,0,0,0,.038.087,1.31,1.31,0,0,1,.2.364,1.158,1.158,0,0,1,.535.292l.137.139c.072.074.144.15.221.221a2.567,2.567,0,0,1,.244.273.907.907,0,0,0,.1.115,1,1,0,0,0,.139.09,2.679,2.679,0,0,1,.29.2.829.829,0,0,0,.124.068,2.522,2.522,0,0,1,.321.195,1.523,1.523,0,0,1,.344.378c.017.022.031.046.048.067,0-.012.054.015.106.041a2.875,2.875,0,0,1,.306.168c.144.093.289.184.438.274a1.4,1.4,0,0,1,.373.35,1.279,1.279,0,0,1,.549.136,1.113,1.113,0,0,1,.377.339,1.048,1.048,0,0,1,.579.085.959.959,0,0,1,.353.287c.052.012.106.018.161.026a2.958,2.958,0,0,1,.37.071,1.485,1.485,0,0,1,.4.182.9.9,0,0,1,.157.046,1.018,1.018,0,0,1,.241.134l.052.021a1.818,1.818,0,0,0,.172.067c.109.034.215.076.32.118l.009,0a1.016,1.016,0,0,1,.323.1l.032.006c.1.019.191.039.283.066a1.412,1.412,0,0,1,.649.04,1.766,1.766,0,0,1,.414.222.932.932,0,0,0,.085.054.943.943,0,0,1,.144.064c.066.029.124.06.174.086a.74.74,0,0,0,.091.046,2.67,2.67,0,0,1,.311.1c.034.012.067.025.1.035a1.118,1.118,0,0,1,.17.047.745.745,0,0,1-.393,1.433l-.112-.027c-.015,0-.039,0-.063,0a1.738,1.738,0,0,1-.471-.086,1.491,1.491,0,0,1-.44-.261h-.021a1.535,1.535,0,0,1-.529-.041.62.62,0,0,1-.076,0,1.65,1.65,0,0,1-.491-.063,1.2,1.2,0,0,1-.5-.325,1.239,1.239,0,0,1-.56-.052,1.151,1.151,0,0,0-1.054-.4.886.886,0,0,0-.118-.026,1.944,1.944,0,0,1-.431-.123.95.95,0,0,1-.292-.2,1.254,1.254,0,0,1-.54.03,2.483,2.483,0,0,1-.345-.1.952.952,0,0,0-.15-.045,1.3,1.3,0,0,1-.577-.268l-.012-.008-.151-.024c-.084-.014-.166-.028-.249-.034a1.745,1.745,0,0,0-.189.009c-.11.009-.226.015-.322.014s-.176-.007-.263-.014a2.105,2.105,0,0,0-.24-.011l-.189,0c-.105,0-.211,0-.313.013a.979.979,0,0,0-.164.043,2.709,2.709,0,0,1-.32.079c-.018.007-.051.026-.085.041a2.048,2.048,0,0,1-.373.143,1.574,1.574,0,0,0-.2.074c-.08.033-.162.066-.246.094a1.972,1.972,0,0,0-.235.1l-.192.09a1.659,1.659,0,0,1-.429.114c-.031,0-.06.008-.089.015.017,0-.013.034-.045.065a2.485,2.485,0,0,1-.241.209,1.3,1.3,0,0,1-.476.21,1.674,1.674,0,0,1-.235.367,1.635,1.635,0,0,1-.336.285.958.958,0,0,0-.079.057l-.148.243-.086.139a.969.969,0,0,0-.054.135,2.6,2.6,0,0,1-.14.327,2.083,2.083,0,0,1-.213.3,1.052,1.052,0,0,1-.158.9c0,.021,0,.041,0,.063a1.345,1.345,0,0,1-.182.564.142.142,0,0,1-.02.036c-.012.1-.029.2-.048.294-.012.061-.025.124-.031.187a1.044,1.044,0,0,0,0,.149,2.355,2.355,0,0,1-.008.4c.006-.035.012,0,.018.025a1.493,1.493,0,0,1,.035.531,1.377,1.377,0,0,1-.216.541l-.018.027c0,.039,0,.078,0,.117a2.72,2.72,0,0,1-.03.368,1.381,1.381,0,0,1-.2.5,1.285,1.285,0,0,1,.038.572c0,.032,0,.07,0,.109a1.731,1.731,0,0,1-.025.431,1.85,1.85,0,0,1-.149.43.779.779,0,0,0-.041.091c-.009.052-.015.117-.021.182a3.171,3.171,0,0,1-.048.339c-.014.072-.025.145-.033.218-.015.1-.028.205-.05.3a1.679,1.679,0,0,1-.162.432A.77.77,0,0,1,110.662,306.084Zm1.475-4.753v0Zm.264-2.155h0Zm-1.32-1.148v0Zm-.013-2.058a.129.129,0,0,0,0,.021Zm-.048-.475v0Zm1.152-.869a1.343,1.343,0,0,1,.319.628c0,.026.008.052.012.079.047-.037.092-.067.132-.094a.893.893,0,0,0,.076-.054c-.02.013,0-.021.013-.05a1.545,1.545,0,0,1,.318-.459,1.291,1.291,0,0,1,.614-.3l.028-.007.053-.051a1.9,1.9,0,0,1,.4-.312,1.54,1.54,0,0,1,.53-.164c.028,0,.059-.008.086-.015l.124-.06a3.529,3.529,0,0,1,.4-.172c.055-.019.107-.04.159-.061a2.926,2.926,0,0,1,.407-.142c.029-.011.063-.028.1-.044a1.743,1.743,0,0,1,.473-.164c.048-.008.1-.025.149-.039a2.283,2.283,0,0,1,.437-.1c.141-.014.287-.018.433-.02l.071,0a1.678,1.678,0,0,1-.277-.324.738.738,0,0,0-.047-.067.5.5,0,0,1-.089-.038,2.273,2.273,0,0,1-.358-.223,1.37,1.37,0,0,0-.138-.09,2.442,2.442,0,0,1-.334-.234,2.219,2.219,0,0,1-.29-.314,1.049,1.049,0,0,0-.094-.11c-.1-.09-.188-.184-.279-.279l-.041-.041a1.226,1.226,0,0,1-.642-.342,1.5,1.5,0,0,1-.279-.479c-.011-.026-.02-.054-.033-.079a1.483,1.483,0,0,1-.224-.409.732.732,0,0,0-.038-.087c-.018-.022-.054-.055-.089-.09a2.2,2.2,0,0,1-.28-.325,2.026,2.026,0,0,1-.2-.412l-.006-.015a1.158,1.158,0,0,1-.534-.483,3.11,3.11,0,0,1-.158-.378c-.021-.056-.041-.112-.065-.165l-.069-.146c-.06-.129-.119-.256-.169-.385a1.283,1.283,0,0,1-.045-.676l0-.025c-.027-.1-.047-.2-.067-.3-.012-.058-.022-.116-.038-.172,0,.014-.017-.014-.031-.037a1.6,1.6,0,0,1-.207-.45,1.547,1.547,0,0,1-.287.333l-.057.054a1.7,1.7,0,0,1-.185.289,1.467,1.467,0,0,0-.092.133,1.041,1.041,0,0,0-.061.135,2.28,2.28,0,0,1-.19.379,1.94,1.94,0,0,1-.281.333.806.806,0,0,0-.092.1c.011-.011,0,.018-.007.044a1.481,1.481,0,0,1-.244.481,1.052,1.052,0,0,0-.073.119,2.179,2.179,0,0,1-.249.361,1.53,1.53,0,0,1-.451.333c-.025.014-.05.026-.072.041a2.2,2.2,0,0,1-.3.247,1.318,1.318,0,0,0-.118.09c-.153.137-.3.263-.451.38a.623.623,0,0,0-.083.086,1.783,1.783,0,0,1-.359.321c.033-.023.019,0,0,.021a1.6,1.6,0,0,1-.285.31c.066.033.131.069.2.105a1.03,1.03,0,0,0,.137.073c.055.023.115.044.171.064a3.056,3.056,0,0,1,.394.157,3.262,3.262,0,0,1,.383.231c.047.032.094.064.142.093a.75.75,0,0,0,.122.052,1.837,1.837,0,0,1,.45.237,1.09,1.09,0,0,1,.392.7,1.42,1.42,0,0,1,.41.347,2.306,2.306,0,0,1,.244.414l.017.035a1.194,1.194,0,0,1,.531.551,1.155,1.155,0,0,1,.019.762l.015.044C112.105,294.415,112.142,294.519,112.172,294.627Zm.022.09h0Zm6.972-.129h0Zm-7.617-1.537h0Zm.708-17.767h0Zm1.021-.993h0Z" transform="translate(15.935 35.901)"/><path class="c" d="M131.516,277.086c-5.15.6-6.271,5.261-6.83,8.726-.56-3.465-1.53-5.775-2.276-6.412a6.554,6.554,0,0,0-6.046-2.164c6.345-1.56,7.987-4.628,8.733-9.8C125.1,273.5,126.813,275.676,131.516,277.086Z" transform="translate(18.941 34.848)"/><g transform="translate(124.379 165.753)"><g class="g"><g transform="translate(7.569 27.152)"><path class="h" d="M182.893,408.03s14.441-41.752,16.878-43.214c15.8-9.481,33.591-32.443,33.591-32.443l15.8-18.2s-80.274-33.236-80.274-45.842,2.36-11.813,2.36-18.589c0-8.979-6.367-14.636-10.593-15.41-2.081-.381-1.6,5.292-3.143,9.764s-4.791,14.091-5.488,20.12c-1,8.712-4.024,16.828-4.756,23.779A175.964,175.964,0,0,0,148,324.58c1.26,10.075-2.77,20.932-3.56,23.3-2.416,7.248-28.879,59.338-28.879,59.338" transform="translate(-113.612 -163.529)"/><path class="d" d="M172.887,398.056a1.949,1.949,0,0,1-1.841-2.585c.036-.1,3.661-10.578,7.538-21.1,2.281-6.189,4.2-11.187,5.714-14.854,2.847-6.914,3.676-7.825,4.465-8.3,6.3-3.779,14-10.489,22.27-19.4,6.3-6.787,10.739-12.5,10.783-12.561q.033-.043.069-.084l15.8-18.2a1.948,1.948,0,1,1,2.942,2.554l-15.766,18.159c-.434.556-4.837,6.164-10.947,12.753-3.77,4.065-7.449,7.71-10.935,10.834a83.114,83.114,0,0,1-12.024,9.175c-.256.357-1.141,1.83-3.451,7.525-1.5,3.689-3.369,8.589-5.565,14.565-3.746,10.194-7.177,20.1-7.211,20.2A1.949,1.949,0,0,1,172.887,398.056Z" transform="translate(-103.607 -151.606)"/><path class="h" d="M219.027,235.808s19.107-9.634,25.544-9.213c5.626.37,7.613,4.515,3.436,10.781-4.592,6.887-23.164,15.949-23.164,15.949Z" transform="translate(-94.919 -164.926)"/><path class="d" d="M244.439,224.932c.192,0,.379.006.558.018,3.291.216,5.719,1.581,6.836,3.843a7.142,7.142,0,0,1,.463,4.711,15.3,15.3,0,0,1-2.369,5.251c-2.066,3.1-6.75,6.849-13.923,11.147-5.229,3.133-9.814,5.377-10.007,5.471a1.948,1.948,0,0,1-2.7-1.137l-5.816-17.516a1.948,1.948,0,0,1,.972-2.353c.046-.023,4.694-2.362,10.116-4.667C236.007,226.536,241.348,224.932,244.439,224.932Zm-18.161,25.93c1.825-.947,4.7-2.489,7.747-4.316,8.3-4.974,11.463-8.157,12.66-9.952,1.7-2.549,2.3-4.763,1.654-6.076s-2.529-1.61-3.6-1.68c-.094-.006-.2-.009-.3-.009-4.754,0-16.866,5.418-22.731,8.273Z" transform="translate(-95.217 -165.225)"/><rect class="i" width="82.31" height="157.831" rx="12.179" transform="translate(57.405 1.948)"/><path class="d" d="M14.677-1.65H68.229A16.327,16.327,0,0,1,84.556,14.677V143.75a16.327,16.327,0,0,1-16.327,16.327H14.677A16.327,16.327,0,0,1-1.65,143.75V14.677A16.327,16.327,0,0,1,14.677-1.65ZM68.229,156.181A12.445,12.445,0,0,0,80.66,143.75V14.677A12.445,12.445,0,0,0,68.229,2.246H14.677A12.445,12.445,0,0,0,2.246,14.677V143.75a12.445,12.445,0,0,0,12.431,12.431Z" transform="translate(57.107 1.65)"/><g transform="translate(61.24 5.728)"><path class="h" d="M238.173,317.176a6.811,6.811,0,0,1-6.868,6.711H174.3a6.811,6.811,0,0,1-6.868-6.711v-129.6a6.811,6.811,0,0,1,6.868-6.712h12.775l2.411,4.723h26.971l1.9-4.723H231.3a6.811,6.811,0,0,1,6.868,6.712Z" transform="translate(-165.481 -178.915)"/><path class="d" d="M231.6,326.383H174.6a8.827,8.827,0,0,1-8.816-8.817V188.03a8.827,8.827,0,0,1,8.816-8.817H187.37a1.948,1.948,0,0,1,1.828,1.274l1.477,4h24.673l1.477-4a1.948,1.948,0,0,1,1.828-1.274H231.6a8.827,8.827,0,0,1,8.816,8.817V317.566A8.827,8.827,0,0,1,231.6,326.383ZM174.6,183.109a4.941,4.941,0,0,0-4.92,4.921V317.566a4.941,4.941,0,0,0,4.92,4.921H231.6a4.941,4.941,0,0,0,4.92-4.921V188.03a4.941,4.941,0,0,0-4.92-4.921H220.01l-1.477,4a1.948,1.948,0,0,1-1.828,1.274H189.317a1.948,1.948,0,0,1-1.828-1.274l-1.477-4Z" transform="translate(-165.779 -179.213)"/></g><path class="h" d="M176.313,330.043c1.053-15.8-6.3-32.93-7.095-42.411-.407-4.883-.331-6.692-.331-19.3s2.36-11.813,2.36-18.589c0-8.979-6.367-14.636-10.593-15.41-2.081-.381-1.6,5.292-3.143,9.764s-4.791,14.091-5.488,20.12c-1,8.712-4.024,16.828-4.756,23.779A175.964,175.964,0,0,0,148,324.58c1.26,10.075-2.77,20.932-3.56,23.3-2.416,7.248-28.879,59.338-28.879,59.338" transform="translate(-113.612 -163.529)"/><path class="d" d="M115.858,409.467a1.949,1.949,0,0,1-1.735-2.831c.264-.52,26.425-52.043,28.768-59.072.051-.153.115-.34.19-.56a71.813,71.813,0,0,0,2.475-8.8,40.41,40.41,0,0,0,.81-13.086A182.42,182.42,0,0,1,145,301.5c.035-5.825.346-10.744.626-13.406a86.152,86.152,0,0,1,2.211-11.037,104.164,104.164,0,0,0,2.547-12.762c.755-6.533,4.388-17.069,5.581-20.532a29.358,29.358,0,0,0,1.064-4.975c.411-2.676.708-4.609,2.1-5.6a2.829,2.829,0,0,1,2.17-.47,14.43,14.43,0,0,1,8.048,5.323,18.875,18.875,0,0,1,4.143,12,21.431,21.431,0,0,1-.981,6.647c-.646,2.313-1.379,4.935-1.379,11.942,0,1.936,0,3.617,0,5.093-.009,8.073-.011,9.991.327,14.043a85.384,85.384,0,0,0,2.68,12.575c2.276,8.8,5.109,19.743,4.417,30.127a1.948,1.948,0,1,1-3.888-.259,61.362,61.362,0,0,0-1.046-14.752c-.875-4.94-2.14-9.828-3.256-14.14a87.386,87.386,0,0,1-2.791-13.228c-.352-4.215-.35-6.165-.341-14.371,0-1.476,0-3.155,0-5.089,0-7.54.844-10.562,1.522-12.99a17.706,17.706,0,0,0,.838-5.6,15.016,15.016,0,0,0-3.281-9.56,11.559,11.559,0,0,0-4.954-3.729c-.183.7-.355,1.812-.48,2.624a32.323,32.323,0,0,1-1.231,5.653c-1.16,3.363-4.688,13.6-5.394,19.709a107.153,107.153,0,0,1-2.633,13.238A83.505,83.505,0,0,0,149.5,288.5c-.093.887-.561,5.685-.6,13.021a178.513,178.513,0,0,0,1.333,23.115c1.236,9.888-2.3,20.231-3.464,23.63-.071.208-.132.385-.18.53-2.434,7.3-27.907,57.473-28.991,59.6A1.948,1.948,0,0,1,115.858,409.467Z" transform="translate(-113.911 -163.827)"/><path class="h" d="M239.152,283.119s-4.554-.569-5.113.119c-.653.805,1.163,3.338.752,4.979-1.26,5.044-6.916,6.94-4.747,11.983,2.948,6.855,11.709,1.4,13.664-1.424C245.555,296.107,244.208,289.957,239.152,283.119Z" transform="translate(-93.017 -154.751)"/><path class="d" d="M236.214,281.248h0a32.841,32.841,0,0,1,3.478.236,1.948,1.948,0,0,1,1.325.775c5.333,7.214,7.135,14.249,4.59,17.924-1.578,2.28-6.223,5.578-10.495,5.578a6.88,6.88,0,0,1-6.561-4.494,6.777,6.777,0,0,1-.2-5.321,14.228,14.228,0,0,1,2.37-3.7,11.3,11.3,0,0,0,2.477-4.207,6.064,6.064,0,0,0-.431-1.733c-.421-1.232-.946-2.766.056-4C233.54,281.428,234.7,281.248,236.214,281.248Zm2.167,4.015c-.527-.049-1.233-.1-1.893-.116a6.862,6.862,0,0,1,.491,3.841,14.7,14.7,0,0,1-3.213,5.694c-1.715,2.147-2.439,3.175-1.635,5.046a3.006,3.006,0,0,0,2.981,2.137,9,9,0,0,0,4.311-1.416,10.3,10.3,0,0,0,2.98-2.483c.581-.839.593-2.576.033-4.647A26.006,26.006,0,0,0,238.381,285.262Z" transform="translate(-93.316 -155.05)"/><path class="h" d="M237.452,269.729a77.8,77.8,0,0,1-5.6,6.422c-2.724,2.778-5.808,6.291-5.311,9.072,1.026,5.746,6.667,6.236,12.111,3.772,5.534-2.505,10.468-7.8,8.827-13.342C245.318,268.36,242.16,269.366,237.452,269.729Z" transform="translate(-93.571 -157.178)"/><path class="d" d="M241.42,267.819a7.262,7.262,0,0,1,4.9,1.6c1.42,1.209,2.478,3.108,3.328,5.975a9.669,9.669,0,0,1,.117,5.082,12.417,12.417,0,0,1-2.14,4.438,20.194,20.194,0,0,1-7.868,6.149,16.362,16.362,0,0,1-6.611,1.579,8.594,8.594,0,0,1-5.265-1.619,7.989,7.989,0,0,1-2.957-5.165c-.641-3.587,2.427-7.3,5.837-10.779a76.538,76.538,0,0,0,5.442-6.241,1.949,1.949,0,0,1,1.4-.76c.4-.031.79-.066,1.17-.1C239.693,267.9,240.563,267.819,241.42,267.819Zm-8.276,20.931a12.482,12.482,0,0,0,5-1.232,16.483,16.483,0,0,0,6.34-4.915,6.771,6.771,0,0,0,1.422-6.1c-1.42-4.789-2.981-4.789-4.491-4.789-.678,0-1.463.072-2.293.148l-.367.033c-.908,1.139-2.869,3.523-5.218,5.916a31.722,31.722,0,0,0-3.633,4.251,4.993,4.993,0,0,0-1.15,3.114C229.188,287.582,230.622,288.75,233.144,288.75Z" transform="translate(-93.869 -157.476)"/><path class="h" d="M235.983,250.964s.842,5.274-.8,6.505c-3.012,2.26-9.492,6.557-9.869,9.572-.734,5.864,5.279,7.455,10.9,5.412,6.772-2.463,9.908-4.513,10.262-12.11S238.863,251.45,235.983,250.964Z" transform="translate(-93.794 -160.521)"/><path class="d" d="M236.281,249.314a1.947,1.947,0,0,1,.325.027l.056.009a20.86,20.86,0,0,1,7.1,2.278,9.5,9.5,0,0,1,4.95,9.1c-.2,4.211-1.2,7.057-3.255,9.229-1.931,2.041-4.6,3.282-8.287,4.621a15.532,15.532,0,0,1-5.233.965,8.69,8.69,0,0,1-6.673-2.6,7.144,7.144,0,0,1-1.589-5.849c.4-3.188,4.44-6.367,9.282-9.9.466-.34.908-.661,1.286-.944a5.49,5.49,0,0,0,.3-2.494,18.92,18.92,0,0,0-.187-2.195,1.948,1.948,0,0,1,1.924-2.255Zm-4.341,22.337a11.6,11.6,0,0,0,3.9-.73c3.15-1.146,5.385-2.154,6.789-3.638,1.367-1.445,2.044-3.521,2.193-6.732a5.6,5.6,0,0,0-3.025-5.558,13.2,13.2,0,0,0-3.359-1.308q0,.179,0,.362c.009,2.64-.578,4.367-1.8,5.28-.414.31-.89.657-1.394,1.025a65.019,65.019,0,0,0-5.189,4.064c-2.281,2.066-2.5,3-2.521,3.167a3.414,3.414,0,0,0,.644,2.787A4.936,4.936,0,0,0,231.941,271.651Z" transform="translate(-94.092 -160.819)"/><path class="d" d="M5.8,2.246H.3a1.948,1.948,0,0,1,0-3.9H5.8a1.948,1.948,0,1,1,0,3.9Z" transform="translate(95.509 7.254)"/><path class="d" d="M205.224,180.96a1.321,1.321,0,1,1-1.321-1.321A1.321,1.321,0,0,1,205.224,180.96Z" transform="translate(-97.89 -173.408)"/></g></g></g><g transform="translate(208.681 251.044)"><g class="j"><rect class="a" width="43.909" height="43.909"/><path class="k" d="M200.932,253.577a5.488,5.488,0,1,0-5.488-5.488A5.488,5.488,0,0,0,200.932,253.577Zm0-16.466a10.977,10.977,0,1,1-10.977,10.978A10.978,10.978,0,0,1,200.932,237.112ZM217.4,267.3H184.467a5.627,5.627,0,0,1-5.488-5.489v-24.7a5.5,5.5,0,0,1,5.488-5.488h4.391l4.117-4.117a4.545,4.545,0,0,1,3.293-1.372h9.6a4.41,4.41,0,0,1,3.019,1.372l4.117,4.117h4.39a5.5,5.5,0,0,1,5.489,5.488v24.7A5.5,5.5,0,0,1,217.4,267.3Z" transform="translate(-178.979 -223.391)"/></g></g><path class="d" d="M14.758,0H309.628a14.758,14.758,0,1,1,0,29.517H14.758A14.758,14.758,0,0,1,14.758,0Z" transform="translate(66.035 374.896)"/><g class="e" transform="translate(81.462 377.266)"><path class="b" d="M-168.458-19.792q0,.383-.36.383-.27,0-.552-.011t-.552-.011a.32.32,0,0,0-.315.191.916.916,0,0,0-.09.394q0,.788-.011,1.588t-.011,1.588q0,2.478.011,4.967t.011,4.967q0,.158-.023.5a1.836,1.836,0,0,0,.056.619.327.327,0,0,0,.327.282q.293,0,.586-.023t.586-.023a.236.236,0,0,1,.225.124.579.579,0,0,1,.068.282.432.432,0,0,1-.1.282.344.344,0,0,1-.282.124q-.766,0-1.521-.023t-1.521-.023q-.766,0-1.532.023t-1.532.023a.358.358,0,0,1-.293-.09.5.5,0,0,1-.068-.293.556.556,0,0,1,.079-.3.284.284,0,0,1,.259-.124q.248,0,.5.023t.473.023a.446.446,0,0,0,.428-.2,1.181,1.181,0,0,0,.135-.484q.023-.282.023-.484l.023-12.93a5.718,5.718,0,0,0-.045-.6q-.045-.394-.315-.417h-.248a4.2,4.2,0,0,0-.439.023,4.194,4.194,0,0,1-.439.023.378.378,0,0,1-.428-.428.39.39,0,0,1,.1-.27.333.333,0,0,1,.259-.113q.969,0,1.926.045t1.926.045q.586,0,1.183-.045t1.183-.045a.252.252,0,0,1,.248.135A.646.646,0,0,1-168.458-19.792Zm15.814,15.746a.319.319,0,0,1-.36.36q-.653,0-1.318-.034t-1.318-.034q-.631,0-1.284.034t-1.307.034a.236.236,0,0,1-.225-.124.533.533,0,0,1-.068-.259q0-.338.36-.338.2,0,.406.011t.406.011q.338,0,.338-.293,0-1.892.011-3.784t.011-3.784a8.222,8.222,0,0,0-.1-1.261,2.357,2.357,0,0,0-.451-1.1,1.351,1.351,0,0,0-1.138-.451,1.828,1.828,0,0,0-1.025.36,4.652,4.652,0,0,0-.946.856,3.726,3.726,0,0,0-.6.924v7.974a1.278,1.278,0,0,0,.056.383q.056.18.3.18.18,0,.372-.011t.372-.011a.361.361,0,0,1,.225.09.258.258,0,0,1,.113.2q0,.428-.36.428-.631,0-1.25-.056t-1.273-.056q-.676,0-1.363.056t-1.385.056a.236.236,0,0,1-.225-.124.534.534,0,0,1-.068-.259q0-.338.36-.338.2,0,.405.011t.428.011q.315,0,.36-.135a1.471,1.471,0,0,0,.045-.428V-13.71a2.565,2.565,0,0,0-.068-.552.367.367,0,0,0-.405-.3,4.194,4.194,0,0,0-.439.023,4.2,4.2,0,0,1-.439.023.973.973,0,0,1-.3-.056.228.228,0,0,1-.169-.237.237.237,0,0,1,.09-.2.5.5,0,0,1,.2-.09,2.4,2.4,0,0,1,.473-.09,4.483,4.483,0,0,0,.473-.068q.586-.113,1.16-.259t1.138-.3a1.882,1.882,0,0,1,.18-.079.511.511,0,0,1,.18-.034q.18,0,.327.338a5.071,5.071,0,0,1,.248.721,5.539,5.539,0,0,1,.124.541,7.109,7.109,0,0,1,1.577-1.047,4.056,4.056,0,0,1,1.825-.462,5.839,5.839,0,0,1,2.354.383,2.282,2.282,0,0,1,1.205,1.273,6.456,6.456,0,0,1,.36,2.377q0,1.757-.022,3.514t-.023,3.514a.369.369,0,0,0,.146.327.638.638,0,0,0,.372.1,2,2,0,0,0,.3-.023,2,2,0,0,1,.3-.023Q-152.645-4.407-152.645-4.046Zm10.588-3a3.013,3.013,0,0,1-.451,1.723A2.99,2.99,0,0,1-143.7-4.294a5.671,5.671,0,0,1-1.611.5,11.176,11.176,0,0,1-1.723.135,5.4,5.4,0,0,1-1.1-.113q-.541-.113-1.081-.248-.225-.045-.473-.1a2.231,2.231,0,0,0-.5-.056q-.09-.315-.259-.935t-.315-1.216a4.151,4.151,0,0,1-.146-.845q0-.248.158-.315a.849.849,0,0,1,.338-.068.455.455,0,0,1,.406.2,4.564,4.564,0,0,1,.541.991,2.987,2.987,0,0,0,.631.969,4.046,4.046,0,0,0,.912.687,2.174,2.174,0,0,0,1.07.349,2.158,2.158,0,0,0,1.521-.473,1.98,1.98,0,0,0,.507-1.509,1.681,1.681,0,0,0-.428-1.171,4.461,4.461,0,0,0-1.093-.856q-.665-.383-1.408-.755a12.332,12.332,0,0,1-1.408-.822,3.981,3.981,0,0,1-1.093-1.093,2.758,2.758,0,0,1-.428-1.566,2.736,2.736,0,0,1,.631-1.87,3.692,3.692,0,0,1,1.611-1.059,6.011,6.011,0,0,1,1.971-.338,5.625,5.625,0,0,1,.879.068,3.683,3.683,0,0,1,.856.248q.2.068.552.169a2.114,2.114,0,0,0,.552.1,2.314,2.314,0,0,0,.563-.068q.045.631.146,1.261a10.259,10.259,0,0,1,.124,1.262v.068a.438.438,0,0,1-.124.372.477.477,0,0,1-.349.146.485.485,0,0,1-.327-.09.894.894,0,0,1-.191-.27q-.293-.653-.574-1.25a2.8,2.8,0,0,0-.743-.98,2.012,2.012,0,0,0-1.318-.383,1.448,1.448,0,0,0-1.329.7,2.8,2.8,0,0,0-.428,1.487,1.44,1.44,0,0,0,.473,1.081,4.626,4.626,0,0,0,.969.721q.608.315,1.408.7a12.556,12.556,0,0,1,1.543.879,5.167,5.167,0,0,1,1.239,1.138A2.349,2.349,0,0,1-142.057-7.042Zm9.461,2.23a.677.677,0,0,1-.327.552,2.712,2.712,0,0,1-.811.383,6.344,6.344,0,0,1-.98.214,6.348,6.348,0,0,1-.834.068,3.175,3.175,0,0,1-2.343-.687,3.263,3.263,0,0,1-.653-2.286q0-1.937.022-3.875t.023-3.875h-1.036a.542.542,0,0,0-.383.146.451.451,0,0,1-.293.146.2.2,0,0,1-.225-.225,1.239,1.239,0,0,1,.09-.338,1.856,1.856,0,0,1,.135-.315q.068-.135.135-.158a.684.684,0,0,1,.2-.023h1.4v-2.41a7.1,7.1,0,0,0,1.239-.924,6.813,6.813,0,0,0,1.036-1.126,1.52,1.52,0,0,1,.18-.237.353.353,0,0,1,.27-.124q.36,0,.338.315l-.068,4.505h2.32a.678.678,0,0,1,.327.079.292.292,0,0,1,.146.282q0,.428-.473.428h-2.32l-.045,8.7a1.662,1.662,0,0,0,.146.687.567.567,0,0,0,.574.327,4.594,4.594,0,0,0,.777-.068,2.868,2.868,0,0,0,.732-.225,1.87,1.87,0,0,0,.214-.1.434.434,0,0,1,.214-.056Q-132.6-5.037-132.6-4.812Zm8.11-1.307q-.068-1.059-.09-2.129t0-2.151a6.736,6.736,0,0,0-1.791.574,4.071,4.071,0,0,0-1.43,1.115,2.745,2.745,0,0,0-.563,1.78,4.176,4.176,0,0,0,.124.969,1.883,1.883,0,0,0,.45.867,1.159,1.159,0,0,0,.89.349,1.846,1.846,0,0,0,.856-.237,6.25,6.25,0,0,0,.867-.552A6.675,6.675,0,0,0-124.486-6.119Zm4.641,1.329a.366.366,0,0,1-.079.2,1.362,1.362,0,0,1-.146.18,2.268,2.268,0,0,1-1.8.811,2.576,2.576,0,0,1-1.554-.428,2.682,2.682,0,0,1-.9-1.329,6.252,6.252,0,0,1-1.543,1.216,3.946,3.946,0,0,1-1.926.451,3.944,3.944,0,0,1-1.588-.349,3.467,3.467,0,0,1-1.329-1,2.328,2.328,0,0,1-.529-1.509,2.7,2.7,0,0,1,.439-1.521,4.378,4.378,0,0,1,1.115-1.149,8.049,8.049,0,0,1,1.374-.8,10.813,10.813,0,0,1,1.847-.6q.946-.214,1.892-.439v-.09q0-.405-.011-1.093a7.767,7.767,0,0,0-.146-1.374,3.291,3.291,0,0,0-.451-1.171,1.033,1.033,0,0,0-.924-.484,2.058,2.058,0,0,0-1.25.405,2.149,2.149,0,0,0-.777,1.081,3.946,3.946,0,0,0-.068.394,3.965,3.965,0,0,1-.068.394.558.558,0,0,1-.417.484,2.184,2.184,0,0,1-.687.124,1.733,1.733,0,0,1-.743-.169.641.641,0,0,1-.36-.642.9.9,0,0,1,.056-.327q.056-.146.124-.3a2.5,2.5,0,0,1,1.081-1.261,4.679,4.679,0,0,1,1.588-.541,10.763,10.763,0,0,1,1.656-.135,4.6,4.6,0,0,1,3.041.991,3.588,3.588,0,0,1,1.194,2.928v3.4q-.022.631-.011,1.3t.056,1.318a2.984,2.984,0,0,0,.18.732.578.578,0,0,0,.608.349.973.973,0,0,0,.529-.135.752.752,0,0,1,.394-.135.106.106,0,0,1,.113.09A.617.617,0,0,1-119.846-4.789Zm9.213,1.982A1.771,1.771,0,0,0-111-4.069a1.773,1.773,0,0,0-.98-.5q-.608-.113-1.284-.18l-1.689-.18a2.879,2.879,0,0,0-.608,1.036,4.021,4.021,0,0,0-.158,1.171,2.048,2.048,0,0,0,.755,1.847,3.534,3.534,0,0,0,1.971.5,2.3,2.3,0,0,0,1.768-.642A2.529,2.529,0,0,0-110.632-2.807Zm-.969-9.371q0-.405-.023-.946a5.007,5.007,0,0,0-.158-1.059,1.95,1.95,0,0,0-.451-.856,1.143,1.143,0,0,0-.879-.338,1.37,1.37,0,0,0-1.047.394,2.254,2.254,0,0,0-.529.991,6.064,6.064,0,0,0-.191,1.228q-.034.631-.034,1.1,0,.5.045,1.059a4.342,4.342,0,0,0,.214,1.059,1.843,1.843,0,0,0,.529.811,1.49,1.49,0,0,0,1.014.315,1.127,1.127,0,0,0,.867-.327,1.927,1.927,0,0,0,.439-.833,5.314,5.314,0,0,0,.169-1.025q.034-.518.034-.924Zm4.46-3.086q0,.27-.349.405a2.721,2.721,0,0,1-.766.169q-.417.034-.62.034-.248,0-.507-.011t-.507-.034a2.684,2.684,0,0,1,.619.833,5.438,5.438,0,0,1,.406,1.093,4.272,4.272,0,0,1,.146,1.047A3.284,3.284,0,0,1-109.36-9.7a4.123,4.123,0,0,1-1.656,1.307,5.107,5.107,0,0,1-2.1.451h-.473q-.248,0-.5-.023a3.356,3.356,0,0,0-.552.6,1.4,1.4,0,0,0-.214.822.556.556,0,0,0,.18.372.8.8,0,0,0,.338.237,3.146,3.146,0,0,0,.721.146q.383.034.721.079.879.045,1.847.09a5.733,5.733,0,0,1,1.813.372,2.584,2.584,0,0,1,1.34,1.228,1.229,1.229,0,0,1,.169.451,3.355,3.355,0,0,1,.034.5,2.384,2.384,0,0,1-.552,1.611,3.972,3.972,0,0,1-1.4,1.025,7.54,7.54,0,0,1-1.78.552,9.637,9.637,0,0,1-1.7.169q-.563,0-1.442-.079A9.4,9.4,0,0,1-116.3-.126a4.056,4.056,0,0,1-1.453-.721,1.563,1.563,0,0,1-.586-1.284,2.294,2.294,0,0,1,.293-1.149,4.442,4.442,0,0,1,.732-.957q.439-.439.867-.8a3.635,3.635,0,0,1-.7-.282q-.428-.214-.428-.552a1.22,1.22,0,0,1,.225-.608,5.7,5.7,0,0,1,.563-.743q.338-.383.665-.71l.507-.507a4.424,4.424,0,0,1-1.622-1.453,3.7,3.7,0,0,1-.586-2.084,3.2,3.2,0,0,1,.687-2.084,4.348,4.348,0,0,1,1.757-1.284,5.678,5.678,0,0,1,2.174-.439,4.943,4.943,0,0,1,.653.045q.338.045.653.113.36.09.721.191a2.733,2.733,0,0,0,.743.1,6.368,6.368,0,0,0,1.735-.248,1.381,1.381,0,0,0,.788-.5q.27-.36.473-.36t.259.237a1.9,1.9,0,0,1,.045.518Q-107.141-15.4-107.141-15.264Zm10.925,2.095a.752.752,0,0,1-.124.417.413.413,0,0,1-.372.191.511.511,0,0,1-.518-.315q-.135-.293-.282-.687a2.431,2.431,0,0,0-.383-.687.806.806,0,0,0-.665-.293,1.042,1.042,0,0,0-.428.09,1.972,1.972,0,0,0-.383.225,3.506,3.506,0,0,0-1.16,1.408,6.36,6.36,0,0,0-.574,1.791v6.082q0,.383.214.5a.884.884,0,0,0,.518.079,5.038,5.038,0,0,1,.552-.034q.315,0,.315.338a.319.319,0,0,1-.36.36q-.676,0-1.352-.023t-1.352-.023q-.7,0-1.4.034t-1.419.034a.236.236,0,0,1-.225-.124.5.5,0,0,1-.068-.237q0-.338.36-.338.225,0,.439.011t.439.011a.363.363,0,0,0,.36-.18.894.894,0,0,0,.09-.405V-13.1a4.512,4.512,0,0,0-.045-.586,1.751,1.751,0,0,0-.191-.608.508.508,0,0,0-.484-.27,1.719,1.719,0,0,0-.439.056,1.809,1.809,0,0,1-.462.056.3.3,0,0,1-.338-.338.336.336,0,0,1,.248-.338,2.748,2.748,0,0,1,.653-.146,5.936,5.936,0,0,0,.653-.1q.293-.068.766-.191t.935-.225a3.583,3.583,0,0,1,.71-.1.545.545,0,0,1,.5.248,1.852,1.852,0,0,1,.135.529q.068.417.113.845t.045.608a11.182,11.182,0,0,1,1.554-1.6,3.11,3.11,0,0,1,2.072-.721,1.987,1.987,0,0,1,.665.124.653.653,0,0,1,.439.484,7.331,7.331,0,0,1,.18,1.093Q-96.215-13.62-96.215-13.169Zm8.11,7.051q-.068-1.059-.09-2.129t0-2.151a6.736,6.736,0,0,0-1.791.574,4.071,4.071,0,0,0-1.43,1.115,2.745,2.745,0,0,0-.563,1.78,4.177,4.177,0,0,0,.124.969,1.883,1.883,0,0,0,.451.867,1.159,1.159,0,0,0,.89.349,1.846,1.846,0,0,0,.856-.237,6.253,6.253,0,0,0,.867-.552A6.681,6.681,0,0,0-88.106-6.119Zm4.64,1.329a.366.366,0,0,1-.079.2,1.364,1.364,0,0,1-.146.18,2.269,2.269,0,0,1-1.8.811,2.576,2.576,0,0,1-1.554-.428,2.682,2.682,0,0,1-.9-1.329,6.252,6.252,0,0,1-1.543,1.216,3.946,3.946,0,0,1-1.926.451,3.944,3.944,0,0,1-1.588-.349,3.467,3.467,0,0,1-1.329-1,2.328,2.328,0,0,1-.529-1.509,2.694,2.694,0,0,1,.439-1.521,4.377,4.377,0,0,1,1.115-1.149,8.048,8.048,0,0,1,1.374-.8,10.812,10.812,0,0,1,1.847-.6q.946-.214,1.892-.439v-.09q0-.405-.011-1.093a7.767,7.767,0,0,0-.146-1.374A3.291,3.291,0,0,0-88.8-14.78a1.033,1.033,0,0,0-.924-.484,2.058,2.058,0,0,0-1.25.405,2.149,2.149,0,0,0-.777,1.081,3.942,3.942,0,0,0-.068.394,3.942,3.942,0,0,1-.068.394.558.558,0,0,1-.417.484,2.185,2.185,0,0,1-.687.124,1.733,1.733,0,0,1-.743-.169.641.641,0,0,1-.36-.642.9.9,0,0,1,.056-.327q.056-.146.124-.3a2.5,2.5,0,0,1,1.081-1.261,4.68,4.68,0,0,1,1.588-.541,10.764,10.764,0,0,1,1.656-.135,4.6,4.6,0,0,1,3.041.991,3.588,3.588,0,0,1,1.194,2.928v3.4q-.023.631-.011,1.3t.056,1.318a2.985,2.985,0,0,0,.18.732.578.578,0,0,0,.608.349.973.973,0,0,0,.529-.135.752.752,0,0,1,.394-.135.106.106,0,0,1,.113.09A.615.615,0,0,1-83.465-4.789ZM-62.425-4q0,.36-.383.36-.653,0-1.307-.056t-1.307-.056q-.653,0-1.318.056t-1.34.056a.243.243,0,0,1-.214-.124A.443.443,0,0,1-68.372-4q0-.338.405-.338.18,0,.372.011t.372.011q.27,0,.315-.169a1.539,1.539,0,0,0,.045-.394v-6.69q0-.608-.034-1.34a3.61,3.61,0,0,0-.282-1.3,1.408,1.408,0,0,0-.507-.687,1.532,1.532,0,0,0-.822-.191,2.04,2.04,0,0,0-1.261.5,7.038,7.038,0,0,0-1.014.946,5.3,5.3,0,0,1,.1.912q.011.462.011.912V-4.88a.785.785,0,0,0,.1.428.434.434,0,0,0,.394.158,2,2,0,0,0,.3-.023,2,2,0,0,1,.3-.023A.3.3,0,0,1-69.228-4q0,.36-.383.36-.631,0-1.273-.056t-1.3-.056q-.653,0-1.307.056t-1.307.056a.236.236,0,0,1-.225-.124A.5.5,0,0,1-75.085-4a.277.277,0,0,1,.2-.3,1.3,1.3,0,0,1,.462-.034q.259.023.394.023.315,0,.383-.146a1.024,1.024,0,0,0,.068-.417q0-1.667-.011-3.345T-73.6-11.57q0-.608-.034-1.34a3.609,3.609,0,0,0-.282-1.3,1.284,1.284,0,0,0-.541-.676,1.935,1.935,0,0,0-.856-.158,1.4,1.4,0,0,0-.721.282,5.97,5.97,0,0,0-.811.642q-.383.36-.586.586v8.65a.785.785,0,0,0,.1.428.434.434,0,0,0,.394.158,2.227,2.227,0,0,0,.315-.023,2.228,2.228,0,0,1,.315-.023q.315,0,.315.338a.319.319,0,0,1-.36.36q-.653,0-1.3-.045t-1.3-.045q-.676,0-1.34.045t-1.34.045a.262.262,0,0,1-.237-.124A.443.443,0,0,1-81.933-4q0-.338.383-.338.18,0,.372.011t.394.011a.342.342,0,0,0,.372-.315,3.146,3.146,0,0,0,.056-.541v-8.56a2.418,2.418,0,0,0-.068-.541.38.38,0,0,0-.428-.293,3.917,3.917,0,0,0-.507.034,3.918,3.918,0,0,1-.507.034.475.475,0,0,1-.259-.079.262.262,0,0,1-.124-.237.251.251,0,0,1,.1-.225.624.624,0,0,1,.191-.09,2.72,2.72,0,0,1,.608-.113q.315-.023.608-.068.27-.068.777-.2t1-.259a3.428,3.428,0,0,1,.676-.124.391.391,0,0,1,.383.248,1.7,1.7,0,0,1,.225.574q.068.327.158.619A6.687,6.687,0,0,1-75.9-15.478a4.692,4.692,0,0,1,1.87-.349,4.378,4.378,0,0,1,1.678.338,2.463,2.463,0,0,1,1.25,1.1,7.015,7.015,0,0,1,1.644-1.1,4.364,4.364,0,0,1,1.892-.405,4.9,4.9,0,0,1,2.32.428,2.124,2.124,0,0,1,1.025,1.318,8.575,8.575,0,0,1,.259,2.332V-4.88a.505.505,0,0,0,.191.473.791.791,0,0,0,.473.09q.282-.023.529-.023A.3.3,0,0,1-62.425-4Zm10.452-14.192a31.317,31.317,0,0,1-.732,4.021,20.4,20.4,0,0,1-1.363,3.841,8.607,8.607,0,0,1-.518.969q-.293.473-.608.924a9.386,9.386,0,0,1-1.115,1.374,10.305,10.305,0,0,1-1.34,1.149,7.871,7.871,0,0,1-.687.451q-.484.293-.98.529a1.967,1.967,0,0,1-.743.237.424.424,0,0,1-.169-.034.124.124,0,0,1-.079-.124.26.26,0,0,1,.09-.18,2.888,2.888,0,0,1,.282-.248,2.893,2.893,0,0,0,.282-.248,10.656,10.656,0,0,0,1.982-2.523,18.192,18.192,0,0,0,1.96-5.046,40.034,40.034,0,0,0,.788-5.361ZM-40.462-6.411a4.358,4.358,0,0,1-.056.586q-.056.383-.372.383a.753.753,0,0,1-.631-.338q-.023-.045-.09-.191a1.7,1.7,0,0,0-.113-.214,34.559,34.559,0,0,0-1.994-3.4q-1.16-1.757-2.455-3.424t-2.534-3.041l2.433-1.419q.653.721,1.419,1.757t1.543,2.241q.777,1.205,1.419,2.455a17.357,17.357,0,0,1,1.036,2.433A6.92,6.92,0,0,1-40.462-6.411Zm8.673-3.649q0,.18-.225.18a1.111,1.111,0,0,1-.383-.1,1.529,1.529,0,0,1-.36-.191,4.338,4.338,0,0,1-.969-.867,8.64,8.64,0,0,1-.89-1.239,7.12,7.12,0,0,1-.574-1.16A2.434,2.434,0,0,1-34.8-13.6l.71-.248.676-.237a3.227,3.227,0,0,1,.315-.1.072.072,0,0,1,.079.068.709.709,0,0,1,.011.113q.113.428.225.879l.225.9q.113.451.282.935a6.681,6.681,0,0,0,.394.912.987.987,0,0,1,.068.169A.535.535,0,0,1-31.789-10.061Zm9.011-3.762a16.934,16.934,0,0,1-1.633,4.652,13.1,13.1,0,0,1-2.94,3.739,12.3,12.3,0,0,1-4.3,2.422q-.2.068-.608.18t-.8.2a2.967,2.967,0,0,1-.619.09.335.335,0,0,1-.169-.045.166.166,0,0,1-.079-.158.152.152,0,0,1,.068-.135.568.568,0,0,1,.135-.068,9.308,9.308,0,0,0,.879-.405l.856-.451A11.838,11.838,0,0,0-29.6-5.533a13.228,13.228,0,0,0,2.94-4.122,17.671,17.671,0,0,0,1.43-4.866Zm-5.609,3.559q0,.18-.225.18A1.023,1.023,0,0,1-29-10.2a3.912,3.912,0,0,1-.36-.18,4.511,4.511,0,0,1-1-.856,7.607,7.607,0,0,1-.867-1.183,5.886,5.886,0,0,1-.563-1.205q.113-.045.428-.158t.676-.237q.36-.124.642-.225a2.929,2.929,0,0,1,.3-.1q.045,0,.056.056a.4.4,0,0,0,.034.1q.113.5.225,1t.27,1.025q.068.158.248.586t.349.833A2.4,2.4,0,0,1-28.387-10.263ZM-6.626-12.2a.319.319,0,0,1-.36.36,1.755,1.755,0,0,1-.282-.068q-.237-.068-.3-.09-.879-.27-1.746-.507t-1.746-.462a6.806,6.806,0,0,0-.867-.169q-.439-.056-.89-.146a.772.772,0,0,1-.158-.056.126.126,0,0,1-.068-.124,1.429,1.429,0,0,1,.146-.372q.146-.3.349-.687t.372-.71q.169-.327.214-.417a11.377,11.377,0,0,1,1.937.574,9.744,9.744,0,0,1,1.9.991,4.182,4.182,0,0,1,1.363,1.453A.636.636,0,0,1-6.626-12.2ZM2.7-16.075a4.963,4.963,0,0,1-.124.957q-.124.6-.315,1.261t-.394,1.239a6.833,6.833,0,0,1-.383.912A13.8,13.8,0,0,1-3.27-6.456,21.006,21.006,0,0,1-7.257-4.474a19.025,19.025,0,0,1-4.3,1.081L-12.731-5.6a21.141,21.141,0,0,0,2.512-.518,27.809,27.809,0,0,0,2.681-.856A16.309,16.309,0,0,0-5.23-8.033,18.588,18.588,0,0,0-3.079-9.441a14.777,14.777,0,0,0,1.9-1.723A21.757,21.757,0,0,0,.717-13.53,27.988,27.988,0,0,0,2.294-16.1l.09-.135a.152.152,0,0,1,.135-.068.142.142,0,0,1,.146.079A.374.374,0,0,1,2.7-16.075Zm-8.222-.135q0,.338-.36.338A2.809,2.809,0,0,1-6.458-16q-.439-.124-.89-.282a6.6,6.6,0,0,0-.653-.2q-.5-.135-.991-.259t-.991-.214a6.806,6.806,0,0,0-.867-.169q-.439-.056-.89-.146-.068-.023-.146-.056a.142.142,0,0,1-.079-.146,1.325,1.325,0,0,1,.146-.36q.146-.293.36-.665t.383-.687a3.966,3.966,0,0,1,.237-.405,12.992,12.992,0,0,1,1.915.552,8.653,8.653,0,0,1,1.892.969,4.523,4.523,0,0,1,1.374,1.43q.045.09.09.2A.6.6,0,0,1-5.523-16.211Zm27.55,9.371a1.711,1.711,0,0,1-.1.529,3.026,3.026,0,0,1-.214.507,2.6,2.6,0,0,1-.98,1.014,3.684,3.684,0,0,1-1.307.439,10.1,10.1,0,0,1-1.43.1H6.867V-5.555q1.87,0,3.762.011t3.762.011a1.077,1.077,0,0,0,.484-.676A4.762,4.762,0,0,0,15-7.042q.135-1.532.27-3.052t.18-3.03l-6.735.068v-.991h9.078q-.023,1.036-.135,2.084t-.2,2.106q-.045.743-.158,1.487t-.27,1.464a3.807,3.807,0,0,1-.237.732,2.389,2.389,0,0,1-.439.642H19.8a1.7,1.7,0,0,0,.563-.113.87.87,0,0,0,.451-.315,1.477,1.477,0,0,1-.766-.293.821.821,0,0,1-.383-.7.929.929,0,0,1,.372-.721,1.142,1.142,0,0,1,.732-.315,1.343,1.343,0,0,1,.879.315A1.026,1.026,0,0,1,22.027-6.839Zm22.887-12.1a15.521,15.521,0,0,1-.653,2.658,26.686,26.686,0,0,1-1.093,2.76,17.439,17.439,0,0,1-1.3,2.354,19.358,19.358,0,0,1-3.83,4.314A13.615,13.615,0,0,1,32.93-4.2q-.608.158-1.228.27t-1.318.2l-.586.056q-.338.034-.563.034a2.287,2.287,0,0,1-.484-.056q-.259-.056-.259-.191a.181.181,0,0,1,.124-.169,1.034,1.034,0,0,1,.259-.079q.248-.068.484-.124t.462-.124q.631-.18,1.25-.394a8.756,8.756,0,0,0,1.183-.507,17.136,17.136,0,0,0,2.253-1.374,12.924,12.924,0,0,0,2-1.735,18.59,18.59,0,0,0,2.027-2.568,2.189,2.189,0,0,0-.462-.2q-.327-.113-.507-.158-.158-.045-.484-.124t-.676-.158a5.342,5.342,0,0,0-.552-.1q-.225-.045-.7-.09t-.788-.068a.791.791,0,0,1-.349-.1.229.229,0,0,1-.056-.169.751.751,0,0,1,.191-.36q.191-.248.394-.541.27-.36.574-.788t.462-.631a6.382,6.382,0,0,1,.755.372q.372.214.822.529.338.2.845.574a5.706,5.706,0,0,1,.8.687,1.364,1.364,0,0,1,.315.383,21.521,21.521,0,0,0,1.442-2.883,24.573,24.573,0,0,0,1.014-3.019H36.107a13.262,13.262,0,0,1-1.239,2.264,13,13,0,0,1-1.757,2.095,9.039,9.039,0,0,1-2.185,1.566,1.757,1.757,0,0,1-.405.158,1.612,1.612,0,0,1-.405.068.459.459,0,0,1-.158-.034.124.124,0,0,1-.09-.124.272.272,0,0,1,.056-.18,1.586,1.586,0,0,0,.1-.135,19.575,19.575,0,0,0,1.25-1.768,23.629,23.629,0,0,0,1.16-2.061q.293-.563.552-1.171t.439-1.149q.09-.248.214-.687l.248-.879q.124-.439.169-.687l2.974.383a2.461,2.461,0,0,1-.169.586q-.124.293-.282.631Zm22.955.563a14.714,14.714,0,0,1-.462,2.027q-.327,1.1-.788,2.253t-.98,2.185A17.958,17.958,0,0,1,64.6-10.083,17.233,17.233,0,0,1,60.9-5.893,14.379,14.379,0,0,1,55.885-3.37q-.856.225-1.768.372a11.567,11.567,0,0,1-1.836.146,3.856,3.856,0,0,1-.405-.045q-.315-.045-.315-.2,0-.135.248-.225a3.535,3.535,0,0,1,.541-.146l.405-.079A10.6,10.6,0,0,0,54.049-4q.642-.27,1.273-.563a15.047,15.047,0,0,0,2.2-1.352,13.451,13.451,0,0,0,1.9-1.69,19.165,19.165,0,0,0,2.2-2.883,23.136,23.136,0,0,0,1.735-3.345,19.136,19.136,0,0,0,1.093-3.458H58.994a13.387,13.387,0,0,1-1.216,2.309,12.259,12.259,0,0,1-1.7,2.072,7.985,7.985,0,0,1-2.129,1.5q-.27.135-.563.248a1.68,1.68,0,0,1-.608.113q-.113,0-.113-.09a.32.32,0,0,1,.045-.18q.045-.068.113-.158a12.373,12.373,0,0,0,1.16-1.633q.6-.98,1.149-2.095t.969-2.2a12.824,12.824,0,0,0,.6-1.937q.676.2,1.363.439a13.773,13.773,0,0,1,1.318.529Zm.541-3.784a2.927,2.927,0,0,1-.113.642q-.113.439-.293.946t-.372.912a1.394,1.394,0,0,1-.349.518.409.409,0,0,1-.293.135.147.147,0,0,1-.146-.068l-.079-.158a2.862,2.862,0,0,1-.068-.394,3.713,3.713,0,0,0-.068-.417q-.09-.518-.158-1.059t-.158-1.081v-.045q0-.045.113-.09a2.569,2.569,0,0,1,.507-.056l.676-.023q.349-.011.529-.011Q68.41-22.405,68.41-22.158Zm2.906-.068a2.488,2.488,0,0,1-.135.642q-.135.439-.338.957a9.054,9.054,0,0,1-.417.924,1.9,1.9,0,0,1-.349.518.409.409,0,0,1-.293.135q-.158,0-.225-.225a3.019,3.019,0,0,1-.068-.473q-.045-.428-.113-.98t-.113-.991q-.045-.439-.045-.529,0-.113.135-.135.315-.045.845-.068t.845-.023Q71.316-22.473,71.316-22.225Zm13.358,10.61q.428.9.924,1.8a11.807,11.807,0,0,0,1.126,1.69,9.888,9.888,0,0,0,.957-1.69,10.306,10.306,0,0,0,.642-1.8Zm-2.861-5.542a.856.856,0,0,1-.327.71,1.18,1.18,0,0,1-.755.259H79.043q0,.721.011,1.453t.011,1.453q.113-.045.439-.2t.71-.327q.383-.169.676-.293a1.477,1.477,0,0,1,.36-.124.1.1,0,0,1,.113.113,1.069,1.069,0,0,1-.282.563,8.5,8.5,0,0,1-.687.766q-.405.405-.777.721t-.552.451v5.97a11.886,11.886,0,0,1-.124,1.768,2.326,2.326,0,0,1-.642,1.34,2.358,2.358,0,0,1-1.712.518,3.9,3.9,0,0,1-1.712-.428,6.106,6.106,0,0,1-1.487-.991.353.353,0,0,0-.068-.09.13.13,0,0,1-.045-.09.1.1,0,0,1,.068-.113.371.371,0,0,1,.113-.023,2.85,2.85,0,0,1,.755.124,3.184,3.184,0,0,0,.867.124,1.227,1.227,0,0,0,.9-.293,1.486,1.486,0,0,0,.394-.743,4.3,4.3,0,0,0,.1-.946V-7.8q0-1.16-.023-2.309-.563.383-1.171.743a8.118,8.118,0,0,1-1.262.608l-1.284-2.163q.924-.315,1.858-.653t1.858-.653q0-.991-.011-1.982t-.011-1.982H73.456v-.991h2.974q0-1.194-.011-2.388t-.011-2.388H79.02v4.776h.766a1.039,1.039,0,0,1,.349-.642A.96.96,0,0,1,80.8-18.1a1.048,1.048,0,0,1,.7.27A.854.854,0,0,1,81.813-17.157ZM94.924-2.92a.974.974,0,0,1-.338.755,1.142,1.142,0,0,1-.788.3A4.829,4.829,0,0,1,92.446-2.1a14.8,14.8,0,0,1-1.554-.563q-.766-.327-1.284-.574a11.116,11.116,0,0,1-1.464-.879q-.7-.5-1.374-.991a10.709,10.709,0,0,1-3.323,1.836,11.27,11.27,0,0,1-3.728.665q-.068,0-.2-.011T79.38-2.74a.142.142,0,0,1,.079-.146,1.113,1.113,0,0,1,.169-.056q.338-.113.653-.237t.631-.282a15.366,15.366,0,0,0,2.253-1.329,15.033,15.033,0,0,0,2.027-1.667,13.85,13.85,0,0,1-1.532-1.712q-.7-.924-1.329-1.892.518-.383.991-.777t.969-.777H81.611v-1.1H91.23a.816.816,0,0,1,.315.056q.135.056.135.282a3.758,3.758,0,0,1-.349,1.43,12.837,12.837,0,0,1-.89,1.7q-.541.879-1.1,1.622a14.363,14.363,0,0,1-.969,1.171A20.674,20.674,0,0,0,90.43-4.621,16.29,16.29,0,0,0,92.739-3.1a1.218,1.218,0,0,1,.462-.586,1.225,1.225,0,0,1,.71-.225,1,1,0,0,1,.687.3A.919.919,0,0,1,94.924-2.92Zm-.045-13.291a1.044,1.044,0,0,1-.158.552,1.911,1.911,0,0,1-.36.439,4.57,4.57,0,0,1-1.735.991,6.391,6.391,0,0,1-1.982.338,6.729,6.729,0,0,1-1.926-.225,1.676,1.676,0,0,1-1.059-.89,4.493,4.493,0,0,1-.327-1.926q0-.879.011-1.768t.034-1.768H85.553q-.023,1.036-.146,2.061a9.081,9.081,0,0,1-.462,1.971,5.589,5.589,0,0,1-1.059,1.78,6.141,6.141,0,0,1-.665.653,5.567,5.567,0,0,1-.755.563q-.158.09-.36.191a.9.9,0,0,1-.405.1.536.536,0,0,1-.146-.034q-.1-.034-.1-.1a.321.321,0,0,1,.056-.191q.056-.079.1-.146a5.677,5.677,0,0,0,.541-.912,6.725,6.725,0,0,0,.36-1,8.06,8.06,0,0,0,.293-1.892q.045-1.036.011-2.095t-.034-1.96h7.366q-.023,1.126-.079,2.275t-.056,2.275a2.118,2.118,0,0,0,.327,1.262,1.37,1.37,0,0,0,1.183.451,5.208,5.208,0,0,0,.811-.068,2.859,2.859,0,0,0,.766-.225,1.758,1.758,0,0,1-.3-.282.555.555,0,0,1-.146-.372.914.914,0,0,1,.372-.788,1.4,1.4,0,0,1,.845-.27.98.98,0,0,1,.721.293A.98.98,0,0,1,94.879-16.211Zm16.309,7.592h-1.577v2.883h.856a.558.558,0,0,0,.586-.372,2.133,2.133,0,0,0,.135-.732Zm1.1-7.749H108.44v2.726H111.1a1.26,1.26,0,0,0,.856-.293,1.016,1.016,0,0,0,.338-.811Zm-7.231-4.19q0,.2-.394.394a6.793,6.793,0,0,1-.935.36q-.541.169-1.025.293l-.665.169v3.469h.788a.877.877,0,0,1,.3-.665.96.96,0,0,1,.665-.282,1.063,1.063,0,0,1,.766.3,1.006,1.006,0,0,1,.315.755.674.674,0,0,1-.394.676,1.956,1.956,0,0,1-.822.18h-1.622v1.96l.924-.383q.09.541.259,1.228t.383,1.363q.214.676.417,1.194a.441.441,0,0,1,.034.09.371.371,0,0,1,.011.09q0,.18-.2.18a1.066,1.066,0,0,1-.6-.315,7.849,7.849,0,0,1-.721-.7q-.349-.383-.507-.563v8.628H99.452v-7.974A5.672,5.672,0,0,1,98.9-9.025a14.388,14.388,0,0,1-.89,1.261A12.843,12.843,0,0,1,97-6.614a5.242,5.242,0,0,1-.924.766.457.457,0,0,1-.248.09q-.113,0-.113-.135a.348.348,0,0,1,.034-.158,1.029,1.029,0,0,0,.056-.135,21.107,21.107,0,0,0,1.374-3.694,20.184,20.184,0,0,0,.676-3.875l1.6.338V-14.9h-3.2v-.969h3.2v-2.974q-.811.113-1.633.18t-1.633.068a.616.616,0,0,1-.135-.023.106.106,0,0,1-.09-.113q0-.113.158-.158.383-.158.788-.3t.788-.3q1.374-.563,2.681-1.25a21.3,21.3,0,0,0,2.5-1.543q.113.068.451.3t.743.541q.405.3.7.552T105.061-20.558ZM116.707-4.812a3.958,3.958,0,0,1-.552,2.129,2.108,2.108,0,0,1-1.949.89,2.687,2.687,0,0,1-.969-.225,8.328,8.328,0,0,1-1.1-.541,10.272,10.272,0,0,1-.879-.563,1.469,1.469,0,0,1-.158-.135.243.243,0,0,1-.068-.18q0-.045.068-.045h.09a.586.586,0,0,1,.18.023,6.019,6.019,0,0,0,.845.124q.439.034.867.034a.893.893,0,0,0,.71-.27,1.335,1.335,0,0,0,.3-.676,4.667,4.667,0,0,0,.068-.766v-5.632h-7.479v8.493h-2.3v-9.461h12.322Zm-3.379-2.14A2.253,2.253,0,0,1,113-5.623a1.545,1.545,0,0,1-.9.6,5.462,5.462,0,0,1-1.34.146h-3.154V-9.407h5.722Zm1.442-7.817a1.693,1.693,0,0,1-.5,1.352,2.317,2.317,0,0,1-1.228.529,10.583,10.583,0,0,1-1.453.1h-5.519V-17.2h8.7Zm2.7-4.753a1,1,0,0,1-.394.856,1.489,1.489,0,0,1-.912.293H104.092v-1.036h5l-.473-3.109q.2,0,.721.011t1.115.045q.6.034,1.059.1t.552.2a.33.33,0,0,1,.068.2,1.649,1.649,0,0,1-.135.484q-.135.349-.315.766t-.349.777q-.169.36-.259.518h3.762a1.426,1.426,0,0,1,.394-.924,1.19,1.19,0,0,1,.912-.405,1.4,1.4,0,0,1,.924.338A1.09,1.09,0,0,1,117.473-19.522Z" transform="translate(175.351 22.518)"/></g></g></svg>